M48
; DRILL file {KiCad (5.1.8)-1} date 12/25/20 10:49:04
; FORMAT={-:-/ absolute / inch / decimal}
; #@! TF.CreationDate,2020-12-25T10:49:04+01:00
; #@! TF.GenerationSoftware,Kicad,Pcbnew,(5.1.8)-1
; #@! TF.FileFunction,Plated,1,2,PTH
FMAT,2
INCH
T1C0.0118
T2C0.0315
T3C0.0394
T4C0.0598
T5C0.1260
%
G90
G05
T1
X2.285Y-6.751
X2.285Y-7.198
X2.307Y-7.175
X2.308Y-6.651
X2.331Y-6.551
X2.332Y-7.15
X2.354Y-6.451
X2.354Y-7.126
X2.377Y-6.351
X2.377Y-7.101
X2.401Y-6.252
X2.401Y-7.001
X2.428Y-6.151
X2.428Y-6.899
X2.4516Y-6.051
X2.4516Y-6.8014
X2.634Y-7.245
X2.815Y-7.213
X2.856Y-7.851
X2.876Y-7.503
X2.88Y-6.505
X2.88Y-7.399
X2.89Y-6.403
X2.902Y-7.853
X2.906Y-6.309
X2.92Y-6.101
X2.922Y-6.211
X2.962Y-6.001
X3.118Y-7.299
X3.18Y-8.291
X3.226Y-6.901
X3.226Y-8.049
X3.228Y-8.509
X3.243Y-6.149
X3.243Y-6.215
X3.244Y-6.265
X3.258Y-5.613
X3.264Y-6.887
X3.2647Y-7.9823
X3.268Y-8.509
X3.278Y-5.639
X3.29Y-7.915
X3.308Y-8.509
X3.314Y-5.847
X3.322Y-7.886
X3.33Y-8.659
X3.34Y-5.824
X3.348Y-8.509
X3.388Y-8.509
X3.402Y-6.285
X3.402Y-6.325
X3.402Y-6.365
X3.402Y-6.405
X3.402Y-6.445
X3.419Y-6.149
X3.419Y-6.215
X3.428Y-8.509
X3.43Y-8.635
X3.442Y-6.285
X3.442Y-6.325
X3.442Y-6.365
X3.442Y-6.405
X3.442Y-6.445
X3.46Y-6.631
X3.478Y-8.635
X3.482Y-6.285
X3.482Y-6.325
X3.482Y-6.365
X3.482Y-6.405
X3.482Y-6.445
X3.518Y-7.203
X3.522Y-6.285
X3.522Y-6.325
X3.522Y-6.365
X3.522Y-6.405
X3.522Y-6.445
X3.53Y-7.239
X3.534Y-8.277
X3.546Y-8.191
X3.58Y-8.635
X3.702Y-5.699
X3.702Y-5.739
X3.702Y-5.779
X3.702Y-5.819
X3.742Y-5.699
X3.742Y-5.739
X3.742Y-5.779
X3.742Y-5.819
X3.77Y-8.197
X3.772Y-8.637
X3.782Y-5.699
X3.782Y-5.739
X3.782Y-5.779
X3.782Y-5.819
X3.822Y-5.699
X3.822Y-5.739
X3.822Y-5.779
X3.822Y-5.819
X3.83Y-8.683
X3.88Y-5.868
X3.88Y-8.683
X3.92Y-6.861
X3.93Y-5.841
X3.958Y-5.9
X3.962Y-7.857
X3.962Y-7.897
X3.962Y-7.937
X3.965Y-6.444
X3.984Y-5.932
X3.992Y-7.515
X3.992Y-7.553
X3.994Y-7.323
X4.002Y-7.857
X4.002Y-7.897
X4.002Y-7.937
X4.04Y-7.753
X4.049Y-6.23
X4.075Y-5.666
X4.075Y-6.896
X4.076Y-6.967
X4.076Y-7.013
X4.076Y-7.057
X4.111Y-5.791
X4.124Y-7.013
X4.125Y-6.756
X4.126Y-7.291
X4.126Y-7.335
X4.126Y-7.377
X4.175Y-6.686
X4.18Y-5.665
X4.181Y-5.722
X4.216Y-7.699
X4.216Y-7.737
X4.216Y-7.901
X4.216Y-7.945
X4.216Y-7.989
X4.225Y-6.616
X4.275Y-5.9
X4.275Y-6.546
X4.278Y-8.321
X4.288Y-7.23
X4.321Y-7.148
X4.325Y-5.932
X4.325Y-6.368
X4.326Y-8.649
X4.35Y-8.122
X4.36Y-8.171
X4.374Y-5.931
X4.375Y-6.336
X4.388Y-8.655
X4.425Y-5.9
X4.425Y-6.265
X4.451Y-6.859
X4.468Y-8.399
X4.47Y-6.071
X4.47Y-6.111
X4.47Y-6.151
X4.47Y-6.191
X4.47Y-6.231
X4.47Y-8.319
X4.47Y-8.359
X4.475Y-6.522
X4.475Y-6.565
X4.475Y-6.615
X4.4845Y-8.0555
X4.5Y-6.025
X4.51Y-8.319
X4.51Y-8.359
X4.51Y-8.399
X4.51Y-8.827
X4.532Y-8.877
X4.55Y-8.359
X4.55Y-8.399
X4.556Y-8.827
X4.578Y-8.877
X4.59Y-8.399
X4.596Y-8.827
X4.62Y-8.661
X4.634Y-8.767
X4.675Y-7.63
X4.705Y-6.76
X4.975Y-6.79
X5.175Y-5.97
X5.325Y-6.36
X5.335Y-7.47
X5.3815Y-7.1865
X5.425Y-7.21
X5.495Y-7.31
X5.5235Y-7.2815
X5.575Y-7.03
X5.614Y-6.573
X5.635Y-6.78
X5.655Y-6.74
X5.655Y-7.46
X5.688Y-7.489
T2
X5.48Y-8.781
X5.6769Y-8.781
X4.422Y-5.783
X4.6141Y-5.783
X4.825Y-6.2
X4.825Y-6.5
X4.925Y-6.2
X4.925Y-6.5
X5.025Y-6.2
X5.025Y-6.5
X5.125Y-6.2
X5.125Y-6.5
X5.225Y-6.2
X5.225Y-6.5
X5.325Y-6.2
X5.325Y-6.5
X5.425Y-6.2
X5.425Y-6.5
X5.525Y-6.2
X5.525Y-6.5
X5.625Y-6.2
X5.625Y-6.5
X4.0301Y-5.751
X4.227Y-5.751
X3.825Y-5.95
X3.825Y-6.0201
X3.825Y-6.0902
X3.825Y-6.1602
X3.825Y-6.2303
X3.825Y-6.3004
X3.825Y-6.3705
X3.825Y-6.4406
X3.825Y-6.5106
X3.825Y-6.5807
X3.825Y-6.6508
X3.825Y-6.7209
X3.825Y-6.7909
X3.825Y-6.861
X3.825Y-6.9311
X3.825Y-7.0012
X3.825Y-7.0713
X3.825Y-7.1413
X3.825Y-7.2114
X3.825Y-7.2815
X3.825Y-7.3516
X3.825Y-7.4217
X3.825Y-7.4917
X3.825Y-7.5618
X3.825Y-7.6319
X3.825Y-7.702
X3.825Y-7.772
X3.825Y-7.8421
X3.825Y-7.9122
X3.825Y-7.9823
X3.825Y-8.0524
X3.825Y-8.1224
X4.575Y-5.95
X4.575Y-6.0201
X4.575Y-6.0902
X4.575Y-6.1602
X4.575Y-6.2303
X4.575Y-6.3004
X4.575Y-6.3705
X4.575Y-6.4406
X4.575Y-6.5106
X4.575Y-6.5807
X4.575Y-6.6508
X4.575Y-6.7209
X4.575Y-6.7909
X4.575Y-6.861
X4.575Y-6.9311
X4.575Y-7.0012
X4.575Y-7.0713
X4.575Y-7.1413
X4.575Y-7.2114
X4.575Y-7.2815
X4.575Y-7.3516
X4.575Y-7.4217
X4.575Y-7.4917
X4.575Y-7.5618
X4.575Y-7.6319
X4.575Y-7.702
X4.575Y-7.772
X4.575Y-7.8421
X4.575Y-7.9122
X4.575Y-7.9823
X4.575Y-8.0524
X4.575Y-8.1224
X3.03Y-5.951
X3.03Y-6.051
X3.03Y-6.151
X3.03Y-6.251
X3.03Y-6.351
X3.03Y-6.451
X3.03Y-6.551
X3.03Y-6.651
X3.03Y-6.751
X3.03Y-6.851
X3.03Y-6.951
X3.03Y-7.051
X3.03Y-7.151
X3.03Y-7.251
X3.03Y-7.351
X3.03Y-7.451
X3.03Y-7.551
X3.03Y-7.651
X3.03Y-7.751
X3.03Y-7.851
X3.63Y-5.951
X3.63Y-6.051
X3.63Y-6.151
X3.63Y-6.251
X3.63Y-6.351
X3.63Y-6.451
X3.63Y-6.551
X3.63Y-6.651
X3.63Y-6.751
X3.63Y-6.851
X3.63Y-6.951
X3.63Y-7.051
X3.63Y-7.151
X3.63Y-7.251
X3.63Y-7.351
X3.63Y-7.451
X3.63Y-7.551
X3.63Y-7.651
X3.63Y-7.751
X3.63Y-7.851
X4.825Y-6.65
X4.825Y-6.95
X4.925Y-6.65
X4.925Y-6.95
X5.025Y-6.65
X5.025Y-6.95
X5.125Y-6.65
X5.125Y-6.95
X5.225Y-6.65
X5.225Y-6.95
X5.325Y-6.65
X5.325Y-6.95
X5.425Y-6.65
X5.425Y-6.95
X5.525Y-6.65
X5.525Y-6.95
X5.625Y-6.65
X5.625Y-6.95
X4.825Y-8.0
X4.825Y-8.3
X4.925Y-8.0
X4.925Y-8.3
X5.025Y-8.0
X5.025Y-8.3
X5.125Y-8.0
X5.125Y-8.3
X5.225Y-8.0
X5.225Y-8.3
X5.325Y-8.0
X5.325Y-8.3
X5.425Y-8.0
X5.425Y-8.3
X5.525Y-8.0
X5.525Y-8.3
X5.625Y-8.0
X5.625Y-8.3
X4.825Y-7.55
X4.825Y-7.85
X4.925Y-7.55
X4.925Y-7.85
X5.025Y-7.55
X5.025Y-7.85
X5.125Y-7.55
X5.125Y-7.85
X5.225Y-7.55
X5.225Y-7.85
X5.325Y-7.55
X5.325Y-7.85
X5.425Y-7.55
X5.425Y-7.85
X5.525Y-7.55
X5.525Y-7.85
X5.625Y-7.55
X5.625Y-7.85
X4.825Y-7.1
X4.825Y-7.4
X4.925Y-7.1
X4.925Y-7.4
X5.025Y-7.1
X5.025Y-7.4
X5.125Y-7.1
X5.125Y-7.4
X5.225Y-7.1
X5.225Y-7.4
X5.325Y-7.1
X5.325Y-7.4
X5.425Y-7.1
X5.425Y-7.4
X5.525Y-7.1
X5.525Y-7.4
X5.625Y-7.1
X5.625Y-7.4
X5.48Y-8.531
X5.6769Y-8.531
X5.08Y-8.781
X5.2721Y-8.781
X3.13Y-8.411
X3.13Y-8.811
X3.23Y-8.411
X3.23Y-8.811
X3.33Y-8.411
X3.33Y-8.811
X3.43Y-8.411
X3.43Y-8.811
X3.53Y-8.411
X3.53Y-8.811
X3.63Y-8.411
X3.63Y-8.811
X3.73Y-8.411
X3.73Y-8.811
X3.83Y-8.411
X3.83Y-8.811
X3.93Y-8.411
X3.93Y-8.811
X4.03Y-8.411
X4.03Y-8.811
X4.13Y-8.411
X4.13Y-8.811
X4.23Y-8.411
X4.23Y-8.811
X4.825Y-5.75
X4.825Y-6.05
X4.925Y-5.75
X4.925Y-6.05
X5.025Y-5.75
X5.025Y-6.05
X5.125Y-5.75
X5.125Y-6.05
X5.225Y-5.75
X5.225Y-6.05
X5.325Y-5.75
X5.325Y-6.05
X5.425Y-5.75
X5.425Y-6.05
X5.525Y-5.75
X5.525Y-6.05
X5.625Y-5.75
X5.625Y-6.05
X5.08Y-8.531
X5.2721Y-8.531
X2.525Y-5.95
X2.525Y-6.05
X2.525Y-6.15
X2.525Y-6.25
X2.525Y-6.35
X2.525Y-6.45
X2.525Y-6.55
X2.525Y-6.65
X2.525Y-6.75
X2.525Y-6.85
X2.525Y-6.95
X2.525Y-7.05
X2.825Y-5.95
X2.825Y-6.05
X2.825Y-6.15
X2.825Y-6.25
X2.825Y-6.35
X2.825Y-6.45
X2.825Y-6.55
X2.825Y-6.65
X2.825Y-6.75
X2.825Y-6.85
X2.825Y-6.95
X2.825Y-7.05
T3
X1.98Y-5.951
X1.98Y-6.051
X1.98Y-6.151
X1.98Y-6.251
X1.98Y-6.351
X1.98Y-6.451
X1.98Y-6.551
X1.98Y-6.651
X1.98Y-6.751
X1.98Y-6.851
X2.08Y-5.951
X2.08Y-6.051
X2.08Y-6.151
X2.08Y-6.251
X2.08Y-6.351
X2.08Y-6.451
X2.08Y-6.551
X2.08Y-6.651
X2.08Y-6.751
X2.08Y-6.851
X2.83Y-5.45
X2.83Y-5.55
X2.93Y-5.45
X2.93Y-5.55
X3.03Y-5.45
X3.03Y-5.55
X3.13Y-5.45
X3.13Y-5.55
X3.23Y-5.45
X3.23Y-5.55
X3.33Y-5.45
X3.33Y-5.55
X3.43Y-5.45
X3.43Y-5.55
X3.53Y-5.45
X3.53Y-5.55
X3.63Y-5.45
X3.63Y-5.55
X3.73Y-5.45
X3.73Y-5.55
X3.83Y-5.45
X3.83Y-5.55
X3.93Y-5.45
X3.93Y-5.55
X4.03Y-5.45
X4.03Y-5.55
X4.13Y-5.45
X4.13Y-5.55
X4.23Y-5.45
X4.23Y-5.55
X4.33Y-5.45
X4.33Y-5.55
X4.43Y-5.45
X4.43Y-5.55
X4.53Y-5.45
X4.53Y-5.55
X4.63Y-5.45
X4.63Y-5.55
X4.73Y-5.45
X4.73Y-5.55
X2.848Y-8.9764
X2.848Y-9.0764
X2.948Y-8.9764
X2.948Y-9.0764
X3.048Y-8.9764
X3.048Y-9.0764
X3.148Y-8.9764
X3.148Y-9.0764
X3.248Y-8.9764
X3.248Y-9.0764
X3.348Y-8.9764
X3.348Y-9.0764
X3.448Y-8.9764
X3.448Y-9.0764
X3.548Y-8.9764
X3.548Y-9.0764
X3.648Y-8.9764
X3.648Y-9.0764
X3.748Y-8.9764
X3.748Y-9.0764
X3.848Y-8.9764
X3.848Y-9.0764
X3.948Y-8.9764
X3.948Y-9.0764
X4.048Y-8.9764
X4.048Y-9.0764
X4.148Y-8.9764
X4.148Y-9.0764
X4.248Y-8.9764
X4.248Y-9.0764
X4.348Y-8.9764
X4.348Y-9.0764
X4.448Y-8.9764
X4.448Y-9.0764
X4.548Y-8.9764
X4.548Y-9.0764
X4.648Y-8.9764
X4.648Y-9.0764
X4.748Y-8.9764
X4.748Y-9.0764
X2.13Y-7.377
X2.23Y-7.377
X2.33Y-7.377
X2.225Y-7.7
X2.225Y-7.8
X2.225Y-7.9
X2.225Y-8.0
X2.225Y-8.1
X2.225Y-8.2
X2.225Y-8.3
X2.225Y-8.4
X2.225Y-8.5
X2.225Y-8.6
X2.325Y-7.7
X2.325Y-7.8
X2.325Y-7.9
X2.325Y-8.0
X2.325Y-8.1
X2.325Y-8.2
X2.325Y-8.3
X2.325Y-8.4
X2.325Y-8.5
X2.325Y-8.6
T4
X5.0Y-5.45
X5.2Y-5.45
T5
X5.55Y-9.025
X2.025Y-5.5
X5.55Y-5.5
X2.025Y-9.025
T0
M30
