G04 #@! TF.GenerationSoftware,KiCad,Pcbnew,(5.1.8)-1*
G04 #@! TF.CreationDate,2020-12-25T10:48:06+01:00*
G04 #@! TF.ProjectId,VDP-Composite,5644502d-436f-46d7-906f-736974652e6b,v1.0*
G04 #@! TF.SameCoordinates,Original*
G04 #@! TF.FileFunction,Soldermask,Top*
G04 #@! TF.FilePolarity,Negative*
%FSLAX46Y46*%
G04 Gerber Fmt 4.6, Leading zero omitted, Abs format (unit mm)*
G04 Created by KiCad (PCBNEW (5.1.8)-1) date 2020-12-25 10:48:06*
%MOMM*%
%LPD*%
G01*
G04 APERTURE LIST*
%ADD10C,1.600000*%
%ADD11R,2.200000X1.300000*%
%ADD12R,1.600000X2.400000*%
%ADD13O,1.600000X2.400000*%
%ADD14C,5.000000*%
%ADD15R,1.700000X1.700000*%
%ADD16O,1.700000X1.700000*%
%ADD17R,3.000000X3.000000*%
%ADD18C,3.000000*%
%ADD19C,1.700000*%
%ADD20R,2.400000X1.600000*%
%ADD21O,2.400000X1.600000*%
%ADD22C,1.500000*%
G04 APERTURE END LIST*
G36*
G01*
X71205100Y-217173000D02*
X70730100Y-217173000D01*
G75*
G02*
X70492600Y-216935500I0J237500D01*
G01*
X70492600Y-216435500D01*
G75*
G02*
X70730100Y-216198000I237500J0D01*
G01*
X71205100Y-216198000D01*
G75*
G02*
X71442600Y-216435500I0J-237500D01*
G01*
X71442600Y-216935500D01*
G75*
G02*
X71205100Y-217173000I-237500J0D01*
G01*
G37*
G36*
G01*
X71205100Y-215348000D02*
X70730100Y-215348000D01*
G75*
G02*
X70492600Y-215110500I0J237500D01*
G01*
X70492600Y-214610500D01*
G75*
G02*
X70730100Y-214373000I237500J0D01*
G01*
X71205100Y-214373000D01*
G75*
G02*
X71442600Y-214610500I0J-237500D01*
G01*
X71442600Y-215110500D01*
G75*
G02*
X71205100Y-215348000I-237500J0D01*
G01*
G37*
D10*
X102365800Y-146075400D03*
X107365800Y-146075400D03*
D11*
X97155000Y-151130000D03*
G36*
G01*
X96055000Y-153235000D02*
X96055000Y-152585000D01*
G75*
G02*
X96380000Y-152260000I325000J0D01*
G01*
X97930000Y-152260000D01*
G75*
G02*
X98255000Y-152585000I0J-325000D01*
G01*
X98255000Y-153235000D01*
G75*
G02*
X97930000Y-153560000I-325000J0D01*
G01*
X96380000Y-153560000D01*
G75*
G02*
X96055000Y-153235000I0J325000D01*
G01*
G37*
G36*
G01*
X96055000Y-155015000D02*
X96055000Y-154365000D01*
G75*
G02*
X96380000Y-154040000I325000J0D01*
G01*
X97930000Y-154040000D01*
G75*
G02*
X98255000Y-154365000I0J-325000D01*
G01*
X98255000Y-155015000D01*
G75*
G02*
X97930000Y-155340000I-325000J0D01*
G01*
X96380000Y-155340000D01*
G75*
G02*
X96055000Y-155015000I0J325000D01*
G01*
G37*
G36*
G01*
X96055000Y-156795000D02*
X96055000Y-156145000D01*
G75*
G02*
X96380000Y-155820000I325000J0D01*
G01*
X97930000Y-155820000D01*
G75*
G02*
X98255000Y-156145000I0J-325000D01*
G01*
X98255000Y-156795000D01*
G75*
G02*
X97930000Y-157120000I-325000J0D01*
G01*
X96380000Y-157120000D01*
G75*
G02*
X96055000Y-156795000I0J325000D01*
G01*
G37*
G36*
G01*
X96055000Y-158575000D02*
X96055000Y-157925000D01*
G75*
G02*
X96380000Y-157600000I325000J0D01*
G01*
X97930000Y-157600000D01*
G75*
G02*
X98255000Y-157925000I0J-325000D01*
G01*
X98255000Y-158575000D01*
G75*
G02*
X97930000Y-158900000I-325000J0D01*
G01*
X96380000Y-158900000D01*
G75*
G02*
X96055000Y-158575000I0J325000D01*
G01*
G37*
G36*
G01*
X96055000Y-160355000D02*
X96055000Y-159705000D01*
G75*
G02*
X96380000Y-159380000I325000J0D01*
G01*
X97930000Y-159380000D01*
G75*
G02*
X98255000Y-159705000I0J-325000D01*
G01*
X98255000Y-160355000D01*
G75*
G02*
X97930000Y-160680000I-325000J0D01*
G01*
X96380000Y-160680000D01*
G75*
G02*
X96055000Y-160355000I0J325000D01*
G01*
G37*
G36*
G01*
X96055000Y-162135000D02*
X96055000Y-161485000D01*
G75*
G02*
X96380000Y-161160000I325000J0D01*
G01*
X97930000Y-161160000D01*
G75*
G02*
X98255000Y-161485000I0J-325000D01*
G01*
X98255000Y-162135000D01*
G75*
G02*
X97930000Y-162460000I-325000J0D01*
G01*
X96380000Y-162460000D01*
G75*
G02*
X96055000Y-162135000I0J325000D01*
G01*
G37*
G36*
G01*
X96055000Y-163915000D02*
X96055000Y-163265000D01*
G75*
G02*
X96380000Y-162940000I325000J0D01*
G01*
X97930000Y-162940000D01*
G75*
G02*
X98255000Y-163265000I0J-325000D01*
G01*
X98255000Y-163915000D01*
G75*
G02*
X97930000Y-164240000I-325000J0D01*
G01*
X96380000Y-164240000D01*
G75*
G02*
X96055000Y-163915000I0J325000D01*
G01*
G37*
G36*
G01*
X96055000Y-165695000D02*
X96055000Y-165045000D01*
G75*
G02*
X96380000Y-164720000I325000J0D01*
G01*
X97930000Y-164720000D01*
G75*
G02*
X98255000Y-165045000I0J-325000D01*
G01*
X98255000Y-165695000D01*
G75*
G02*
X97930000Y-166020000I-325000J0D01*
G01*
X96380000Y-166020000D01*
G75*
G02*
X96055000Y-165695000I0J325000D01*
G01*
G37*
G36*
G01*
X96055000Y-167475000D02*
X96055000Y-166825000D01*
G75*
G02*
X96380000Y-166500000I325000J0D01*
G01*
X97930000Y-166500000D01*
G75*
G02*
X98255000Y-166825000I0J-325000D01*
G01*
X98255000Y-167475000D01*
G75*
G02*
X97930000Y-167800000I-325000J0D01*
G01*
X96380000Y-167800000D01*
G75*
G02*
X96055000Y-167475000I0J325000D01*
G01*
G37*
G36*
G01*
X96055000Y-169255000D02*
X96055000Y-168605000D01*
G75*
G02*
X96380000Y-168280000I325000J0D01*
G01*
X97930000Y-168280000D01*
G75*
G02*
X98255000Y-168605000I0J-325000D01*
G01*
X98255000Y-169255000D01*
G75*
G02*
X97930000Y-169580000I-325000J0D01*
G01*
X96380000Y-169580000D01*
G75*
G02*
X96055000Y-169255000I0J325000D01*
G01*
G37*
G36*
G01*
X96055000Y-171035000D02*
X96055000Y-170385000D01*
G75*
G02*
X96380000Y-170060000I325000J0D01*
G01*
X97930000Y-170060000D01*
G75*
G02*
X98255000Y-170385000I0J-325000D01*
G01*
X98255000Y-171035000D01*
G75*
G02*
X97930000Y-171360000I-325000J0D01*
G01*
X96380000Y-171360000D01*
G75*
G02*
X96055000Y-171035000I0J325000D01*
G01*
G37*
G36*
G01*
X96055000Y-172815000D02*
X96055000Y-172165000D01*
G75*
G02*
X96380000Y-171840000I325000J0D01*
G01*
X97930000Y-171840000D01*
G75*
G02*
X98255000Y-172165000I0J-325000D01*
G01*
X98255000Y-172815000D01*
G75*
G02*
X97930000Y-173140000I-325000J0D01*
G01*
X96380000Y-173140000D01*
G75*
G02*
X96055000Y-172815000I0J325000D01*
G01*
G37*
G36*
G01*
X96055000Y-174595000D02*
X96055000Y-173945000D01*
G75*
G02*
X96380000Y-173620000I325000J0D01*
G01*
X97930000Y-173620000D01*
G75*
G02*
X98255000Y-173945000I0J-325000D01*
G01*
X98255000Y-174595000D01*
G75*
G02*
X97930000Y-174920000I-325000J0D01*
G01*
X96380000Y-174920000D01*
G75*
G02*
X96055000Y-174595000I0J325000D01*
G01*
G37*
G36*
G01*
X96055000Y-176375000D02*
X96055000Y-175725000D01*
G75*
G02*
X96380000Y-175400000I325000J0D01*
G01*
X97930000Y-175400000D01*
G75*
G02*
X98255000Y-175725000I0J-325000D01*
G01*
X98255000Y-176375000D01*
G75*
G02*
X97930000Y-176700000I-325000J0D01*
G01*
X96380000Y-176700000D01*
G75*
G02*
X96055000Y-176375000I0J325000D01*
G01*
G37*
G36*
G01*
X96055000Y-178155000D02*
X96055000Y-177505000D01*
G75*
G02*
X96380000Y-177180000I325000J0D01*
G01*
X97930000Y-177180000D01*
G75*
G02*
X98255000Y-177505000I0J-325000D01*
G01*
X98255000Y-178155000D01*
G75*
G02*
X97930000Y-178480000I-325000J0D01*
G01*
X96380000Y-178480000D01*
G75*
G02*
X96055000Y-178155000I0J325000D01*
G01*
G37*
G36*
G01*
X96055000Y-179935000D02*
X96055000Y-179285000D01*
G75*
G02*
X96380000Y-178960000I325000J0D01*
G01*
X97930000Y-178960000D01*
G75*
G02*
X98255000Y-179285000I0J-325000D01*
G01*
X98255000Y-179935000D01*
G75*
G02*
X97930000Y-180260000I-325000J0D01*
G01*
X96380000Y-180260000D01*
G75*
G02*
X96055000Y-179935000I0J325000D01*
G01*
G37*
G36*
G01*
X96055000Y-181715000D02*
X96055000Y-181065000D01*
G75*
G02*
X96380000Y-180740000I325000J0D01*
G01*
X97930000Y-180740000D01*
G75*
G02*
X98255000Y-181065000I0J-325000D01*
G01*
X98255000Y-181715000D01*
G75*
G02*
X97930000Y-182040000I-325000J0D01*
G01*
X96380000Y-182040000D01*
G75*
G02*
X96055000Y-181715000I0J325000D01*
G01*
G37*
G36*
G01*
X96055000Y-183495000D02*
X96055000Y-182845000D01*
G75*
G02*
X96380000Y-182520000I325000J0D01*
G01*
X97930000Y-182520000D01*
G75*
G02*
X98255000Y-182845000I0J-325000D01*
G01*
X98255000Y-183495000D01*
G75*
G02*
X97930000Y-183820000I-325000J0D01*
G01*
X96380000Y-183820000D01*
G75*
G02*
X96055000Y-183495000I0J325000D01*
G01*
G37*
G36*
G01*
X96055000Y-185275000D02*
X96055000Y-184625000D01*
G75*
G02*
X96380000Y-184300000I325000J0D01*
G01*
X97930000Y-184300000D01*
G75*
G02*
X98255000Y-184625000I0J-325000D01*
G01*
X98255000Y-185275000D01*
G75*
G02*
X97930000Y-185600000I-325000J0D01*
G01*
X96380000Y-185600000D01*
G75*
G02*
X96055000Y-185275000I0J325000D01*
G01*
G37*
G36*
G01*
X96055000Y-187055000D02*
X96055000Y-186405000D01*
G75*
G02*
X96380000Y-186080000I325000J0D01*
G01*
X97930000Y-186080000D01*
G75*
G02*
X98255000Y-186405000I0J-325000D01*
G01*
X98255000Y-187055000D01*
G75*
G02*
X97930000Y-187380000I-325000J0D01*
G01*
X96380000Y-187380000D01*
G75*
G02*
X96055000Y-187055000I0J325000D01*
G01*
G37*
G36*
G01*
X96055000Y-188835000D02*
X96055000Y-188185000D01*
G75*
G02*
X96380000Y-187860000I325000J0D01*
G01*
X97930000Y-187860000D01*
G75*
G02*
X98255000Y-188185000I0J-325000D01*
G01*
X98255000Y-188835000D01*
G75*
G02*
X97930000Y-189160000I-325000J0D01*
G01*
X96380000Y-189160000D01*
G75*
G02*
X96055000Y-188835000I0J325000D01*
G01*
G37*
G36*
G01*
X96055000Y-190615000D02*
X96055000Y-189965000D01*
G75*
G02*
X96380000Y-189640000I325000J0D01*
G01*
X97930000Y-189640000D01*
G75*
G02*
X98255000Y-189965000I0J-325000D01*
G01*
X98255000Y-190615000D01*
G75*
G02*
X97930000Y-190940000I-325000J0D01*
G01*
X96380000Y-190940000D01*
G75*
G02*
X96055000Y-190615000I0J325000D01*
G01*
G37*
G36*
G01*
X96055000Y-192395000D02*
X96055000Y-191745000D01*
G75*
G02*
X96380000Y-191420000I325000J0D01*
G01*
X97930000Y-191420000D01*
G75*
G02*
X98255000Y-191745000I0J-325000D01*
G01*
X98255000Y-192395000D01*
G75*
G02*
X97930000Y-192720000I-325000J0D01*
G01*
X96380000Y-192720000D01*
G75*
G02*
X96055000Y-192395000I0J325000D01*
G01*
G37*
G36*
G01*
X96055000Y-194175000D02*
X96055000Y-193525000D01*
G75*
G02*
X96380000Y-193200000I325000J0D01*
G01*
X97930000Y-193200000D01*
G75*
G02*
X98255000Y-193525000I0J-325000D01*
G01*
X98255000Y-194175000D01*
G75*
G02*
X97930000Y-194500000I-325000J0D01*
G01*
X96380000Y-194500000D01*
G75*
G02*
X96055000Y-194175000I0J325000D01*
G01*
G37*
G36*
G01*
X96055000Y-195955000D02*
X96055000Y-195305000D01*
G75*
G02*
X96380000Y-194980000I325000J0D01*
G01*
X97930000Y-194980000D01*
G75*
G02*
X98255000Y-195305000I0J-325000D01*
G01*
X98255000Y-195955000D01*
G75*
G02*
X97930000Y-196280000I-325000J0D01*
G01*
X96380000Y-196280000D01*
G75*
G02*
X96055000Y-195955000I0J325000D01*
G01*
G37*
G36*
G01*
X96055000Y-197735000D02*
X96055000Y-197085000D01*
G75*
G02*
X96380000Y-196760000I325000J0D01*
G01*
X97930000Y-196760000D01*
G75*
G02*
X98255000Y-197085000I0J-325000D01*
G01*
X98255000Y-197735000D01*
G75*
G02*
X97930000Y-198060000I-325000J0D01*
G01*
X96380000Y-198060000D01*
G75*
G02*
X96055000Y-197735000I0J325000D01*
G01*
G37*
G36*
G01*
X96055000Y-199515000D02*
X96055000Y-198865000D01*
G75*
G02*
X96380000Y-198540000I325000J0D01*
G01*
X97930000Y-198540000D01*
G75*
G02*
X98255000Y-198865000I0J-325000D01*
G01*
X98255000Y-199515000D01*
G75*
G02*
X97930000Y-199840000I-325000J0D01*
G01*
X96380000Y-199840000D01*
G75*
G02*
X96055000Y-199515000I0J325000D01*
G01*
G37*
G36*
G01*
X96055000Y-201295000D02*
X96055000Y-200645000D01*
G75*
G02*
X96380000Y-200320000I325000J0D01*
G01*
X97930000Y-200320000D01*
G75*
G02*
X98255000Y-200645000I0J-325000D01*
G01*
X98255000Y-201295000D01*
G75*
G02*
X97930000Y-201620000I-325000J0D01*
G01*
X96380000Y-201620000D01*
G75*
G02*
X96055000Y-201295000I0J325000D01*
G01*
G37*
G36*
G01*
X96055000Y-203075000D02*
X96055000Y-202425000D01*
G75*
G02*
X96380000Y-202100000I325000J0D01*
G01*
X97930000Y-202100000D01*
G75*
G02*
X98255000Y-202425000I0J-325000D01*
G01*
X98255000Y-203075000D01*
G75*
G02*
X97930000Y-203400000I-325000J0D01*
G01*
X96380000Y-203400000D01*
G75*
G02*
X96055000Y-203075000I0J325000D01*
G01*
G37*
G36*
G01*
X96055000Y-204855000D02*
X96055000Y-204205000D01*
G75*
G02*
X96380000Y-203880000I325000J0D01*
G01*
X97930000Y-203880000D01*
G75*
G02*
X98255000Y-204205000I0J-325000D01*
G01*
X98255000Y-204855000D01*
G75*
G02*
X97930000Y-205180000I-325000J0D01*
G01*
X96380000Y-205180000D01*
G75*
G02*
X96055000Y-204855000I0J325000D01*
G01*
G37*
G36*
G01*
X96055000Y-206635000D02*
X96055000Y-205985000D01*
G75*
G02*
X96380000Y-205660000I325000J0D01*
G01*
X97930000Y-205660000D01*
G75*
G02*
X98255000Y-205985000I0J-325000D01*
G01*
X98255000Y-206635000D01*
G75*
G02*
X97930000Y-206960000I-325000J0D01*
G01*
X96380000Y-206960000D01*
G75*
G02*
X96055000Y-206635000I0J325000D01*
G01*
G37*
G36*
G01*
X115105000Y-151455000D02*
X115105000Y-150805000D01*
G75*
G02*
X115430000Y-150480000I325000J0D01*
G01*
X116980000Y-150480000D01*
G75*
G02*
X117305000Y-150805000I0J-325000D01*
G01*
X117305000Y-151455000D01*
G75*
G02*
X116980000Y-151780000I-325000J0D01*
G01*
X115430000Y-151780000D01*
G75*
G02*
X115105000Y-151455000I0J325000D01*
G01*
G37*
G36*
G01*
X115105000Y-153235000D02*
X115105000Y-152585000D01*
G75*
G02*
X115430000Y-152260000I325000J0D01*
G01*
X116980000Y-152260000D01*
G75*
G02*
X117305000Y-152585000I0J-325000D01*
G01*
X117305000Y-153235000D01*
G75*
G02*
X116980000Y-153560000I-325000J0D01*
G01*
X115430000Y-153560000D01*
G75*
G02*
X115105000Y-153235000I0J325000D01*
G01*
G37*
G36*
G01*
X115105000Y-155015000D02*
X115105000Y-154365000D01*
G75*
G02*
X115430000Y-154040000I325000J0D01*
G01*
X116980000Y-154040000D01*
G75*
G02*
X117305000Y-154365000I0J-325000D01*
G01*
X117305000Y-155015000D01*
G75*
G02*
X116980000Y-155340000I-325000J0D01*
G01*
X115430000Y-155340000D01*
G75*
G02*
X115105000Y-155015000I0J325000D01*
G01*
G37*
G36*
G01*
X115105000Y-156795000D02*
X115105000Y-156145000D01*
G75*
G02*
X115430000Y-155820000I325000J0D01*
G01*
X116980000Y-155820000D01*
G75*
G02*
X117305000Y-156145000I0J-325000D01*
G01*
X117305000Y-156795000D01*
G75*
G02*
X116980000Y-157120000I-325000J0D01*
G01*
X115430000Y-157120000D01*
G75*
G02*
X115105000Y-156795000I0J325000D01*
G01*
G37*
G36*
G01*
X115105000Y-158575000D02*
X115105000Y-157925000D01*
G75*
G02*
X115430000Y-157600000I325000J0D01*
G01*
X116980000Y-157600000D01*
G75*
G02*
X117305000Y-157925000I0J-325000D01*
G01*
X117305000Y-158575000D01*
G75*
G02*
X116980000Y-158900000I-325000J0D01*
G01*
X115430000Y-158900000D01*
G75*
G02*
X115105000Y-158575000I0J325000D01*
G01*
G37*
G36*
G01*
X115105000Y-160355000D02*
X115105000Y-159705000D01*
G75*
G02*
X115430000Y-159380000I325000J0D01*
G01*
X116980000Y-159380000D01*
G75*
G02*
X117305000Y-159705000I0J-325000D01*
G01*
X117305000Y-160355000D01*
G75*
G02*
X116980000Y-160680000I-325000J0D01*
G01*
X115430000Y-160680000D01*
G75*
G02*
X115105000Y-160355000I0J325000D01*
G01*
G37*
G36*
G01*
X115105000Y-162135000D02*
X115105000Y-161485000D01*
G75*
G02*
X115430000Y-161160000I325000J0D01*
G01*
X116980000Y-161160000D01*
G75*
G02*
X117305000Y-161485000I0J-325000D01*
G01*
X117305000Y-162135000D01*
G75*
G02*
X116980000Y-162460000I-325000J0D01*
G01*
X115430000Y-162460000D01*
G75*
G02*
X115105000Y-162135000I0J325000D01*
G01*
G37*
G36*
G01*
X115105000Y-163915000D02*
X115105000Y-163265000D01*
G75*
G02*
X115430000Y-162940000I325000J0D01*
G01*
X116980000Y-162940000D01*
G75*
G02*
X117305000Y-163265000I0J-325000D01*
G01*
X117305000Y-163915000D01*
G75*
G02*
X116980000Y-164240000I-325000J0D01*
G01*
X115430000Y-164240000D01*
G75*
G02*
X115105000Y-163915000I0J325000D01*
G01*
G37*
G36*
G01*
X115105000Y-165695000D02*
X115105000Y-165045000D01*
G75*
G02*
X115430000Y-164720000I325000J0D01*
G01*
X116980000Y-164720000D01*
G75*
G02*
X117305000Y-165045000I0J-325000D01*
G01*
X117305000Y-165695000D01*
G75*
G02*
X116980000Y-166020000I-325000J0D01*
G01*
X115430000Y-166020000D01*
G75*
G02*
X115105000Y-165695000I0J325000D01*
G01*
G37*
G36*
G01*
X115105000Y-167475000D02*
X115105000Y-166825000D01*
G75*
G02*
X115430000Y-166500000I325000J0D01*
G01*
X116980000Y-166500000D01*
G75*
G02*
X117305000Y-166825000I0J-325000D01*
G01*
X117305000Y-167475000D01*
G75*
G02*
X116980000Y-167800000I-325000J0D01*
G01*
X115430000Y-167800000D01*
G75*
G02*
X115105000Y-167475000I0J325000D01*
G01*
G37*
G36*
G01*
X115105000Y-169255000D02*
X115105000Y-168605000D01*
G75*
G02*
X115430000Y-168280000I325000J0D01*
G01*
X116980000Y-168280000D01*
G75*
G02*
X117305000Y-168605000I0J-325000D01*
G01*
X117305000Y-169255000D01*
G75*
G02*
X116980000Y-169580000I-325000J0D01*
G01*
X115430000Y-169580000D01*
G75*
G02*
X115105000Y-169255000I0J325000D01*
G01*
G37*
G36*
G01*
X115105000Y-171035000D02*
X115105000Y-170385000D01*
G75*
G02*
X115430000Y-170060000I325000J0D01*
G01*
X116980000Y-170060000D01*
G75*
G02*
X117305000Y-170385000I0J-325000D01*
G01*
X117305000Y-171035000D01*
G75*
G02*
X116980000Y-171360000I-325000J0D01*
G01*
X115430000Y-171360000D01*
G75*
G02*
X115105000Y-171035000I0J325000D01*
G01*
G37*
G36*
G01*
X115105000Y-172815000D02*
X115105000Y-172165000D01*
G75*
G02*
X115430000Y-171840000I325000J0D01*
G01*
X116980000Y-171840000D01*
G75*
G02*
X117305000Y-172165000I0J-325000D01*
G01*
X117305000Y-172815000D01*
G75*
G02*
X116980000Y-173140000I-325000J0D01*
G01*
X115430000Y-173140000D01*
G75*
G02*
X115105000Y-172815000I0J325000D01*
G01*
G37*
G36*
G01*
X115105000Y-174595000D02*
X115105000Y-173945000D01*
G75*
G02*
X115430000Y-173620000I325000J0D01*
G01*
X116980000Y-173620000D01*
G75*
G02*
X117305000Y-173945000I0J-325000D01*
G01*
X117305000Y-174595000D01*
G75*
G02*
X116980000Y-174920000I-325000J0D01*
G01*
X115430000Y-174920000D01*
G75*
G02*
X115105000Y-174595000I0J325000D01*
G01*
G37*
G36*
G01*
X115105000Y-176375000D02*
X115105000Y-175725000D01*
G75*
G02*
X115430000Y-175400000I325000J0D01*
G01*
X116980000Y-175400000D01*
G75*
G02*
X117305000Y-175725000I0J-325000D01*
G01*
X117305000Y-176375000D01*
G75*
G02*
X116980000Y-176700000I-325000J0D01*
G01*
X115430000Y-176700000D01*
G75*
G02*
X115105000Y-176375000I0J325000D01*
G01*
G37*
G36*
G01*
X115105000Y-178155000D02*
X115105000Y-177505000D01*
G75*
G02*
X115430000Y-177180000I325000J0D01*
G01*
X116980000Y-177180000D01*
G75*
G02*
X117305000Y-177505000I0J-325000D01*
G01*
X117305000Y-178155000D01*
G75*
G02*
X116980000Y-178480000I-325000J0D01*
G01*
X115430000Y-178480000D01*
G75*
G02*
X115105000Y-178155000I0J325000D01*
G01*
G37*
G36*
G01*
X115105000Y-179935000D02*
X115105000Y-179285000D01*
G75*
G02*
X115430000Y-178960000I325000J0D01*
G01*
X116980000Y-178960000D01*
G75*
G02*
X117305000Y-179285000I0J-325000D01*
G01*
X117305000Y-179935000D01*
G75*
G02*
X116980000Y-180260000I-325000J0D01*
G01*
X115430000Y-180260000D01*
G75*
G02*
X115105000Y-179935000I0J325000D01*
G01*
G37*
G36*
G01*
X115105000Y-181715000D02*
X115105000Y-181065000D01*
G75*
G02*
X115430000Y-180740000I325000J0D01*
G01*
X116980000Y-180740000D01*
G75*
G02*
X117305000Y-181065000I0J-325000D01*
G01*
X117305000Y-181715000D01*
G75*
G02*
X116980000Y-182040000I-325000J0D01*
G01*
X115430000Y-182040000D01*
G75*
G02*
X115105000Y-181715000I0J325000D01*
G01*
G37*
G36*
G01*
X115105000Y-183495000D02*
X115105000Y-182845000D01*
G75*
G02*
X115430000Y-182520000I325000J0D01*
G01*
X116980000Y-182520000D01*
G75*
G02*
X117305000Y-182845000I0J-325000D01*
G01*
X117305000Y-183495000D01*
G75*
G02*
X116980000Y-183820000I-325000J0D01*
G01*
X115430000Y-183820000D01*
G75*
G02*
X115105000Y-183495000I0J325000D01*
G01*
G37*
G36*
G01*
X115105000Y-185275000D02*
X115105000Y-184625000D01*
G75*
G02*
X115430000Y-184300000I325000J0D01*
G01*
X116980000Y-184300000D01*
G75*
G02*
X117305000Y-184625000I0J-325000D01*
G01*
X117305000Y-185275000D01*
G75*
G02*
X116980000Y-185600000I-325000J0D01*
G01*
X115430000Y-185600000D01*
G75*
G02*
X115105000Y-185275000I0J325000D01*
G01*
G37*
G36*
G01*
X115105000Y-187055000D02*
X115105000Y-186405000D01*
G75*
G02*
X115430000Y-186080000I325000J0D01*
G01*
X116980000Y-186080000D01*
G75*
G02*
X117305000Y-186405000I0J-325000D01*
G01*
X117305000Y-187055000D01*
G75*
G02*
X116980000Y-187380000I-325000J0D01*
G01*
X115430000Y-187380000D01*
G75*
G02*
X115105000Y-187055000I0J325000D01*
G01*
G37*
G36*
G01*
X115105000Y-188835000D02*
X115105000Y-188185000D01*
G75*
G02*
X115430000Y-187860000I325000J0D01*
G01*
X116980000Y-187860000D01*
G75*
G02*
X117305000Y-188185000I0J-325000D01*
G01*
X117305000Y-188835000D01*
G75*
G02*
X116980000Y-189160000I-325000J0D01*
G01*
X115430000Y-189160000D01*
G75*
G02*
X115105000Y-188835000I0J325000D01*
G01*
G37*
G36*
G01*
X115105000Y-190615000D02*
X115105000Y-189965000D01*
G75*
G02*
X115430000Y-189640000I325000J0D01*
G01*
X116980000Y-189640000D01*
G75*
G02*
X117305000Y-189965000I0J-325000D01*
G01*
X117305000Y-190615000D01*
G75*
G02*
X116980000Y-190940000I-325000J0D01*
G01*
X115430000Y-190940000D01*
G75*
G02*
X115105000Y-190615000I0J325000D01*
G01*
G37*
G36*
G01*
X115105000Y-192395000D02*
X115105000Y-191745000D01*
G75*
G02*
X115430000Y-191420000I325000J0D01*
G01*
X116980000Y-191420000D01*
G75*
G02*
X117305000Y-191745000I0J-325000D01*
G01*
X117305000Y-192395000D01*
G75*
G02*
X116980000Y-192720000I-325000J0D01*
G01*
X115430000Y-192720000D01*
G75*
G02*
X115105000Y-192395000I0J325000D01*
G01*
G37*
G36*
G01*
X115105000Y-194175000D02*
X115105000Y-193525000D01*
G75*
G02*
X115430000Y-193200000I325000J0D01*
G01*
X116980000Y-193200000D01*
G75*
G02*
X117305000Y-193525000I0J-325000D01*
G01*
X117305000Y-194175000D01*
G75*
G02*
X116980000Y-194500000I-325000J0D01*
G01*
X115430000Y-194500000D01*
G75*
G02*
X115105000Y-194175000I0J325000D01*
G01*
G37*
G36*
G01*
X115105000Y-195955000D02*
X115105000Y-195305000D01*
G75*
G02*
X115430000Y-194980000I325000J0D01*
G01*
X116980000Y-194980000D01*
G75*
G02*
X117305000Y-195305000I0J-325000D01*
G01*
X117305000Y-195955000D01*
G75*
G02*
X116980000Y-196280000I-325000J0D01*
G01*
X115430000Y-196280000D01*
G75*
G02*
X115105000Y-195955000I0J325000D01*
G01*
G37*
G36*
G01*
X115105000Y-197735000D02*
X115105000Y-197085000D01*
G75*
G02*
X115430000Y-196760000I325000J0D01*
G01*
X116980000Y-196760000D01*
G75*
G02*
X117305000Y-197085000I0J-325000D01*
G01*
X117305000Y-197735000D01*
G75*
G02*
X116980000Y-198060000I-325000J0D01*
G01*
X115430000Y-198060000D01*
G75*
G02*
X115105000Y-197735000I0J325000D01*
G01*
G37*
G36*
G01*
X115105000Y-199515000D02*
X115105000Y-198865000D01*
G75*
G02*
X115430000Y-198540000I325000J0D01*
G01*
X116980000Y-198540000D01*
G75*
G02*
X117305000Y-198865000I0J-325000D01*
G01*
X117305000Y-199515000D01*
G75*
G02*
X116980000Y-199840000I-325000J0D01*
G01*
X115430000Y-199840000D01*
G75*
G02*
X115105000Y-199515000I0J325000D01*
G01*
G37*
G36*
G01*
X115105000Y-201295000D02*
X115105000Y-200645000D01*
G75*
G02*
X115430000Y-200320000I325000J0D01*
G01*
X116980000Y-200320000D01*
G75*
G02*
X117305000Y-200645000I0J-325000D01*
G01*
X117305000Y-201295000D01*
G75*
G02*
X116980000Y-201620000I-325000J0D01*
G01*
X115430000Y-201620000D01*
G75*
G02*
X115105000Y-201295000I0J325000D01*
G01*
G37*
G36*
G01*
X115105000Y-203075000D02*
X115105000Y-202425000D01*
G75*
G02*
X115430000Y-202100000I325000J0D01*
G01*
X116980000Y-202100000D01*
G75*
G02*
X117305000Y-202425000I0J-325000D01*
G01*
X117305000Y-203075000D01*
G75*
G02*
X116980000Y-203400000I-325000J0D01*
G01*
X115430000Y-203400000D01*
G75*
G02*
X115105000Y-203075000I0J325000D01*
G01*
G37*
G36*
G01*
X115105000Y-204855000D02*
X115105000Y-204205000D01*
G75*
G02*
X115430000Y-203880000I325000J0D01*
G01*
X116980000Y-203880000D01*
G75*
G02*
X117305000Y-204205000I0J-325000D01*
G01*
X117305000Y-204855000D01*
G75*
G02*
X116980000Y-205180000I-325000J0D01*
G01*
X115430000Y-205180000D01*
G75*
G02*
X115105000Y-204855000I0J325000D01*
G01*
G37*
G36*
G01*
X115105000Y-206635000D02*
X115105000Y-205985000D01*
G75*
G02*
X115430000Y-205660000I325000J0D01*
G01*
X116980000Y-205660000D01*
G75*
G02*
X117305000Y-205985000I0J-325000D01*
G01*
X117305000Y-206635000D01*
G75*
G02*
X116980000Y-206960000I-325000J0D01*
G01*
X115430000Y-206960000D01*
G75*
G02*
X115105000Y-206635000I0J325000D01*
G01*
G37*
D12*
X142875000Y-146050000D03*
D13*
X122555000Y-153670000D03*
X140335000Y-146050000D03*
X125095000Y-153670000D03*
X137795000Y-146050000D03*
X127635000Y-153670000D03*
X135255000Y-146050000D03*
X130175000Y-153670000D03*
X132715000Y-146050000D03*
X132715000Y-153670000D03*
X130175000Y-146050000D03*
X135255000Y-153670000D03*
X127635000Y-146050000D03*
X137795000Y-153670000D03*
X125095000Y-146050000D03*
X140335000Y-153670000D03*
X122555000Y-146050000D03*
X142875000Y-153670000D03*
X142875000Y-165100000D03*
X122555000Y-157480000D03*
X140335000Y-165100000D03*
X125095000Y-157480000D03*
X137795000Y-165100000D03*
X127635000Y-157480000D03*
X135255000Y-165100000D03*
X130175000Y-157480000D03*
X132715000Y-165100000D03*
X132715000Y-157480000D03*
X130175000Y-165100000D03*
X135255000Y-157480000D03*
X127635000Y-165100000D03*
X137795000Y-157480000D03*
X125095000Y-165100000D03*
X140335000Y-157480000D03*
X122555000Y-165100000D03*
D12*
X142875000Y-157480000D03*
D13*
X142875000Y-187960000D03*
X122555000Y-180340000D03*
X140335000Y-187960000D03*
X125095000Y-180340000D03*
X137795000Y-187960000D03*
X127635000Y-180340000D03*
X135255000Y-187960000D03*
X130175000Y-180340000D03*
X132715000Y-187960000D03*
X132715000Y-180340000D03*
X130175000Y-187960000D03*
X135255000Y-180340000D03*
X127635000Y-187960000D03*
X137795000Y-180340000D03*
X125095000Y-187960000D03*
X140335000Y-180340000D03*
X122555000Y-187960000D03*
D12*
X142875000Y-180340000D03*
D13*
X142875000Y-210820000D03*
X122555000Y-203200000D03*
X140335000Y-210820000D03*
X125095000Y-203200000D03*
X137795000Y-210820000D03*
X127635000Y-203200000D03*
X135255000Y-210820000D03*
X130175000Y-203200000D03*
X132715000Y-210820000D03*
X132715000Y-203200000D03*
X130175000Y-210820000D03*
X135255000Y-203200000D03*
X127635000Y-210820000D03*
X137795000Y-203200000D03*
X125095000Y-210820000D03*
X140335000Y-203200000D03*
X122555000Y-210820000D03*
D12*
X142875000Y-203200000D03*
D14*
X140970000Y-139700000D03*
X51435000Y-139700000D03*
X140970000Y-229235000D03*
X51435000Y-229235000D03*
D15*
X120600000Y-228000000D03*
D16*
X120600000Y-230540000D03*
X118060000Y-228000000D03*
X118060000Y-230540000D03*
X115520000Y-228000000D03*
X115520000Y-230540000D03*
X112980000Y-228000000D03*
X112980000Y-230540000D03*
X110440000Y-228000000D03*
X110440000Y-230540000D03*
X107900000Y-228000000D03*
X107900000Y-230540000D03*
X105360000Y-228000000D03*
X105360000Y-230540000D03*
X102820000Y-228000000D03*
X102820000Y-230540000D03*
X100280000Y-228000000D03*
X100280000Y-230540000D03*
X97740000Y-228000000D03*
X97740000Y-230540000D03*
X95200000Y-228000000D03*
X95200000Y-230540000D03*
X92660000Y-228000000D03*
X92660000Y-230540000D03*
X90120000Y-228000000D03*
X90120000Y-230540000D03*
X87580000Y-228000000D03*
X87580000Y-230540000D03*
X85040000Y-228000000D03*
X85040000Y-230540000D03*
X82500000Y-228000000D03*
X82500000Y-230540000D03*
X79960000Y-228000000D03*
X79960000Y-230540000D03*
X77420000Y-228000000D03*
X77420000Y-230540000D03*
X74880000Y-228000000D03*
X74880000Y-230540000D03*
X72340000Y-228000000D03*
X72340000Y-230540000D03*
D17*
X132080000Y-138430000D03*
D18*
X127000000Y-138430000D03*
D12*
X142875000Y-168910000D03*
D13*
X122555000Y-176530000D03*
X140335000Y-168910000D03*
X125095000Y-176530000D03*
X137795000Y-168910000D03*
X127635000Y-176530000D03*
X135255000Y-168910000D03*
X130175000Y-176530000D03*
X132715000Y-168910000D03*
X132715000Y-176530000D03*
X130175000Y-168910000D03*
X135255000Y-176530000D03*
X127635000Y-168910000D03*
X137795000Y-176530000D03*
X125095000Y-168910000D03*
X140335000Y-176530000D03*
X122555000Y-168910000D03*
X142875000Y-176530000D03*
D12*
X142875000Y-191770000D03*
D13*
X122555000Y-199390000D03*
X140335000Y-191770000D03*
X125095000Y-199390000D03*
X137795000Y-191770000D03*
X127635000Y-199390000D03*
X135255000Y-191770000D03*
X130175000Y-199390000D03*
X132715000Y-191770000D03*
X132715000Y-199390000D03*
X130175000Y-191770000D03*
X135255000Y-199390000D03*
X127635000Y-191770000D03*
X137795000Y-199390000D03*
X125095000Y-191770000D03*
X140335000Y-199390000D03*
X122555000Y-191770000D03*
X142875000Y-199390000D03*
D15*
X71882000Y-140970000D03*
D16*
X71882000Y-138430000D03*
X74422000Y-140970000D03*
X74422000Y-138430000D03*
X76962000Y-140970000D03*
X76962000Y-138430000D03*
X79502000Y-140970000D03*
X79502000Y-138430000D03*
X82042000Y-140970000D03*
X82042000Y-138430000D03*
X84582000Y-140970000D03*
X84582000Y-138430000D03*
X87122000Y-140970000D03*
X87122000Y-138430000D03*
X89662000Y-140970000D03*
X89662000Y-138430000D03*
X92202000Y-140970000D03*
X92202000Y-138430000D03*
X94742000Y-140970000D03*
X94742000Y-138430000D03*
X97282000Y-140970000D03*
X97282000Y-138430000D03*
X99822000Y-140970000D03*
X99822000Y-138430000D03*
X102362000Y-140970000D03*
X102362000Y-138430000D03*
X104902000Y-140970000D03*
X104902000Y-138430000D03*
X107442000Y-140970000D03*
X107442000Y-138430000D03*
X109982000Y-140970000D03*
X109982000Y-138430000D03*
X112522000Y-140970000D03*
X112522000Y-138430000D03*
X115062000Y-140970000D03*
X115062000Y-138430000D03*
X117602000Y-140970000D03*
X117602000Y-138430000D03*
X120142000Y-140970000D03*
X120142000Y-138430000D03*
G36*
G01*
X59905000Y-217840000D02*
X59905000Y-219040000D01*
G75*
G02*
X59655000Y-219290000I-250000J0D01*
G01*
X58455000Y-219290000D01*
G75*
G02*
X58205000Y-219040000I0J250000D01*
G01*
X58205000Y-217840000D01*
G75*
G02*
X58455000Y-217590000I250000J0D01*
G01*
X59655000Y-217590000D01*
G75*
G02*
X59905000Y-217840000I0J-250000D01*
G01*
G37*
D19*
X59055000Y-215900000D03*
X59055000Y-213360000D03*
X59055000Y-210820000D03*
X59055000Y-208280000D03*
X59055000Y-205740000D03*
X59055000Y-203200000D03*
X59055000Y-200660000D03*
X59055000Y-198120000D03*
X59055000Y-195580000D03*
X56515000Y-218440000D03*
X56515000Y-215900000D03*
X56515000Y-213360000D03*
X56515000Y-210820000D03*
X56515000Y-208280000D03*
X56515000Y-205740000D03*
X56515000Y-203200000D03*
X56515000Y-200660000D03*
X56515000Y-198120000D03*
X56515000Y-195580000D03*
G36*
G01*
X79704000Y-209617400D02*
X79704000Y-208517400D01*
G75*
G02*
X79954000Y-208267400I250000J0D01*
G01*
X82054000Y-208267400D01*
G75*
G02*
X82304000Y-208517400I0J-250000D01*
G01*
X82304000Y-209617400D01*
G75*
G02*
X82054000Y-209867400I-250000J0D01*
G01*
X79954000Y-209867400D01*
G75*
G02*
X79704000Y-209617400I0J250000D01*
G01*
G37*
G36*
G01*
X83304000Y-209617400D02*
X83304000Y-208517400D01*
G75*
G02*
X83554000Y-208267400I250000J0D01*
G01*
X85654000Y-208267400D01*
G75*
G02*
X85904000Y-208517400I0J-250000D01*
G01*
X85904000Y-209617400D01*
G75*
G02*
X85654000Y-209867400I-250000J0D01*
G01*
X83554000Y-209867400D01*
G75*
G02*
X83304000Y-209617400I0J250000D01*
G01*
G37*
D20*
X64135000Y-151130000D03*
D21*
X71755000Y-179070000D03*
X64135000Y-153670000D03*
X71755000Y-176530000D03*
X64135000Y-156210000D03*
X71755000Y-173990000D03*
X64135000Y-158750000D03*
X71755000Y-171450000D03*
X64135000Y-161290000D03*
X71755000Y-168910000D03*
X64135000Y-163830000D03*
X71755000Y-166370000D03*
X64135000Y-166370000D03*
X71755000Y-163830000D03*
X64135000Y-168910000D03*
X71755000Y-161290000D03*
X64135000Y-171450000D03*
X71755000Y-158750000D03*
X64135000Y-173990000D03*
X71755000Y-156210000D03*
X64135000Y-176530000D03*
X71755000Y-153670000D03*
X64135000Y-179070000D03*
X71755000Y-151130000D03*
D12*
X107442000Y-213639400D03*
D13*
X79502000Y-223799400D03*
X104902000Y-213639400D03*
X82042000Y-223799400D03*
X102362000Y-213639400D03*
X84582000Y-223799400D03*
X99822000Y-213639400D03*
X87122000Y-223799400D03*
X97282000Y-213639400D03*
X89662000Y-223799400D03*
X94742000Y-213639400D03*
X92202000Y-223799400D03*
X92202000Y-213639400D03*
X94742000Y-223799400D03*
X89662000Y-213639400D03*
X97282000Y-223799400D03*
X87122000Y-213639400D03*
X99822000Y-223799400D03*
X84582000Y-213639400D03*
X102362000Y-223799400D03*
X82042000Y-213639400D03*
X104902000Y-223799400D03*
X79502000Y-213639400D03*
X107442000Y-223799400D03*
D15*
X52832000Y-174015400D03*
D16*
X50292000Y-174015400D03*
X52832000Y-171475400D03*
X50292000Y-171475400D03*
X52832000Y-168935400D03*
X50292000Y-168935400D03*
X52832000Y-166395400D03*
X50292000Y-166395400D03*
X52832000Y-163855400D03*
X50292000Y-163855400D03*
X52832000Y-161315400D03*
X50292000Y-161315400D03*
X52832000Y-158775400D03*
X50292000Y-158775400D03*
X52832000Y-156235400D03*
X50292000Y-156235400D03*
X52832000Y-153695400D03*
X50292000Y-153695400D03*
X52832000Y-151155400D03*
X50292000Y-151155400D03*
G36*
G01*
X124697500Y-218087400D02*
X124222500Y-218087400D01*
G75*
G02*
X123985000Y-217849900I0J237500D01*
G01*
X123985000Y-217249900D01*
G75*
G02*
X124222500Y-217012400I237500J0D01*
G01*
X124697500Y-217012400D01*
G75*
G02*
X124935000Y-217249900I0J-237500D01*
G01*
X124935000Y-217849900D01*
G75*
G02*
X124697500Y-218087400I-237500J0D01*
G01*
G37*
G36*
G01*
X124697500Y-216362400D02*
X124222500Y-216362400D01*
G75*
G02*
X123985000Y-216124900I0J237500D01*
G01*
X123985000Y-215524900D01*
G75*
G02*
X124222500Y-215287400I237500J0D01*
G01*
X124697500Y-215287400D01*
G75*
G02*
X124935000Y-215524900I0J-237500D01*
G01*
X124935000Y-216124900D01*
G75*
G02*
X124697500Y-216362400I-237500J0D01*
G01*
G37*
G36*
G01*
X71205100Y-201831400D02*
X70730100Y-201831400D01*
G75*
G02*
X70492600Y-201593900I0J237500D01*
G01*
X70492600Y-201093900D01*
G75*
G02*
X70730100Y-200856400I237500J0D01*
G01*
X71205100Y-200856400D01*
G75*
G02*
X71442600Y-201093900I0J-237500D01*
G01*
X71442600Y-201593900D01*
G75*
G02*
X71205100Y-201831400I-237500J0D01*
G01*
G37*
G36*
G01*
X71205100Y-200006400D02*
X70730100Y-200006400D01*
G75*
G02*
X70492600Y-199768900I0J237500D01*
G01*
X70492600Y-199268900D01*
G75*
G02*
X70730100Y-199031400I237500J0D01*
G01*
X71205100Y-199031400D01*
G75*
G02*
X71442600Y-199268900I0J-237500D01*
G01*
X71442600Y-199768900D01*
G75*
G02*
X71205100Y-200006400I-237500J0D01*
G01*
G37*
G36*
G01*
X71203000Y-223358700D02*
X71203000Y-223833700D01*
G75*
G02*
X70965500Y-224071200I-237500J0D01*
G01*
X70465500Y-224071200D01*
G75*
G02*
X70228000Y-223833700I0J237500D01*
G01*
X70228000Y-223358700D01*
G75*
G02*
X70465500Y-223121200I237500J0D01*
G01*
X70965500Y-223121200D01*
G75*
G02*
X71203000Y-223358700I0J-237500D01*
G01*
G37*
G36*
G01*
X73028000Y-223358700D02*
X73028000Y-223833700D01*
G75*
G02*
X72790500Y-224071200I-237500J0D01*
G01*
X72290500Y-224071200D01*
G75*
G02*
X72053000Y-223833700I0J237500D01*
G01*
X72053000Y-223358700D01*
G75*
G02*
X72290500Y-223121200I237500J0D01*
G01*
X72790500Y-223121200D01*
G75*
G02*
X73028000Y-223358700I0J-237500D01*
G01*
G37*
G36*
G01*
X71205100Y-207829600D02*
X70730100Y-207829600D01*
G75*
G02*
X70492600Y-207592100I0J237500D01*
G01*
X70492600Y-207092100D01*
G75*
G02*
X70730100Y-206854600I237500J0D01*
G01*
X71205100Y-206854600D01*
G75*
G02*
X71442600Y-207092100I0J-237500D01*
G01*
X71442600Y-207592100D01*
G75*
G02*
X71205100Y-207829600I-237500J0D01*
G01*
G37*
G36*
G01*
X71205100Y-209654600D02*
X70730100Y-209654600D01*
G75*
G02*
X70492600Y-209417100I0J237500D01*
G01*
X70492600Y-208917100D01*
G75*
G02*
X70730100Y-208679600I237500J0D01*
G01*
X71205100Y-208679600D01*
G75*
G02*
X71442600Y-208917100I0J-237500D01*
G01*
X71442600Y-209417100D01*
G75*
G02*
X71205100Y-209654600I-237500J0D01*
G01*
G37*
G36*
G01*
X73942400Y-221479100D02*
X73942400Y-221954100D01*
G75*
G02*
X73704900Y-222191600I-237500J0D01*
G01*
X73204900Y-222191600D01*
G75*
G02*
X72967400Y-221954100I0J237500D01*
G01*
X72967400Y-221479100D01*
G75*
G02*
X73204900Y-221241600I237500J0D01*
G01*
X73704900Y-221241600D01*
G75*
G02*
X73942400Y-221479100I0J-237500D01*
G01*
G37*
G36*
G01*
X72117400Y-221479100D02*
X72117400Y-221954100D01*
G75*
G02*
X71879900Y-222191600I-237500J0D01*
G01*
X71379900Y-222191600D01*
G75*
G02*
X71142400Y-221954100I0J237500D01*
G01*
X71142400Y-221479100D01*
G75*
G02*
X71379900Y-221241600I237500J0D01*
G01*
X71879900Y-221241600D01*
G75*
G02*
X72117400Y-221479100I0J-237500D01*
G01*
G37*
G36*
G01*
X72371400Y-218989900D02*
X72371400Y-219464900D01*
G75*
G02*
X72133900Y-219702400I-237500J0D01*
G01*
X71633900Y-219702400D01*
G75*
G02*
X71396400Y-219464900I0J237500D01*
G01*
X71396400Y-218989900D01*
G75*
G02*
X71633900Y-218752400I237500J0D01*
G01*
X72133900Y-218752400D01*
G75*
G02*
X72371400Y-218989900I0J-237500D01*
G01*
G37*
G36*
G01*
X74196400Y-218989900D02*
X74196400Y-219464900D01*
G75*
G02*
X73958900Y-219702400I-237500J0D01*
G01*
X73458900Y-219702400D01*
G75*
G02*
X73221400Y-219464900I0J237500D01*
G01*
X73221400Y-218989900D01*
G75*
G02*
X73458900Y-218752400I237500J0D01*
G01*
X73958900Y-218752400D01*
G75*
G02*
X74196400Y-218989900I0J-237500D01*
G01*
G37*
D20*
X76962000Y-151155400D03*
D21*
X92202000Y-199415400D03*
X76962000Y-153695400D03*
X92202000Y-196875400D03*
X76962000Y-156235400D03*
X92202000Y-194335400D03*
X76962000Y-158775400D03*
X92202000Y-191795400D03*
X76962000Y-161315400D03*
X92202000Y-189255400D03*
X76962000Y-163855400D03*
X92202000Y-186715400D03*
X76962000Y-166395400D03*
X92202000Y-184175400D03*
X76962000Y-168935400D03*
X92202000Y-181635400D03*
X76962000Y-171475400D03*
X92202000Y-179095400D03*
X76962000Y-174015400D03*
X92202000Y-176555400D03*
X76962000Y-176555400D03*
X92202000Y-174015400D03*
X76962000Y-179095400D03*
X92202000Y-171475400D03*
X76962000Y-181635400D03*
X92202000Y-168935400D03*
X76962000Y-184175400D03*
X92202000Y-166395400D03*
X76962000Y-186715400D03*
X92202000Y-163855400D03*
X76962000Y-189255400D03*
X92202000Y-161315400D03*
X76962000Y-191795400D03*
X92202000Y-158775400D03*
X76962000Y-194335400D03*
X92202000Y-156235400D03*
X76962000Y-196875400D03*
X92202000Y-153695400D03*
X76962000Y-199415400D03*
X92202000Y-151155400D03*
D10*
X139192000Y-216687400D03*
X144192000Y-216687400D03*
G36*
G01*
X124697500Y-224437400D02*
X124222500Y-224437400D01*
G75*
G02*
X123985000Y-224199900I0J237500D01*
G01*
X123985000Y-223599900D01*
G75*
G02*
X124222500Y-223362400I237500J0D01*
G01*
X124697500Y-223362400D01*
G75*
G02*
X124935000Y-223599900I0J-237500D01*
G01*
X124935000Y-224199900D01*
G75*
G02*
X124697500Y-224437400I-237500J0D01*
G01*
G37*
G36*
G01*
X124697500Y-222712400D02*
X124222500Y-222712400D01*
G75*
G02*
X123985000Y-222474900I0J237500D01*
G01*
X123985000Y-221874900D01*
G75*
G02*
X124222500Y-221637400I237500J0D01*
G01*
X124697500Y-221637400D01*
G75*
G02*
X124935000Y-221874900I0J-237500D01*
G01*
X124935000Y-222474900D01*
G75*
G02*
X124697500Y-222712400I-237500J0D01*
G01*
G37*
X139192000Y-223037400D03*
X144192000Y-223037400D03*
D22*
X112318800Y-146888200D03*
X117198800Y-146888200D03*
X133912000Y-216687400D03*
X129032000Y-216687400D03*
X129032000Y-223037400D03*
X133912000Y-223037400D03*
G36*
G01*
X70490000Y-195614200D02*
X70490000Y-196714200D01*
G75*
G02*
X70240000Y-196964200I-250000J0D01*
G01*
X67240000Y-196964200D01*
G75*
G02*
X66990000Y-196714200I0J250000D01*
G01*
X66990000Y-195614200D01*
G75*
G02*
X67240000Y-195364200I250000J0D01*
G01*
X70240000Y-195364200D01*
G75*
G02*
X70490000Y-195614200I0J-250000D01*
G01*
G37*
G36*
G01*
X65090000Y-195614200D02*
X65090000Y-196714200D01*
G75*
G02*
X64840000Y-196964200I-250000J0D01*
G01*
X61840000Y-196964200D01*
G75*
G02*
X61590000Y-196714200I0J250000D01*
G01*
X61590000Y-195614200D01*
G75*
G02*
X61840000Y-195364200I250000J0D01*
G01*
X64840000Y-195364200D01*
G75*
G02*
X65090000Y-195614200I0J-250000D01*
G01*
G37*
G36*
G01*
X59528800Y-227980200D02*
X58428800Y-227980200D01*
G75*
G02*
X58178800Y-227730200I0J250000D01*
G01*
X58178800Y-224730200D01*
G75*
G02*
X58428800Y-224480200I250000J0D01*
G01*
X59528800Y-224480200D01*
G75*
G02*
X59778800Y-224730200I0J-250000D01*
G01*
X59778800Y-227730200D01*
G75*
G02*
X59528800Y-227980200I-250000J0D01*
G01*
G37*
G36*
G01*
X59528800Y-233380200D02*
X58428800Y-233380200D01*
G75*
G02*
X58178800Y-233130200I0J250000D01*
G01*
X58178800Y-230130200D01*
G75*
G02*
X58428800Y-229880200I250000J0D01*
G01*
X59528800Y-229880200D01*
G75*
G02*
X59778800Y-230130200I0J-250000D01*
G01*
X59778800Y-233130200D01*
G75*
G02*
X59528800Y-233380200I-250000J0D01*
G01*
G37*
G36*
G01*
X70540800Y-203183400D02*
X70540800Y-204283400D01*
G75*
G02*
X70290800Y-204533400I-250000J0D01*
G01*
X67290800Y-204533400D01*
G75*
G02*
X67040800Y-204283400I0J250000D01*
G01*
X67040800Y-203183400D01*
G75*
G02*
X67290800Y-202933400I250000J0D01*
G01*
X70290800Y-202933400D01*
G75*
G02*
X70540800Y-203183400I0J-250000D01*
G01*
G37*
G36*
G01*
X65140800Y-203183400D02*
X65140800Y-204283400D01*
G75*
G02*
X64890800Y-204533400I-250000J0D01*
G01*
X61890800Y-204533400D01*
G75*
G02*
X61640800Y-204283400I0J250000D01*
G01*
X61640800Y-203183400D01*
G75*
G02*
X61890800Y-202933400I250000J0D01*
G01*
X64890800Y-202933400D01*
G75*
G02*
X65140800Y-203183400I0J-250000D01*
G01*
G37*
G36*
G01*
X66996400Y-233431000D02*
X65896400Y-233431000D01*
G75*
G02*
X65646400Y-233181000I0J250000D01*
G01*
X65646400Y-230181000D01*
G75*
G02*
X65896400Y-229931000I250000J0D01*
G01*
X66996400Y-229931000D01*
G75*
G02*
X67246400Y-230181000I0J-250000D01*
G01*
X67246400Y-233181000D01*
G75*
G02*
X66996400Y-233431000I-250000J0D01*
G01*
G37*
G36*
G01*
X66996400Y-228031000D02*
X65896400Y-228031000D01*
G75*
G02*
X65646400Y-227781000I0J250000D01*
G01*
X65646400Y-224781000D01*
G75*
G02*
X65896400Y-224531000I250000J0D01*
G01*
X66996400Y-224531000D01*
G75*
G02*
X67246400Y-224781000I0J-250000D01*
G01*
X67246400Y-227781000D01*
G75*
G02*
X66996400Y-228031000I-250000J0D01*
G01*
G37*
G36*
G01*
X65191600Y-210854200D02*
X65191600Y-211954200D01*
G75*
G02*
X64941600Y-212204200I-250000J0D01*
G01*
X61941600Y-212204200D01*
G75*
G02*
X61691600Y-211954200I0J250000D01*
G01*
X61691600Y-210854200D01*
G75*
G02*
X61941600Y-210604200I250000J0D01*
G01*
X64941600Y-210604200D01*
G75*
G02*
X65191600Y-210854200I0J-250000D01*
G01*
G37*
G36*
G01*
X70591600Y-210854200D02*
X70591600Y-211954200D01*
G75*
G02*
X70341600Y-212204200I-250000J0D01*
G01*
X67341600Y-212204200D01*
G75*
G02*
X67091600Y-211954200I0J250000D01*
G01*
X67091600Y-210854200D01*
G75*
G02*
X67341600Y-210604200I250000J0D01*
G01*
X70341600Y-210604200D01*
G75*
G02*
X70591600Y-210854200I0J-250000D01*
G01*
G37*
G36*
G01*
X65191600Y-218677400D02*
X65191600Y-219777400D01*
G75*
G02*
X64941600Y-220027400I-250000J0D01*
G01*
X61941600Y-220027400D01*
G75*
G02*
X61691600Y-219777400I0J250000D01*
G01*
X61691600Y-218677400D01*
G75*
G02*
X61941600Y-218427400I250000J0D01*
G01*
X64941600Y-218427400D01*
G75*
G02*
X65191600Y-218677400I0J-250000D01*
G01*
G37*
G36*
G01*
X70591600Y-218677400D02*
X70591600Y-219777400D01*
G75*
G02*
X70341600Y-220027400I-250000J0D01*
G01*
X67341600Y-220027400D01*
G75*
G02*
X67091600Y-219777400I0J250000D01*
G01*
X67091600Y-218677400D01*
G75*
G02*
X67341600Y-218427400I250000J0D01*
G01*
X70341600Y-218427400D01*
G75*
G02*
X70591600Y-218677400I0J-250000D01*
G01*
G37*
G36*
G01*
X70490000Y-188095800D02*
X70490000Y-189195800D01*
G75*
G02*
X70240000Y-189445800I-250000J0D01*
G01*
X67240000Y-189445800D01*
G75*
G02*
X66990000Y-189195800I0J250000D01*
G01*
X66990000Y-188095800D01*
G75*
G02*
X67240000Y-187845800I250000J0D01*
G01*
X70240000Y-187845800D01*
G75*
G02*
X70490000Y-188095800I0J-250000D01*
G01*
G37*
G36*
G01*
X65090000Y-188095800D02*
X65090000Y-189195800D01*
G75*
G02*
X64840000Y-189445800I-250000J0D01*
G01*
X61840000Y-189445800D01*
G75*
G02*
X61590000Y-189195800I0J250000D01*
G01*
X61590000Y-188095800D01*
G75*
G02*
X61840000Y-187845800I250000J0D01*
G01*
X64840000Y-187845800D01*
G75*
G02*
X65090000Y-188095800I0J-250000D01*
G01*
G37*
G36*
G01*
X50713600Y-180628200D02*
X50713600Y-181728200D01*
G75*
G02*
X50463600Y-181978200I-250000J0D01*
G01*
X47463600Y-181978200D01*
G75*
G02*
X47213600Y-181728200I0J250000D01*
G01*
X47213600Y-180628200D01*
G75*
G02*
X47463600Y-180378200I250000J0D01*
G01*
X50463600Y-180378200D01*
G75*
G02*
X50713600Y-180628200I0J-250000D01*
G01*
G37*
G36*
G01*
X56113600Y-180628200D02*
X56113600Y-181728200D01*
G75*
G02*
X55863600Y-181978200I-250000J0D01*
G01*
X52863600Y-181978200D01*
G75*
G02*
X52613600Y-181728200I0J250000D01*
G01*
X52613600Y-180628200D01*
G75*
G02*
X52863600Y-180378200I250000J0D01*
G01*
X55863600Y-180378200D01*
G75*
G02*
X56113600Y-180628200I0J-250000D01*
G01*
G37*
D15*
X54102000Y-187375800D03*
D16*
X56642000Y-187375800D03*
X59182000Y-187375800D03*
M02*
