G04 #@! TF.GenerationSoftware,KiCad,Pcbnew,(5.1.8)-1*
G04 #@! TF.CreationDate,2020-12-25T10:48:06+01:00*
G04 #@! TF.ProjectId,VDP-Composite,5644502d-436f-46d7-906f-736974652e6b,v1.0*
G04 #@! TF.SameCoordinates,Original*
G04 #@! TF.FileFunction,Legend,Top*
G04 #@! TF.FilePolarity,Positive*
%FSLAX46Y46*%
G04 Gerber Fmt 4.6, Leading zero omitted, Abs format (unit mm)*
G04 Created by KiCad (PCBNEW (5.1.8)-1) date 2020-12-25 10:48:06*
%MOMM*%
%LPD*%
G01*
G04 APERTURE LIST*
%ADD10C,0.150000*%
%ADD11C,0.300000*%
%ADD12C,0.120000*%
%ADD13C,0.381000*%
G04 APERTURE END LIST*
D10*
X51042819Y-201095552D02*
X50328533Y-201095552D01*
X50185676Y-201047933D01*
X50090438Y-200952695D01*
X50042819Y-200809838D01*
X50042819Y-200714600D01*
X50042819Y-202047933D02*
X50042819Y-201571742D01*
X51042819Y-201571742D01*
X50138057Y-202952695D02*
X50090438Y-202905076D01*
X50042819Y-202762219D01*
X50042819Y-202666980D01*
X50090438Y-202524123D01*
X50185676Y-202428885D01*
X50280914Y-202381266D01*
X50471390Y-202333647D01*
X50614247Y-202333647D01*
X50804723Y-202381266D01*
X50899961Y-202428885D01*
X50995200Y-202524123D01*
X51042819Y-202666980D01*
X51042819Y-202762219D01*
X50995200Y-202905076D01*
X50947580Y-202952695D01*
X51042819Y-203666980D02*
X50328533Y-203666980D01*
X50185676Y-203619361D01*
X50090438Y-203524123D01*
X50042819Y-203381266D01*
X50042819Y-203286028D01*
X50042819Y-204619361D02*
X50042819Y-204143171D01*
X51042819Y-204143171D01*
X50138057Y-205524123D02*
X50090438Y-205476504D01*
X50042819Y-205333647D01*
X50042819Y-205238409D01*
X50090438Y-205095552D01*
X50185676Y-205000314D01*
X50280914Y-204952695D01*
X50471390Y-204905076D01*
X50614247Y-204905076D01*
X50804723Y-204952695D01*
X50899961Y-205000314D01*
X50995200Y-205095552D01*
X51042819Y-205238409D01*
X51042819Y-205333647D01*
X50995200Y-205476504D01*
X50947580Y-205524123D01*
X51042819Y-206238409D02*
X50328533Y-206238409D01*
X50185676Y-206190790D01*
X50090438Y-206095552D01*
X50042819Y-205952695D01*
X50042819Y-205857457D01*
X50042819Y-207190790D02*
X50042819Y-206714600D01*
X51042819Y-206714600D01*
X50138057Y-208095552D02*
X50090438Y-208047933D01*
X50042819Y-207905076D01*
X50042819Y-207809838D01*
X50090438Y-207666980D01*
X50185676Y-207571742D01*
X50280914Y-207524123D01*
X50471390Y-207476504D01*
X50614247Y-207476504D01*
X50804723Y-207524123D01*
X50899961Y-207571742D01*
X50995200Y-207666980D01*
X51042819Y-207809838D01*
X51042819Y-207905076D01*
X50995200Y-208047933D01*
X50947580Y-208095552D01*
X51042819Y-208809838D02*
X50328533Y-208809838D01*
X50185676Y-208762219D01*
X50090438Y-208666980D01*
X50042819Y-208524123D01*
X50042819Y-208428885D01*
X50042819Y-209762219D02*
X50042819Y-209286028D01*
X51042819Y-209286028D01*
X50138057Y-210666980D02*
X50090438Y-210619361D01*
X50042819Y-210476504D01*
X50042819Y-210381266D01*
X50090438Y-210238409D01*
X50185676Y-210143171D01*
X50280914Y-210095552D01*
X50471390Y-210047933D01*
X50614247Y-210047933D01*
X50804723Y-210095552D01*
X50899961Y-210143171D01*
X50995200Y-210238409D01*
X51042819Y-210381266D01*
X51042819Y-210476504D01*
X50995200Y-210619361D01*
X50947580Y-210666980D01*
X55503771Y-148955285D02*
X55503771Y-149717190D01*
X55122819Y-149336238D02*
X55884723Y-149336238D01*
X56122819Y-150669571D02*
X56122819Y-150193380D01*
X55646628Y-150145761D01*
X55694247Y-150193380D01*
X55741866Y-150288619D01*
X55741866Y-150526714D01*
X55694247Y-150621952D01*
X55646628Y-150669571D01*
X55551390Y-150717190D01*
X55313295Y-150717190D01*
X55218057Y-150669571D01*
X55170438Y-150621952D01*
X55122819Y-150526714D01*
X55122819Y-150288619D01*
X55170438Y-150193380D01*
X55218057Y-150145761D01*
X56122819Y-151002904D02*
X55122819Y-151336238D01*
X56122819Y-151669571D01*
X47426571Y-148955285D02*
X47426571Y-149717190D01*
X47045619Y-149336238D02*
X47807523Y-149336238D01*
X48045619Y-150669571D02*
X48045619Y-150193380D01*
X47569428Y-150145761D01*
X47617047Y-150193380D01*
X47664666Y-150288619D01*
X47664666Y-150526714D01*
X47617047Y-150621952D01*
X47569428Y-150669571D01*
X47474190Y-150717190D01*
X47236095Y-150717190D01*
X47140857Y-150669571D01*
X47093238Y-150621952D01*
X47045619Y-150526714D01*
X47045619Y-150288619D01*
X47093238Y-150193380D01*
X47140857Y-150145761D01*
X48045619Y-151002904D02*
X47045619Y-151336238D01*
X48045619Y-151669571D01*
X55922800Y-174320295D02*
X55970419Y-174225057D01*
X55970419Y-174082200D01*
X55922800Y-173939342D01*
X55827561Y-173844104D01*
X55732323Y-173796485D01*
X55541847Y-173748866D01*
X55398990Y-173748866D01*
X55208514Y-173796485D01*
X55113276Y-173844104D01*
X55018038Y-173939342D01*
X54970419Y-174082200D01*
X54970419Y-174177438D01*
X55018038Y-174320295D01*
X55065657Y-174367914D01*
X55398990Y-174367914D01*
X55398990Y-174177438D01*
X54970419Y-174796485D02*
X55970419Y-174796485D01*
X54970419Y-175367914D01*
X55970419Y-175367914D01*
X54970419Y-175844104D02*
X55970419Y-175844104D01*
X55970419Y-176082200D01*
X55922800Y-176225057D01*
X55827561Y-176320295D01*
X55732323Y-176367914D01*
X55541847Y-176415533D01*
X55398990Y-176415533D01*
X55208514Y-176367914D01*
X55113276Y-176320295D01*
X55018038Y-176225057D01*
X54970419Y-176082200D01*
X54970419Y-175844104D01*
X47947200Y-174320295D02*
X47994819Y-174225057D01*
X47994819Y-174082200D01*
X47947200Y-173939342D01*
X47851961Y-173844104D01*
X47756723Y-173796485D01*
X47566247Y-173748866D01*
X47423390Y-173748866D01*
X47232914Y-173796485D01*
X47137676Y-173844104D01*
X47042438Y-173939342D01*
X46994819Y-174082200D01*
X46994819Y-174177438D01*
X47042438Y-174320295D01*
X47090057Y-174367914D01*
X47423390Y-174367914D01*
X47423390Y-174177438D01*
X46994819Y-174796485D02*
X47994819Y-174796485D01*
X46994819Y-175367914D01*
X47994819Y-175367914D01*
X46994819Y-175844104D02*
X47994819Y-175844104D01*
X47994819Y-176082200D01*
X47947200Y-176225057D01*
X47851961Y-176320295D01*
X47756723Y-176367914D01*
X47566247Y-176415533D01*
X47423390Y-176415533D01*
X47232914Y-176367914D01*
X47137676Y-176320295D01*
X47042438Y-176225057D01*
X46994819Y-176082200D01*
X46994819Y-175844104D01*
X48045619Y-153362066D02*
X48045619Y-154028733D01*
X47045619Y-153600161D01*
X46950380Y-171523019D02*
X46950380Y-171427780D01*
X46998000Y-171332542D01*
X47045619Y-171284923D01*
X47140857Y-171237304D01*
X47331333Y-171189685D01*
X47569428Y-171189685D01*
X47759904Y-171237304D01*
X47855142Y-171284923D01*
X47902761Y-171332542D01*
X47950380Y-171427780D01*
X47950380Y-171523019D01*
X47902761Y-171618257D01*
X47855142Y-171665876D01*
X47759904Y-171713495D01*
X47569428Y-171761114D01*
X47331333Y-171761114D01*
X47140857Y-171713495D01*
X47045619Y-171665876D01*
X46998000Y-171618257D01*
X46950380Y-171523019D01*
X50293019Y-185623438D02*
X49293019Y-185956771D01*
X50293019Y-186290104D01*
X49293019Y-186623438D02*
X49959685Y-186623438D01*
X50293019Y-186623438D02*
X50245400Y-186575819D01*
X50197780Y-186623438D01*
X50245400Y-186671057D01*
X50293019Y-186623438D01*
X50197780Y-186623438D01*
X49293019Y-187528200D02*
X50293019Y-187528200D01*
X49340638Y-187528200D02*
X49293019Y-187432961D01*
X49293019Y-187242485D01*
X49340638Y-187147247D01*
X49388257Y-187099628D01*
X49483495Y-187052009D01*
X49769209Y-187052009D01*
X49864447Y-187099628D01*
X49912066Y-187147247D01*
X49959685Y-187242485D01*
X49959685Y-187432961D01*
X49912066Y-187528200D01*
X49340638Y-188385342D02*
X49293019Y-188290104D01*
X49293019Y-188099628D01*
X49340638Y-188004390D01*
X49435876Y-187956771D01*
X49816828Y-187956771D01*
X49912066Y-188004390D01*
X49959685Y-188099628D01*
X49959685Y-188290104D01*
X49912066Y-188385342D01*
X49816828Y-188432961D01*
X49721590Y-188432961D01*
X49626352Y-187956771D01*
X49293019Y-189004390D02*
X49340638Y-188909152D01*
X49388257Y-188861533D01*
X49483495Y-188813914D01*
X49769209Y-188813914D01*
X49864447Y-188861533D01*
X49912066Y-188909152D01*
X49959685Y-189004390D01*
X49959685Y-189147247D01*
X49912066Y-189242485D01*
X49864447Y-189290104D01*
X49769209Y-189337723D01*
X49483495Y-189337723D01*
X49388257Y-189290104D01*
X49340638Y-189242485D01*
X49293019Y-189147247D01*
X49293019Y-189004390D01*
X47928733Y-185694866D02*
X47928733Y-186171057D01*
X47643019Y-185599628D02*
X48643019Y-185932961D01*
X47643019Y-186266295D01*
X48309685Y-187028200D02*
X47643019Y-187028200D01*
X48309685Y-186599628D02*
X47785876Y-186599628D01*
X47690638Y-186647247D01*
X47643019Y-186742485D01*
X47643019Y-186885342D01*
X47690638Y-186980580D01*
X47738257Y-187028200D01*
X47643019Y-187932961D02*
X48643019Y-187932961D01*
X47690638Y-187932961D02*
X47643019Y-187837723D01*
X47643019Y-187647247D01*
X47690638Y-187552009D01*
X47738257Y-187504390D01*
X47833495Y-187456771D01*
X48119209Y-187456771D01*
X48214447Y-187504390D01*
X48262066Y-187552009D01*
X48309685Y-187647247D01*
X48309685Y-187837723D01*
X48262066Y-187932961D01*
X47643019Y-188409152D02*
X48309685Y-188409152D01*
X48643019Y-188409152D02*
X48595400Y-188361533D01*
X48547780Y-188409152D01*
X48595400Y-188456771D01*
X48643019Y-188409152D01*
X48547780Y-188409152D01*
X47643019Y-189028200D02*
X47690638Y-188932961D01*
X47738257Y-188885342D01*
X47833495Y-188837723D01*
X48119209Y-188837723D01*
X48214447Y-188885342D01*
X48262066Y-188932961D01*
X48309685Y-189028200D01*
X48309685Y-189171057D01*
X48262066Y-189266295D01*
X48214447Y-189313914D01*
X48119209Y-189361533D01*
X47833495Y-189361533D01*
X47738257Y-189313914D01*
X47690638Y-189266295D01*
X47643019Y-189171057D01*
X47643019Y-189028200D01*
X55818019Y-153362066D02*
X55818019Y-154028733D01*
X54818019Y-153600161D01*
X54824380Y-171523019D02*
X54824380Y-171427780D01*
X54872000Y-171332542D01*
X54919619Y-171284923D01*
X55014857Y-171237304D01*
X55205333Y-171189685D01*
X55443428Y-171189685D01*
X55633904Y-171237304D01*
X55729142Y-171284923D01*
X55776761Y-171332542D01*
X55824380Y-171427780D01*
X55824380Y-171523019D01*
X55776761Y-171618257D01*
X55729142Y-171665876D01*
X55633904Y-171713495D01*
X55443428Y-171761114D01*
X55205333Y-171761114D01*
X55014857Y-171713495D01*
X54919619Y-171665876D01*
X54872000Y-171618257D01*
X54824380Y-171523019D01*
X46994819Y-160674276D02*
X47994819Y-160674276D01*
X47994819Y-161055228D01*
X47947200Y-161150466D01*
X47899580Y-161198085D01*
X47804342Y-161245704D01*
X47661485Y-161245704D01*
X47566247Y-161198085D01*
X47518628Y-161150466D01*
X47471009Y-161055228D01*
X47471009Y-160674276D01*
X46994819Y-161817133D02*
X47042438Y-161721895D01*
X47090057Y-161674276D01*
X47185295Y-161626657D01*
X47471009Y-161626657D01*
X47566247Y-161674276D01*
X47613866Y-161721895D01*
X47661485Y-161817133D01*
X47661485Y-161959990D01*
X47613866Y-162055228D01*
X47566247Y-162102847D01*
X47471009Y-162150466D01*
X47185295Y-162150466D01*
X47090057Y-162102847D01*
X47042438Y-162055228D01*
X46994819Y-161959990D01*
X46994819Y-161817133D01*
X46994819Y-162579038D02*
X47661485Y-162579038D01*
X47471009Y-162579038D02*
X47566247Y-162626657D01*
X47613866Y-162674276D01*
X47661485Y-162769514D01*
X47661485Y-162864752D01*
X47661485Y-163055228D02*
X47661485Y-163436180D01*
X47994819Y-163198085D02*
X47137676Y-163198085D01*
X47042438Y-163245704D01*
X46994819Y-163340942D01*
X46994819Y-163436180D01*
X47518628Y-164102847D02*
X47471009Y-164245704D01*
X47423390Y-164293323D01*
X47328152Y-164340942D01*
X47185295Y-164340942D01*
X47090057Y-164293323D01*
X47042438Y-164245704D01*
X46994819Y-164150466D01*
X46994819Y-163769514D01*
X47994819Y-163769514D01*
X47994819Y-164102847D01*
X47947200Y-164198085D01*
X47899580Y-164245704D01*
X47804342Y-164293323D01*
X47709104Y-164293323D01*
X47613866Y-164245704D01*
X47566247Y-164198085D01*
X47518628Y-164102847D01*
X47518628Y-163769514D01*
X55173619Y-160999704D02*
X56173619Y-160999704D01*
X56173619Y-161380657D01*
X56126000Y-161475895D01*
X56078380Y-161523514D01*
X55983142Y-161571133D01*
X55840285Y-161571133D01*
X55745047Y-161523514D01*
X55697428Y-161475895D01*
X55649809Y-161380657D01*
X55649809Y-160999704D01*
X55173619Y-162142561D02*
X55221238Y-162047323D01*
X55268857Y-161999704D01*
X55364095Y-161952085D01*
X55649809Y-161952085D01*
X55745047Y-161999704D01*
X55792666Y-162047323D01*
X55840285Y-162142561D01*
X55840285Y-162285419D01*
X55792666Y-162380657D01*
X55745047Y-162428276D01*
X55649809Y-162475895D01*
X55364095Y-162475895D01*
X55268857Y-162428276D01*
X55221238Y-162380657D01*
X55173619Y-162285419D01*
X55173619Y-162142561D01*
X55173619Y-162904466D02*
X55840285Y-162904466D01*
X55649809Y-162904466D02*
X55745047Y-162952085D01*
X55792666Y-162999704D01*
X55840285Y-163094942D01*
X55840285Y-163190180D01*
X55840285Y-163380657D02*
X55840285Y-163761609D01*
X56173619Y-163523514D02*
X55316476Y-163523514D01*
X55221238Y-163571133D01*
X55173619Y-163666371D01*
X55173619Y-163761609D01*
X55459333Y-164047323D02*
X55459333Y-164523514D01*
X55173619Y-163952085D02*
X56173619Y-164285419D01*
X55173619Y-164618752D01*
X125987847Y-229030780D02*
X126654514Y-229030780D01*
X125987847Y-230030780D01*
X126654514Y-230030780D01*
X127464038Y-230030780D02*
X127464038Y-229506971D01*
X127416419Y-229411733D01*
X127321180Y-229364114D01*
X127130704Y-229364114D01*
X127035466Y-229411733D01*
X127464038Y-229983161D02*
X127368800Y-230030780D01*
X127130704Y-230030780D01*
X127035466Y-229983161D01*
X126987847Y-229887923D01*
X126987847Y-229792685D01*
X127035466Y-229697447D01*
X127130704Y-229649828D01*
X127368800Y-229649828D01*
X127464038Y-229602209D01*
X128083085Y-230030780D02*
X127987847Y-229983161D01*
X127940228Y-229887923D01*
X127940228Y-229030780D01*
X128321180Y-229364114D02*
X128702133Y-229364114D01*
X128464038Y-229030780D02*
X128464038Y-229887923D01*
X128511657Y-229983161D01*
X128606895Y-230030780D01*
X128702133Y-230030780D01*
X129749752Y-229983161D02*
X129892609Y-230030780D01*
X130130704Y-230030780D01*
X130225942Y-229983161D01*
X130273561Y-229935542D01*
X130321180Y-229840304D01*
X130321180Y-229745066D01*
X130273561Y-229649828D01*
X130225942Y-229602209D01*
X130130704Y-229554590D01*
X129940228Y-229506971D01*
X129844990Y-229459352D01*
X129797371Y-229411733D01*
X129749752Y-229316495D01*
X129749752Y-229221257D01*
X129797371Y-229126019D01*
X129844990Y-229078400D01*
X129940228Y-229030780D01*
X130178323Y-229030780D01*
X130321180Y-229078400D01*
X130892609Y-230030780D02*
X130797371Y-229983161D01*
X130749752Y-229935542D01*
X130702133Y-229840304D01*
X130702133Y-229554590D01*
X130749752Y-229459352D01*
X130797371Y-229411733D01*
X130892609Y-229364114D01*
X131035466Y-229364114D01*
X131130704Y-229411733D01*
X131178323Y-229459352D01*
X131225942Y-229554590D01*
X131225942Y-229840304D01*
X131178323Y-229935542D01*
X131130704Y-229983161D01*
X131035466Y-230030780D01*
X130892609Y-230030780D01*
X132083085Y-229364114D02*
X132083085Y-230030780D01*
X131654514Y-229364114D02*
X131654514Y-229887923D01*
X131702133Y-229983161D01*
X131797371Y-230030780D01*
X131940228Y-230030780D01*
X132035466Y-229983161D01*
X132083085Y-229935542D01*
X132559276Y-229364114D02*
X132559276Y-230030780D01*
X132559276Y-229459352D02*
X132606895Y-229411733D01*
X132702133Y-229364114D01*
X132844990Y-229364114D01*
X132940228Y-229411733D01*
X132987847Y-229506971D01*
X132987847Y-230030780D01*
X133892609Y-230030780D02*
X133892609Y-229030780D01*
X133892609Y-229983161D02*
X133797371Y-230030780D01*
X133606895Y-230030780D01*
X133511657Y-229983161D01*
X133464038Y-229935542D01*
X133416419Y-229840304D01*
X133416419Y-229554590D01*
X133464038Y-229459352D01*
X133511657Y-229411733D01*
X133606895Y-229364114D01*
X133797371Y-229364114D01*
X133892609Y-229411733D01*
X135940228Y-230030780D02*
X135892609Y-230030780D01*
X135797371Y-229983161D01*
X135654514Y-229840304D01*
X135416419Y-229554590D01*
X135321180Y-229411733D01*
X135273561Y-229268876D01*
X135273561Y-229173638D01*
X135321180Y-229078400D01*
X135416419Y-229030780D01*
X135464038Y-229030780D01*
X135559276Y-229078400D01*
X135606895Y-229173638D01*
X135606895Y-229221257D01*
X135559276Y-229316495D01*
X135511657Y-229364114D01*
X135225942Y-229554590D01*
X135178323Y-229602209D01*
X135130704Y-229697447D01*
X135130704Y-229840304D01*
X135178323Y-229935542D01*
X135225942Y-229983161D01*
X135321180Y-230030780D01*
X135464038Y-230030780D01*
X135559276Y-229983161D01*
X135606895Y-229935542D01*
X135749752Y-229745066D01*
X135797371Y-229602209D01*
X135797371Y-229506971D01*
X127511657Y-230680780D02*
X127844990Y-231680780D01*
X128178323Y-230680780D01*
X128511657Y-231680780D02*
X128511657Y-231014114D01*
X128511657Y-230680780D02*
X128464038Y-230728400D01*
X128511657Y-230776019D01*
X128559276Y-230728400D01*
X128511657Y-230680780D01*
X128511657Y-230776019D01*
X129416419Y-231680780D02*
X129416419Y-230680780D01*
X129416419Y-231633161D02*
X129321180Y-231680780D01*
X129130704Y-231680780D01*
X129035466Y-231633161D01*
X128987847Y-231585542D01*
X128940228Y-231490304D01*
X128940228Y-231204590D01*
X128987847Y-231109352D01*
X129035466Y-231061733D01*
X129130704Y-231014114D01*
X129321180Y-231014114D01*
X129416419Y-231061733D01*
X130273561Y-231633161D02*
X130178323Y-231680780D01*
X129987847Y-231680780D01*
X129892609Y-231633161D01*
X129844990Y-231537923D01*
X129844990Y-231156971D01*
X129892609Y-231061733D01*
X129987847Y-231014114D01*
X130178323Y-231014114D01*
X130273561Y-231061733D01*
X130321180Y-231156971D01*
X130321180Y-231252209D01*
X129844990Y-231347447D01*
X130892609Y-231680780D02*
X130797371Y-231633161D01*
X130749752Y-231585542D01*
X130702133Y-231490304D01*
X130702133Y-231204590D01*
X130749752Y-231109352D01*
X130797371Y-231061733D01*
X130892609Y-231014114D01*
X131035466Y-231014114D01*
X131130704Y-231061733D01*
X131178323Y-231109352D01*
X131225942Y-231204590D01*
X131225942Y-231490304D01*
X131178323Y-231585542D01*
X131130704Y-231633161D01*
X131035466Y-231680780D01*
X130892609Y-231680780D01*
X132321180Y-231014114D02*
X132559276Y-231680780D01*
X132797371Y-231014114D01*
X133702133Y-231680780D02*
X133130704Y-231680780D01*
X133416419Y-231680780D02*
X133416419Y-230680780D01*
X133321180Y-230823638D01*
X133225942Y-230918876D01*
X133130704Y-230966495D01*
X134130704Y-231585542D02*
X134178323Y-231633161D01*
X134130704Y-231680780D01*
X134083085Y-231633161D01*
X134130704Y-231585542D01*
X134130704Y-231680780D01*
X134797371Y-230680780D02*
X134892609Y-230680780D01*
X134987847Y-230728400D01*
X135035466Y-230776019D01*
X135083085Y-230871257D01*
X135130704Y-231061733D01*
X135130704Y-231299828D01*
X135083085Y-231490304D01*
X135035466Y-231585542D01*
X134987847Y-231633161D01*
X134892609Y-231680780D01*
X134797371Y-231680780D01*
X134702133Y-231633161D01*
X134654514Y-231585542D01*
X134606895Y-231490304D01*
X134559276Y-231299828D01*
X134559276Y-231061733D01*
X134606895Y-230871257D01*
X134654514Y-230776019D01*
X134702133Y-230728400D01*
X134797371Y-230680780D01*
X57412476Y-138273780D02*
X57412476Y-137273780D01*
X57745809Y-137988066D01*
X58079142Y-137273780D01*
X58079142Y-138273780D01*
X58983904Y-138273780D02*
X58983904Y-137749971D01*
X58936285Y-137654733D01*
X58841047Y-137607114D01*
X58650571Y-137607114D01*
X58555333Y-137654733D01*
X58983904Y-138226161D02*
X58888666Y-138273780D01*
X58650571Y-138273780D01*
X58555333Y-138226161D01*
X58507714Y-138130923D01*
X58507714Y-138035685D01*
X58555333Y-137940447D01*
X58650571Y-137892828D01*
X58888666Y-137892828D01*
X58983904Y-137845209D01*
X59460095Y-138273780D02*
X59460095Y-137607114D01*
X59460095Y-137797590D02*
X59507714Y-137702352D01*
X59555333Y-137654733D01*
X59650571Y-137607114D01*
X59745809Y-137607114D01*
X60507714Y-138226161D02*
X60412476Y-138273780D01*
X60222000Y-138273780D01*
X60126761Y-138226161D01*
X60079142Y-138178542D01*
X60031523Y-138083304D01*
X60031523Y-137797590D01*
X60079142Y-137702352D01*
X60126761Y-137654733D01*
X60222000Y-137607114D01*
X60412476Y-137607114D01*
X60507714Y-137654733D01*
X61983904Y-137273780D02*
X61983904Y-137988066D01*
X61936285Y-138130923D01*
X61841047Y-138226161D01*
X61698190Y-138273780D01*
X61602952Y-138273780D01*
X62888666Y-138273780D02*
X62888666Y-137749971D01*
X62841047Y-137654733D01*
X62745809Y-137607114D01*
X62555333Y-137607114D01*
X62460095Y-137654733D01*
X62888666Y-138226161D02*
X62793428Y-138273780D01*
X62555333Y-138273780D01*
X62460095Y-138226161D01*
X62412476Y-138130923D01*
X62412476Y-138035685D01*
X62460095Y-137940447D01*
X62555333Y-137892828D01*
X62793428Y-137892828D01*
X62888666Y-137845209D01*
X63793428Y-138226161D02*
X63698190Y-138273780D01*
X63507714Y-138273780D01*
X63412476Y-138226161D01*
X63364857Y-138178542D01*
X63317238Y-138083304D01*
X63317238Y-137797590D01*
X63364857Y-137702352D01*
X63412476Y-137654733D01*
X63507714Y-137607114D01*
X63698190Y-137607114D01*
X63793428Y-137654733D01*
X64364857Y-138273780D02*
X64269619Y-138226161D01*
X64222000Y-138178542D01*
X64174380Y-138083304D01*
X64174380Y-137797590D01*
X64222000Y-137702352D01*
X64269619Y-137654733D01*
X64364857Y-137607114D01*
X64507714Y-137607114D01*
X64602952Y-137654733D01*
X64650571Y-137702352D01*
X64698190Y-137797590D01*
X64698190Y-138083304D01*
X64650571Y-138178542D01*
X64602952Y-138226161D01*
X64507714Y-138273780D01*
X64364857Y-138273780D01*
X65126761Y-138273780D02*
X65126761Y-137273780D01*
X65126761Y-137654733D02*
X65222000Y-137607114D01*
X65412476Y-137607114D01*
X65507714Y-137654733D01*
X65555333Y-137702352D01*
X65602952Y-137797590D01*
X65602952Y-138083304D01*
X65555333Y-138178542D01*
X65507714Y-138226161D01*
X65412476Y-138273780D01*
X65222000Y-138273780D01*
X65126761Y-138226161D01*
X66031523Y-138273780D02*
X66031523Y-137607114D01*
X66031523Y-137273780D02*
X65983904Y-137321400D01*
X66031523Y-137369019D01*
X66079142Y-137321400D01*
X66031523Y-137273780D01*
X66031523Y-137369019D01*
X57412476Y-139828542D02*
X57364857Y-139876161D01*
X57222000Y-139923780D01*
X57126761Y-139923780D01*
X56983904Y-139876161D01*
X56888666Y-139780923D01*
X56841047Y-139685685D01*
X56793428Y-139495209D01*
X56793428Y-139352352D01*
X56841047Y-139161876D01*
X56888666Y-139066638D01*
X56983904Y-138971400D01*
X57126761Y-138923780D01*
X57222000Y-138923780D01*
X57364857Y-138971400D01*
X57412476Y-139019019D01*
X58269619Y-139923780D02*
X58269619Y-139399971D01*
X58222000Y-139304733D01*
X58126761Y-139257114D01*
X57936285Y-139257114D01*
X57841047Y-139304733D01*
X58269619Y-139876161D02*
X58174380Y-139923780D01*
X57936285Y-139923780D01*
X57841047Y-139876161D01*
X57793428Y-139780923D01*
X57793428Y-139685685D01*
X57841047Y-139590447D01*
X57936285Y-139542828D01*
X58174380Y-139542828D01*
X58269619Y-139495209D01*
X58745809Y-139257114D02*
X58745809Y-139923780D01*
X58745809Y-139352352D02*
X58793428Y-139304733D01*
X58888666Y-139257114D01*
X59031523Y-139257114D01*
X59126761Y-139304733D01*
X59174380Y-139399971D01*
X59174380Y-139923780D01*
X59650571Y-139257114D02*
X59650571Y-139923780D01*
X59650571Y-139352352D02*
X59698190Y-139304733D01*
X59793428Y-139257114D01*
X59936285Y-139257114D01*
X60031523Y-139304733D01*
X60079142Y-139399971D01*
X60079142Y-139923780D01*
X60936285Y-139876161D02*
X60841047Y-139923780D01*
X60650571Y-139923780D01*
X60555333Y-139876161D01*
X60507714Y-139780923D01*
X60507714Y-139399971D01*
X60555333Y-139304733D01*
X60650571Y-139257114D01*
X60841047Y-139257114D01*
X60936285Y-139304733D01*
X60983904Y-139399971D01*
X60983904Y-139495209D01*
X60507714Y-139590447D01*
X61841047Y-139923780D02*
X61841047Y-138923780D01*
X61841047Y-139876161D02*
X61745809Y-139923780D01*
X61555333Y-139923780D01*
X61460095Y-139876161D01*
X61412476Y-139828542D01*
X61364857Y-139733304D01*
X61364857Y-139447590D01*
X61412476Y-139352352D01*
X61460095Y-139304733D01*
X61555333Y-139257114D01*
X61745809Y-139257114D01*
X61841047Y-139304733D01*
X63412476Y-139399971D02*
X63555333Y-139447590D01*
X63602952Y-139495209D01*
X63650571Y-139590447D01*
X63650571Y-139733304D01*
X63602952Y-139828542D01*
X63555333Y-139876161D01*
X63460095Y-139923780D01*
X63079142Y-139923780D01*
X63079142Y-138923780D01*
X63412476Y-138923780D01*
X63507714Y-138971400D01*
X63555333Y-139019019D01*
X63602952Y-139114257D01*
X63602952Y-139209495D01*
X63555333Y-139304733D01*
X63507714Y-139352352D01*
X63412476Y-139399971D01*
X63079142Y-139399971D01*
X63983904Y-139257114D02*
X64222000Y-139923780D01*
X64460095Y-139257114D02*
X64222000Y-139923780D01*
X64126761Y-140161876D01*
X64079142Y-140209495D01*
X63983904Y-140257114D01*
X64698190Y-139257114D02*
X65079142Y-139257114D01*
X64841047Y-138923780D02*
X64841047Y-139780923D01*
X64888666Y-139876161D01*
X64983904Y-139923780D01*
X65079142Y-139923780D01*
X65793428Y-139876161D02*
X65698190Y-139923780D01*
X65507714Y-139923780D01*
X65412476Y-139876161D01*
X65364857Y-139780923D01*
X65364857Y-139399971D01*
X65412476Y-139304733D01*
X65507714Y-139257114D01*
X65698190Y-139257114D01*
X65793428Y-139304733D01*
X65841047Y-139399971D01*
X65841047Y-139495209D01*
X65364857Y-139590447D01*
X66222000Y-139876161D02*
X66317238Y-139923780D01*
X66507714Y-139923780D01*
X66602952Y-139876161D01*
X66650571Y-139780923D01*
X66650571Y-139733304D01*
X66602952Y-139638066D01*
X66507714Y-139590447D01*
X66364857Y-139590447D01*
X66269619Y-139542828D01*
X66222000Y-139447590D01*
X66222000Y-139399971D01*
X66269619Y-139304733D01*
X66364857Y-139257114D01*
X66507714Y-139257114D01*
X66602952Y-139304733D01*
X60007714Y-140669019D02*
X60055333Y-140621400D01*
X60150571Y-140573780D01*
X60388666Y-140573780D01*
X60483904Y-140621400D01*
X60531523Y-140669019D01*
X60579142Y-140764257D01*
X60579142Y-140859495D01*
X60531523Y-141002352D01*
X59960095Y-141573780D01*
X60579142Y-141573780D01*
X61198190Y-140573780D02*
X61293428Y-140573780D01*
X61388666Y-140621400D01*
X61436285Y-140669019D01*
X61483904Y-140764257D01*
X61531523Y-140954733D01*
X61531523Y-141192828D01*
X61483904Y-141383304D01*
X61436285Y-141478542D01*
X61388666Y-141526161D01*
X61293428Y-141573780D01*
X61198190Y-141573780D01*
X61102952Y-141526161D01*
X61055333Y-141478542D01*
X61007714Y-141383304D01*
X60960095Y-141192828D01*
X60960095Y-140954733D01*
X61007714Y-140764257D01*
X61055333Y-140669019D01*
X61102952Y-140621400D01*
X61198190Y-140573780D01*
X61912476Y-140669019D02*
X61960095Y-140621400D01*
X62055333Y-140573780D01*
X62293428Y-140573780D01*
X62388666Y-140621400D01*
X62436285Y-140669019D01*
X62483904Y-140764257D01*
X62483904Y-140859495D01*
X62436285Y-141002352D01*
X61864857Y-141573780D01*
X62483904Y-141573780D01*
X63436285Y-141573780D02*
X62864857Y-141573780D01*
X63150571Y-141573780D02*
X63150571Y-140573780D01*
X63055333Y-140716638D01*
X62960095Y-140811876D01*
X62864857Y-140859495D01*
X54527580Y-185338980D02*
X54527580Y-184338980D01*
X55003771Y-185338980D02*
X55003771Y-184338980D01*
X55337104Y-185053266D01*
X55670438Y-184338980D01*
X55670438Y-185338980D01*
X56670438Y-185338980D02*
X56099009Y-185338980D01*
X56384723Y-185338980D02*
X56384723Y-184338980D01*
X56289485Y-184481838D01*
X56194247Y-184577076D01*
X56099009Y-184624695D01*
X57947180Y-185338980D02*
X57947180Y-184338980D01*
X58423371Y-185338980D02*
X58423371Y-184338980D01*
X58756704Y-185053266D01*
X59090038Y-184338980D01*
X59090038Y-185338980D01*
X59756704Y-184338980D02*
X59851942Y-184338980D01*
X59947180Y-184386600D01*
X59994800Y-184434219D01*
X60042419Y-184529457D01*
X60090038Y-184719933D01*
X60090038Y-184958028D01*
X60042419Y-185148504D01*
X59994800Y-185243742D01*
X59947180Y-185291361D01*
X59851942Y-185338980D01*
X59756704Y-185338980D01*
X59661466Y-185291361D01*
X59613847Y-185243742D01*
X59566228Y-185148504D01*
X59518609Y-184958028D01*
X59518609Y-184719933D01*
X59566228Y-184529457D01*
X59613847Y-184434219D01*
X59661466Y-184386600D01*
X59756704Y-184338980D01*
X61232895Y-184291361D02*
X60375752Y-185577076D01*
X61518609Y-184434219D02*
X61566228Y-184386600D01*
X61661466Y-184338980D01*
X61899561Y-184338980D01*
X61994800Y-184386600D01*
X62042419Y-184434219D01*
X62090038Y-184529457D01*
X62090038Y-184624695D01*
X62042419Y-184767552D01*
X61470990Y-185338980D01*
X62090038Y-185338980D01*
D11*
X122190000Y-139776009D02*
X122094761Y-139966485D01*
X122094761Y-140252200D01*
X122190000Y-140537914D01*
X122380476Y-140728390D01*
X122570952Y-140823628D01*
X122951904Y-140918866D01*
X123237619Y-140918866D01*
X123618571Y-140823628D01*
X123809047Y-140728390D01*
X123999523Y-140537914D01*
X124094761Y-140252200D01*
X124094761Y-140061723D01*
X123999523Y-139776009D01*
X123904285Y-139680771D01*
X123237619Y-139680771D01*
X123237619Y-140061723D01*
X124094761Y-138823628D02*
X122094761Y-138823628D01*
X124094761Y-137680771D01*
X122094761Y-137680771D01*
X124094761Y-136728390D02*
X122094761Y-136728390D01*
X122094761Y-136252200D01*
X122190000Y-135966485D01*
X122380476Y-135776009D01*
X122570952Y-135680771D01*
X122951904Y-135585533D01*
X123237619Y-135585533D01*
X123618571Y-135680771D01*
X123809047Y-135776009D01*
X123999523Y-135966485D01*
X124094761Y-136252200D01*
X124094761Y-136728390D01*
X137018685Y-143226942D02*
X137018685Y-140941228D01*
X138161542Y-142084085D02*
X135875828Y-142084085D01*
X135161542Y-138084085D02*
X135161542Y-139512657D01*
X136590114Y-139655514D01*
X136447257Y-139512657D01*
X136304400Y-139226942D01*
X136304400Y-138512657D01*
X136447257Y-138226942D01*
X136590114Y-138084085D01*
X136875828Y-137941228D01*
X137590114Y-137941228D01*
X137875828Y-138084085D01*
X138018685Y-138226942D01*
X138161542Y-138512657D01*
X138161542Y-139226942D01*
X138018685Y-139512657D01*
X137875828Y-139655514D01*
X135161542Y-137084085D02*
X138161542Y-136084085D01*
X135161542Y-135084085D01*
D12*
X70445100Y-216027724D02*
X70445100Y-215518276D01*
X71490100Y-216027724D02*
X71490100Y-215518276D01*
X107985800Y-148396400D02*
X101745800Y-148396400D01*
X107985800Y-143754400D02*
X101745800Y-143754400D01*
X107985800Y-148396400D02*
X107985800Y-147000400D01*
X107985800Y-145150400D02*
X107985800Y-143754400D01*
X101745800Y-148396400D02*
X101745800Y-147000400D01*
X101745800Y-145150400D02*
X101745800Y-143754400D01*
X101228026Y-151130000D02*
G75*
G03*
X101228026Y-151130000I-898026J0D01*
G01*
X99060000Y-207645000D02*
X99060000Y-149860000D01*
X114300000Y-207645000D02*
X99060000Y-207645000D01*
X114300000Y-149860000D02*
X114300000Y-207645000D01*
X99060000Y-149860000D02*
X114300000Y-149860000D01*
X144205000Y-148860000D02*
X144205000Y-147610000D01*
X144205000Y-147610000D02*
X121225000Y-147610000D01*
X121225000Y-147610000D02*
X121225000Y-152110000D01*
X121225000Y-152110000D02*
X144205000Y-152110000D01*
X144205000Y-152110000D02*
X144205000Y-150860000D01*
X144205000Y-150860000D02*
G75*
G02*
X144205000Y-148860000I0J1000000D01*
G01*
X144205000Y-163540000D02*
X144205000Y-162290000D01*
X121225000Y-163540000D02*
X144205000Y-163540000D01*
X121225000Y-159040000D02*
X121225000Y-163540000D01*
X144205000Y-159040000D02*
X121225000Y-159040000D01*
X144205000Y-160290000D02*
X144205000Y-159040000D01*
X144205000Y-162290000D02*
G75*
G02*
X144205000Y-160290000I0J1000000D01*
G01*
X144205000Y-186400000D02*
X144205000Y-185150000D01*
X121225000Y-186400000D02*
X144205000Y-186400000D01*
X121225000Y-181900000D02*
X121225000Y-186400000D01*
X144205000Y-181900000D02*
X121225000Y-181900000D01*
X144205000Y-183150000D02*
X144205000Y-181900000D01*
X144205000Y-185150000D02*
G75*
G02*
X144205000Y-183150000I0J1000000D01*
G01*
X144205000Y-209260000D02*
X144205000Y-208010000D01*
X121225000Y-209260000D02*
X144205000Y-209260000D01*
X121225000Y-204760000D02*
X121225000Y-209260000D01*
X144205000Y-204760000D02*
X121225000Y-204760000D01*
X144205000Y-206010000D02*
X144205000Y-204760000D01*
X144205000Y-208010000D02*
G75*
G02*
X144205000Y-206010000I0J1000000D01*
G01*
D13*
X143256000Y-139700000D02*
G75*
G03*
X143256000Y-139700000I-2286000J0D01*
G01*
X53721000Y-139700000D02*
G75*
G03*
X53721000Y-139700000I-2286000J0D01*
G01*
X143256000Y-229235000D02*
G75*
G03*
X143256000Y-229235000I-2286000J0D01*
G01*
X53721000Y-229235000D02*
G75*
G03*
X53721000Y-229235000I-2286000J0D01*
G01*
D12*
X71010000Y-226670000D02*
X71010000Y-231870000D01*
X119330000Y-226670000D02*
X71010000Y-226670000D01*
X121930000Y-231870000D02*
X71010000Y-231870000D01*
X119330000Y-226670000D02*
X119330000Y-229270000D01*
X119330000Y-229270000D02*
X121930000Y-229270000D01*
X121930000Y-229270000D02*
X121930000Y-231870000D01*
X120600000Y-226670000D02*
X121930000Y-226670000D01*
X121930000Y-226670000D02*
X121930000Y-228000000D01*
X124460000Y-135890000D02*
X134620000Y-135890000D01*
X124460000Y-134620000D02*
X124460000Y-142240000D01*
X124460000Y-142240000D02*
X134620000Y-142240000D01*
X134620000Y-142240000D02*
X134620000Y-134620000D01*
X134620000Y-134620000D02*
X124460000Y-134620000D01*
X144205000Y-171720000D02*
X144205000Y-170470000D01*
X144205000Y-170470000D02*
X121225000Y-170470000D01*
X121225000Y-170470000D02*
X121225000Y-174970000D01*
X121225000Y-174970000D02*
X144205000Y-174970000D01*
X144205000Y-174970000D02*
X144205000Y-173720000D01*
X144205000Y-173720000D02*
G75*
G02*
X144205000Y-171720000I0J1000000D01*
G01*
X144205000Y-194580000D02*
X144205000Y-193330000D01*
X144205000Y-193330000D02*
X121225000Y-193330000D01*
X121225000Y-193330000D02*
X121225000Y-197830000D01*
X121225000Y-197830000D02*
X144205000Y-197830000D01*
X144205000Y-197830000D02*
X144205000Y-196580000D01*
X144205000Y-196580000D02*
G75*
G02*
X144205000Y-194580000I0J1000000D01*
G01*
X70552000Y-142300000D02*
X70552000Y-140970000D01*
X71882000Y-142300000D02*
X70552000Y-142300000D01*
X70552000Y-139700000D02*
X70552000Y-137100000D01*
X73152000Y-139700000D02*
X70552000Y-139700000D01*
X73152000Y-142300000D02*
X73152000Y-139700000D01*
X70552000Y-137100000D02*
X121472000Y-137100000D01*
X73152000Y-142300000D02*
X121472000Y-142300000D01*
X121472000Y-142300000D02*
X121472000Y-137100000D01*
X54785000Y-209060000D02*
X45665000Y-209060000D01*
X54785000Y-204960000D02*
X45665000Y-204960000D01*
X54785000Y-223650000D02*
X45665000Y-223650000D01*
X45665000Y-223650000D02*
X45665000Y-190370000D01*
X45665000Y-190370000D02*
X54785000Y-190370000D01*
X54785000Y-190370000D02*
X54785000Y-223650000D01*
X60405000Y-218440000D02*
X61405000Y-218940000D01*
X61405000Y-218940000D02*
X61405000Y-217940000D01*
X61405000Y-217940000D02*
X60405000Y-218440000D01*
X80054000Y-207257400D02*
X80054000Y-207757400D01*
X79804000Y-207507400D02*
X80304000Y-207507400D01*
X80544000Y-210262963D02*
X81608437Y-211327400D01*
X80544000Y-207871837D02*
X81608437Y-206807400D01*
X80544000Y-207871837D02*
X80544000Y-208007400D01*
X80544000Y-210262963D02*
X80544000Y-210127400D01*
X81608437Y-211327400D02*
X85064000Y-211327400D01*
X81608437Y-206807400D02*
X85064000Y-206807400D01*
X85064000Y-206807400D02*
X85064000Y-208007400D01*
X85064000Y-211327400D02*
X85064000Y-210127400D01*
X70195000Y-149800000D02*
X68945000Y-149800000D01*
X70195000Y-180400000D02*
X70195000Y-149800000D01*
X65695000Y-180400000D02*
X70195000Y-180400000D01*
X65695000Y-149800000D02*
X65695000Y-180400000D01*
X66945000Y-149800000D02*
X65695000Y-149800000D01*
X68945000Y-149800000D02*
G75*
G02*
X66945000Y-149800000I-1000000J0D01*
G01*
X108772000Y-222239400D02*
X108772000Y-219719400D01*
X78172000Y-222239400D02*
X108772000Y-222239400D01*
X78172000Y-215199400D02*
X78172000Y-222239400D01*
X108772000Y-215199400D02*
X78172000Y-215199400D01*
X108772000Y-217719400D02*
X108772000Y-215199400D01*
X108772000Y-219719400D02*
G75*
G02*
X108772000Y-217719400I0J1000000D01*
G01*
X54162000Y-149825400D02*
X48962000Y-149825400D01*
X54162000Y-172745400D02*
X54162000Y-149825400D01*
X48962000Y-175345400D02*
X48962000Y-149825400D01*
X54162000Y-172745400D02*
X51562000Y-172745400D01*
X51562000Y-172745400D02*
X51562000Y-175345400D01*
X51562000Y-175345400D02*
X48962000Y-175345400D01*
X54162000Y-174015400D02*
X54162000Y-175345400D01*
X54162000Y-175345400D02*
X52832000Y-175345400D01*
X123950000Y-216833667D02*
X123950000Y-216541133D01*
X124970000Y-216833667D02*
X124970000Y-216541133D01*
X70445100Y-200686124D02*
X70445100Y-200176676D01*
X71490100Y-200686124D02*
X71490100Y-200176676D01*
X71882724Y-223073700D02*
X71373276Y-223073700D01*
X71882724Y-224118700D02*
X71373276Y-224118700D01*
X71490100Y-208509324D02*
X71490100Y-207999876D01*
X70445100Y-208509324D02*
X70445100Y-207999876D01*
X72797124Y-222239100D02*
X72287676Y-222239100D01*
X72797124Y-221194100D02*
X72287676Y-221194100D01*
X73051124Y-218704900D02*
X72541676Y-218704900D01*
X73051124Y-219749900D02*
X72541676Y-219749900D01*
X83582000Y-149825400D02*
X78522000Y-149825400D01*
X78522000Y-149825400D02*
X78522000Y-200745400D01*
X78522000Y-200745400D02*
X90642000Y-200745400D01*
X90642000Y-200745400D02*
X90642000Y-149825400D01*
X90642000Y-149825400D02*
X85582000Y-149825400D01*
X85582000Y-149825400D02*
G75*
G02*
X83582000Y-149825400I-1000000J0D01*
G01*
X144812000Y-217612400D02*
X144812000Y-219008400D01*
X144812000Y-214366400D02*
X144812000Y-215762400D01*
X138572000Y-217612400D02*
X138572000Y-219008400D01*
X138572000Y-214366400D02*
X138572000Y-215762400D01*
X138572000Y-219008400D02*
X144812000Y-219008400D01*
X138572000Y-214366400D02*
X144812000Y-214366400D01*
X123950000Y-223183667D02*
X123950000Y-222891133D01*
X124970000Y-223183667D02*
X124970000Y-222891133D01*
X138572000Y-220716400D02*
X144812000Y-220716400D01*
X138572000Y-225358400D02*
X144812000Y-225358400D01*
X138572000Y-220716400D02*
X138572000Y-222112400D01*
X138572000Y-223962400D02*
X138572000Y-225358400D01*
X144812000Y-220716400D02*
X144812000Y-222112400D01*
X144812000Y-223962400D02*
X144812000Y-225358400D01*
X111558800Y-144363200D02*
X117958800Y-144363200D01*
X111558800Y-149413200D02*
X117958800Y-149413200D01*
X111558800Y-149413200D02*
G75*
G02*
X111558800Y-144363200I0J2525000D01*
G01*
X117958800Y-149413200D02*
G75*
G03*
X117958800Y-144363200I0J2525000D01*
G01*
X128272000Y-219212400D02*
X134672000Y-219212400D01*
X128272000Y-214162400D02*
X134672000Y-214162400D01*
X134672000Y-219212400D02*
G75*
G03*
X134672000Y-214162400I0J2525000D01*
G01*
X128272000Y-219212400D02*
G75*
G02*
X128272000Y-214162400I0J2525000D01*
G01*
X128272000Y-225562400D02*
X134672000Y-225562400D01*
X128272000Y-220512400D02*
X134672000Y-220512400D01*
X128272000Y-225562400D02*
G75*
G02*
X128272000Y-220512400I0J2525000D01*
G01*
X134672000Y-225562400D02*
G75*
G03*
X134672000Y-220512400I0J2525000D01*
G01*
X62630000Y-192754200D02*
X62630000Y-195104200D01*
X62630000Y-199574200D02*
X62630000Y-197224200D01*
X68385563Y-199574200D02*
X62630000Y-199574200D01*
X68385563Y-192754200D02*
X62630000Y-192754200D01*
X69450000Y-193818637D02*
X69450000Y-195104200D01*
X69450000Y-198509763D02*
X69450000Y-197224200D01*
X69450000Y-198509763D02*
X68385563Y-199574200D01*
X69450000Y-193818637D02*
X68385563Y-192754200D01*
X70477500Y-198011700D02*
X69690000Y-198011700D01*
X70083750Y-198405450D02*
X70083750Y-197617950D01*
X56737550Y-232973950D02*
X57525050Y-232973950D01*
X57131300Y-233367700D02*
X57131300Y-232580200D01*
X61324363Y-232340200D02*
X62388800Y-231275763D01*
X56633237Y-232340200D02*
X55568800Y-231275763D01*
X56633237Y-232340200D02*
X57918800Y-232340200D01*
X61324363Y-232340200D02*
X60038800Y-232340200D01*
X62388800Y-231275763D02*
X62388800Y-225520200D01*
X55568800Y-231275763D02*
X55568800Y-225520200D01*
X55568800Y-225520200D02*
X57918800Y-225520200D01*
X62388800Y-225520200D02*
X60038800Y-225520200D01*
X62680800Y-200323400D02*
X62680800Y-202673400D01*
X62680800Y-207143400D02*
X62680800Y-204793400D01*
X68436363Y-207143400D02*
X62680800Y-207143400D01*
X68436363Y-200323400D02*
X62680800Y-200323400D01*
X69500800Y-201387837D02*
X69500800Y-202673400D01*
X69500800Y-206078963D02*
X69500800Y-204793400D01*
X69500800Y-206078963D02*
X68436363Y-207143400D01*
X69500800Y-201387837D02*
X68436363Y-200323400D01*
X70528300Y-205580900D02*
X69740800Y-205580900D01*
X70134550Y-205974650D02*
X70134550Y-205187150D01*
X69856400Y-225571000D02*
X67506400Y-225571000D01*
X63036400Y-225571000D02*
X65386400Y-225571000D01*
X63036400Y-231326563D02*
X63036400Y-225571000D01*
X69856400Y-231326563D02*
X69856400Y-225571000D01*
X68791963Y-232391000D02*
X67506400Y-232391000D01*
X64100837Y-232391000D02*
X65386400Y-232391000D01*
X64100837Y-232391000D02*
X63036400Y-231326563D01*
X68791963Y-232391000D02*
X69856400Y-231326563D01*
X64598900Y-233418500D02*
X64598900Y-232631000D01*
X64205150Y-233024750D02*
X64992650Y-233024750D01*
X70185350Y-213645450D02*
X70185350Y-212857950D01*
X70579100Y-213251700D02*
X69791600Y-213251700D01*
X69551600Y-209058637D02*
X68487163Y-207994200D01*
X69551600Y-213749763D02*
X68487163Y-214814200D01*
X69551600Y-213749763D02*
X69551600Y-212464200D01*
X69551600Y-209058637D02*
X69551600Y-210344200D01*
X68487163Y-207994200D02*
X62731600Y-207994200D01*
X68487163Y-214814200D02*
X62731600Y-214814200D01*
X62731600Y-214814200D02*
X62731600Y-212464200D01*
X62731600Y-207994200D02*
X62731600Y-210344200D01*
X70185350Y-221468650D02*
X70185350Y-220681150D01*
X70579100Y-221074900D02*
X69791600Y-221074900D01*
X69551600Y-216881837D02*
X68487163Y-215817400D01*
X69551600Y-221572963D02*
X68487163Y-222637400D01*
X69551600Y-221572963D02*
X69551600Y-220287400D01*
X69551600Y-216881837D02*
X69551600Y-218167400D01*
X68487163Y-215817400D02*
X62731600Y-215817400D01*
X68487163Y-222637400D02*
X62731600Y-222637400D01*
X62731600Y-222637400D02*
X62731600Y-220287400D01*
X62731600Y-215817400D02*
X62731600Y-218167400D01*
X62630000Y-185235800D02*
X62630000Y-187585800D01*
X62630000Y-192055800D02*
X62630000Y-189705800D01*
X68385563Y-192055800D02*
X62630000Y-192055800D01*
X68385563Y-185235800D02*
X62630000Y-185235800D01*
X69450000Y-186300237D02*
X69450000Y-187585800D01*
X69450000Y-190991363D02*
X69450000Y-189705800D01*
X69450000Y-190991363D02*
X68385563Y-192055800D01*
X69450000Y-186300237D02*
X68385563Y-185235800D01*
X70477500Y-190493300D02*
X69690000Y-190493300D01*
X70083750Y-190887050D02*
X70083750Y-190099550D01*
X55707350Y-183419450D02*
X55707350Y-182631950D01*
X56101100Y-183025700D02*
X55313600Y-183025700D01*
X55073600Y-178832637D02*
X54009163Y-177768200D01*
X55073600Y-183523763D02*
X54009163Y-184588200D01*
X55073600Y-183523763D02*
X55073600Y-182238200D01*
X55073600Y-178832637D02*
X55073600Y-180118200D01*
X54009163Y-177768200D02*
X48253600Y-177768200D01*
X54009163Y-184588200D02*
X48253600Y-184588200D01*
X48253600Y-184588200D02*
X48253600Y-182238200D01*
X48253600Y-177768200D02*
X48253600Y-180118200D01*
X60512000Y-188705800D02*
X60512000Y-186045800D01*
X55372000Y-188705800D02*
X60512000Y-188705800D01*
X55372000Y-186045800D02*
X60512000Y-186045800D01*
X55372000Y-188705800D02*
X55372000Y-186045800D01*
X54102000Y-188705800D02*
X52772000Y-188705800D01*
X52772000Y-188705800D02*
X52772000Y-187375800D01*
D10*
X72642552Y-216123780D02*
X72309219Y-215647590D01*
X72071123Y-216123780D02*
X72071123Y-215123780D01*
X72452076Y-215123780D01*
X72547314Y-215171400D01*
X72594933Y-215219019D01*
X72642552Y-215314257D01*
X72642552Y-215457114D01*
X72594933Y-215552352D01*
X72547314Y-215599971D01*
X72452076Y-215647590D01*
X72071123Y-215647590D01*
X73023504Y-215219019D02*
X73071123Y-215171400D01*
X73166361Y-215123780D01*
X73404457Y-215123780D01*
X73499695Y-215171400D01*
X73547314Y-215219019D01*
X73594933Y-215314257D01*
X73594933Y-215409495D01*
X73547314Y-215552352D01*
X72975885Y-216123780D01*
X73594933Y-216123780D01*
X73928266Y-215123780D02*
X74547314Y-215123780D01*
X74213980Y-215504733D01*
X74356838Y-215504733D01*
X74452076Y-215552352D01*
X74499695Y-215599971D01*
X74547314Y-215695209D01*
X74547314Y-215933304D01*
X74499695Y-216028542D01*
X74452076Y-216076161D01*
X74356838Y-216123780D01*
X74071123Y-216123780D01*
X73975885Y-216076161D01*
X73928266Y-216028542D01*
X75166361Y-215123780D02*
X75261600Y-215123780D01*
X75356838Y-215171400D01*
X75404457Y-215219019D01*
X75452076Y-215314257D01*
X75499695Y-215504733D01*
X75499695Y-215742828D01*
X75452076Y-215933304D01*
X75404457Y-216028542D01*
X75356838Y-216076161D01*
X75261600Y-216123780D01*
X75166361Y-216123780D01*
X75071123Y-216076161D01*
X75023504Y-216028542D01*
X74975885Y-215933304D01*
X74928266Y-215742828D01*
X74928266Y-215504733D01*
X74975885Y-215314257D01*
X75023504Y-215219019D01*
X75071123Y-215171400D01*
X75166361Y-215123780D01*
X98245752Y-144552942D02*
X98198133Y-144600561D01*
X98055276Y-144648180D01*
X97960038Y-144648180D01*
X97817180Y-144600561D01*
X97721942Y-144505323D01*
X97674323Y-144410085D01*
X97626704Y-144219609D01*
X97626704Y-144076752D01*
X97674323Y-143886276D01*
X97721942Y-143791038D01*
X97817180Y-143695800D01*
X97960038Y-143648180D01*
X98055276Y-143648180D01*
X98198133Y-143695800D01*
X98245752Y-143743419D01*
X98626704Y-143743419D02*
X98674323Y-143695800D01*
X98769561Y-143648180D01*
X99007657Y-143648180D01*
X99102895Y-143695800D01*
X99150514Y-143743419D01*
X99198133Y-143838657D01*
X99198133Y-143933895D01*
X99150514Y-144076752D01*
X98579085Y-144648180D01*
X99198133Y-144648180D01*
X99817180Y-143648180D02*
X99912419Y-143648180D01*
X100007657Y-143695800D01*
X100055276Y-143743419D01*
X100102895Y-143838657D01*
X100150514Y-144029133D01*
X100150514Y-144267228D01*
X100102895Y-144457704D01*
X100055276Y-144552942D01*
X100007657Y-144600561D01*
X99912419Y-144648180D01*
X99817180Y-144648180D01*
X99721942Y-144600561D01*
X99674323Y-144552942D01*
X99626704Y-144457704D01*
X99579085Y-144267228D01*
X99579085Y-144029133D01*
X99626704Y-143838657D01*
X99674323Y-143743419D01*
X99721942Y-143695800D01*
X99817180Y-143648180D01*
X101102895Y-144648180D02*
X100531466Y-144648180D01*
X100817180Y-144648180D02*
X100817180Y-143648180D01*
X100721942Y-143791038D01*
X100626704Y-143886276D01*
X100531466Y-143933895D01*
X95516914Y-148321780D02*
X95516914Y-149131304D01*
X95564533Y-149226542D01*
X95612152Y-149274161D01*
X95707390Y-149321780D01*
X95897866Y-149321780D01*
X95993104Y-149274161D01*
X96040723Y-149226542D01*
X96088342Y-149131304D01*
X96088342Y-148321780D01*
X96516914Y-148417019D02*
X96564533Y-148369400D01*
X96659771Y-148321780D01*
X96897866Y-148321780D01*
X96993104Y-148369400D01*
X97040723Y-148417019D01*
X97088342Y-148512257D01*
X97088342Y-148607495D01*
X97040723Y-148750352D01*
X96469295Y-149321780D01*
X97088342Y-149321780D01*
X97707390Y-148321780D02*
X97802628Y-148321780D01*
X97897866Y-148369400D01*
X97945485Y-148417019D01*
X97993104Y-148512257D01*
X98040723Y-148702733D01*
X98040723Y-148940828D01*
X97993104Y-149131304D01*
X97945485Y-149226542D01*
X97897866Y-149274161D01*
X97802628Y-149321780D01*
X97707390Y-149321780D01*
X97612152Y-149274161D01*
X97564533Y-149226542D01*
X97516914Y-149131304D01*
X97469295Y-148940828D01*
X97469295Y-148702733D01*
X97516914Y-148512257D01*
X97564533Y-148417019D01*
X97612152Y-148369400D01*
X97707390Y-148321780D01*
X98993104Y-149321780D02*
X98421676Y-149321780D01*
X98707390Y-149321780D02*
X98707390Y-148321780D01*
X98612152Y-148464638D01*
X98516914Y-148559876D01*
X98421676Y-148607495D01*
X144657380Y-151574285D02*
X145466904Y-151574285D01*
X145562142Y-151526666D01*
X145609761Y-151479047D01*
X145657380Y-151383809D01*
X145657380Y-151193333D01*
X145609761Y-151098095D01*
X145562142Y-151050476D01*
X145466904Y-151002857D01*
X144657380Y-151002857D01*
X144657380Y-150621904D02*
X144657380Y-150002857D01*
X145038333Y-150336190D01*
X145038333Y-150193333D01*
X145085952Y-150098095D01*
X145133571Y-150050476D01*
X145228809Y-150002857D01*
X145466904Y-150002857D01*
X145562142Y-150050476D01*
X145609761Y-150098095D01*
X145657380Y-150193333D01*
X145657380Y-150479047D01*
X145609761Y-150574285D01*
X145562142Y-150621904D01*
X144657380Y-149383809D02*
X144657380Y-149288571D01*
X144705000Y-149193333D01*
X144752619Y-149145714D01*
X144847857Y-149098095D01*
X145038333Y-149050476D01*
X145276428Y-149050476D01*
X145466904Y-149098095D01*
X145562142Y-149145714D01*
X145609761Y-149193333D01*
X145657380Y-149288571D01*
X145657380Y-149383809D01*
X145609761Y-149479047D01*
X145562142Y-149526666D01*
X145466904Y-149574285D01*
X145276428Y-149621904D01*
X145038333Y-149621904D01*
X144847857Y-149574285D01*
X144752619Y-149526666D01*
X144705000Y-149479047D01*
X144657380Y-149383809D01*
X145657380Y-148098095D02*
X145657380Y-148669523D01*
X145657380Y-148383809D02*
X144657380Y-148383809D01*
X144800238Y-148479047D01*
X144895476Y-148574285D01*
X144943095Y-148669523D01*
X144657380Y-163004285D02*
X145466904Y-163004285D01*
X145562142Y-162956666D01*
X145609761Y-162909047D01*
X145657380Y-162813809D01*
X145657380Y-162623333D01*
X145609761Y-162528095D01*
X145562142Y-162480476D01*
X145466904Y-162432857D01*
X144657380Y-162432857D01*
X144657380Y-162051904D02*
X144657380Y-161432857D01*
X145038333Y-161766190D01*
X145038333Y-161623333D01*
X145085952Y-161528095D01*
X145133571Y-161480476D01*
X145228809Y-161432857D01*
X145466904Y-161432857D01*
X145562142Y-161480476D01*
X145609761Y-161528095D01*
X145657380Y-161623333D01*
X145657380Y-161909047D01*
X145609761Y-162004285D01*
X145562142Y-162051904D01*
X144657380Y-160813809D02*
X144657380Y-160718571D01*
X144705000Y-160623333D01*
X144752619Y-160575714D01*
X144847857Y-160528095D01*
X145038333Y-160480476D01*
X145276428Y-160480476D01*
X145466904Y-160528095D01*
X145562142Y-160575714D01*
X145609761Y-160623333D01*
X145657380Y-160718571D01*
X145657380Y-160813809D01*
X145609761Y-160909047D01*
X145562142Y-160956666D01*
X145466904Y-161004285D01*
X145276428Y-161051904D01*
X145038333Y-161051904D01*
X144847857Y-161004285D01*
X144752619Y-160956666D01*
X144705000Y-160909047D01*
X144657380Y-160813809D01*
X144752619Y-160099523D02*
X144705000Y-160051904D01*
X144657380Y-159956666D01*
X144657380Y-159718571D01*
X144705000Y-159623333D01*
X144752619Y-159575714D01*
X144847857Y-159528095D01*
X144943095Y-159528095D01*
X145085952Y-159575714D01*
X145657380Y-160147142D01*
X145657380Y-159528095D01*
X144657380Y-185864285D02*
X145466904Y-185864285D01*
X145562142Y-185816666D01*
X145609761Y-185769047D01*
X145657380Y-185673809D01*
X145657380Y-185483333D01*
X145609761Y-185388095D01*
X145562142Y-185340476D01*
X145466904Y-185292857D01*
X144657380Y-185292857D01*
X144657380Y-184911904D02*
X144657380Y-184292857D01*
X145038333Y-184626190D01*
X145038333Y-184483333D01*
X145085952Y-184388095D01*
X145133571Y-184340476D01*
X145228809Y-184292857D01*
X145466904Y-184292857D01*
X145562142Y-184340476D01*
X145609761Y-184388095D01*
X145657380Y-184483333D01*
X145657380Y-184769047D01*
X145609761Y-184864285D01*
X145562142Y-184911904D01*
X144657380Y-183673809D02*
X144657380Y-183578571D01*
X144705000Y-183483333D01*
X144752619Y-183435714D01*
X144847857Y-183388095D01*
X145038333Y-183340476D01*
X145276428Y-183340476D01*
X145466904Y-183388095D01*
X145562142Y-183435714D01*
X145609761Y-183483333D01*
X145657380Y-183578571D01*
X145657380Y-183673809D01*
X145609761Y-183769047D01*
X145562142Y-183816666D01*
X145466904Y-183864285D01*
X145276428Y-183911904D01*
X145038333Y-183911904D01*
X144847857Y-183864285D01*
X144752619Y-183816666D01*
X144705000Y-183769047D01*
X144657380Y-183673809D01*
X144990714Y-182483333D02*
X145657380Y-182483333D01*
X144609761Y-182721428D02*
X145324047Y-182959523D01*
X145324047Y-182340476D01*
X144657380Y-208724285D02*
X145466904Y-208724285D01*
X145562142Y-208676666D01*
X145609761Y-208629047D01*
X145657380Y-208533809D01*
X145657380Y-208343333D01*
X145609761Y-208248095D01*
X145562142Y-208200476D01*
X145466904Y-208152857D01*
X144657380Y-208152857D01*
X144657380Y-207771904D02*
X144657380Y-207152857D01*
X145038333Y-207486190D01*
X145038333Y-207343333D01*
X145085952Y-207248095D01*
X145133571Y-207200476D01*
X145228809Y-207152857D01*
X145466904Y-207152857D01*
X145562142Y-207200476D01*
X145609761Y-207248095D01*
X145657380Y-207343333D01*
X145657380Y-207629047D01*
X145609761Y-207724285D01*
X145562142Y-207771904D01*
X144657380Y-206533809D02*
X144657380Y-206438571D01*
X144705000Y-206343333D01*
X144752619Y-206295714D01*
X144847857Y-206248095D01*
X145038333Y-206200476D01*
X145276428Y-206200476D01*
X145466904Y-206248095D01*
X145562142Y-206295714D01*
X145609761Y-206343333D01*
X145657380Y-206438571D01*
X145657380Y-206533809D01*
X145609761Y-206629047D01*
X145562142Y-206676666D01*
X145466904Y-206724285D01*
X145276428Y-206771904D01*
X145038333Y-206771904D01*
X144847857Y-206724285D01*
X144752619Y-206676666D01*
X144705000Y-206629047D01*
X144657380Y-206533809D01*
X144657380Y-205343333D02*
X144657380Y-205533809D01*
X144705000Y-205629047D01*
X144752619Y-205676666D01*
X144895476Y-205771904D01*
X145085952Y-205819523D01*
X145466904Y-205819523D01*
X145562142Y-205771904D01*
X145609761Y-205724285D01*
X145657380Y-205629047D01*
X145657380Y-205438571D01*
X145609761Y-205343333D01*
X145562142Y-205295714D01*
X145466904Y-205248095D01*
X145228809Y-205248095D01*
X145133571Y-205295714D01*
X145085952Y-205343333D01*
X145038333Y-205438571D01*
X145038333Y-205629047D01*
X145085952Y-205724285D01*
X145133571Y-205771904D01*
X145228809Y-205819523D01*
X123382380Y-231984285D02*
X122382380Y-231984285D01*
X122858571Y-231984285D02*
X122858571Y-231412857D01*
X123382380Y-231412857D02*
X122382380Y-231412857D01*
X123382380Y-230936666D02*
X122382380Y-230936666D01*
X122382380Y-230698571D01*
X122430000Y-230555714D01*
X122525238Y-230460476D01*
X122620476Y-230412857D01*
X122810952Y-230365238D01*
X122953809Y-230365238D01*
X123144285Y-230412857D01*
X123239523Y-230460476D01*
X123334761Y-230555714D01*
X123382380Y-230698571D01*
X123382380Y-230936666D01*
X123382380Y-229365238D02*
X122906190Y-229698571D01*
X123382380Y-229936666D02*
X122382380Y-229936666D01*
X122382380Y-229555714D01*
X122430000Y-229460476D01*
X122477619Y-229412857D01*
X122572857Y-229365238D01*
X122715714Y-229365238D01*
X122810952Y-229412857D01*
X122858571Y-229460476D01*
X122906190Y-229555714D01*
X122906190Y-229936666D01*
X123382380Y-228412857D02*
X123382380Y-228984285D01*
X123382380Y-228698571D02*
X122382380Y-228698571D01*
X122525238Y-228793809D01*
X122620476Y-228889047D01*
X122668095Y-228984285D01*
X122382380Y-227793809D02*
X122382380Y-227698571D01*
X122430000Y-227603333D01*
X122477619Y-227555714D01*
X122572857Y-227508095D01*
X122763333Y-227460476D01*
X123001428Y-227460476D01*
X123191904Y-227508095D01*
X123287142Y-227555714D01*
X123334761Y-227603333D01*
X123382380Y-227698571D01*
X123382380Y-227793809D01*
X123334761Y-227889047D01*
X123287142Y-227936666D01*
X123191904Y-227984285D01*
X123001428Y-228031904D01*
X122763333Y-228031904D01*
X122572857Y-227984285D01*
X122477619Y-227936666D01*
X122430000Y-227889047D01*
X122382380Y-227793809D01*
X122477619Y-227079523D02*
X122430000Y-227031904D01*
X122382380Y-226936666D01*
X122382380Y-226698571D01*
X122430000Y-226603333D01*
X122477619Y-226555714D01*
X122572857Y-226508095D01*
X122668095Y-226508095D01*
X122810952Y-226555714D01*
X123382380Y-227127142D01*
X123382380Y-226508095D01*
X128254285Y-142962380D02*
X128254285Y-143676666D01*
X128206666Y-143819523D01*
X128111428Y-143914761D01*
X127968571Y-143962380D01*
X127873333Y-143962380D01*
X129254285Y-143962380D02*
X128682857Y-143962380D01*
X128968571Y-143962380D02*
X128968571Y-142962380D01*
X128873333Y-143105238D01*
X128778095Y-143200476D01*
X128682857Y-143248095D01*
X129873333Y-142962380D02*
X129968571Y-142962380D01*
X130063809Y-143010000D01*
X130111428Y-143057619D01*
X130159047Y-143152857D01*
X130206666Y-143343333D01*
X130206666Y-143581428D01*
X130159047Y-143771904D01*
X130111428Y-143867142D01*
X130063809Y-143914761D01*
X129968571Y-143962380D01*
X129873333Y-143962380D01*
X129778095Y-143914761D01*
X129730476Y-143867142D01*
X129682857Y-143771904D01*
X129635238Y-143581428D01*
X129635238Y-143343333D01*
X129682857Y-143152857D01*
X129730476Y-143057619D01*
X129778095Y-143010000D01*
X129873333Y-142962380D01*
X131159047Y-143962380D02*
X130587619Y-143962380D01*
X130873333Y-143962380D02*
X130873333Y-142962380D01*
X130778095Y-143105238D01*
X130682857Y-143200476D01*
X130587619Y-143248095D01*
X144657380Y-174434285D02*
X145466904Y-174434285D01*
X145562142Y-174386666D01*
X145609761Y-174339047D01*
X145657380Y-174243809D01*
X145657380Y-174053333D01*
X145609761Y-173958095D01*
X145562142Y-173910476D01*
X145466904Y-173862857D01*
X144657380Y-173862857D01*
X144657380Y-173481904D02*
X144657380Y-172862857D01*
X145038333Y-173196190D01*
X145038333Y-173053333D01*
X145085952Y-172958095D01*
X145133571Y-172910476D01*
X145228809Y-172862857D01*
X145466904Y-172862857D01*
X145562142Y-172910476D01*
X145609761Y-172958095D01*
X145657380Y-173053333D01*
X145657380Y-173339047D01*
X145609761Y-173434285D01*
X145562142Y-173481904D01*
X144657380Y-172243809D02*
X144657380Y-172148571D01*
X144705000Y-172053333D01*
X144752619Y-172005714D01*
X144847857Y-171958095D01*
X145038333Y-171910476D01*
X145276428Y-171910476D01*
X145466904Y-171958095D01*
X145562142Y-172005714D01*
X145609761Y-172053333D01*
X145657380Y-172148571D01*
X145657380Y-172243809D01*
X145609761Y-172339047D01*
X145562142Y-172386666D01*
X145466904Y-172434285D01*
X145276428Y-172481904D01*
X145038333Y-172481904D01*
X144847857Y-172434285D01*
X144752619Y-172386666D01*
X144705000Y-172339047D01*
X144657380Y-172243809D01*
X144657380Y-171577142D02*
X144657380Y-170958095D01*
X145038333Y-171291428D01*
X145038333Y-171148571D01*
X145085952Y-171053333D01*
X145133571Y-171005714D01*
X145228809Y-170958095D01*
X145466904Y-170958095D01*
X145562142Y-171005714D01*
X145609761Y-171053333D01*
X145657380Y-171148571D01*
X145657380Y-171434285D01*
X145609761Y-171529523D01*
X145562142Y-171577142D01*
X144657380Y-197294285D02*
X145466904Y-197294285D01*
X145562142Y-197246666D01*
X145609761Y-197199047D01*
X145657380Y-197103809D01*
X145657380Y-196913333D01*
X145609761Y-196818095D01*
X145562142Y-196770476D01*
X145466904Y-196722857D01*
X144657380Y-196722857D01*
X144657380Y-196341904D02*
X144657380Y-195722857D01*
X145038333Y-196056190D01*
X145038333Y-195913333D01*
X145085952Y-195818095D01*
X145133571Y-195770476D01*
X145228809Y-195722857D01*
X145466904Y-195722857D01*
X145562142Y-195770476D01*
X145609761Y-195818095D01*
X145657380Y-195913333D01*
X145657380Y-196199047D01*
X145609761Y-196294285D01*
X145562142Y-196341904D01*
X144657380Y-195103809D02*
X144657380Y-195008571D01*
X144705000Y-194913333D01*
X144752619Y-194865714D01*
X144847857Y-194818095D01*
X145038333Y-194770476D01*
X145276428Y-194770476D01*
X145466904Y-194818095D01*
X145562142Y-194865714D01*
X145609761Y-194913333D01*
X145657380Y-195008571D01*
X145657380Y-195103809D01*
X145609761Y-195199047D01*
X145562142Y-195246666D01*
X145466904Y-195294285D01*
X145276428Y-195341904D01*
X145038333Y-195341904D01*
X144847857Y-195294285D01*
X144752619Y-195246666D01*
X144705000Y-195199047D01*
X144657380Y-195103809D01*
X144657380Y-193865714D02*
X144657380Y-194341904D01*
X145133571Y-194389523D01*
X145085952Y-194341904D01*
X145038333Y-194246666D01*
X145038333Y-194008571D01*
X145085952Y-193913333D01*
X145133571Y-193865714D01*
X145228809Y-193818095D01*
X145466904Y-193818095D01*
X145562142Y-193865714D01*
X145609761Y-193913333D01*
X145657380Y-194008571D01*
X145657380Y-194246666D01*
X145609761Y-194341904D01*
X145562142Y-194389523D01*
X70004380Y-142414285D02*
X69004380Y-142414285D01*
X69480571Y-142414285D02*
X69480571Y-141842857D01*
X70004380Y-141842857D02*
X69004380Y-141842857D01*
X70004380Y-141366666D02*
X69004380Y-141366666D01*
X69004380Y-141128571D01*
X69052000Y-140985714D01*
X69147238Y-140890476D01*
X69242476Y-140842857D01*
X69432952Y-140795238D01*
X69575809Y-140795238D01*
X69766285Y-140842857D01*
X69861523Y-140890476D01*
X69956761Y-140985714D01*
X70004380Y-141128571D01*
X70004380Y-141366666D01*
X70004380Y-139795238D02*
X69528190Y-140128571D01*
X70004380Y-140366666D02*
X69004380Y-140366666D01*
X69004380Y-139985714D01*
X69052000Y-139890476D01*
X69099619Y-139842857D01*
X69194857Y-139795238D01*
X69337714Y-139795238D01*
X69432952Y-139842857D01*
X69480571Y-139890476D01*
X69528190Y-139985714D01*
X69528190Y-140366666D01*
X70004380Y-138842857D02*
X70004380Y-139414285D01*
X70004380Y-139128571D02*
X69004380Y-139128571D01*
X69147238Y-139223809D01*
X69242476Y-139319047D01*
X69290095Y-139414285D01*
X69004380Y-138223809D02*
X69004380Y-138128571D01*
X69052000Y-138033333D01*
X69099619Y-137985714D01*
X69194857Y-137938095D01*
X69385333Y-137890476D01*
X69623428Y-137890476D01*
X69813904Y-137938095D01*
X69909142Y-137985714D01*
X69956761Y-138033333D01*
X70004380Y-138128571D01*
X70004380Y-138223809D01*
X69956761Y-138319047D01*
X69909142Y-138366666D01*
X69813904Y-138414285D01*
X69623428Y-138461904D01*
X69385333Y-138461904D01*
X69194857Y-138414285D01*
X69099619Y-138366666D01*
X69052000Y-138319047D01*
X69004380Y-138223809D01*
X70004380Y-136938095D02*
X70004380Y-137509523D01*
X70004380Y-137223809D02*
X69004380Y-137223809D01*
X69147238Y-137319047D01*
X69242476Y-137414285D01*
X69290095Y-137509523D01*
X51554285Y-223992380D02*
X51554285Y-224706666D01*
X51506666Y-224849523D01*
X51411428Y-224944761D01*
X51268571Y-224992380D01*
X51173333Y-224992380D01*
X51982857Y-224087619D02*
X52030476Y-224040000D01*
X52125714Y-223992380D01*
X52363809Y-223992380D01*
X52459047Y-224040000D01*
X52506666Y-224087619D01*
X52554285Y-224182857D01*
X52554285Y-224278095D01*
X52506666Y-224420952D01*
X51935238Y-224992380D01*
X52554285Y-224992380D01*
X53173333Y-223992380D02*
X53268571Y-223992380D01*
X53363809Y-224040000D01*
X53411428Y-224087619D01*
X53459047Y-224182857D01*
X53506666Y-224373333D01*
X53506666Y-224611428D01*
X53459047Y-224801904D01*
X53411428Y-224897142D01*
X53363809Y-224944761D01*
X53268571Y-224992380D01*
X53173333Y-224992380D01*
X53078095Y-224944761D01*
X53030476Y-224897142D01*
X52982857Y-224801904D01*
X52935238Y-224611428D01*
X52935238Y-224373333D01*
X52982857Y-224182857D01*
X53030476Y-224087619D01*
X53078095Y-224040000D01*
X53173333Y-223992380D01*
X53840000Y-223992380D02*
X54506666Y-223992380D01*
X54078095Y-224992380D01*
X81684952Y-206224542D02*
X81637333Y-206272161D01*
X81494476Y-206319780D01*
X81399238Y-206319780D01*
X81256380Y-206272161D01*
X81161142Y-206176923D01*
X81113523Y-206081685D01*
X81065904Y-205891209D01*
X81065904Y-205748352D01*
X81113523Y-205557876D01*
X81161142Y-205462638D01*
X81256380Y-205367400D01*
X81399238Y-205319780D01*
X81494476Y-205319780D01*
X81637333Y-205367400D01*
X81684952Y-205415019D01*
X82065904Y-205415019D02*
X82113523Y-205367400D01*
X82208761Y-205319780D01*
X82446857Y-205319780D01*
X82542095Y-205367400D01*
X82589714Y-205415019D01*
X82637333Y-205510257D01*
X82637333Y-205605495D01*
X82589714Y-205748352D01*
X82018285Y-206319780D01*
X82637333Y-206319780D01*
X83256380Y-205319780D02*
X83351619Y-205319780D01*
X83446857Y-205367400D01*
X83494476Y-205415019D01*
X83542095Y-205510257D01*
X83589714Y-205700733D01*
X83589714Y-205938828D01*
X83542095Y-206129304D01*
X83494476Y-206224542D01*
X83446857Y-206272161D01*
X83351619Y-206319780D01*
X83256380Y-206319780D01*
X83161142Y-206272161D01*
X83113523Y-206224542D01*
X83065904Y-206129304D01*
X83018285Y-205938828D01*
X83018285Y-205700733D01*
X83065904Y-205510257D01*
X83113523Y-205415019D01*
X83161142Y-205367400D01*
X83256380Y-205319780D01*
X84065904Y-206319780D02*
X84256380Y-206319780D01*
X84351619Y-206272161D01*
X84399238Y-206224542D01*
X84494476Y-206081685D01*
X84542095Y-205891209D01*
X84542095Y-205510257D01*
X84494476Y-205415019D01*
X84446857Y-205367400D01*
X84351619Y-205319780D01*
X84161142Y-205319780D01*
X84065904Y-205367400D01*
X84018285Y-205415019D01*
X83970666Y-205510257D01*
X83970666Y-205748352D01*
X84018285Y-205843590D01*
X84065904Y-205891209D01*
X84161142Y-205938828D01*
X84351619Y-205938828D01*
X84446857Y-205891209D01*
X84494476Y-205843590D01*
X84542095Y-205748352D01*
X66230714Y-148252380D02*
X66230714Y-149061904D01*
X66278333Y-149157142D01*
X66325952Y-149204761D01*
X66421190Y-149252380D01*
X66611666Y-149252380D01*
X66706904Y-149204761D01*
X66754523Y-149157142D01*
X66802142Y-149061904D01*
X66802142Y-148252380D01*
X67802142Y-149252380D02*
X67230714Y-149252380D01*
X67516428Y-149252380D02*
X67516428Y-148252380D01*
X67421190Y-148395238D01*
X67325952Y-148490476D01*
X67230714Y-148538095D01*
X68421190Y-148252380D02*
X68516428Y-148252380D01*
X68611666Y-148300000D01*
X68659285Y-148347619D01*
X68706904Y-148442857D01*
X68754523Y-148633333D01*
X68754523Y-148871428D01*
X68706904Y-149061904D01*
X68659285Y-149157142D01*
X68611666Y-149204761D01*
X68516428Y-149252380D01*
X68421190Y-149252380D01*
X68325952Y-149204761D01*
X68278333Y-149157142D01*
X68230714Y-149061904D01*
X68183095Y-148871428D01*
X68183095Y-148633333D01*
X68230714Y-148442857D01*
X68278333Y-148347619D01*
X68325952Y-148300000D01*
X68421190Y-148252380D01*
X69706904Y-149252380D02*
X69135476Y-149252380D01*
X69421190Y-149252380D02*
X69421190Y-148252380D01*
X69325952Y-148395238D01*
X69230714Y-148490476D01*
X69135476Y-148538095D01*
X109224380Y-220433685D02*
X110033904Y-220433685D01*
X110129142Y-220386066D01*
X110176761Y-220338447D01*
X110224380Y-220243209D01*
X110224380Y-220052733D01*
X110176761Y-219957495D01*
X110129142Y-219909876D01*
X110033904Y-219862257D01*
X109224380Y-219862257D01*
X109319619Y-219433685D02*
X109272000Y-219386066D01*
X109224380Y-219290828D01*
X109224380Y-219052733D01*
X109272000Y-218957495D01*
X109319619Y-218909876D01*
X109414857Y-218862257D01*
X109510095Y-218862257D01*
X109652952Y-218909876D01*
X110224380Y-219481304D01*
X110224380Y-218862257D01*
X109224380Y-218243209D02*
X109224380Y-218147971D01*
X109272000Y-218052733D01*
X109319619Y-218005114D01*
X109414857Y-217957495D01*
X109605333Y-217909876D01*
X109843428Y-217909876D01*
X110033904Y-217957495D01*
X110129142Y-218005114D01*
X110176761Y-218052733D01*
X110224380Y-218147971D01*
X110224380Y-218243209D01*
X110176761Y-218338447D01*
X110129142Y-218386066D01*
X110033904Y-218433685D01*
X109843428Y-218481304D01*
X109605333Y-218481304D01*
X109414857Y-218433685D01*
X109319619Y-218386066D01*
X109272000Y-218338447D01*
X109224380Y-218243209D01*
X109224380Y-217576542D02*
X109224380Y-216957495D01*
X109605333Y-217290828D01*
X109605333Y-217147971D01*
X109652952Y-217052733D01*
X109700571Y-217005114D01*
X109795809Y-216957495D01*
X110033904Y-216957495D01*
X110129142Y-217005114D01*
X110176761Y-217052733D01*
X110224380Y-217147971D01*
X110224380Y-217433685D01*
X110176761Y-217528923D01*
X110129142Y-217576542D01*
X50276285Y-175797780D02*
X50276285Y-176512066D01*
X50228666Y-176654923D01*
X50133428Y-176750161D01*
X49990571Y-176797780D01*
X49895333Y-176797780D01*
X51181047Y-176131114D02*
X51181047Y-176797780D01*
X50942952Y-175750161D02*
X50704857Y-176464447D01*
X51323904Y-176464447D01*
X51895333Y-175797780D02*
X51990571Y-175797780D01*
X52085809Y-175845400D01*
X52133428Y-175893019D01*
X52181047Y-175988257D01*
X52228666Y-176178733D01*
X52228666Y-176416828D01*
X52181047Y-176607304D01*
X52133428Y-176702542D01*
X52085809Y-176750161D01*
X51990571Y-176797780D01*
X51895333Y-176797780D01*
X51800095Y-176750161D01*
X51752476Y-176702542D01*
X51704857Y-176607304D01*
X51657238Y-176416828D01*
X51657238Y-176178733D01*
X51704857Y-175988257D01*
X51752476Y-175893019D01*
X51800095Y-175845400D01*
X51895333Y-175797780D01*
X53181047Y-176797780D02*
X52609619Y-176797780D01*
X52895333Y-176797780D02*
X52895333Y-175797780D01*
X52800095Y-175940638D01*
X52704857Y-176035876D01*
X52609619Y-176083495D01*
X123387142Y-217806447D02*
X123434761Y-217854066D01*
X123482380Y-217996923D01*
X123482380Y-218092161D01*
X123434761Y-218235019D01*
X123339523Y-218330257D01*
X123244285Y-218377876D01*
X123053809Y-218425495D01*
X122910952Y-218425495D01*
X122720476Y-218377876D01*
X122625238Y-218330257D01*
X122530000Y-218235019D01*
X122482380Y-218092161D01*
X122482380Y-217996923D01*
X122530000Y-217854066D01*
X122577619Y-217806447D01*
X122577619Y-217425495D02*
X122530000Y-217377876D01*
X122482380Y-217282638D01*
X122482380Y-217044542D01*
X122530000Y-216949304D01*
X122577619Y-216901685D01*
X122672857Y-216854066D01*
X122768095Y-216854066D01*
X122910952Y-216901685D01*
X123482380Y-217473114D01*
X123482380Y-216854066D01*
X122482380Y-216235019D02*
X122482380Y-216139780D01*
X122530000Y-216044542D01*
X122577619Y-215996923D01*
X122672857Y-215949304D01*
X122863333Y-215901685D01*
X123101428Y-215901685D01*
X123291904Y-215949304D01*
X123387142Y-215996923D01*
X123434761Y-216044542D01*
X123482380Y-216139780D01*
X123482380Y-216235019D01*
X123434761Y-216330257D01*
X123387142Y-216377876D01*
X123291904Y-216425495D01*
X123101428Y-216473114D01*
X122863333Y-216473114D01*
X122672857Y-216425495D01*
X122577619Y-216377876D01*
X122530000Y-216330257D01*
X122482380Y-216235019D01*
X122482380Y-215568352D02*
X122482380Y-214949304D01*
X122863333Y-215282638D01*
X122863333Y-215139780D01*
X122910952Y-215044542D01*
X122958571Y-214996923D01*
X123053809Y-214949304D01*
X123291904Y-214949304D01*
X123387142Y-214996923D01*
X123434761Y-215044542D01*
X123482380Y-215139780D01*
X123482380Y-215425495D01*
X123434761Y-215520733D01*
X123387142Y-215568352D01*
X72693352Y-202102980D02*
X72360019Y-201626790D01*
X72121923Y-202102980D02*
X72121923Y-201102980D01*
X72502876Y-201102980D01*
X72598114Y-201150600D01*
X72645733Y-201198219D01*
X72693352Y-201293457D01*
X72693352Y-201436314D01*
X72645733Y-201531552D01*
X72598114Y-201579171D01*
X72502876Y-201626790D01*
X72121923Y-201626790D01*
X73074304Y-201198219D02*
X73121923Y-201150600D01*
X73217161Y-201102980D01*
X73455257Y-201102980D01*
X73550495Y-201150600D01*
X73598114Y-201198219D01*
X73645733Y-201293457D01*
X73645733Y-201388695D01*
X73598114Y-201531552D01*
X73026685Y-202102980D01*
X73645733Y-202102980D01*
X74026685Y-201198219D02*
X74074304Y-201150600D01*
X74169542Y-201102980D01*
X74407638Y-201102980D01*
X74502876Y-201150600D01*
X74550495Y-201198219D01*
X74598114Y-201293457D01*
X74598114Y-201388695D01*
X74550495Y-201531552D01*
X73979066Y-202102980D01*
X74598114Y-202102980D01*
X75455257Y-201102980D02*
X75264780Y-201102980D01*
X75169542Y-201150600D01*
X75121923Y-201198219D01*
X75026685Y-201341076D01*
X74979066Y-201531552D01*
X74979066Y-201912504D01*
X75026685Y-202007742D01*
X75074304Y-202055361D01*
X75169542Y-202102980D01*
X75360019Y-202102980D01*
X75455257Y-202055361D01*
X75502876Y-202007742D01*
X75550495Y-201912504D01*
X75550495Y-201674409D01*
X75502876Y-201579171D01*
X75455257Y-201531552D01*
X75360019Y-201483933D01*
X75169542Y-201483933D01*
X75074304Y-201531552D01*
X75026685Y-201579171D01*
X74979066Y-201674409D01*
X74166552Y-224124780D02*
X73833219Y-223648590D01*
X73595123Y-224124780D02*
X73595123Y-223124780D01*
X73976076Y-223124780D01*
X74071314Y-223172400D01*
X74118933Y-223220019D01*
X74166552Y-223315257D01*
X74166552Y-223458114D01*
X74118933Y-223553352D01*
X74071314Y-223600971D01*
X73976076Y-223648590D01*
X73595123Y-223648590D01*
X74547504Y-223220019D02*
X74595123Y-223172400D01*
X74690361Y-223124780D01*
X74928457Y-223124780D01*
X75023695Y-223172400D01*
X75071314Y-223220019D01*
X75118933Y-223315257D01*
X75118933Y-223410495D01*
X75071314Y-223553352D01*
X74499885Y-224124780D01*
X75118933Y-224124780D01*
X75499885Y-223220019D02*
X75547504Y-223172400D01*
X75642742Y-223124780D01*
X75880838Y-223124780D01*
X75976076Y-223172400D01*
X76023695Y-223220019D01*
X76071314Y-223315257D01*
X76071314Y-223410495D01*
X76023695Y-223553352D01*
X75452266Y-224124780D01*
X76071314Y-224124780D01*
X76404647Y-223124780D02*
X77071314Y-223124780D01*
X76642742Y-224124780D01*
X72794952Y-207995780D02*
X72461619Y-207519590D01*
X72223523Y-207995780D02*
X72223523Y-206995780D01*
X72604476Y-206995780D01*
X72699714Y-207043400D01*
X72747333Y-207091019D01*
X72794952Y-207186257D01*
X72794952Y-207329114D01*
X72747333Y-207424352D01*
X72699714Y-207471971D01*
X72604476Y-207519590D01*
X72223523Y-207519590D01*
X73175904Y-207091019D02*
X73223523Y-207043400D01*
X73318761Y-206995780D01*
X73556857Y-206995780D01*
X73652095Y-207043400D01*
X73699714Y-207091019D01*
X73747333Y-207186257D01*
X73747333Y-207281495D01*
X73699714Y-207424352D01*
X73128285Y-207995780D01*
X73747333Y-207995780D01*
X74128285Y-207091019D02*
X74175904Y-207043400D01*
X74271142Y-206995780D01*
X74509238Y-206995780D01*
X74604476Y-207043400D01*
X74652095Y-207091019D01*
X74699714Y-207186257D01*
X74699714Y-207281495D01*
X74652095Y-207424352D01*
X74080666Y-207995780D01*
X74699714Y-207995780D01*
X75271142Y-207424352D02*
X75175904Y-207376733D01*
X75128285Y-207329114D01*
X75080666Y-207233876D01*
X75080666Y-207186257D01*
X75128285Y-207091019D01*
X75175904Y-207043400D01*
X75271142Y-206995780D01*
X75461619Y-206995780D01*
X75556857Y-207043400D01*
X75604476Y-207091019D01*
X75652095Y-207186257D01*
X75652095Y-207233876D01*
X75604476Y-207329114D01*
X75556857Y-207376733D01*
X75461619Y-207424352D01*
X75271142Y-207424352D01*
X75175904Y-207471971D01*
X75128285Y-207519590D01*
X75080666Y-207614828D01*
X75080666Y-207805304D01*
X75128285Y-207900542D01*
X75175904Y-207948161D01*
X75271142Y-207995780D01*
X75461619Y-207995780D01*
X75556857Y-207948161D01*
X75604476Y-207900542D01*
X75652095Y-207805304D01*
X75652095Y-207614828D01*
X75604476Y-207519590D01*
X75556857Y-207471971D01*
X75461619Y-207424352D01*
X75004752Y-222295980D02*
X74671419Y-221819790D01*
X74433323Y-222295980D02*
X74433323Y-221295980D01*
X74814276Y-221295980D01*
X74909514Y-221343600D01*
X74957133Y-221391219D01*
X75004752Y-221486457D01*
X75004752Y-221629314D01*
X74957133Y-221724552D01*
X74909514Y-221772171D01*
X74814276Y-221819790D01*
X74433323Y-221819790D01*
X75385704Y-221391219D02*
X75433323Y-221343600D01*
X75528561Y-221295980D01*
X75766657Y-221295980D01*
X75861895Y-221343600D01*
X75909514Y-221391219D01*
X75957133Y-221486457D01*
X75957133Y-221581695D01*
X75909514Y-221724552D01*
X75338085Y-222295980D01*
X75957133Y-222295980D01*
X76338085Y-221391219D02*
X76385704Y-221343600D01*
X76480942Y-221295980D01*
X76719038Y-221295980D01*
X76814276Y-221343600D01*
X76861895Y-221391219D01*
X76909514Y-221486457D01*
X76909514Y-221581695D01*
X76861895Y-221724552D01*
X76290466Y-222295980D01*
X76909514Y-222295980D01*
X77385704Y-222295980D02*
X77576180Y-222295980D01*
X77671419Y-222248361D01*
X77719038Y-222200742D01*
X77814276Y-222057885D01*
X77861895Y-221867409D01*
X77861895Y-221486457D01*
X77814276Y-221391219D01*
X77766657Y-221343600D01*
X77671419Y-221295980D01*
X77480942Y-221295980D01*
X77385704Y-221343600D01*
X77338085Y-221391219D01*
X77290466Y-221486457D01*
X77290466Y-221724552D01*
X77338085Y-221819790D01*
X77385704Y-221867409D01*
X77480942Y-221915028D01*
X77671419Y-221915028D01*
X77766657Y-221867409D01*
X77814276Y-221819790D01*
X77861895Y-221724552D01*
X75258752Y-219755980D02*
X74925419Y-219279790D01*
X74687323Y-219755980D02*
X74687323Y-218755980D01*
X75068276Y-218755980D01*
X75163514Y-218803600D01*
X75211133Y-218851219D01*
X75258752Y-218946457D01*
X75258752Y-219089314D01*
X75211133Y-219184552D01*
X75163514Y-219232171D01*
X75068276Y-219279790D01*
X74687323Y-219279790D01*
X75639704Y-218851219D02*
X75687323Y-218803600D01*
X75782561Y-218755980D01*
X76020657Y-218755980D01*
X76115895Y-218803600D01*
X76163514Y-218851219D01*
X76211133Y-218946457D01*
X76211133Y-219041695D01*
X76163514Y-219184552D01*
X75592085Y-219755980D01*
X76211133Y-219755980D01*
X76544466Y-218755980D02*
X77163514Y-218755980D01*
X76830180Y-219136933D01*
X76973038Y-219136933D01*
X77068276Y-219184552D01*
X77115895Y-219232171D01*
X77163514Y-219327409D01*
X77163514Y-219565504D01*
X77115895Y-219660742D01*
X77068276Y-219708361D01*
X76973038Y-219755980D01*
X76687323Y-219755980D01*
X76592085Y-219708361D01*
X76544466Y-219660742D01*
X78115895Y-219755980D02*
X77544466Y-219755980D01*
X77830180Y-219755980D02*
X77830180Y-218755980D01*
X77734942Y-218898838D01*
X77639704Y-218994076D01*
X77544466Y-219041695D01*
X82867714Y-148277780D02*
X82867714Y-149087304D01*
X82915333Y-149182542D01*
X82962952Y-149230161D01*
X83058190Y-149277780D01*
X83248666Y-149277780D01*
X83343904Y-149230161D01*
X83391523Y-149182542D01*
X83439142Y-149087304D01*
X83439142Y-148277780D01*
X84343904Y-148611114D02*
X84343904Y-149277780D01*
X84105809Y-148230161D02*
X83867714Y-148944447D01*
X84486761Y-148944447D01*
X85058190Y-148277780D02*
X85153428Y-148277780D01*
X85248666Y-148325400D01*
X85296285Y-148373019D01*
X85343904Y-148468257D01*
X85391523Y-148658733D01*
X85391523Y-148896828D01*
X85343904Y-149087304D01*
X85296285Y-149182542D01*
X85248666Y-149230161D01*
X85153428Y-149277780D01*
X85058190Y-149277780D01*
X84962952Y-149230161D01*
X84915333Y-149182542D01*
X84867714Y-149087304D01*
X84820095Y-148896828D01*
X84820095Y-148658733D01*
X84867714Y-148468257D01*
X84915333Y-148373019D01*
X84962952Y-148325400D01*
X85058190Y-148277780D01*
X86343904Y-149277780D02*
X85772476Y-149277780D01*
X86058190Y-149277780D02*
X86058190Y-148277780D01*
X85962952Y-148420638D01*
X85867714Y-148515876D01*
X85772476Y-148563495D01*
X140572952Y-213594542D02*
X140525333Y-213642161D01*
X140382476Y-213689780D01*
X140287238Y-213689780D01*
X140144380Y-213642161D01*
X140049142Y-213546923D01*
X140001523Y-213451685D01*
X139953904Y-213261209D01*
X139953904Y-213118352D01*
X140001523Y-212927876D01*
X140049142Y-212832638D01*
X140144380Y-212737400D01*
X140287238Y-212689780D01*
X140382476Y-212689780D01*
X140525333Y-212737400D01*
X140572952Y-212785019D01*
X140953904Y-212785019D02*
X141001523Y-212737400D01*
X141096761Y-212689780D01*
X141334857Y-212689780D01*
X141430095Y-212737400D01*
X141477714Y-212785019D01*
X141525333Y-212880257D01*
X141525333Y-212975495D01*
X141477714Y-213118352D01*
X140906285Y-213689780D01*
X141525333Y-213689780D01*
X142144380Y-212689780D02*
X142239619Y-212689780D01*
X142334857Y-212737400D01*
X142382476Y-212785019D01*
X142430095Y-212880257D01*
X142477714Y-213070733D01*
X142477714Y-213308828D01*
X142430095Y-213499304D01*
X142382476Y-213594542D01*
X142334857Y-213642161D01*
X142239619Y-213689780D01*
X142144380Y-213689780D01*
X142049142Y-213642161D01*
X142001523Y-213594542D01*
X141953904Y-213499304D01*
X141906285Y-213308828D01*
X141906285Y-213070733D01*
X141953904Y-212880257D01*
X142001523Y-212785019D01*
X142049142Y-212737400D01*
X142144380Y-212689780D01*
X143334857Y-213023114D02*
X143334857Y-213689780D01*
X143096761Y-212642161D02*
X142858666Y-213356447D01*
X143477714Y-213356447D01*
X123387142Y-224156447D02*
X123434761Y-224204066D01*
X123482380Y-224346923D01*
X123482380Y-224442161D01*
X123434761Y-224585019D01*
X123339523Y-224680257D01*
X123244285Y-224727876D01*
X123053809Y-224775495D01*
X122910952Y-224775495D01*
X122720476Y-224727876D01*
X122625238Y-224680257D01*
X122530000Y-224585019D01*
X122482380Y-224442161D01*
X122482380Y-224346923D01*
X122530000Y-224204066D01*
X122577619Y-224156447D01*
X122815714Y-223299304D02*
X123482380Y-223299304D01*
X122434761Y-223537400D02*
X123149047Y-223775495D01*
X123149047Y-223156447D01*
X122482380Y-222585019D02*
X122482380Y-222489780D01*
X122530000Y-222394542D01*
X122577619Y-222346923D01*
X122672857Y-222299304D01*
X122863333Y-222251685D01*
X123101428Y-222251685D01*
X123291904Y-222299304D01*
X123387142Y-222346923D01*
X123434761Y-222394542D01*
X123482380Y-222489780D01*
X123482380Y-222585019D01*
X123434761Y-222680257D01*
X123387142Y-222727876D01*
X123291904Y-222775495D01*
X123101428Y-222823114D01*
X122863333Y-222823114D01*
X122672857Y-222775495D01*
X122577619Y-222727876D01*
X122530000Y-222680257D01*
X122482380Y-222585019D01*
X122815714Y-221394542D02*
X123482380Y-221394542D01*
X122434761Y-221632638D02*
X123149047Y-221870733D01*
X123149047Y-221251685D01*
X145035542Y-228880847D02*
X145083161Y-228928466D01*
X145130780Y-229071323D01*
X145130780Y-229166561D01*
X145083161Y-229309419D01*
X144987923Y-229404657D01*
X144892685Y-229452276D01*
X144702209Y-229499895D01*
X144559352Y-229499895D01*
X144368876Y-229452276D01*
X144273638Y-229404657D01*
X144178400Y-229309419D01*
X144130780Y-229166561D01*
X144130780Y-229071323D01*
X144178400Y-228928466D01*
X144226019Y-228880847D01*
X144464114Y-228023704D02*
X145130780Y-228023704D01*
X144083161Y-228261800D02*
X144797447Y-228499895D01*
X144797447Y-227880847D01*
X144130780Y-227309419D02*
X144130780Y-227214180D01*
X144178400Y-227118942D01*
X144226019Y-227071323D01*
X144321257Y-227023704D01*
X144511733Y-226976085D01*
X144749828Y-226976085D01*
X144940304Y-227023704D01*
X145035542Y-227071323D01*
X145083161Y-227118942D01*
X145130780Y-227214180D01*
X145130780Y-227309419D01*
X145083161Y-227404657D01*
X145035542Y-227452276D01*
X144940304Y-227499895D01*
X144749828Y-227547514D01*
X144511733Y-227547514D01*
X144321257Y-227499895D01*
X144226019Y-227452276D01*
X144178400Y-227404657D01*
X144130780Y-227309419D01*
X144130780Y-226071323D02*
X144130780Y-226547514D01*
X144606971Y-226595133D01*
X144559352Y-226547514D01*
X144511733Y-226452276D01*
X144511733Y-226214180D01*
X144559352Y-226118942D01*
X144606971Y-226071323D01*
X144702209Y-226023704D01*
X144940304Y-226023704D01*
X145035542Y-226071323D01*
X145083161Y-226118942D01*
X145130780Y-226214180D01*
X145130780Y-226452276D01*
X145083161Y-226547514D01*
X145035542Y-226595133D01*
X113330228Y-143339390D02*
X113330228Y-143815580D01*
X112996895Y-142815580D02*
X113330228Y-143339390D01*
X113663561Y-142815580D01*
X113949276Y-142910819D02*
X113996895Y-142863200D01*
X114092133Y-142815580D01*
X114330228Y-142815580D01*
X114425466Y-142863200D01*
X114473085Y-142910819D01*
X114520704Y-143006057D01*
X114520704Y-143101295D01*
X114473085Y-143244152D01*
X113901657Y-143815580D01*
X114520704Y-143815580D01*
X115139752Y-142815580D02*
X115234990Y-142815580D01*
X115330228Y-142863200D01*
X115377847Y-142910819D01*
X115425466Y-143006057D01*
X115473085Y-143196533D01*
X115473085Y-143434628D01*
X115425466Y-143625104D01*
X115377847Y-143720342D01*
X115330228Y-143767961D01*
X115234990Y-143815580D01*
X115139752Y-143815580D01*
X115044514Y-143767961D01*
X114996895Y-143720342D01*
X114949276Y-143625104D01*
X114901657Y-143434628D01*
X114901657Y-143196533D01*
X114949276Y-143006057D01*
X114996895Y-142910819D01*
X115044514Y-142863200D01*
X115139752Y-142815580D01*
X116425466Y-143815580D02*
X115854038Y-143815580D01*
X116139752Y-143815580D02*
X116139752Y-142815580D01*
X116044514Y-142958438D01*
X115949276Y-143053676D01*
X115854038Y-143101295D01*
X130043428Y-213138590D02*
X130043428Y-213614780D01*
X129710095Y-212614780D02*
X130043428Y-213138590D01*
X130376761Y-212614780D01*
X130662476Y-212710019D02*
X130710095Y-212662400D01*
X130805333Y-212614780D01*
X131043428Y-212614780D01*
X131138666Y-212662400D01*
X131186285Y-212710019D01*
X131233904Y-212805257D01*
X131233904Y-212900495D01*
X131186285Y-213043352D01*
X130614857Y-213614780D01*
X131233904Y-213614780D01*
X131852952Y-212614780D02*
X131948190Y-212614780D01*
X132043428Y-212662400D01*
X132091047Y-212710019D01*
X132138666Y-212805257D01*
X132186285Y-212995733D01*
X132186285Y-213233828D01*
X132138666Y-213424304D01*
X132091047Y-213519542D01*
X132043428Y-213567161D01*
X131948190Y-213614780D01*
X131852952Y-213614780D01*
X131757714Y-213567161D01*
X131710095Y-213519542D01*
X131662476Y-213424304D01*
X131614857Y-213233828D01*
X131614857Y-212995733D01*
X131662476Y-212805257D01*
X131710095Y-212710019D01*
X131757714Y-212662400D01*
X131852952Y-212614780D01*
X132567238Y-212710019D02*
X132614857Y-212662400D01*
X132710095Y-212614780D01*
X132948190Y-212614780D01*
X133043428Y-212662400D01*
X133091047Y-212710019D01*
X133138666Y-212805257D01*
X133138666Y-212900495D01*
X133091047Y-213043352D01*
X132519619Y-213614780D01*
X133138666Y-213614780D01*
X130092628Y-226874390D02*
X130092628Y-227350580D01*
X129759295Y-226350580D02*
X130092628Y-226874390D01*
X130425961Y-226350580D01*
X131187866Y-226683914D02*
X131187866Y-227350580D01*
X130949771Y-226302961D02*
X130711676Y-227017247D01*
X131330723Y-227017247D01*
X131902152Y-226350580D02*
X131997390Y-226350580D01*
X132092628Y-226398200D01*
X132140247Y-226445819D01*
X132187866Y-226541057D01*
X132235485Y-226731533D01*
X132235485Y-226969628D01*
X132187866Y-227160104D01*
X132140247Y-227255342D01*
X132092628Y-227302961D01*
X131997390Y-227350580D01*
X131902152Y-227350580D01*
X131806914Y-227302961D01*
X131759295Y-227255342D01*
X131711676Y-227160104D01*
X131664057Y-226969628D01*
X131664057Y-226731533D01*
X131711676Y-226541057D01*
X131759295Y-226445819D01*
X131806914Y-226398200D01*
X131902152Y-226350580D01*
X133187866Y-227350580D02*
X132616438Y-227350580D01*
X132902152Y-227350580D02*
X132902152Y-226350580D01*
X132806914Y-226493438D01*
X132711676Y-226588676D01*
X132616438Y-226636295D01*
X70762952Y-194387742D02*
X70715333Y-194435361D01*
X70572476Y-194482980D01*
X70477238Y-194482980D01*
X70334380Y-194435361D01*
X70239142Y-194340123D01*
X70191523Y-194244885D01*
X70143904Y-194054409D01*
X70143904Y-193911552D01*
X70191523Y-193721076D01*
X70239142Y-193625838D01*
X70334380Y-193530600D01*
X70477238Y-193482980D01*
X70572476Y-193482980D01*
X70715333Y-193530600D01*
X70762952Y-193578219D01*
X71143904Y-193578219D02*
X71191523Y-193530600D01*
X71286761Y-193482980D01*
X71524857Y-193482980D01*
X71620095Y-193530600D01*
X71667714Y-193578219D01*
X71715333Y-193673457D01*
X71715333Y-193768695D01*
X71667714Y-193911552D01*
X71096285Y-194482980D01*
X71715333Y-194482980D01*
X72667714Y-194482980D02*
X72096285Y-194482980D01*
X72382000Y-194482980D02*
X72382000Y-193482980D01*
X72286761Y-193625838D01*
X72191523Y-193721076D01*
X72096285Y-193768695D01*
X73001047Y-193482980D02*
X73667714Y-193482980D01*
X73239142Y-194482980D01*
X53084552Y-233249742D02*
X53036933Y-233297361D01*
X52894076Y-233344980D01*
X52798838Y-233344980D01*
X52655980Y-233297361D01*
X52560742Y-233202123D01*
X52513123Y-233106885D01*
X52465504Y-232916409D01*
X52465504Y-232773552D01*
X52513123Y-232583076D01*
X52560742Y-232487838D01*
X52655980Y-232392600D01*
X52798838Y-232344980D01*
X52894076Y-232344980D01*
X53036933Y-232392600D01*
X53084552Y-232440219D01*
X53465504Y-232440219D02*
X53513123Y-232392600D01*
X53608361Y-232344980D01*
X53846457Y-232344980D01*
X53941695Y-232392600D01*
X53989314Y-232440219D01*
X54036933Y-232535457D01*
X54036933Y-232630695D01*
X53989314Y-232773552D01*
X53417885Y-233344980D01*
X54036933Y-233344980D01*
X54989314Y-233344980D02*
X54417885Y-233344980D01*
X54703600Y-233344980D02*
X54703600Y-232344980D01*
X54608361Y-232487838D01*
X54513123Y-232583076D01*
X54417885Y-232630695D01*
X55560742Y-232773552D02*
X55465504Y-232725933D01*
X55417885Y-232678314D01*
X55370266Y-232583076D01*
X55370266Y-232535457D01*
X55417885Y-232440219D01*
X55465504Y-232392600D01*
X55560742Y-232344980D01*
X55751219Y-232344980D01*
X55846457Y-232392600D01*
X55894076Y-232440219D01*
X55941695Y-232535457D01*
X55941695Y-232583076D01*
X55894076Y-232678314D01*
X55846457Y-232725933D01*
X55751219Y-232773552D01*
X55560742Y-232773552D01*
X55465504Y-232821171D01*
X55417885Y-232868790D01*
X55370266Y-232964028D01*
X55370266Y-233154504D01*
X55417885Y-233249742D01*
X55465504Y-233297361D01*
X55560742Y-233344980D01*
X55751219Y-233344980D01*
X55846457Y-233297361D01*
X55894076Y-233249742D01*
X55941695Y-233154504D01*
X55941695Y-232964028D01*
X55894076Y-232868790D01*
X55846457Y-232821171D01*
X55751219Y-232773552D01*
X72083752Y-204649342D02*
X72036133Y-204696961D01*
X71893276Y-204744580D01*
X71798038Y-204744580D01*
X71655180Y-204696961D01*
X71559942Y-204601723D01*
X71512323Y-204506485D01*
X71464704Y-204316009D01*
X71464704Y-204173152D01*
X71512323Y-203982676D01*
X71559942Y-203887438D01*
X71655180Y-203792200D01*
X71798038Y-203744580D01*
X71893276Y-203744580D01*
X72036133Y-203792200D01*
X72083752Y-203839819D01*
X72464704Y-203839819D02*
X72512323Y-203792200D01*
X72607561Y-203744580D01*
X72845657Y-203744580D01*
X72940895Y-203792200D01*
X72988514Y-203839819D01*
X73036133Y-203935057D01*
X73036133Y-204030295D01*
X72988514Y-204173152D01*
X72417085Y-204744580D01*
X73036133Y-204744580D01*
X73988514Y-204744580D02*
X73417085Y-204744580D01*
X73702800Y-204744580D02*
X73702800Y-203744580D01*
X73607561Y-203887438D01*
X73512323Y-203982676D01*
X73417085Y-204030295D01*
X74464704Y-204744580D02*
X74655180Y-204744580D01*
X74750419Y-204696961D01*
X74798038Y-204649342D01*
X74893276Y-204506485D01*
X74940895Y-204316009D01*
X74940895Y-203935057D01*
X74893276Y-203839819D01*
X74845657Y-203792200D01*
X74750419Y-203744580D01*
X74559942Y-203744580D01*
X74464704Y-203792200D01*
X74417085Y-203839819D01*
X74369466Y-203935057D01*
X74369466Y-204173152D01*
X74417085Y-204268390D01*
X74464704Y-204316009D01*
X74559942Y-204363628D01*
X74750419Y-204363628D01*
X74845657Y-204316009D01*
X74893276Y-204268390D01*
X74940895Y-204173152D01*
X71169352Y-225629742D02*
X71121733Y-225677361D01*
X70978876Y-225724980D01*
X70883638Y-225724980D01*
X70740780Y-225677361D01*
X70645542Y-225582123D01*
X70597923Y-225486885D01*
X70550304Y-225296409D01*
X70550304Y-225153552D01*
X70597923Y-224963076D01*
X70645542Y-224867838D01*
X70740780Y-224772600D01*
X70883638Y-224724980D01*
X70978876Y-224724980D01*
X71121733Y-224772600D01*
X71169352Y-224820219D01*
X71550304Y-224820219D02*
X71597923Y-224772600D01*
X71693161Y-224724980D01*
X71931257Y-224724980D01*
X72026495Y-224772600D01*
X72074114Y-224820219D01*
X72121733Y-224915457D01*
X72121733Y-225010695D01*
X72074114Y-225153552D01*
X71502685Y-225724980D01*
X72121733Y-225724980D01*
X72502685Y-224820219D02*
X72550304Y-224772600D01*
X72645542Y-224724980D01*
X72883638Y-224724980D01*
X72978876Y-224772600D01*
X73026495Y-224820219D01*
X73074114Y-224915457D01*
X73074114Y-225010695D01*
X73026495Y-225153552D01*
X72455066Y-225724980D01*
X73074114Y-225724980D01*
X73693161Y-224724980D02*
X73788400Y-224724980D01*
X73883638Y-224772600D01*
X73931257Y-224820219D01*
X73978876Y-224915457D01*
X74026495Y-225105933D01*
X74026495Y-225344028D01*
X73978876Y-225534504D01*
X73931257Y-225629742D01*
X73883638Y-225677361D01*
X73788400Y-225724980D01*
X73693161Y-225724980D01*
X73597923Y-225677361D01*
X73550304Y-225629742D01*
X73502685Y-225534504D01*
X73455066Y-225344028D01*
X73455066Y-225105933D01*
X73502685Y-224915457D01*
X73550304Y-224820219D01*
X73597923Y-224772600D01*
X73693161Y-224724980D01*
X71880552Y-212015342D02*
X71832933Y-212062961D01*
X71690076Y-212110580D01*
X71594838Y-212110580D01*
X71451980Y-212062961D01*
X71356742Y-211967723D01*
X71309123Y-211872485D01*
X71261504Y-211682009D01*
X71261504Y-211539152D01*
X71309123Y-211348676D01*
X71356742Y-211253438D01*
X71451980Y-211158200D01*
X71594838Y-211110580D01*
X71690076Y-211110580D01*
X71832933Y-211158200D01*
X71880552Y-211205819D01*
X72261504Y-211205819D02*
X72309123Y-211158200D01*
X72404361Y-211110580D01*
X72642457Y-211110580D01*
X72737695Y-211158200D01*
X72785314Y-211205819D01*
X72832933Y-211301057D01*
X72832933Y-211396295D01*
X72785314Y-211539152D01*
X72213885Y-212110580D01*
X72832933Y-212110580D01*
X73213885Y-211205819D02*
X73261504Y-211158200D01*
X73356742Y-211110580D01*
X73594838Y-211110580D01*
X73690076Y-211158200D01*
X73737695Y-211205819D01*
X73785314Y-211301057D01*
X73785314Y-211396295D01*
X73737695Y-211539152D01*
X73166266Y-212110580D01*
X73785314Y-212110580D01*
X74737695Y-212110580D02*
X74166266Y-212110580D01*
X74451980Y-212110580D02*
X74451980Y-211110580D01*
X74356742Y-211253438D01*
X74261504Y-211348676D01*
X74166266Y-211396295D01*
X65022552Y-223934542D02*
X64974933Y-223982161D01*
X64832076Y-224029780D01*
X64736838Y-224029780D01*
X64593980Y-223982161D01*
X64498742Y-223886923D01*
X64451123Y-223791685D01*
X64403504Y-223601209D01*
X64403504Y-223458352D01*
X64451123Y-223267876D01*
X64498742Y-223172638D01*
X64593980Y-223077400D01*
X64736838Y-223029780D01*
X64832076Y-223029780D01*
X64974933Y-223077400D01*
X65022552Y-223125019D01*
X65403504Y-223125019D02*
X65451123Y-223077400D01*
X65546361Y-223029780D01*
X65784457Y-223029780D01*
X65879695Y-223077400D01*
X65927314Y-223125019D01*
X65974933Y-223220257D01*
X65974933Y-223315495D01*
X65927314Y-223458352D01*
X65355885Y-224029780D01*
X65974933Y-224029780D01*
X66355885Y-223125019D02*
X66403504Y-223077400D01*
X66498742Y-223029780D01*
X66736838Y-223029780D01*
X66832076Y-223077400D01*
X66879695Y-223125019D01*
X66927314Y-223220257D01*
X66927314Y-223315495D01*
X66879695Y-223458352D01*
X66308266Y-224029780D01*
X66927314Y-224029780D01*
X67308266Y-223125019D02*
X67355885Y-223077400D01*
X67451123Y-223029780D01*
X67689219Y-223029780D01*
X67784457Y-223077400D01*
X67832076Y-223125019D01*
X67879695Y-223220257D01*
X67879695Y-223315495D01*
X67832076Y-223458352D01*
X67260647Y-224029780D01*
X67879695Y-224029780D01*
X63904952Y-184532542D02*
X63857333Y-184580161D01*
X63714476Y-184627780D01*
X63619238Y-184627780D01*
X63476380Y-184580161D01*
X63381142Y-184484923D01*
X63333523Y-184389685D01*
X63285904Y-184199209D01*
X63285904Y-184056352D01*
X63333523Y-183865876D01*
X63381142Y-183770638D01*
X63476380Y-183675400D01*
X63619238Y-183627780D01*
X63714476Y-183627780D01*
X63857333Y-183675400D01*
X63904952Y-183723019D01*
X64762095Y-183961114D02*
X64762095Y-184627780D01*
X64524000Y-183580161D02*
X64285904Y-184294447D01*
X64904952Y-184294447D01*
X65476380Y-183627780D02*
X65571619Y-183627780D01*
X65666857Y-183675400D01*
X65714476Y-183723019D01*
X65762095Y-183818257D01*
X65809714Y-184008733D01*
X65809714Y-184246828D01*
X65762095Y-184437304D01*
X65714476Y-184532542D01*
X65666857Y-184580161D01*
X65571619Y-184627780D01*
X65476380Y-184627780D01*
X65381142Y-184580161D01*
X65333523Y-184532542D01*
X65285904Y-184437304D01*
X65238285Y-184246828D01*
X65238285Y-184008733D01*
X65285904Y-183818257D01*
X65333523Y-183723019D01*
X65381142Y-183675400D01*
X65476380Y-183627780D01*
X66190666Y-183723019D02*
X66238285Y-183675400D01*
X66333523Y-183627780D01*
X66571619Y-183627780D01*
X66666857Y-183675400D01*
X66714476Y-183723019D01*
X66762095Y-183818257D01*
X66762095Y-183913495D01*
X66714476Y-184056352D01*
X66143047Y-184627780D01*
X66762095Y-184627780D01*
X57710342Y-180316047D02*
X57757961Y-180363666D01*
X57805580Y-180506523D01*
X57805580Y-180601761D01*
X57757961Y-180744619D01*
X57662723Y-180839857D01*
X57567485Y-180887476D01*
X57377009Y-180935095D01*
X57234152Y-180935095D01*
X57043676Y-180887476D01*
X56948438Y-180839857D01*
X56853200Y-180744619D01*
X56805580Y-180601761D01*
X56805580Y-180506523D01*
X56853200Y-180363666D01*
X56900819Y-180316047D01*
X57138914Y-179458904D02*
X57805580Y-179458904D01*
X56757961Y-179697000D02*
X57472247Y-179935095D01*
X57472247Y-179316047D01*
X56805580Y-178744619D02*
X56805580Y-178649380D01*
X56853200Y-178554142D01*
X56900819Y-178506523D01*
X56996057Y-178458904D01*
X57186533Y-178411285D01*
X57424628Y-178411285D01*
X57615104Y-178458904D01*
X57710342Y-178506523D01*
X57757961Y-178554142D01*
X57805580Y-178649380D01*
X57805580Y-178744619D01*
X57757961Y-178839857D01*
X57710342Y-178887476D01*
X57615104Y-178935095D01*
X57424628Y-178982714D01*
X57186533Y-178982714D01*
X56996057Y-178935095D01*
X56900819Y-178887476D01*
X56853200Y-178839857D01*
X56805580Y-178744619D01*
X56805580Y-178077952D02*
X56805580Y-177458904D01*
X57186533Y-177792238D01*
X57186533Y-177649380D01*
X57234152Y-177554142D01*
X57281771Y-177506523D01*
X57377009Y-177458904D01*
X57615104Y-177458904D01*
X57710342Y-177506523D01*
X57757961Y-177554142D01*
X57805580Y-177649380D01*
X57805580Y-177935095D01*
X57757961Y-178030333D01*
X57710342Y-178077952D01*
X52319619Y-185590085D02*
X51605333Y-185590085D01*
X51462476Y-185542466D01*
X51367238Y-185447228D01*
X51319619Y-185304371D01*
X51319619Y-185209133D01*
X51319619Y-186066276D02*
X52319619Y-186066276D01*
X52319619Y-186447228D01*
X52272000Y-186542466D01*
X52224380Y-186590085D01*
X52129142Y-186637704D01*
X51986285Y-186637704D01*
X51891047Y-186590085D01*
X51843428Y-186542466D01*
X51795809Y-186447228D01*
X51795809Y-186066276D01*
X51319619Y-187590085D02*
X51319619Y-187018657D01*
X51319619Y-187304371D02*
X52319619Y-187304371D01*
X52176761Y-187209133D01*
X52081523Y-187113895D01*
X52033904Y-187018657D01*
X52319619Y-188209133D02*
X52319619Y-188304371D01*
X52272000Y-188399609D01*
X52224380Y-188447228D01*
X52129142Y-188494847D01*
X51938666Y-188542466D01*
X51700571Y-188542466D01*
X51510095Y-188494847D01*
X51414857Y-188447228D01*
X51367238Y-188399609D01*
X51319619Y-188304371D01*
X51319619Y-188209133D01*
X51367238Y-188113895D01*
X51414857Y-188066276D01*
X51510095Y-188018657D01*
X51700571Y-187971038D01*
X51938666Y-187971038D01*
X52129142Y-188018657D01*
X52224380Y-188066276D01*
X52272000Y-188113895D01*
X52319619Y-188209133D01*
X52224380Y-188923419D02*
X52272000Y-188971038D01*
X52319619Y-189066276D01*
X52319619Y-189304371D01*
X52272000Y-189399609D01*
X52224380Y-189447228D01*
X52129142Y-189494847D01*
X52033904Y-189494847D01*
X51891047Y-189447228D01*
X51319619Y-188875800D01*
X51319619Y-189494847D01*
M02*
