G04 #@! TF.FileFunction,Soldermask,Bot*
%FSLAX46Y46*%
G04 Gerber Fmt 4.6, Leading zero omitted, Abs format (unit mm)*
G04 Created by KiCad (PCBNEW 4.0.2-stable) date 27-3-2016 11:05:44*
%MOMM*%
G01*
G04 APERTURE LIST*
%ADD10C,0.150000*%
%ADD11C,0.600000*%
%ADD12R,0.750000X1.200000*%
%ADD13R,1.200000X0.750000*%
%ADD14O,2.000000X1.200000*%
%ADD15R,0.900000X1.200000*%
%ADD16R,1.200000X0.900000*%
%ADD17R,1.500000X2.000000*%
%ADD18O,1.500000X2.000000*%
%ADD19R,1.727200X1.727200*%
%ADD20C,5.000000*%
%ADD21O,2.000000X1.500000*%
%ADD22O,1.506220X3.014980*%
%ADD23C,0.889000*%
G04 APERTURE END LIST*
D10*
D11*
X56515000Y-90170000D03*
X57785000Y-90805000D03*
X57785000Y-89535000D03*
X61976000Y-109220000D03*
X148590000Y-86360000D03*
X148590000Y-84455000D03*
X138430000Y-86614000D03*
X135890000Y-86614000D03*
X113030000Y-81280000D03*
X109855000Y-82550000D03*
X90805000Y-57785000D03*
X93345000Y-57785000D03*
X62230000Y-111760000D03*
X72390000Y-110490000D03*
X60325000Y-75565000D03*
X60325000Y-77470000D03*
X131064000Y-86614000D03*
X73025000Y-50165000D03*
X75565000Y-50165000D03*
D12*
X95885000Y-87310000D03*
X95885000Y-85410000D03*
D13*
X112080000Y-86995000D03*
X113980000Y-86995000D03*
D12*
X63500000Y-108270000D03*
X63500000Y-110170000D03*
X115570000Y-56195000D03*
X115570000Y-54295000D03*
X133985000Y-51115000D03*
X133985000Y-49215000D03*
X142240000Y-57465000D03*
X142240000Y-55565000D03*
D14*
X95835000Y-90170000D03*
X88315000Y-90170000D03*
X95835000Y-92710000D03*
X88315000Y-92710000D03*
X95835000Y-95250000D03*
X88315000Y-95250000D03*
X95835000Y-97790000D03*
X88315000Y-97790000D03*
X95835000Y-100330000D03*
X88315000Y-100330000D03*
X95835000Y-102870000D03*
X88315000Y-102870000D03*
X95835000Y-105410000D03*
X88315000Y-105410000D03*
X95835000Y-107950000D03*
X88315000Y-107950000D03*
X95835000Y-110490000D03*
X88315000Y-110490000D03*
X95835000Y-113030000D03*
X88315000Y-113030000D03*
X95835000Y-115570000D03*
X88315000Y-115570000D03*
X95835000Y-118110000D03*
X88315000Y-118110000D03*
X95835000Y-120650000D03*
X88315000Y-120650000D03*
X95835000Y-123190000D03*
X88315000Y-123190000D03*
X95835000Y-125730000D03*
X88315000Y-125730000D03*
X95835000Y-128270000D03*
X88315000Y-128270000D03*
X111075000Y-90170000D03*
X103555000Y-90170000D03*
X111075000Y-92710000D03*
X103555000Y-92710000D03*
X111075000Y-95250000D03*
X103555000Y-95250000D03*
X111075000Y-97790000D03*
X103555000Y-97790000D03*
X111075000Y-100330000D03*
X103555000Y-100330000D03*
X111075000Y-102870000D03*
X103555000Y-102870000D03*
X111075000Y-105410000D03*
X103555000Y-105410000D03*
X111075000Y-107950000D03*
X103555000Y-107950000D03*
X111075000Y-110490000D03*
X103555000Y-110490000D03*
X111075000Y-113030000D03*
X103555000Y-113030000D03*
X111075000Y-115570000D03*
X103555000Y-115570000D03*
X111075000Y-118110000D03*
X103555000Y-118110000D03*
X111075000Y-120650000D03*
X103555000Y-120650000D03*
X111075000Y-123190000D03*
X103555000Y-123190000D03*
X111075000Y-125730000D03*
X103555000Y-125730000D03*
X111075000Y-128270000D03*
X103555000Y-128270000D03*
X126315000Y-90170000D03*
X118795000Y-90170000D03*
X126315000Y-92710000D03*
X118795000Y-92710000D03*
X126315000Y-95250000D03*
X118795000Y-95250000D03*
X126315000Y-97790000D03*
X118795000Y-97790000D03*
X126315000Y-100330000D03*
X118795000Y-100330000D03*
X126315000Y-102870000D03*
X118795000Y-102870000D03*
X126315000Y-105410000D03*
X118795000Y-105410000D03*
X126315000Y-107950000D03*
X118795000Y-107950000D03*
X126315000Y-110490000D03*
X118795000Y-110490000D03*
X126315000Y-113030000D03*
X118795000Y-113030000D03*
X126315000Y-115570000D03*
X118795000Y-115570000D03*
X126315000Y-118110000D03*
X118795000Y-118110000D03*
X126315000Y-120650000D03*
X118795000Y-120650000D03*
X126315000Y-123190000D03*
X118795000Y-123190000D03*
X126315000Y-125730000D03*
X118795000Y-125730000D03*
X126315000Y-128270000D03*
X118795000Y-128270000D03*
X141555000Y-90170000D03*
X134035000Y-90170000D03*
X141555000Y-92710000D03*
X134035000Y-92710000D03*
X141555000Y-95250000D03*
X134035000Y-95250000D03*
X141555000Y-97790000D03*
X134035000Y-97790000D03*
X141555000Y-100330000D03*
X134035000Y-100330000D03*
X141555000Y-102870000D03*
X134035000Y-102870000D03*
X141555000Y-105410000D03*
X134035000Y-105410000D03*
X141555000Y-107950000D03*
X134035000Y-107950000D03*
X141555000Y-110490000D03*
X134035000Y-110490000D03*
X141555000Y-113030000D03*
X134035000Y-113030000D03*
X141555000Y-115570000D03*
X134035000Y-115570000D03*
X141555000Y-118110000D03*
X134035000Y-118110000D03*
X141555000Y-120650000D03*
X134035000Y-120650000D03*
X141555000Y-123190000D03*
X134035000Y-123190000D03*
X141555000Y-125730000D03*
X134035000Y-125730000D03*
X141555000Y-128270000D03*
X134035000Y-128270000D03*
X60325000Y-80010000D03*
X60325000Y-82550000D03*
X60325000Y-85090000D03*
X60325000Y-87630000D03*
X60325000Y-90170000D03*
X60325000Y-92710000D03*
X60325000Y-95250000D03*
X60325000Y-97790000D03*
X60325000Y-100330000D03*
X60325000Y-102870000D03*
X60325000Y-105410000D03*
X60325000Y-107950000D03*
X60325000Y-110490000D03*
X60325000Y-113030000D03*
X60325000Y-115570000D03*
X60325000Y-118110000D03*
X60325000Y-120650000D03*
X60325000Y-123190000D03*
X60325000Y-125730000D03*
X60325000Y-128270000D03*
X75565000Y-128270000D03*
X75565000Y-125730000D03*
X75565000Y-123190000D03*
X75565000Y-120650000D03*
X75565000Y-118110000D03*
X75565000Y-115570000D03*
X75565000Y-113030000D03*
X75565000Y-110490000D03*
X75565000Y-107950000D03*
X75565000Y-105410000D03*
X75565000Y-102870000D03*
X75565000Y-100330000D03*
X75565000Y-97790000D03*
X75565000Y-95250000D03*
X75565000Y-92710000D03*
X75565000Y-90170000D03*
X75565000Y-87630000D03*
X75565000Y-85090000D03*
X75565000Y-82550000D03*
X75565000Y-80010000D03*
D15*
X64135000Y-115740000D03*
X64135000Y-117940000D03*
X62865000Y-115740000D03*
X62865000Y-117940000D03*
X117475000Y-131615000D03*
X117475000Y-133815000D03*
X118745000Y-131615000D03*
X118745000Y-133815000D03*
D16*
X146515000Y-102235000D03*
X144315000Y-102235000D03*
D15*
X116205000Y-131615000D03*
X116205000Y-133815000D03*
X120015000Y-131615000D03*
X120015000Y-133815000D03*
X136144000Y-55075000D03*
X136144000Y-52875000D03*
X75565000Y-66845000D03*
X75565000Y-69045000D03*
X74295000Y-66845000D03*
X74295000Y-69045000D03*
X74295000Y-75395000D03*
X74295000Y-73195000D03*
X75565000Y-75395000D03*
X75565000Y-73195000D03*
D16*
X146515000Y-96520000D03*
X144315000Y-96520000D03*
X146515000Y-100330000D03*
X144315000Y-100330000D03*
X146515000Y-98425000D03*
X144315000Y-98425000D03*
D14*
X120015000Y-59690000D03*
X120015000Y-62230000D03*
X120015000Y-64770000D03*
X120015000Y-67310000D03*
X120015000Y-69850000D03*
X120015000Y-72390000D03*
X120015000Y-74930000D03*
X120015000Y-77470000D03*
X120015000Y-80010000D03*
X120015000Y-82550000D03*
X127635000Y-82550000D03*
X127635000Y-80010000D03*
X127635000Y-77470000D03*
X127635000Y-74930000D03*
X127635000Y-72390000D03*
X127635000Y-69850000D03*
X127635000Y-67310000D03*
X127635000Y-64770000D03*
X127635000Y-62230000D03*
X127635000Y-59690000D03*
X132715000Y-59690000D03*
X132715000Y-62230000D03*
X132715000Y-64770000D03*
X132715000Y-67310000D03*
X132715000Y-69850000D03*
X132715000Y-72390000D03*
X132715000Y-74930000D03*
X132715000Y-77470000D03*
X132715000Y-80010000D03*
X132715000Y-82550000D03*
X140335000Y-82550000D03*
X140335000Y-80010000D03*
X140335000Y-77470000D03*
X140335000Y-74930000D03*
X140335000Y-72390000D03*
X140335000Y-69850000D03*
X140335000Y-67310000D03*
X140335000Y-64770000D03*
X140335000Y-62230000D03*
X140335000Y-59690000D03*
X107315000Y-59690000D03*
X107315000Y-62230000D03*
X107315000Y-64770000D03*
X107315000Y-67310000D03*
X107315000Y-69850000D03*
X107315000Y-72390000D03*
X107315000Y-74930000D03*
X107315000Y-77470000D03*
X107315000Y-80010000D03*
X107315000Y-82550000D03*
X114935000Y-82550000D03*
X114935000Y-80010000D03*
X114935000Y-77470000D03*
X114935000Y-74930000D03*
X114935000Y-72390000D03*
X114935000Y-69850000D03*
X114935000Y-67310000D03*
X114935000Y-64770000D03*
X114935000Y-62230000D03*
X114935000Y-59690000D03*
D17*
X78105000Y-50165000D03*
D18*
X78105000Y-47625000D03*
X80645000Y-50165000D03*
X80645000Y-47625000D03*
X83185000Y-50165000D03*
X83185000Y-47625000D03*
X85725000Y-50165000D03*
X85725000Y-47625000D03*
X88265000Y-50165000D03*
X88265000Y-47625000D03*
X90805000Y-50165000D03*
X90805000Y-47625000D03*
X93345000Y-50165000D03*
X93345000Y-47625000D03*
X95885000Y-50165000D03*
X95885000Y-47625000D03*
X98425000Y-50165000D03*
X98425000Y-47625000D03*
X100965000Y-50165000D03*
X100965000Y-47625000D03*
X103505000Y-50165000D03*
X103505000Y-47625000D03*
X106045000Y-50165000D03*
X106045000Y-47625000D03*
X108585000Y-50165000D03*
X108585000Y-47625000D03*
X111125000Y-50165000D03*
X111125000Y-47625000D03*
X113665000Y-50165000D03*
X113665000Y-47625000D03*
X116205000Y-50165000D03*
X116205000Y-47625000D03*
X118745000Y-50165000D03*
X118745000Y-47625000D03*
X121285000Y-50165000D03*
X121285000Y-47625000D03*
X123825000Y-50165000D03*
X123825000Y-47625000D03*
X126365000Y-50165000D03*
X126365000Y-47625000D03*
D19*
X126365000Y-138430000D03*
D18*
X126365000Y-140970000D03*
X123825000Y-138430000D03*
X123825000Y-140970000D03*
X121285000Y-138430000D03*
X121285000Y-140970000D03*
X118745000Y-138430000D03*
X118745000Y-140970000D03*
X116205000Y-138430000D03*
X116205000Y-140970000D03*
X113665000Y-138430000D03*
X113665000Y-140970000D03*
X111125000Y-138430000D03*
X111125000Y-140970000D03*
X108585000Y-138430000D03*
X108585000Y-140970000D03*
X106045000Y-138430000D03*
X106045000Y-140970000D03*
X103505000Y-138430000D03*
X103505000Y-140970000D03*
X100965000Y-138430000D03*
X100965000Y-140970000D03*
X98425000Y-138430000D03*
X98425000Y-140970000D03*
X95885000Y-138430000D03*
X95885000Y-140970000D03*
X93345000Y-138430000D03*
X93345000Y-140970000D03*
X90805000Y-138430000D03*
X90805000Y-140970000D03*
X88265000Y-138430000D03*
X88265000Y-140970000D03*
X85725000Y-138430000D03*
X85725000Y-140970000D03*
X83185000Y-138430000D03*
X83185000Y-140970000D03*
X80645000Y-138430000D03*
X80645000Y-140970000D03*
X78105000Y-138430000D03*
X78105000Y-140970000D03*
D20*
X57785000Y-49530000D03*
X147320000Y-139065000D03*
X147320000Y-49530000D03*
D19*
X146685000Y-59690000D03*
D21*
X149225000Y-59690000D03*
X146685000Y-62230000D03*
X149225000Y-62230000D03*
X146685000Y-64770000D03*
X149225000Y-64770000D03*
X146685000Y-67310000D03*
X149225000Y-67310000D03*
X146685000Y-69850000D03*
X149225000Y-69850000D03*
X146685000Y-72390000D03*
X149225000Y-72390000D03*
X146685000Y-74930000D03*
X149225000Y-74930000D03*
X146685000Y-77470000D03*
X149225000Y-77470000D03*
X146685000Y-80010000D03*
X149225000Y-80010000D03*
X146685000Y-82550000D03*
X149225000Y-82550000D03*
D22*
X137795000Y-47625000D03*
X140335000Y-47625000D03*
D23*
X76835000Y-129540000D03*
X78740000Y-128905000D03*
X73660000Y-131445000D03*
X68580000Y-136525000D03*
X65405000Y-55245000D03*
X66040000Y-127635000D03*
X66040000Y-120650000D03*
X109220000Y-93980000D03*
X116205000Y-92710000D03*
X109220000Y-115570000D03*
X137795000Y-114935000D03*
X121285000Y-114300000D03*
X151130000Y-87630000D03*
X136525000Y-113665000D03*
X64135000Y-54610000D03*
X85090000Y-128270000D03*
X121920000Y-58674000D03*
X72390000Y-132080000D03*
X83185000Y-125730000D03*
X86995000Y-96520000D03*
X117475000Y-96520000D03*
X77470000Y-100330000D03*
X94615000Y-52705000D03*
X66040000Y-52705000D03*
X62230000Y-129540000D03*
X64770000Y-133350000D03*
X64135000Y-137795000D03*
X66675000Y-139065000D03*
X87630000Y-64770000D03*
X88900000Y-66040000D03*
X90170000Y-66040000D03*
X67310000Y-124460000D03*
X67310000Y-107950000D03*
X69850000Y-104775000D03*
X69850000Y-125730000D03*
X105410000Y-124460000D03*
X102870000Y-72390000D03*
X71120000Y-105410000D03*
X71120000Y-121920000D03*
X101600000Y-74930000D03*
X105410000Y-121920000D03*
X68580000Y-116840000D03*
X68580000Y-104140000D03*
X100330000Y-77470000D03*
X105410000Y-119380000D03*
X99695000Y-116840000D03*
X96520000Y-80010000D03*
X142875000Y-99060000D03*
X92710000Y-99060000D03*
X91440000Y-75565000D03*
X91440000Y-64770000D03*
X92710000Y-76835000D03*
X92710000Y-68580000D03*
X142875000Y-96520000D03*
X93980000Y-78105000D03*
X93980000Y-69850000D03*
X98425000Y-96520000D03*
X99695000Y-91440000D03*
X95250000Y-74930000D03*
X74295000Y-78105000D03*
X76200000Y-60325000D03*
X116205000Y-90170000D03*
X130810000Y-133350000D03*
X62865000Y-60325000D03*
X62865000Y-78105000D03*
X145415000Y-94615000D03*
X130175000Y-51435000D03*
X123190000Y-60960000D03*
X69215000Y-137795000D03*
X76835000Y-71755000D03*
X97790000Y-72390000D03*
X97790000Y-78740000D03*
X76835000Y-69215000D03*
X104140000Y-82550000D03*
X104140000Y-67310000D03*
X76835000Y-61595000D03*
X83185000Y-85725000D03*
X125730000Y-85725000D03*
X75565000Y-62865000D03*
X125730000Y-86995000D03*
X81915000Y-85725000D03*
X80645000Y-85725000D03*
X124460000Y-88900000D03*
X76835000Y-64135000D03*
X75565000Y-65405000D03*
X121920000Y-89535000D03*
X79375000Y-85725000D03*
X76835000Y-73025000D03*
X96520000Y-73660000D03*
X96520000Y-76200000D03*
X76835000Y-70485000D03*
X99060000Y-71120000D03*
X99060000Y-81280000D03*
X88265000Y-84455000D03*
X85090000Y-66675000D03*
X118745000Y-84455000D03*
X118745000Y-78740000D03*
X86995000Y-85090000D03*
X83820000Y-64135000D03*
X81280000Y-62865000D03*
X84455000Y-84455000D03*
X116840000Y-74930000D03*
X116205000Y-83820000D03*
X126365000Y-84455000D03*
X85725000Y-85725000D03*
X82550000Y-61595000D03*
X137160000Y-82550000D03*
X137795000Y-52705000D03*
X145415000Y-84455000D03*
X130810000Y-85090000D03*
X129540000Y-54610000D03*
X130810000Y-58420000D03*
X135890000Y-72390000D03*
X136525000Y-69850000D03*
X135255000Y-57785000D03*
X136525000Y-57150000D03*
X145415000Y-81280000D03*
X135890000Y-83185000D03*
X138430000Y-66040000D03*
X139065000Y-55880000D03*
X125095000Y-62230000D03*
X125095000Y-53975000D03*
X135890000Y-74930000D03*
X134620000Y-83820000D03*
X142240000Y-60960000D03*
X142240000Y-72390000D03*
X138430000Y-78740000D03*
X134620000Y-77470000D03*
M02*
