M48
;DRILL file {KiCad 4.0.2-stable} date 27-3-2016 11:06:00
;FORMAT={-:-/ absolute / metric / decimal}
FMAT,2
METRIC,TZ
T1C0.300
T2C0.635
T3C0.800
T4C0.998
T5C1.016
T6C3.200
%
G90
G05
M71
T1
X56.515Y-90.17
X57.785Y-89.535
X57.785Y-90.805
X60.325Y-75.565
X60.325Y-77.47
X61.976Y-109.22
X62.23Y-111.76
X72.39Y-110.49
X73.025Y-50.165
X75.565Y-50.165
X90.805Y-57.785
X93.345Y-57.785
X109.855Y-82.55
X113.03Y-81.28
X131.064Y-86.614
X135.89Y-86.614
X138.43Y-86.614
X148.59Y-84.455
X148.59Y-86.36
T2
X62.23Y-129.54
X62.865Y-60.325
X62.865Y-78.105
X64.135Y-54.61
X64.135Y-137.795
X64.77Y-133.35
X65.405Y-55.245
X66.04Y-52.705
X66.04Y-120.65
X66.04Y-127.635
X66.675Y-139.065
X67.31Y-107.95
X67.31Y-124.46
X68.58Y-104.14
X68.58Y-116.84
X68.58Y-136.525
X69.215Y-137.795
X69.85Y-104.775
X69.85Y-125.73
X71.12Y-105.41
X71.12Y-121.92
X72.39Y-132.08
X73.66Y-131.445
X74.295Y-78.105
X75.565Y-62.865
X75.565Y-65.405
X76.2Y-60.325
X76.835Y-61.595
X76.835Y-64.135
X76.835Y-69.215
X76.835Y-70.485
X76.835Y-71.755
X76.835Y-73.025
X76.835Y-129.54
X77.47Y-100.33
X78.74Y-128.905
X79.375Y-85.725
X80.645Y-85.725
X81.28Y-62.865
X81.915Y-85.725
X82.55Y-61.595
X83.185Y-85.725
X83.185Y-125.73
X83.82Y-64.135
X84.455Y-84.455
X85.09Y-66.675
X85.09Y-128.27
X85.725Y-85.725
X86.995Y-85.09
X86.995Y-96.52
X87.63Y-64.77
X88.265Y-84.455
X88.9Y-66.04
X90.17Y-66.04
X91.44Y-64.77
X91.44Y-75.565
X92.71Y-68.58
X92.71Y-76.835
X92.71Y-99.06
X93.98Y-69.85
X93.98Y-78.105
X94.615Y-52.705
X95.25Y-74.93
X96.52Y-73.66
X96.52Y-76.2
X96.52Y-80.01
X97.79Y-72.39
X97.79Y-78.74
X98.425Y-96.52
X99.06Y-71.12
X99.06Y-81.28
X99.695Y-91.44
X99.695Y-116.84
X100.33Y-77.47
X101.6Y-74.93
X102.87Y-72.39
X104.14Y-67.31
X104.14Y-82.55
X105.41Y-119.38
X105.41Y-121.92
X105.41Y-124.46
X109.22Y-93.98
X109.22Y-115.57
X116.205Y-83.82
X116.205Y-90.17
X116.205Y-92.71
X116.84Y-74.93
X117.475Y-96.52
X118.745Y-78.74
X118.745Y-84.455
X121.285Y-114.3
X121.92Y-58.674
X121.92Y-89.535
X123.19Y-60.96
X124.46Y-88.9
X125.095Y-53.975
X125.095Y-62.23
X125.73Y-85.725
X125.73Y-86.995
X126.365Y-84.455
X129.54Y-54.61
X130.175Y-51.435
X130.81Y-58.42
X130.81Y-85.09
X130.81Y-133.35
X134.62Y-77.47
X134.62Y-83.82
X135.255Y-57.785
X135.89Y-72.39
X135.89Y-74.93
X135.89Y-83.185
X136.525Y-57.15
X136.525Y-69.85
X136.525Y-113.665
X137.16Y-82.55
X137.795Y-52.705
X137.795Y-114.935
X138.43Y-66.04
X138.43Y-78.74
X139.065Y-55.88
X142.24Y-60.96
X142.24Y-72.39
X142.875Y-96.52
X142.875Y-99.06
X145.415Y-81.28
X145.415Y-84.455
X145.415Y-94.615
X151.13Y-87.63
T3
X60.325Y-80.01
X60.325Y-82.55
X60.325Y-85.09
X60.325Y-87.63
X60.325Y-90.17
X60.325Y-92.71
X60.325Y-95.25
X60.325Y-97.79
X60.325Y-100.33
X60.325Y-102.87
X60.325Y-105.41
X60.325Y-107.95
X60.325Y-110.49
X60.325Y-113.03
X60.325Y-115.57
X60.325Y-118.11
X60.325Y-120.65
X60.325Y-123.19
X60.325Y-125.73
X60.325Y-128.27
X75.565Y-80.01
X75.565Y-82.55
X75.565Y-85.09
X75.565Y-87.63
X75.565Y-90.17
X75.565Y-92.71
X75.565Y-95.25
X75.565Y-97.79
X75.565Y-100.33
X75.565Y-102.87
X75.565Y-105.41
X75.565Y-107.95
X75.565Y-110.49
X75.565Y-113.03
X75.565Y-115.57
X75.565Y-118.11
X75.565Y-120.65
X75.565Y-123.19
X75.565Y-125.73
X75.565Y-128.27
X88.315Y-90.17
X88.315Y-92.71
X88.315Y-95.25
X88.315Y-97.79
X88.315Y-100.33
X88.315Y-102.87
X88.315Y-105.41
X88.315Y-107.95
X88.315Y-110.49
X88.315Y-113.03
X88.315Y-115.57
X88.315Y-118.11
X88.315Y-120.65
X88.315Y-123.19
X88.315Y-125.73
X88.315Y-128.27
X95.835Y-90.17
X95.835Y-92.71
X95.835Y-95.25
X95.835Y-97.79
X95.835Y-100.33
X95.835Y-102.87
X95.835Y-105.41
X95.835Y-107.95
X95.835Y-110.49
X95.835Y-113.03
X95.835Y-115.57
X95.835Y-118.11
X95.835Y-120.65
X95.835Y-123.19
X95.835Y-125.73
X95.835Y-128.27
X103.555Y-90.17
X103.555Y-92.71
X103.555Y-95.25
X103.555Y-97.79
X103.555Y-100.33
X103.555Y-102.87
X103.555Y-105.41
X103.555Y-107.95
X103.555Y-110.49
X103.555Y-113.03
X103.555Y-115.57
X103.555Y-118.11
X103.555Y-120.65
X103.555Y-123.19
X103.555Y-125.73
X103.555Y-128.27
X107.315Y-59.69
X107.315Y-62.23
X107.315Y-64.77
X107.315Y-67.31
X107.315Y-69.85
X107.315Y-72.39
X107.315Y-74.93
X107.315Y-77.47
X107.315Y-80.01
X107.315Y-82.55
X111.075Y-90.17
X111.075Y-92.71
X111.075Y-95.25
X111.075Y-97.79
X111.075Y-100.33
X111.075Y-102.87
X111.075Y-105.41
X111.075Y-107.95
X111.075Y-110.49
X111.075Y-113.03
X111.075Y-115.57
X111.075Y-118.11
X111.075Y-120.65
X111.075Y-123.19
X111.075Y-125.73
X111.075Y-128.27
X114.935Y-59.69
X114.935Y-62.23
X114.935Y-64.77
X114.935Y-67.31
X114.935Y-69.85
X114.935Y-72.39
X114.935Y-74.93
X114.935Y-77.47
X114.935Y-80.01
X114.935Y-82.55
X118.795Y-90.17
X118.795Y-92.71
X118.795Y-95.25
X118.795Y-97.79
X118.795Y-100.33
X118.795Y-102.87
X118.795Y-105.41
X118.795Y-107.95
X118.795Y-110.49
X118.795Y-113.03
X118.795Y-115.57
X118.795Y-118.11
X118.795Y-120.65
X118.795Y-123.19
X118.795Y-125.73
X118.795Y-128.27
X120.015Y-59.69
X120.015Y-62.23
X120.015Y-64.77
X120.015Y-67.31
X120.015Y-69.85
X120.015Y-72.39
X120.015Y-74.93
X120.015Y-77.47
X120.015Y-80.01
X120.015Y-82.55
X126.315Y-90.17
X126.315Y-92.71
X126.315Y-95.25
X126.315Y-97.79
X126.315Y-100.33
X126.315Y-102.87
X126.315Y-105.41
X126.315Y-107.95
X126.315Y-110.49
X126.315Y-113.03
X126.315Y-115.57
X126.315Y-118.11
X126.315Y-120.65
X126.315Y-123.19
X126.315Y-125.73
X126.315Y-128.27
X127.635Y-59.69
X127.635Y-62.23
X127.635Y-64.77
X127.635Y-67.31
X127.635Y-69.85
X127.635Y-72.39
X127.635Y-74.93
X127.635Y-77.47
X127.635Y-80.01
X127.635Y-82.55
X132.715Y-59.69
X132.715Y-62.23
X132.715Y-64.77
X132.715Y-67.31
X132.715Y-69.85
X132.715Y-72.39
X132.715Y-74.93
X132.715Y-77.47
X132.715Y-80.01
X132.715Y-82.55
X134.035Y-90.17
X134.035Y-92.71
X134.035Y-95.25
X134.035Y-97.79
X134.035Y-100.33
X134.035Y-102.87
X134.035Y-105.41
X134.035Y-107.95
X134.035Y-110.49
X134.035Y-113.03
X134.035Y-115.57
X134.035Y-118.11
X134.035Y-120.65
X134.035Y-123.19
X134.035Y-125.73
X134.035Y-128.27
X140.335Y-59.69
X140.335Y-62.23
X140.335Y-64.77
X140.335Y-67.31
X140.335Y-69.85
X140.335Y-72.39
X140.335Y-74.93
X140.335Y-77.47
X140.335Y-80.01
X140.335Y-82.55
X141.555Y-90.17
X141.555Y-92.71
X141.555Y-95.25
X141.555Y-97.79
X141.555Y-100.33
X141.555Y-102.87
X141.555Y-105.41
X141.555Y-107.95
X141.555Y-110.49
X141.555Y-113.03
X141.555Y-115.57
X141.555Y-118.11
X141.555Y-120.65
X141.555Y-123.19
X141.555Y-125.73
X141.555Y-128.27
T4
X137.795Y-47.625
X140.335Y-47.625
T5
X78.105Y-47.625
X78.105Y-50.165
X78.105Y-138.43
X78.105Y-140.97
X80.645Y-47.625
X80.645Y-50.165
X80.645Y-138.43
X80.645Y-140.97
X83.185Y-47.625
X83.185Y-50.165
X83.185Y-138.43
X83.185Y-140.97
X85.725Y-47.625
X85.725Y-50.165
X85.725Y-138.43
X85.725Y-140.97
X88.265Y-47.625
X88.265Y-50.165
X88.265Y-138.43
X88.265Y-140.97
X90.805Y-47.625
X90.805Y-50.165
X90.805Y-138.43
X90.805Y-140.97
X93.345Y-47.625
X93.345Y-50.165
X93.345Y-138.43
X93.345Y-140.97
X95.885Y-47.625
X95.885Y-50.165
X95.885Y-138.43
X95.885Y-140.97
X98.425Y-47.625
X98.425Y-50.165
X98.425Y-138.43
X98.425Y-140.97
X100.965Y-47.625
X100.965Y-50.165
X100.965Y-138.43
X100.965Y-140.97
X103.505Y-47.625
X103.505Y-50.165
X103.505Y-138.43
X103.505Y-140.97
X106.045Y-47.625
X106.045Y-50.165
X106.045Y-138.43
X106.045Y-140.97
X108.585Y-47.625
X108.585Y-50.165
X108.585Y-138.43
X108.585Y-140.97
X111.125Y-47.625
X111.125Y-50.165
X111.125Y-138.43
X111.125Y-140.97
X113.665Y-47.625
X113.665Y-50.165
X113.665Y-138.43
X113.665Y-140.97
X116.205Y-47.625
X116.205Y-50.165
X116.205Y-138.43
X116.205Y-140.97
X118.745Y-47.625
X118.745Y-50.165
X118.745Y-138.43
X118.745Y-140.97
X121.285Y-47.625
X121.285Y-50.165
X121.285Y-138.43
X121.285Y-140.97
X123.825Y-47.625
X123.825Y-50.165
X123.825Y-138.43
X123.825Y-140.97
X126.365Y-47.625
X126.365Y-50.165
X126.365Y-138.43
X126.365Y-140.97
X146.685Y-59.69
X146.685Y-62.23
X146.685Y-64.77
X146.685Y-67.31
X146.685Y-69.85
X146.685Y-72.39
X146.685Y-74.93
X146.685Y-77.47
X146.685Y-80.01
X146.685Y-82.55
X149.225Y-59.69
X149.225Y-62.23
X149.225Y-64.77
X149.225Y-67.31
X149.225Y-69.85
X149.225Y-72.39
X149.225Y-74.93
X149.225Y-77.47
X149.225Y-80.01
X149.225Y-82.55
T6
X57.785Y-49.53
X57.785Y-139.065
X147.32Y-49.53
X147.32Y-139.065
T0
M30
