G04 #@! TF.FileFunction,Copper,L1,Top,Signal*
%FSLAX46Y46*%
G04 Gerber Fmt 4.6, Leading zero omitted, Abs format (unit mm)*
G04 Created by KiCad (PCBNEW 4.0.2-stable) date 27-3-2016 11:05:44*
%MOMM*%
G01*
G04 APERTURE LIST*
%ADD10C,0.150000*%
%ADD11C,0.600000*%
%ADD12R,1.200000X0.750000*%
%ADD13O,2.000000X1.200000*%
%ADD14R,2.000000X0.600000*%
%ADD15R,1.200000X0.900000*%
%ADD16R,1.500000X2.000000*%
%ADD17O,1.500000X2.000000*%
%ADD18R,1.727200X1.727200*%
%ADD19C,5.000000*%
%ADD20O,2.000000X1.500000*%
%ADD21O,1.506220X3.014980*%
%ADD22C,0.889000*%
%ADD23C,0.355600*%
%ADD24C,0.508000*%
%ADD25C,0.254000*%
G04 APERTURE END LIST*
D10*
D11*
X56515000Y-90170000D03*
X57785000Y-90805000D03*
X57785000Y-89535000D03*
X61976000Y-109220000D03*
X148590000Y-86360000D03*
X148590000Y-84455000D03*
X138430000Y-86614000D03*
X135890000Y-86614000D03*
X113030000Y-81280000D03*
X109855000Y-82550000D03*
X90805000Y-57785000D03*
X93345000Y-57785000D03*
X62230000Y-111760000D03*
X72390000Y-110490000D03*
X60325000Y-75565000D03*
X60325000Y-77470000D03*
X131064000Y-86614000D03*
X73025000Y-50165000D03*
X75565000Y-50165000D03*
D12*
X127320000Y-87630000D03*
X129220000Y-87630000D03*
X144465000Y-86360000D03*
X146365000Y-86360000D03*
X82235000Y-57785000D03*
X84135000Y-57785000D03*
D13*
X95835000Y-90170000D03*
X88315000Y-90170000D03*
X95835000Y-92710000D03*
X88315000Y-92710000D03*
X95835000Y-95250000D03*
X88315000Y-95250000D03*
X95835000Y-97790000D03*
X88315000Y-97790000D03*
X95835000Y-100330000D03*
X88315000Y-100330000D03*
X95835000Y-102870000D03*
X88315000Y-102870000D03*
X95835000Y-105410000D03*
X88315000Y-105410000D03*
X95835000Y-107950000D03*
X88315000Y-107950000D03*
X95835000Y-110490000D03*
X88315000Y-110490000D03*
X95835000Y-113030000D03*
X88315000Y-113030000D03*
X95835000Y-115570000D03*
X88315000Y-115570000D03*
X95835000Y-118110000D03*
X88315000Y-118110000D03*
X95835000Y-120650000D03*
X88315000Y-120650000D03*
X95835000Y-123190000D03*
X88315000Y-123190000D03*
X95835000Y-125730000D03*
X88315000Y-125730000D03*
X95835000Y-128270000D03*
X88315000Y-128270000D03*
X111075000Y-90170000D03*
X103555000Y-90170000D03*
X111075000Y-92710000D03*
X103555000Y-92710000D03*
X111075000Y-95250000D03*
X103555000Y-95250000D03*
X111075000Y-97790000D03*
X103555000Y-97790000D03*
X111075000Y-100330000D03*
X103555000Y-100330000D03*
X111075000Y-102870000D03*
X103555000Y-102870000D03*
X111075000Y-105410000D03*
X103555000Y-105410000D03*
X111075000Y-107950000D03*
X103555000Y-107950000D03*
X111075000Y-110490000D03*
X103555000Y-110490000D03*
X111075000Y-113030000D03*
X103555000Y-113030000D03*
X111075000Y-115570000D03*
X103555000Y-115570000D03*
X111075000Y-118110000D03*
X103555000Y-118110000D03*
X111075000Y-120650000D03*
X103555000Y-120650000D03*
X111075000Y-123190000D03*
X103555000Y-123190000D03*
X111075000Y-125730000D03*
X103555000Y-125730000D03*
X111075000Y-128270000D03*
X103555000Y-128270000D03*
X126315000Y-90170000D03*
X118795000Y-90170000D03*
X126315000Y-92710000D03*
X118795000Y-92710000D03*
X126315000Y-95250000D03*
X118795000Y-95250000D03*
X126315000Y-97790000D03*
X118795000Y-97790000D03*
X126315000Y-100330000D03*
X118795000Y-100330000D03*
X126315000Y-102870000D03*
X118795000Y-102870000D03*
X126315000Y-105410000D03*
X118795000Y-105410000D03*
X126315000Y-107950000D03*
X118795000Y-107950000D03*
X126315000Y-110490000D03*
X118795000Y-110490000D03*
X126315000Y-113030000D03*
X118795000Y-113030000D03*
X126315000Y-115570000D03*
X118795000Y-115570000D03*
X126315000Y-118110000D03*
X118795000Y-118110000D03*
X126315000Y-120650000D03*
X118795000Y-120650000D03*
X126315000Y-123190000D03*
X118795000Y-123190000D03*
X126315000Y-125730000D03*
X118795000Y-125730000D03*
X126315000Y-128270000D03*
X118795000Y-128270000D03*
X141555000Y-90170000D03*
X134035000Y-90170000D03*
X141555000Y-92710000D03*
X134035000Y-92710000D03*
X141555000Y-95250000D03*
X134035000Y-95250000D03*
X141555000Y-97790000D03*
X134035000Y-97790000D03*
X141555000Y-100330000D03*
X134035000Y-100330000D03*
X141555000Y-102870000D03*
X134035000Y-102870000D03*
X141555000Y-105410000D03*
X134035000Y-105410000D03*
X141555000Y-107950000D03*
X134035000Y-107950000D03*
X141555000Y-110490000D03*
X134035000Y-110490000D03*
X141555000Y-113030000D03*
X134035000Y-113030000D03*
X141555000Y-115570000D03*
X134035000Y-115570000D03*
X141555000Y-118110000D03*
X134035000Y-118110000D03*
X141555000Y-120650000D03*
X134035000Y-120650000D03*
X141555000Y-123190000D03*
X134035000Y-123190000D03*
X141555000Y-125730000D03*
X134035000Y-125730000D03*
X141555000Y-128270000D03*
X134035000Y-128270000D03*
X60325000Y-80010000D03*
X60325000Y-82550000D03*
X60325000Y-85090000D03*
X60325000Y-87630000D03*
X60325000Y-90170000D03*
X60325000Y-92710000D03*
X60325000Y-95250000D03*
X60325000Y-97790000D03*
X60325000Y-100330000D03*
X60325000Y-102870000D03*
X60325000Y-105410000D03*
X60325000Y-107950000D03*
X60325000Y-110490000D03*
X60325000Y-113030000D03*
X60325000Y-115570000D03*
X60325000Y-118110000D03*
X60325000Y-120650000D03*
X60325000Y-123190000D03*
X60325000Y-125730000D03*
X60325000Y-128270000D03*
X75565000Y-128270000D03*
X75565000Y-125730000D03*
X75565000Y-123190000D03*
X75565000Y-120650000D03*
X75565000Y-118110000D03*
X75565000Y-115570000D03*
X75565000Y-113030000D03*
X75565000Y-110490000D03*
X75565000Y-107950000D03*
X75565000Y-105410000D03*
X75565000Y-102870000D03*
X75565000Y-100330000D03*
X75565000Y-97790000D03*
X75565000Y-95250000D03*
X75565000Y-92710000D03*
X75565000Y-90170000D03*
X75565000Y-87630000D03*
X75565000Y-85090000D03*
X75565000Y-82550000D03*
X75565000Y-80010000D03*
D14*
X69595000Y-57785000D03*
X69595000Y-59055000D03*
X69595000Y-60325000D03*
X69595000Y-61595000D03*
X69595000Y-62865000D03*
X69595000Y-64135000D03*
X69595000Y-65405000D03*
X69595000Y-66675000D03*
X69595000Y-67945000D03*
X69595000Y-69215000D03*
X69595000Y-70485000D03*
X69595000Y-71755000D03*
X69595000Y-73025000D03*
X69595000Y-74295000D03*
X78995000Y-74295000D03*
X78995000Y-73025000D03*
X78995000Y-71755000D03*
X78995000Y-70485000D03*
X78995000Y-69215000D03*
X78995000Y-67945000D03*
X78995000Y-66675000D03*
X78995000Y-65405000D03*
X78995000Y-64135000D03*
X78995000Y-62865000D03*
X78995000Y-61595000D03*
X78995000Y-60325000D03*
X78995000Y-59055000D03*
X78995000Y-57785000D03*
D15*
X66505000Y-57785000D03*
X64305000Y-57785000D03*
X144315000Y-88265000D03*
X146515000Y-88265000D03*
D13*
X120015000Y-59690000D03*
X120015000Y-62230000D03*
X120015000Y-64770000D03*
X120015000Y-67310000D03*
X120015000Y-69850000D03*
X120015000Y-72390000D03*
X120015000Y-74930000D03*
X120015000Y-77470000D03*
X120015000Y-80010000D03*
X120015000Y-82550000D03*
X127635000Y-82550000D03*
X127635000Y-80010000D03*
X127635000Y-77470000D03*
X127635000Y-74930000D03*
X127635000Y-72390000D03*
X127635000Y-69850000D03*
X127635000Y-67310000D03*
X127635000Y-64770000D03*
X127635000Y-62230000D03*
X127635000Y-59690000D03*
X132715000Y-59690000D03*
X132715000Y-62230000D03*
X132715000Y-64770000D03*
X132715000Y-67310000D03*
X132715000Y-69850000D03*
X132715000Y-72390000D03*
X132715000Y-74930000D03*
X132715000Y-77470000D03*
X132715000Y-80010000D03*
X132715000Y-82550000D03*
X140335000Y-82550000D03*
X140335000Y-80010000D03*
X140335000Y-77470000D03*
X140335000Y-74930000D03*
X140335000Y-72390000D03*
X140335000Y-69850000D03*
X140335000Y-67310000D03*
X140335000Y-64770000D03*
X140335000Y-62230000D03*
X140335000Y-59690000D03*
X107315000Y-59690000D03*
X107315000Y-62230000D03*
X107315000Y-64770000D03*
X107315000Y-67310000D03*
X107315000Y-69850000D03*
X107315000Y-72390000D03*
X107315000Y-74930000D03*
X107315000Y-77470000D03*
X107315000Y-80010000D03*
X107315000Y-82550000D03*
X114935000Y-82550000D03*
X114935000Y-80010000D03*
X114935000Y-77470000D03*
X114935000Y-74930000D03*
X114935000Y-72390000D03*
X114935000Y-69850000D03*
X114935000Y-67310000D03*
X114935000Y-64770000D03*
X114935000Y-62230000D03*
X114935000Y-59690000D03*
D16*
X78105000Y-50165000D03*
D17*
X78105000Y-47625000D03*
X80645000Y-50165000D03*
X80645000Y-47625000D03*
X83185000Y-50165000D03*
X83185000Y-47625000D03*
X85725000Y-50165000D03*
X85725000Y-47625000D03*
X88265000Y-50165000D03*
X88265000Y-47625000D03*
X90805000Y-50165000D03*
X90805000Y-47625000D03*
X93345000Y-50165000D03*
X93345000Y-47625000D03*
X95885000Y-50165000D03*
X95885000Y-47625000D03*
X98425000Y-50165000D03*
X98425000Y-47625000D03*
X100965000Y-50165000D03*
X100965000Y-47625000D03*
X103505000Y-50165000D03*
X103505000Y-47625000D03*
X106045000Y-50165000D03*
X106045000Y-47625000D03*
X108585000Y-50165000D03*
X108585000Y-47625000D03*
X111125000Y-50165000D03*
X111125000Y-47625000D03*
X113665000Y-50165000D03*
X113665000Y-47625000D03*
X116205000Y-50165000D03*
X116205000Y-47625000D03*
X118745000Y-50165000D03*
X118745000Y-47625000D03*
X121285000Y-50165000D03*
X121285000Y-47625000D03*
X123825000Y-50165000D03*
X123825000Y-47625000D03*
X126365000Y-50165000D03*
X126365000Y-47625000D03*
D18*
X126365000Y-138430000D03*
D17*
X126365000Y-140970000D03*
X123825000Y-138430000D03*
X123825000Y-140970000D03*
X121285000Y-138430000D03*
X121285000Y-140970000D03*
X118745000Y-138430000D03*
X118745000Y-140970000D03*
X116205000Y-138430000D03*
X116205000Y-140970000D03*
X113665000Y-138430000D03*
X113665000Y-140970000D03*
X111125000Y-138430000D03*
X111125000Y-140970000D03*
X108585000Y-138430000D03*
X108585000Y-140970000D03*
X106045000Y-138430000D03*
X106045000Y-140970000D03*
X103505000Y-138430000D03*
X103505000Y-140970000D03*
X100965000Y-138430000D03*
X100965000Y-140970000D03*
X98425000Y-138430000D03*
X98425000Y-140970000D03*
X95885000Y-138430000D03*
X95885000Y-140970000D03*
X93345000Y-138430000D03*
X93345000Y-140970000D03*
X90805000Y-138430000D03*
X90805000Y-140970000D03*
X88265000Y-138430000D03*
X88265000Y-140970000D03*
X85725000Y-138430000D03*
X85725000Y-140970000D03*
X83185000Y-138430000D03*
X83185000Y-140970000D03*
X80645000Y-138430000D03*
X80645000Y-140970000D03*
X78105000Y-138430000D03*
X78105000Y-140970000D03*
D19*
X57785000Y-49530000D03*
X57785000Y-139065000D03*
X147320000Y-139065000D03*
X147320000Y-49530000D03*
D18*
X146685000Y-59690000D03*
D20*
X149225000Y-59690000D03*
X146685000Y-62230000D03*
X149225000Y-62230000D03*
X146685000Y-64770000D03*
X149225000Y-64770000D03*
X146685000Y-67310000D03*
X149225000Y-67310000D03*
X146685000Y-69850000D03*
X149225000Y-69850000D03*
X146685000Y-72390000D03*
X149225000Y-72390000D03*
X146685000Y-74930000D03*
X149225000Y-74930000D03*
X146685000Y-77470000D03*
X149225000Y-77470000D03*
X146685000Y-80010000D03*
X149225000Y-80010000D03*
X146685000Y-82550000D03*
X149225000Y-82550000D03*
D21*
X137795000Y-47625000D03*
X140335000Y-47625000D03*
D22*
X76835000Y-129540000D03*
X78740000Y-128905000D03*
X73660000Y-131445000D03*
X68580000Y-136525000D03*
X65405000Y-55245000D03*
X66040000Y-127635000D03*
X66040000Y-120650000D03*
X109220000Y-93980000D03*
X116205000Y-92710000D03*
X109220000Y-115570000D03*
X137795000Y-114935000D03*
X121285000Y-114300000D03*
X151130000Y-87630000D03*
X136525000Y-113665000D03*
X64135000Y-54610000D03*
X85090000Y-128270000D03*
X121920000Y-58674000D03*
X72390000Y-132080000D03*
X83185000Y-125730000D03*
X86995000Y-96520000D03*
X117475000Y-96520000D03*
X77470000Y-100330000D03*
X94615000Y-52705000D03*
X66040000Y-52705000D03*
X62230000Y-129540000D03*
X64770000Y-133350000D03*
X64135000Y-137795000D03*
X66675000Y-139065000D03*
X87630000Y-64770000D03*
X88900000Y-66040000D03*
X90170000Y-66040000D03*
X67310000Y-124460000D03*
X67310000Y-107950000D03*
X69850000Y-104775000D03*
X69850000Y-125730000D03*
X105410000Y-124460000D03*
X102870000Y-72390000D03*
X71120000Y-105410000D03*
X71120000Y-121920000D03*
X101600000Y-74930000D03*
X105410000Y-121920000D03*
X68580000Y-116840000D03*
X68580000Y-104140000D03*
X100330000Y-77470000D03*
X105410000Y-119380000D03*
X99695000Y-116840000D03*
X96520000Y-80010000D03*
X142875000Y-99060000D03*
X92710000Y-99060000D03*
X91440000Y-75565000D03*
X91440000Y-64770000D03*
X92710000Y-76835000D03*
X92710000Y-68580000D03*
X142875000Y-96520000D03*
X93980000Y-78105000D03*
X93980000Y-69850000D03*
X98425000Y-96520000D03*
X99695000Y-91440000D03*
X95250000Y-74930000D03*
X74295000Y-78105000D03*
X76200000Y-60325000D03*
X116205000Y-90170000D03*
X130810000Y-133350000D03*
X62865000Y-60325000D03*
X62865000Y-78105000D03*
X145415000Y-94615000D03*
X130175000Y-51435000D03*
X123190000Y-60960000D03*
X69215000Y-137795000D03*
X76835000Y-71755000D03*
X97790000Y-72390000D03*
X97790000Y-78740000D03*
X76835000Y-69215000D03*
X104140000Y-82550000D03*
X104140000Y-67310000D03*
X76835000Y-61595000D03*
X83185000Y-85725000D03*
X125730000Y-85725000D03*
X75565000Y-62865000D03*
X125730000Y-86995000D03*
X81915000Y-85725000D03*
X80645000Y-85725000D03*
X124460000Y-88900000D03*
X76835000Y-64135000D03*
X75565000Y-65405000D03*
X121920000Y-89535000D03*
X79375000Y-85725000D03*
X76835000Y-73025000D03*
X96520000Y-73660000D03*
X96520000Y-76200000D03*
X76835000Y-70485000D03*
X99060000Y-71120000D03*
X99060000Y-81280000D03*
X88265000Y-84455000D03*
X85090000Y-66675000D03*
X118745000Y-84455000D03*
X118745000Y-78740000D03*
X86995000Y-85090000D03*
X83820000Y-64135000D03*
X81280000Y-62865000D03*
X84455000Y-84455000D03*
X116840000Y-74930000D03*
X116205000Y-83820000D03*
X126365000Y-84455000D03*
X85725000Y-85725000D03*
X82550000Y-61595000D03*
X137160000Y-82550000D03*
X137795000Y-52705000D03*
X145415000Y-84455000D03*
X130810000Y-85090000D03*
X129540000Y-54610000D03*
X130810000Y-58420000D03*
X135890000Y-72390000D03*
X136525000Y-69850000D03*
X135255000Y-57785000D03*
X136525000Y-57150000D03*
X145415000Y-81280000D03*
X135890000Y-83185000D03*
X138430000Y-66040000D03*
X139065000Y-55880000D03*
X125095000Y-62230000D03*
X125095000Y-53975000D03*
X135890000Y-74930000D03*
X134620000Y-83820000D03*
X142240000Y-60960000D03*
X142240000Y-72390000D03*
X138430000Y-78740000D03*
X134620000Y-77470000D03*
D23*
X78105000Y-130175000D02*
X80010000Y-130175000D01*
X122555000Y-132080000D02*
X120624993Y-130149993D01*
X122555000Y-139700000D02*
X122555000Y-132080000D01*
X123825000Y-140970000D02*
X122555000Y-139700000D01*
X120624993Y-130149993D02*
X80010000Y-130175000D01*
X77470000Y-130175000D02*
X78105000Y-130175000D01*
X76835000Y-129540000D02*
X77470000Y-130175000D01*
X79400398Y-129540000D02*
X79375000Y-129540000D01*
X79375000Y-129540000D02*
X78740000Y-128905000D01*
X81280000Y-129540000D02*
X79400398Y-129540000D01*
X79400398Y-129540000D02*
X79400398Y-129540000D01*
X123825000Y-131445000D02*
X121920000Y-129540000D01*
X121920000Y-129540000D02*
X81280000Y-129540000D01*
X123825000Y-131445000D02*
X123825000Y-138430000D01*
X63500000Y-123190000D02*
X68326000Y-128016000D01*
X121285000Y-132715000D02*
X119380000Y-130810000D01*
X121285000Y-138430000D02*
X121285000Y-132715000D01*
X63500000Y-123190000D02*
X60325000Y-123190000D01*
X75565000Y-130810000D02*
X119380000Y-130810000D01*
X72771000Y-128016000D02*
X75565000Y-130810000D01*
X68326000Y-128016000D02*
X72771000Y-128016000D01*
X57785000Y-129540000D02*
X57785000Y-119380000D01*
X57785000Y-119380000D02*
X59055000Y-118110000D01*
X60325000Y-118110000D02*
X59055000Y-118110000D01*
X111125000Y-135890000D02*
X111125000Y-138430000D01*
X63500000Y-135255000D02*
X57785000Y-129540000D01*
X110490000Y-135255000D02*
X63500000Y-135255000D01*
X111125000Y-135890000D02*
X110490000Y-135255000D01*
X73660000Y-131445000D02*
X74295000Y-132080000D01*
X81915000Y-132080000D02*
X74295000Y-132080000D01*
X117475000Y-132080000D02*
X81915000Y-132080000D01*
X118745000Y-138430000D02*
X118745000Y-133350000D01*
X118745000Y-133350000D02*
X117475000Y-132080000D01*
X57150000Y-115570000D02*
X58420000Y-114300000D01*
X67310000Y-115570000D02*
X75565000Y-115570000D01*
X66040000Y-114300000D02*
X58420000Y-114300000D01*
X67310000Y-115570000D02*
X66040000Y-114300000D01*
X57150000Y-130175000D02*
X57150000Y-115570000D01*
X68580000Y-136525000D02*
X63500000Y-136525000D01*
X63500000Y-136525000D02*
X57150000Y-130175000D01*
X118745000Y-47625000D02*
X117475000Y-48895000D01*
X117475000Y-52070000D02*
X115570000Y-53975000D01*
X117475000Y-48895000D02*
X117475000Y-52070000D01*
X115570000Y-53975000D02*
X115570000Y-54000398D01*
X115570000Y-54000398D02*
X115570000Y-53975000D01*
X94640398Y-55219602D02*
X65405000Y-55245000D01*
X95885000Y-53975000D02*
X94640398Y-55219602D01*
X114935000Y-53975000D02*
X95885000Y-53975000D01*
X114935000Y-53975000D02*
X115570000Y-53975000D01*
X74930000Y-131445000D02*
X72390000Y-128905000D01*
X76200000Y-131445000D02*
X74930000Y-131445000D01*
X76200000Y-131445000D02*
X80645000Y-131445000D01*
X120015000Y-135255000D02*
X120015000Y-133350000D01*
X120015000Y-139700000D02*
X120015000Y-135255000D01*
X121285000Y-140970000D02*
X120015000Y-139700000D01*
X118110000Y-131445000D02*
X80645000Y-131445000D01*
X120015000Y-133350000D02*
X118110000Y-131445000D01*
X67310000Y-128905000D02*
X66040000Y-127635000D01*
X72390000Y-128905000D02*
X67310000Y-128905000D01*
X75565000Y-120650000D02*
X66040000Y-120650000D01*
X114935000Y-135255000D02*
X113665000Y-133985000D01*
X114935000Y-139700000D02*
X114935000Y-135255000D01*
X116205000Y-140970000D02*
X114935000Y-139700000D01*
X64135000Y-128270000D02*
X60325000Y-128270000D01*
X69850000Y-133985000D02*
X64135000Y-128270000D01*
X113665000Y-133985000D02*
X69850000Y-133985000D01*
X107315000Y-114300000D02*
X108585000Y-115570000D01*
X108585000Y-115570000D02*
X109220000Y-115570000D01*
X95835000Y-115570000D02*
X98425000Y-115570000D01*
X114935000Y-93980000D02*
X116205000Y-92710000D01*
X109220000Y-93980000D02*
X114935000Y-93980000D01*
X99695000Y-114300000D02*
X107315000Y-114300000D01*
X98425000Y-115570000D02*
X99695000Y-114300000D01*
X114935000Y-115570000D02*
X111075000Y-115570000D01*
X116205000Y-114300000D02*
X121285000Y-114300000D01*
X114935000Y-115570000D02*
X116205000Y-114300000D01*
X144145000Y-94615000D02*
X151130000Y-87630000D01*
X144145000Y-113030000D02*
X144145000Y-94615000D01*
X142875000Y-114300000D02*
X144145000Y-113030000D01*
X138430000Y-114300000D02*
X142875000Y-114300000D01*
X137795000Y-114935000D02*
X138430000Y-114300000D01*
X130175000Y-115570000D02*
X131445000Y-114300000D01*
X131445000Y-114300000D02*
X135890000Y-114300000D01*
X135890000Y-114300000D02*
X136525000Y-113665000D01*
X126315000Y-115570000D02*
X130175000Y-115570000D01*
X116205000Y-50165000D02*
X116205000Y-52070000D01*
X116205000Y-52070000D02*
X114935000Y-53340000D01*
X64770000Y-53975000D02*
X64135000Y-54610000D01*
X94615000Y-53975000D02*
X95250000Y-53340000D01*
X95250000Y-53340000D02*
X114935000Y-53340000D01*
X94615000Y-53975000D02*
X64770000Y-53975000D01*
X116205000Y-135255000D02*
X114300000Y-133350000D01*
X116205000Y-138430000D02*
X116205000Y-135255000D01*
X62865000Y-125730000D02*
X60325000Y-125730000D01*
X70485000Y-133350000D02*
X62865000Y-125730000D01*
X114300000Y-133350000D02*
X70485000Y-133350000D01*
X58420000Y-128905000D02*
X64135000Y-134620000D01*
X58420000Y-128905000D02*
X58420000Y-121285000D01*
X58420000Y-121285000D02*
X59055000Y-120650000D01*
X60325000Y-120650000D02*
X59055000Y-120650000D01*
X112395000Y-135890000D02*
X111125000Y-134620000D01*
X112395000Y-139700000D02*
X112395000Y-135890000D01*
X112395000Y-139700000D02*
X111125000Y-140970000D01*
X111125000Y-134620000D02*
X64135000Y-134620000D01*
X79502000Y-127762000D02*
X80010000Y-128270000D01*
X76835000Y-128270000D02*
X77343000Y-127762000D01*
X77343000Y-127762000D02*
X79502000Y-127762000D01*
X76835000Y-128270000D02*
X75565000Y-128270000D01*
X80010000Y-128270000D02*
X85090000Y-128270000D01*
X121666000Y-58420000D02*
X121920000Y-58674000D01*
X110490000Y-59690000D02*
X111760000Y-58420000D01*
X110490000Y-59690000D02*
X107315000Y-59690000D01*
X116205000Y-58420000D02*
X121285000Y-58420000D01*
X111760000Y-58420000D02*
X116205000Y-58420000D01*
X121285000Y-58420000D02*
X121666000Y-58420000D01*
X116205000Y-109220000D02*
X121920000Y-109220000D01*
X114935000Y-110490000D02*
X116205000Y-109220000D01*
X121920000Y-109220000D02*
X123190000Y-110490000D01*
X126315000Y-110490000D02*
X123190000Y-110490000D01*
X114935000Y-110490000D02*
X111075000Y-110490000D01*
X126315000Y-110490000D02*
X130175000Y-110490000D01*
X139065000Y-110490000D02*
X141555000Y-110490000D01*
X137795000Y-109220000D02*
X139065000Y-110490000D01*
X131445000Y-109220000D02*
X137795000Y-109220000D01*
X130175000Y-110490000D02*
X131445000Y-109220000D01*
X95835000Y-110490000D02*
X98425000Y-110490000D01*
X98425000Y-110490000D02*
X99695000Y-109220000D01*
X99695000Y-109220000D02*
X107315000Y-109220000D01*
X107315000Y-109220000D02*
X108585000Y-110490000D01*
X108585000Y-110490000D02*
X111075000Y-110490000D01*
X73025000Y-132715000D02*
X72390000Y-132080000D01*
X82550000Y-132715000D02*
X73025000Y-132715000D01*
X116205000Y-132715000D02*
X82550000Y-132715000D01*
X118745000Y-140970000D02*
X117475000Y-139700000D01*
X117475000Y-139700000D02*
X117475000Y-133985000D01*
X117475000Y-133985000D02*
X116205000Y-132715000D01*
X75565000Y-125730000D02*
X83185000Y-125730000D01*
X92710000Y-97790000D02*
X95835000Y-97790000D01*
X91440000Y-96520000D02*
X92710000Y-97790000D01*
X86995000Y-96520000D02*
X91440000Y-96520000D01*
X116205000Y-96520000D02*
X117475000Y-96520000D01*
X117475000Y-96520000D02*
X121920000Y-96520000D01*
X126315000Y-97790000D02*
X123190000Y-97790000D01*
X121920000Y-96520000D02*
X123190000Y-97790000D01*
X114935000Y-97790000D02*
X116205000Y-96520000D01*
X114935000Y-97790000D02*
X111075000Y-97790000D01*
X126315000Y-97790000D02*
X130175000Y-97790000D01*
X139065000Y-97790000D02*
X141555000Y-97790000D01*
X137795000Y-96520000D02*
X139065000Y-97790000D01*
X131445000Y-96520000D02*
X137795000Y-96520000D01*
X130175000Y-97790000D02*
X131445000Y-96520000D01*
X95835000Y-97790000D02*
X98425000Y-97790000D01*
X98425000Y-97790000D02*
X99695000Y-96520000D01*
X99695000Y-96520000D02*
X107315000Y-96520000D01*
X107315000Y-96520000D02*
X108585000Y-97790000D01*
X108585000Y-97790000D02*
X111075000Y-97790000D01*
X88315000Y-118110000D02*
X85725000Y-118110000D01*
X76200000Y-105410000D02*
X75565000Y-105410000D01*
X81280000Y-110490000D02*
X76200000Y-105410000D01*
X81280000Y-113665000D02*
X81280000Y-110490000D01*
X85725000Y-118110000D02*
X81280000Y-113665000D01*
X118795000Y-118110000D02*
X116205000Y-118110000D01*
X107315000Y-118110000D02*
X108585000Y-119380000D01*
X108585000Y-119380000D02*
X114935000Y-119380000D01*
X114935000Y-119380000D02*
X116205000Y-118110000D01*
X107315000Y-118110000D02*
X103555000Y-118110000D01*
X118795000Y-118110000D02*
X123190000Y-118110000D01*
X131445000Y-118110000D02*
X134035000Y-118110000D01*
X130175000Y-119380000D02*
X131445000Y-118110000D01*
X124460000Y-119380000D02*
X130175000Y-119380000D01*
X123190000Y-118110000D02*
X124460000Y-119380000D01*
X88315000Y-118110000D02*
X90805000Y-118110000D01*
X90805000Y-118110000D02*
X92075000Y-119380000D01*
X92075000Y-119380000D02*
X98425000Y-119380000D01*
X98425000Y-119380000D02*
X99695000Y-118110000D01*
X99695000Y-118110000D02*
X103555000Y-118110000D01*
X86995000Y-115570000D02*
X83820000Y-112395000D01*
X88315000Y-115570000D02*
X86995000Y-115570000D01*
X76835000Y-102870000D02*
X75565000Y-102870000D01*
X83820000Y-109855000D02*
X76835000Y-102870000D01*
X83820000Y-112395000D02*
X83820000Y-109855000D01*
X118795000Y-115570000D02*
X116205000Y-115570000D01*
X107315000Y-115570000D02*
X108585000Y-116840000D01*
X108585000Y-116840000D02*
X114935000Y-116840000D01*
X114935000Y-116840000D02*
X116205000Y-115570000D01*
X107315000Y-115570000D02*
X103555000Y-115570000D01*
X118795000Y-115570000D02*
X123190000Y-115570000D01*
X131445000Y-115570000D02*
X134035000Y-115570000D01*
X130175000Y-116840000D02*
X131445000Y-115570000D01*
X124460000Y-116840000D02*
X130175000Y-116840000D01*
X123190000Y-115570000D02*
X124460000Y-116840000D01*
X88315000Y-115570000D02*
X90805000Y-115570000D01*
X90805000Y-115570000D02*
X92075000Y-116840000D01*
X92075000Y-116840000D02*
X98425000Y-116840000D01*
X98425000Y-116840000D02*
X99695000Y-115570000D01*
X99695000Y-115570000D02*
X103555000Y-115570000D01*
X77470000Y-100965000D02*
X77470000Y-100330000D01*
X92075000Y-113030000D02*
X90805000Y-111760000D01*
X90805000Y-111760000D02*
X86995000Y-111760000D01*
X86995000Y-111760000D02*
X86360000Y-111125000D01*
X86360000Y-111125000D02*
X86360000Y-109855000D01*
X86360000Y-109855000D02*
X77470000Y-100965000D01*
X95835000Y-113030000D02*
X92075000Y-113030000D01*
X116205000Y-111760000D02*
X121920000Y-111760000D01*
X114935000Y-113030000D02*
X116205000Y-111760000D01*
X121920000Y-111760000D02*
X123190000Y-113030000D01*
X126315000Y-113030000D02*
X123190000Y-113030000D01*
X114935000Y-113030000D02*
X111075000Y-113030000D01*
X126315000Y-113030000D02*
X130175000Y-113030000D01*
X139065000Y-113030000D02*
X141555000Y-113030000D01*
X137795000Y-111760000D02*
X139065000Y-113030000D01*
X131445000Y-111760000D02*
X137795000Y-111760000D01*
X130175000Y-113030000D02*
X131445000Y-111760000D01*
X95835000Y-113030000D02*
X98425000Y-113030000D01*
X98425000Y-113030000D02*
X99695000Y-111760000D01*
X99695000Y-111760000D02*
X107315000Y-111760000D01*
X107315000Y-111760000D02*
X108585000Y-113030000D01*
X108585000Y-113030000D02*
X111075000Y-113030000D01*
X94615000Y-52705000D02*
X66040000Y-52705000D01*
X69850000Y-81915000D02*
X69850000Y-81915000D01*
X81280000Y-100965000D02*
X81280000Y-99695000D01*
X81280000Y-99695000D02*
X78105000Y-96520000D01*
X69850000Y-82550000D02*
X69850000Y-81915000D01*
X74295000Y-93980000D02*
X69850000Y-89535000D01*
X69850000Y-89535000D02*
X69850000Y-82550000D01*
X95835000Y-107950000D02*
X92710000Y-107950000D01*
X78105000Y-95250000D02*
X76835000Y-93980000D01*
X78105000Y-96520000D02*
X78105000Y-95250000D01*
X86995000Y-106680000D02*
X81280000Y-100965000D01*
X91440000Y-106680000D02*
X86995000Y-106680000D01*
X92710000Y-107950000D02*
X91440000Y-106680000D01*
X76835000Y-93980000D02*
X74295000Y-93980000D01*
X67945000Y-80010000D02*
X65405000Y-80010000D01*
X65405000Y-80010000D02*
X60325000Y-80010000D01*
X69850000Y-81915000D02*
X67945000Y-80010000D01*
X116205000Y-106680000D02*
X121920000Y-106680000D01*
X114935000Y-107950000D02*
X116205000Y-106680000D01*
X121920000Y-106680000D02*
X123190000Y-107950000D01*
X126315000Y-107950000D02*
X123190000Y-107950000D01*
X114935000Y-107950000D02*
X111075000Y-107950000D01*
X126315000Y-107950000D02*
X130175000Y-107950000D01*
X139065000Y-107950000D02*
X141555000Y-107950000D01*
X137795000Y-106680000D02*
X139065000Y-107950000D01*
X131445000Y-106680000D02*
X137795000Y-106680000D01*
X130175000Y-107950000D02*
X131445000Y-106680000D01*
X95835000Y-107950000D02*
X98425000Y-107950000D01*
X98425000Y-107950000D02*
X99695000Y-106680000D01*
X99695000Y-106680000D02*
X107315000Y-106680000D01*
X107315000Y-106680000D02*
X108585000Y-107950000D01*
X108585000Y-107950000D02*
X111075000Y-107950000D01*
X69595000Y-69215000D02*
X64135000Y-69215000D01*
X58420000Y-74930000D02*
X64135000Y-69215000D01*
X58420000Y-80645000D02*
X58420000Y-74930000D01*
X58420000Y-80645000D02*
X60325000Y-82550000D01*
X64770000Y-133350000D02*
X64770000Y-132080000D01*
X64770000Y-132080000D02*
X62230000Y-129540000D01*
X69595000Y-67945000D02*
X64135000Y-67945000D01*
X57785000Y-83185000D02*
X57785000Y-74295000D01*
X57785000Y-74295000D02*
X64135000Y-67945000D01*
X57785000Y-83185000D02*
X59690000Y-85090000D01*
X60325000Y-85090000D02*
X59690000Y-85090000D01*
X69595000Y-66675000D02*
X64135000Y-66675000D01*
X57150000Y-85090000D02*
X57150000Y-73660000D01*
X57150000Y-73660000D02*
X64135000Y-66675000D01*
X57150000Y-85090000D02*
X59690000Y-87630000D01*
X63500000Y-137795000D02*
X64135000Y-137795000D01*
X60325000Y-87630000D02*
X61595000Y-87630000D01*
X63500000Y-137795000D02*
X63500000Y-137795000D01*
X56515000Y-130810000D02*
X63500000Y-137795000D01*
X56515000Y-95250000D02*
X56515000Y-130810000D01*
X57785000Y-93980000D02*
X56515000Y-95250000D01*
X61595000Y-93980000D02*
X57785000Y-93980000D01*
X62230000Y-93345000D02*
X61595000Y-93980000D01*
X62230000Y-88265000D02*
X62230000Y-93345000D01*
X61595000Y-87630000D02*
X62230000Y-88265000D01*
X60325000Y-87630000D02*
X59690000Y-87630000D01*
X60325000Y-90170000D02*
X58420000Y-92075000D01*
X55245000Y-93345000D02*
X55245000Y-132080000D01*
X55245000Y-132080000D02*
X62865000Y-139700000D01*
X66040000Y-139700000D02*
X66675000Y-139065000D01*
X62865000Y-139700000D02*
X66040000Y-139700000D01*
X56515000Y-92075000D02*
X55245000Y-93345000D01*
X57150000Y-92075000D02*
X56515000Y-92075000D01*
X58420000Y-92075000D02*
X57150000Y-92075000D01*
X60325000Y-90170000D02*
X56515000Y-86360000D01*
X69595000Y-65405000D02*
X64135000Y-65405000D01*
X56515000Y-73025000D02*
X56515000Y-86360000D01*
X56515000Y-73025000D02*
X64135000Y-65405000D01*
X88315000Y-113030000D02*
X86360000Y-113030000D01*
X75565000Y-100330000D02*
X75565000Y-100330000D01*
X85090000Y-109855000D02*
X75565000Y-100330000D01*
X85090000Y-111760000D02*
X85090000Y-109855000D01*
X86360000Y-113030000D02*
X85090000Y-111760000D01*
X118795000Y-113030000D02*
X116205000Y-113030000D01*
X107315000Y-113030000D02*
X108585000Y-114300000D01*
X108585000Y-114300000D02*
X114935000Y-114300000D01*
X114935000Y-114300000D02*
X116205000Y-113030000D01*
X107315000Y-113030000D02*
X103555000Y-113030000D01*
X118795000Y-113030000D02*
X121920000Y-113030000D01*
X131445000Y-113030000D02*
X134035000Y-113030000D01*
X130175000Y-114300000D02*
X131445000Y-113030000D01*
X123190000Y-114300000D02*
X130175000Y-114300000D01*
X121920000Y-113030000D02*
X123190000Y-114300000D01*
X88315000Y-113030000D02*
X90805000Y-113030000D01*
X90805000Y-113030000D02*
X92075000Y-114300000D01*
X92075000Y-114300000D02*
X98425000Y-114300000D01*
X98425000Y-114300000D02*
X99695000Y-113030000D01*
X99695000Y-113030000D02*
X103555000Y-113030000D01*
X79375000Y-101600000D02*
X79375000Y-100330000D01*
X76835000Y-97790000D02*
X75565000Y-97790000D01*
X78105000Y-99060000D02*
X76835000Y-97790000D01*
X79375000Y-100330000D02*
X78105000Y-99060000D01*
X88315000Y-110490000D02*
X88265000Y-110490000D01*
X88265000Y-110490000D02*
X79375000Y-101600000D01*
X118795000Y-110490000D02*
X116205000Y-110490000D01*
X107315000Y-110490000D02*
X108585000Y-111760000D01*
X108585000Y-111760000D02*
X114935000Y-111760000D01*
X114935000Y-111760000D02*
X116205000Y-110490000D01*
X107315000Y-110490000D02*
X103555000Y-110490000D01*
X118795000Y-110490000D02*
X121920000Y-110490000D01*
X131445000Y-110490000D02*
X134035000Y-110490000D01*
X130175000Y-111760000D02*
X131445000Y-110490000D01*
X123190000Y-111760000D02*
X130175000Y-111760000D01*
X121920000Y-110490000D02*
X123190000Y-111760000D01*
X88315000Y-110490000D02*
X90805000Y-110490000D01*
X90805000Y-110490000D02*
X92075000Y-111760000D01*
X92075000Y-111760000D02*
X98425000Y-111760000D01*
X98425000Y-111760000D02*
X99695000Y-110490000D01*
X99695000Y-110490000D02*
X103555000Y-110490000D01*
X80327500Y-101282500D02*
X80327500Y-100012500D01*
X80327500Y-100012500D02*
X78740000Y-98425000D01*
X88315000Y-107950000D02*
X86995000Y-107950000D01*
X75565000Y-95250000D02*
X75565000Y-95250000D01*
X78740000Y-98425000D02*
X75565000Y-95250000D01*
X78740000Y-98425000D02*
X78740000Y-98425000D01*
X86995000Y-107950000D02*
X80327500Y-101282500D01*
X118795000Y-107950000D02*
X116205000Y-107950000D01*
X107315000Y-107950000D02*
X108585000Y-109220000D01*
X108585000Y-109220000D02*
X114935000Y-109220000D01*
X114935000Y-109220000D02*
X116205000Y-107950000D01*
X107315000Y-107950000D02*
X103555000Y-107950000D01*
X118795000Y-107950000D02*
X121920000Y-107950000D01*
X131445000Y-107950000D02*
X134035000Y-107950000D01*
X130175000Y-109220000D02*
X131445000Y-107950000D01*
X123190000Y-109220000D02*
X130175000Y-109220000D01*
X121920000Y-107950000D02*
X123190000Y-109220000D01*
X88315000Y-107950000D02*
X90805000Y-107950000D01*
X90805000Y-107950000D02*
X92075000Y-109220000D01*
X92075000Y-109220000D02*
X98425000Y-109220000D01*
X98425000Y-109220000D02*
X99695000Y-107950000D01*
X99695000Y-107950000D02*
X103555000Y-107950000D01*
X82232500Y-100647500D02*
X82232500Y-99377500D01*
X82232500Y-99377500D02*
X79375000Y-96520000D01*
X88315000Y-105410000D02*
X86995000Y-105410000D01*
X76835000Y-92710000D02*
X75565000Y-92710000D01*
X79375000Y-95250000D02*
X76835000Y-92710000D01*
X79375000Y-96520000D02*
X79375000Y-95250000D01*
X86995000Y-105410000D02*
X82232500Y-100647500D01*
X118795000Y-105410000D02*
X116012634Y-105410000D01*
X107315000Y-105410000D02*
X108488817Y-106583817D01*
X108488817Y-106583817D02*
X114838817Y-106583817D01*
X114838817Y-106583817D02*
X116012634Y-105410000D01*
X107315000Y-105410000D02*
X103555000Y-105410000D01*
X118795000Y-105410000D02*
X121920000Y-105410000D01*
X131445000Y-105410000D02*
X134035000Y-105410000D01*
X130175000Y-106680000D02*
X131445000Y-105410000D01*
X123190000Y-106680000D02*
X130175000Y-106680000D01*
X121920000Y-105410000D02*
X123190000Y-106680000D01*
X88315000Y-105410000D02*
X91440000Y-105410000D01*
X91440000Y-105410000D02*
X92710000Y-106680000D01*
X92710000Y-106680000D02*
X98425000Y-106680000D01*
X98425000Y-106680000D02*
X99695000Y-105410000D01*
X99695000Y-105410000D02*
X103555000Y-105410000D01*
X86995000Y-102870000D02*
X85725000Y-101600000D01*
X81915000Y-95250000D02*
X76835000Y-90170000D01*
X81915000Y-96520000D02*
X81915000Y-95250000D01*
X76835000Y-90170000D02*
X75565000Y-90170000D01*
X85725000Y-101600000D02*
X84455000Y-100330000D01*
X84455000Y-100330000D02*
X84455000Y-99060000D01*
X84455000Y-99060000D02*
X81915000Y-96520000D01*
X88315000Y-102870000D02*
X86995000Y-102870000D01*
X118795000Y-102870000D02*
X116205000Y-102870000D01*
X107315000Y-102870000D02*
X108585000Y-104140000D01*
X108585000Y-104140000D02*
X114935000Y-104140000D01*
X114935000Y-104140000D02*
X116205000Y-102870000D01*
X107315000Y-102870000D02*
X103555000Y-102870000D01*
X118795000Y-102870000D02*
X121920000Y-102870000D01*
X131445000Y-102870000D02*
X134035000Y-102870000D01*
X130175000Y-104140000D02*
X131445000Y-102870000D01*
X123190000Y-104140000D02*
X130175000Y-104140000D01*
X121920000Y-102870000D02*
X123190000Y-104140000D01*
X88315000Y-102870000D02*
X91440000Y-102870000D01*
X99695000Y-102870000D02*
X103555000Y-102870000D01*
X98425000Y-104140000D02*
X99695000Y-102870000D01*
X92710000Y-104140000D02*
X98425000Y-104140000D01*
X91440000Y-102870000D02*
X92710000Y-104140000D01*
X88315000Y-100330000D02*
X88265000Y-100330000D01*
X76835000Y-87630000D02*
X75565000Y-87630000D01*
X84455000Y-95250000D02*
X76835000Y-87630000D01*
X84455000Y-96520000D02*
X84455000Y-95250000D01*
X88265000Y-100330000D02*
X84455000Y-96520000D01*
X118795000Y-100330000D02*
X116205000Y-100330000D01*
X107315000Y-100330000D02*
X108585000Y-101600000D01*
X108585000Y-101600000D02*
X114935000Y-101600000D01*
X114935000Y-101600000D02*
X116205000Y-100330000D01*
X107315000Y-100330000D02*
X103555000Y-100330000D01*
X118795000Y-100330000D02*
X121920000Y-100330000D01*
X131445000Y-100330000D02*
X134035000Y-100330000D01*
X130175000Y-101600000D02*
X131445000Y-100330000D01*
X123190000Y-101600000D02*
X130175000Y-101600000D01*
X121920000Y-100330000D02*
X123190000Y-101600000D01*
X88315000Y-100330000D02*
X91440000Y-100330000D01*
X91440000Y-100330000D02*
X92710000Y-101600000D01*
X92710000Y-101600000D02*
X98425000Y-101600000D01*
X98425000Y-101600000D02*
X99695000Y-100330000D01*
X99695000Y-100330000D02*
X103555000Y-100330000D01*
X73660000Y-85725000D02*
X74295000Y-85090000D01*
X73660000Y-88265000D02*
X73660000Y-85725000D01*
X74295000Y-88900000D02*
X73660000Y-88265000D01*
X76835000Y-88900000D02*
X74295000Y-88900000D01*
X83185000Y-95250000D02*
X76835000Y-88900000D01*
X83185000Y-96520000D02*
X83185000Y-95250000D01*
X87630000Y-101600000D02*
X86995000Y-101600000D01*
X86995000Y-101600000D02*
X85725000Y-100330000D01*
X85725000Y-100330000D02*
X85725000Y-99060000D01*
X85725000Y-99060000D02*
X83185000Y-96520000D01*
X95835000Y-102870000D02*
X92710000Y-102870000D01*
X92710000Y-102870000D02*
X91440000Y-101600000D01*
X91440000Y-101600000D02*
X87630000Y-101600000D01*
X74295000Y-85090000D02*
X75565000Y-85090000D01*
X116205000Y-101600000D02*
X121920000Y-101600000D01*
X114935000Y-102870000D02*
X116205000Y-101600000D01*
X121920000Y-101600000D02*
X123190000Y-102870000D01*
X126315000Y-102870000D02*
X123190000Y-102870000D01*
X114935000Y-102870000D02*
X111075000Y-102870000D01*
X126315000Y-102870000D02*
X130175000Y-102870000D01*
X139065000Y-102870000D02*
X141555000Y-102870000D01*
X137795000Y-101600000D02*
X139065000Y-102870000D01*
X131445000Y-101600000D02*
X137795000Y-101600000D01*
X130175000Y-102870000D02*
X131445000Y-101600000D01*
X95835000Y-102870000D02*
X98425000Y-102870000D01*
X98425000Y-102870000D02*
X99695000Y-101600000D01*
X99695000Y-101600000D02*
X107315000Y-101600000D01*
X107315000Y-101600000D02*
X108585000Y-102870000D01*
X108585000Y-102870000D02*
X111075000Y-102870000D01*
X72390000Y-85725000D02*
X72390000Y-83820000D01*
X92710000Y-105410000D02*
X91440000Y-104140000D01*
X91440000Y-104140000D02*
X86995000Y-104140000D01*
X86995000Y-104140000D02*
X83185000Y-100330000D01*
X80645000Y-96520000D02*
X80645000Y-95250000D01*
X80645000Y-95250000D02*
X76835000Y-91440000D01*
X76835000Y-91440000D02*
X74295000Y-91440000D01*
X74295000Y-91440000D02*
X72390000Y-89535000D01*
X72390000Y-89535000D02*
X72390000Y-85725000D01*
X95835000Y-105410000D02*
X92710000Y-105410000D01*
X83185000Y-99060000D02*
X80645000Y-96520000D01*
X83185000Y-100330000D02*
X83185000Y-99060000D01*
X73660000Y-82550000D02*
X75565000Y-82550000D01*
X72390000Y-83820000D02*
X73660000Y-82550000D01*
X116205000Y-104140000D02*
X121920000Y-104140000D01*
X114935000Y-105410000D02*
X116205000Y-104140000D01*
X121920000Y-104140000D02*
X123190000Y-105410000D01*
X126315000Y-105410000D02*
X123190000Y-105410000D01*
X114935000Y-105410000D02*
X111075000Y-105410000D01*
X126315000Y-105410000D02*
X130175000Y-105410000D01*
X139065000Y-105410000D02*
X141555000Y-105410000D01*
X137795000Y-104140000D02*
X139065000Y-105410000D01*
X131445000Y-104140000D02*
X137795000Y-104140000D01*
X130175000Y-105410000D02*
X131445000Y-104140000D01*
X95835000Y-105410000D02*
X98425000Y-105410000D01*
X98425000Y-105410000D02*
X99695000Y-104140000D01*
X99695000Y-104140000D02*
X107315000Y-104140000D01*
X107315000Y-104140000D02*
X108585000Y-105410000D01*
X108585000Y-105410000D02*
X111075000Y-105410000D01*
X151638000Y-60833000D02*
X151638000Y-69977000D01*
X149225000Y-59690000D02*
X150495000Y-59690000D01*
X150495000Y-59690000D02*
X151130000Y-60325000D01*
X151130000Y-60325000D02*
X151638000Y-60833000D01*
X151130000Y-70485000D02*
X151130000Y-86360000D01*
X151638000Y-69977000D02*
X151130000Y-70485000D01*
X151130000Y-86360000D02*
X142240000Y-95250000D01*
X141555000Y-95250000D02*
X142240000Y-95250000D01*
X141555000Y-95250000D02*
X139065000Y-95250000D01*
X130175000Y-95250000D02*
X126315000Y-95250000D01*
X131445000Y-93980000D02*
X130175000Y-95250000D01*
X137795000Y-93980000D02*
X131445000Y-93980000D01*
X139065000Y-95250000D02*
X137795000Y-93980000D01*
X116205000Y-93980000D02*
X121920000Y-93980000D01*
X114935000Y-95250000D02*
X116205000Y-93980000D01*
X121920000Y-93980000D02*
X123190000Y-95250000D01*
X126315000Y-95250000D02*
X123190000Y-95250000D01*
X114935000Y-95250000D02*
X111075000Y-95250000D01*
X95835000Y-95250000D02*
X98425000Y-95250000D01*
X108585000Y-95250000D02*
X111075000Y-95250000D01*
X107315000Y-93980000D02*
X108585000Y-95250000D01*
X99695000Y-93980000D02*
X107315000Y-93980000D01*
X98425000Y-95250000D02*
X99695000Y-93980000D01*
X120015000Y-62230000D02*
X123190000Y-62230000D01*
X130810000Y-62230000D02*
X132715000Y-62230000D01*
X124460000Y-60960000D02*
X123190000Y-62230000D01*
X129540000Y-60960000D02*
X124460000Y-60960000D01*
X130810000Y-62230000D02*
X129540000Y-60960000D01*
X120015000Y-62230000D02*
X118110000Y-62230000D01*
X110490000Y-62230000D02*
X107315000Y-62230000D01*
X111760000Y-60960000D02*
X110490000Y-62230000D01*
X116840000Y-60960000D02*
X111760000Y-60960000D01*
X118110000Y-62230000D02*
X116840000Y-60960000D01*
X87630000Y-64770000D02*
X87630000Y-64135000D01*
X87630000Y-64135000D02*
X89535000Y-62230000D01*
X87630000Y-64770000D02*
X87630000Y-64770000D01*
X96520000Y-62230000D02*
X96520000Y-62230000D01*
X107315000Y-62230000D02*
X96520000Y-62230000D01*
X96520000Y-62230000D02*
X89535000Y-62230000D01*
X60325000Y-113030000D02*
X66040000Y-113030000D01*
X85090000Y-120650000D02*
X78740000Y-114300000D01*
X85090000Y-120650000D02*
X88315000Y-120650000D01*
X67310000Y-114300000D02*
X78740000Y-114300000D01*
X66040000Y-113030000D02*
X67310000Y-114300000D01*
X118795000Y-120650000D02*
X116205000Y-120650000D01*
X107315000Y-120650000D02*
X108585000Y-121920000D01*
X108585000Y-121920000D02*
X114935000Y-121920000D01*
X114935000Y-121920000D02*
X116205000Y-120650000D01*
X107315000Y-120650000D02*
X103555000Y-120650000D01*
X118795000Y-120650000D02*
X123190000Y-120650000D01*
X131445000Y-120650000D02*
X134035000Y-120650000D01*
X130175000Y-121920000D02*
X131445000Y-120650000D01*
X124460000Y-121920000D02*
X130175000Y-121920000D01*
X123190000Y-120650000D02*
X124460000Y-121920000D01*
X88315000Y-120650000D02*
X90805000Y-120650000D01*
X90805000Y-120650000D02*
X92075000Y-121920000D01*
X92075000Y-121920000D02*
X98425000Y-121920000D01*
X98425000Y-121920000D02*
X99695000Y-120650000D01*
X99695000Y-120650000D02*
X103555000Y-120650000D01*
X88900000Y-66040000D02*
X88900000Y-64770000D01*
X88900000Y-64770000D02*
X90170000Y-63500000D01*
X90170000Y-63500000D02*
X104775000Y-63500000D01*
X104775000Y-63500000D02*
X106045000Y-64770000D01*
X106045000Y-64770000D02*
X107315000Y-64770000D01*
X88900000Y-66040000D02*
X88900000Y-66040000D01*
X120015000Y-64770000D02*
X118110000Y-64770000D01*
X110490000Y-64770000D02*
X107315000Y-64770000D01*
X111760000Y-63500000D02*
X110490000Y-64770000D01*
X116840000Y-63500000D02*
X111760000Y-63500000D01*
X118110000Y-64770000D02*
X116840000Y-63500000D01*
X60325000Y-115570000D02*
X62230000Y-115570000D01*
X85090000Y-123190000D02*
X81280000Y-119380000D01*
X85090000Y-123190000D02*
X88315000Y-123190000D01*
X66040000Y-119380000D02*
X81280000Y-119380000D01*
X62230000Y-115570000D02*
X66040000Y-119380000D01*
X132715000Y-64770000D02*
X130810000Y-64770000D01*
X123190000Y-64770000D02*
X120015000Y-64770000D01*
X124460000Y-63500000D02*
X123190000Y-64770000D01*
X129540000Y-63500000D02*
X124460000Y-63500000D01*
X130810000Y-64770000D02*
X129540000Y-63500000D01*
X118795000Y-123190000D02*
X116205000Y-123190000D01*
X107315000Y-123190000D02*
X108585000Y-124460000D01*
X108585000Y-124460000D02*
X114300000Y-124460000D01*
X114300000Y-124460000D02*
X114935000Y-124460000D01*
X114935000Y-124460000D02*
X116205000Y-123190000D01*
X107315000Y-123190000D02*
X103555000Y-123190000D01*
X118795000Y-123190000D02*
X123190000Y-123190000D01*
X131445000Y-123190000D02*
X134035000Y-123190000D01*
X130175000Y-124460000D02*
X131445000Y-123190000D01*
X129540000Y-124460000D02*
X130175000Y-124460000D01*
X124460000Y-124460000D02*
X129540000Y-124460000D01*
X123190000Y-123190000D02*
X124460000Y-124460000D01*
X99695000Y-123190000D02*
X103555000Y-123190000D01*
X88315000Y-123190000D02*
X90805000Y-123190000D01*
X90805000Y-123190000D02*
X92075000Y-124460000D01*
X92075000Y-124460000D02*
X98425000Y-124460000D01*
X98425000Y-124460000D02*
X99695000Y-123190000D01*
X106045000Y-67310000D02*
X104775000Y-66040000D01*
X104775000Y-66040000D02*
X90170000Y-66040000D01*
X106045000Y-67310000D02*
X107315000Y-67310000D01*
X88315000Y-125730000D02*
X85090000Y-125730000D01*
X83820000Y-124460000D02*
X67310000Y-124460000D01*
X85090000Y-125730000D02*
X83820000Y-124460000D01*
X67310000Y-107950000D02*
X60325000Y-107950000D01*
X120015000Y-67310000D02*
X118110000Y-67310000D01*
X110490000Y-67310000D02*
X107315000Y-67310000D01*
X111760000Y-66040000D02*
X110490000Y-67310000D01*
X116840000Y-66040000D02*
X113030000Y-66040000D01*
X113030000Y-66040000D02*
X111760000Y-66040000D01*
X118110000Y-67310000D02*
X116840000Y-66040000D01*
X132715000Y-67310000D02*
X130810000Y-67310000D01*
X123190000Y-67310000D02*
X120015000Y-67310000D01*
X124460000Y-66040000D02*
X123190000Y-67310000D01*
X129540000Y-66040000D02*
X124460000Y-66040000D01*
X130810000Y-67310000D02*
X129540000Y-66040000D01*
X118795000Y-125730000D02*
X116012634Y-125730000D01*
X107315000Y-125730000D02*
X108488817Y-126903817D01*
X108488817Y-126903817D02*
X114838817Y-126903817D01*
X114838817Y-126903817D02*
X116012634Y-125730000D01*
X107315000Y-125730000D02*
X103555000Y-125730000D01*
X118795000Y-125730000D02*
X123190000Y-125730000D01*
X131445000Y-125730000D02*
X134035000Y-125730000D01*
X130175000Y-127000000D02*
X131445000Y-125730000D01*
X124460000Y-127000000D02*
X130175000Y-127000000D01*
X123190000Y-125730000D02*
X124460000Y-127000000D01*
X99695000Y-125730000D02*
X103555000Y-125730000D01*
X88315000Y-125730000D02*
X90805000Y-125730000D01*
X90805000Y-125730000D02*
X92075000Y-127000000D01*
X92075000Y-127000000D02*
X98425000Y-127000000D01*
X98425000Y-127000000D02*
X99695000Y-125730000D01*
X64135000Y-97790000D02*
X69850000Y-103505000D01*
X81915000Y-127000000D02*
X71755000Y-127000000D01*
X92075000Y-128270000D02*
X90805000Y-127000000D01*
X90805000Y-127000000D02*
X81915000Y-127000000D01*
X95835000Y-128270000D02*
X92075000Y-128270000D01*
X71755000Y-127000000D02*
X71120000Y-127000000D01*
X64135000Y-97790000D02*
X60325000Y-97790000D01*
X71120000Y-127000000D02*
X69850000Y-125730000D01*
X69850000Y-103505000D02*
X69850000Y-104775000D01*
X120015000Y-69850000D02*
X118110000Y-69850000D01*
X110490000Y-69850000D02*
X107315000Y-69850000D01*
X111760000Y-68580000D02*
X110490000Y-69850000D01*
X116840000Y-68580000D02*
X111760000Y-68580000D01*
X118110000Y-69850000D02*
X116840000Y-68580000D01*
X132715000Y-69850000D02*
X130810000Y-69850000D01*
X123190000Y-69850000D02*
X120015000Y-69850000D01*
X124460000Y-68580000D02*
X123190000Y-69850000D01*
X129540000Y-68580000D02*
X124460000Y-68580000D01*
X130810000Y-69850000D02*
X129540000Y-68580000D01*
X116205000Y-127000000D02*
X123190000Y-127000000D01*
X114935000Y-128270000D02*
X111075000Y-128270000D01*
X126315000Y-128270000D02*
X124460000Y-128270000D01*
X123190000Y-127000000D02*
X124460000Y-128270000D01*
X114935000Y-128270000D02*
X116205000Y-127000000D01*
X126315000Y-128270000D02*
X130175000Y-128270000D01*
X139065000Y-128270000D02*
X141555000Y-128270000D01*
X137795000Y-127000000D02*
X139065000Y-128270000D01*
X131445000Y-127000000D02*
X137795000Y-127000000D01*
X130175000Y-128270000D02*
X131445000Y-127000000D01*
X108585000Y-128270000D02*
X111075000Y-128270000D01*
X98425000Y-128270000D02*
X99695000Y-127000000D01*
X99695000Y-127000000D02*
X107315000Y-127000000D01*
X95835000Y-128270000D02*
X98425000Y-128270000D01*
X107315000Y-127000000D02*
X108585000Y-128270000D01*
X102870000Y-72390000D02*
X107315000Y-72390000D01*
X105410000Y-124460000D02*
X107315000Y-124460000D01*
X108585000Y-125730000D02*
X111075000Y-125730000D01*
X107315000Y-124460000D02*
X108585000Y-125730000D01*
X99695000Y-124460000D02*
X105410000Y-124460000D01*
X95835000Y-125730000D02*
X98425000Y-125730000D01*
X98425000Y-125730000D02*
X99695000Y-124460000D01*
X60325000Y-95250000D02*
X63500000Y-95250000D01*
X71120000Y-102870000D02*
X63500000Y-95250000D01*
X71120000Y-105410000D02*
X71120000Y-102870000D01*
X85090000Y-124460000D02*
X82550000Y-121920000D01*
X92075000Y-125730000D02*
X95835000Y-125730000D01*
X90805000Y-124460000D02*
X85090000Y-124460000D01*
X92075000Y-125730000D02*
X90805000Y-124460000D01*
X82550000Y-121920000D02*
X71120000Y-121920000D01*
X120015000Y-72390000D02*
X118110000Y-72390000D01*
X118110000Y-72390000D02*
X116840000Y-71120000D01*
X116840000Y-71120000D02*
X111760000Y-71120000D01*
X111760000Y-71120000D02*
X110490000Y-72390000D01*
X110490000Y-72390000D02*
X107315000Y-72390000D01*
X132715000Y-72390000D02*
X130810000Y-72390000D01*
X123190000Y-72390000D02*
X120015000Y-72390000D01*
X124460000Y-71120000D02*
X123190000Y-72390000D01*
X129540000Y-71120000D02*
X124460000Y-71120000D01*
X130810000Y-72390000D02*
X129540000Y-71120000D01*
X116205000Y-124460000D02*
X123190000Y-124460000D01*
X114935000Y-125730000D02*
X111075000Y-125730000D01*
X126315000Y-125730000D02*
X124460000Y-125730000D01*
X123190000Y-124460000D02*
X124460000Y-125730000D01*
X114935000Y-125730000D02*
X116205000Y-124460000D01*
X126315000Y-125730000D02*
X130175000Y-125730000D01*
X139065000Y-125730000D02*
X141555000Y-125730000D01*
X137795000Y-124460000D02*
X139065000Y-125730000D01*
X131445000Y-124460000D02*
X137795000Y-124460000D01*
X130175000Y-125730000D02*
X131445000Y-124460000D01*
X107315000Y-74930000D02*
X101600000Y-74930000D01*
X105410000Y-121920000D02*
X107315000Y-121920000D01*
X107315000Y-121920000D02*
X108585000Y-123190000D01*
X108585000Y-123190000D02*
X111075000Y-123190000D01*
X99695000Y-121920000D02*
X105410000Y-121920000D01*
X98425000Y-123190000D02*
X99695000Y-121920000D01*
X95835000Y-123190000D02*
X98425000Y-123190000D01*
X60325000Y-100330000D02*
X64770000Y-100330000D01*
X72390000Y-116840000D02*
X68580000Y-116840000D01*
X92075000Y-123190000D02*
X95835000Y-123190000D01*
X85090000Y-121920000D02*
X80010000Y-116840000D01*
X90805000Y-121920000D02*
X85090000Y-121920000D01*
X92075000Y-123190000D02*
X90805000Y-121920000D01*
X72390000Y-116840000D02*
X80010000Y-116840000D01*
X64770000Y-100330000D02*
X68580000Y-104140000D01*
X120015000Y-74930000D02*
X118110000Y-74930000D01*
X118110000Y-74930000D02*
X116840000Y-73660000D01*
X116840000Y-73660000D02*
X111760000Y-73660000D01*
X111760000Y-73660000D02*
X110490000Y-74930000D01*
X110490000Y-74930000D02*
X107315000Y-74930000D01*
X132715000Y-74930000D02*
X130810000Y-74930000D01*
X123190000Y-74930000D02*
X120015000Y-74930000D01*
X124460000Y-73660000D02*
X123190000Y-74930000D01*
X129540000Y-73660000D02*
X124460000Y-73660000D01*
X130810000Y-74930000D02*
X129540000Y-73660000D01*
X116205000Y-121920000D02*
X123190000Y-121920000D01*
X114935000Y-123190000D02*
X111075000Y-123190000D01*
X126315000Y-123190000D02*
X124460000Y-123190000D01*
X123190000Y-121920000D02*
X124460000Y-123190000D01*
X114935000Y-123190000D02*
X116205000Y-121920000D01*
X126315000Y-123190000D02*
X130175000Y-123190000D01*
X139065000Y-123190000D02*
X141555000Y-123190000D01*
X137795000Y-121920000D02*
X139065000Y-123190000D01*
X131445000Y-121920000D02*
X137795000Y-121920000D01*
X130175000Y-123190000D02*
X131445000Y-121920000D01*
X111075000Y-120650000D02*
X114935000Y-120650000D01*
X114935000Y-120650000D02*
X116205000Y-119380000D01*
X123190000Y-119380000D02*
X124460000Y-120650000D01*
X124460000Y-120650000D02*
X126315000Y-120650000D01*
X116205000Y-119380000D02*
X123190000Y-119380000D01*
X105410000Y-119380000D02*
X107315000Y-119380000D01*
X108585000Y-120650000D02*
X111075000Y-120650000D01*
X107315000Y-119380000D02*
X108585000Y-120650000D01*
X95835000Y-120650000D02*
X98425000Y-120650000D01*
X100330000Y-77470000D02*
X107315000Y-77470000D01*
X99695000Y-119380000D02*
X105410000Y-119380000D01*
X98425000Y-120650000D02*
X99695000Y-119380000D01*
X95835000Y-120650000D02*
X92075000Y-120650000D01*
X78105000Y-109220000D02*
X80010000Y-111125000D01*
X92075000Y-120650000D02*
X90805000Y-119380000D01*
X90805000Y-119380000D02*
X85090000Y-119380000D01*
X80010000Y-111125000D02*
X80010000Y-114300000D01*
X80010000Y-114300000D02*
X85090000Y-119380000D01*
X62230000Y-102870000D02*
X66040000Y-106680000D01*
X62230000Y-102870000D02*
X60325000Y-102870000D01*
X67310000Y-106680000D02*
X69850000Y-109220000D01*
X66040000Y-106680000D02*
X67310000Y-106680000D01*
X78105000Y-109220000D02*
X73660000Y-109220000D01*
X73660000Y-109220000D02*
X72390000Y-109220000D01*
X69850000Y-109220000D02*
X72390000Y-109220000D01*
X120015000Y-77470000D02*
X118110000Y-77470000D01*
X110490000Y-77470000D02*
X107315000Y-77470000D01*
X111760000Y-76200000D02*
X110490000Y-77470000D01*
X116840000Y-76200000D02*
X111760000Y-76200000D01*
X118110000Y-77470000D02*
X116840000Y-76200000D01*
X132715000Y-77470000D02*
X130810000Y-77470000D01*
X123190000Y-77470000D02*
X120015000Y-77470000D01*
X124460000Y-76200000D02*
X123190000Y-77470000D01*
X129540000Y-76200000D02*
X124460000Y-76200000D01*
X130810000Y-77470000D02*
X129540000Y-76200000D01*
X126315000Y-120650000D02*
X130175000Y-120650000D01*
X130175000Y-120650000D02*
X131445000Y-119380000D01*
X131445000Y-119380000D02*
X137795000Y-119380000D01*
X137795000Y-119380000D02*
X139065000Y-120650000D01*
X139065000Y-120650000D02*
X141555000Y-120650000D01*
X100965000Y-80010000D02*
X96520000Y-80010000D01*
X100965000Y-80010000D02*
X107315000Y-80010000D01*
X99695000Y-116840000D02*
X107315000Y-116840000D01*
X108585000Y-118110000D02*
X111075000Y-118110000D01*
X107315000Y-116840000D02*
X108585000Y-118110000D01*
X98425000Y-118110000D02*
X99695000Y-116840000D01*
X98425000Y-118110000D02*
X95835000Y-118110000D01*
X76835000Y-104140000D02*
X74295000Y-104140000D01*
X95835000Y-118110000D02*
X92075000Y-118110000D01*
X82550000Y-109855000D02*
X76835000Y-104140000D01*
X82550000Y-113030000D02*
X82550000Y-109855000D01*
X86360000Y-116840000D02*
X82550000Y-113030000D01*
X90805000Y-116840000D02*
X86360000Y-116840000D01*
X92075000Y-118110000D02*
X90805000Y-116840000D01*
X69850000Y-106680000D02*
X64770000Y-101600000D01*
X71755000Y-106680000D02*
X69850000Y-106680000D01*
X74295000Y-104140000D02*
X71755000Y-106680000D01*
X120015000Y-80010000D02*
X118110000Y-80010000D01*
X118110000Y-80010000D02*
X116840000Y-78740000D01*
X116840000Y-78740000D02*
X111760000Y-78740000D01*
X111760000Y-78740000D02*
X110490000Y-80010000D01*
X110490000Y-80010000D02*
X107315000Y-80010000D01*
X58420000Y-108585000D02*
X60325000Y-110490000D01*
X64770000Y-101600000D02*
X59055000Y-101600000D01*
X59055000Y-101600000D02*
X58420000Y-102235000D01*
X58420000Y-102235000D02*
X58420000Y-108585000D01*
X132715000Y-80010000D02*
X130810000Y-80010000D01*
X123190000Y-80010000D02*
X120015000Y-80010000D01*
X124460000Y-78740000D02*
X123190000Y-80010000D01*
X129540000Y-78740000D02*
X124460000Y-78740000D01*
X130810000Y-80010000D02*
X129540000Y-78740000D01*
X116205000Y-116840000D02*
X123190000Y-116840000D01*
X114935000Y-118110000D02*
X111075000Y-118110000D01*
X126315000Y-118110000D02*
X124460000Y-118110000D01*
X123190000Y-116840000D02*
X124460000Y-118110000D01*
X114935000Y-118110000D02*
X116205000Y-116840000D01*
X126315000Y-118110000D02*
X130175000Y-118110000D01*
X139065000Y-118110000D02*
X141555000Y-118110000D01*
X137795000Y-116840000D02*
X139065000Y-118110000D01*
X131445000Y-116840000D02*
X137795000Y-116840000D01*
X130175000Y-118110000D02*
X131445000Y-116840000D01*
X134035000Y-97790000D02*
X137795000Y-97790000D01*
X139065000Y-99060000D02*
X142875000Y-99060000D01*
X137795000Y-97790000D02*
X139065000Y-99060000D01*
X69595000Y-70485000D02*
X71120000Y-70485000D01*
X71120000Y-70485000D02*
X76200000Y-75565000D01*
X106045000Y-66040000D02*
X104775000Y-64770000D01*
X114935000Y-64770000D02*
X111760000Y-64770000D01*
X110490000Y-66040000D02*
X111760000Y-64770000D01*
X110490000Y-66040000D02*
X106045000Y-66040000D01*
X106045000Y-66040000D02*
X106045000Y-66040000D01*
X104775000Y-64770000D02*
X91440000Y-64770000D01*
X76200000Y-75565000D02*
X91440000Y-75565000D01*
X118795000Y-97790000D02*
X116205000Y-97790000D01*
X107315000Y-97790000D02*
X108585000Y-99060000D01*
X108585000Y-99060000D02*
X114935000Y-99060000D01*
X114935000Y-99060000D02*
X116205000Y-97790000D01*
X107315000Y-97790000D02*
X103555000Y-97790000D01*
X118795000Y-97790000D02*
X121920000Y-97790000D01*
X131252634Y-97790000D02*
X134035000Y-97790000D01*
X130078817Y-98963817D02*
X131252634Y-97790000D01*
X123093817Y-98963817D02*
X130078817Y-98963817D01*
X121920000Y-97790000D02*
X123093817Y-98963817D01*
X88315000Y-97790000D02*
X91440000Y-97790000D01*
X91440000Y-97790000D02*
X92710000Y-99060000D01*
X92710000Y-99060000D02*
X98425000Y-99060000D01*
X99695000Y-97790000D02*
X103555000Y-97790000D01*
X98425000Y-99060000D02*
X99695000Y-97790000D01*
X75539602Y-76174602D02*
X89509602Y-76174602D01*
X69595000Y-71755000D02*
X71120000Y-71755000D01*
X71120000Y-71755000D02*
X75539602Y-76174602D01*
X90170000Y-76835000D02*
X92710000Y-76835000D01*
X89509602Y-76174602D02*
X90170000Y-76835000D01*
X92710000Y-68580000D02*
X110490000Y-68580000D01*
X111760000Y-67310000D02*
X110490000Y-68580000D01*
X111760000Y-67310000D02*
X114935000Y-67310000D01*
X69595000Y-71755000D02*
X69850000Y-71755000D01*
X116205000Y-99060000D02*
X121920000Y-99060000D01*
X114935000Y-100330000D02*
X116205000Y-99060000D01*
X121920000Y-99060000D02*
X123190000Y-100330000D01*
X126315000Y-100330000D02*
X123190000Y-100330000D01*
X114935000Y-100330000D02*
X111075000Y-100330000D01*
X126315000Y-100330000D02*
X130175000Y-100330000D01*
X139065000Y-100330000D02*
X141555000Y-100330000D01*
X137795000Y-99060000D02*
X139065000Y-100330000D01*
X131445000Y-99060000D02*
X137795000Y-99060000D01*
X130175000Y-100330000D02*
X131445000Y-99060000D01*
X95835000Y-100330000D02*
X98425000Y-100330000D01*
X108392634Y-100330000D02*
X111075000Y-100330000D01*
X107218817Y-99156183D02*
X108392634Y-100330000D01*
X99598817Y-99156183D02*
X107218817Y-99156183D01*
X98425000Y-100330000D02*
X99598817Y-99156183D01*
X137795000Y-95250000D02*
X139065000Y-96520000D01*
X139065000Y-96520000D02*
X142875000Y-96520000D01*
X137795000Y-95250000D02*
X134035000Y-95250000D01*
X69595000Y-73025000D02*
X71120000Y-73025000D01*
X89535000Y-78105000D02*
X93980000Y-78105000D01*
X88265000Y-76835000D02*
X89535000Y-78105000D01*
X74930000Y-76835000D02*
X88265000Y-76835000D01*
X71120000Y-73025000D02*
X74930000Y-76835000D01*
X102870000Y-71120000D02*
X101600000Y-71120000D01*
X111760000Y-69850000D02*
X110490000Y-71120000D01*
X110490000Y-71120000D02*
X104140000Y-71120000D01*
X114935000Y-69850000D02*
X111760000Y-69850000D01*
X102870000Y-71120000D02*
X104140000Y-71120000D01*
X100330000Y-69850000D02*
X93980000Y-69850000D01*
X101600000Y-71120000D02*
X100330000Y-69850000D01*
X69595000Y-73025000D02*
X69850000Y-73025000D01*
X118795000Y-95250000D02*
X116205000Y-95250000D01*
X107315000Y-95250000D02*
X103555000Y-95250000D01*
X114935000Y-96520000D02*
X116205000Y-95250000D01*
X108585000Y-96520000D02*
X114935000Y-96520000D01*
X107315000Y-95250000D02*
X108585000Y-96520000D01*
X118795000Y-95250000D02*
X121727634Y-95250000D01*
X131445000Y-95250000D02*
X134035000Y-95250000D01*
X130175000Y-96520000D02*
X131445000Y-95250000D01*
X122997634Y-96520000D02*
X130175000Y-96520000D01*
X121727634Y-95250000D02*
X122997634Y-96520000D01*
X88315000Y-95250000D02*
X91440000Y-95250000D01*
X91440000Y-95250000D02*
X92710000Y-96520000D01*
X92710000Y-96520000D02*
X98425000Y-96520000D01*
X99695000Y-95250000D02*
X103555000Y-95250000D01*
X98425000Y-96520000D02*
X99695000Y-95250000D01*
X146515000Y-88265000D02*
X146515000Y-89070000D01*
X142875000Y-92710000D02*
X141555000Y-92710000D01*
X146515000Y-89070000D02*
X142875000Y-92710000D01*
X78995000Y-74295000D02*
X92710000Y-74295000D01*
X93345000Y-74930000D02*
X95250000Y-74930000D01*
X92710000Y-74295000D02*
X93345000Y-74930000D01*
X95250000Y-74930000D02*
X97790000Y-74930000D01*
X97790000Y-74930000D02*
X99060000Y-73660000D01*
X99060000Y-73660000D02*
X110490000Y-73660000D01*
X111760000Y-72390000D02*
X114935000Y-72390000D01*
X111760000Y-72390000D02*
X110490000Y-73660000D01*
X126315000Y-92710000D02*
X130175000Y-92710000D01*
X139065000Y-92710000D02*
X141555000Y-92710000D01*
X137795000Y-91440000D02*
X139065000Y-92710000D01*
X131445000Y-91440000D02*
X137795000Y-91440000D01*
X130175000Y-92710000D02*
X131445000Y-91440000D01*
X116205000Y-91440000D02*
X121920000Y-91440000D01*
X114935000Y-92710000D02*
X116205000Y-91440000D01*
X121920000Y-91440000D02*
X123190000Y-92710000D01*
X126315000Y-92710000D02*
X123190000Y-92710000D01*
X114935000Y-92710000D02*
X111075000Y-92710000D01*
X95835000Y-92710000D02*
X98425000Y-92710000D01*
X108585000Y-92710000D02*
X111075000Y-92710000D01*
X107315000Y-91440000D02*
X108585000Y-92710000D01*
X99695000Y-91440000D02*
X107315000Y-91440000D01*
X98425000Y-92710000D02*
X99695000Y-91440000D01*
D24*
X64305000Y-57785000D02*
X62865000Y-57785000D01*
X77470000Y-57785000D02*
X78995000Y-57785000D01*
X76200000Y-59055000D02*
X76200000Y-60325000D01*
X77470000Y-57785000D02*
X76200000Y-59055000D01*
X62865000Y-60325000D02*
X62865000Y-57785000D01*
X62865000Y-57785000D02*
X62865000Y-53975000D01*
X69215000Y-47625000D02*
X62865000Y-53975000D01*
X78105000Y-47625000D02*
X71755000Y-47625000D01*
X71755000Y-47625000D02*
X69215000Y-47625000D01*
X83820000Y-91440000D02*
X83185000Y-91440000D01*
X76835000Y-78105000D02*
X74295000Y-78105000D01*
X78105000Y-79375000D02*
X76835000Y-78105000D01*
X83185000Y-91440000D02*
X78105000Y-86360000D01*
X78105000Y-86360000D02*
X78105000Y-79375000D01*
X83820000Y-91440000D02*
X85090000Y-91440000D01*
X85725000Y-91440000D02*
X83820000Y-91440000D01*
X116205000Y-90170000D02*
X111075000Y-90170000D01*
X78995000Y-57785000D02*
X82235000Y-57785000D01*
X62865000Y-60325000D02*
X62865000Y-60325000D01*
X144315000Y-88265000D02*
X144315000Y-86510000D01*
X144315000Y-86510000D02*
X144465000Y-86360000D01*
X141555000Y-90170000D02*
X142410000Y-90170000D01*
X142410000Y-90170000D02*
X144315000Y-88265000D01*
X74295000Y-78105000D02*
X69850000Y-78105000D01*
X65405000Y-78105000D02*
X69850000Y-78105000D01*
X62865000Y-78105000D02*
X65405000Y-78105000D01*
X126315000Y-90170000D02*
X127320000Y-89165000D01*
X127320000Y-89165000D02*
X127320000Y-87630000D01*
X133350000Y-130810000D02*
X142875000Y-130810000D01*
X128270000Y-140970000D02*
X130810000Y-138430000D01*
X130810000Y-138430000D02*
X130810000Y-133350000D01*
X130810000Y-133350000D02*
X133350000Y-130810000D01*
X126365000Y-140970000D02*
X128270000Y-140970000D01*
X145415000Y-128270000D02*
X145415000Y-94615000D01*
X142875000Y-130810000D02*
X145415000Y-128270000D01*
X126315000Y-90170000D02*
X129540000Y-90170000D01*
X139700000Y-90170000D02*
X141555000Y-90170000D01*
X137795000Y-88265000D02*
X139700000Y-90170000D01*
X131445000Y-88265000D02*
X137795000Y-88265000D01*
X129540000Y-90170000D02*
X131445000Y-88265000D01*
X95835000Y-90170000D02*
X93980000Y-90170000D01*
X92710000Y-91440000D02*
X86360000Y-91440000D01*
X86360000Y-91440000D02*
X85725000Y-91440000D01*
X93980000Y-90170000D02*
X92710000Y-91440000D01*
X78105000Y-47625000D02*
X78105000Y-46355000D01*
X78105000Y-46355000D02*
X78740000Y-45720000D01*
X78740000Y-45720000D02*
X128270000Y-45720000D01*
X128270000Y-45720000D02*
X130175000Y-47625000D01*
X130175000Y-47625000D02*
X130175000Y-51435000D01*
X114935000Y-59690000D02*
X116840000Y-59690000D01*
X118110000Y-60960000D02*
X123190000Y-60960000D01*
X116840000Y-59690000D02*
X118110000Y-60960000D01*
D23*
X63500000Y-139065000D02*
X64770000Y-139065000D01*
X55880000Y-93980000D02*
X57150000Y-92710000D01*
X60325000Y-92710000D02*
X57150000Y-92710000D01*
X55880000Y-131445000D02*
X55880000Y-93980000D01*
X55880000Y-131445000D02*
X63500000Y-139065000D01*
X66040000Y-137795000D02*
X69215000Y-137795000D01*
X64770000Y-139065000D02*
X66040000Y-137795000D01*
X78995000Y-71755000D02*
X76835000Y-71755000D01*
X78995000Y-71755000D02*
X92710000Y-71755000D01*
X93345000Y-72390000D02*
X97790000Y-72390000D01*
X92710000Y-71755000D02*
X93345000Y-72390000D01*
X110490000Y-78740000D02*
X103505000Y-78740000D01*
X97790000Y-78740000D02*
X103505000Y-78740000D01*
X111760000Y-77470000D02*
X114935000Y-77470000D01*
X111760000Y-77470000D02*
X110490000Y-78740000D01*
X78995000Y-69215000D02*
X76835000Y-69215000D01*
X105410000Y-83820000D02*
X104140000Y-82550000D01*
X110490000Y-83820000D02*
X106045000Y-83820000D01*
X114935000Y-82550000D02*
X111760000Y-82550000D01*
X111760000Y-82550000D02*
X110490000Y-83820000D01*
X106045000Y-83820000D02*
X105410000Y-83820000D01*
X88265000Y-67310000D02*
X104140000Y-67310000D01*
X86360000Y-69215000D02*
X78995000Y-69215000D01*
X86360000Y-69215000D02*
X88265000Y-67310000D01*
X73660000Y-60325000D02*
X74930000Y-61595000D01*
X74930000Y-61595000D02*
X76835000Y-61595000D01*
X69595000Y-60325000D02*
X73660000Y-60325000D01*
X124460000Y-86995000D02*
X84455000Y-86995000D01*
X124460000Y-86995000D02*
X125730000Y-85725000D01*
X83185000Y-85725000D02*
X83185000Y-85725000D01*
X84455000Y-86995000D02*
X83185000Y-85725000D01*
X130810000Y-71120000D02*
X129540000Y-69850000D01*
X136525000Y-71120000D02*
X130810000Y-71120000D01*
X140335000Y-69850000D02*
X137795000Y-69850000D01*
X129540000Y-69850000D02*
X127635000Y-69850000D01*
X137795000Y-69850000D02*
X136525000Y-71120000D01*
X73025000Y-61595000D02*
X74295000Y-62865000D01*
X74295000Y-62865000D02*
X75565000Y-62865000D01*
X69595000Y-61595000D02*
X73025000Y-61595000D01*
X130810000Y-68580000D02*
X129540000Y-67310000D01*
X136525000Y-68580000D02*
X130810000Y-68580000D01*
X140335000Y-67310000D02*
X137795000Y-67310000D01*
X129540000Y-67310000D02*
X127635000Y-67310000D01*
X137795000Y-67310000D02*
X136525000Y-68580000D01*
X83820000Y-87630000D02*
X81915000Y-85725000D01*
X125095000Y-87630000D02*
X125730000Y-86995000D01*
X125095000Y-87630000D02*
X90170000Y-87630000D01*
X90170000Y-87630000D02*
X83820000Y-87630000D01*
X83185000Y-88265000D02*
X80645000Y-85725000D01*
X123825000Y-88265000D02*
X89535000Y-88265000D01*
X124460000Y-88900000D02*
X123825000Y-88265000D01*
X89535000Y-88265000D02*
X83185000Y-88265000D01*
X72390000Y-62865000D02*
X69595000Y-62865000D01*
X73660000Y-64135000D02*
X76835000Y-64135000D01*
X72390000Y-62865000D02*
X73660000Y-64135000D01*
X130810000Y-66040000D02*
X129540000Y-64770000D01*
X136525000Y-66040000D02*
X130810000Y-66040000D01*
X140335000Y-64770000D02*
X137795000Y-64770000D01*
X129540000Y-64770000D02*
X127635000Y-64770000D01*
X137795000Y-64770000D02*
X136525000Y-66040000D01*
X69595000Y-64135000D02*
X71755000Y-64135000D01*
X73025000Y-65405000D02*
X75565000Y-65405000D01*
X71755000Y-64135000D02*
X73025000Y-65405000D01*
X121285000Y-88900000D02*
X121920000Y-89535000D01*
X82550000Y-88900000D02*
X121285000Y-88900000D01*
X79375000Y-85725000D02*
X82550000Y-88900000D01*
X130810000Y-63500000D02*
X129540000Y-62230000D01*
X136525000Y-63500000D02*
X130810000Y-63500000D01*
X140335000Y-62230000D02*
X138430000Y-62230000D01*
X129540000Y-62230000D02*
X127635000Y-62230000D01*
X137795000Y-62230000D02*
X136525000Y-63500000D01*
X138430000Y-62230000D02*
X137795000Y-62230000D01*
X78995000Y-73025000D02*
X76835000Y-73025000D01*
X78995000Y-73025000D02*
X92710000Y-73025000D01*
X93345000Y-73660000D02*
X96520000Y-73660000D01*
X92710000Y-73025000D02*
X93345000Y-73660000D01*
X96520000Y-73660000D02*
X96520000Y-73660000D01*
X96520000Y-76200000D02*
X102235000Y-76200000D01*
X111760000Y-74930000D02*
X110490000Y-76200000D01*
X110490000Y-76200000D02*
X102235000Y-76200000D01*
X111760000Y-74930000D02*
X114935000Y-74930000D01*
X78995000Y-70485000D02*
X76835000Y-70485000D01*
X92075000Y-70485000D02*
X92710000Y-70485000D01*
X78995000Y-70485000D02*
X92075000Y-70485000D01*
X93345000Y-71120000D02*
X99060000Y-71120000D01*
X92710000Y-70485000D02*
X93345000Y-71120000D01*
X99060000Y-81280000D02*
X104775000Y-81280000D01*
X111760000Y-80010000D02*
X114935000Y-80010000D01*
X111760000Y-80010000D02*
X110490000Y-81280000D01*
X110490000Y-81280000D02*
X104775000Y-81280000D01*
X78995000Y-66675000D02*
X85090000Y-66675000D01*
X95885000Y-85090000D02*
X88900000Y-85090000D01*
X116840000Y-85090000D02*
X118110000Y-85090000D01*
X95885000Y-85090000D02*
X116840000Y-85090000D01*
X118110000Y-85090000D02*
X118745000Y-84455000D01*
X123190000Y-78740000D02*
X124460000Y-77470000D01*
X127635000Y-77470000D02*
X124460000Y-77470000D01*
X123190000Y-78740000D02*
X118745000Y-78740000D01*
X88900000Y-85090000D02*
X88265000Y-84455000D01*
X88265000Y-84455000D02*
X88265000Y-84455000D01*
X130810000Y-78740000D02*
X129540000Y-77470000D01*
X137795000Y-77470000D02*
X136525000Y-78740000D01*
X129540000Y-77470000D02*
X127635000Y-77470000D01*
X140335000Y-77470000D02*
X137795000Y-77470000D01*
X136525000Y-78740000D02*
X130810000Y-78740000D01*
X78995000Y-64135000D02*
X83820000Y-64135000D01*
X94615000Y-85725000D02*
X87630000Y-85725000D01*
X87630000Y-85725000D02*
X86995000Y-85090000D01*
X120650000Y-85725000D02*
X124460000Y-81915000D01*
X124460000Y-81915000D02*
X126365000Y-80010000D01*
X126365000Y-80010000D02*
X127635000Y-80010000D01*
X86995000Y-85090000D02*
X86995000Y-85115398D01*
X94589602Y-85725000D02*
X94615000Y-85725000D01*
X94615000Y-85725000D02*
X120650000Y-85725000D01*
X130810000Y-81280000D02*
X129540000Y-80010000D01*
X137795000Y-80010000D02*
X136525000Y-81280000D01*
X129540000Y-80010000D02*
X127635000Y-80010000D01*
X140335000Y-80010000D02*
X137795000Y-80010000D01*
X136525000Y-81280000D02*
X130810000Y-81280000D01*
X78995000Y-62865000D02*
X81280000Y-62865000D01*
X89535000Y-83185000D02*
X85090000Y-83185000D01*
X115570000Y-84455000D02*
X90805000Y-84455000D01*
X118110000Y-76200000D02*
X116840000Y-74930000D01*
X123190000Y-76200000D02*
X124460000Y-74930000D01*
X127635000Y-74930000D02*
X124460000Y-74930000D01*
X123190000Y-76200000D02*
X118110000Y-76200000D01*
X89535000Y-83185000D02*
X90805000Y-84455000D01*
X116205000Y-83820000D02*
X115570000Y-84455000D01*
X84455000Y-83820000D02*
X84455000Y-84455000D01*
X85090000Y-83185000D02*
X84455000Y-83820000D01*
X84455000Y-84455000D02*
X84455000Y-84455000D01*
X130810000Y-76200000D02*
X129540000Y-74930000D01*
X137795000Y-74930000D02*
X136525000Y-76200000D01*
X129540000Y-74930000D02*
X127635000Y-74930000D01*
X140335000Y-74930000D02*
X137795000Y-74930000D01*
X136525000Y-76200000D02*
X130810000Y-76200000D01*
X78995000Y-61595000D02*
X82550000Y-61595000D01*
X91465398Y-86385398D02*
X86360000Y-86385398D01*
X123799602Y-86385398D02*
X125730000Y-84455000D01*
X125730000Y-84455000D02*
X126365000Y-84455000D01*
X91465398Y-86385398D02*
X122529602Y-86385398D01*
X122529602Y-86385398D02*
X123799602Y-86385398D01*
X86385398Y-86385398D02*
X86360000Y-86360000D01*
X86360000Y-86360000D02*
X86360000Y-86385398D01*
X85725000Y-85725000D02*
X86385398Y-86385398D01*
X130810000Y-73660000D02*
X129540000Y-72390000D01*
X136525000Y-73660000D02*
X130810000Y-73660000D01*
X140335000Y-72390000D02*
X137795000Y-72390000D01*
X129540000Y-72390000D02*
X127635000Y-72390000D01*
X137795000Y-72390000D02*
X136525000Y-73660000D01*
X69595000Y-57785000D02*
X66505000Y-57785000D01*
X90170000Y-55880000D02*
X75565000Y-55880000D01*
X142875000Y-81280000D02*
X138430000Y-81280000D01*
X146685000Y-80010000D02*
X144145000Y-80010000D01*
X144145000Y-80010000D02*
X142875000Y-81280000D01*
X138430000Y-81280000D02*
X137160000Y-82550000D01*
X120015000Y-54610000D02*
X121920000Y-52705000D01*
X121920000Y-52705000D02*
X137795000Y-52705000D01*
X95250000Y-55880000D02*
X90170000Y-55880000D01*
X96520000Y-54610000D02*
X95250000Y-55880000D01*
X96520000Y-54610000D02*
X120015000Y-54610000D01*
X73660000Y-57785000D02*
X69595000Y-57785000D01*
X75565000Y-55880000D02*
X73660000Y-57785000D01*
X145415000Y-84455000D02*
X144780000Y-85090000D01*
X144780000Y-85090000D02*
X130810000Y-85090000D01*
X116205000Y-55270398D02*
X128879602Y-55270398D01*
X95885000Y-56515000D02*
X97129602Y-55270398D01*
X97129602Y-55270398D02*
X116205000Y-55270398D01*
X128879602Y-55270398D02*
X129540000Y-54610000D01*
X73660000Y-59055000D02*
X69595000Y-59055000D01*
X76220189Y-56494811D02*
X73660000Y-59055000D01*
X95885000Y-56515000D02*
X76220189Y-56494811D01*
X99695000Y-57785000D02*
X95885000Y-61595000D01*
X99695000Y-57759602D02*
X99695000Y-57785000D01*
X85725000Y-67945000D02*
X78995000Y-67945000D01*
X86360000Y-67310000D02*
X85725000Y-67945000D01*
X86360000Y-64135000D02*
X86360000Y-67310000D01*
X88900000Y-61595000D02*
X86360000Y-64135000D01*
X95885000Y-61595000D02*
X88900000Y-61595000D01*
X100355398Y-57759602D02*
X99695000Y-57759602D01*
X99695000Y-57759602D02*
X99720398Y-57759602D01*
X130149602Y-57759602D02*
X130810000Y-58420000D01*
X100355398Y-57759602D02*
X116205000Y-57759602D01*
X116205000Y-57759602D02*
X130149602Y-57759602D01*
X143510000Y-69850000D02*
X146685000Y-69850000D01*
X142240000Y-71120000D02*
X143510000Y-69850000D01*
X137795000Y-71120000D02*
X142240000Y-71120000D01*
X136525000Y-72390000D02*
X137795000Y-71120000D01*
X135890000Y-72390000D02*
X136525000Y-72390000D01*
X83820000Y-65405000D02*
X84455000Y-65405000D01*
X78995000Y-65405000D02*
X83820000Y-65405000D01*
X95250000Y-60960000D02*
X88265000Y-60960000D01*
X136525000Y-69850000D02*
X137795000Y-68580000D01*
X137795000Y-68580000D02*
X138430000Y-68580000D01*
X116205000Y-57150000D02*
X134620000Y-57150000D01*
X99060000Y-57150000D02*
X116205000Y-57150000D01*
X134620000Y-57150000D02*
X135255000Y-57785000D01*
X99060000Y-57150000D02*
X95250000Y-60960000D01*
X85090000Y-64135000D02*
X88265000Y-60960000D01*
X85090000Y-64770000D02*
X85090000Y-64135000D01*
X84455000Y-65405000D02*
X85090000Y-64770000D01*
X149225000Y-67310000D02*
X147955000Y-68580000D01*
X138430000Y-68580000D02*
X139065000Y-68580000D01*
X145415000Y-68580000D02*
X138430000Y-68580000D01*
X147955000Y-68580000D02*
X145415000Y-68580000D01*
X98425000Y-56515000D02*
X94615000Y-60325000D01*
X136525000Y-57150000D02*
X135890000Y-56515000D01*
X98425000Y-56515000D02*
X135890000Y-56515000D01*
X94615000Y-60325000D02*
X78995000Y-60325000D01*
X137160000Y-84455000D02*
X135890000Y-83185000D01*
X145415000Y-81280000D02*
X142240000Y-84455000D01*
X142240000Y-84455000D02*
X141605000Y-84455000D01*
X139065000Y-84455000D02*
X141605000Y-84455000D01*
X139065000Y-84455000D02*
X137160000Y-84455000D01*
X97790000Y-55880000D02*
X94615000Y-59055000D01*
X144145000Y-67310000D02*
X142875000Y-66040000D01*
X142875000Y-66040000D02*
X138430000Y-66040000D01*
X146685000Y-67310000D02*
X144145000Y-67310000D01*
X138430000Y-55880000D02*
X97790000Y-55880000D01*
X139065000Y-55880000D02*
X138430000Y-55880000D01*
X94615000Y-59055000D02*
X78995000Y-59055000D01*
X144145000Y-59055000D02*
X144145000Y-62230000D01*
X149225000Y-69850000D02*
X150495000Y-69850000D01*
X131470398Y-53975000D02*
X131445000Y-53949602D01*
X139065000Y-53975000D02*
X144145000Y-59055000D01*
X131470398Y-53975000D02*
X139065000Y-53975000D01*
X145415000Y-63500000D02*
X144145000Y-62230000D01*
X150495000Y-63500000D02*
X145415000Y-63500000D01*
X150876000Y-63881000D02*
X150495000Y-63500000D01*
X150876000Y-69469000D02*
X150876000Y-63881000D01*
X150495000Y-69850000D02*
X150876000Y-69469000D01*
X130810000Y-53314602D02*
X131445000Y-53949602D01*
X125095000Y-53975000D02*
X127635000Y-53975000D01*
X127635000Y-53975000D02*
X127635000Y-53949602D01*
X127635000Y-53949602D02*
X128257301Y-53327301D01*
X114935000Y-62230000D02*
X116840000Y-62230000D01*
X123190000Y-63500000D02*
X124460000Y-62230000D01*
X118110000Y-63500000D02*
X123190000Y-63500000D01*
X116840000Y-62230000D02*
X118110000Y-63500000D01*
X124460000Y-62230000D02*
X125095000Y-62230000D01*
X128270000Y-53314602D02*
X130810000Y-53314602D01*
X128257301Y-53327301D02*
X128270000Y-53314602D01*
X131445000Y-53949602D02*
X131445000Y-53975000D01*
X144780000Y-72390000D02*
X143510000Y-73660000D01*
X143510000Y-73660000D02*
X137795000Y-73660000D01*
X137795000Y-73660000D02*
X136525000Y-74930000D01*
X136525000Y-74930000D02*
X135890000Y-74930000D01*
X134620000Y-83820000D02*
X130810000Y-83820000D01*
X130810000Y-83820000D02*
X129540000Y-82550000D01*
X127635000Y-82550000D02*
X129540000Y-82550000D01*
X144780000Y-72390000D02*
X146685000Y-72390000D01*
X149225000Y-72390000D02*
X147955000Y-71120000D01*
X142875000Y-72390000D02*
X142240000Y-72390000D01*
X144145000Y-71120000D02*
X142875000Y-72390000D01*
X147955000Y-71120000D02*
X144145000Y-71120000D01*
X120015000Y-59690000D02*
X123190000Y-59690000D01*
X131445000Y-60960000D02*
X142240000Y-60960000D01*
X128854204Y-58369204D02*
X131445000Y-60960000D01*
X124510796Y-58369204D02*
X128854204Y-58369204D01*
X123190000Y-59690000D02*
X124510796Y-58369204D01*
X139065000Y-78740000D02*
X138430000Y-78740000D01*
X145415000Y-74930000D02*
X141605000Y-78740000D01*
X141605000Y-78740000D02*
X139065000Y-78740000D01*
X146685000Y-74930000D02*
X145415000Y-74930000D01*
X137795000Y-76200000D02*
X142240000Y-76200000D01*
X137795000Y-76200000D02*
X136525000Y-77470000D01*
X136525000Y-77470000D02*
X134620000Y-77470000D01*
X147955000Y-73660000D02*
X149225000Y-74930000D01*
X144780000Y-73660000D02*
X147955000Y-73660000D01*
X142240000Y-76200000D02*
X144780000Y-73660000D01*
D25*
G36*
X77476382Y-45726382D02*
X77283671Y-46014794D01*
X77227869Y-46295329D01*
X77125657Y-46363625D01*
X76876844Y-46736000D01*
X69215000Y-46736000D01*
X68874794Y-46803671D01*
X68605485Y-46983618D01*
X68586382Y-46996382D01*
X62236382Y-53346382D01*
X62043671Y-53634794D01*
X61976000Y-53975000D01*
X61976000Y-59687137D01*
X61950378Y-59712714D01*
X61785687Y-60109332D01*
X61785313Y-60538784D01*
X61949311Y-60935689D01*
X62252714Y-61239622D01*
X62649332Y-61404313D01*
X63078784Y-61404687D01*
X63475689Y-61240689D01*
X63779622Y-60937286D01*
X63944313Y-60540668D01*
X63944687Y-60111216D01*
X63780689Y-59714311D01*
X63754000Y-59687575D01*
X63754000Y-58882440D01*
X64905000Y-58882440D01*
X65140317Y-58838162D01*
X65356441Y-58699090D01*
X65404134Y-58629289D01*
X65440910Y-58686441D01*
X65653110Y-58831431D01*
X65905000Y-58882440D01*
X67105000Y-58882440D01*
X67340317Y-58838162D01*
X67556441Y-58699090D01*
X67625649Y-58597800D01*
X67979394Y-58597800D01*
X67947560Y-58755000D01*
X67947560Y-59355000D01*
X67991838Y-59590317D01*
X68055678Y-59689528D01*
X67998569Y-59773110D01*
X67947560Y-60025000D01*
X67947560Y-60625000D01*
X67991838Y-60860317D01*
X68055678Y-60959528D01*
X67998569Y-61043110D01*
X67947560Y-61295000D01*
X67947560Y-61895000D01*
X67991838Y-62130317D01*
X68055678Y-62229528D01*
X67998569Y-62313110D01*
X67947560Y-62565000D01*
X67947560Y-63165000D01*
X67991838Y-63400317D01*
X68055678Y-63499528D01*
X67998569Y-63583110D01*
X67947560Y-63835000D01*
X67947560Y-64435000D01*
X67977139Y-64592200D01*
X64135000Y-64592200D01*
X63826529Y-64653559D01*
X63823955Y-64654071D01*
X63560263Y-64830264D01*
X55940264Y-72450264D01*
X55764071Y-72713955D01*
X55702200Y-73025000D01*
X55702200Y-86360000D01*
X55761589Y-86658569D01*
X55764071Y-86671045D01*
X55940264Y-86934736D01*
X58743837Y-89738310D01*
X58657968Y-90170000D01*
X58743837Y-90601691D01*
X58083328Y-91262200D01*
X56515000Y-91262200D01*
X56203955Y-91324071D01*
X55940263Y-91500264D01*
X54670265Y-92770263D01*
X54670264Y-92770264D01*
X54494071Y-93033955D01*
X54432200Y-93345000D01*
X54432200Y-132080000D01*
X54487821Y-132359622D01*
X54494071Y-132391045D01*
X54670264Y-132654736D01*
X62290263Y-140274736D01*
X62553955Y-140450929D01*
X62865000Y-140512800D01*
X66040000Y-140512800D01*
X66351045Y-140450929D01*
X66614736Y-140274736D01*
X66744911Y-140144562D01*
X66888784Y-140144687D01*
X67285689Y-139980689D01*
X67589622Y-139677286D01*
X67754313Y-139280668D01*
X67754687Y-138851216D01*
X67654109Y-138607800D01*
X68501070Y-138607800D01*
X68602714Y-138709622D01*
X68999332Y-138874313D01*
X69428784Y-138874687D01*
X69825689Y-138710689D01*
X70129622Y-138407286D01*
X70294313Y-138010668D01*
X70294687Y-137581216D01*
X70130689Y-137184311D01*
X69827286Y-136880378D01*
X69634535Y-136800340D01*
X69659313Y-136740668D01*
X69659687Y-136311216D01*
X69559109Y-136067800D01*
X110153328Y-136067800D01*
X110312200Y-136226673D01*
X110312200Y-137057345D01*
X110145657Y-137168625D01*
X109855000Y-137603624D01*
X109564343Y-137168625D01*
X109115017Y-136868395D01*
X108585000Y-136762968D01*
X108054983Y-136868395D01*
X107605657Y-137168625D01*
X107315000Y-137603624D01*
X107024343Y-137168625D01*
X106575017Y-136868395D01*
X106045000Y-136762968D01*
X105514983Y-136868395D01*
X105065657Y-137168625D01*
X104775000Y-137603624D01*
X104484343Y-137168625D01*
X104035017Y-136868395D01*
X103505000Y-136762968D01*
X102974983Y-136868395D01*
X102525657Y-137168625D01*
X102235000Y-137603624D01*
X101944343Y-137168625D01*
X101495017Y-136868395D01*
X100965000Y-136762968D01*
X100434983Y-136868395D01*
X99985657Y-137168625D01*
X99695000Y-137603624D01*
X99404343Y-137168625D01*
X98955017Y-136868395D01*
X98425000Y-136762968D01*
X97894983Y-136868395D01*
X97445657Y-137168625D01*
X97155000Y-137603624D01*
X96864343Y-137168625D01*
X96415017Y-136868395D01*
X95885000Y-136762968D01*
X95354983Y-136868395D01*
X94905657Y-137168625D01*
X94615000Y-137603624D01*
X94324343Y-137168625D01*
X93875017Y-136868395D01*
X93345000Y-136762968D01*
X92814983Y-136868395D01*
X92365657Y-137168625D01*
X92075000Y-137603624D01*
X91784343Y-137168625D01*
X91335017Y-136868395D01*
X90805000Y-136762968D01*
X90274983Y-136868395D01*
X89825657Y-137168625D01*
X89535000Y-137603624D01*
X89244343Y-137168625D01*
X88795017Y-136868395D01*
X88265000Y-136762968D01*
X87734983Y-136868395D01*
X87285657Y-137168625D01*
X86995000Y-137603624D01*
X86704343Y-137168625D01*
X86255017Y-136868395D01*
X85725000Y-136762968D01*
X85194983Y-136868395D01*
X84745657Y-137168625D01*
X84455000Y-137603624D01*
X84164343Y-137168625D01*
X83715017Y-136868395D01*
X83185000Y-136762968D01*
X82654983Y-136868395D01*
X82205657Y-137168625D01*
X81915000Y-137603624D01*
X81624343Y-137168625D01*
X81175017Y-136868395D01*
X80645000Y-136762968D01*
X80114983Y-136868395D01*
X79665657Y-137168625D01*
X79375000Y-137603624D01*
X79084343Y-137168625D01*
X78635017Y-136868395D01*
X78105000Y-136762968D01*
X77574983Y-136868395D01*
X77125657Y-137168625D01*
X76825427Y-137617951D01*
X76720000Y-138147968D01*
X76720000Y-138712032D01*
X76825427Y-139242049D01*
X77125657Y-139691375D01*
X77138565Y-139700000D01*
X77125657Y-139708625D01*
X76825427Y-140157951D01*
X76720000Y-140687968D01*
X76720000Y-141252032D01*
X76825427Y-141782049D01*
X77125657Y-142231375D01*
X77574983Y-142531605D01*
X78105000Y-142637032D01*
X78635017Y-142531605D01*
X79084343Y-142231375D01*
X79375000Y-141796376D01*
X79665657Y-142231375D01*
X80114983Y-142531605D01*
X80645000Y-142637032D01*
X81175017Y-142531605D01*
X81624343Y-142231375D01*
X81915000Y-141796376D01*
X82205657Y-142231375D01*
X82654983Y-142531605D01*
X83185000Y-142637032D01*
X83715017Y-142531605D01*
X84164343Y-142231375D01*
X84455000Y-141796376D01*
X84745657Y-142231375D01*
X85194983Y-142531605D01*
X85725000Y-142637032D01*
X86255017Y-142531605D01*
X86704343Y-142231375D01*
X86995000Y-141796376D01*
X87285657Y-142231375D01*
X87734983Y-142531605D01*
X88265000Y-142637032D01*
X88795017Y-142531605D01*
X89244343Y-142231375D01*
X89535000Y-141796376D01*
X89825657Y-142231375D01*
X90274983Y-142531605D01*
X90805000Y-142637032D01*
X91335017Y-142531605D01*
X91784343Y-142231375D01*
X92075000Y-141796376D01*
X92365657Y-142231375D01*
X92814983Y-142531605D01*
X93345000Y-142637032D01*
X93875017Y-142531605D01*
X94324343Y-142231375D01*
X94615000Y-141796376D01*
X94905657Y-142231375D01*
X95354983Y-142531605D01*
X95885000Y-142637032D01*
X96415017Y-142531605D01*
X96864343Y-142231375D01*
X97155000Y-141796376D01*
X97445657Y-142231375D01*
X97894983Y-142531605D01*
X98425000Y-142637032D01*
X98955017Y-142531605D01*
X99404343Y-142231375D01*
X99695000Y-141796376D01*
X99985657Y-142231375D01*
X100434983Y-142531605D01*
X100965000Y-142637032D01*
X101495017Y-142531605D01*
X101944343Y-142231375D01*
X102235000Y-141796376D01*
X102525657Y-142231375D01*
X102974983Y-142531605D01*
X103505000Y-142637032D01*
X104035017Y-142531605D01*
X104484343Y-142231375D01*
X104775000Y-141796376D01*
X105065657Y-142231375D01*
X105514983Y-142531605D01*
X106045000Y-142637032D01*
X106575017Y-142531605D01*
X107024343Y-142231375D01*
X107315000Y-141796376D01*
X107605657Y-142231375D01*
X108054983Y-142531605D01*
X108585000Y-142637032D01*
X109115017Y-142531605D01*
X109564343Y-142231375D01*
X109855000Y-141796376D01*
X110145657Y-142231375D01*
X110594983Y-142531605D01*
X111125000Y-142637032D01*
X111655017Y-142531605D01*
X112104343Y-142231375D01*
X112395000Y-141796376D01*
X112685657Y-142231375D01*
X113134983Y-142531605D01*
X113665000Y-142637032D01*
X114195017Y-142531605D01*
X114644343Y-142231375D01*
X114935000Y-141796376D01*
X115225657Y-142231375D01*
X115674983Y-142531605D01*
X116205000Y-142637032D01*
X116735017Y-142531605D01*
X117184343Y-142231375D01*
X117475000Y-141796376D01*
X117765657Y-142231375D01*
X118214983Y-142531605D01*
X118745000Y-142637032D01*
X119275017Y-142531605D01*
X119724343Y-142231375D01*
X120015000Y-141796376D01*
X120305657Y-142231375D01*
X120754983Y-142531605D01*
X121285000Y-142637032D01*
X121815017Y-142531605D01*
X122264343Y-142231375D01*
X122555000Y-141796376D01*
X122845657Y-142231375D01*
X123294983Y-142531605D01*
X123825000Y-142637032D01*
X124355017Y-142531605D01*
X124804343Y-142231375D01*
X125095000Y-141796376D01*
X125385657Y-142231375D01*
X125834983Y-142531605D01*
X126365000Y-142637032D01*
X126895017Y-142531605D01*
X127344343Y-142231375D01*
X127593156Y-141859000D01*
X128270000Y-141859000D01*
X128610206Y-141791329D01*
X128898618Y-141598618D01*
X131438618Y-139058618D01*
X131631329Y-138770206D01*
X131699000Y-138430000D01*
X131699000Y-133987863D01*
X131724622Y-133962286D01*
X131889313Y-133565668D01*
X131889346Y-133527890D01*
X133718236Y-131699000D01*
X142875000Y-131699000D01*
X143215206Y-131631329D01*
X143503618Y-131438618D01*
X146043618Y-128898618D01*
X146236329Y-128610206D01*
X146304000Y-128270000D01*
X146304000Y-95252863D01*
X146329622Y-95227286D01*
X146494313Y-94830668D01*
X146494687Y-94401216D01*
X146330689Y-94004311D01*
X146118111Y-93791361D01*
X151199911Y-88709562D01*
X151343784Y-88709687D01*
X151715000Y-88556303D01*
X151715000Y-143460000D01*
X53390000Y-143460000D01*
X53390000Y-45135000D01*
X78067764Y-45135000D01*
X77476382Y-45726382D01*
X77476382Y-45726382D01*
G37*
X77476382Y-45726382D02*
X77283671Y-46014794D01*
X77227869Y-46295329D01*
X77125657Y-46363625D01*
X76876844Y-46736000D01*
X69215000Y-46736000D01*
X68874794Y-46803671D01*
X68605485Y-46983618D01*
X68586382Y-46996382D01*
X62236382Y-53346382D01*
X62043671Y-53634794D01*
X61976000Y-53975000D01*
X61976000Y-59687137D01*
X61950378Y-59712714D01*
X61785687Y-60109332D01*
X61785313Y-60538784D01*
X61949311Y-60935689D01*
X62252714Y-61239622D01*
X62649332Y-61404313D01*
X63078784Y-61404687D01*
X63475689Y-61240689D01*
X63779622Y-60937286D01*
X63944313Y-60540668D01*
X63944687Y-60111216D01*
X63780689Y-59714311D01*
X63754000Y-59687575D01*
X63754000Y-58882440D01*
X64905000Y-58882440D01*
X65140317Y-58838162D01*
X65356441Y-58699090D01*
X65404134Y-58629289D01*
X65440910Y-58686441D01*
X65653110Y-58831431D01*
X65905000Y-58882440D01*
X67105000Y-58882440D01*
X67340317Y-58838162D01*
X67556441Y-58699090D01*
X67625649Y-58597800D01*
X67979394Y-58597800D01*
X67947560Y-58755000D01*
X67947560Y-59355000D01*
X67991838Y-59590317D01*
X68055678Y-59689528D01*
X67998569Y-59773110D01*
X67947560Y-60025000D01*
X67947560Y-60625000D01*
X67991838Y-60860317D01*
X68055678Y-60959528D01*
X67998569Y-61043110D01*
X67947560Y-61295000D01*
X67947560Y-61895000D01*
X67991838Y-62130317D01*
X68055678Y-62229528D01*
X67998569Y-62313110D01*
X67947560Y-62565000D01*
X67947560Y-63165000D01*
X67991838Y-63400317D01*
X68055678Y-63499528D01*
X67998569Y-63583110D01*
X67947560Y-63835000D01*
X67947560Y-64435000D01*
X67977139Y-64592200D01*
X64135000Y-64592200D01*
X63826529Y-64653559D01*
X63823955Y-64654071D01*
X63560263Y-64830264D01*
X55940264Y-72450264D01*
X55764071Y-72713955D01*
X55702200Y-73025000D01*
X55702200Y-86360000D01*
X55761589Y-86658569D01*
X55764071Y-86671045D01*
X55940264Y-86934736D01*
X58743837Y-89738310D01*
X58657968Y-90170000D01*
X58743837Y-90601691D01*
X58083328Y-91262200D01*
X56515000Y-91262200D01*
X56203955Y-91324071D01*
X55940263Y-91500264D01*
X54670265Y-92770263D01*
X54670264Y-92770264D01*
X54494071Y-93033955D01*
X54432200Y-93345000D01*
X54432200Y-132080000D01*
X54487821Y-132359622D01*
X54494071Y-132391045D01*
X54670264Y-132654736D01*
X62290263Y-140274736D01*
X62553955Y-140450929D01*
X62865000Y-140512800D01*
X66040000Y-140512800D01*
X66351045Y-140450929D01*
X66614736Y-140274736D01*
X66744911Y-140144562D01*
X66888784Y-140144687D01*
X67285689Y-139980689D01*
X67589622Y-139677286D01*
X67754313Y-139280668D01*
X67754687Y-138851216D01*
X67654109Y-138607800D01*
X68501070Y-138607800D01*
X68602714Y-138709622D01*
X68999332Y-138874313D01*
X69428784Y-138874687D01*
X69825689Y-138710689D01*
X70129622Y-138407286D01*
X70294313Y-138010668D01*
X70294687Y-137581216D01*
X70130689Y-137184311D01*
X69827286Y-136880378D01*
X69634535Y-136800340D01*
X69659313Y-136740668D01*
X69659687Y-136311216D01*
X69559109Y-136067800D01*
X110153328Y-136067800D01*
X110312200Y-136226673D01*
X110312200Y-137057345D01*
X110145657Y-137168625D01*
X109855000Y-137603624D01*
X109564343Y-137168625D01*
X109115017Y-136868395D01*
X108585000Y-136762968D01*
X108054983Y-136868395D01*
X107605657Y-137168625D01*
X107315000Y-137603624D01*
X107024343Y-137168625D01*
X106575017Y-136868395D01*
X106045000Y-136762968D01*
X105514983Y-136868395D01*
X105065657Y-137168625D01*
X104775000Y-137603624D01*
X104484343Y-137168625D01*
X104035017Y-136868395D01*
X103505000Y-136762968D01*
X102974983Y-136868395D01*
X102525657Y-137168625D01*
X102235000Y-137603624D01*
X101944343Y-137168625D01*
X101495017Y-136868395D01*
X100965000Y-136762968D01*
X100434983Y-136868395D01*
X99985657Y-137168625D01*
X99695000Y-137603624D01*
X99404343Y-137168625D01*
X98955017Y-136868395D01*
X98425000Y-136762968D01*
X97894983Y-136868395D01*
X97445657Y-137168625D01*
X97155000Y-137603624D01*
X96864343Y-137168625D01*
X96415017Y-136868395D01*
X95885000Y-136762968D01*
X95354983Y-136868395D01*
X94905657Y-137168625D01*
X94615000Y-137603624D01*
X94324343Y-137168625D01*
X93875017Y-136868395D01*
X93345000Y-136762968D01*
X92814983Y-136868395D01*
X92365657Y-137168625D01*
X92075000Y-137603624D01*
X91784343Y-137168625D01*
X91335017Y-136868395D01*
X90805000Y-136762968D01*
X90274983Y-136868395D01*
X89825657Y-137168625D01*
X89535000Y-137603624D01*
X89244343Y-137168625D01*
X88795017Y-136868395D01*
X88265000Y-136762968D01*
X87734983Y-136868395D01*
X87285657Y-137168625D01*
X86995000Y-137603624D01*
X86704343Y-137168625D01*
X86255017Y-136868395D01*
X85725000Y-136762968D01*
X85194983Y-136868395D01*
X84745657Y-137168625D01*
X84455000Y-137603624D01*
X84164343Y-137168625D01*
X83715017Y-136868395D01*
X83185000Y-136762968D01*
X82654983Y-136868395D01*
X82205657Y-137168625D01*
X81915000Y-137603624D01*
X81624343Y-137168625D01*
X81175017Y-136868395D01*
X80645000Y-136762968D01*
X80114983Y-136868395D01*
X79665657Y-137168625D01*
X79375000Y-137603624D01*
X79084343Y-137168625D01*
X78635017Y-136868395D01*
X78105000Y-136762968D01*
X77574983Y-136868395D01*
X77125657Y-137168625D01*
X76825427Y-137617951D01*
X76720000Y-138147968D01*
X76720000Y-138712032D01*
X76825427Y-139242049D01*
X77125657Y-139691375D01*
X77138565Y-139700000D01*
X77125657Y-139708625D01*
X76825427Y-140157951D01*
X76720000Y-140687968D01*
X76720000Y-141252032D01*
X76825427Y-141782049D01*
X77125657Y-142231375D01*
X77574983Y-142531605D01*
X78105000Y-142637032D01*
X78635017Y-142531605D01*
X79084343Y-142231375D01*
X79375000Y-141796376D01*
X79665657Y-142231375D01*
X80114983Y-142531605D01*
X80645000Y-142637032D01*
X81175017Y-142531605D01*
X81624343Y-142231375D01*
X81915000Y-141796376D01*
X82205657Y-142231375D01*
X82654983Y-142531605D01*
X83185000Y-142637032D01*
X83715017Y-142531605D01*
X84164343Y-142231375D01*
X84455000Y-141796376D01*
X84745657Y-142231375D01*
X85194983Y-142531605D01*
X85725000Y-142637032D01*
X86255017Y-142531605D01*
X86704343Y-142231375D01*
X86995000Y-141796376D01*
X87285657Y-142231375D01*
X87734983Y-142531605D01*
X88265000Y-142637032D01*
X88795017Y-142531605D01*
X89244343Y-142231375D01*
X89535000Y-141796376D01*
X89825657Y-142231375D01*
X90274983Y-142531605D01*
X90805000Y-142637032D01*
X91335017Y-142531605D01*
X91784343Y-142231375D01*
X92075000Y-141796376D01*
X92365657Y-142231375D01*
X92814983Y-142531605D01*
X93345000Y-142637032D01*
X93875017Y-142531605D01*
X94324343Y-142231375D01*
X94615000Y-141796376D01*
X94905657Y-142231375D01*
X95354983Y-142531605D01*
X95885000Y-142637032D01*
X96415017Y-142531605D01*
X96864343Y-142231375D01*
X97155000Y-141796376D01*
X97445657Y-142231375D01*
X97894983Y-142531605D01*
X98425000Y-142637032D01*
X98955017Y-142531605D01*
X99404343Y-142231375D01*
X99695000Y-141796376D01*
X99985657Y-142231375D01*
X100434983Y-142531605D01*
X100965000Y-142637032D01*
X101495017Y-142531605D01*
X101944343Y-142231375D01*
X102235000Y-141796376D01*
X102525657Y-142231375D01*
X102974983Y-142531605D01*
X103505000Y-142637032D01*
X104035017Y-142531605D01*
X104484343Y-142231375D01*
X104775000Y-141796376D01*
X105065657Y-142231375D01*
X105514983Y-142531605D01*
X106045000Y-142637032D01*
X106575017Y-142531605D01*
X107024343Y-142231375D01*
X107315000Y-141796376D01*
X107605657Y-142231375D01*
X108054983Y-142531605D01*
X108585000Y-142637032D01*
X109115017Y-142531605D01*
X109564343Y-142231375D01*
X109855000Y-141796376D01*
X110145657Y-142231375D01*
X110594983Y-142531605D01*
X111125000Y-142637032D01*
X111655017Y-142531605D01*
X112104343Y-142231375D01*
X112395000Y-141796376D01*
X112685657Y-142231375D01*
X113134983Y-142531605D01*
X113665000Y-142637032D01*
X114195017Y-142531605D01*
X114644343Y-142231375D01*
X114935000Y-141796376D01*
X115225657Y-142231375D01*
X115674983Y-142531605D01*
X116205000Y-142637032D01*
X116735017Y-142531605D01*
X117184343Y-142231375D01*
X117475000Y-141796376D01*
X117765657Y-142231375D01*
X118214983Y-142531605D01*
X118745000Y-142637032D01*
X119275017Y-142531605D01*
X119724343Y-142231375D01*
X120015000Y-141796376D01*
X120305657Y-142231375D01*
X120754983Y-142531605D01*
X121285000Y-142637032D01*
X121815017Y-142531605D01*
X122264343Y-142231375D01*
X122555000Y-141796376D01*
X122845657Y-142231375D01*
X123294983Y-142531605D01*
X123825000Y-142637032D01*
X124355017Y-142531605D01*
X124804343Y-142231375D01*
X125095000Y-141796376D01*
X125385657Y-142231375D01*
X125834983Y-142531605D01*
X126365000Y-142637032D01*
X126895017Y-142531605D01*
X127344343Y-142231375D01*
X127593156Y-141859000D01*
X128270000Y-141859000D01*
X128610206Y-141791329D01*
X128898618Y-141598618D01*
X131438618Y-139058618D01*
X131631329Y-138770206D01*
X131699000Y-138430000D01*
X131699000Y-133987863D01*
X131724622Y-133962286D01*
X131889313Y-133565668D01*
X131889346Y-133527890D01*
X133718236Y-131699000D01*
X142875000Y-131699000D01*
X143215206Y-131631329D01*
X143503618Y-131438618D01*
X146043618Y-128898618D01*
X146236329Y-128610206D01*
X146304000Y-128270000D01*
X146304000Y-95252863D01*
X146329622Y-95227286D01*
X146494313Y-94830668D01*
X146494687Y-94401216D01*
X146330689Y-94004311D01*
X146118111Y-93791361D01*
X151199911Y-88709562D01*
X151343784Y-88709687D01*
X151715000Y-88556303D01*
X151715000Y-143460000D01*
X53390000Y-143460000D01*
X53390000Y-45135000D01*
X78067764Y-45135000D01*
X77476382Y-45726382D01*
G36*
X144526000Y-127901764D02*
X142506764Y-129921000D01*
X133350000Y-129921000D01*
X133009794Y-129988671D01*
X132721382Y-130181382D01*
X130632419Y-132270345D01*
X130596216Y-132270313D01*
X130199311Y-132434311D01*
X129895378Y-132737714D01*
X129730687Y-133134332D01*
X129730313Y-133563784D01*
X129894311Y-133960689D01*
X129921000Y-133987425D01*
X129921000Y-138061764D01*
X127901764Y-140081000D01*
X127593156Y-140081000D01*
X127461754Y-139884343D01*
X127588298Y-139831927D01*
X127766927Y-139653299D01*
X127863600Y-139419910D01*
X127863600Y-138715750D01*
X127704850Y-138557000D01*
X126492000Y-138557000D01*
X126492000Y-138577000D01*
X126238000Y-138577000D01*
X126238000Y-138557000D01*
X126218000Y-138557000D01*
X126218000Y-138303000D01*
X126238000Y-138303000D01*
X126238000Y-137090150D01*
X126492000Y-137090150D01*
X126492000Y-138303000D01*
X127704850Y-138303000D01*
X127863600Y-138144250D01*
X127863600Y-137440090D01*
X127766927Y-137206701D01*
X127588298Y-137028073D01*
X127354909Y-136931400D01*
X126650750Y-136931400D01*
X126492000Y-137090150D01*
X126238000Y-137090150D01*
X126079250Y-136931400D01*
X125375091Y-136931400D01*
X125141702Y-137028073D01*
X124963073Y-137206701D01*
X124912066Y-137329843D01*
X124804343Y-137168625D01*
X124637800Y-137057345D01*
X124637800Y-131445000D01*
X124575929Y-131133955D01*
X124567303Y-131121045D01*
X124399737Y-130870264D01*
X122494736Y-128965264D01*
X122231045Y-128789071D01*
X121920000Y-128727200D01*
X120330677Y-128727200D01*
X120384592Y-128625281D01*
X120388462Y-128587609D01*
X120263731Y-128397000D01*
X118922000Y-128397000D01*
X118922000Y-128417000D01*
X118668000Y-128417000D01*
X118668000Y-128397000D01*
X117326269Y-128397000D01*
X117201538Y-128587609D01*
X117205408Y-128625281D01*
X117259323Y-128727200D01*
X115627272Y-128727200D01*
X116541673Y-127812800D01*
X117259323Y-127812800D01*
X117205408Y-127914719D01*
X117201538Y-127952391D01*
X117326269Y-128143000D01*
X118668000Y-128143000D01*
X118668000Y-128123000D01*
X118922000Y-128123000D01*
X118922000Y-128143000D01*
X120263731Y-128143000D01*
X120388462Y-127952391D01*
X120384592Y-127914719D01*
X120330677Y-127812800D01*
X122853328Y-127812800D01*
X123885263Y-128844736D01*
X124148955Y-129020929D01*
X124460000Y-129082800D01*
X124969282Y-129082800D01*
X125009691Y-129143277D01*
X125410354Y-129410991D01*
X125882968Y-129505000D01*
X126747032Y-129505000D01*
X127219646Y-129410991D01*
X127620309Y-129143277D01*
X127660718Y-129082800D01*
X130175000Y-129082800D01*
X130486045Y-129020929D01*
X130749736Y-128844736D01*
X131006863Y-128587609D01*
X132441538Y-128587609D01*
X132445408Y-128625281D01*
X132671920Y-129053474D01*
X133045053Y-129362390D01*
X133508000Y-129505000D01*
X133908000Y-129505000D01*
X133908000Y-128397000D01*
X134162000Y-128397000D01*
X134162000Y-129505000D01*
X134562000Y-129505000D01*
X135024947Y-129362390D01*
X135398080Y-129053474D01*
X135624592Y-128625281D01*
X135628462Y-128587609D01*
X135503731Y-128397000D01*
X134162000Y-128397000D01*
X133908000Y-128397000D01*
X132566269Y-128397000D01*
X132441538Y-128587609D01*
X131006863Y-128587609D01*
X131781673Y-127812800D01*
X132499323Y-127812800D01*
X132445408Y-127914719D01*
X132441538Y-127952391D01*
X132566269Y-128143000D01*
X133908000Y-128143000D01*
X133908000Y-128123000D01*
X134162000Y-128123000D01*
X134162000Y-128143000D01*
X135503731Y-128143000D01*
X135628462Y-127952391D01*
X135624592Y-127914719D01*
X135570677Y-127812800D01*
X137458328Y-127812800D01*
X138490263Y-128844736D01*
X138753955Y-129020929D01*
X139065000Y-129082800D01*
X140209282Y-129082800D01*
X140249691Y-129143277D01*
X140650354Y-129410991D01*
X141122968Y-129505000D01*
X141987032Y-129505000D01*
X142459646Y-129410991D01*
X142860309Y-129143277D01*
X143128023Y-128742614D01*
X143222032Y-128270000D01*
X143128023Y-127797386D01*
X142860309Y-127396723D01*
X142459646Y-127129009D01*
X141987032Y-127035000D01*
X141122968Y-127035000D01*
X140650354Y-127129009D01*
X140249691Y-127396723D01*
X140209282Y-127457200D01*
X139401673Y-127457200D01*
X138369736Y-126425264D01*
X138106045Y-126249071D01*
X137795000Y-126187200D01*
X135611089Y-126187200D01*
X135702032Y-125730000D01*
X135611089Y-125272800D01*
X137458328Y-125272800D01*
X138490263Y-126304736D01*
X138753955Y-126480929D01*
X139065000Y-126542800D01*
X140209282Y-126542800D01*
X140249691Y-126603277D01*
X140650354Y-126870991D01*
X141122968Y-126965000D01*
X141987032Y-126965000D01*
X142459646Y-126870991D01*
X142860309Y-126603277D01*
X143128023Y-126202614D01*
X143222032Y-125730000D01*
X143128023Y-125257386D01*
X142860309Y-124856723D01*
X142459646Y-124589009D01*
X141987032Y-124495000D01*
X141122968Y-124495000D01*
X140650354Y-124589009D01*
X140249691Y-124856723D01*
X140209282Y-124917200D01*
X139401673Y-124917200D01*
X138369736Y-123885264D01*
X138106045Y-123709071D01*
X137795000Y-123647200D01*
X135611089Y-123647200D01*
X135702032Y-123190000D01*
X135611089Y-122732800D01*
X137458328Y-122732800D01*
X138490263Y-123764736D01*
X138753955Y-123940929D01*
X139065000Y-124002800D01*
X140209282Y-124002800D01*
X140249691Y-124063277D01*
X140650354Y-124330991D01*
X141122968Y-124425000D01*
X141987032Y-124425000D01*
X142459646Y-124330991D01*
X142860309Y-124063277D01*
X143128023Y-123662614D01*
X143222032Y-123190000D01*
X143128023Y-122717386D01*
X142860309Y-122316723D01*
X142459646Y-122049009D01*
X141987032Y-121955000D01*
X141122968Y-121955000D01*
X140650354Y-122049009D01*
X140249691Y-122316723D01*
X140209282Y-122377200D01*
X139401673Y-122377200D01*
X138369736Y-121345264D01*
X138106045Y-121169071D01*
X137795000Y-121107200D01*
X135611089Y-121107200D01*
X135702032Y-120650000D01*
X135611089Y-120192800D01*
X137458328Y-120192800D01*
X138490263Y-121224736D01*
X138753955Y-121400929D01*
X139065000Y-121462800D01*
X140209282Y-121462800D01*
X140249691Y-121523277D01*
X140650354Y-121790991D01*
X141122968Y-121885000D01*
X141987032Y-121885000D01*
X142459646Y-121790991D01*
X142860309Y-121523277D01*
X143128023Y-121122614D01*
X143222032Y-120650000D01*
X143128023Y-120177386D01*
X142860309Y-119776723D01*
X142459646Y-119509009D01*
X141987032Y-119415000D01*
X141122968Y-119415000D01*
X140650354Y-119509009D01*
X140249691Y-119776723D01*
X140209282Y-119837200D01*
X139401673Y-119837200D01*
X138369736Y-118805264D01*
X138106045Y-118629071D01*
X137795000Y-118567200D01*
X135611089Y-118567200D01*
X135702032Y-118110000D01*
X135611089Y-117652800D01*
X137458328Y-117652800D01*
X138490263Y-118684736D01*
X138753955Y-118860929D01*
X139065000Y-118922800D01*
X140209282Y-118922800D01*
X140249691Y-118983277D01*
X140650354Y-119250991D01*
X141122968Y-119345000D01*
X141987032Y-119345000D01*
X142459646Y-119250991D01*
X142860309Y-118983277D01*
X143128023Y-118582614D01*
X143222032Y-118110000D01*
X143128023Y-117637386D01*
X142860309Y-117236723D01*
X142459646Y-116969009D01*
X141987032Y-116875000D01*
X141122968Y-116875000D01*
X140650354Y-116969009D01*
X140249691Y-117236723D01*
X140209282Y-117297200D01*
X139401673Y-117297200D01*
X138369736Y-116265264D01*
X138106045Y-116089071D01*
X137795000Y-116027200D01*
X135611089Y-116027200D01*
X135702032Y-115570000D01*
X135611089Y-115112800D01*
X135890000Y-115112800D01*
X136201045Y-115050929D01*
X136464736Y-114874736D01*
X136594911Y-114744562D01*
X136715665Y-114744667D01*
X136715313Y-115148784D01*
X136879311Y-115545689D01*
X137182714Y-115849622D01*
X137579332Y-116014313D01*
X138008784Y-116014687D01*
X138405689Y-115850689D01*
X138709622Y-115547286D01*
X138874313Y-115150668D01*
X138874346Y-115112800D01*
X139978911Y-115112800D01*
X139887968Y-115570000D01*
X139981977Y-116042614D01*
X140249691Y-116443277D01*
X140650354Y-116710991D01*
X141122968Y-116805000D01*
X141987032Y-116805000D01*
X142459646Y-116710991D01*
X142860309Y-116443277D01*
X143128023Y-116042614D01*
X143222032Y-115570000D01*
X143128023Y-115097386D01*
X143107430Y-115066567D01*
X143186045Y-115050929D01*
X143449736Y-114874736D01*
X144526000Y-113798473D01*
X144526000Y-127901764D01*
X144526000Y-127901764D01*
G37*
X144526000Y-127901764D02*
X142506764Y-129921000D01*
X133350000Y-129921000D01*
X133009794Y-129988671D01*
X132721382Y-130181382D01*
X130632419Y-132270345D01*
X130596216Y-132270313D01*
X130199311Y-132434311D01*
X129895378Y-132737714D01*
X129730687Y-133134332D01*
X129730313Y-133563784D01*
X129894311Y-133960689D01*
X129921000Y-133987425D01*
X129921000Y-138061764D01*
X127901764Y-140081000D01*
X127593156Y-140081000D01*
X127461754Y-139884343D01*
X127588298Y-139831927D01*
X127766927Y-139653299D01*
X127863600Y-139419910D01*
X127863600Y-138715750D01*
X127704850Y-138557000D01*
X126492000Y-138557000D01*
X126492000Y-138577000D01*
X126238000Y-138577000D01*
X126238000Y-138557000D01*
X126218000Y-138557000D01*
X126218000Y-138303000D01*
X126238000Y-138303000D01*
X126238000Y-137090150D01*
X126492000Y-137090150D01*
X126492000Y-138303000D01*
X127704850Y-138303000D01*
X127863600Y-138144250D01*
X127863600Y-137440090D01*
X127766927Y-137206701D01*
X127588298Y-137028073D01*
X127354909Y-136931400D01*
X126650750Y-136931400D01*
X126492000Y-137090150D01*
X126238000Y-137090150D01*
X126079250Y-136931400D01*
X125375091Y-136931400D01*
X125141702Y-137028073D01*
X124963073Y-137206701D01*
X124912066Y-137329843D01*
X124804343Y-137168625D01*
X124637800Y-137057345D01*
X124637800Y-131445000D01*
X124575929Y-131133955D01*
X124567303Y-131121045D01*
X124399737Y-130870264D01*
X122494736Y-128965264D01*
X122231045Y-128789071D01*
X121920000Y-128727200D01*
X120330677Y-128727200D01*
X120384592Y-128625281D01*
X120388462Y-128587609D01*
X120263731Y-128397000D01*
X118922000Y-128397000D01*
X118922000Y-128417000D01*
X118668000Y-128417000D01*
X118668000Y-128397000D01*
X117326269Y-128397000D01*
X117201538Y-128587609D01*
X117205408Y-128625281D01*
X117259323Y-128727200D01*
X115627272Y-128727200D01*
X116541673Y-127812800D01*
X117259323Y-127812800D01*
X117205408Y-127914719D01*
X117201538Y-127952391D01*
X117326269Y-128143000D01*
X118668000Y-128143000D01*
X118668000Y-128123000D01*
X118922000Y-128123000D01*
X118922000Y-128143000D01*
X120263731Y-128143000D01*
X120388462Y-127952391D01*
X120384592Y-127914719D01*
X120330677Y-127812800D01*
X122853328Y-127812800D01*
X123885263Y-128844736D01*
X124148955Y-129020929D01*
X124460000Y-129082800D01*
X124969282Y-129082800D01*
X125009691Y-129143277D01*
X125410354Y-129410991D01*
X125882968Y-129505000D01*
X126747032Y-129505000D01*
X127219646Y-129410991D01*
X127620309Y-129143277D01*
X127660718Y-129082800D01*
X130175000Y-129082800D01*
X130486045Y-129020929D01*
X130749736Y-128844736D01*
X131006863Y-128587609D01*
X132441538Y-128587609D01*
X132445408Y-128625281D01*
X132671920Y-129053474D01*
X133045053Y-129362390D01*
X133508000Y-129505000D01*
X133908000Y-129505000D01*
X133908000Y-128397000D01*
X134162000Y-128397000D01*
X134162000Y-129505000D01*
X134562000Y-129505000D01*
X135024947Y-129362390D01*
X135398080Y-129053474D01*
X135624592Y-128625281D01*
X135628462Y-128587609D01*
X135503731Y-128397000D01*
X134162000Y-128397000D01*
X133908000Y-128397000D01*
X132566269Y-128397000D01*
X132441538Y-128587609D01*
X131006863Y-128587609D01*
X131781673Y-127812800D01*
X132499323Y-127812800D01*
X132445408Y-127914719D01*
X132441538Y-127952391D01*
X132566269Y-128143000D01*
X133908000Y-128143000D01*
X133908000Y-128123000D01*
X134162000Y-128123000D01*
X134162000Y-128143000D01*
X135503731Y-128143000D01*
X135628462Y-127952391D01*
X135624592Y-127914719D01*
X135570677Y-127812800D01*
X137458328Y-127812800D01*
X138490263Y-128844736D01*
X138753955Y-129020929D01*
X139065000Y-129082800D01*
X140209282Y-129082800D01*
X140249691Y-129143277D01*
X140650354Y-129410991D01*
X141122968Y-129505000D01*
X141987032Y-129505000D01*
X142459646Y-129410991D01*
X142860309Y-129143277D01*
X143128023Y-128742614D01*
X143222032Y-128270000D01*
X143128023Y-127797386D01*
X142860309Y-127396723D01*
X142459646Y-127129009D01*
X141987032Y-127035000D01*
X141122968Y-127035000D01*
X140650354Y-127129009D01*
X140249691Y-127396723D01*
X140209282Y-127457200D01*
X139401673Y-127457200D01*
X138369736Y-126425264D01*
X138106045Y-126249071D01*
X137795000Y-126187200D01*
X135611089Y-126187200D01*
X135702032Y-125730000D01*
X135611089Y-125272800D01*
X137458328Y-125272800D01*
X138490263Y-126304736D01*
X138753955Y-126480929D01*
X139065000Y-126542800D01*
X140209282Y-126542800D01*
X140249691Y-126603277D01*
X140650354Y-126870991D01*
X141122968Y-126965000D01*
X141987032Y-126965000D01*
X142459646Y-126870991D01*
X142860309Y-126603277D01*
X143128023Y-126202614D01*
X143222032Y-125730000D01*
X143128023Y-125257386D01*
X142860309Y-124856723D01*
X142459646Y-124589009D01*
X141987032Y-124495000D01*
X141122968Y-124495000D01*
X140650354Y-124589009D01*
X140249691Y-124856723D01*
X140209282Y-124917200D01*
X139401673Y-124917200D01*
X138369736Y-123885264D01*
X138106045Y-123709071D01*
X137795000Y-123647200D01*
X135611089Y-123647200D01*
X135702032Y-123190000D01*
X135611089Y-122732800D01*
X137458328Y-122732800D01*
X138490263Y-123764736D01*
X138753955Y-123940929D01*
X139065000Y-124002800D01*
X140209282Y-124002800D01*
X140249691Y-124063277D01*
X140650354Y-124330991D01*
X141122968Y-124425000D01*
X141987032Y-124425000D01*
X142459646Y-124330991D01*
X142860309Y-124063277D01*
X143128023Y-123662614D01*
X143222032Y-123190000D01*
X143128023Y-122717386D01*
X142860309Y-122316723D01*
X142459646Y-122049009D01*
X141987032Y-121955000D01*
X141122968Y-121955000D01*
X140650354Y-122049009D01*
X140249691Y-122316723D01*
X140209282Y-122377200D01*
X139401673Y-122377200D01*
X138369736Y-121345264D01*
X138106045Y-121169071D01*
X137795000Y-121107200D01*
X135611089Y-121107200D01*
X135702032Y-120650000D01*
X135611089Y-120192800D01*
X137458328Y-120192800D01*
X138490263Y-121224736D01*
X138753955Y-121400929D01*
X139065000Y-121462800D01*
X140209282Y-121462800D01*
X140249691Y-121523277D01*
X140650354Y-121790991D01*
X141122968Y-121885000D01*
X141987032Y-121885000D01*
X142459646Y-121790991D01*
X142860309Y-121523277D01*
X143128023Y-121122614D01*
X143222032Y-120650000D01*
X143128023Y-120177386D01*
X142860309Y-119776723D01*
X142459646Y-119509009D01*
X141987032Y-119415000D01*
X141122968Y-119415000D01*
X140650354Y-119509009D01*
X140249691Y-119776723D01*
X140209282Y-119837200D01*
X139401673Y-119837200D01*
X138369736Y-118805264D01*
X138106045Y-118629071D01*
X137795000Y-118567200D01*
X135611089Y-118567200D01*
X135702032Y-118110000D01*
X135611089Y-117652800D01*
X137458328Y-117652800D01*
X138490263Y-118684736D01*
X138753955Y-118860929D01*
X139065000Y-118922800D01*
X140209282Y-118922800D01*
X140249691Y-118983277D01*
X140650354Y-119250991D01*
X141122968Y-119345000D01*
X141987032Y-119345000D01*
X142459646Y-119250991D01*
X142860309Y-118983277D01*
X143128023Y-118582614D01*
X143222032Y-118110000D01*
X143128023Y-117637386D01*
X142860309Y-117236723D01*
X142459646Y-116969009D01*
X141987032Y-116875000D01*
X141122968Y-116875000D01*
X140650354Y-116969009D01*
X140249691Y-117236723D01*
X140209282Y-117297200D01*
X139401673Y-117297200D01*
X138369736Y-116265264D01*
X138106045Y-116089071D01*
X137795000Y-116027200D01*
X135611089Y-116027200D01*
X135702032Y-115570000D01*
X135611089Y-115112800D01*
X135890000Y-115112800D01*
X136201045Y-115050929D01*
X136464736Y-114874736D01*
X136594911Y-114744562D01*
X136715665Y-114744667D01*
X136715313Y-115148784D01*
X136879311Y-115545689D01*
X137182714Y-115849622D01*
X137579332Y-116014313D01*
X138008784Y-116014687D01*
X138405689Y-115850689D01*
X138709622Y-115547286D01*
X138874313Y-115150668D01*
X138874346Y-115112800D01*
X139978911Y-115112800D01*
X139887968Y-115570000D01*
X139981977Y-116042614D01*
X140249691Y-116443277D01*
X140650354Y-116710991D01*
X141122968Y-116805000D01*
X141987032Y-116805000D01*
X142459646Y-116710991D01*
X142860309Y-116443277D01*
X143128023Y-116042614D01*
X143222032Y-115570000D01*
X143128023Y-115097386D01*
X143107430Y-115066567D01*
X143186045Y-115050929D01*
X143449736Y-114874736D01*
X144526000Y-113798473D01*
X144526000Y-127901764D01*
G36*
X101965408Y-127914719D02*
X101961538Y-127952391D01*
X102086269Y-128143000D01*
X103428000Y-128143000D01*
X103428000Y-128123000D01*
X103682000Y-128123000D01*
X103682000Y-128143000D01*
X105023731Y-128143000D01*
X105148462Y-127952391D01*
X105144592Y-127914719D01*
X105090677Y-127812800D01*
X106978328Y-127812800D01*
X107892727Y-128727200D01*
X105090677Y-128727200D01*
X105144592Y-128625281D01*
X105148462Y-128587609D01*
X105023731Y-128397000D01*
X103682000Y-128397000D01*
X103682000Y-128417000D01*
X103428000Y-128417000D01*
X103428000Y-128397000D01*
X102086269Y-128397000D01*
X101961538Y-128587609D01*
X101965408Y-128625281D01*
X102019323Y-128727200D01*
X99117272Y-128727200D01*
X100031673Y-127812800D01*
X102019323Y-127812800D01*
X101965408Y-127914719D01*
X101965408Y-127914719D01*
G37*
X101965408Y-127914719D02*
X101961538Y-127952391D01*
X102086269Y-128143000D01*
X103428000Y-128143000D01*
X103428000Y-128123000D01*
X103682000Y-128123000D01*
X103682000Y-128143000D01*
X105023731Y-128143000D01*
X105148462Y-127952391D01*
X105144592Y-127914719D01*
X105090677Y-127812800D01*
X106978328Y-127812800D01*
X107892727Y-128727200D01*
X105090677Y-128727200D01*
X105144592Y-128625281D01*
X105148462Y-128587609D01*
X105023731Y-128397000D01*
X103682000Y-128397000D01*
X103682000Y-128417000D01*
X103428000Y-128417000D01*
X103428000Y-128397000D01*
X102086269Y-128397000D01*
X101961538Y-128587609D01*
X101965408Y-128625281D01*
X102019323Y-128727200D01*
X99117272Y-128727200D01*
X100031673Y-127812800D01*
X102019323Y-127812800D01*
X101965408Y-127914719D01*
G36*
X86725408Y-127914719D02*
X86721538Y-127952391D01*
X86846269Y-128143000D01*
X88188000Y-128143000D01*
X88188000Y-128123000D01*
X88442000Y-128123000D01*
X88442000Y-128143000D01*
X89783731Y-128143000D01*
X89908462Y-127952391D01*
X89904592Y-127914719D01*
X89850677Y-127812800D01*
X90468328Y-127812800D01*
X91382727Y-128727200D01*
X89850677Y-128727200D01*
X89904592Y-128625281D01*
X89908462Y-128587609D01*
X89783731Y-128397000D01*
X88442000Y-128397000D01*
X88442000Y-128417000D01*
X88188000Y-128417000D01*
X88188000Y-128397000D01*
X86846269Y-128397000D01*
X86721538Y-128587609D01*
X86725408Y-128625281D01*
X86779323Y-128727200D01*
X86069020Y-128727200D01*
X86169313Y-128485668D01*
X86169687Y-128056216D01*
X86069109Y-127812800D01*
X86779323Y-127812800D01*
X86725408Y-127914719D01*
X86725408Y-127914719D01*
G37*
X86725408Y-127914719D02*
X86721538Y-127952391D01*
X86846269Y-128143000D01*
X88188000Y-128143000D01*
X88188000Y-128123000D01*
X88442000Y-128123000D01*
X88442000Y-128143000D01*
X89783731Y-128143000D01*
X89908462Y-127952391D01*
X89904592Y-127914719D01*
X89850677Y-127812800D01*
X90468328Y-127812800D01*
X91382727Y-128727200D01*
X89850677Y-128727200D01*
X89904592Y-128625281D01*
X89908462Y-128587609D01*
X89783731Y-128397000D01*
X88442000Y-128397000D01*
X88442000Y-128417000D01*
X88188000Y-128417000D01*
X88188000Y-128397000D01*
X86846269Y-128397000D01*
X86721538Y-128587609D01*
X86725408Y-128625281D01*
X86779323Y-128727200D01*
X86069020Y-128727200D01*
X86169313Y-128485668D01*
X86169687Y-128056216D01*
X86069109Y-127812800D01*
X86779323Y-127812800D01*
X86725408Y-127914719D01*
G36*
X58657968Y-95250000D02*
X58751977Y-95722614D01*
X59019691Y-96123277D01*
X59420354Y-96390991D01*
X59892968Y-96485000D01*
X60757032Y-96485000D01*
X61229646Y-96390991D01*
X61630309Y-96123277D01*
X61670718Y-96062800D01*
X63163328Y-96062800D01*
X64077728Y-96977200D01*
X61670718Y-96977200D01*
X61630309Y-96916723D01*
X61229646Y-96649009D01*
X60757032Y-96555000D01*
X59892968Y-96555000D01*
X59420354Y-96649009D01*
X59019691Y-96916723D01*
X58751977Y-97317386D01*
X58657968Y-97790000D01*
X58751977Y-98262614D01*
X59019691Y-98663277D01*
X59420354Y-98930991D01*
X59892968Y-99025000D01*
X60757032Y-99025000D01*
X61229646Y-98930991D01*
X61630309Y-98663277D01*
X61670718Y-98602800D01*
X63798328Y-98602800D01*
X64712728Y-99517200D01*
X61670718Y-99517200D01*
X61630309Y-99456723D01*
X61229646Y-99189009D01*
X60757032Y-99095000D01*
X59892968Y-99095000D01*
X59420354Y-99189009D01*
X59019691Y-99456723D01*
X58751977Y-99857386D01*
X58657968Y-100330000D01*
X58751977Y-100802614D01*
X58778436Y-100842212D01*
X58743955Y-100849071D01*
X58480264Y-101025263D01*
X57845264Y-101660264D01*
X57669071Y-101923955D01*
X57607200Y-102235000D01*
X57607200Y-108585000D01*
X57662821Y-108864622D01*
X57669071Y-108896045D01*
X57845264Y-109159736D01*
X58743837Y-110058309D01*
X58657968Y-110490000D01*
X58751977Y-110962614D01*
X59019691Y-111363277D01*
X59420354Y-111630991D01*
X59892968Y-111725000D01*
X60757032Y-111725000D01*
X61229646Y-111630991D01*
X61630309Y-111363277D01*
X61898023Y-110962614D01*
X61992032Y-110490000D01*
X61898023Y-110017386D01*
X61630309Y-109616723D01*
X61229646Y-109349009D01*
X60757032Y-109255000D01*
X60239473Y-109255000D01*
X60169473Y-109185000D01*
X60757032Y-109185000D01*
X61229646Y-109090991D01*
X61630309Y-108823277D01*
X61670718Y-108762800D01*
X66596070Y-108762800D01*
X66697714Y-108864622D01*
X67094332Y-109029313D01*
X67523784Y-109029687D01*
X67920689Y-108865689D01*
X68133638Y-108653111D01*
X69275263Y-109794736D01*
X69538955Y-109970929D01*
X69850000Y-110032800D01*
X73988911Y-110032800D01*
X73897968Y-110490000D01*
X73991977Y-110962614D01*
X74259691Y-111363277D01*
X74660354Y-111630991D01*
X75132968Y-111725000D01*
X75997032Y-111725000D01*
X76469646Y-111630991D01*
X76870309Y-111363277D01*
X77138023Y-110962614D01*
X77232032Y-110490000D01*
X77141089Y-110032800D01*
X77768328Y-110032800D01*
X79197200Y-111461673D01*
X79197200Y-113646729D01*
X79051045Y-113549071D01*
X78740000Y-113487200D01*
X77141089Y-113487200D01*
X77232032Y-113030000D01*
X77138023Y-112557386D01*
X76870309Y-112156723D01*
X76469646Y-111889009D01*
X75997032Y-111795000D01*
X75132968Y-111795000D01*
X74660354Y-111889009D01*
X74259691Y-112156723D01*
X73991977Y-112557386D01*
X73897968Y-113030000D01*
X73988911Y-113487200D01*
X67646673Y-113487200D01*
X66614736Y-112455264D01*
X66351045Y-112279071D01*
X66040000Y-112217200D01*
X61670718Y-112217200D01*
X61630309Y-112156723D01*
X61229646Y-111889009D01*
X60757032Y-111795000D01*
X59892968Y-111795000D01*
X59420354Y-111889009D01*
X59019691Y-112156723D01*
X58751977Y-112557386D01*
X58657968Y-113030000D01*
X58748911Y-113487200D01*
X58420000Y-113487200D01*
X58108955Y-113549071D01*
X57845263Y-113725264D01*
X57327800Y-114242727D01*
X57327800Y-95586672D01*
X58121673Y-94792800D01*
X58748911Y-94792800D01*
X58657968Y-95250000D01*
X58657968Y-95250000D01*
G37*
X58657968Y-95250000D02*
X58751977Y-95722614D01*
X59019691Y-96123277D01*
X59420354Y-96390991D01*
X59892968Y-96485000D01*
X60757032Y-96485000D01*
X61229646Y-96390991D01*
X61630309Y-96123277D01*
X61670718Y-96062800D01*
X63163328Y-96062800D01*
X64077728Y-96977200D01*
X61670718Y-96977200D01*
X61630309Y-96916723D01*
X61229646Y-96649009D01*
X60757032Y-96555000D01*
X59892968Y-96555000D01*
X59420354Y-96649009D01*
X59019691Y-96916723D01*
X58751977Y-97317386D01*
X58657968Y-97790000D01*
X58751977Y-98262614D01*
X59019691Y-98663277D01*
X59420354Y-98930991D01*
X59892968Y-99025000D01*
X60757032Y-99025000D01*
X61229646Y-98930991D01*
X61630309Y-98663277D01*
X61670718Y-98602800D01*
X63798328Y-98602800D01*
X64712728Y-99517200D01*
X61670718Y-99517200D01*
X61630309Y-99456723D01*
X61229646Y-99189009D01*
X60757032Y-99095000D01*
X59892968Y-99095000D01*
X59420354Y-99189009D01*
X59019691Y-99456723D01*
X58751977Y-99857386D01*
X58657968Y-100330000D01*
X58751977Y-100802614D01*
X58778436Y-100842212D01*
X58743955Y-100849071D01*
X58480264Y-101025263D01*
X57845264Y-101660264D01*
X57669071Y-101923955D01*
X57607200Y-102235000D01*
X57607200Y-108585000D01*
X57662821Y-108864622D01*
X57669071Y-108896045D01*
X57845264Y-109159736D01*
X58743837Y-110058309D01*
X58657968Y-110490000D01*
X58751977Y-110962614D01*
X59019691Y-111363277D01*
X59420354Y-111630991D01*
X59892968Y-111725000D01*
X60757032Y-111725000D01*
X61229646Y-111630991D01*
X61630309Y-111363277D01*
X61898023Y-110962614D01*
X61992032Y-110490000D01*
X61898023Y-110017386D01*
X61630309Y-109616723D01*
X61229646Y-109349009D01*
X60757032Y-109255000D01*
X60239473Y-109255000D01*
X60169473Y-109185000D01*
X60757032Y-109185000D01*
X61229646Y-109090991D01*
X61630309Y-108823277D01*
X61670718Y-108762800D01*
X66596070Y-108762800D01*
X66697714Y-108864622D01*
X67094332Y-109029313D01*
X67523784Y-109029687D01*
X67920689Y-108865689D01*
X68133638Y-108653111D01*
X69275263Y-109794736D01*
X69538955Y-109970929D01*
X69850000Y-110032800D01*
X73988911Y-110032800D01*
X73897968Y-110490000D01*
X73991977Y-110962614D01*
X74259691Y-111363277D01*
X74660354Y-111630991D01*
X75132968Y-111725000D01*
X75997032Y-111725000D01*
X76469646Y-111630991D01*
X76870309Y-111363277D01*
X77138023Y-110962614D01*
X77232032Y-110490000D01*
X77141089Y-110032800D01*
X77768328Y-110032800D01*
X79197200Y-111461673D01*
X79197200Y-113646729D01*
X79051045Y-113549071D01*
X78740000Y-113487200D01*
X77141089Y-113487200D01*
X77232032Y-113030000D01*
X77138023Y-112557386D01*
X76870309Y-112156723D01*
X76469646Y-111889009D01*
X75997032Y-111795000D01*
X75132968Y-111795000D01*
X74660354Y-111889009D01*
X74259691Y-112156723D01*
X73991977Y-112557386D01*
X73897968Y-113030000D01*
X73988911Y-113487200D01*
X67646673Y-113487200D01*
X66614736Y-112455264D01*
X66351045Y-112279071D01*
X66040000Y-112217200D01*
X61670718Y-112217200D01*
X61630309Y-112156723D01*
X61229646Y-111889009D01*
X60757032Y-111795000D01*
X59892968Y-111795000D01*
X59420354Y-111889009D01*
X59019691Y-112156723D01*
X58751977Y-112557386D01*
X58657968Y-113030000D01*
X58748911Y-113487200D01*
X58420000Y-113487200D01*
X58108955Y-113549071D01*
X57845263Y-113725264D01*
X57327800Y-114242727D01*
X57327800Y-95586672D01*
X58121673Y-94792800D01*
X58748911Y-94792800D01*
X58657968Y-95250000D01*
G36*
X69275264Y-107254736D02*
X69538955Y-107430929D01*
X69850000Y-107492800D01*
X71755000Y-107492800D01*
X72066045Y-107430929D01*
X72329736Y-107254736D01*
X73943843Y-105640629D01*
X73991977Y-105882614D01*
X74259691Y-106283277D01*
X74660354Y-106550991D01*
X75132968Y-106645000D01*
X75997032Y-106645000D01*
X76237663Y-106597135D01*
X76472847Y-106832319D01*
X76092000Y-106715000D01*
X75692000Y-106715000D01*
X75692000Y-107823000D01*
X77033731Y-107823000D01*
X77158462Y-107632391D01*
X77154592Y-107594719D01*
X77064007Y-107423479D01*
X78047728Y-108407200D01*
X77100677Y-108407200D01*
X77154592Y-108305281D01*
X77158462Y-108267609D01*
X77033731Y-108077000D01*
X75692000Y-108077000D01*
X75692000Y-108097000D01*
X75438000Y-108097000D01*
X75438000Y-108077000D01*
X74096269Y-108077000D01*
X73971538Y-108267609D01*
X73975408Y-108305281D01*
X74029323Y-108407200D01*
X70186673Y-108407200D01*
X69411864Y-107632391D01*
X73971538Y-107632391D01*
X74096269Y-107823000D01*
X75438000Y-107823000D01*
X75438000Y-106715000D01*
X75038000Y-106715000D01*
X74575053Y-106857610D01*
X74201920Y-107166526D01*
X73975408Y-107594719D01*
X73971538Y-107632391D01*
X69411864Y-107632391D01*
X67884736Y-106105264D01*
X67621045Y-105929071D01*
X67310000Y-105867200D01*
X66376673Y-105867200D01*
X62922272Y-102412800D01*
X64433328Y-102412800D01*
X69275264Y-107254736D01*
X69275264Y-107254736D01*
G37*
X69275264Y-107254736D02*
X69538955Y-107430929D01*
X69850000Y-107492800D01*
X71755000Y-107492800D01*
X72066045Y-107430929D01*
X72329736Y-107254736D01*
X73943843Y-105640629D01*
X73991977Y-105882614D01*
X74259691Y-106283277D01*
X74660354Y-106550991D01*
X75132968Y-106645000D01*
X75997032Y-106645000D01*
X76237663Y-106597135D01*
X76472847Y-106832319D01*
X76092000Y-106715000D01*
X75692000Y-106715000D01*
X75692000Y-107823000D01*
X77033731Y-107823000D01*
X77158462Y-107632391D01*
X77154592Y-107594719D01*
X77064007Y-107423479D01*
X78047728Y-108407200D01*
X77100677Y-108407200D01*
X77154592Y-108305281D01*
X77158462Y-108267609D01*
X77033731Y-108077000D01*
X75692000Y-108077000D01*
X75692000Y-108097000D01*
X75438000Y-108097000D01*
X75438000Y-108077000D01*
X74096269Y-108077000D01*
X73971538Y-108267609D01*
X73975408Y-108305281D01*
X74029323Y-108407200D01*
X70186673Y-108407200D01*
X69411864Y-107632391D01*
X73971538Y-107632391D01*
X74096269Y-107823000D01*
X75438000Y-107823000D01*
X75438000Y-106715000D01*
X75038000Y-106715000D01*
X74575053Y-106857610D01*
X74201920Y-107166526D01*
X73975408Y-107594719D01*
X73971538Y-107632391D01*
X69411864Y-107632391D01*
X67884736Y-106105264D01*
X67621045Y-105929071D01*
X67310000Y-105867200D01*
X66376673Y-105867200D01*
X62922272Y-102412800D01*
X64433328Y-102412800D01*
X69275264Y-107254736D01*
G36*
X67947560Y-70185000D02*
X67947560Y-70785000D01*
X67991838Y-71020317D01*
X68055678Y-71119528D01*
X67998569Y-71203110D01*
X67947560Y-71455000D01*
X67947560Y-72055000D01*
X67991838Y-72290317D01*
X68055678Y-72389528D01*
X67998569Y-72473110D01*
X67947560Y-72725000D01*
X67947560Y-73325000D01*
X67991838Y-73560317D01*
X68050178Y-73650980D01*
X67960000Y-73868690D01*
X67960000Y-74009250D01*
X68118750Y-74168000D01*
X69468000Y-74168000D01*
X69468000Y-74148000D01*
X69722000Y-74148000D01*
X69722000Y-74168000D01*
X71071250Y-74168000D01*
X71092389Y-74146861D01*
X74003112Y-77057585D01*
X73684311Y-77189311D01*
X73657575Y-77216000D01*
X63502863Y-77216000D01*
X63477286Y-77190378D01*
X63080668Y-77025687D01*
X62651216Y-77025313D01*
X62254311Y-77189311D01*
X61950378Y-77492714D01*
X61785687Y-77889332D01*
X61785313Y-78318784D01*
X61949311Y-78715689D01*
X62252714Y-79019622D01*
X62649332Y-79184313D01*
X63078784Y-79184687D01*
X63475689Y-79020689D01*
X63502425Y-78994000D01*
X73657137Y-78994000D01*
X73682714Y-79019622D01*
X74079332Y-79184313D01*
X74227806Y-79184442D01*
X73991977Y-79537386D01*
X73897968Y-80010000D01*
X73991977Y-80482614D01*
X74259691Y-80883277D01*
X74660354Y-81150991D01*
X75132968Y-81245000D01*
X75997032Y-81245000D01*
X76469646Y-81150991D01*
X76870309Y-80883277D01*
X77138023Y-80482614D01*
X77216000Y-80090598D01*
X77216000Y-82469402D01*
X77138023Y-82077386D01*
X76870309Y-81676723D01*
X76469646Y-81409009D01*
X75997032Y-81315000D01*
X75132968Y-81315000D01*
X74660354Y-81409009D01*
X74259691Y-81676723D01*
X74219282Y-81737200D01*
X73660000Y-81737200D01*
X73348955Y-81799071D01*
X73085263Y-81975264D01*
X71815265Y-83245263D01*
X71815264Y-83245264D01*
X71639071Y-83508955D01*
X71577200Y-83820000D01*
X71577200Y-89535000D01*
X71635839Y-89829795D01*
X71639071Y-89846045D01*
X71815264Y-90109736D01*
X73720264Y-92014737D01*
X73983955Y-92190929D01*
X74018436Y-92197788D01*
X73991977Y-92237386D01*
X73943843Y-92479370D01*
X70662800Y-89198328D01*
X70662800Y-81915000D01*
X70600929Y-81603955D01*
X70527315Y-81493784D01*
X70424737Y-81340264D01*
X68519736Y-79435264D01*
X68256045Y-79259071D01*
X67945000Y-79197200D01*
X61670718Y-79197200D01*
X61630309Y-79136723D01*
X61229646Y-78869009D01*
X60757032Y-78775000D01*
X59892968Y-78775000D01*
X59420354Y-78869009D01*
X59232800Y-78994328D01*
X59232800Y-75266672D01*
X59918722Y-74580750D01*
X67960000Y-74580750D01*
X67960000Y-74721310D01*
X68056673Y-74954699D01*
X68235302Y-75133327D01*
X68468691Y-75230000D01*
X69309250Y-75230000D01*
X69468000Y-75071250D01*
X69468000Y-74422000D01*
X69722000Y-74422000D01*
X69722000Y-75071250D01*
X69880750Y-75230000D01*
X70721309Y-75230000D01*
X70954698Y-75133327D01*
X71133327Y-74954699D01*
X71230000Y-74721310D01*
X71230000Y-74580750D01*
X71071250Y-74422000D01*
X69722000Y-74422000D01*
X69468000Y-74422000D01*
X68118750Y-74422000D01*
X67960000Y-74580750D01*
X59918722Y-74580750D01*
X64471673Y-70027800D01*
X67979394Y-70027800D01*
X67947560Y-70185000D01*
X67947560Y-70185000D01*
G37*
X67947560Y-70185000D02*
X67947560Y-70785000D01*
X67991838Y-71020317D01*
X68055678Y-71119528D01*
X67998569Y-71203110D01*
X67947560Y-71455000D01*
X67947560Y-72055000D01*
X67991838Y-72290317D01*
X68055678Y-72389528D01*
X67998569Y-72473110D01*
X67947560Y-72725000D01*
X67947560Y-73325000D01*
X67991838Y-73560317D01*
X68050178Y-73650980D01*
X67960000Y-73868690D01*
X67960000Y-74009250D01*
X68118750Y-74168000D01*
X69468000Y-74168000D01*
X69468000Y-74148000D01*
X69722000Y-74148000D01*
X69722000Y-74168000D01*
X71071250Y-74168000D01*
X71092389Y-74146861D01*
X74003112Y-77057585D01*
X73684311Y-77189311D01*
X73657575Y-77216000D01*
X63502863Y-77216000D01*
X63477286Y-77190378D01*
X63080668Y-77025687D01*
X62651216Y-77025313D01*
X62254311Y-77189311D01*
X61950378Y-77492714D01*
X61785687Y-77889332D01*
X61785313Y-78318784D01*
X61949311Y-78715689D01*
X62252714Y-79019622D01*
X62649332Y-79184313D01*
X63078784Y-79184687D01*
X63475689Y-79020689D01*
X63502425Y-78994000D01*
X73657137Y-78994000D01*
X73682714Y-79019622D01*
X74079332Y-79184313D01*
X74227806Y-79184442D01*
X73991977Y-79537386D01*
X73897968Y-80010000D01*
X73991977Y-80482614D01*
X74259691Y-80883277D01*
X74660354Y-81150991D01*
X75132968Y-81245000D01*
X75997032Y-81245000D01*
X76469646Y-81150991D01*
X76870309Y-80883277D01*
X77138023Y-80482614D01*
X77216000Y-80090598D01*
X77216000Y-82469402D01*
X77138023Y-82077386D01*
X76870309Y-81676723D01*
X76469646Y-81409009D01*
X75997032Y-81315000D01*
X75132968Y-81315000D01*
X74660354Y-81409009D01*
X74259691Y-81676723D01*
X74219282Y-81737200D01*
X73660000Y-81737200D01*
X73348955Y-81799071D01*
X73085263Y-81975264D01*
X71815265Y-83245263D01*
X71815264Y-83245264D01*
X71639071Y-83508955D01*
X71577200Y-83820000D01*
X71577200Y-89535000D01*
X71635839Y-89829795D01*
X71639071Y-89846045D01*
X71815264Y-90109736D01*
X73720264Y-92014737D01*
X73983955Y-92190929D01*
X74018436Y-92197788D01*
X73991977Y-92237386D01*
X73943843Y-92479370D01*
X70662800Y-89198328D01*
X70662800Y-81915000D01*
X70600929Y-81603955D01*
X70527315Y-81493784D01*
X70424737Y-81340264D01*
X68519736Y-79435264D01*
X68256045Y-79259071D01*
X67945000Y-79197200D01*
X61670718Y-79197200D01*
X61630309Y-79136723D01*
X61229646Y-78869009D01*
X60757032Y-78775000D01*
X59892968Y-78775000D01*
X59420354Y-78869009D01*
X59232800Y-78994328D01*
X59232800Y-75266672D01*
X59918722Y-74580750D01*
X67960000Y-74580750D01*
X67960000Y-74721310D01*
X68056673Y-74954699D01*
X68235302Y-75133327D01*
X68468691Y-75230000D01*
X69309250Y-75230000D01*
X69468000Y-75071250D01*
X69468000Y-74422000D01*
X69722000Y-74422000D01*
X69722000Y-75071250D01*
X69880750Y-75230000D01*
X70721309Y-75230000D01*
X70954698Y-75133327D01*
X71133327Y-74954699D01*
X71230000Y-74721310D01*
X71230000Y-74580750D01*
X71071250Y-74422000D01*
X69722000Y-74422000D01*
X69468000Y-74422000D01*
X68118750Y-74422000D01*
X67960000Y-74580750D01*
X59918722Y-74580750D01*
X64471673Y-70027800D01*
X67979394Y-70027800D01*
X67947560Y-70185000D01*
G36*
X130106994Y-84266467D02*
X129895378Y-84477714D01*
X129730687Y-84874332D01*
X129730313Y-85303784D01*
X129894311Y-85700689D01*
X130197714Y-86004622D01*
X130594332Y-86169313D01*
X131023784Y-86169687D01*
X131420689Y-86005689D01*
X131523758Y-85902800D01*
X143234206Y-85902800D01*
X143217560Y-85985000D01*
X143217560Y-86735000D01*
X143261838Y-86970317D01*
X143400910Y-87186441D01*
X143426000Y-87203584D01*
X143426000Y-87246382D01*
X143263559Y-87350910D01*
X143118569Y-87563110D01*
X143067560Y-87815000D01*
X143067560Y-88255204D01*
X142321278Y-89001486D01*
X141987032Y-88935000D01*
X141122968Y-88935000D01*
X140650354Y-89029009D01*
X140273222Y-89281000D01*
X140068236Y-89281000D01*
X138423618Y-87636382D01*
X138323875Y-87569736D01*
X138135206Y-87443671D01*
X137795000Y-87376000D01*
X131445000Y-87376000D01*
X131104794Y-87443671D01*
X130916125Y-87569736D01*
X130816382Y-87636382D01*
X130455000Y-87997764D01*
X130455000Y-87915750D01*
X130296250Y-87757000D01*
X129347000Y-87757000D01*
X129347000Y-88481250D01*
X129505750Y-88640000D01*
X129812764Y-88640000D01*
X129171764Y-89281000D01*
X128185927Y-89281000D01*
X128209000Y-89165000D01*
X128209000Y-88573618D01*
X128258646Y-88541671D01*
X128260302Y-88543327D01*
X128493691Y-88640000D01*
X128934250Y-88640000D01*
X129093000Y-88481250D01*
X129093000Y-87757000D01*
X129073000Y-87757000D01*
X129073000Y-87503000D01*
X129093000Y-87503000D01*
X129093000Y-86778750D01*
X129347000Y-86778750D01*
X129347000Y-87503000D01*
X130296250Y-87503000D01*
X130455000Y-87344250D01*
X130455000Y-87128690D01*
X130358327Y-86895301D01*
X130179698Y-86716673D01*
X129946309Y-86620000D01*
X129505750Y-86620000D01*
X129347000Y-86778750D01*
X129093000Y-86778750D01*
X128934250Y-86620000D01*
X128493691Y-86620000D01*
X128260302Y-86716673D01*
X128258932Y-86718043D01*
X128171890Y-86658569D01*
X127920000Y-86607560D01*
X126737934Y-86607560D01*
X126645689Y-86384311D01*
X126621644Y-86360224D01*
X126644622Y-86337286D01*
X126809313Y-85940668D01*
X126809687Y-85511216D01*
X126784298Y-85449770D01*
X126975689Y-85370689D01*
X127279622Y-85067286D01*
X127444313Y-84670668D01*
X127444687Y-84241216D01*
X127280689Y-83844311D01*
X127221481Y-83785000D01*
X128067032Y-83785000D01*
X128539646Y-83690991D01*
X128940309Y-83423277D01*
X128980718Y-83362800D01*
X129203328Y-83362800D01*
X130106994Y-84266467D01*
X130106994Y-84266467D01*
G37*
X130106994Y-84266467D02*
X129895378Y-84477714D01*
X129730687Y-84874332D01*
X129730313Y-85303784D01*
X129894311Y-85700689D01*
X130197714Y-86004622D01*
X130594332Y-86169313D01*
X131023784Y-86169687D01*
X131420689Y-86005689D01*
X131523758Y-85902800D01*
X143234206Y-85902800D01*
X143217560Y-85985000D01*
X143217560Y-86735000D01*
X143261838Y-86970317D01*
X143400910Y-87186441D01*
X143426000Y-87203584D01*
X143426000Y-87246382D01*
X143263559Y-87350910D01*
X143118569Y-87563110D01*
X143067560Y-87815000D01*
X143067560Y-88255204D01*
X142321278Y-89001486D01*
X141987032Y-88935000D01*
X141122968Y-88935000D01*
X140650354Y-89029009D01*
X140273222Y-89281000D01*
X140068236Y-89281000D01*
X138423618Y-87636382D01*
X138323875Y-87569736D01*
X138135206Y-87443671D01*
X137795000Y-87376000D01*
X131445000Y-87376000D01*
X131104794Y-87443671D01*
X130916125Y-87569736D01*
X130816382Y-87636382D01*
X130455000Y-87997764D01*
X130455000Y-87915750D01*
X130296250Y-87757000D01*
X129347000Y-87757000D01*
X129347000Y-88481250D01*
X129505750Y-88640000D01*
X129812764Y-88640000D01*
X129171764Y-89281000D01*
X128185927Y-89281000D01*
X128209000Y-89165000D01*
X128209000Y-88573618D01*
X128258646Y-88541671D01*
X128260302Y-88543327D01*
X128493691Y-88640000D01*
X128934250Y-88640000D01*
X129093000Y-88481250D01*
X129093000Y-87757000D01*
X129073000Y-87757000D01*
X129073000Y-87503000D01*
X129093000Y-87503000D01*
X129093000Y-86778750D01*
X129347000Y-86778750D01*
X129347000Y-87503000D01*
X130296250Y-87503000D01*
X130455000Y-87344250D01*
X130455000Y-87128690D01*
X130358327Y-86895301D01*
X130179698Y-86716673D01*
X129946309Y-86620000D01*
X129505750Y-86620000D01*
X129347000Y-86778750D01*
X129093000Y-86778750D01*
X128934250Y-86620000D01*
X128493691Y-86620000D01*
X128260302Y-86716673D01*
X128258932Y-86718043D01*
X128171890Y-86658569D01*
X127920000Y-86607560D01*
X126737934Y-86607560D01*
X126645689Y-86384311D01*
X126621644Y-86360224D01*
X126644622Y-86337286D01*
X126809313Y-85940668D01*
X126809687Y-85511216D01*
X126784298Y-85449770D01*
X126975689Y-85370689D01*
X127279622Y-85067286D01*
X127444313Y-84670668D01*
X127444687Y-84241216D01*
X127280689Y-83844311D01*
X127221481Y-83785000D01*
X128067032Y-83785000D01*
X128539646Y-83690991D01*
X128940309Y-83423277D01*
X128980718Y-83362800D01*
X129203328Y-83362800D01*
X130106994Y-84266467D01*
G36*
X147963625Y-83529343D02*
X148412951Y-83829573D01*
X148942968Y-83935000D01*
X149507032Y-83935000D01*
X150037049Y-83829573D01*
X150317200Y-83642382D01*
X150317200Y-86023327D01*
X147762440Y-88578087D01*
X147762440Y-87815000D01*
X147718162Y-87579683D01*
X147579090Y-87363559D01*
X147374355Y-87223670D01*
X147503327Y-87094699D01*
X147600000Y-86861310D01*
X147600000Y-86645750D01*
X147441250Y-86487000D01*
X146492000Y-86487000D01*
X146492000Y-86507000D01*
X146238000Y-86507000D01*
X146238000Y-86487000D01*
X146218000Y-86487000D01*
X146218000Y-86233000D01*
X146238000Y-86233000D01*
X146238000Y-85508750D01*
X146492000Y-85508750D01*
X146492000Y-86233000D01*
X147441250Y-86233000D01*
X147600000Y-86074250D01*
X147600000Y-85858690D01*
X147503327Y-85625301D01*
X147324698Y-85446673D01*
X147091309Y-85350000D01*
X146650750Y-85350000D01*
X146492000Y-85508750D01*
X146238000Y-85508750D01*
X146079250Y-85350000D01*
X146046414Y-85350000D01*
X146329622Y-85067286D01*
X146494313Y-84670668D01*
X146494687Y-84241216D01*
X146365044Y-83927456D01*
X146402968Y-83935000D01*
X146967032Y-83935000D01*
X147497049Y-83829573D01*
X147946375Y-83529343D01*
X147955000Y-83516435D01*
X147963625Y-83529343D01*
X147963625Y-83529343D01*
G37*
X147963625Y-83529343D02*
X148412951Y-83829573D01*
X148942968Y-83935000D01*
X149507032Y-83935000D01*
X150037049Y-83829573D01*
X150317200Y-83642382D01*
X150317200Y-86023327D01*
X147762440Y-88578087D01*
X147762440Y-87815000D01*
X147718162Y-87579683D01*
X147579090Y-87363559D01*
X147374355Y-87223670D01*
X147503327Y-87094699D01*
X147600000Y-86861310D01*
X147600000Y-86645750D01*
X147441250Y-86487000D01*
X146492000Y-86487000D01*
X146492000Y-86507000D01*
X146238000Y-86507000D01*
X146238000Y-86487000D01*
X146218000Y-86487000D01*
X146218000Y-86233000D01*
X146238000Y-86233000D01*
X146238000Y-85508750D01*
X146492000Y-85508750D01*
X146492000Y-86233000D01*
X147441250Y-86233000D01*
X147600000Y-86074250D01*
X147600000Y-85858690D01*
X147503327Y-85625301D01*
X147324698Y-85446673D01*
X147091309Y-85350000D01*
X146650750Y-85350000D01*
X146492000Y-85508750D01*
X146238000Y-85508750D01*
X146079250Y-85350000D01*
X146046414Y-85350000D01*
X146329622Y-85067286D01*
X146494313Y-84670668D01*
X146494687Y-84241216D01*
X146365044Y-83927456D01*
X146402968Y-83935000D01*
X146967032Y-83935000D01*
X147497049Y-83829573D01*
X147946375Y-83529343D01*
X147955000Y-83516435D01*
X147963625Y-83529343D01*
G36*
X130235263Y-81854736D02*
X130482573Y-82019983D01*
X130498955Y-82030929D01*
X130810000Y-82092800D01*
X131179323Y-82092800D01*
X131125408Y-82194719D01*
X131121538Y-82232391D01*
X131246269Y-82423000D01*
X132588000Y-82423000D01*
X132588000Y-82403000D01*
X132842000Y-82403000D01*
X132842000Y-82423000D01*
X134183731Y-82423000D01*
X134308462Y-82232391D01*
X134304592Y-82194719D01*
X134250677Y-82092800D01*
X136180980Y-82092800D01*
X136165340Y-82130465D01*
X136105668Y-82105687D01*
X135676216Y-82105313D01*
X135279311Y-82269311D01*
X134975378Y-82572714D01*
X134895340Y-82765465D01*
X134835668Y-82740687D01*
X134406216Y-82740313D01*
X134263697Y-82799201D01*
X134183731Y-82677000D01*
X132842000Y-82677000D01*
X132842000Y-82697000D01*
X132588000Y-82697000D01*
X132588000Y-82677000D01*
X131246269Y-82677000D01*
X131121538Y-82867609D01*
X131125408Y-82905281D01*
X131179323Y-83007200D01*
X131146673Y-83007200D01*
X130114736Y-81975264D01*
X129851045Y-81799071D01*
X129540000Y-81737200D01*
X128980718Y-81737200D01*
X128940309Y-81676723D01*
X128539646Y-81409009D01*
X128067032Y-81315000D01*
X127202968Y-81315000D01*
X126730354Y-81409009D01*
X126329691Y-81676723D01*
X126061977Y-82077386D01*
X125967968Y-82550000D01*
X126061977Y-83022614D01*
X126297728Y-83375441D01*
X126151216Y-83375313D01*
X125754311Y-83539311D01*
X125631644Y-83661764D01*
X125418955Y-83704071D01*
X125155264Y-83880264D01*
X123462930Y-85572598D01*
X121951874Y-85572598D01*
X125034737Y-82489736D01*
X125034739Y-82489733D01*
X126516425Y-81008048D01*
X126730354Y-81150991D01*
X127202968Y-81245000D01*
X128067032Y-81245000D01*
X128539646Y-81150991D01*
X128940309Y-80883277D01*
X128980718Y-80822800D01*
X129203328Y-80822800D01*
X130235263Y-81854736D01*
X130235263Y-81854736D01*
G37*
X130235263Y-81854736D02*
X130482573Y-82019983D01*
X130498955Y-82030929D01*
X130810000Y-82092800D01*
X131179323Y-82092800D01*
X131125408Y-82194719D01*
X131121538Y-82232391D01*
X131246269Y-82423000D01*
X132588000Y-82423000D01*
X132588000Y-82403000D01*
X132842000Y-82403000D01*
X132842000Y-82423000D01*
X134183731Y-82423000D01*
X134308462Y-82232391D01*
X134304592Y-82194719D01*
X134250677Y-82092800D01*
X136180980Y-82092800D01*
X136165340Y-82130465D01*
X136105668Y-82105687D01*
X135676216Y-82105313D01*
X135279311Y-82269311D01*
X134975378Y-82572714D01*
X134895340Y-82765465D01*
X134835668Y-82740687D01*
X134406216Y-82740313D01*
X134263697Y-82799201D01*
X134183731Y-82677000D01*
X132842000Y-82677000D01*
X132842000Y-82697000D01*
X132588000Y-82697000D01*
X132588000Y-82677000D01*
X131246269Y-82677000D01*
X131121538Y-82867609D01*
X131125408Y-82905281D01*
X131179323Y-83007200D01*
X131146673Y-83007200D01*
X130114736Y-81975264D01*
X129851045Y-81799071D01*
X129540000Y-81737200D01*
X128980718Y-81737200D01*
X128940309Y-81676723D01*
X128539646Y-81409009D01*
X128067032Y-81315000D01*
X127202968Y-81315000D01*
X126730354Y-81409009D01*
X126329691Y-81676723D01*
X126061977Y-82077386D01*
X125967968Y-82550000D01*
X126061977Y-83022614D01*
X126297728Y-83375441D01*
X126151216Y-83375313D01*
X125754311Y-83539311D01*
X125631644Y-83661764D01*
X125418955Y-83704071D01*
X125155264Y-83880264D01*
X123462930Y-85572598D01*
X121951874Y-85572598D01*
X125034737Y-82489736D01*
X125034739Y-82489733D01*
X126516425Y-81008048D01*
X126730354Y-81150991D01*
X127202968Y-81245000D01*
X128067032Y-81245000D01*
X128539646Y-81150991D01*
X128940309Y-80883277D01*
X128980718Y-80822800D01*
X129203328Y-80822800D01*
X130235263Y-81854736D01*
G36*
X123885267Y-81340261D02*
X123885264Y-81340263D01*
X120313328Y-84912200D01*
X119724020Y-84912200D01*
X119824313Y-84670668D01*
X119824687Y-84241216D01*
X119660689Y-83844311D01*
X119601481Y-83785000D01*
X119888000Y-83785000D01*
X119888000Y-82677000D01*
X120142000Y-82677000D01*
X120142000Y-83785000D01*
X120542000Y-83785000D01*
X121004947Y-83642390D01*
X121378080Y-83333474D01*
X121604592Y-82905281D01*
X121608462Y-82867609D01*
X121483731Y-82677000D01*
X120142000Y-82677000D01*
X119888000Y-82677000D01*
X118546269Y-82677000D01*
X118421538Y-82867609D01*
X118425408Y-82905281D01*
X118651920Y-83333474D01*
X118702637Y-83375462D01*
X118531216Y-83375313D01*
X118134311Y-83539311D01*
X117830378Y-83842714D01*
X117665687Y-84239332D01*
X117665654Y-84277200D01*
X117184020Y-84277200D01*
X117284313Y-84035668D01*
X117284687Y-83606216D01*
X117120689Y-83209311D01*
X116817286Y-82905378D01*
X116553159Y-82795702D01*
X116602032Y-82550000D01*
X116538856Y-82232391D01*
X118421538Y-82232391D01*
X118546269Y-82423000D01*
X119888000Y-82423000D01*
X119888000Y-81315000D01*
X120142000Y-81315000D01*
X120142000Y-82423000D01*
X121483731Y-82423000D01*
X121608462Y-82232391D01*
X121604592Y-82194719D01*
X121378080Y-81766526D01*
X121004947Y-81457610D01*
X120542000Y-81315000D01*
X120142000Y-81315000D01*
X119888000Y-81315000D01*
X119488000Y-81315000D01*
X119025053Y-81457610D01*
X118651920Y-81766526D01*
X118425408Y-82194719D01*
X118421538Y-82232391D01*
X116538856Y-82232391D01*
X116508023Y-82077386D01*
X116240309Y-81676723D01*
X115839646Y-81409009D01*
X115367032Y-81315000D01*
X114502968Y-81315000D01*
X114030354Y-81409009D01*
X113629691Y-81676723D01*
X113589282Y-81737200D01*
X111760000Y-81737200D01*
X111448955Y-81799071D01*
X111185263Y-81975264D01*
X110153328Y-83007200D01*
X108850677Y-83007200D01*
X108904592Y-82905281D01*
X108908462Y-82867609D01*
X108783731Y-82677000D01*
X107442000Y-82677000D01*
X107442000Y-82697000D01*
X107188000Y-82697000D01*
X107188000Y-82677000D01*
X105846269Y-82677000D01*
X105721538Y-82867609D01*
X105725408Y-82905281D01*
X105779323Y-83007200D01*
X105746673Y-83007200D01*
X105219562Y-82480089D01*
X105219687Y-82336216D01*
X105119109Y-82092800D01*
X105779323Y-82092800D01*
X105725408Y-82194719D01*
X105721538Y-82232391D01*
X105846269Y-82423000D01*
X107188000Y-82423000D01*
X107188000Y-82403000D01*
X107442000Y-82403000D01*
X107442000Y-82423000D01*
X108783731Y-82423000D01*
X108908462Y-82232391D01*
X108904592Y-82194719D01*
X108850677Y-82092800D01*
X110490000Y-82092800D01*
X110801045Y-82030929D01*
X111064736Y-81854736D01*
X112096673Y-80822800D01*
X113589282Y-80822800D01*
X113629691Y-80883277D01*
X114030354Y-81150991D01*
X114502968Y-81245000D01*
X115367032Y-81245000D01*
X115839646Y-81150991D01*
X116240309Y-80883277D01*
X116508023Y-80482614D01*
X116602032Y-80010000D01*
X116513016Y-79562488D01*
X117535263Y-80584736D01*
X117798955Y-80760929D01*
X118110000Y-80822800D01*
X118669282Y-80822800D01*
X118709691Y-80883277D01*
X119110354Y-81150991D01*
X119582968Y-81245000D01*
X120447032Y-81245000D01*
X120919646Y-81150991D01*
X121320309Y-80883277D01*
X121360718Y-80822800D01*
X123190000Y-80822800D01*
X123501045Y-80760929D01*
X123764736Y-80584736D01*
X124796673Y-79552800D01*
X125672727Y-79552800D01*
X123885267Y-81340261D01*
X123885267Y-81340261D01*
G37*
X123885267Y-81340261D02*
X123885264Y-81340263D01*
X120313328Y-84912200D01*
X119724020Y-84912200D01*
X119824313Y-84670668D01*
X119824687Y-84241216D01*
X119660689Y-83844311D01*
X119601481Y-83785000D01*
X119888000Y-83785000D01*
X119888000Y-82677000D01*
X120142000Y-82677000D01*
X120142000Y-83785000D01*
X120542000Y-83785000D01*
X121004947Y-83642390D01*
X121378080Y-83333474D01*
X121604592Y-82905281D01*
X121608462Y-82867609D01*
X121483731Y-82677000D01*
X120142000Y-82677000D01*
X119888000Y-82677000D01*
X118546269Y-82677000D01*
X118421538Y-82867609D01*
X118425408Y-82905281D01*
X118651920Y-83333474D01*
X118702637Y-83375462D01*
X118531216Y-83375313D01*
X118134311Y-83539311D01*
X117830378Y-83842714D01*
X117665687Y-84239332D01*
X117665654Y-84277200D01*
X117184020Y-84277200D01*
X117284313Y-84035668D01*
X117284687Y-83606216D01*
X117120689Y-83209311D01*
X116817286Y-82905378D01*
X116553159Y-82795702D01*
X116602032Y-82550000D01*
X116538856Y-82232391D01*
X118421538Y-82232391D01*
X118546269Y-82423000D01*
X119888000Y-82423000D01*
X119888000Y-81315000D01*
X120142000Y-81315000D01*
X120142000Y-82423000D01*
X121483731Y-82423000D01*
X121608462Y-82232391D01*
X121604592Y-82194719D01*
X121378080Y-81766526D01*
X121004947Y-81457610D01*
X120542000Y-81315000D01*
X120142000Y-81315000D01*
X119888000Y-81315000D01*
X119488000Y-81315000D01*
X119025053Y-81457610D01*
X118651920Y-81766526D01*
X118425408Y-82194719D01*
X118421538Y-82232391D01*
X116538856Y-82232391D01*
X116508023Y-82077386D01*
X116240309Y-81676723D01*
X115839646Y-81409009D01*
X115367032Y-81315000D01*
X114502968Y-81315000D01*
X114030354Y-81409009D01*
X113629691Y-81676723D01*
X113589282Y-81737200D01*
X111760000Y-81737200D01*
X111448955Y-81799071D01*
X111185263Y-81975264D01*
X110153328Y-83007200D01*
X108850677Y-83007200D01*
X108904592Y-82905281D01*
X108908462Y-82867609D01*
X108783731Y-82677000D01*
X107442000Y-82677000D01*
X107442000Y-82697000D01*
X107188000Y-82697000D01*
X107188000Y-82677000D01*
X105846269Y-82677000D01*
X105721538Y-82867609D01*
X105725408Y-82905281D01*
X105779323Y-83007200D01*
X105746673Y-83007200D01*
X105219562Y-82480089D01*
X105219687Y-82336216D01*
X105119109Y-82092800D01*
X105779323Y-82092800D01*
X105725408Y-82194719D01*
X105721538Y-82232391D01*
X105846269Y-82423000D01*
X107188000Y-82423000D01*
X107188000Y-82403000D01*
X107442000Y-82403000D01*
X107442000Y-82423000D01*
X108783731Y-82423000D01*
X108908462Y-82232391D01*
X108904592Y-82194719D01*
X108850677Y-82092800D01*
X110490000Y-82092800D01*
X110801045Y-82030929D01*
X111064736Y-81854736D01*
X112096673Y-80822800D01*
X113589282Y-80822800D01*
X113629691Y-80883277D01*
X114030354Y-81150991D01*
X114502968Y-81245000D01*
X115367032Y-81245000D01*
X115839646Y-81150991D01*
X116240309Y-80883277D01*
X116508023Y-80482614D01*
X116602032Y-80010000D01*
X116513016Y-79562488D01*
X117535263Y-80584736D01*
X117798955Y-80760929D01*
X118110000Y-80822800D01*
X118669282Y-80822800D01*
X118709691Y-80883277D01*
X119110354Y-81150991D01*
X119582968Y-81245000D01*
X120447032Y-81245000D01*
X120919646Y-81150991D01*
X121320309Y-80883277D01*
X121360718Y-80822800D01*
X123190000Y-80822800D01*
X123501045Y-80760929D01*
X123764736Y-80584736D01*
X124796673Y-79552800D01*
X125672727Y-79552800D01*
X123885267Y-81340261D01*
G36*
X151715000Y-59760528D02*
X151704739Y-59750267D01*
X151704737Y-59750264D01*
X151069736Y-59115264D01*
X150806045Y-58939071D01*
X150613391Y-58900749D01*
X150486375Y-58710657D01*
X150037049Y-58410427D01*
X149507032Y-58305000D01*
X148942968Y-58305000D01*
X148412951Y-58410427D01*
X148139344Y-58593246D01*
X148086927Y-58466701D01*
X147908298Y-58288073D01*
X147674909Y-58191400D01*
X146970750Y-58191400D01*
X146812000Y-58350150D01*
X146812000Y-59563000D01*
X146832000Y-59563000D01*
X146832000Y-59817000D01*
X146812000Y-59817000D01*
X146812000Y-59837000D01*
X146558000Y-59837000D01*
X146558000Y-59817000D01*
X145345150Y-59817000D01*
X145186400Y-59975750D01*
X145186400Y-60679910D01*
X145283073Y-60913299D01*
X145461702Y-61091927D01*
X145584844Y-61142934D01*
X145423625Y-61250657D01*
X145123395Y-61699983D01*
X145063843Y-61999371D01*
X144957800Y-61893328D01*
X144957800Y-59055000D01*
X144895929Y-58743955D01*
X144866620Y-58700090D01*
X145186400Y-58700090D01*
X145186400Y-59404250D01*
X145345150Y-59563000D01*
X146558000Y-59563000D01*
X146558000Y-58350150D01*
X146399250Y-58191400D01*
X145695091Y-58191400D01*
X145461702Y-58288073D01*
X145283073Y-58466701D01*
X145186400Y-58700090D01*
X144866620Y-58700090D01*
X144719736Y-58480264D01*
X139639736Y-53400264D01*
X139376045Y-53224071D01*
X139065000Y-53162200D01*
X138774020Y-53162200D01*
X138874313Y-52920668D01*
X138874687Y-52491216D01*
X138710689Y-52094311D01*
X138407286Y-51790378D01*
X138010668Y-51625687D01*
X137581216Y-51625313D01*
X137184311Y-51789311D01*
X137081242Y-51892200D01*
X131154020Y-51892200D01*
X131254313Y-51650668D01*
X131254687Y-51221216D01*
X131090689Y-50824311D01*
X131064000Y-50797575D01*
X131064000Y-47752000D01*
X136406890Y-47752000D01*
X136406890Y-48506380D01*
X136561154Y-49027919D01*
X136903260Y-49450724D01*
X137381125Y-49710427D01*
X137453326Y-49724783D01*
X137668000Y-49602162D01*
X137668000Y-47752000D01*
X136406890Y-47752000D01*
X131064000Y-47752000D01*
X131064000Y-47625000D01*
X130996329Y-47284794D01*
X130803618Y-46996382D01*
X130550856Y-46743620D01*
X136406890Y-46743620D01*
X136406890Y-47498000D01*
X137668000Y-47498000D01*
X137668000Y-45647838D01*
X137922000Y-45647838D01*
X137922000Y-47498000D01*
X137942000Y-47498000D01*
X137942000Y-47752000D01*
X137922000Y-47752000D01*
X137922000Y-49602162D01*
X138136674Y-49724783D01*
X138208875Y-49710427D01*
X138686740Y-49450724D01*
X139028846Y-49027919D01*
X139051984Y-48949694D01*
X139052554Y-48952561D01*
X139353458Y-49402896D01*
X139803793Y-49703800D01*
X140335000Y-49809464D01*
X140866207Y-49703800D01*
X141316542Y-49402896D01*
X141617446Y-48952561D01*
X141723110Y-48421354D01*
X141723110Y-46828646D01*
X141617446Y-46297439D01*
X141316542Y-45847104D01*
X140866207Y-45546200D01*
X140335000Y-45440536D01*
X139803793Y-45546200D01*
X139353458Y-45847104D01*
X139052554Y-46297439D01*
X139051984Y-46300306D01*
X139028846Y-46222081D01*
X138686740Y-45799276D01*
X138208875Y-45539573D01*
X138136674Y-45525217D01*
X137922000Y-45647838D01*
X137668000Y-45647838D01*
X137453326Y-45525217D01*
X137381125Y-45539573D01*
X136903260Y-45799276D01*
X136561154Y-46222081D01*
X136406890Y-46743620D01*
X130550856Y-46743620D01*
X128942236Y-45135000D01*
X151715000Y-45135000D01*
X151715000Y-59760528D01*
X151715000Y-59760528D01*
G37*
X151715000Y-59760528D02*
X151704739Y-59750267D01*
X151704737Y-59750264D01*
X151069736Y-59115264D01*
X150806045Y-58939071D01*
X150613391Y-58900749D01*
X150486375Y-58710657D01*
X150037049Y-58410427D01*
X149507032Y-58305000D01*
X148942968Y-58305000D01*
X148412951Y-58410427D01*
X148139344Y-58593246D01*
X148086927Y-58466701D01*
X147908298Y-58288073D01*
X147674909Y-58191400D01*
X146970750Y-58191400D01*
X146812000Y-58350150D01*
X146812000Y-59563000D01*
X146832000Y-59563000D01*
X146832000Y-59817000D01*
X146812000Y-59817000D01*
X146812000Y-59837000D01*
X146558000Y-59837000D01*
X146558000Y-59817000D01*
X145345150Y-59817000D01*
X145186400Y-59975750D01*
X145186400Y-60679910D01*
X145283073Y-60913299D01*
X145461702Y-61091927D01*
X145584844Y-61142934D01*
X145423625Y-61250657D01*
X145123395Y-61699983D01*
X145063843Y-61999371D01*
X144957800Y-61893328D01*
X144957800Y-59055000D01*
X144895929Y-58743955D01*
X144866620Y-58700090D01*
X145186400Y-58700090D01*
X145186400Y-59404250D01*
X145345150Y-59563000D01*
X146558000Y-59563000D01*
X146558000Y-58350150D01*
X146399250Y-58191400D01*
X145695091Y-58191400D01*
X145461702Y-58288073D01*
X145283073Y-58466701D01*
X145186400Y-58700090D01*
X144866620Y-58700090D01*
X144719736Y-58480264D01*
X139639736Y-53400264D01*
X139376045Y-53224071D01*
X139065000Y-53162200D01*
X138774020Y-53162200D01*
X138874313Y-52920668D01*
X138874687Y-52491216D01*
X138710689Y-52094311D01*
X138407286Y-51790378D01*
X138010668Y-51625687D01*
X137581216Y-51625313D01*
X137184311Y-51789311D01*
X137081242Y-51892200D01*
X131154020Y-51892200D01*
X131254313Y-51650668D01*
X131254687Y-51221216D01*
X131090689Y-50824311D01*
X131064000Y-50797575D01*
X131064000Y-47752000D01*
X136406890Y-47752000D01*
X136406890Y-48506380D01*
X136561154Y-49027919D01*
X136903260Y-49450724D01*
X137381125Y-49710427D01*
X137453326Y-49724783D01*
X137668000Y-49602162D01*
X137668000Y-47752000D01*
X136406890Y-47752000D01*
X131064000Y-47752000D01*
X131064000Y-47625000D01*
X130996329Y-47284794D01*
X130803618Y-46996382D01*
X130550856Y-46743620D01*
X136406890Y-46743620D01*
X136406890Y-47498000D01*
X137668000Y-47498000D01*
X137668000Y-45647838D01*
X137922000Y-45647838D01*
X137922000Y-47498000D01*
X137942000Y-47498000D01*
X137942000Y-47752000D01*
X137922000Y-47752000D01*
X137922000Y-49602162D01*
X138136674Y-49724783D01*
X138208875Y-49710427D01*
X138686740Y-49450724D01*
X139028846Y-49027919D01*
X139051984Y-48949694D01*
X139052554Y-48952561D01*
X139353458Y-49402896D01*
X139803793Y-49703800D01*
X140335000Y-49809464D01*
X140866207Y-49703800D01*
X141316542Y-49402896D01*
X141617446Y-48952561D01*
X141723110Y-48421354D01*
X141723110Y-46828646D01*
X141617446Y-46297439D01*
X141316542Y-45847104D01*
X140866207Y-45546200D01*
X140335000Y-45440536D01*
X139803793Y-45546200D01*
X139353458Y-45847104D01*
X139052554Y-46297439D01*
X139051984Y-46300306D01*
X139028846Y-46222081D01*
X138686740Y-45799276D01*
X138208875Y-45539573D01*
X138136674Y-45525217D01*
X137922000Y-45647838D01*
X137668000Y-45647838D01*
X137453326Y-45525217D01*
X137381125Y-45539573D01*
X136903260Y-45799276D01*
X136561154Y-46222081D01*
X136406890Y-46743620D01*
X130550856Y-46743620D01*
X128942236Y-45135000D01*
X151715000Y-45135000D01*
X151715000Y-59760528D01*
G36*
X95193437Y-57327091D02*
X94278328Y-58242200D01*
X85370000Y-58242200D01*
X85370000Y-58070750D01*
X85211250Y-57912000D01*
X84262000Y-57912000D01*
X84262000Y-57932000D01*
X84008000Y-57932000D01*
X84008000Y-57912000D01*
X83988000Y-57912000D01*
X83988000Y-57658000D01*
X84008000Y-57658000D01*
X84008000Y-57638000D01*
X84262000Y-57638000D01*
X84262000Y-57658000D01*
X85211250Y-57658000D01*
X85370000Y-57499250D01*
X85370000Y-57317006D01*
X95193437Y-57327091D01*
X95193437Y-57327091D01*
G37*
X95193437Y-57327091D02*
X94278328Y-58242200D01*
X85370000Y-58242200D01*
X85370000Y-58070750D01*
X85211250Y-57912000D01*
X84262000Y-57912000D01*
X84262000Y-57932000D01*
X84008000Y-57932000D01*
X84008000Y-57912000D01*
X83988000Y-57912000D01*
X83988000Y-57658000D01*
X84008000Y-57658000D01*
X84008000Y-57638000D01*
X84262000Y-57638000D01*
X84262000Y-57658000D01*
X85211250Y-57658000D01*
X85370000Y-57499250D01*
X85370000Y-57317006D01*
X95193437Y-57327091D01*
G36*
X76969422Y-48652553D02*
X76816673Y-48805301D01*
X76720000Y-49038690D01*
X76720000Y-49879250D01*
X76878750Y-50038000D01*
X77978000Y-50038000D01*
X77978000Y-50018000D01*
X78232000Y-50018000D01*
X78232000Y-50038000D01*
X78252000Y-50038000D01*
X78252000Y-50292000D01*
X78232000Y-50292000D01*
X78232000Y-51641250D01*
X78390750Y-51800000D01*
X78981309Y-51800000D01*
X79214698Y-51703327D01*
X79393327Y-51524699D01*
X79490000Y-51291310D01*
X79490000Y-51163486D01*
X79665657Y-51426375D01*
X80114983Y-51726605D01*
X80645000Y-51832032D01*
X81175017Y-51726605D01*
X81624343Y-51426375D01*
X81915000Y-50991376D01*
X82205657Y-51426375D01*
X82654983Y-51726605D01*
X83185000Y-51832032D01*
X83715017Y-51726605D01*
X84164343Y-51426375D01*
X84455000Y-50991376D01*
X84745657Y-51426375D01*
X85194983Y-51726605D01*
X85725000Y-51832032D01*
X86255017Y-51726605D01*
X86704343Y-51426375D01*
X86995000Y-50991376D01*
X87285657Y-51426375D01*
X87734983Y-51726605D01*
X88265000Y-51832032D01*
X88795017Y-51726605D01*
X89244343Y-51426375D01*
X89535000Y-50991376D01*
X89825657Y-51426375D01*
X90274983Y-51726605D01*
X90805000Y-51832032D01*
X91335017Y-51726605D01*
X91784343Y-51426375D01*
X92075000Y-50991376D01*
X92365657Y-51426375D01*
X92814983Y-51726605D01*
X93345000Y-51832032D01*
X93875017Y-51726605D01*
X94324343Y-51426375D01*
X94615000Y-50991376D01*
X94905657Y-51426375D01*
X95354983Y-51726605D01*
X95885000Y-51832032D01*
X96415017Y-51726605D01*
X96864343Y-51426375D01*
X97155000Y-50991376D01*
X97445657Y-51426375D01*
X97894983Y-51726605D01*
X98425000Y-51832032D01*
X98955017Y-51726605D01*
X99404343Y-51426375D01*
X99695000Y-50991376D01*
X99985657Y-51426375D01*
X100434983Y-51726605D01*
X100965000Y-51832032D01*
X101495017Y-51726605D01*
X101944343Y-51426375D01*
X102235000Y-50991376D01*
X102525657Y-51426375D01*
X102974983Y-51726605D01*
X103505000Y-51832032D01*
X104035017Y-51726605D01*
X104484343Y-51426375D01*
X104775000Y-50991376D01*
X105065657Y-51426375D01*
X105514983Y-51726605D01*
X106045000Y-51832032D01*
X106575017Y-51726605D01*
X107024343Y-51426375D01*
X107315000Y-50991376D01*
X107605657Y-51426375D01*
X108054983Y-51726605D01*
X108585000Y-51832032D01*
X109115017Y-51726605D01*
X109564343Y-51426375D01*
X109855000Y-50991376D01*
X110145657Y-51426375D01*
X110594983Y-51726605D01*
X111125000Y-51832032D01*
X111655017Y-51726605D01*
X112104343Y-51426375D01*
X112395000Y-50991376D01*
X112685657Y-51426375D01*
X113134983Y-51726605D01*
X113665000Y-51832032D01*
X114195017Y-51726605D01*
X114644343Y-51426375D01*
X114935000Y-50991376D01*
X115225657Y-51426375D01*
X115392200Y-51537655D01*
X115392200Y-51733327D01*
X114598328Y-52527200D01*
X95694656Y-52527200D01*
X95694687Y-52491216D01*
X95530689Y-52094311D01*
X95227286Y-51790378D01*
X94830668Y-51625687D01*
X94401216Y-51625313D01*
X94004311Y-51789311D01*
X93901242Y-51892200D01*
X66753930Y-51892200D01*
X66652286Y-51790378D01*
X66408208Y-51689028D01*
X67646486Y-50450750D01*
X76720000Y-50450750D01*
X76720000Y-51291310D01*
X76816673Y-51524699D01*
X76995302Y-51703327D01*
X77228691Y-51800000D01*
X77819250Y-51800000D01*
X77978000Y-51641250D01*
X77978000Y-50292000D01*
X76878750Y-50292000D01*
X76720000Y-50450750D01*
X67646486Y-50450750D01*
X69583236Y-48514000D01*
X76876844Y-48514000D01*
X76969422Y-48652553D01*
X76969422Y-48652553D01*
G37*
X76969422Y-48652553D02*
X76816673Y-48805301D01*
X76720000Y-49038690D01*
X76720000Y-49879250D01*
X76878750Y-50038000D01*
X77978000Y-50038000D01*
X77978000Y-50018000D01*
X78232000Y-50018000D01*
X78232000Y-50038000D01*
X78252000Y-50038000D01*
X78252000Y-50292000D01*
X78232000Y-50292000D01*
X78232000Y-51641250D01*
X78390750Y-51800000D01*
X78981309Y-51800000D01*
X79214698Y-51703327D01*
X79393327Y-51524699D01*
X79490000Y-51291310D01*
X79490000Y-51163486D01*
X79665657Y-51426375D01*
X80114983Y-51726605D01*
X80645000Y-51832032D01*
X81175017Y-51726605D01*
X81624343Y-51426375D01*
X81915000Y-50991376D01*
X82205657Y-51426375D01*
X82654983Y-51726605D01*
X83185000Y-51832032D01*
X83715017Y-51726605D01*
X84164343Y-51426375D01*
X84455000Y-50991376D01*
X84745657Y-51426375D01*
X85194983Y-51726605D01*
X85725000Y-51832032D01*
X86255017Y-51726605D01*
X86704343Y-51426375D01*
X86995000Y-50991376D01*
X87285657Y-51426375D01*
X87734983Y-51726605D01*
X88265000Y-51832032D01*
X88795017Y-51726605D01*
X89244343Y-51426375D01*
X89535000Y-50991376D01*
X89825657Y-51426375D01*
X90274983Y-51726605D01*
X90805000Y-51832032D01*
X91335017Y-51726605D01*
X91784343Y-51426375D01*
X92075000Y-50991376D01*
X92365657Y-51426375D01*
X92814983Y-51726605D01*
X93345000Y-51832032D01*
X93875017Y-51726605D01*
X94324343Y-51426375D01*
X94615000Y-50991376D01*
X94905657Y-51426375D01*
X95354983Y-51726605D01*
X95885000Y-51832032D01*
X96415017Y-51726605D01*
X96864343Y-51426375D01*
X97155000Y-50991376D01*
X97445657Y-51426375D01*
X97894983Y-51726605D01*
X98425000Y-51832032D01*
X98955017Y-51726605D01*
X99404343Y-51426375D01*
X99695000Y-50991376D01*
X99985657Y-51426375D01*
X100434983Y-51726605D01*
X100965000Y-51832032D01*
X101495017Y-51726605D01*
X101944343Y-51426375D01*
X102235000Y-50991376D01*
X102525657Y-51426375D01*
X102974983Y-51726605D01*
X103505000Y-51832032D01*
X104035017Y-51726605D01*
X104484343Y-51426375D01*
X104775000Y-50991376D01*
X105065657Y-51426375D01*
X105514983Y-51726605D01*
X106045000Y-51832032D01*
X106575017Y-51726605D01*
X107024343Y-51426375D01*
X107315000Y-50991376D01*
X107605657Y-51426375D01*
X108054983Y-51726605D01*
X108585000Y-51832032D01*
X109115017Y-51726605D01*
X109564343Y-51426375D01*
X109855000Y-50991376D01*
X110145657Y-51426375D01*
X110594983Y-51726605D01*
X111125000Y-51832032D01*
X111655017Y-51726605D01*
X112104343Y-51426375D01*
X112395000Y-50991376D01*
X112685657Y-51426375D01*
X113134983Y-51726605D01*
X113665000Y-51832032D01*
X114195017Y-51726605D01*
X114644343Y-51426375D01*
X114935000Y-50991376D01*
X115225657Y-51426375D01*
X115392200Y-51537655D01*
X115392200Y-51733327D01*
X114598328Y-52527200D01*
X95694656Y-52527200D01*
X95694687Y-52491216D01*
X95530689Y-52094311D01*
X95227286Y-51790378D01*
X94830668Y-51625687D01*
X94401216Y-51625313D01*
X94004311Y-51789311D01*
X93901242Y-51892200D01*
X66753930Y-51892200D01*
X66652286Y-51790378D01*
X66408208Y-51689028D01*
X67646486Y-50450750D01*
X76720000Y-50450750D01*
X76720000Y-51291310D01*
X76816673Y-51524699D01*
X76995302Y-51703327D01*
X77228691Y-51800000D01*
X77819250Y-51800000D01*
X77978000Y-51641250D01*
X77978000Y-50292000D01*
X76878750Y-50292000D01*
X76720000Y-50450750D01*
X67646486Y-50450750D01*
X69583236Y-48514000D01*
X76876844Y-48514000D01*
X76969422Y-48652553D01*
M02*
