G04 #@! TF.FileFunction,Legend,Top*
%FSLAX46Y46*%
G04 Gerber Fmt 4.6, Leading zero omitted, Abs format (unit mm)*
G04 Created by KiCad (PCBNEW 4.0.2-stable) date 27-3-2016 11:05:44*
%MOMM*%
G01*
G04 APERTURE LIST*
%ADD10C,0.150000*%
%ADD11C,0.250000*%
%ADD12C,0.300000*%
G04 APERTURE END LIST*
D10*
D11*
X149075143Y-134484239D02*
X149122762Y-134531858D01*
X149170381Y-134674715D01*
X149170381Y-134769953D01*
X149122762Y-134912811D01*
X149027524Y-135008049D01*
X148932286Y-135055668D01*
X148741810Y-135103287D01*
X148598952Y-135103287D01*
X148408476Y-135055668D01*
X148313238Y-135008049D01*
X148218000Y-134912811D01*
X148170381Y-134769953D01*
X148170381Y-134674715D01*
X148218000Y-134531858D01*
X148265619Y-134484239D01*
X149170381Y-133627096D02*
X148646571Y-133627096D01*
X148551333Y-133674715D01*
X148503714Y-133769953D01*
X148503714Y-133960430D01*
X148551333Y-134055668D01*
X149122762Y-133627096D02*
X149170381Y-133722334D01*
X149170381Y-133960430D01*
X149122762Y-134055668D01*
X149027524Y-134103287D01*
X148932286Y-134103287D01*
X148837048Y-134055668D01*
X148789429Y-133960430D01*
X148789429Y-133722334D01*
X148741810Y-133627096D01*
X148503714Y-133150906D02*
X149170381Y-133150906D01*
X148598952Y-133150906D02*
X148551333Y-133103287D01*
X148503714Y-133008049D01*
X148503714Y-132865191D01*
X148551333Y-132769953D01*
X148646571Y-132722334D01*
X149170381Y-132722334D01*
X148503714Y-132246144D02*
X149170381Y-132246144D01*
X148598952Y-132246144D02*
X148551333Y-132198525D01*
X148503714Y-132103287D01*
X148503714Y-131960429D01*
X148551333Y-131865191D01*
X148646571Y-131817572D01*
X149170381Y-131817572D01*
X149122762Y-130960429D02*
X149170381Y-131055667D01*
X149170381Y-131246144D01*
X149122762Y-131341382D01*
X149027524Y-131389001D01*
X148646571Y-131389001D01*
X148551333Y-131341382D01*
X148503714Y-131246144D01*
X148503714Y-131055667D01*
X148551333Y-130960429D01*
X148646571Y-130912810D01*
X148741810Y-130912810D01*
X148837048Y-131389001D01*
X149170381Y-130055667D02*
X148170381Y-130055667D01*
X149122762Y-130055667D02*
X149170381Y-130150905D01*
X149170381Y-130341382D01*
X149122762Y-130436620D01*
X149075143Y-130484239D01*
X148979905Y-130531858D01*
X148694190Y-130531858D01*
X148598952Y-130484239D01*
X148551333Y-130436620D01*
X148503714Y-130341382D01*
X148503714Y-130150905D01*
X148551333Y-130055667D01*
X148646571Y-128484238D02*
X148694190Y-128341381D01*
X148741810Y-128293762D01*
X148837048Y-128246143D01*
X148979905Y-128246143D01*
X149075143Y-128293762D01*
X149122762Y-128341381D01*
X149170381Y-128436619D01*
X149170381Y-128817572D01*
X148170381Y-128817572D01*
X148170381Y-128484238D01*
X148218000Y-128389000D01*
X148265619Y-128341381D01*
X148360857Y-128293762D01*
X148456095Y-128293762D01*
X148551333Y-128341381D01*
X148598952Y-128389000D01*
X148646571Y-128484238D01*
X148646571Y-128817572D01*
X148503714Y-127912810D02*
X149170381Y-127674715D01*
X148503714Y-127436619D02*
X149170381Y-127674715D01*
X149408476Y-127769953D01*
X149456095Y-127817572D01*
X149503714Y-127912810D01*
X148503714Y-127198524D02*
X148503714Y-126817572D01*
X148170381Y-127055667D02*
X149027524Y-127055667D01*
X149122762Y-127008048D01*
X149170381Y-126912810D01*
X149170381Y-126817572D01*
X149122762Y-126103285D02*
X149170381Y-126198523D01*
X149170381Y-126389000D01*
X149122762Y-126484238D01*
X149027524Y-126531857D01*
X148646571Y-126531857D01*
X148551333Y-126484238D01*
X148503714Y-126389000D01*
X148503714Y-126198523D01*
X148551333Y-126103285D01*
X148646571Y-126055666D01*
X148741810Y-126055666D01*
X148837048Y-126531857D01*
X149122762Y-125674714D02*
X149170381Y-125579476D01*
X149170381Y-125389000D01*
X149122762Y-125293761D01*
X149027524Y-125246142D01*
X148979905Y-125246142D01*
X148884667Y-125293761D01*
X148837048Y-125389000D01*
X148837048Y-125531857D01*
X148789429Y-125627095D01*
X148694190Y-125674714D01*
X148646571Y-125674714D01*
X148551333Y-125627095D01*
X148503714Y-125531857D01*
X148503714Y-125389000D01*
X148551333Y-125293761D01*
X148265619Y-124103285D02*
X148218000Y-124055666D01*
X148170381Y-123960428D01*
X148170381Y-123722332D01*
X148218000Y-123627094D01*
X148265619Y-123579475D01*
X148360857Y-123531856D01*
X148456095Y-123531856D01*
X148598952Y-123579475D01*
X149170381Y-124150904D01*
X149170381Y-123531856D01*
X148170381Y-122912809D02*
X148170381Y-122817570D01*
X148218000Y-122722332D01*
X148265619Y-122674713D01*
X148360857Y-122627094D01*
X148551333Y-122579475D01*
X148789429Y-122579475D01*
X148979905Y-122627094D01*
X149075143Y-122674713D01*
X149122762Y-122722332D01*
X149170381Y-122817570D01*
X149170381Y-122912809D01*
X149122762Y-123008047D01*
X149075143Y-123055666D01*
X148979905Y-123103285D01*
X148789429Y-123150904D01*
X148551333Y-123150904D01*
X148360857Y-123103285D01*
X148265619Y-123055666D01*
X148218000Y-123008047D01*
X148170381Y-122912809D01*
X149170381Y-121627094D02*
X149170381Y-122198523D01*
X149170381Y-121912809D02*
X148170381Y-121912809D01*
X148313238Y-122008047D01*
X148408476Y-122103285D01*
X148456095Y-122198523D01*
X148170381Y-120769951D02*
X148170381Y-120960428D01*
X148218000Y-121055666D01*
X148265619Y-121103285D01*
X148408476Y-121198523D01*
X148598952Y-121246142D01*
X148979905Y-121246142D01*
X149075143Y-121198523D01*
X149122762Y-121150904D01*
X149170381Y-121055666D01*
X149170381Y-120865189D01*
X149122762Y-120769951D01*
X149075143Y-120722332D01*
X148979905Y-120674713D01*
X148741810Y-120674713D01*
X148646571Y-120722332D01*
X148598952Y-120769951D01*
X148551333Y-120865189D01*
X148551333Y-121055666D01*
X148598952Y-121150904D01*
X148646571Y-121198523D01*
X148741810Y-121246142D01*
X149820381Y-135460429D02*
X149820381Y-134793762D01*
X150820381Y-135460429D01*
X150820381Y-134793762D01*
X150248952Y-134269953D02*
X150201333Y-134365191D01*
X150153714Y-134412810D01*
X150058476Y-134460429D01*
X150010857Y-134460429D01*
X149915619Y-134412810D01*
X149868000Y-134365191D01*
X149820381Y-134269953D01*
X149820381Y-134079476D01*
X149868000Y-133984238D01*
X149915619Y-133936619D01*
X150010857Y-133889000D01*
X150058476Y-133889000D01*
X150153714Y-133936619D01*
X150201333Y-133984238D01*
X150248952Y-134079476D01*
X150248952Y-134269953D01*
X150296571Y-134365191D01*
X150344190Y-134412810D01*
X150439429Y-134460429D01*
X150629905Y-134460429D01*
X150725143Y-134412810D01*
X150772762Y-134365191D01*
X150820381Y-134269953D01*
X150820381Y-134079476D01*
X150772762Y-133984238D01*
X150725143Y-133936619D01*
X150629905Y-133889000D01*
X150439429Y-133889000D01*
X150344190Y-133936619D01*
X150296571Y-133984238D01*
X150248952Y-134079476D01*
X149820381Y-133269953D02*
X149820381Y-133174714D01*
X149868000Y-133079476D01*
X149915619Y-133031857D01*
X150010857Y-132984238D01*
X150201333Y-132936619D01*
X150439429Y-132936619D01*
X150629905Y-132984238D01*
X150725143Y-133031857D01*
X150772762Y-133079476D01*
X150820381Y-133174714D01*
X150820381Y-133269953D01*
X150772762Y-133365191D01*
X150725143Y-133412810D01*
X150629905Y-133460429D01*
X150439429Y-133508048D01*
X150201333Y-133508048D01*
X150010857Y-133460429D01*
X149915619Y-133412810D01*
X149868000Y-133365191D01*
X149820381Y-133269953D01*
X150725143Y-131174714D02*
X150772762Y-131222333D01*
X150820381Y-131365190D01*
X150820381Y-131460428D01*
X150772762Y-131603286D01*
X150677524Y-131698524D01*
X150582286Y-131746143D01*
X150391810Y-131793762D01*
X150248952Y-131793762D01*
X150058476Y-131746143D01*
X149963238Y-131698524D01*
X149868000Y-131603286D01*
X149820381Y-131460428D01*
X149820381Y-131365190D01*
X149868000Y-131222333D01*
X149915619Y-131174714D01*
X150153714Y-130746143D02*
X151153714Y-130746143D01*
X150201333Y-130746143D02*
X150153714Y-130650905D01*
X150153714Y-130460428D01*
X150201333Y-130365190D01*
X150248952Y-130317571D01*
X150344190Y-130269952D01*
X150629905Y-130269952D01*
X150725143Y-130317571D01*
X150772762Y-130365190D01*
X150820381Y-130460428D01*
X150820381Y-130650905D01*
X150772762Y-130746143D01*
X150153714Y-129412809D02*
X150820381Y-129412809D01*
X150153714Y-129841381D02*
X150677524Y-129841381D01*
X150772762Y-129793762D01*
X150820381Y-129698524D01*
X150820381Y-129555666D01*
X150772762Y-129460428D01*
X150725143Y-129412809D01*
X150296571Y-127841380D02*
X150344190Y-127698523D01*
X150391810Y-127650904D01*
X150487048Y-127603285D01*
X150629905Y-127603285D01*
X150725143Y-127650904D01*
X150772762Y-127698523D01*
X150820381Y-127793761D01*
X150820381Y-128174714D01*
X149820381Y-128174714D01*
X149820381Y-127841380D01*
X149868000Y-127746142D01*
X149915619Y-127698523D01*
X150010857Y-127650904D01*
X150106095Y-127650904D01*
X150201333Y-127698523D01*
X150248952Y-127746142D01*
X150296571Y-127841380D01*
X150296571Y-128174714D01*
X150820381Y-127031857D02*
X150772762Y-127127095D01*
X150725143Y-127174714D01*
X150629905Y-127222333D01*
X150344190Y-127222333D01*
X150248952Y-127174714D01*
X150201333Y-127127095D01*
X150153714Y-127031857D01*
X150153714Y-126888999D01*
X150201333Y-126793761D01*
X150248952Y-126746142D01*
X150344190Y-126698523D01*
X150629905Y-126698523D01*
X150725143Y-126746142D01*
X150772762Y-126793761D01*
X150820381Y-126888999D01*
X150820381Y-127031857D01*
X150820381Y-125841380D02*
X150296571Y-125841380D01*
X150201333Y-125888999D01*
X150153714Y-125984237D01*
X150153714Y-126174714D01*
X150201333Y-126269952D01*
X150772762Y-125841380D02*
X150820381Y-125936618D01*
X150820381Y-126174714D01*
X150772762Y-126269952D01*
X150677524Y-126317571D01*
X150582286Y-126317571D01*
X150487048Y-126269952D01*
X150439429Y-126174714D01*
X150439429Y-125936618D01*
X150391810Y-125841380D01*
X150820381Y-125365190D02*
X150153714Y-125365190D01*
X150344190Y-125365190D02*
X150248952Y-125317571D01*
X150201333Y-125269952D01*
X150153714Y-125174714D01*
X150153714Y-125079475D01*
X150820381Y-124317570D02*
X149820381Y-124317570D01*
X150772762Y-124317570D02*
X150820381Y-124412808D01*
X150820381Y-124603285D01*
X150772762Y-124698523D01*
X150725143Y-124746142D01*
X150629905Y-124793761D01*
X150344190Y-124793761D01*
X150248952Y-124746142D01*
X150201333Y-124698523D01*
X150153714Y-124603285D01*
X150153714Y-124412808D01*
X150201333Y-124317570D01*
X150153714Y-123174713D02*
X150820381Y-122936618D01*
X150153714Y-122698522D01*
X150820381Y-121793760D02*
X150820381Y-122365189D01*
X150820381Y-122079475D02*
X149820381Y-122079475D01*
X149963238Y-122174713D01*
X150058476Y-122269951D01*
X150106095Y-122365189D01*
X150725143Y-121365189D02*
X150772762Y-121317570D01*
X150820381Y-121365189D01*
X150772762Y-121412808D01*
X150725143Y-121365189D01*
X150820381Y-121365189D01*
X149820381Y-120698523D02*
X149820381Y-120603284D01*
X149868000Y-120508046D01*
X149915619Y-120460427D01*
X150010857Y-120412808D01*
X150201333Y-120365189D01*
X150439429Y-120365189D01*
X150629905Y-120412808D01*
X150725143Y-120460427D01*
X150772762Y-120508046D01*
X150820381Y-120603284D01*
X150820381Y-120698523D01*
X150772762Y-120793761D01*
X150725143Y-120841380D01*
X150629905Y-120888999D01*
X150439429Y-120936618D01*
X150201333Y-120936618D01*
X150010857Y-120888999D01*
X149915619Y-120841380D01*
X149868000Y-120793761D01*
X149820381Y-120698523D01*
D12*
X132969143Y-45859000D02*
X132826286Y-45787571D01*
X132612000Y-45787571D01*
X132397715Y-45859000D01*
X132254857Y-46001857D01*
X132183429Y-46144714D01*
X132112000Y-46430429D01*
X132112000Y-46644714D01*
X132183429Y-46930429D01*
X132254857Y-47073286D01*
X132397715Y-47216143D01*
X132612000Y-47287571D01*
X132754857Y-47287571D01*
X132969143Y-47216143D01*
X133040572Y-47144714D01*
X133040572Y-46644714D01*
X132754857Y-46644714D01*
X133683429Y-47287571D02*
X133683429Y-45787571D01*
X134540572Y-47287571D01*
X134540572Y-45787571D01*
X135254858Y-47287571D02*
X135254858Y-45787571D01*
X135612001Y-45787571D01*
X135826286Y-45859000D01*
X135969144Y-46001857D01*
X136040572Y-46144714D01*
X136112001Y-46430429D01*
X136112001Y-46644714D01*
X136040572Y-46930429D01*
X135969144Y-47073286D01*
X135826286Y-47216143D01*
X135612001Y-47287571D01*
X135254858Y-47287571D01*
X143109143Y-49807571D02*
X143109143Y-48664714D01*
X143680571Y-49236143D02*
X142537714Y-49236143D01*
X142180571Y-47236142D02*
X142180571Y-47950428D01*
X142894857Y-48021857D01*
X142823429Y-47950428D01*
X142752000Y-47807571D01*
X142752000Y-47450428D01*
X142823429Y-47307571D01*
X142894857Y-47236142D01*
X143037714Y-47164714D01*
X143394857Y-47164714D01*
X143537714Y-47236142D01*
X143609143Y-47307571D01*
X143680571Y-47450428D01*
X143680571Y-47807571D01*
X143609143Y-47950428D01*
X143537714Y-48021857D01*
X142180571Y-46736143D02*
X143680571Y-46236143D01*
X142180571Y-45736143D01*
D10*
X127920000Y-87030000D02*
X128620000Y-87030000D01*
X128620000Y-88230000D02*
X127920000Y-88230000D01*
X145065000Y-85760000D02*
X145765000Y-85760000D01*
X145765000Y-86960000D02*
X145065000Y-86960000D01*
X82835000Y-57185000D02*
X83535000Y-57185000D01*
X83535000Y-58385000D02*
X82835000Y-58385000D01*
X86815001Y-89070000D02*
X86815000Y-129370000D01*
X86815000Y-129370000D02*
X97334999Y-129370000D01*
X97334999Y-129370000D02*
X97335000Y-89070000D01*
X97335000Y-89070000D02*
X93828333Y-89070000D01*
X93828333Y-89070000D02*
X93828333Y-89520000D01*
X93828333Y-89520000D02*
X90321667Y-89520000D01*
X90321667Y-89520000D02*
X90321667Y-89070000D01*
X90321667Y-89070000D02*
X86815001Y-89070000D01*
X102055001Y-89070000D02*
X102055000Y-129370000D01*
X102055000Y-129370000D02*
X112574999Y-129370000D01*
X112574999Y-129370000D02*
X112575000Y-89070000D01*
X112575000Y-89070000D02*
X109068333Y-89070000D01*
X109068333Y-89070000D02*
X109068333Y-89520000D01*
X109068333Y-89520000D02*
X105561667Y-89520000D01*
X105561667Y-89520000D02*
X105561667Y-89070000D01*
X105561667Y-89070000D02*
X102055001Y-89070000D01*
X117295001Y-89070000D02*
X117295000Y-129370000D01*
X117295000Y-129370000D02*
X127814999Y-129370000D01*
X127814999Y-129370000D02*
X127815000Y-89070000D01*
X127815000Y-89070000D02*
X124308333Y-89070000D01*
X124308333Y-89070000D02*
X124308333Y-89520000D01*
X124308333Y-89520000D02*
X120801667Y-89520000D01*
X120801667Y-89520000D02*
X120801667Y-89070000D01*
X120801667Y-89070000D02*
X117295001Y-89070000D01*
X132535001Y-89070000D02*
X132535000Y-129370000D01*
X132535000Y-129370000D02*
X143054999Y-129370000D01*
X143054999Y-129370000D02*
X143055000Y-89070000D01*
X143055000Y-89070000D02*
X139548333Y-89070000D01*
X139548333Y-89070000D02*
X139548333Y-89520000D01*
X139548333Y-89520000D02*
X136041667Y-89520000D01*
X136041667Y-89520000D02*
X136041667Y-89070000D01*
X136041667Y-89070000D02*
X132535001Y-89070000D01*
X60460000Y-77715000D02*
X60460000Y-78985000D01*
X75430000Y-77715000D02*
X75430000Y-78985000D01*
X75430000Y-130565000D02*
X75430000Y-129295000D01*
X60460000Y-130565000D02*
X60460000Y-129295000D01*
X60460000Y-77715000D02*
X75430000Y-77715000D01*
X60460000Y-130565000D02*
X75430000Y-130565000D01*
X60460000Y-78985000D02*
X59175000Y-78985000D01*
X70420000Y-56915000D02*
X70420000Y-57260000D01*
X78170000Y-56915000D02*
X78170000Y-57260000D01*
X78170000Y-75165000D02*
X78170000Y-74820000D01*
X70420000Y-75165000D02*
X70420000Y-74820000D01*
X70420000Y-56915000D02*
X78170000Y-56915000D01*
X70420000Y-75165000D02*
X78170000Y-75165000D01*
X70420000Y-57260000D02*
X68595000Y-57260000D01*
X64905000Y-57110000D02*
X65905000Y-57110000D01*
X65905000Y-58460000D02*
X64905000Y-58460000D01*
X145915000Y-88940000D02*
X144915000Y-88940000D01*
X144915000Y-87590000D02*
X145915000Y-87590000D01*
X120150000Y-57395000D02*
X120150000Y-58665000D01*
X127500000Y-57395000D02*
X127500000Y-58665000D01*
X127500000Y-84845000D02*
X127500000Y-83575000D01*
X120150000Y-84845000D02*
X120150000Y-83575000D01*
X120150000Y-57395000D02*
X127500000Y-57395000D01*
X120150000Y-84845000D02*
X127500000Y-84845000D01*
X120150000Y-58665000D02*
X118865000Y-58665000D01*
X132850000Y-57395000D02*
X132850000Y-58665000D01*
X140200000Y-57395000D02*
X140200000Y-58665000D01*
X140200000Y-84845000D02*
X140200000Y-83575000D01*
X132850000Y-84845000D02*
X132850000Y-83575000D01*
X132850000Y-57395000D02*
X140200000Y-57395000D01*
X132850000Y-84845000D02*
X140200000Y-84845000D01*
X132850000Y-58665000D02*
X131565000Y-58665000D01*
X107450000Y-57395000D02*
X107450000Y-58665000D01*
X114800000Y-57395000D02*
X114800000Y-58665000D01*
X114800000Y-84845000D02*
X114800000Y-83575000D01*
X107450000Y-84845000D02*
X107450000Y-83575000D01*
X107450000Y-57395000D02*
X114800000Y-57395000D01*
X107450000Y-84845000D02*
X114800000Y-84845000D01*
X107450000Y-58665000D02*
X106165000Y-58665000D01*
X73025000Y-44345000D02*
X131445000Y-44345000D01*
X73565000Y-44895000D02*
X130885000Y-44895000D01*
X73025000Y-53445000D02*
X131445000Y-53445000D01*
X73565000Y-52895000D02*
X99985000Y-52895000D01*
X104485000Y-52895000D02*
X130885000Y-52895000D01*
X99985000Y-52895000D02*
X99985000Y-53445000D01*
X104485000Y-52895000D02*
X104485000Y-53445000D01*
X73025000Y-44345000D02*
X73025000Y-53445000D01*
X73565000Y-44895000D02*
X73565000Y-52895000D01*
X131445000Y-44345000D02*
X131445000Y-53445000D01*
X130885000Y-44895000D02*
X130885000Y-52895000D01*
X73025000Y-44345000D02*
X73565000Y-44895000D01*
X131445000Y-44345000D02*
X130885000Y-44895000D01*
X73025000Y-53445000D02*
X73565000Y-52895000D01*
X131445000Y-53445000D02*
X130885000Y-52895000D01*
X131445000Y-144250000D02*
X73025000Y-144250000D01*
X130905000Y-143700000D02*
X73585000Y-143700000D01*
X131445000Y-135150000D02*
X73025000Y-135150000D01*
X130905000Y-135700000D02*
X104485000Y-135700000D01*
X99985000Y-135700000D02*
X73585000Y-135700000D01*
X104485000Y-135700000D02*
X104485000Y-135150000D01*
X99985000Y-135700000D02*
X99985000Y-135150000D01*
X131445000Y-144250000D02*
X131445000Y-135150000D01*
X130905000Y-143700000D02*
X130905000Y-135700000D01*
X73025000Y-144250000D02*
X73025000Y-135150000D01*
X73585000Y-143700000D02*
X73585000Y-135700000D01*
X131445000Y-144250000D02*
X130905000Y-143700000D01*
X73025000Y-144250000D02*
X73585000Y-143700000D01*
X131445000Y-135150000D02*
X130905000Y-135700000D01*
X73025000Y-135150000D02*
X73585000Y-135700000D01*
X60071000Y-49530000D02*
G75*
G03X60071000Y-49530000I-2286000J0D01*
G01*
X60071000Y-139065000D02*
G75*
G03X60071000Y-139065000I-2286000J0D01*
G01*
X149606000Y-139065000D02*
G75*
G03X149606000Y-139065000I-2286000J0D01*
G01*
X149606000Y-49530000D02*
G75*
G03X149606000Y-49530000I-2286000J0D01*
G01*
X150495000Y-83820000D02*
X150495000Y-58420000D01*
X145415000Y-60960000D02*
X145415000Y-83820000D01*
X150495000Y-83820000D02*
X145415000Y-83820000D01*
X150495000Y-58420000D02*
X147955000Y-58420000D01*
X146685000Y-58140000D02*
X145135000Y-58140000D01*
X147955000Y-58420000D02*
X147955000Y-60960000D01*
X147955000Y-60960000D02*
X145415000Y-60960000D01*
X145135000Y-58140000D02*
X145135000Y-59690000D01*
X141605000Y-46355000D02*
X136525000Y-46355000D01*
X141605000Y-50800000D02*
X136525000Y-50800000D01*
X136525000Y-44450000D02*
X141605000Y-44450000D01*
X136525000Y-44450000D02*
X136525000Y-50800000D01*
X141605000Y-44450000D02*
X141605000Y-50800000D01*
X127150953Y-86717143D02*
X127103334Y-86764762D01*
X126960477Y-86812381D01*
X126865239Y-86812381D01*
X126722381Y-86764762D01*
X126627143Y-86669524D01*
X126579524Y-86574286D01*
X126531905Y-86383810D01*
X126531905Y-86240952D01*
X126579524Y-86050476D01*
X126627143Y-85955238D01*
X126722381Y-85860000D01*
X126865239Y-85812381D01*
X126960477Y-85812381D01*
X127103334Y-85860000D01*
X127150953Y-85907619D01*
X128103334Y-86812381D02*
X127531905Y-86812381D01*
X127817619Y-86812381D02*
X127817619Y-85812381D01*
X127722381Y-85955238D01*
X127627143Y-86050476D01*
X127531905Y-86098095D01*
X128722381Y-85812381D02*
X128817620Y-85812381D01*
X128912858Y-85860000D01*
X128960477Y-85907619D01*
X129008096Y-86002857D01*
X129055715Y-86193333D01*
X129055715Y-86431429D01*
X129008096Y-86621905D01*
X128960477Y-86717143D01*
X128912858Y-86764762D01*
X128817620Y-86812381D01*
X128722381Y-86812381D01*
X128627143Y-86764762D01*
X128579524Y-86717143D01*
X128531905Y-86621905D01*
X128484286Y-86431429D01*
X128484286Y-86193333D01*
X128531905Y-86002857D01*
X128579524Y-85907619D01*
X128627143Y-85860000D01*
X128722381Y-85812381D01*
X129389048Y-85812381D02*
X130008096Y-85812381D01*
X129674762Y-86193333D01*
X129817620Y-86193333D01*
X129912858Y-86240952D01*
X129960477Y-86288571D01*
X130008096Y-86383810D01*
X130008096Y-86621905D01*
X129960477Y-86717143D01*
X129912858Y-86764762D01*
X129817620Y-86812381D01*
X129531905Y-86812381D01*
X129436667Y-86764762D01*
X129389048Y-86717143D01*
X141755953Y-85320143D02*
X141708334Y-85367762D01*
X141565477Y-85415381D01*
X141470239Y-85415381D01*
X141327381Y-85367762D01*
X141232143Y-85272524D01*
X141184524Y-85177286D01*
X141136905Y-84986810D01*
X141136905Y-84843952D01*
X141184524Y-84653476D01*
X141232143Y-84558238D01*
X141327381Y-84463000D01*
X141470239Y-84415381D01*
X141565477Y-84415381D01*
X141708334Y-84463000D01*
X141755953Y-84510619D01*
X142708334Y-85415381D02*
X142136905Y-85415381D01*
X142422619Y-85415381D02*
X142422619Y-84415381D01*
X142327381Y-84558238D01*
X142232143Y-84653476D01*
X142136905Y-84701095D01*
X143327381Y-84415381D02*
X143422620Y-84415381D01*
X143517858Y-84463000D01*
X143565477Y-84510619D01*
X143613096Y-84605857D01*
X143660715Y-84796333D01*
X143660715Y-85034429D01*
X143613096Y-85224905D01*
X143565477Y-85320143D01*
X143517858Y-85367762D01*
X143422620Y-85415381D01*
X143327381Y-85415381D01*
X143232143Y-85367762D01*
X143184524Y-85320143D01*
X143136905Y-85224905D01*
X143089286Y-85034429D01*
X143089286Y-84796333D01*
X143136905Y-84605857D01*
X143184524Y-84510619D01*
X143232143Y-84463000D01*
X143327381Y-84415381D01*
X144517858Y-84748714D02*
X144517858Y-85415381D01*
X144279762Y-84367762D02*
X144041667Y-85082048D01*
X144660715Y-85082048D01*
X86510953Y-58142143D02*
X86463334Y-58189762D01*
X86320477Y-58237381D01*
X86225239Y-58237381D01*
X86082381Y-58189762D01*
X85987143Y-58094524D01*
X85939524Y-57999286D01*
X85891905Y-57808810D01*
X85891905Y-57665952D01*
X85939524Y-57475476D01*
X85987143Y-57380238D01*
X86082381Y-57285000D01*
X86225239Y-57237381D01*
X86320477Y-57237381D01*
X86463334Y-57285000D01*
X86510953Y-57332619D01*
X87463334Y-58237381D02*
X86891905Y-58237381D01*
X87177619Y-58237381D02*
X87177619Y-57237381D01*
X87082381Y-57380238D01*
X86987143Y-57475476D01*
X86891905Y-57523095D01*
X88082381Y-57237381D02*
X88177620Y-57237381D01*
X88272858Y-57285000D01*
X88320477Y-57332619D01*
X88368096Y-57427857D01*
X88415715Y-57618333D01*
X88415715Y-57856429D01*
X88368096Y-58046905D01*
X88320477Y-58142143D01*
X88272858Y-58189762D01*
X88177620Y-58237381D01*
X88082381Y-58237381D01*
X87987143Y-58189762D01*
X87939524Y-58142143D01*
X87891905Y-58046905D01*
X87844286Y-57856429D01*
X87844286Y-57618333D01*
X87891905Y-57427857D01*
X87939524Y-57332619D01*
X87987143Y-57285000D01*
X88082381Y-57237381D01*
X89272858Y-57237381D02*
X89082381Y-57237381D01*
X88987143Y-57285000D01*
X88939524Y-57332619D01*
X88844286Y-57475476D01*
X88796667Y-57665952D01*
X88796667Y-58046905D01*
X88844286Y-58142143D01*
X88891905Y-58189762D01*
X88987143Y-58237381D01*
X89177620Y-58237381D01*
X89272858Y-58189762D01*
X89320477Y-58142143D01*
X89368096Y-58046905D01*
X89368096Y-57808810D01*
X89320477Y-57713571D01*
X89272858Y-57665952D01*
X89177620Y-57618333D01*
X88987143Y-57618333D01*
X88891905Y-57665952D01*
X88844286Y-57713571D01*
X88796667Y-57808810D01*
X87220714Y-88172857D02*
X87220714Y-86972857D01*
X88477858Y-88058571D02*
X88420715Y-88115714D01*
X88249286Y-88172857D01*
X88135000Y-88172857D01*
X87963572Y-88115714D01*
X87849286Y-88001429D01*
X87792143Y-87887143D01*
X87735000Y-87658571D01*
X87735000Y-87487143D01*
X87792143Y-87258571D01*
X87849286Y-87144286D01*
X87963572Y-87030000D01*
X88135000Y-86972857D01*
X88249286Y-86972857D01*
X88420715Y-87030000D01*
X88477858Y-87087143D01*
X89620715Y-88172857D02*
X88935000Y-88172857D01*
X89277858Y-88172857D02*
X89277858Y-86972857D01*
X89163572Y-87144286D01*
X89049286Y-87258571D01*
X88935000Y-87315714D01*
X90363572Y-86972857D02*
X90477857Y-86972857D01*
X90592143Y-87030000D01*
X90649286Y-87087143D01*
X90706429Y-87201429D01*
X90763572Y-87430000D01*
X90763572Y-87715714D01*
X90706429Y-87944286D01*
X90649286Y-88058571D01*
X90592143Y-88115714D01*
X90477857Y-88172857D01*
X90363572Y-88172857D01*
X90249286Y-88115714D01*
X90192143Y-88058571D01*
X90135000Y-87944286D01*
X90077857Y-87715714D01*
X90077857Y-87430000D01*
X90135000Y-87201429D01*
X90192143Y-87087143D01*
X90249286Y-87030000D01*
X90363572Y-86972857D01*
X91906429Y-88172857D02*
X91220714Y-88172857D01*
X91563572Y-88172857D02*
X91563572Y-86972857D01*
X91449286Y-87144286D01*
X91335000Y-87258571D01*
X91220714Y-87315714D01*
X102460714Y-88172857D02*
X102460714Y-86972857D01*
X103717858Y-88058571D02*
X103660715Y-88115714D01*
X103489286Y-88172857D01*
X103375000Y-88172857D01*
X103203572Y-88115714D01*
X103089286Y-88001429D01*
X103032143Y-87887143D01*
X102975000Y-87658571D01*
X102975000Y-87487143D01*
X103032143Y-87258571D01*
X103089286Y-87144286D01*
X103203572Y-87030000D01*
X103375000Y-86972857D01*
X103489286Y-86972857D01*
X103660715Y-87030000D01*
X103717858Y-87087143D01*
X104860715Y-88172857D02*
X104175000Y-88172857D01*
X104517858Y-88172857D02*
X104517858Y-86972857D01*
X104403572Y-87144286D01*
X104289286Y-87258571D01*
X104175000Y-87315714D01*
X105603572Y-86972857D02*
X105717857Y-86972857D01*
X105832143Y-87030000D01*
X105889286Y-87087143D01*
X105946429Y-87201429D01*
X106003572Y-87430000D01*
X106003572Y-87715714D01*
X105946429Y-87944286D01*
X105889286Y-88058571D01*
X105832143Y-88115714D01*
X105717857Y-88172857D01*
X105603572Y-88172857D01*
X105489286Y-88115714D01*
X105432143Y-88058571D01*
X105375000Y-87944286D01*
X105317857Y-87715714D01*
X105317857Y-87430000D01*
X105375000Y-87201429D01*
X105432143Y-87087143D01*
X105489286Y-87030000D01*
X105603572Y-86972857D01*
X106460714Y-87087143D02*
X106517857Y-87030000D01*
X106632143Y-86972857D01*
X106917857Y-86972857D01*
X107032143Y-87030000D01*
X107089286Y-87087143D01*
X107146429Y-87201429D01*
X107146429Y-87315714D01*
X107089286Y-87487143D01*
X106403572Y-88172857D01*
X107146429Y-88172857D01*
X117700714Y-88172857D02*
X117700714Y-86972857D01*
X118957858Y-88058571D02*
X118900715Y-88115714D01*
X118729286Y-88172857D01*
X118615000Y-88172857D01*
X118443572Y-88115714D01*
X118329286Y-88001429D01*
X118272143Y-87887143D01*
X118215000Y-87658571D01*
X118215000Y-87487143D01*
X118272143Y-87258571D01*
X118329286Y-87144286D01*
X118443572Y-87030000D01*
X118615000Y-86972857D01*
X118729286Y-86972857D01*
X118900715Y-87030000D01*
X118957858Y-87087143D01*
X120100715Y-88172857D02*
X119415000Y-88172857D01*
X119757858Y-88172857D02*
X119757858Y-86972857D01*
X119643572Y-87144286D01*
X119529286Y-87258571D01*
X119415000Y-87315714D01*
X120843572Y-86972857D02*
X120957857Y-86972857D01*
X121072143Y-87030000D01*
X121129286Y-87087143D01*
X121186429Y-87201429D01*
X121243572Y-87430000D01*
X121243572Y-87715714D01*
X121186429Y-87944286D01*
X121129286Y-88058571D01*
X121072143Y-88115714D01*
X120957857Y-88172857D01*
X120843572Y-88172857D01*
X120729286Y-88115714D01*
X120672143Y-88058571D01*
X120615000Y-87944286D01*
X120557857Y-87715714D01*
X120557857Y-87430000D01*
X120615000Y-87201429D01*
X120672143Y-87087143D01*
X120729286Y-87030000D01*
X120843572Y-86972857D01*
X121643572Y-86972857D02*
X122386429Y-86972857D01*
X121986429Y-87430000D01*
X122157857Y-87430000D01*
X122272143Y-87487143D01*
X122329286Y-87544286D01*
X122386429Y-87658571D01*
X122386429Y-87944286D01*
X122329286Y-88058571D01*
X122272143Y-88115714D01*
X122157857Y-88172857D01*
X121815000Y-88172857D01*
X121700714Y-88115714D01*
X121643572Y-88058571D01*
X132940714Y-88172857D02*
X132940714Y-86972857D01*
X134197858Y-88058571D02*
X134140715Y-88115714D01*
X133969286Y-88172857D01*
X133855000Y-88172857D01*
X133683572Y-88115714D01*
X133569286Y-88001429D01*
X133512143Y-87887143D01*
X133455000Y-87658571D01*
X133455000Y-87487143D01*
X133512143Y-87258571D01*
X133569286Y-87144286D01*
X133683572Y-87030000D01*
X133855000Y-86972857D01*
X133969286Y-86972857D01*
X134140715Y-87030000D01*
X134197858Y-87087143D01*
X135340715Y-88172857D02*
X134655000Y-88172857D01*
X134997858Y-88172857D02*
X134997858Y-86972857D01*
X134883572Y-87144286D01*
X134769286Y-87258571D01*
X134655000Y-87315714D01*
X136083572Y-86972857D02*
X136197857Y-86972857D01*
X136312143Y-87030000D01*
X136369286Y-87087143D01*
X136426429Y-87201429D01*
X136483572Y-87430000D01*
X136483572Y-87715714D01*
X136426429Y-87944286D01*
X136369286Y-88058571D01*
X136312143Y-88115714D01*
X136197857Y-88172857D01*
X136083572Y-88172857D01*
X135969286Y-88115714D01*
X135912143Y-88058571D01*
X135855000Y-87944286D01*
X135797857Y-87715714D01*
X135797857Y-87430000D01*
X135855000Y-87201429D01*
X135912143Y-87087143D01*
X135969286Y-87030000D01*
X136083572Y-86972857D01*
X137512143Y-87372857D02*
X137512143Y-88172857D01*
X137226429Y-86915714D02*
X136940714Y-87772857D01*
X137683572Y-87772857D01*
X66651429Y-77287381D02*
X66651429Y-76287381D01*
X67699048Y-77192143D02*
X67651429Y-77239762D01*
X67508572Y-77287381D01*
X67413334Y-77287381D01*
X67270476Y-77239762D01*
X67175238Y-77144524D01*
X67127619Y-77049286D01*
X67080000Y-76858810D01*
X67080000Y-76715952D01*
X67127619Y-76525476D01*
X67175238Y-76430238D01*
X67270476Y-76335000D01*
X67413334Y-76287381D01*
X67508572Y-76287381D01*
X67651429Y-76335000D01*
X67699048Y-76382619D01*
X68651429Y-77287381D02*
X68080000Y-77287381D01*
X68365714Y-77287381D02*
X68365714Y-76287381D01*
X68270476Y-76430238D01*
X68175238Y-76525476D01*
X68080000Y-76573095D01*
X69270476Y-76287381D02*
X69365715Y-76287381D01*
X69460953Y-76335000D01*
X69508572Y-76382619D01*
X69556191Y-76477857D01*
X69603810Y-76668333D01*
X69603810Y-76906429D01*
X69556191Y-77096905D01*
X69508572Y-77192143D01*
X69460953Y-77239762D01*
X69365715Y-77287381D01*
X69270476Y-77287381D01*
X69175238Y-77239762D01*
X69127619Y-77192143D01*
X69080000Y-77096905D01*
X69032381Y-76906429D01*
X69032381Y-76668333D01*
X69080000Y-76477857D01*
X69127619Y-76382619D01*
X69175238Y-76335000D01*
X69270476Y-76287381D01*
X70508572Y-76287381D02*
X70032381Y-76287381D01*
X69984762Y-76763571D01*
X70032381Y-76715952D01*
X70127619Y-76668333D01*
X70365715Y-76668333D01*
X70460953Y-76715952D01*
X70508572Y-76763571D01*
X70556191Y-76858810D01*
X70556191Y-77096905D01*
X70508572Y-77192143D01*
X70460953Y-77239762D01*
X70365715Y-77287381D01*
X70127619Y-77287381D01*
X70032381Y-77239762D01*
X69984762Y-77192143D01*
X72366429Y-56442381D02*
X72366429Y-55442381D01*
X73414048Y-56347143D02*
X73366429Y-56394762D01*
X73223572Y-56442381D01*
X73128334Y-56442381D01*
X72985476Y-56394762D01*
X72890238Y-56299524D01*
X72842619Y-56204286D01*
X72795000Y-56013810D01*
X72795000Y-55870952D01*
X72842619Y-55680476D01*
X72890238Y-55585238D01*
X72985476Y-55490000D01*
X73128334Y-55442381D01*
X73223572Y-55442381D01*
X73366429Y-55490000D01*
X73414048Y-55537619D01*
X74366429Y-56442381D02*
X73795000Y-56442381D01*
X74080714Y-56442381D02*
X74080714Y-55442381D01*
X73985476Y-55585238D01*
X73890238Y-55680476D01*
X73795000Y-55728095D01*
X74985476Y-55442381D02*
X75080715Y-55442381D01*
X75175953Y-55490000D01*
X75223572Y-55537619D01*
X75271191Y-55632857D01*
X75318810Y-55823333D01*
X75318810Y-56061429D01*
X75271191Y-56251905D01*
X75223572Y-56347143D01*
X75175953Y-56394762D01*
X75080715Y-56442381D01*
X74985476Y-56442381D01*
X74890238Y-56394762D01*
X74842619Y-56347143D01*
X74795000Y-56251905D01*
X74747381Y-56061429D01*
X74747381Y-55823333D01*
X74795000Y-55632857D01*
X74842619Y-55537619D01*
X74890238Y-55490000D01*
X74985476Y-55442381D01*
X76175953Y-55442381D02*
X75985476Y-55442381D01*
X75890238Y-55490000D01*
X75842619Y-55537619D01*
X75747381Y-55680476D01*
X75699762Y-55870952D01*
X75699762Y-56251905D01*
X75747381Y-56347143D01*
X75795000Y-56394762D01*
X75890238Y-56442381D01*
X76080715Y-56442381D01*
X76175953Y-56394762D01*
X76223572Y-56347143D01*
X76271191Y-56251905D01*
X76271191Y-56013810D01*
X76223572Y-55918571D01*
X76175953Y-55870952D01*
X76080715Y-55823333D01*
X75890238Y-55823333D01*
X75795000Y-55870952D01*
X75747381Y-55918571D01*
X75699762Y-56013810D01*
X59840953Y-58237381D02*
X59507619Y-57761190D01*
X59269524Y-58237381D02*
X59269524Y-57237381D01*
X59650477Y-57237381D01*
X59745715Y-57285000D01*
X59793334Y-57332619D01*
X59840953Y-57427857D01*
X59840953Y-57570714D01*
X59793334Y-57665952D01*
X59745715Y-57713571D01*
X59650477Y-57761190D01*
X59269524Y-57761190D01*
X60793334Y-58237381D02*
X60221905Y-58237381D01*
X60507619Y-58237381D02*
X60507619Y-57237381D01*
X60412381Y-57380238D01*
X60317143Y-57475476D01*
X60221905Y-57523095D01*
X61412381Y-57237381D02*
X61507620Y-57237381D01*
X61602858Y-57285000D01*
X61650477Y-57332619D01*
X61698096Y-57427857D01*
X61745715Y-57618333D01*
X61745715Y-57856429D01*
X61698096Y-58046905D01*
X61650477Y-58142143D01*
X61602858Y-58189762D01*
X61507620Y-58237381D01*
X61412381Y-58237381D01*
X61317143Y-58189762D01*
X61269524Y-58142143D01*
X61221905Y-58046905D01*
X61174286Y-57856429D01*
X61174286Y-57618333D01*
X61221905Y-57427857D01*
X61269524Y-57332619D01*
X61317143Y-57285000D01*
X61412381Y-57237381D01*
X62221905Y-58237381D02*
X62412381Y-58237381D01*
X62507620Y-58189762D01*
X62555239Y-58142143D01*
X62650477Y-57999286D01*
X62698096Y-57808810D01*
X62698096Y-57427857D01*
X62650477Y-57332619D01*
X62602858Y-57285000D01*
X62507620Y-57237381D01*
X62317143Y-57237381D01*
X62221905Y-57285000D01*
X62174286Y-57332619D01*
X62126667Y-57427857D01*
X62126667Y-57665952D01*
X62174286Y-57761190D01*
X62221905Y-57808810D01*
X62317143Y-57856429D01*
X62507620Y-57856429D01*
X62602858Y-57808810D01*
X62650477Y-57761190D01*
X62698096Y-57665952D01*
X144422953Y-90241381D02*
X144089619Y-89765190D01*
X143851524Y-90241381D02*
X143851524Y-89241381D01*
X144232477Y-89241381D01*
X144327715Y-89289000D01*
X144375334Y-89336619D01*
X144422953Y-89431857D01*
X144422953Y-89574714D01*
X144375334Y-89669952D01*
X144327715Y-89717571D01*
X144232477Y-89765190D01*
X143851524Y-89765190D01*
X145375334Y-90241381D02*
X144803905Y-90241381D01*
X145089619Y-90241381D02*
X145089619Y-89241381D01*
X144994381Y-89384238D01*
X144899143Y-89479476D01*
X144803905Y-89527095D01*
X146327715Y-90241381D02*
X145756286Y-90241381D01*
X146042000Y-90241381D02*
X146042000Y-89241381D01*
X145946762Y-89384238D01*
X145851524Y-89479476D01*
X145756286Y-89527095D01*
X147184858Y-89574714D02*
X147184858Y-90241381D01*
X146946762Y-89193762D02*
X146708667Y-89908048D01*
X147327715Y-89908048D01*
X118935714Y-55967381D02*
X118935714Y-56776905D01*
X118983333Y-56872143D01*
X119030952Y-56919762D01*
X119126190Y-56967381D01*
X119316667Y-56967381D01*
X119411905Y-56919762D01*
X119459524Y-56872143D01*
X119507143Y-56776905D01*
X119507143Y-55967381D01*
X120507143Y-56967381D02*
X119935714Y-56967381D01*
X120221428Y-56967381D02*
X120221428Y-55967381D01*
X120126190Y-56110238D01*
X120030952Y-56205476D01*
X119935714Y-56253095D01*
X121126190Y-55967381D02*
X121221429Y-55967381D01*
X121316667Y-56015000D01*
X121364286Y-56062619D01*
X121411905Y-56157857D01*
X121459524Y-56348333D01*
X121459524Y-56586429D01*
X121411905Y-56776905D01*
X121364286Y-56872143D01*
X121316667Y-56919762D01*
X121221429Y-56967381D01*
X121126190Y-56967381D01*
X121030952Y-56919762D01*
X120983333Y-56872143D01*
X120935714Y-56776905D01*
X120888095Y-56586429D01*
X120888095Y-56348333D01*
X120935714Y-56157857D01*
X120983333Y-56062619D01*
X121030952Y-56015000D01*
X121126190Y-55967381D01*
X122411905Y-56967381D02*
X121840476Y-56967381D01*
X122126190Y-56967381D02*
X122126190Y-55967381D01*
X122030952Y-56110238D01*
X121935714Y-56205476D01*
X121840476Y-56253095D01*
X131635714Y-55967381D02*
X131635714Y-56776905D01*
X131683333Y-56872143D01*
X131730952Y-56919762D01*
X131826190Y-56967381D01*
X132016667Y-56967381D01*
X132111905Y-56919762D01*
X132159524Y-56872143D01*
X132207143Y-56776905D01*
X132207143Y-55967381D01*
X133207143Y-56967381D02*
X132635714Y-56967381D01*
X132921428Y-56967381D02*
X132921428Y-55967381D01*
X132826190Y-56110238D01*
X132730952Y-56205476D01*
X132635714Y-56253095D01*
X133826190Y-55967381D02*
X133921429Y-55967381D01*
X134016667Y-56015000D01*
X134064286Y-56062619D01*
X134111905Y-56157857D01*
X134159524Y-56348333D01*
X134159524Y-56586429D01*
X134111905Y-56776905D01*
X134064286Y-56872143D01*
X134016667Y-56919762D01*
X133921429Y-56967381D01*
X133826190Y-56967381D01*
X133730952Y-56919762D01*
X133683333Y-56872143D01*
X133635714Y-56776905D01*
X133588095Y-56586429D01*
X133588095Y-56348333D01*
X133635714Y-56157857D01*
X133683333Y-56062619D01*
X133730952Y-56015000D01*
X133826190Y-55967381D01*
X134540476Y-56062619D02*
X134588095Y-56015000D01*
X134683333Y-55967381D01*
X134921429Y-55967381D01*
X135016667Y-56015000D01*
X135064286Y-56062619D01*
X135111905Y-56157857D01*
X135111905Y-56253095D01*
X135064286Y-56395952D01*
X134492857Y-56967381D01*
X135111905Y-56967381D01*
X106235714Y-55967381D02*
X106235714Y-56776905D01*
X106283333Y-56872143D01*
X106330952Y-56919762D01*
X106426190Y-56967381D01*
X106616667Y-56967381D01*
X106711905Y-56919762D01*
X106759524Y-56872143D01*
X106807143Y-56776905D01*
X106807143Y-55967381D01*
X107807143Y-56967381D02*
X107235714Y-56967381D01*
X107521428Y-56967381D02*
X107521428Y-55967381D01*
X107426190Y-56110238D01*
X107330952Y-56205476D01*
X107235714Y-56253095D01*
X108426190Y-55967381D02*
X108521429Y-55967381D01*
X108616667Y-56015000D01*
X108664286Y-56062619D01*
X108711905Y-56157857D01*
X108759524Y-56348333D01*
X108759524Y-56586429D01*
X108711905Y-56776905D01*
X108664286Y-56872143D01*
X108616667Y-56919762D01*
X108521429Y-56967381D01*
X108426190Y-56967381D01*
X108330952Y-56919762D01*
X108283333Y-56872143D01*
X108235714Y-56776905D01*
X108188095Y-56586429D01*
X108188095Y-56348333D01*
X108235714Y-56157857D01*
X108283333Y-56062619D01*
X108330952Y-56015000D01*
X108426190Y-55967381D01*
X109092857Y-55967381D02*
X109711905Y-55967381D01*
X109378571Y-56348333D01*
X109521429Y-56348333D01*
X109616667Y-56395952D01*
X109664286Y-56443571D01*
X109711905Y-56538810D01*
X109711905Y-56776905D01*
X109664286Y-56872143D01*
X109616667Y-56919762D01*
X109521429Y-56967381D01*
X109235714Y-56967381D01*
X109140476Y-56919762D01*
X109092857Y-56872143D01*
X66500714Y-50617381D02*
X66500714Y-49617381D01*
X66500714Y-50093571D02*
X67072143Y-50093571D01*
X67072143Y-50617381D02*
X67072143Y-49617381D01*
X67548333Y-50617381D02*
X67548333Y-49617381D01*
X67786428Y-49617381D01*
X67929286Y-49665000D01*
X68024524Y-49760238D01*
X68072143Y-49855476D01*
X68119762Y-50045952D01*
X68119762Y-50188810D01*
X68072143Y-50379286D01*
X68024524Y-50474524D01*
X67929286Y-50569762D01*
X67786428Y-50617381D01*
X67548333Y-50617381D01*
X69119762Y-50617381D02*
X68786428Y-50141190D01*
X68548333Y-50617381D02*
X68548333Y-49617381D01*
X68929286Y-49617381D01*
X69024524Y-49665000D01*
X69072143Y-49712619D01*
X69119762Y-49807857D01*
X69119762Y-49950714D01*
X69072143Y-50045952D01*
X69024524Y-50093571D01*
X68929286Y-50141190D01*
X68548333Y-50141190D01*
X70072143Y-50617381D02*
X69500714Y-50617381D01*
X69786428Y-50617381D02*
X69786428Y-49617381D01*
X69691190Y-49760238D01*
X69595952Y-49855476D01*
X69500714Y-49903095D01*
X70691190Y-49617381D02*
X70786429Y-49617381D01*
X70881667Y-49665000D01*
X70929286Y-49712619D01*
X70976905Y-49807857D01*
X71024524Y-49998333D01*
X71024524Y-50236429D01*
X70976905Y-50426905D01*
X70929286Y-50522143D01*
X70881667Y-50569762D01*
X70786429Y-50617381D01*
X70691190Y-50617381D01*
X70595952Y-50569762D01*
X70548333Y-50522143D01*
X70500714Y-50426905D01*
X70453095Y-50236429D01*
X70453095Y-49998333D01*
X70500714Y-49807857D01*
X70548333Y-49712619D01*
X70595952Y-49665000D01*
X70691190Y-49617381D01*
X71976905Y-50617381D02*
X71405476Y-50617381D01*
X71691190Y-50617381D02*
X71691190Y-49617381D01*
X71595952Y-49760238D01*
X71500714Y-49855476D01*
X71405476Y-49903095D01*
X64445001Y-47553571D02*
X64587858Y-47601190D01*
X64635477Y-47648810D01*
X64683096Y-47744048D01*
X64683096Y-47886905D01*
X64635477Y-47982143D01*
X64587858Y-48029762D01*
X64492620Y-48077381D01*
X64111667Y-48077381D01*
X64111667Y-47077381D01*
X64445001Y-47077381D01*
X64540239Y-47125000D01*
X64587858Y-47172619D01*
X64635477Y-47267857D01*
X64635477Y-47363095D01*
X64587858Y-47458333D01*
X64540239Y-47505952D01*
X64445001Y-47553571D01*
X64111667Y-47553571D01*
X65111667Y-47077381D02*
X65111667Y-47886905D01*
X65159286Y-47982143D01*
X65206905Y-48029762D01*
X65302143Y-48077381D01*
X65492620Y-48077381D01*
X65587858Y-48029762D01*
X65635477Y-47982143D01*
X65683096Y-47886905D01*
X65683096Y-47077381D01*
X66111667Y-48029762D02*
X66254524Y-48077381D01*
X66492620Y-48077381D01*
X66587858Y-48029762D01*
X66635477Y-47982143D01*
X66683096Y-47886905D01*
X66683096Y-47791667D01*
X66635477Y-47696429D01*
X66587858Y-47648810D01*
X66492620Y-47601190D01*
X66302143Y-47553571D01*
X66206905Y-47505952D01*
X66159286Y-47458333D01*
X66111667Y-47363095D01*
X66111667Y-47267857D01*
X66159286Y-47172619D01*
X66206905Y-47125000D01*
X66302143Y-47077381D01*
X66540239Y-47077381D01*
X66683096Y-47125000D01*
X67111667Y-48077381D02*
X67111667Y-47077381D01*
X67111667Y-47553571D02*
X67683096Y-47553571D01*
X67683096Y-48077381D02*
X67683096Y-47077381D01*
X68159286Y-48077381D02*
X68159286Y-47077381D01*
X68397381Y-47077381D01*
X68540239Y-47125000D01*
X68635477Y-47220238D01*
X68683096Y-47315476D01*
X68730715Y-47505952D01*
X68730715Y-47648810D01*
X68683096Y-47839286D01*
X68635477Y-47934524D01*
X68540239Y-48029762D01*
X68397381Y-48077381D01*
X68159286Y-48077381D01*
X69730715Y-48077381D02*
X69397381Y-47601190D01*
X69159286Y-48077381D02*
X69159286Y-47077381D01*
X69540239Y-47077381D01*
X69635477Y-47125000D01*
X69683096Y-47172619D01*
X69730715Y-47267857D01*
X69730715Y-47410714D01*
X69683096Y-47505952D01*
X69635477Y-47553571D01*
X69540239Y-47601190D01*
X69159286Y-47601190D01*
X70159286Y-47696429D02*
X70921191Y-47696429D01*
X71349762Y-47791667D02*
X71825953Y-47791667D01*
X71254524Y-48077381D02*
X71587857Y-47077381D01*
X71921191Y-48077381D01*
X132540714Y-138247381D02*
X132540714Y-137247381D01*
X132540714Y-137723571D02*
X133112143Y-137723571D01*
X133112143Y-138247381D02*
X133112143Y-137247381D01*
X133588333Y-138247381D02*
X133588333Y-137247381D01*
X133826428Y-137247381D01*
X133969286Y-137295000D01*
X134064524Y-137390238D01*
X134112143Y-137485476D01*
X134159762Y-137675952D01*
X134159762Y-137818810D01*
X134112143Y-138009286D01*
X134064524Y-138104524D01*
X133969286Y-138199762D01*
X133826428Y-138247381D01*
X133588333Y-138247381D01*
X135159762Y-138247381D02*
X134826428Y-137771190D01*
X134588333Y-138247381D02*
X134588333Y-137247381D01*
X134969286Y-137247381D01*
X135064524Y-137295000D01*
X135112143Y-137342619D01*
X135159762Y-137437857D01*
X135159762Y-137580714D01*
X135112143Y-137675952D01*
X135064524Y-137723571D01*
X134969286Y-137771190D01*
X134588333Y-137771190D01*
X136112143Y-138247381D02*
X135540714Y-138247381D01*
X135826428Y-138247381D02*
X135826428Y-137247381D01*
X135731190Y-137390238D01*
X135635952Y-137485476D01*
X135540714Y-137533095D01*
X136731190Y-137247381D02*
X136826429Y-137247381D01*
X136921667Y-137295000D01*
X136969286Y-137342619D01*
X137016905Y-137437857D01*
X137064524Y-137628333D01*
X137064524Y-137866429D01*
X137016905Y-138056905D01*
X136969286Y-138152143D01*
X136921667Y-138199762D01*
X136826429Y-138247381D01*
X136731190Y-138247381D01*
X136635952Y-138199762D01*
X136588333Y-138152143D01*
X136540714Y-138056905D01*
X136493095Y-137866429D01*
X136493095Y-137628333D01*
X136540714Y-137437857D01*
X136588333Y-137342619D01*
X136635952Y-137295000D01*
X136731190Y-137247381D01*
X137445476Y-137342619D02*
X137493095Y-137295000D01*
X137588333Y-137247381D01*
X137826429Y-137247381D01*
X137921667Y-137295000D01*
X137969286Y-137342619D01*
X138016905Y-137437857D01*
X138016905Y-137533095D01*
X137969286Y-137675952D01*
X137397857Y-138247381D01*
X138016905Y-138247381D01*
X132953572Y-140263571D02*
X133096429Y-140311190D01*
X133144048Y-140358810D01*
X133191667Y-140454048D01*
X133191667Y-140596905D01*
X133144048Y-140692143D01*
X133096429Y-140739762D01*
X133001191Y-140787381D01*
X132620238Y-140787381D01*
X132620238Y-139787381D01*
X132953572Y-139787381D01*
X133048810Y-139835000D01*
X133096429Y-139882619D01*
X133144048Y-139977857D01*
X133144048Y-140073095D01*
X133096429Y-140168333D01*
X133048810Y-140215952D01*
X132953572Y-140263571D01*
X132620238Y-140263571D01*
X133620238Y-139787381D02*
X133620238Y-140596905D01*
X133667857Y-140692143D01*
X133715476Y-140739762D01*
X133810714Y-140787381D01*
X134001191Y-140787381D01*
X134096429Y-140739762D01*
X134144048Y-140692143D01*
X134191667Y-140596905D01*
X134191667Y-139787381D01*
X134620238Y-140739762D02*
X134763095Y-140787381D01*
X135001191Y-140787381D01*
X135096429Y-140739762D01*
X135144048Y-140692143D01*
X135191667Y-140596905D01*
X135191667Y-140501667D01*
X135144048Y-140406429D01*
X135096429Y-140358810D01*
X135001191Y-140311190D01*
X134810714Y-140263571D01*
X134715476Y-140215952D01*
X134667857Y-140168333D01*
X134620238Y-140073095D01*
X134620238Y-139977857D01*
X134667857Y-139882619D01*
X134715476Y-139835000D01*
X134810714Y-139787381D01*
X135048810Y-139787381D01*
X135191667Y-139835000D01*
X135620238Y-140787381D02*
X135620238Y-139787381D01*
X135620238Y-140263571D02*
X136191667Y-140263571D01*
X136191667Y-140787381D02*
X136191667Y-139787381D01*
X136667857Y-140787381D02*
X136667857Y-139787381D01*
X136905952Y-139787381D01*
X137048810Y-139835000D01*
X137144048Y-139930238D01*
X137191667Y-140025476D01*
X137239286Y-140215952D01*
X137239286Y-140358810D01*
X137191667Y-140549286D01*
X137144048Y-140644524D01*
X137048810Y-140739762D01*
X136905952Y-140787381D01*
X136667857Y-140787381D01*
X138239286Y-140787381D02*
X137905952Y-140311190D01*
X137667857Y-140787381D02*
X137667857Y-139787381D01*
X138048810Y-139787381D01*
X138144048Y-139835000D01*
X138191667Y-139882619D01*
X138239286Y-139977857D01*
X138239286Y-140120714D01*
X138191667Y-140215952D01*
X138144048Y-140263571D01*
X138048810Y-140311190D01*
X137667857Y-140311190D01*
X138667857Y-140406429D02*
X139429762Y-140406429D01*
X140239286Y-140263571D02*
X140382143Y-140311190D01*
X140429762Y-140358810D01*
X140477381Y-140454048D01*
X140477381Y-140596905D01*
X140429762Y-140692143D01*
X140382143Y-140739762D01*
X140286905Y-140787381D01*
X139905952Y-140787381D01*
X139905952Y-139787381D01*
X140239286Y-139787381D01*
X140334524Y-139835000D01*
X140382143Y-139882619D01*
X140429762Y-139977857D01*
X140429762Y-140073095D01*
X140382143Y-140168333D01*
X140334524Y-140215952D01*
X140239286Y-140263571D01*
X139905952Y-140263571D01*
X147137381Y-57570476D02*
X146137381Y-57570476D01*
X146137381Y-57189523D01*
X146185000Y-57094285D01*
X146232619Y-57046666D01*
X146327857Y-56999047D01*
X146470714Y-56999047D01*
X146565952Y-57046666D01*
X146613571Y-57094285D01*
X146661190Y-57189523D01*
X146661190Y-57570476D01*
X147137381Y-56046666D02*
X147137381Y-56618095D01*
X147137381Y-56332381D02*
X146137381Y-56332381D01*
X146280238Y-56427619D01*
X146375476Y-56522857D01*
X146423095Y-56618095D01*
X146137381Y-55427619D02*
X146137381Y-55332380D01*
X146185000Y-55237142D01*
X146232619Y-55189523D01*
X146327857Y-55141904D01*
X146518333Y-55094285D01*
X146756429Y-55094285D01*
X146946905Y-55141904D01*
X147042143Y-55189523D01*
X147089762Y-55237142D01*
X147137381Y-55332380D01*
X147137381Y-55427619D01*
X147089762Y-55522857D01*
X147042143Y-55570476D01*
X146946905Y-55618095D01*
X146756429Y-55665714D01*
X146518333Y-55665714D01*
X146327857Y-55618095D01*
X146232619Y-55570476D01*
X146185000Y-55522857D01*
X146137381Y-55427619D01*
X147137381Y-54141904D02*
X147137381Y-54713333D01*
X147137381Y-54427619D02*
X146137381Y-54427619D01*
X146280238Y-54522857D01*
X146375476Y-54618095D01*
X146423095Y-54713333D01*
X151582381Y-57713096D02*
X150582381Y-57713096D01*
X150582381Y-57475001D01*
X150630000Y-57332143D01*
X150725238Y-57236905D01*
X150820476Y-57189286D01*
X151010952Y-57141667D01*
X151153810Y-57141667D01*
X151344286Y-57189286D01*
X151439524Y-57236905D01*
X151534762Y-57332143D01*
X151582381Y-57475001D01*
X151582381Y-57713096D01*
X151534762Y-56332143D02*
X151582381Y-56427381D01*
X151582381Y-56617858D01*
X151534762Y-56713096D01*
X151439524Y-56760715D01*
X151058571Y-56760715D01*
X150963333Y-56713096D01*
X150915714Y-56617858D01*
X150915714Y-56427381D01*
X150963333Y-56332143D01*
X151058571Y-56284524D01*
X151153810Y-56284524D01*
X151249048Y-56760715D01*
X151534762Y-55427381D02*
X151582381Y-55522619D01*
X151582381Y-55713096D01*
X151534762Y-55808334D01*
X151487143Y-55855953D01*
X151391905Y-55903572D01*
X151106190Y-55903572D01*
X151010952Y-55855953D01*
X150963333Y-55808334D01*
X150915714Y-55713096D01*
X150915714Y-55522619D01*
X150963333Y-55427381D01*
X151582381Y-54855953D02*
X151534762Y-54951191D01*
X151487143Y-54998810D01*
X151391905Y-55046429D01*
X151106190Y-55046429D01*
X151010952Y-54998810D01*
X150963333Y-54951191D01*
X150915714Y-54855953D01*
X150915714Y-54713095D01*
X150963333Y-54617857D01*
X151010952Y-54570238D01*
X151106190Y-54522619D01*
X151391905Y-54522619D01*
X151487143Y-54570238D01*
X151534762Y-54617857D01*
X151582381Y-54713095D01*
X151582381Y-54855953D01*
X151582381Y-53665476D02*
X150582381Y-53665476D01*
X151534762Y-53665476D02*
X151582381Y-53760714D01*
X151582381Y-53951191D01*
X151534762Y-54046429D01*
X151487143Y-54094048D01*
X151391905Y-54141667D01*
X151106190Y-54141667D01*
X151010952Y-54094048D01*
X150963333Y-54046429D01*
X150915714Y-53951191D01*
X150915714Y-53760714D01*
X150963333Y-53665476D01*
X151534762Y-52808333D02*
X151582381Y-52903571D01*
X151582381Y-53094048D01*
X151534762Y-53189286D01*
X151439524Y-53236905D01*
X151058571Y-53236905D01*
X150963333Y-53189286D01*
X150915714Y-53094048D01*
X150915714Y-52903571D01*
X150963333Y-52808333D01*
X151058571Y-52760714D01*
X151153810Y-52760714D01*
X151249048Y-53236905D01*
X151582381Y-52332143D02*
X150582381Y-52332143D01*
X151058571Y-52332143D02*
X151058571Y-51760714D01*
X151582381Y-51760714D02*
X150582381Y-51760714D01*
X151582381Y-50855952D02*
X150582381Y-50855952D01*
X151534762Y-50855952D02*
X151582381Y-50951190D01*
X151582381Y-51141667D01*
X151534762Y-51236905D01*
X151487143Y-51284524D01*
X151391905Y-51332143D01*
X151106190Y-51332143D01*
X151010952Y-51284524D01*
X150963333Y-51236905D01*
X150915714Y-51141667D01*
X150915714Y-50951190D01*
X150963333Y-50855952D01*
X151582381Y-50379762D02*
X150915714Y-50379762D01*
X151106190Y-50379762D02*
X151010952Y-50332143D01*
X150963333Y-50284524D01*
X150915714Y-50189286D01*
X150915714Y-50094047D01*
X138771524Y-52395381D02*
X138771524Y-51395381D01*
X139152477Y-51395381D01*
X139247715Y-51443000D01*
X139295334Y-51490619D01*
X139342953Y-51585857D01*
X139342953Y-51728714D01*
X139295334Y-51823952D01*
X139247715Y-51871571D01*
X139152477Y-51919190D01*
X138771524Y-51919190D01*
X140295334Y-52395381D02*
X139723905Y-52395381D01*
X140009619Y-52395381D02*
X140009619Y-51395381D01*
X139914381Y-51538238D01*
X139819143Y-51633476D01*
X139723905Y-51681095D01*
X140914381Y-51395381D02*
X141009620Y-51395381D01*
X141104858Y-51443000D01*
X141152477Y-51490619D01*
X141200096Y-51585857D01*
X141247715Y-51776333D01*
X141247715Y-52014429D01*
X141200096Y-52204905D01*
X141152477Y-52300143D01*
X141104858Y-52347762D01*
X141009620Y-52395381D01*
X140914381Y-52395381D01*
X140819143Y-52347762D01*
X140771524Y-52300143D01*
X140723905Y-52204905D01*
X140676286Y-52014429D01*
X140676286Y-51776333D01*
X140723905Y-51585857D01*
X140771524Y-51490619D01*
X140819143Y-51443000D01*
X140914381Y-51395381D01*
X141628667Y-51490619D02*
X141676286Y-51443000D01*
X141771524Y-51395381D01*
X142009620Y-51395381D01*
X142104858Y-51443000D01*
X142152477Y-51490619D01*
X142200096Y-51585857D01*
X142200096Y-51681095D01*
X142152477Y-51823952D01*
X141581048Y-52395381D01*
X142200096Y-52395381D01*
M02*
