G04 #@! TF.FileFunction,Profile,NP*
%FSLAX46Y46*%
G04 Gerber Fmt 4.6, Leading zero omitted, Abs format (unit mm)*
G04 Created by KiCad (PCBNEW 4.0.2-stable) date 27-3-2016 11:05:44*
%MOMM*%
G01*
G04 APERTURE LIST*
%ADD10C,0.150000*%
%ADD11C,0.100000*%
%ADD12C,0.300000*%
G04 APERTURE END LIST*
D10*
D11*
X152400000Y-144145000D02*
X52705000Y-144145000D01*
X152400000Y-44450000D02*
X152400000Y-144145000D01*
X52705000Y-44450000D02*
X152400000Y-44450000D01*
X52705000Y-144145000D02*
X52705000Y-44450000D01*
D12*
X96481072Y-149983570D02*
X96766787Y-149983570D01*
X96909644Y-149912142D01*
X96981072Y-149840713D01*
X97123930Y-149626428D01*
X97195358Y-149340713D01*
X97195358Y-148769285D01*
X97123930Y-148626428D01*
X97052501Y-148554999D01*
X96909644Y-148483570D01*
X96623930Y-148483570D01*
X96481072Y-148554999D01*
X96409644Y-148626428D01*
X96338215Y-148769285D01*
X96338215Y-149126428D01*
X96409644Y-149269285D01*
X96481072Y-149340713D01*
X96623930Y-149412142D01*
X96909644Y-149412142D01*
X97052501Y-149340713D01*
X97123930Y-149269285D01*
X97195358Y-149126428D01*
X97909643Y-149983570D02*
X98195358Y-149983570D01*
X98338215Y-149912142D01*
X98409643Y-149840713D01*
X98552501Y-149626428D01*
X98623929Y-149340713D01*
X98623929Y-148769285D01*
X98552501Y-148626428D01*
X98481072Y-148554999D01*
X98338215Y-148483570D01*
X98052501Y-148483570D01*
X97909643Y-148554999D01*
X97838215Y-148626428D01*
X97766786Y-148769285D01*
X97766786Y-149126428D01*
X97838215Y-149269285D01*
X97909643Y-149340713D01*
X98052501Y-149412142D01*
X98338215Y-149412142D01*
X98481072Y-149340713D01*
X98552501Y-149269285D01*
X98623929Y-149126428D01*
X99338214Y-149912142D02*
X99338214Y-149983570D01*
X99266786Y-150126428D01*
X99195357Y-150197856D01*
X100623929Y-148483570D02*
X100338215Y-148483570D01*
X100195358Y-148554999D01*
X100123929Y-148626428D01*
X99981072Y-148840713D01*
X99909643Y-149126428D01*
X99909643Y-149697856D01*
X99981072Y-149840713D01*
X100052500Y-149912142D01*
X100195358Y-149983570D01*
X100481072Y-149983570D01*
X100623929Y-149912142D01*
X100695358Y-149840713D01*
X100766786Y-149697856D01*
X100766786Y-149340713D01*
X100695358Y-149197856D01*
X100623929Y-149126428D01*
X100481072Y-149054999D01*
X100195358Y-149054999D01*
X100052500Y-149126428D01*
X99981072Y-149197856D01*
X99909643Y-149340713D01*
X101481071Y-149983570D02*
X101766786Y-149983570D01*
X101909643Y-149912142D01*
X101981071Y-149840713D01*
X102123929Y-149626428D01*
X102195357Y-149340713D01*
X102195357Y-148769285D01*
X102123929Y-148626428D01*
X102052500Y-148554999D01*
X101909643Y-148483570D01*
X101623929Y-148483570D01*
X101481071Y-148554999D01*
X101409643Y-148626428D01*
X101338214Y-148769285D01*
X101338214Y-149126428D01*
X101409643Y-149269285D01*
X101481071Y-149340713D01*
X101623929Y-149412142D01*
X101909643Y-149412142D01*
X102052500Y-149340713D01*
X102123929Y-149269285D01*
X102195357Y-149126428D01*
X103552500Y-148483570D02*
X102838214Y-148483570D01*
X102766785Y-149197856D01*
X102838214Y-149126428D01*
X102981071Y-149054999D01*
X103338214Y-149054999D01*
X103481071Y-149126428D01*
X103552500Y-149197856D01*
X103623928Y-149340713D01*
X103623928Y-149697856D01*
X103552500Y-149840713D01*
X103481071Y-149912142D01*
X103338214Y-149983570D01*
X102981071Y-149983570D01*
X102838214Y-149912142D01*
X102766785Y-149840713D01*
X105409642Y-149983570D02*
X105409642Y-148983570D01*
X105409642Y-149126428D02*
X105481070Y-149054999D01*
X105623928Y-148983570D01*
X105838213Y-148983570D01*
X105981070Y-149054999D01*
X106052499Y-149197856D01*
X106052499Y-149983570D01*
X106052499Y-149197856D02*
X106123928Y-149054999D01*
X106266785Y-148983570D01*
X106481070Y-148983570D01*
X106623928Y-149054999D01*
X106695356Y-149197856D01*
X106695356Y-149983570D01*
X107409642Y-149983570D02*
X107409642Y-148983570D01*
X107409642Y-149126428D02*
X107481070Y-149054999D01*
X107623928Y-148983570D01*
X107838213Y-148983570D01*
X107981070Y-149054999D01*
X108052499Y-149197856D01*
X108052499Y-149983570D01*
X108052499Y-149197856D02*
X108123928Y-149054999D01*
X108266785Y-148983570D01*
X108481070Y-148983570D01*
X108623928Y-149054999D01*
X108695356Y-149197856D01*
X108695356Y-149983570D01*
X52705000Y-147954999D02*
X152400000Y-147954999D01*
X52705000Y-145415000D02*
X52705000Y-150654999D01*
X152400000Y-145415000D02*
X152400000Y-150654999D01*
X152400000Y-147954999D02*
X151273497Y-148541419D01*
X152400000Y-147954999D02*
X151273497Y-147368579D01*
X52705000Y-147954999D02*
X53831503Y-148541419D01*
X52705000Y-147954999D02*
X53831503Y-147368579D01*
X46866430Y-88226072D02*
X46866430Y-88511787D01*
X46937858Y-88654644D01*
X47009287Y-88726072D01*
X47223572Y-88868930D01*
X47509287Y-88940358D01*
X48080715Y-88940358D01*
X48223572Y-88868930D01*
X48295001Y-88797501D01*
X48366430Y-88654644D01*
X48366430Y-88368930D01*
X48295001Y-88226072D01*
X48223572Y-88154644D01*
X48080715Y-88083215D01*
X47723572Y-88083215D01*
X47580715Y-88154644D01*
X47509287Y-88226072D01*
X47437858Y-88368930D01*
X47437858Y-88654644D01*
X47509287Y-88797501D01*
X47580715Y-88868930D01*
X47723572Y-88940358D01*
X46866430Y-89654643D02*
X46866430Y-89940358D01*
X46937858Y-90083215D01*
X47009287Y-90154643D01*
X47223572Y-90297501D01*
X47509287Y-90368929D01*
X48080715Y-90368929D01*
X48223572Y-90297501D01*
X48295001Y-90226072D01*
X48366430Y-90083215D01*
X48366430Y-89797501D01*
X48295001Y-89654643D01*
X48223572Y-89583215D01*
X48080715Y-89511786D01*
X47723572Y-89511786D01*
X47580715Y-89583215D01*
X47509287Y-89654643D01*
X47437858Y-89797501D01*
X47437858Y-90083215D01*
X47509287Y-90226072D01*
X47580715Y-90297501D01*
X47723572Y-90368929D01*
X46937858Y-91083214D02*
X46866430Y-91083214D01*
X46723572Y-91011786D01*
X46652144Y-90940357D01*
X48366430Y-92368929D02*
X48366430Y-92083215D01*
X48295001Y-91940358D01*
X48223572Y-91868929D01*
X48009287Y-91726072D01*
X47723572Y-91654643D01*
X47152144Y-91654643D01*
X47009287Y-91726072D01*
X46937858Y-91797500D01*
X46866430Y-91940358D01*
X46866430Y-92226072D01*
X46937858Y-92368929D01*
X47009287Y-92440358D01*
X47152144Y-92511786D01*
X47509287Y-92511786D01*
X47652144Y-92440358D01*
X47723572Y-92368929D01*
X47795001Y-92226072D01*
X47795001Y-91940358D01*
X47723572Y-91797500D01*
X47652144Y-91726072D01*
X47509287Y-91654643D01*
X46866430Y-93226071D02*
X46866430Y-93511786D01*
X46937858Y-93654643D01*
X47009287Y-93726071D01*
X47223572Y-93868929D01*
X47509287Y-93940357D01*
X48080715Y-93940357D01*
X48223572Y-93868929D01*
X48295001Y-93797500D01*
X48366430Y-93654643D01*
X48366430Y-93368929D01*
X48295001Y-93226071D01*
X48223572Y-93154643D01*
X48080715Y-93083214D01*
X47723572Y-93083214D01*
X47580715Y-93154643D01*
X47509287Y-93226071D01*
X47437858Y-93368929D01*
X47437858Y-93654643D01*
X47509287Y-93797500D01*
X47580715Y-93868929D01*
X47723572Y-93940357D01*
X48366430Y-95297500D02*
X48366430Y-94583214D01*
X47652144Y-94511785D01*
X47723572Y-94583214D01*
X47795001Y-94726071D01*
X47795001Y-95083214D01*
X47723572Y-95226071D01*
X47652144Y-95297500D01*
X47509287Y-95368928D01*
X47152144Y-95368928D01*
X47009287Y-95297500D01*
X46937858Y-95226071D01*
X46866430Y-95083214D01*
X46866430Y-94726071D01*
X46937858Y-94583214D01*
X47009287Y-94511785D01*
X46866430Y-97154642D02*
X47866430Y-97154642D01*
X47723572Y-97154642D02*
X47795001Y-97226070D01*
X47866430Y-97368928D01*
X47866430Y-97583213D01*
X47795001Y-97726070D01*
X47652144Y-97797499D01*
X46866430Y-97797499D01*
X47652144Y-97797499D02*
X47795001Y-97868928D01*
X47866430Y-98011785D01*
X47866430Y-98226070D01*
X47795001Y-98368928D01*
X47652144Y-98440356D01*
X46866430Y-98440356D01*
X46866430Y-99154642D02*
X47866430Y-99154642D01*
X47723572Y-99154642D02*
X47795001Y-99226070D01*
X47866430Y-99368928D01*
X47866430Y-99583213D01*
X47795001Y-99726070D01*
X47652144Y-99797499D01*
X46866430Y-99797499D01*
X47652144Y-99797499D02*
X47795001Y-99868928D01*
X47866430Y-100011785D01*
X47866430Y-100226070D01*
X47795001Y-100368928D01*
X47652144Y-100440356D01*
X46866430Y-100440356D01*
X48895001Y-44450000D02*
X48895001Y-144145000D01*
X51435000Y-44450000D02*
X46195001Y-44450000D01*
X51435000Y-144145000D02*
X46195001Y-144145000D01*
X48895001Y-144145000D02*
X48308581Y-143018497D01*
X48895001Y-144145000D02*
X49481421Y-143018497D01*
X48895001Y-44450000D02*
X48308581Y-45576503D01*
X48895001Y-44450000D02*
X49481421Y-45576503D01*
M02*
