G04 #@! TF.FileFunction,Soldermask,Top*
%FSLAX46Y46*%
G04 Gerber Fmt 4.6, Leading zero omitted, Abs format (unit mm)*
G04 Created by KiCad (PCBNEW 4.0.2-stable) date 29-4-2016 14:39:48*
%MOMM*%
G01*
G04 APERTURE LIST*
%ADD10C,0.150000*%
%ADD11C,2.000000*%
%ADD12C,5.000000*%
%ADD13R,1.727200X1.727200*%
%ADD14O,1.727200X1.727200*%
%ADD15O,1.506220X3.014980*%
%ADD16R,1.000760X2.501900*%
%ADD17R,1.998980X4.000500*%
%ADD18R,1.800860X3.500120*%
%ADD19R,1.200000X0.750000*%
%ADD20R,0.900000X1.200000*%
%ADD21R,1.200000X0.900000*%
%ADD22C,0.800000*%
%ADD23C,0.889000*%
G04 APERTURE END LIST*
D10*
D11*
X74295000Y-145415000D03*
X74295000Y-147955000D03*
X74295000Y-150495000D03*
X74295000Y-155575000D03*
X74295000Y-153035000D03*
X74295000Y-158115000D03*
X74295000Y-160655000D03*
X74295000Y-163195000D03*
X74295000Y-165735000D03*
X74295000Y-168275000D03*
X74295000Y-170815000D03*
X76835000Y-173355000D03*
X79495000Y-173395000D03*
X79495000Y-175935000D03*
X79495000Y-178475000D03*
X79495000Y-181015000D03*
X79495000Y-183555000D03*
X79495000Y-186095000D03*
X79495000Y-188635000D03*
X79495000Y-191175000D03*
X79495000Y-193715000D03*
X79495000Y-196255000D03*
X79495000Y-198795000D03*
X79495000Y-201335000D03*
X79495000Y-203875000D03*
X79495000Y-206415000D03*
X79495000Y-208955000D03*
X79495000Y-211495000D03*
X79495000Y-214035000D03*
X79495000Y-216575000D03*
X79495000Y-219115000D03*
X120015000Y-145415000D03*
X120015000Y-147955000D03*
X120015000Y-150495000D03*
X120015000Y-153035000D03*
X109855000Y-155575000D03*
X109855000Y-153035000D03*
X109855000Y-150495000D03*
X109855000Y-147955000D03*
X109855000Y-145415000D03*
X48895000Y-145415000D03*
X48895000Y-147955000D03*
X48895000Y-150495000D03*
X48895000Y-153035000D03*
X48895000Y-155575000D03*
X48895000Y-158115000D03*
X48895000Y-160655000D03*
X48895000Y-163195000D03*
X48895000Y-165735000D03*
X48895000Y-168275000D03*
X48895000Y-170815000D03*
X48895000Y-173355000D03*
X48895000Y-175895000D03*
X48895000Y-178435000D03*
X48895000Y-180975000D03*
X48895000Y-183515000D03*
X48895000Y-186055000D03*
X48895000Y-188595000D03*
X48895000Y-191135000D03*
X48895000Y-193675000D03*
X48895000Y-196215000D03*
X48895000Y-198755000D03*
X48895000Y-201295000D03*
X48895000Y-203835000D03*
X48895000Y-206375000D03*
X48895000Y-208915000D03*
X48895000Y-211455000D03*
X48895000Y-213995000D03*
X48895000Y-216535000D03*
X48895000Y-219075000D03*
X48895000Y-221615000D03*
X48895000Y-224155000D03*
X135255000Y-211455000D03*
X132715000Y-211455000D03*
X130175000Y-211455000D03*
X135255000Y-231775000D03*
X132715000Y-231775000D03*
X130175000Y-231775000D03*
X132715000Y-224155000D03*
X132715000Y-226695000D03*
X132715000Y-229235000D03*
X130175000Y-229235000D03*
X130175000Y-226695000D03*
X130175000Y-224155000D03*
X130175000Y-221615000D03*
X132715000Y-221615000D03*
X135255000Y-221615000D03*
X135255000Y-224155000D03*
X135255000Y-226695000D03*
X135255000Y-229235000D03*
X127635000Y-231775000D03*
X127635000Y-229235000D03*
X127635000Y-226695000D03*
X127635000Y-224155000D03*
X127635000Y-221615000D03*
X127635000Y-219075000D03*
X130175000Y-219075000D03*
X132715000Y-219075000D03*
X135255000Y-219075000D03*
X135255000Y-216535000D03*
X132715000Y-216535000D03*
X130175000Y-216535000D03*
X127635000Y-216535000D03*
X127635000Y-213995000D03*
X130175000Y-213995000D03*
X132715000Y-213995000D03*
X135255000Y-213995000D03*
X127635000Y-211455000D03*
X114935000Y-150495000D03*
X114935000Y-147955000D03*
X117475000Y-147955000D03*
X117475000Y-150495000D03*
X117475000Y-153035000D03*
X114935000Y-153035000D03*
X112395000Y-153035000D03*
X112395000Y-150495000D03*
X112395000Y-147955000D03*
X112395000Y-155575000D03*
X114935000Y-155575000D03*
X117475000Y-155575000D03*
X120015000Y-155575000D03*
X117475000Y-145415000D03*
X114935000Y-145415000D03*
X112395000Y-145415000D03*
X74295000Y-183515000D03*
X74295000Y-180975000D03*
X74295000Y-178435000D03*
X76835000Y-178435000D03*
X76835000Y-180975000D03*
X76835000Y-183515000D03*
X76835000Y-186055000D03*
X74295000Y-186055000D03*
X74295000Y-188595000D03*
X76835000Y-188595000D03*
X76835000Y-191135000D03*
X74295000Y-191135000D03*
X74295000Y-206375000D03*
X74295000Y-203835000D03*
X74295000Y-201295000D03*
X74295000Y-198755000D03*
X74295000Y-196215000D03*
X74295000Y-193675000D03*
X76835000Y-193675000D03*
X76835000Y-196215000D03*
X76835000Y-198755000D03*
X76835000Y-201295000D03*
X76835000Y-203835000D03*
X76835000Y-206375000D03*
X76835000Y-208915000D03*
X74295000Y-208915000D03*
X74295000Y-211455000D03*
X76835000Y-211455000D03*
X74295000Y-213995000D03*
X76835000Y-213995000D03*
X76835000Y-216535000D03*
X74295000Y-216535000D03*
X74295000Y-219075000D03*
X76835000Y-219075000D03*
X76835000Y-175895000D03*
X74295000Y-175895000D03*
X74295000Y-173355000D03*
X59055000Y-142875000D03*
X59055000Y-140335000D03*
X61595000Y-140335000D03*
X61595000Y-142875000D03*
X64135000Y-142875000D03*
X64135000Y-140335000D03*
X64135000Y-137795000D03*
X61595000Y-137795000D03*
X59055000Y-137795000D03*
X56515000Y-137795000D03*
X56515000Y-140335000D03*
X56515000Y-142875000D03*
X64135000Y-231775000D03*
X64135000Y-229235000D03*
X64135000Y-226695000D03*
X64135000Y-224155000D03*
D12*
X51435000Y-229235000D03*
D13*
X120015000Y-228600000D03*
D14*
X120015000Y-231140000D03*
X117475000Y-228600000D03*
X117475000Y-231140000D03*
X114935000Y-228600000D03*
X114935000Y-231140000D03*
X112395000Y-228600000D03*
X112395000Y-231140000D03*
X109855000Y-228600000D03*
X109855000Y-231140000D03*
X107315000Y-228600000D03*
X107315000Y-231140000D03*
X104775000Y-228600000D03*
X104775000Y-231140000D03*
X102235000Y-228600000D03*
X102235000Y-231140000D03*
X99695000Y-228600000D03*
X99695000Y-231140000D03*
X97155000Y-228600000D03*
X97155000Y-231140000D03*
X94615000Y-228600000D03*
X94615000Y-231140000D03*
X92075000Y-228600000D03*
X92075000Y-231140000D03*
X89535000Y-228600000D03*
X89535000Y-231140000D03*
X86995000Y-228600000D03*
X86995000Y-231140000D03*
X84455000Y-228600000D03*
X84455000Y-231140000D03*
X81915000Y-228600000D03*
X81915000Y-231140000D03*
X79375000Y-228600000D03*
X79375000Y-231140000D03*
X76835000Y-228600000D03*
X76835000Y-231140000D03*
X74295000Y-228600000D03*
X74295000Y-231140000D03*
X71755000Y-228600000D03*
X71755000Y-231140000D03*
D11*
X61595000Y-231775000D03*
X59055000Y-231775000D03*
X56515000Y-231775000D03*
X61595000Y-229235000D03*
X59055000Y-229235000D03*
X56515000Y-229235000D03*
X61595000Y-226695000D03*
X59055000Y-226695000D03*
X56515000Y-226695000D03*
X61595000Y-224155000D03*
X59055000Y-224155000D03*
X56515000Y-224155000D03*
X53975000Y-224155000D03*
X51435000Y-224155000D03*
X71755000Y-221615000D03*
X69215000Y-221615000D03*
X66675000Y-221615000D03*
X64135000Y-221615000D03*
X61595000Y-221615000D03*
X59055000Y-221615000D03*
X56515000Y-221615000D03*
X53975000Y-221615000D03*
X51435000Y-221615000D03*
X71755000Y-219075000D03*
X69215000Y-219075000D03*
X66675000Y-219075000D03*
X64135000Y-219075000D03*
X61595000Y-219075000D03*
X59055000Y-219075000D03*
X56515000Y-219075000D03*
X53975000Y-219075000D03*
X51435000Y-219075000D03*
X71755000Y-216535000D03*
X69215000Y-216535000D03*
X66675000Y-216535000D03*
X64135000Y-216535000D03*
X61595000Y-216535000D03*
X59055000Y-216535000D03*
X56515000Y-216535000D03*
X53975000Y-216535000D03*
X51435000Y-216535000D03*
X71755000Y-213995000D03*
X69215000Y-213995000D03*
X66675000Y-213995000D03*
X64135000Y-213995000D03*
X61595000Y-213995000D03*
X59055000Y-213995000D03*
X56515000Y-213995000D03*
X53975000Y-213995000D03*
X51435000Y-213995000D03*
X71755000Y-211455000D03*
X69215000Y-211455000D03*
X66675000Y-211455000D03*
X64135000Y-211455000D03*
X61595000Y-211455000D03*
X59055000Y-211455000D03*
X56515000Y-211455000D03*
X53975000Y-211455000D03*
X51435000Y-211455000D03*
X71755000Y-208915000D03*
X69215000Y-208915000D03*
X66675000Y-208915000D03*
X64135000Y-208915000D03*
X61595000Y-208915000D03*
X59055000Y-208915000D03*
X56515000Y-208915000D03*
X53975000Y-208915000D03*
X51435000Y-208915000D03*
X71755000Y-206375000D03*
X69215000Y-206375000D03*
X66675000Y-206375000D03*
X64135000Y-206375000D03*
X61595000Y-206375000D03*
X59055000Y-206375000D03*
X56515000Y-206375000D03*
X53975000Y-206375000D03*
X51435000Y-206375000D03*
X71755000Y-203835000D03*
X69215000Y-203835000D03*
X66675000Y-203835000D03*
X64135000Y-203835000D03*
X61595000Y-203835000D03*
X59055000Y-203835000D03*
X56515000Y-203835000D03*
X53975000Y-203835000D03*
X51435000Y-203835000D03*
X71755000Y-201295000D03*
X69215000Y-201295000D03*
X66675000Y-201295000D03*
X64135000Y-201295000D03*
X61595000Y-201295000D03*
X59055000Y-201295000D03*
X56515000Y-201295000D03*
X53975000Y-201295000D03*
X51435000Y-201295000D03*
X71755000Y-198755000D03*
X69215000Y-198755000D03*
X66675000Y-198755000D03*
X64135000Y-198755000D03*
X61595000Y-198755000D03*
X59055000Y-198755000D03*
X56515000Y-198755000D03*
X53975000Y-198755000D03*
X51435000Y-198755000D03*
X71755000Y-196215000D03*
X69215000Y-196215000D03*
X66675000Y-196215000D03*
X64135000Y-196215000D03*
X61595000Y-196215000D03*
X59055000Y-196215000D03*
X56515000Y-196215000D03*
X53975000Y-196215000D03*
X51435000Y-196215000D03*
X71755000Y-193675000D03*
X69215000Y-193675000D03*
X66675000Y-193675000D03*
X64135000Y-193675000D03*
X61595000Y-193675000D03*
X59055000Y-193675000D03*
X56515000Y-193675000D03*
X53975000Y-193675000D03*
X51435000Y-193675000D03*
X71755000Y-191135000D03*
X69215000Y-191135000D03*
X66675000Y-191135000D03*
X64135000Y-191135000D03*
X61595000Y-191135000D03*
X59055000Y-191135000D03*
X56515000Y-191135000D03*
X53975000Y-191135000D03*
X51435000Y-191135000D03*
X71755000Y-188595000D03*
X69215000Y-188595000D03*
X66675000Y-188595000D03*
X64135000Y-188595000D03*
X61595000Y-188595000D03*
X59055000Y-188595000D03*
X56515000Y-188595000D03*
X53975000Y-188595000D03*
X51435000Y-188595000D03*
X71755000Y-186055000D03*
X69215000Y-186055000D03*
X66675000Y-186055000D03*
X64135000Y-186055000D03*
X61595000Y-186055000D03*
X59055000Y-186055000D03*
X56515000Y-186055000D03*
X53975000Y-186055000D03*
X51435000Y-186055000D03*
X71755000Y-183515000D03*
X69215000Y-183515000D03*
X66675000Y-183515000D03*
X64135000Y-183515000D03*
X61595000Y-183515000D03*
X59055000Y-183515000D03*
X56515000Y-183515000D03*
X53975000Y-183515000D03*
X51435000Y-183515000D03*
X71755000Y-180975000D03*
X69215000Y-180975000D03*
X66675000Y-180975000D03*
X64135000Y-180975000D03*
X61595000Y-180975000D03*
X59055000Y-180975000D03*
X56515000Y-180975000D03*
X53975000Y-180975000D03*
X51435000Y-180975000D03*
X71755000Y-178435000D03*
X69215000Y-178435000D03*
X66675000Y-178435000D03*
X64135000Y-178435000D03*
X61595000Y-178435000D03*
X59055000Y-178435000D03*
X56515000Y-178435000D03*
X53975000Y-178435000D03*
X51435000Y-178435000D03*
X71755000Y-175895000D03*
X69215000Y-175895000D03*
X66675000Y-175895000D03*
X64135000Y-175895000D03*
X61595000Y-175895000D03*
X59055000Y-175895000D03*
X56515000Y-175895000D03*
X53975000Y-175895000D03*
X51435000Y-175895000D03*
X71755000Y-173355000D03*
X69215000Y-173355000D03*
X66675000Y-173355000D03*
X64135000Y-173355000D03*
X61595000Y-173355000D03*
X59055000Y-173355000D03*
X56515000Y-173355000D03*
X53975000Y-173355000D03*
X51435000Y-173355000D03*
X71755000Y-170815000D03*
X69215000Y-170815000D03*
X66675000Y-170815000D03*
X64135000Y-170815000D03*
X61595000Y-170815000D03*
X59055000Y-170815000D03*
X56515000Y-170815000D03*
X53975000Y-170815000D03*
X51435000Y-170815000D03*
X71755000Y-168275000D03*
X69215000Y-168275000D03*
X66675000Y-168275000D03*
X64135000Y-168275000D03*
X61595000Y-168275000D03*
X59055000Y-168275000D03*
X56515000Y-168275000D03*
X53975000Y-168275000D03*
X51435000Y-168275000D03*
X71755000Y-165735000D03*
X69215000Y-165735000D03*
X66675000Y-165735000D03*
X64135000Y-165735000D03*
X61595000Y-165735000D03*
X59055000Y-165735000D03*
X56515000Y-165735000D03*
X53975000Y-165735000D03*
X51435000Y-165735000D03*
X71755000Y-163195000D03*
X69215000Y-163195000D03*
X66675000Y-163195000D03*
X64135000Y-163195000D03*
X61595000Y-163195000D03*
X59055000Y-163195000D03*
X56515000Y-163195000D03*
X53975000Y-163195000D03*
X51435000Y-163195000D03*
X71755000Y-160655000D03*
X69215000Y-160655000D03*
X66675000Y-160655000D03*
X64135000Y-160655000D03*
X61595000Y-160655000D03*
X59055000Y-160655000D03*
X56515000Y-160655000D03*
X53975000Y-160655000D03*
X51435000Y-160655000D03*
X71755000Y-158115000D03*
X69215000Y-158115000D03*
X66675000Y-158115000D03*
X64135000Y-158115000D03*
X61595000Y-158115000D03*
X59055000Y-158115000D03*
X56515000Y-158115000D03*
X53975000Y-158115000D03*
X51435000Y-158115000D03*
X71755000Y-155575000D03*
X69215000Y-155575000D03*
X66675000Y-155575000D03*
X64135000Y-155575000D03*
X61595000Y-155575000D03*
X59055000Y-155575000D03*
X56515000Y-155575000D03*
X53975000Y-155575000D03*
X51435000Y-155575000D03*
X71755000Y-153035000D03*
X69215000Y-153035000D03*
X66675000Y-153035000D03*
X64135000Y-153035000D03*
X61595000Y-153035000D03*
X59055000Y-153035000D03*
X56515000Y-153035000D03*
X53975000Y-153035000D03*
X51435000Y-153035000D03*
X71755000Y-150495000D03*
X69215000Y-150495000D03*
X66675000Y-150495000D03*
X64135000Y-150495000D03*
X61595000Y-150495000D03*
X59055000Y-150495000D03*
X56515000Y-150495000D03*
X53975000Y-150495000D03*
X51435000Y-150495000D03*
X71755000Y-147955000D03*
X69215000Y-147955000D03*
X66675000Y-147955000D03*
X64135000Y-147955000D03*
X61595000Y-147955000D03*
X59055000Y-147955000D03*
X56515000Y-147955000D03*
X53975000Y-147955000D03*
X51435000Y-147955000D03*
X71755000Y-145415000D03*
X69215000Y-145415000D03*
X66675000Y-145415000D03*
X64135000Y-145415000D03*
X61595000Y-145415000D03*
X59055000Y-145415000D03*
X56515000Y-145415000D03*
X53975000Y-145415000D03*
X51435000Y-145415000D03*
D12*
X140970000Y-139700000D03*
X51435000Y-139700000D03*
X140970000Y-229235000D03*
D15*
X131445000Y-137795000D03*
X133985000Y-137795000D03*
D13*
X140335000Y-209550000D03*
D14*
X142875000Y-209550000D03*
X140335000Y-212090000D03*
X142875000Y-212090000D03*
X140335000Y-214630000D03*
X142875000Y-214630000D03*
X140335000Y-217170000D03*
X142875000Y-217170000D03*
X140335000Y-219710000D03*
X142875000Y-219710000D03*
D10*
G36*
X85624881Y-186122828D02*
X85426891Y-185924838D01*
X86487551Y-184864178D01*
X86685541Y-185062168D01*
X85624881Y-186122828D01*
X85624881Y-186122828D01*
G37*
G36*
X85978434Y-186476381D02*
X85780444Y-186278391D01*
X86841104Y-185217731D01*
X87039094Y-185415721D01*
X85978434Y-186476381D01*
X85978434Y-186476381D01*
G37*
G36*
X86331988Y-186829935D02*
X86133998Y-186631945D01*
X87194658Y-185571285D01*
X87392648Y-185769275D01*
X86331988Y-186829935D01*
X86331988Y-186829935D01*
G37*
G36*
X86685541Y-187183488D02*
X86487551Y-186985498D01*
X87548211Y-185924838D01*
X87746201Y-186122828D01*
X86685541Y-187183488D01*
X86685541Y-187183488D01*
G37*
G36*
X87039094Y-187537041D02*
X86841104Y-187339051D01*
X87901764Y-186278391D01*
X88099754Y-186476381D01*
X87039094Y-187537041D01*
X87039094Y-187537041D01*
G37*
G36*
X87392648Y-187890595D02*
X87194658Y-187692605D01*
X88255318Y-186631945D01*
X88453308Y-186829935D01*
X87392648Y-187890595D01*
X87392648Y-187890595D01*
G37*
G36*
X87746201Y-188244148D02*
X87548211Y-188046158D01*
X88608871Y-186985498D01*
X88806861Y-187183488D01*
X87746201Y-188244148D01*
X87746201Y-188244148D01*
G37*
G36*
X88099754Y-188597702D02*
X87901764Y-188399712D01*
X88962424Y-187339052D01*
X89160414Y-187537042D01*
X88099754Y-188597702D01*
X88099754Y-188597702D01*
G37*
G36*
X88453308Y-188951255D02*
X88255318Y-188753265D01*
X89315978Y-187692605D01*
X89513968Y-187890595D01*
X88453308Y-188951255D01*
X88453308Y-188951255D01*
G37*
G36*
X88806861Y-189304808D02*
X88608871Y-189106818D01*
X89669531Y-188046158D01*
X89867521Y-188244148D01*
X88806861Y-189304808D01*
X88806861Y-189304808D01*
G37*
G36*
X89160415Y-189658362D02*
X88962425Y-189460372D01*
X90023085Y-188399712D01*
X90221075Y-188597702D01*
X89160415Y-189658362D01*
X89160415Y-189658362D01*
G37*
G36*
X89513968Y-190011915D02*
X89315978Y-189813925D01*
X90376638Y-188753265D01*
X90574628Y-188951255D01*
X89513968Y-190011915D01*
X89513968Y-190011915D01*
G37*
G36*
X89867521Y-190365469D02*
X89669531Y-190167479D01*
X90730191Y-189106819D01*
X90928181Y-189304809D01*
X89867521Y-190365469D01*
X89867521Y-190365469D01*
G37*
G36*
X90221075Y-190719022D02*
X90023085Y-190521032D01*
X91083745Y-189460372D01*
X91281735Y-189658362D01*
X90221075Y-190719022D01*
X90221075Y-190719022D01*
G37*
G36*
X90574628Y-191072575D02*
X90376638Y-190874585D01*
X91437298Y-189813925D01*
X91635288Y-190011915D01*
X90574628Y-191072575D01*
X90574628Y-191072575D01*
G37*
G36*
X90928182Y-191426129D02*
X90730192Y-191228139D01*
X91790852Y-190167479D01*
X91988842Y-190365469D01*
X90928182Y-191426129D01*
X90928182Y-191426129D01*
G37*
G36*
X91281735Y-191779682D02*
X91083745Y-191581692D01*
X92144405Y-190521032D01*
X92342395Y-190719022D01*
X91281735Y-191779682D01*
X91281735Y-191779682D01*
G37*
G36*
X91635288Y-192133236D02*
X91437298Y-191935246D01*
X92497958Y-190874586D01*
X92695948Y-191072576D01*
X91635288Y-192133236D01*
X91635288Y-192133236D01*
G37*
G36*
X91988842Y-192486789D02*
X91790852Y-192288799D01*
X92851512Y-191228139D01*
X93049502Y-191426129D01*
X91988842Y-192486789D01*
X91988842Y-192486789D01*
G37*
G36*
X92342395Y-192840342D02*
X92144405Y-192642352D01*
X93205065Y-191581692D01*
X93403055Y-191779682D01*
X92342395Y-192840342D01*
X92342395Y-192840342D01*
G37*
G36*
X92695949Y-193193896D02*
X92497959Y-192995906D01*
X93558619Y-191935246D01*
X93756609Y-192133236D01*
X92695949Y-193193896D01*
X92695949Y-193193896D01*
G37*
G36*
X93049502Y-193547449D02*
X92851512Y-193349459D01*
X93912172Y-192288799D01*
X94110162Y-192486789D01*
X93049502Y-193547449D01*
X93049502Y-193547449D01*
G37*
G36*
X93403055Y-193901002D02*
X93205065Y-193703012D01*
X94265725Y-192642352D01*
X94463715Y-192840342D01*
X93403055Y-193901002D01*
X93403055Y-193901002D01*
G37*
G36*
X93756609Y-194254556D02*
X93558619Y-194056566D01*
X94619279Y-192995906D01*
X94817269Y-193193896D01*
X93756609Y-194254556D01*
X93756609Y-194254556D01*
G37*
G36*
X94110162Y-194608109D02*
X93912172Y-194410119D01*
X94972832Y-193349459D01*
X95170822Y-193547449D01*
X94110162Y-194608109D01*
X94110162Y-194608109D01*
G37*
G36*
X97857828Y-194410119D02*
X97659838Y-194608109D01*
X96599178Y-193547449D01*
X96797168Y-193349459D01*
X97857828Y-194410119D01*
X97857828Y-194410119D01*
G37*
G36*
X98211381Y-194056566D02*
X98013391Y-194254556D01*
X96952731Y-193193896D01*
X97150721Y-192995906D01*
X98211381Y-194056566D01*
X98211381Y-194056566D01*
G37*
G36*
X98564935Y-193703012D02*
X98366945Y-193901002D01*
X97306285Y-192840342D01*
X97504275Y-192642352D01*
X98564935Y-193703012D01*
X98564935Y-193703012D01*
G37*
G36*
X98918488Y-193349459D02*
X98720498Y-193547449D01*
X97659838Y-192486789D01*
X97857828Y-192288799D01*
X98918488Y-193349459D01*
X98918488Y-193349459D01*
G37*
G36*
X99272041Y-192995906D02*
X99074051Y-193193896D01*
X98013391Y-192133236D01*
X98211381Y-191935246D01*
X99272041Y-192995906D01*
X99272041Y-192995906D01*
G37*
G36*
X99625595Y-192642352D02*
X99427605Y-192840342D01*
X98366945Y-191779682D01*
X98564935Y-191581692D01*
X99625595Y-192642352D01*
X99625595Y-192642352D01*
G37*
G36*
X99979148Y-192288799D02*
X99781158Y-192486789D01*
X98720498Y-191426129D01*
X98918488Y-191228139D01*
X99979148Y-192288799D01*
X99979148Y-192288799D01*
G37*
G36*
X100332702Y-191935246D02*
X100134712Y-192133236D01*
X99074052Y-191072576D01*
X99272042Y-190874586D01*
X100332702Y-191935246D01*
X100332702Y-191935246D01*
G37*
G36*
X100686255Y-191581692D02*
X100488265Y-191779682D01*
X99427605Y-190719022D01*
X99625595Y-190521032D01*
X100686255Y-191581692D01*
X100686255Y-191581692D01*
G37*
G36*
X101039808Y-191228139D02*
X100841818Y-191426129D01*
X99781158Y-190365469D01*
X99979148Y-190167479D01*
X101039808Y-191228139D01*
X101039808Y-191228139D01*
G37*
G36*
X101393362Y-190874585D02*
X101195372Y-191072575D01*
X100134712Y-190011915D01*
X100332702Y-189813925D01*
X101393362Y-190874585D01*
X101393362Y-190874585D01*
G37*
G36*
X101746915Y-190521032D02*
X101548925Y-190719022D01*
X100488265Y-189658362D01*
X100686255Y-189460372D01*
X101746915Y-190521032D01*
X101746915Y-190521032D01*
G37*
G36*
X102100469Y-190167479D02*
X101902479Y-190365469D01*
X100841819Y-189304809D01*
X101039809Y-189106819D01*
X102100469Y-190167479D01*
X102100469Y-190167479D01*
G37*
G36*
X102454022Y-189813925D02*
X102256032Y-190011915D01*
X101195372Y-188951255D01*
X101393362Y-188753265D01*
X102454022Y-189813925D01*
X102454022Y-189813925D01*
G37*
G36*
X102807575Y-189460372D02*
X102609585Y-189658362D01*
X101548925Y-188597702D01*
X101746915Y-188399712D01*
X102807575Y-189460372D01*
X102807575Y-189460372D01*
G37*
G36*
X103161129Y-189106818D02*
X102963139Y-189304808D01*
X101902479Y-188244148D01*
X102100469Y-188046158D01*
X103161129Y-189106818D01*
X103161129Y-189106818D01*
G37*
G36*
X103514682Y-188753265D02*
X103316692Y-188951255D01*
X102256032Y-187890595D01*
X102454022Y-187692605D01*
X103514682Y-188753265D01*
X103514682Y-188753265D01*
G37*
G36*
X103868236Y-188399712D02*
X103670246Y-188597702D01*
X102609586Y-187537042D01*
X102807576Y-187339052D01*
X103868236Y-188399712D01*
X103868236Y-188399712D01*
G37*
G36*
X104221789Y-188046158D02*
X104023799Y-188244148D01*
X102963139Y-187183488D01*
X103161129Y-186985498D01*
X104221789Y-188046158D01*
X104221789Y-188046158D01*
G37*
G36*
X104575342Y-187692605D02*
X104377352Y-187890595D01*
X103316692Y-186829935D01*
X103514682Y-186631945D01*
X104575342Y-187692605D01*
X104575342Y-187692605D01*
G37*
G36*
X104928896Y-187339051D02*
X104730906Y-187537041D01*
X103670246Y-186476381D01*
X103868236Y-186278391D01*
X104928896Y-187339051D01*
X104928896Y-187339051D01*
G37*
G36*
X105282449Y-186985498D02*
X105084459Y-187183488D01*
X104023799Y-186122828D01*
X104221789Y-185924838D01*
X105282449Y-186985498D01*
X105282449Y-186985498D01*
G37*
G36*
X105636002Y-186631945D02*
X105438012Y-186829935D01*
X104377352Y-185769275D01*
X104575342Y-185571285D01*
X105636002Y-186631945D01*
X105636002Y-186631945D01*
G37*
G36*
X105989556Y-186278391D02*
X105791566Y-186476381D01*
X104730906Y-185415721D01*
X104928896Y-185217731D01*
X105989556Y-186278391D01*
X105989556Y-186278391D01*
G37*
G36*
X106343109Y-185924838D02*
X106145119Y-186122828D01*
X105084459Y-185062168D01*
X105282449Y-184864178D01*
X106343109Y-185924838D01*
X106343109Y-185924838D01*
G37*
G36*
X105282449Y-183435822D02*
X105084459Y-183237832D01*
X106145119Y-182177172D01*
X106343109Y-182375162D01*
X105282449Y-183435822D01*
X105282449Y-183435822D01*
G37*
G36*
X104928896Y-183082269D02*
X104730906Y-182884279D01*
X105791566Y-181823619D01*
X105989556Y-182021609D01*
X104928896Y-183082269D01*
X104928896Y-183082269D01*
G37*
G36*
X104575342Y-182728715D02*
X104377352Y-182530725D01*
X105438012Y-181470065D01*
X105636002Y-181668055D01*
X104575342Y-182728715D01*
X104575342Y-182728715D01*
G37*
G36*
X104221789Y-182375162D02*
X104023799Y-182177172D01*
X105084459Y-181116512D01*
X105282449Y-181314502D01*
X104221789Y-182375162D01*
X104221789Y-182375162D01*
G37*
G36*
X103868236Y-182021609D02*
X103670246Y-181823619D01*
X104730906Y-180762959D01*
X104928896Y-180960949D01*
X103868236Y-182021609D01*
X103868236Y-182021609D01*
G37*
G36*
X103514682Y-181668055D02*
X103316692Y-181470065D01*
X104377352Y-180409405D01*
X104575342Y-180607395D01*
X103514682Y-181668055D01*
X103514682Y-181668055D01*
G37*
G36*
X103161129Y-181314502D02*
X102963139Y-181116512D01*
X104023799Y-180055852D01*
X104221789Y-180253842D01*
X103161129Y-181314502D01*
X103161129Y-181314502D01*
G37*
G36*
X102807576Y-180960948D02*
X102609586Y-180762958D01*
X103670246Y-179702298D01*
X103868236Y-179900288D01*
X102807576Y-180960948D01*
X102807576Y-180960948D01*
G37*
G36*
X102454022Y-180607395D02*
X102256032Y-180409405D01*
X103316692Y-179348745D01*
X103514682Y-179546735D01*
X102454022Y-180607395D01*
X102454022Y-180607395D01*
G37*
G36*
X102100469Y-180253842D02*
X101902479Y-180055852D01*
X102963139Y-178995192D01*
X103161129Y-179193182D01*
X102100469Y-180253842D01*
X102100469Y-180253842D01*
G37*
G36*
X101746915Y-179900288D02*
X101548925Y-179702298D01*
X102609585Y-178641638D01*
X102807575Y-178839628D01*
X101746915Y-179900288D01*
X101746915Y-179900288D01*
G37*
G36*
X101393362Y-179546735D02*
X101195372Y-179348745D01*
X102256032Y-178288085D01*
X102454022Y-178486075D01*
X101393362Y-179546735D01*
X101393362Y-179546735D01*
G37*
G36*
X101039809Y-179193181D02*
X100841819Y-178995191D01*
X101902479Y-177934531D01*
X102100469Y-178132521D01*
X101039809Y-179193181D01*
X101039809Y-179193181D01*
G37*
G36*
X100686255Y-178839628D02*
X100488265Y-178641638D01*
X101548925Y-177580978D01*
X101746915Y-177778968D01*
X100686255Y-178839628D01*
X100686255Y-178839628D01*
G37*
G36*
X100332702Y-178486075D02*
X100134712Y-178288085D01*
X101195372Y-177227425D01*
X101393362Y-177425415D01*
X100332702Y-178486075D01*
X100332702Y-178486075D01*
G37*
G36*
X99979148Y-178132521D02*
X99781158Y-177934531D01*
X100841818Y-176873871D01*
X101039808Y-177071861D01*
X99979148Y-178132521D01*
X99979148Y-178132521D01*
G37*
G36*
X99625595Y-177778968D02*
X99427605Y-177580978D01*
X100488265Y-176520318D01*
X100686255Y-176718308D01*
X99625595Y-177778968D01*
X99625595Y-177778968D01*
G37*
G36*
X99272042Y-177425414D02*
X99074052Y-177227424D01*
X100134712Y-176166764D01*
X100332702Y-176364754D01*
X99272042Y-177425414D01*
X99272042Y-177425414D01*
G37*
G36*
X98918488Y-177071861D02*
X98720498Y-176873871D01*
X99781158Y-175813211D01*
X99979148Y-176011201D01*
X98918488Y-177071861D01*
X98918488Y-177071861D01*
G37*
G36*
X98564935Y-176718308D02*
X98366945Y-176520318D01*
X99427605Y-175459658D01*
X99625595Y-175657648D01*
X98564935Y-176718308D01*
X98564935Y-176718308D01*
G37*
G36*
X98211381Y-176364754D02*
X98013391Y-176166764D01*
X99074051Y-175106104D01*
X99272041Y-175304094D01*
X98211381Y-176364754D01*
X98211381Y-176364754D01*
G37*
G36*
X97857828Y-176011201D02*
X97659838Y-175813211D01*
X98720498Y-174752551D01*
X98918488Y-174950541D01*
X97857828Y-176011201D01*
X97857828Y-176011201D01*
G37*
G36*
X97504275Y-175657648D02*
X97306285Y-175459658D01*
X98366945Y-174398998D01*
X98564935Y-174596988D01*
X97504275Y-175657648D01*
X97504275Y-175657648D01*
G37*
G36*
X97150721Y-175304094D02*
X96952731Y-175106104D01*
X98013391Y-174045444D01*
X98211381Y-174243434D01*
X97150721Y-175304094D01*
X97150721Y-175304094D01*
G37*
G36*
X96797168Y-174950541D02*
X96599178Y-174752551D01*
X97659838Y-173691891D01*
X97857828Y-173889881D01*
X96797168Y-174950541D01*
X96797168Y-174950541D01*
G37*
G36*
X95170822Y-174752551D02*
X94972832Y-174950541D01*
X93912172Y-173889881D01*
X94110162Y-173691891D01*
X95170822Y-174752551D01*
X95170822Y-174752551D01*
G37*
G36*
X94817269Y-175106104D02*
X94619279Y-175304094D01*
X93558619Y-174243434D01*
X93756609Y-174045444D01*
X94817269Y-175106104D01*
X94817269Y-175106104D01*
G37*
G36*
X94463715Y-175459658D02*
X94265725Y-175657648D01*
X93205065Y-174596988D01*
X93403055Y-174398998D01*
X94463715Y-175459658D01*
X94463715Y-175459658D01*
G37*
G36*
X94110162Y-175813211D02*
X93912172Y-176011201D01*
X92851512Y-174950541D01*
X93049502Y-174752551D01*
X94110162Y-175813211D01*
X94110162Y-175813211D01*
G37*
G36*
X93756609Y-176166764D02*
X93558619Y-176364754D01*
X92497959Y-175304094D01*
X92695949Y-175106104D01*
X93756609Y-176166764D01*
X93756609Y-176166764D01*
G37*
G36*
X93403055Y-176520318D02*
X93205065Y-176718308D01*
X92144405Y-175657648D01*
X92342395Y-175459658D01*
X93403055Y-176520318D01*
X93403055Y-176520318D01*
G37*
G36*
X93049502Y-176873871D02*
X92851512Y-177071861D01*
X91790852Y-176011201D01*
X91988842Y-175813211D01*
X93049502Y-176873871D01*
X93049502Y-176873871D01*
G37*
G36*
X92695948Y-177227424D02*
X92497958Y-177425414D01*
X91437298Y-176364754D01*
X91635288Y-176166764D01*
X92695948Y-177227424D01*
X92695948Y-177227424D01*
G37*
G36*
X92342395Y-177580978D02*
X92144405Y-177778968D01*
X91083745Y-176718308D01*
X91281735Y-176520318D01*
X92342395Y-177580978D01*
X92342395Y-177580978D01*
G37*
G36*
X91988842Y-177934531D02*
X91790852Y-178132521D01*
X90730192Y-177071861D01*
X90928182Y-176873871D01*
X91988842Y-177934531D01*
X91988842Y-177934531D01*
G37*
G36*
X91635288Y-178288085D02*
X91437298Y-178486075D01*
X90376638Y-177425415D01*
X90574628Y-177227425D01*
X91635288Y-178288085D01*
X91635288Y-178288085D01*
G37*
G36*
X91281735Y-178641638D02*
X91083745Y-178839628D01*
X90023085Y-177778968D01*
X90221075Y-177580978D01*
X91281735Y-178641638D01*
X91281735Y-178641638D01*
G37*
G36*
X90928181Y-178995191D02*
X90730191Y-179193181D01*
X89669531Y-178132521D01*
X89867521Y-177934531D01*
X90928181Y-178995191D01*
X90928181Y-178995191D01*
G37*
G36*
X90574628Y-179348745D02*
X90376638Y-179546735D01*
X89315978Y-178486075D01*
X89513968Y-178288085D01*
X90574628Y-179348745D01*
X90574628Y-179348745D01*
G37*
G36*
X90221075Y-179702298D02*
X90023085Y-179900288D01*
X88962425Y-178839628D01*
X89160415Y-178641638D01*
X90221075Y-179702298D01*
X90221075Y-179702298D01*
G37*
G36*
X89867521Y-180055852D02*
X89669531Y-180253842D01*
X88608871Y-179193182D01*
X88806861Y-178995192D01*
X89867521Y-180055852D01*
X89867521Y-180055852D01*
G37*
G36*
X89513968Y-180409405D02*
X89315978Y-180607395D01*
X88255318Y-179546735D01*
X88453308Y-179348745D01*
X89513968Y-180409405D01*
X89513968Y-180409405D01*
G37*
G36*
X89160414Y-180762958D02*
X88962424Y-180960948D01*
X87901764Y-179900288D01*
X88099754Y-179702298D01*
X89160414Y-180762958D01*
X89160414Y-180762958D01*
G37*
G36*
X88806861Y-181116512D02*
X88608871Y-181314502D01*
X87548211Y-180253842D01*
X87746201Y-180055852D01*
X88806861Y-181116512D01*
X88806861Y-181116512D01*
G37*
G36*
X88453308Y-181470065D02*
X88255318Y-181668055D01*
X87194658Y-180607395D01*
X87392648Y-180409405D01*
X88453308Y-181470065D01*
X88453308Y-181470065D01*
G37*
G36*
X88099754Y-181823619D02*
X87901764Y-182021609D01*
X86841104Y-180960949D01*
X87039094Y-180762959D01*
X88099754Y-181823619D01*
X88099754Y-181823619D01*
G37*
G36*
X87746201Y-182177172D02*
X87548211Y-182375162D01*
X86487551Y-181314502D01*
X86685541Y-181116512D01*
X87746201Y-182177172D01*
X87746201Y-182177172D01*
G37*
G36*
X87392648Y-182530725D02*
X87194658Y-182728715D01*
X86133998Y-181668055D01*
X86331988Y-181470065D01*
X87392648Y-182530725D01*
X87392648Y-182530725D01*
G37*
G36*
X87039094Y-182884279D02*
X86841104Y-183082269D01*
X85780444Y-182021609D01*
X85978434Y-181823619D01*
X87039094Y-182884279D01*
X87039094Y-182884279D01*
G37*
G36*
X86685541Y-183237832D02*
X86487551Y-183435822D01*
X85426891Y-182375162D01*
X85624881Y-182177172D01*
X86685541Y-183237832D01*
X86685541Y-183237832D01*
G37*
D16*
X126856140Y-147062960D03*
X125355000Y-147062960D03*
X123853860Y-147062960D03*
D17*
X125355000Y-151015200D03*
D10*
G36*
X124354240Y-149040350D02*
X124854620Y-148291050D01*
X125855380Y-148291050D01*
X126355760Y-149040350D01*
X124354240Y-149040350D01*
X124354240Y-149040350D01*
G37*
D18*
X134355000Y-151314740D03*
X134355000Y-145315260D03*
D19*
X124405000Y-155315000D03*
X126305000Y-155315000D03*
X129405000Y-155315000D03*
X131305000Y-155315000D03*
D18*
X130355000Y-151314740D03*
X130355000Y-145315260D03*
D13*
X71755000Y-140335000D03*
D14*
X71755000Y-137795000D03*
X74295000Y-140335000D03*
X74295000Y-137795000D03*
X76835000Y-140335000D03*
X76835000Y-137795000D03*
X79375000Y-140335000D03*
X79375000Y-137795000D03*
X81915000Y-140335000D03*
X81915000Y-137795000D03*
X84455000Y-140335000D03*
X84455000Y-137795000D03*
X86995000Y-140335000D03*
X86995000Y-137795000D03*
X89535000Y-140335000D03*
X89535000Y-137795000D03*
X92075000Y-140335000D03*
X92075000Y-137795000D03*
X94615000Y-140335000D03*
X94615000Y-137795000D03*
X97155000Y-140335000D03*
X97155000Y-137795000D03*
X99695000Y-140335000D03*
X99695000Y-137795000D03*
X102235000Y-140335000D03*
X102235000Y-137795000D03*
X104775000Y-140335000D03*
X104775000Y-137795000D03*
X107315000Y-140335000D03*
X107315000Y-137795000D03*
X109855000Y-140335000D03*
X109855000Y-137795000D03*
X112395000Y-140335000D03*
X112395000Y-137795000D03*
X114935000Y-140335000D03*
X114935000Y-137795000D03*
X117475000Y-140335000D03*
X117475000Y-137795000D03*
X120015000Y-140335000D03*
X120015000Y-137795000D03*
D13*
X140335000Y-149860000D03*
D14*
X142875000Y-149860000D03*
X140335000Y-152400000D03*
X142875000Y-152400000D03*
X140335000Y-154940000D03*
X142875000Y-154940000D03*
X140335000Y-157480000D03*
X142875000Y-157480000D03*
X140335000Y-160020000D03*
X142875000Y-160020000D03*
X140335000Y-162560000D03*
X142875000Y-162560000D03*
X140335000Y-165100000D03*
X142875000Y-165100000D03*
X140335000Y-167640000D03*
X142875000Y-167640000D03*
X140335000Y-170180000D03*
X142875000Y-170180000D03*
X140335000Y-172720000D03*
X142875000Y-172720000D03*
X140335000Y-175260000D03*
X142875000Y-175260000D03*
X140335000Y-177800000D03*
X142875000Y-177800000D03*
X140335000Y-180340000D03*
X142875000Y-180340000D03*
X140335000Y-182880000D03*
X142875000Y-182880000D03*
X140335000Y-185420000D03*
X142875000Y-185420000D03*
X140335000Y-187960000D03*
X142875000Y-187960000D03*
X140335000Y-190500000D03*
X142875000Y-190500000D03*
X140335000Y-193040000D03*
X142875000Y-193040000D03*
X140335000Y-195580000D03*
X142875000Y-195580000D03*
X140335000Y-198120000D03*
X142875000Y-198120000D03*
D20*
X103775000Y-156175000D03*
X103775000Y-153975000D03*
X102505000Y-151730000D03*
X102505000Y-149530000D03*
X101235000Y-156175000D03*
X101235000Y-153975000D03*
X99965000Y-151730000D03*
X99965000Y-149530000D03*
X98695000Y-156175000D03*
X98695000Y-153975000D03*
X97425000Y-151730000D03*
X97425000Y-149530000D03*
X96155000Y-156175000D03*
X96155000Y-153975000D03*
X94885000Y-151730000D03*
X94885000Y-149530000D03*
X93615000Y-156175000D03*
X93615000Y-153975000D03*
X92345000Y-151730000D03*
X92345000Y-149530000D03*
X91075000Y-156310000D03*
X91075000Y-154110000D03*
X89805000Y-151730000D03*
X89805000Y-149530000D03*
X88535000Y-156310000D03*
X88535000Y-154110000D03*
X87265000Y-151730000D03*
X87265000Y-149530000D03*
X85995000Y-156310000D03*
X85995000Y-154110000D03*
X84725000Y-151730000D03*
X84725000Y-149530000D03*
X83455000Y-156310000D03*
X83455000Y-154110000D03*
X82185000Y-151730000D03*
X82185000Y-149530000D03*
X80915000Y-156310000D03*
X80915000Y-154110000D03*
X79645000Y-151730000D03*
X79645000Y-149530000D03*
D21*
X123055000Y-206715000D03*
X125255000Y-206715000D03*
X127055000Y-205215000D03*
X129255000Y-205215000D03*
X123055000Y-203715000D03*
X125255000Y-203715000D03*
X127055000Y-202215000D03*
X129255000Y-202215000D03*
X123055000Y-200715000D03*
X125255000Y-200715000D03*
X127055000Y-199215000D03*
X129255000Y-199215000D03*
X122955000Y-197715000D03*
X125155000Y-197715000D03*
X127055000Y-196215000D03*
X129255000Y-196215000D03*
X123055000Y-194715000D03*
X125255000Y-194715000D03*
X127055000Y-193215000D03*
X129255000Y-193215000D03*
X123055000Y-191715000D03*
X125255000Y-191715000D03*
X127055000Y-190215000D03*
X129255000Y-190215000D03*
X123055000Y-188715000D03*
X125255000Y-188715000D03*
X129255000Y-187215000D03*
X127055000Y-187215000D03*
X125255000Y-185715000D03*
X123055000Y-185715000D03*
X129255000Y-184215000D03*
X127055000Y-184215000D03*
X125255000Y-182715000D03*
X123055000Y-182715000D03*
X129255000Y-181215000D03*
X127055000Y-181215000D03*
D20*
X83255000Y-212115000D03*
X83255000Y-214315000D03*
X84755000Y-218515000D03*
X84755000Y-216315000D03*
X86255000Y-214315000D03*
X86255000Y-212115000D03*
X87755000Y-218515000D03*
X87755000Y-216315000D03*
X89255000Y-214315000D03*
X89255000Y-212115000D03*
X90755000Y-218515000D03*
X90755000Y-216315000D03*
X92255000Y-214315000D03*
X92255000Y-212115000D03*
X93755000Y-218515000D03*
X93755000Y-216315000D03*
X95845000Y-222515000D03*
X95845000Y-220315000D03*
X97345000Y-217815000D03*
X97345000Y-215615000D03*
X98845000Y-222515000D03*
X98845000Y-220315000D03*
X100345000Y-217815000D03*
X100345000Y-215615000D03*
X101845000Y-222515000D03*
X101845000Y-220315000D03*
X103345000Y-217815000D03*
X103345000Y-215615000D03*
X104845000Y-222515000D03*
X104845000Y-220315000D03*
X106345000Y-217815000D03*
X106345000Y-215615000D03*
X107845000Y-222515000D03*
X107845000Y-220315000D03*
X109345000Y-217815000D03*
X109345000Y-215615000D03*
X110845000Y-222515000D03*
X110845000Y-220315000D03*
X112345000Y-217815000D03*
X112345000Y-215615000D03*
X113845000Y-220315000D03*
X113845000Y-222515000D03*
X115345000Y-215615000D03*
X115345000Y-217815000D03*
X116845000Y-220315000D03*
X116845000Y-222515000D03*
X118345000Y-215615000D03*
X118345000Y-217815000D03*
X119845000Y-220315000D03*
X119845000Y-222515000D03*
X121345000Y-215615000D03*
X121345000Y-217815000D03*
X106355000Y-154015000D03*
X106355000Y-156215000D03*
X105055000Y-149515000D03*
X105055000Y-151715000D03*
D19*
X133705000Y-206715000D03*
X135605000Y-206715000D03*
D22*
X103655000Y-185415000D03*
X98655000Y-190315000D03*
X98755000Y-179915000D03*
X95055000Y-176115000D03*
X90155000Y-181015000D03*
X100555000Y-180915000D03*
X91055000Y-187615000D03*
X88355000Y-189915000D03*
D23*
X123855000Y-142915000D03*
X133095000Y-142875000D03*
D22*
X136255000Y-205115000D03*
X122855000Y-208415000D03*
X128555000Y-153715000D03*
X97845000Y-191055000D03*
X102795000Y-186115000D03*
X101745000Y-181115000D03*
X100345000Y-179695000D03*
X91445000Y-188595000D03*
X90025000Y-187185000D03*
X94245000Y-176855000D03*
X89315000Y-181815000D03*
X83255000Y-208015000D03*
X84755000Y-208015000D03*
X86255000Y-208015000D03*
X87755000Y-208015000D03*
X89255000Y-208015000D03*
X90755000Y-208015000D03*
X95845000Y-213715000D03*
X97345000Y-213715000D03*
X98845000Y-213715000D03*
X100345000Y-213715000D03*
X101845000Y-213715000D03*
X103345000Y-213715000D03*
X104845000Y-213715000D03*
X109345000Y-213715000D03*
X110845000Y-213715000D03*
X112345000Y-213715000D03*
X113845000Y-213715000D03*
X116845000Y-213715000D03*
X118345000Y-213715000D03*
X119845000Y-213715000D03*
X121345000Y-213715000D03*
X118455000Y-206715000D03*
X118455000Y-205215000D03*
X118455000Y-203715000D03*
X118455000Y-202215000D03*
X118455000Y-200715000D03*
X118455000Y-199215000D03*
X118455000Y-197715000D03*
X118455000Y-194715000D03*
X118455000Y-193215000D03*
X118455000Y-191715000D03*
X118455000Y-188715000D03*
X118455000Y-187215000D03*
X118455000Y-185715000D03*
X118455000Y-184215000D03*
X118455000Y-182715000D03*
X118455000Y-181215000D03*
X103775000Y-165215000D03*
X101235000Y-165215000D03*
X99965000Y-165215000D03*
X98695000Y-165215000D03*
X97425000Y-165215000D03*
X96155000Y-165215000D03*
X94885000Y-165215000D03*
X93615000Y-165215000D03*
X92345000Y-165215000D03*
X91075000Y-165215000D03*
X89805000Y-165215000D03*
X88535000Y-165215000D03*
X85995000Y-165215000D03*
X84725000Y-165215000D03*
X83455000Y-165215000D03*
X82185000Y-165215000D03*
X80915000Y-165215000D03*
X79645000Y-165195000D03*
X122855000Y-209515000D03*
X97655000Y-198315000D03*
X122855000Y-210715000D03*
X96455000Y-195915000D03*
X122355000Y-216615000D03*
X95355000Y-197715000D03*
X123155000Y-217415000D03*
X94455000Y-196515000D03*
X121355000Y-220215000D03*
X97355000Y-220215000D03*
X92355000Y-208015000D03*
X93755000Y-208015000D03*
X106345000Y-213715000D03*
X107845000Y-213715000D03*
X115345000Y-213715000D03*
X118455000Y-196215000D03*
X118455000Y-190215000D03*
X102505000Y-165215000D03*
X87265000Y-165215000D03*
X93755000Y-220215000D03*
X92255000Y-220215000D03*
X90755000Y-220215000D03*
X89255000Y-220215000D03*
X87755000Y-220215000D03*
X86255000Y-220215000D03*
X84755000Y-220215000D03*
X83255000Y-220215000D03*
X118455000Y-160215000D03*
X131155000Y-160215000D03*
X118455000Y-161715000D03*
X131155000Y-161715000D03*
X118455000Y-163215000D03*
X131155000Y-163215000D03*
X118455000Y-164715000D03*
X131155000Y-164715000D03*
X118455000Y-166215000D03*
X131155000Y-166215000D03*
X118455000Y-167715000D03*
X131155000Y-167715000D03*
X118455000Y-169215000D03*
X131155000Y-169215000D03*
X118455000Y-170715000D03*
X131155000Y-170715000D03*
X118455000Y-172215000D03*
X131155000Y-172215000D03*
X118455000Y-173715000D03*
X131155000Y-173715000D03*
X118455000Y-175215000D03*
X131155000Y-175215000D03*
X118455000Y-176815000D03*
X131155000Y-176815000D03*
X118455000Y-178215000D03*
X131155000Y-178215000D03*
X118455000Y-179815000D03*
X131155000Y-179815000D03*
X131155000Y-181215000D03*
X131155000Y-182715000D03*
X131155000Y-184215000D03*
X131155000Y-185715000D03*
X131155000Y-187215000D03*
X131155000Y-188715000D03*
X131155000Y-190215000D03*
X131155000Y-191715000D03*
X131155000Y-193215000D03*
X131155000Y-194715000D03*
X131155000Y-196215000D03*
X131155000Y-197715000D03*
X131155000Y-199215000D03*
X131155000Y-200715000D03*
X131155000Y-202215000D03*
X131155000Y-203715000D03*
X131155000Y-205215000D03*
X131155000Y-206715000D03*
X106355000Y-164155000D03*
X105055000Y-165215000D03*
M02*
