G04 #@! TF.FileFunction,Legend,Top*
%FSLAX46Y46*%
G04 Gerber Fmt 4.6, Leading zero omitted, Abs format (unit mm)*
G04 Created by KiCad (PCBNEW 4.0.2-stable) date 29-4-2016 14:39:48*
%MOMM*%
G01*
G04 APERTURE LIST*
%ADD10C,0.150000*%
%ADD11C,0.300000*%
%ADD12C,0.381000*%
G04 APERTURE END LIST*
D10*
D11*
X82433573Y-204093571D02*
X83433573Y-204093571D01*
X82433573Y-205593571D01*
X83433573Y-205593571D01*
X84647858Y-205593571D02*
X84647858Y-204807857D01*
X84576429Y-204665000D01*
X84433572Y-204593571D01*
X84147858Y-204593571D01*
X84005001Y-204665000D01*
X84647858Y-205522143D02*
X84505001Y-205593571D01*
X84147858Y-205593571D01*
X84005001Y-205522143D01*
X83933572Y-205379286D01*
X83933572Y-205236429D01*
X84005001Y-205093571D01*
X84147858Y-205022143D01*
X84505001Y-205022143D01*
X84647858Y-204950714D01*
X85576430Y-205593571D02*
X85433572Y-205522143D01*
X85362144Y-205379286D01*
X85362144Y-204093571D01*
X85933572Y-204593571D02*
X86505001Y-204593571D01*
X86147858Y-204093571D02*
X86147858Y-205379286D01*
X86219286Y-205522143D01*
X86362144Y-205593571D01*
X86505001Y-205593571D01*
X88147858Y-205593571D02*
X88147858Y-204093571D01*
X88505001Y-204093571D01*
X88719286Y-204165000D01*
X88862144Y-204307857D01*
X88933572Y-204450714D01*
X89005001Y-204736429D01*
X89005001Y-204950714D01*
X88933572Y-205236429D01*
X88862144Y-205379286D01*
X88719286Y-205522143D01*
X88505001Y-205593571D01*
X88147858Y-205593571D01*
X90219286Y-205522143D02*
X90076429Y-205593571D01*
X89790715Y-205593571D01*
X89647858Y-205522143D01*
X89576429Y-205379286D01*
X89576429Y-204807857D01*
X89647858Y-204665000D01*
X89790715Y-204593571D01*
X90076429Y-204593571D01*
X90219286Y-204665000D01*
X90290715Y-204807857D01*
X90290715Y-204950714D01*
X89576429Y-205093571D01*
X91576429Y-205522143D02*
X91433572Y-205593571D01*
X91147858Y-205593571D01*
X91005000Y-205522143D01*
X90933572Y-205450714D01*
X90862143Y-205307857D01*
X90862143Y-204879286D01*
X90933572Y-204736429D01*
X91005000Y-204665000D01*
X91147858Y-204593571D01*
X91433572Y-204593571D01*
X91576429Y-204665000D01*
X92433572Y-205593571D02*
X92290714Y-205522143D01*
X92219286Y-205450714D01*
X92147857Y-205307857D01*
X92147857Y-204879286D01*
X92219286Y-204736429D01*
X92290714Y-204665000D01*
X92433572Y-204593571D01*
X92647857Y-204593571D01*
X92790714Y-204665000D01*
X92862143Y-204736429D01*
X92933572Y-204879286D01*
X92933572Y-205307857D01*
X92862143Y-205450714D01*
X92790714Y-205522143D01*
X92647857Y-205593571D01*
X92433572Y-205593571D01*
X94219286Y-205593571D02*
X94219286Y-204093571D01*
X94219286Y-205522143D02*
X94076429Y-205593571D01*
X93790715Y-205593571D01*
X93647857Y-205522143D01*
X93576429Y-205450714D01*
X93505000Y-205307857D01*
X93505000Y-204879286D01*
X93576429Y-204736429D01*
X93647857Y-204665000D01*
X93790715Y-204593571D01*
X94076429Y-204593571D01*
X94219286Y-204665000D01*
X95505000Y-205522143D02*
X95362143Y-205593571D01*
X95076429Y-205593571D01*
X94933572Y-205522143D01*
X94862143Y-205379286D01*
X94862143Y-204807857D01*
X94933572Y-204665000D01*
X95076429Y-204593571D01*
X95362143Y-204593571D01*
X95505000Y-204665000D01*
X95576429Y-204807857D01*
X95576429Y-204950714D01*
X94862143Y-205093571D01*
X96219286Y-205593571D02*
X96219286Y-204593571D01*
X96219286Y-204879286D02*
X96290714Y-204736429D01*
X96362143Y-204665000D01*
X96505000Y-204593571D01*
X96647857Y-204593571D01*
X98790714Y-204807857D02*
X99005000Y-204879286D01*
X99076428Y-204950714D01*
X99147857Y-205093571D01*
X99147857Y-205307857D01*
X99076428Y-205450714D01*
X99005000Y-205522143D01*
X98862142Y-205593571D01*
X98290714Y-205593571D01*
X98290714Y-204093571D01*
X98790714Y-204093571D01*
X98933571Y-204165000D01*
X99005000Y-204236429D01*
X99076428Y-204379286D01*
X99076428Y-204522143D01*
X99005000Y-204665000D01*
X98933571Y-204736429D01*
X98790714Y-204807857D01*
X98290714Y-204807857D01*
X100005000Y-205593571D02*
X99862142Y-205522143D01*
X99790714Y-205450714D01*
X99719285Y-205307857D01*
X99719285Y-204879286D01*
X99790714Y-204736429D01*
X99862142Y-204665000D01*
X100005000Y-204593571D01*
X100219285Y-204593571D01*
X100362142Y-204665000D01*
X100433571Y-204736429D01*
X100505000Y-204879286D01*
X100505000Y-205307857D01*
X100433571Y-205450714D01*
X100362142Y-205522143D01*
X100219285Y-205593571D01*
X100005000Y-205593571D01*
X101790714Y-205593571D02*
X101790714Y-204807857D01*
X101719285Y-204665000D01*
X101576428Y-204593571D01*
X101290714Y-204593571D01*
X101147857Y-204665000D01*
X101790714Y-205522143D02*
X101647857Y-205593571D01*
X101290714Y-205593571D01*
X101147857Y-205522143D01*
X101076428Y-205379286D01*
X101076428Y-205236429D01*
X101147857Y-205093571D01*
X101290714Y-205022143D01*
X101647857Y-205022143D01*
X101790714Y-204950714D01*
X102505000Y-205593571D02*
X102505000Y-204593571D01*
X102505000Y-204879286D02*
X102576428Y-204736429D01*
X102647857Y-204665000D01*
X102790714Y-204593571D01*
X102933571Y-204593571D01*
X104076428Y-205593571D02*
X104076428Y-204093571D01*
X104076428Y-205522143D02*
X103933571Y-205593571D01*
X103647857Y-205593571D01*
X103504999Y-205522143D01*
X103433571Y-205450714D01*
X103362142Y-205307857D01*
X103362142Y-204879286D01*
X103433571Y-204736429D01*
X103504999Y-204665000D01*
X103647857Y-204593571D01*
X103933571Y-204593571D01*
X104076428Y-204665000D01*
X105790714Y-204593571D02*
X106147857Y-205593571D01*
X106504999Y-204593571D01*
X107862142Y-205593571D02*
X107004999Y-205593571D01*
X107433571Y-205593571D02*
X107433571Y-204093571D01*
X107290714Y-204307857D01*
X107147856Y-204450714D01*
X107004999Y-204522143D01*
X108504999Y-205450714D02*
X108576427Y-205522143D01*
X108504999Y-205593571D01*
X108433570Y-205522143D01*
X108504999Y-205450714D01*
X108504999Y-205593571D01*
X109504999Y-204093571D02*
X109647856Y-204093571D01*
X109790713Y-204165000D01*
X109862142Y-204236429D01*
X109933571Y-204379286D01*
X110004999Y-204665000D01*
X110004999Y-205022143D01*
X109933571Y-205307857D01*
X109862142Y-205450714D01*
X109790713Y-205522143D01*
X109647856Y-205593571D01*
X109504999Y-205593571D01*
X109362142Y-205522143D01*
X109290713Y-205450714D01*
X109219285Y-205307857D01*
X109147856Y-205022143D01*
X109147856Y-204665000D01*
X109219285Y-204379286D01*
X109290713Y-204236429D01*
X109362142Y-204165000D01*
X109504999Y-204093571D01*
X83262144Y-202950714D02*
X83190715Y-203022143D01*
X82976429Y-203093571D01*
X82833572Y-203093571D01*
X82619287Y-203022143D01*
X82476429Y-202879286D01*
X82405001Y-202736429D01*
X82333572Y-202450714D01*
X82333572Y-202236429D01*
X82405001Y-201950714D01*
X82476429Y-201807857D01*
X82619287Y-201665000D01*
X82833572Y-201593571D01*
X82976429Y-201593571D01*
X83190715Y-201665000D01*
X83262144Y-201736429D01*
X84547858Y-203093571D02*
X84547858Y-202307857D01*
X84476429Y-202165000D01*
X84333572Y-202093571D01*
X84047858Y-202093571D01*
X83905001Y-202165000D01*
X84547858Y-203022143D02*
X84405001Y-203093571D01*
X84047858Y-203093571D01*
X83905001Y-203022143D01*
X83833572Y-202879286D01*
X83833572Y-202736429D01*
X83905001Y-202593571D01*
X84047858Y-202522143D01*
X84405001Y-202522143D01*
X84547858Y-202450714D01*
X85262144Y-202093571D02*
X85262144Y-203093571D01*
X85262144Y-202236429D02*
X85333572Y-202165000D01*
X85476430Y-202093571D01*
X85690715Y-202093571D01*
X85833572Y-202165000D01*
X85905001Y-202307857D01*
X85905001Y-203093571D01*
X86619287Y-202093571D02*
X86619287Y-203093571D01*
X86619287Y-202236429D02*
X86690715Y-202165000D01*
X86833573Y-202093571D01*
X87047858Y-202093571D01*
X87190715Y-202165000D01*
X87262144Y-202307857D01*
X87262144Y-203093571D01*
X88547858Y-203022143D02*
X88405001Y-203093571D01*
X88119287Y-203093571D01*
X87976430Y-203022143D01*
X87905001Y-202879286D01*
X87905001Y-202307857D01*
X87976430Y-202165000D01*
X88119287Y-202093571D01*
X88405001Y-202093571D01*
X88547858Y-202165000D01*
X88619287Y-202307857D01*
X88619287Y-202450714D01*
X87905001Y-202593571D01*
X89905001Y-203093571D02*
X89905001Y-201593571D01*
X89905001Y-203022143D02*
X89762144Y-203093571D01*
X89476430Y-203093571D01*
X89333572Y-203022143D01*
X89262144Y-202950714D01*
X89190715Y-202807857D01*
X89190715Y-202379286D01*
X89262144Y-202236429D01*
X89333572Y-202165000D01*
X89476430Y-202093571D01*
X89762144Y-202093571D01*
X89905001Y-202165000D01*
X92262144Y-202307857D02*
X92476430Y-202379286D01*
X92547858Y-202450714D01*
X92619287Y-202593571D01*
X92619287Y-202807857D01*
X92547858Y-202950714D01*
X92476430Y-203022143D01*
X92333572Y-203093571D01*
X91762144Y-203093571D01*
X91762144Y-201593571D01*
X92262144Y-201593571D01*
X92405001Y-201665000D01*
X92476430Y-201736429D01*
X92547858Y-201879286D01*
X92547858Y-202022143D01*
X92476430Y-202165000D01*
X92405001Y-202236429D01*
X92262144Y-202307857D01*
X91762144Y-202307857D01*
X93119287Y-202093571D02*
X93476430Y-203093571D01*
X93833572Y-202093571D02*
X93476430Y-203093571D01*
X93333572Y-203450714D01*
X93262144Y-203522143D01*
X93119287Y-203593571D01*
X94190715Y-202093571D02*
X94762144Y-202093571D01*
X94405001Y-201593571D02*
X94405001Y-202879286D01*
X94476429Y-203022143D01*
X94619287Y-203093571D01*
X94762144Y-203093571D01*
X95833572Y-203022143D02*
X95690715Y-203093571D01*
X95405001Y-203093571D01*
X95262144Y-203022143D01*
X95190715Y-202879286D01*
X95190715Y-202307857D01*
X95262144Y-202165000D01*
X95405001Y-202093571D01*
X95690715Y-202093571D01*
X95833572Y-202165000D01*
X95905001Y-202307857D01*
X95905001Y-202450714D01*
X95190715Y-202593571D01*
X96476429Y-203022143D02*
X96619286Y-203093571D01*
X96905001Y-203093571D01*
X97047858Y-203022143D01*
X97119286Y-202879286D01*
X97119286Y-202807857D01*
X97047858Y-202665000D01*
X96905001Y-202593571D01*
X96690715Y-202593571D01*
X96547858Y-202522143D01*
X96476429Y-202379286D01*
X96476429Y-202307857D01*
X96547858Y-202165000D01*
X96690715Y-202093571D01*
X96905001Y-202093571D01*
X97047858Y-202165000D01*
X98833572Y-201736429D02*
X98905001Y-201665000D01*
X99047858Y-201593571D01*
X99405001Y-201593571D01*
X99547858Y-201665000D01*
X99619287Y-201736429D01*
X99690715Y-201879286D01*
X99690715Y-202022143D01*
X99619287Y-202236429D01*
X98762144Y-203093571D01*
X99690715Y-203093571D01*
X100619286Y-201593571D02*
X100762143Y-201593571D01*
X100905000Y-201665000D01*
X100976429Y-201736429D01*
X101047858Y-201879286D01*
X101119286Y-202165000D01*
X101119286Y-202522143D01*
X101047858Y-202807857D01*
X100976429Y-202950714D01*
X100905000Y-203022143D01*
X100762143Y-203093571D01*
X100619286Y-203093571D01*
X100476429Y-203022143D01*
X100405000Y-202950714D01*
X100333572Y-202807857D01*
X100262143Y-202522143D01*
X100262143Y-202165000D01*
X100333572Y-201879286D01*
X100405000Y-201736429D01*
X100476429Y-201665000D01*
X100619286Y-201593571D01*
X102547857Y-203093571D02*
X101690714Y-203093571D01*
X102119286Y-203093571D02*
X102119286Y-201593571D01*
X101976429Y-201807857D01*
X101833571Y-201950714D01*
X101690714Y-202022143D01*
X103833571Y-201593571D02*
X103547857Y-201593571D01*
X103405000Y-201665000D01*
X103333571Y-201736429D01*
X103190714Y-201950714D01*
X103119285Y-202236429D01*
X103119285Y-202807857D01*
X103190714Y-202950714D01*
X103262142Y-203022143D01*
X103405000Y-203093571D01*
X103690714Y-203093571D01*
X103833571Y-203022143D01*
X103905000Y-202950714D01*
X103976428Y-202807857D01*
X103976428Y-202450714D01*
X103905000Y-202307857D01*
X103833571Y-202236429D01*
X103690714Y-202165000D01*
X103405000Y-202165000D01*
X103262142Y-202236429D01*
X103190714Y-202307857D01*
X103119285Y-202450714D01*
X128305000Y-139057857D02*
X128233571Y-139200714D01*
X128233571Y-139415000D01*
X128305000Y-139629285D01*
X128447857Y-139772143D01*
X128590714Y-139843571D01*
X128876429Y-139915000D01*
X129090714Y-139915000D01*
X129376429Y-139843571D01*
X129519286Y-139772143D01*
X129662143Y-139629285D01*
X129733571Y-139415000D01*
X129733571Y-139272143D01*
X129662143Y-139057857D01*
X129590714Y-138986428D01*
X129090714Y-138986428D01*
X129090714Y-139272143D01*
X129733571Y-138343571D02*
X128233571Y-138343571D01*
X129733571Y-137486428D01*
X128233571Y-137486428D01*
X129733571Y-136772142D02*
X128233571Y-136772142D01*
X128233571Y-136414999D01*
X128305000Y-136200714D01*
X128447857Y-136057856D01*
X128590714Y-135986428D01*
X128876429Y-135914999D01*
X129090714Y-135914999D01*
X129376429Y-135986428D01*
X129519286Y-136057856D01*
X129662143Y-136200714D01*
X129733571Y-136414999D01*
X129733571Y-136772142D01*
X136562143Y-140043571D02*
X136562143Y-138900714D01*
X137133571Y-139472143D02*
X135990714Y-139472143D01*
X135633571Y-137472142D02*
X135633571Y-138186428D01*
X136347857Y-138257857D01*
X136276429Y-138186428D01*
X136205000Y-138043571D01*
X136205000Y-137686428D01*
X136276429Y-137543571D01*
X136347857Y-137472142D01*
X136490714Y-137400714D01*
X136847857Y-137400714D01*
X136990714Y-137472142D01*
X137062143Y-137543571D01*
X137133571Y-137686428D01*
X137133571Y-138043571D01*
X137062143Y-138186428D01*
X136990714Y-138257857D01*
X135633571Y-136972143D02*
X137133571Y-136472143D01*
X135633571Y-135972143D01*
X76647857Y-155072144D02*
X76647857Y-156215001D01*
X76076429Y-155643572D02*
X77219286Y-155643572D01*
X77576429Y-156786430D02*
X77576429Y-157715001D01*
X77005000Y-157215001D01*
X77005000Y-157429287D01*
X76933571Y-157572144D01*
X76862143Y-157643573D01*
X76719286Y-157715001D01*
X76362143Y-157715001D01*
X76219286Y-157643573D01*
X76147857Y-157572144D01*
X76076429Y-157429287D01*
X76076429Y-157000715D01*
X76147857Y-156857858D01*
X76219286Y-156786430D01*
X77576429Y-158143572D02*
X76076429Y-158643572D01*
X77576429Y-159143572D01*
X77576429Y-159500715D02*
X77576429Y-160429286D01*
X77005000Y-159929286D01*
X77005000Y-160143572D01*
X76933571Y-160286429D01*
X76862143Y-160357858D01*
X76719286Y-160429286D01*
X76362143Y-160429286D01*
X76219286Y-160357858D01*
X76147857Y-160286429D01*
X76076429Y-160143572D01*
X76076429Y-159715000D01*
X76147857Y-159572143D01*
X76219286Y-159500715D01*
X82247857Y-193286429D02*
X82247857Y-194429286D01*
X81676429Y-193857857D02*
X82819286Y-193857857D01*
X83176429Y-195857858D02*
X83176429Y-195143572D01*
X82462143Y-195072143D01*
X82533571Y-195143572D01*
X82605000Y-195286429D01*
X82605000Y-195643572D01*
X82533571Y-195786429D01*
X82462143Y-195857858D01*
X82319286Y-195929286D01*
X81962143Y-195929286D01*
X81819286Y-195857858D01*
X81747857Y-195786429D01*
X81676429Y-195643572D01*
X81676429Y-195286429D01*
X81747857Y-195143572D01*
X81819286Y-195072143D01*
X83176429Y-196357857D02*
X81676429Y-196857857D01*
X83176429Y-197357857D01*
X122347857Y-148872144D02*
X122347857Y-150015001D01*
X121776429Y-149443572D02*
X122919286Y-149443572D01*
X123276429Y-150586430D02*
X123276429Y-151515001D01*
X122705000Y-151015001D01*
X122705000Y-151229287D01*
X122633571Y-151372144D01*
X122562143Y-151443573D01*
X122419286Y-151515001D01*
X122062143Y-151515001D01*
X121919286Y-151443573D01*
X121847857Y-151372144D01*
X121776429Y-151229287D01*
X121776429Y-150800715D01*
X121847857Y-150657858D01*
X121919286Y-150586430D01*
X123276429Y-151943572D02*
X121776429Y-152443572D01*
X123276429Y-152943572D01*
X123276429Y-153300715D02*
X123276429Y-154229286D01*
X122705000Y-153729286D01*
X122705000Y-153943572D01*
X122633571Y-154086429D01*
X122562143Y-154157858D01*
X122419286Y-154229286D01*
X122062143Y-154229286D01*
X121919286Y-154157858D01*
X121847857Y-154086429D01*
X121776429Y-153943572D01*
X121776429Y-153515000D01*
X121847857Y-153372143D01*
X121919286Y-153300715D01*
X128246429Y-209022143D02*
X129389286Y-209022143D01*
X128817857Y-209593571D02*
X128817857Y-208450714D01*
X130817858Y-208093571D02*
X130103572Y-208093571D01*
X130032143Y-208807857D01*
X130103572Y-208736429D01*
X130246429Y-208665000D01*
X130603572Y-208665000D01*
X130746429Y-208736429D01*
X130817858Y-208807857D01*
X130889286Y-208950714D01*
X130889286Y-209307857D01*
X130817858Y-209450714D01*
X130746429Y-209522143D01*
X130603572Y-209593571D01*
X130246429Y-209593571D01*
X130103572Y-209522143D01*
X130032143Y-209450714D01*
X131317857Y-208093571D02*
X131817857Y-209593571D01*
X132317857Y-208093571D01*
D12*
X53721000Y-229235000D02*
G75*
G03X53721000Y-229235000I-2286000J0D01*
G01*
D10*
X125095000Y-234420000D02*
X66675000Y-234420000D01*
X124555000Y-233870000D02*
X67235000Y-233870000D01*
X125095000Y-225320000D02*
X66675000Y-225320000D01*
X124555000Y-225870000D02*
X98135000Y-225870000D01*
X93635000Y-225870000D02*
X67235000Y-225870000D01*
X98135000Y-225870000D02*
X98135000Y-225320000D01*
X93635000Y-225870000D02*
X93635000Y-225320000D01*
X125095000Y-234420000D02*
X125095000Y-225320000D01*
X124555000Y-233870000D02*
X124555000Y-225870000D01*
X66675000Y-234420000D02*
X66675000Y-225320000D01*
X67235000Y-233870000D02*
X67235000Y-225870000D01*
X125095000Y-234420000D02*
X124555000Y-233870000D01*
X66675000Y-234420000D02*
X67235000Y-233870000D01*
X125095000Y-225320000D02*
X124555000Y-225870000D01*
X66675000Y-225320000D02*
X67235000Y-225870000D01*
D12*
X143256000Y-139700000D02*
G75*
G03X143256000Y-139700000I-2286000J0D01*
G01*
X53721000Y-139700000D02*
G75*
G03X53721000Y-139700000I-2286000J0D01*
G01*
X143256000Y-229235000D02*
G75*
G03X143256000Y-229235000I-2286000J0D01*
G01*
D10*
X135255000Y-136525000D02*
X130175000Y-136525000D01*
X135255000Y-140970000D02*
X130175000Y-140970000D01*
X130175000Y-134620000D02*
X135255000Y-134620000D01*
X130175000Y-134620000D02*
X130175000Y-140970000D01*
X135255000Y-134620000D02*
X135255000Y-140970000D01*
X146155000Y-204470000D02*
X146155000Y-224790000D01*
X145605000Y-205010000D02*
X145605000Y-224230000D01*
X137055000Y-204470000D02*
X137055000Y-224790000D01*
X137605000Y-205010000D02*
X137605000Y-212380000D01*
X137605000Y-216880000D02*
X137605000Y-224230000D01*
X137605000Y-212380000D02*
X137055000Y-212380000D01*
X137605000Y-216880000D02*
X137055000Y-216880000D01*
X146155000Y-204470000D02*
X137055000Y-204470000D01*
X145605000Y-205010000D02*
X137605000Y-205010000D01*
X146155000Y-224790000D02*
X137055000Y-224790000D01*
X145605000Y-224230000D02*
X137605000Y-224230000D01*
X146155000Y-204470000D02*
X145605000Y-205010000D01*
X146155000Y-224790000D02*
X145605000Y-224230000D01*
X137055000Y-204470000D02*
X137605000Y-205010000D01*
X137055000Y-224790000D02*
X137605000Y-224230000D01*
X85808728Y-184150000D02*
X86346130Y-184687401D01*
X95885000Y-174073728D02*
X96422401Y-174611130D01*
X105961272Y-184150000D02*
X105423870Y-183612599D01*
X95885000Y-194226272D02*
X95347599Y-193688870D01*
X85808728Y-184150000D02*
X86346130Y-183612599D01*
X95885000Y-194226272D02*
X96422401Y-193688870D01*
X105961272Y-184150000D02*
X105423870Y-184687401D01*
X95885000Y-174073728D02*
X95347599Y-174611130D01*
X86346130Y-184687401D02*
X85267792Y-185765739D01*
X127254920Y-149214340D02*
X127006000Y-149514060D01*
X127006000Y-149514060D02*
X126904400Y-149663920D01*
X126904400Y-149663920D02*
X126904400Y-148815560D01*
X127605440Y-150715480D02*
X127605440Y-148914620D01*
X127605440Y-150715480D02*
X126955200Y-150715480D01*
X123104560Y-150715480D02*
X123104560Y-148914620D01*
X123104560Y-150715480D02*
X123754800Y-150715480D01*
X136054260Y-143064820D02*
X132655740Y-143064820D01*
X132655740Y-151314740D02*
X132655740Y-145315260D01*
X136054260Y-151314740D02*
X136054260Y-145315260D01*
X137057560Y-142561900D02*
X135957740Y-142561900D01*
X136557180Y-141962460D02*
X136557180Y-143161340D01*
X125005000Y-154715000D02*
X125705000Y-154715000D01*
X125705000Y-155915000D02*
X125005000Y-155915000D01*
X130005000Y-154715000D02*
X130705000Y-154715000D01*
X130705000Y-155915000D02*
X130005000Y-155915000D01*
X132054260Y-143064820D02*
X128655740Y-143064820D01*
X128655740Y-151314740D02*
X128655740Y-145315260D01*
X132054260Y-151314740D02*
X132054260Y-145315260D01*
X133057560Y-142561900D02*
X131957740Y-142561900D01*
X132557180Y-141962460D02*
X132557180Y-143161340D01*
X66675000Y-134515000D02*
X125095000Y-134515000D01*
X67215000Y-135065000D02*
X124535000Y-135065000D01*
X66675000Y-143615000D02*
X125095000Y-143615000D01*
X67215000Y-143065000D02*
X93635000Y-143065000D01*
X98135000Y-143065000D02*
X124535000Y-143065000D01*
X93635000Y-143065000D02*
X93635000Y-143615000D01*
X98135000Y-143065000D02*
X98135000Y-143615000D01*
X66675000Y-134515000D02*
X66675000Y-143615000D01*
X67215000Y-135065000D02*
X67215000Y-143065000D01*
X125095000Y-134515000D02*
X125095000Y-143615000D01*
X124535000Y-135065000D02*
X124535000Y-143065000D01*
X66675000Y-134515000D02*
X67215000Y-135065000D01*
X125095000Y-134515000D02*
X124535000Y-135065000D01*
X66675000Y-143615000D02*
X67215000Y-143065000D01*
X125095000Y-143615000D02*
X124535000Y-143065000D01*
X146155000Y-144780000D02*
X146155000Y-203200000D01*
X145605000Y-145320000D02*
X145605000Y-202640000D01*
X137055000Y-144780000D02*
X137055000Y-203200000D01*
X137605000Y-145320000D02*
X137605000Y-171740000D01*
X137605000Y-176240000D02*
X137605000Y-202640000D01*
X137605000Y-171740000D02*
X137055000Y-171740000D01*
X137605000Y-176240000D02*
X137055000Y-176240000D01*
X146155000Y-144780000D02*
X137055000Y-144780000D01*
X145605000Y-145320000D02*
X137605000Y-145320000D01*
X146155000Y-203200000D02*
X137055000Y-203200000D01*
X145605000Y-202640000D02*
X137605000Y-202640000D01*
X146155000Y-144780000D02*
X145605000Y-145320000D01*
X146155000Y-203200000D02*
X145605000Y-202640000D01*
X137055000Y-144780000D02*
X137605000Y-145320000D01*
X137055000Y-203200000D02*
X137605000Y-202640000D01*
X104450000Y-154575000D02*
X104450000Y-155575000D01*
X103100000Y-155575000D02*
X103100000Y-154575000D01*
X103180000Y-150130000D02*
X103180000Y-151130000D01*
X101830000Y-151130000D02*
X101830000Y-150130000D01*
X101910000Y-154575000D02*
X101910000Y-155575000D01*
X100560000Y-155575000D02*
X100560000Y-154575000D01*
X100640000Y-150130000D02*
X100640000Y-151130000D01*
X99290000Y-151130000D02*
X99290000Y-150130000D01*
X99370000Y-154575000D02*
X99370000Y-155575000D01*
X98020000Y-155575000D02*
X98020000Y-154575000D01*
X98100000Y-150130000D02*
X98100000Y-151130000D01*
X96750000Y-151130000D02*
X96750000Y-150130000D01*
X96830000Y-154575000D02*
X96830000Y-155575000D01*
X95480000Y-155575000D02*
X95480000Y-154575000D01*
X95560000Y-150130000D02*
X95560000Y-151130000D01*
X94210000Y-151130000D02*
X94210000Y-150130000D01*
X94290000Y-154575000D02*
X94290000Y-155575000D01*
X92940000Y-155575000D02*
X92940000Y-154575000D01*
X93020000Y-150130000D02*
X93020000Y-151130000D01*
X91670000Y-151130000D02*
X91670000Y-150130000D01*
X91750000Y-154710000D02*
X91750000Y-155710000D01*
X90400000Y-155710000D02*
X90400000Y-154710000D01*
X90480000Y-150130000D02*
X90480000Y-151130000D01*
X89130000Y-151130000D02*
X89130000Y-150130000D01*
X89210000Y-154710000D02*
X89210000Y-155710000D01*
X87860000Y-155710000D02*
X87860000Y-154710000D01*
X87940000Y-150130000D02*
X87940000Y-151130000D01*
X86590000Y-151130000D02*
X86590000Y-150130000D01*
X86670000Y-154710000D02*
X86670000Y-155710000D01*
X85320000Y-155710000D02*
X85320000Y-154710000D01*
X85400000Y-150130000D02*
X85400000Y-151130000D01*
X84050000Y-151130000D02*
X84050000Y-150130000D01*
X84130000Y-154710000D02*
X84130000Y-155710000D01*
X82780000Y-155710000D02*
X82780000Y-154710000D01*
X82860000Y-150130000D02*
X82860000Y-151130000D01*
X81510000Y-151130000D02*
X81510000Y-150130000D01*
X81590000Y-154710000D02*
X81590000Y-155710000D01*
X80240000Y-155710000D02*
X80240000Y-154710000D01*
X80320000Y-150130000D02*
X80320000Y-151130000D01*
X78970000Y-151130000D02*
X78970000Y-150130000D01*
X124655000Y-207390000D02*
X123655000Y-207390000D01*
X123655000Y-206040000D02*
X124655000Y-206040000D01*
X128655000Y-205890000D02*
X127655000Y-205890000D01*
X127655000Y-204540000D02*
X128655000Y-204540000D01*
X124655000Y-204390000D02*
X123655000Y-204390000D01*
X123655000Y-203040000D02*
X124655000Y-203040000D01*
X128655000Y-202890000D02*
X127655000Y-202890000D01*
X127655000Y-201540000D02*
X128655000Y-201540000D01*
X124655000Y-201390000D02*
X123655000Y-201390000D01*
X123655000Y-200040000D02*
X124655000Y-200040000D01*
X128655000Y-199890000D02*
X127655000Y-199890000D01*
X127655000Y-198540000D02*
X128655000Y-198540000D01*
X124555000Y-198390000D02*
X123555000Y-198390000D01*
X123555000Y-197040000D02*
X124555000Y-197040000D01*
X128655000Y-196890000D02*
X127655000Y-196890000D01*
X127655000Y-195540000D02*
X128655000Y-195540000D01*
X124655000Y-195390000D02*
X123655000Y-195390000D01*
X123655000Y-194040000D02*
X124655000Y-194040000D01*
X128655000Y-193890000D02*
X127655000Y-193890000D01*
X127655000Y-192540000D02*
X128655000Y-192540000D01*
X124655000Y-192390000D02*
X123655000Y-192390000D01*
X123655000Y-191040000D02*
X124655000Y-191040000D01*
X128655000Y-190890000D02*
X127655000Y-190890000D01*
X127655000Y-189540000D02*
X128655000Y-189540000D01*
X124655000Y-189390000D02*
X123655000Y-189390000D01*
X123655000Y-188040000D02*
X124655000Y-188040000D01*
X127655000Y-186540000D02*
X128655000Y-186540000D01*
X128655000Y-187890000D02*
X127655000Y-187890000D01*
X123655000Y-185040000D02*
X124655000Y-185040000D01*
X124655000Y-186390000D02*
X123655000Y-186390000D01*
X127655000Y-183540000D02*
X128655000Y-183540000D01*
X128655000Y-184890000D02*
X127655000Y-184890000D01*
X123655000Y-182040000D02*
X124655000Y-182040000D01*
X124655000Y-183390000D02*
X123655000Y-183390000D01*
X127655000Y-180540000D02*
X128655000Y-180540000D01*
X128655000Y-181890000D02*
X127655000Y-181890000D01*
X82580000Y-213715000D02*
X82580000Y-212715000D01*
X83930000Y-212715000D02*
X83930000Y-213715000D01*
X85430000Y-216915000D02*
X85430000Y-217915000D01*
X84080000Y-217915000D02*
X84080000Y-216915000D01*
X86930000Y-212715000D02*
X86930000Y-213715000D01*
X85580000Y-213715000D02*
X85580000Y-212715000D01*
X88430000Y-216915000D02*
X88430000Y-217915000D01*
X87080000Y-217915000D02*
X87080000Y-216915000D01*
X89930000Y-212715000D02*
X89930000Y-213715000D01*
X88580000Y-213715000D02*
X88580000Y-212715000D01*
X91430000Y-216915000D02*
X91430000Y-217915000D01*
X90080000Y-217915000D02*
X90080000Y-216915000D01*
X92930000Y-212715000D02*
X92930000Y-213715000D01*
X91580000Y-213715000D02*
X91580000Y-212715000D01*
X94430000Y-216915000D02*
X94430000Y-217915000D01*
X93080000Y-217915000D02*
X93080000Y-216915000D01*
X96520000Y-220915000D02*
X96520000Y-221915000D01*
X95170000Y-221915000D02*
X95170000Y-220915000D01*
X98020000Y-216215000D02*
X98020000Y-217215000D01*
X96670000Y-217215000D02*
X96670000Y-216215000D01*
X99520000Y-220915000D02*
X99520000Y-221915000D01*
X98170000Y-221915000D02*
X98170000Y-220915000D01*
X101020000Y-216215000D02*
X101020000Y-217215000D01*
X99670000Y-217215000D02*
X99670000Y-216215000D01*
X102520000Y-220915000D02*
X102520000Y-221915000D01*
X101170000Y-221915000D02*
X101170000Y-220915000D01*
X104020000Y-216215000D02*
X104020000Y-217215000D01*
X102670000Y-217215000D02*
X102670000Y-216215000D01*
X105520000Y-220915000D02*
X105520000Y-221915000D01*
X104170000Y-221915000D02*
X104170000Y-220915000D01*
X107020000Y-216215000D02*
X107020000Y-217215000D01*
X105670000Y-217215000D02*
X105670000Y-216215000D01*
X108520000Y-220915000D02*
X108520000Y-221915000D01*
X107170000Y-221915000D02*
X107170000Y-220915000D01*
X110020000Y-216215000D02*
X110020000Y-217215000D01*
X108670000Y-217215000D02*
X108670000Y-216215000D01*
X111520000Y-220915000D02*
X111520000Y-221915000D01*
X110170000Y-221915000D02*
X110170000Y-220915000D01*
X113020000Y-216215000D02*
X113020000Y-217215000D01*
X111670000Y-217215000D02*
X111670000Y-216215000D01*
X113170000Y-221915000D02*
X113170000Y-220915000D01*
X114520000Y-220915000D02*
X114520000Y-221915000D01*
X114670000Y-217215000D02*
X114670000Y-216215000D01*
X116020000Y-216215000D02*
X116020000Y-217215000D01*
X116170000Y-221915000D02*
X116170000Y-220915000D01*
X117520000Y-220915000D02*
X117520000Y-221915000D01*
X117670000Y-217215000D02*
X117670000Y-216215000D01*
X119020000Y-216215000D02*
X119020000Y-217215000D01*
X119170000Y-221915000D02*
X119170000Y-220915000D01*
X120520000Y-220915000D02*
X120520000Y-221915000D01*
X120670000Y-217215000D02*
X120670000Y-216215000D01*
X122020000Y-216215000D02*
X122020000Y-217215000D01*
X105680000Y-155615000D02*
X105680000Y-154615000D01*
X107030000Y-154615000D02*
X107030000Y-155615000D01*
X104380000Y-151115000D02*
X104380000Y-150115000D01*
X105730000Y-150115000D02*
X105730000Y-151115000D01*
X134305000Y-206115000D02*
X135005000Y-206115000D01*
X135005000Y-207315000D02*
X134305000Y-207315000D01*
X123707381Y-232229286D02*
X122707381Y-232229286D01*
X123183571Y-232229286D02*
X123183571Y-231657857D01*
X123707381Y-231657857D02*
X122707381Y-231657857D01*
X123707381Y-231181667D02*
X122707381Y-231181667D01*
X122707381Y-230943572D01*
X122755000Y-230800714D01*
X122850238Y-230705476D01*
X122945476Y-230657857D01*
X123135952Y-230610238D01*
X123278810Y-230610238D01*
X123469286Y-230657857D01*
X123564524Y-230705476D01*
X123659762Y-230800714D01*
X123707381Y-230943572D01*
X123707381Y-231181667D01*
X123707381Y-229610238D02*
X123231190Y-229943572D01*
X123707381Y-230181667D02*
X122707381Y-230181667D01*
X122707381Y-229800714D01*
X122755000Y-229705476D01*
X122802619Y-229657857D01*
X122897857Y-229610238D01*
X123040714Y-229610238D01*
X123135952Y-229657857D01*
X123183571Y-229705476D01*
X123231190Y-229800714D01*
X123231190Y-230181667D01*
X122802619Y-229229286D02*
X122755000Y-229181667D01*
X122707381Y-229086429D01*
X122707381Y-228848333D01*
X122755000Y-228753095D01*
X122802619Y-228705476D01*
X122897857Y-228657857D01*
X122993095Y-228657857D01*
X123135952Y-228705476D01*
X123707381Y-229276905D01*
X123707381Y-228657857D01*
X122707381Y-228038810D02*
X122707381Y-227943571D01*
X122755000Y-227848333D01*
X122802619Y-227800714D01*
X122897857Y-227753095D01*
X123088333Y-227705476D01*
X123326429Y-227705476D01*
X123516905Y-227753095D01*
X123612143Y-227800714D01*
X123659762Y-227848333D01*
X123707381Y-227943571D01*
X123707381Y-228038810D01*
X123659762Y-228134048D01*
X123612143Y-228181667D01*
X123516905Y-228229286D01*
X123326429Y-228276905D01*
X123088333Y-228276905D01*
X122897857Y-228229286D01*
X122802619Y-228181667D01*
X122755000Y-228134048D01*
X122707381Y-228038810D01*
X122802619Y-227324524D02*
X122755000Y-227276905D01*
X122707381Y-227181667D01*
X122707381Y-226943571D01*
X122755000Y-226848333D01*
X122802619Y-226800714D01*
X122897857Y-226753095D01*
X122993095Y-226753095D01*
X123135952Y-226800714D01*
X123707381Y-227372143D01*
X123707381Y-226753095D01*
X67083572Y-224243571D02*
X67226429Y-224291190D01*
X67274048Y-224338810D01*
X67321667Y-224434048D01*
X67321667Y-224576905D01*
X67274048Y-224672143D01*
X67226429Y-224719762D01*
X67131191Y-224767381D01*
X66750238Y-224767381D01*
X66750238Y-223767381D01*
X67083572Y-223767381D01*
X67178810Y-223815000D01*
X67226429Y-223862619D01*
X67274048Y-223957857D01*
X67274048Y-224053095D01*
X67226429Y-224148333D01*
X67178810Y-224195952D01*
X67083572Y-224243571D01*
X66750238Y-224243571D01*
X67750238Y-223767381D02*
X67750238Y-224576905D01*
X67797857Y-224672143D01*
X67845476Y-224719762D01*
X67940714Y-224767381D01*
X68131191Y-224767381D01*
X68226429Y-224719762D01*
X68274048Y-224672143D01*
X68321667Y-224576905D01*
X68321667Y-223767381D01*
X68750238Y-224719762D02*
X68893095Y-224767381D01*
X69131191Y-224767381D01*
X69226429Y-224719762D01*
X69274048Y-224672143D01*
X69321667Y-224576905D01*
X69321667Y-224481667D01*
X69274048Y-224386429D01*
X69226429Y-224338810D01*
X69131191Y-224291190D01*
X68940714Y-224243571D01*
X68845476Y-224195952D01*
X68797857Y-224148333D01*
X68750238Y-224053095D01*
X68750238Y-223957857D01*
X68797857Y-223862619D01*
X68845476Y-223815000D01*
X68940714Y-223767381D01*
X69178810Y-223767381D01*
X69321667Y-223815000D01*
X69750238Y-224767381D02*
X69750238Y-223767381D01*
X69750238Y-224243571D02*
X70321667Y-224243571D01*
X70321667Y-224767381D02*
X70321667Y-223767381D01*
X70797857Y-224767381D02*
X70797857Y-223767381D01*
X71035952Y-223767381D01*
X71178810Y-223815000D01*
X71274048Y-223910238D01*
X71321667Y-224005476D01*
X71369286Y-224195952D01*
X71369286Y-224338810D01*
X71321667Y-224529286D01*
X71274048Y-224624524D01*
X71178810Y-224719762D01*
X71035952Y-224767381D01*
X70797857Y-224767381D01*
X72369286Y-224767381D02*
X72035952Y-224291190D01*
X71797857Y-224767381D02*
X71797857Y-223767381D01*
X72178810Y-223767381D01*
X72274048Y-223815000D01*
X72321667Y-223862619D01*
X72369286Y-223957857D01*
X72369286Y-224100714D01*
X72321667Y-224195952D01*
X72274048Y-224243571D01*
X72178810Y-224291190D01*
X71797857Y-224291190D01*
X72797857Y-224386429D02*
X73559762Y-224386429D01*
X74369286Y-224243571D02*
X74512143Y-224291190D01*
X74559762Y-224338810D01*
X74607381Y-224434048D01*
X74607381Y-224576905D01*
X74559762Y-224672143D01*
X74512143Y-224719762D01*
X74416905Y-224767381D01*
X74035952Y-224767381D01*
X74035952Y-223767381D01*
X74369286Y-223767381D01*
X74464524Y-223815000D01*
X74512143Y-223862619D01*
X74559762Y-223957857D01*
X74559762Y-224053095D01*
X74512143Y-224148333D01*
X74464524Y-224195952D01*
X74369286Y-224243571D01*
X74035952Y-224243571D01*
X132064524Y-142167381D02*
X132064524Y-141167381D01*
X132445477Y-141167381D01*
X132540715Y-141215000D01*
X132588334Y-141262619D01*
X132635953Y-141357857D01*
X132635953Y-141500714D01*
X132588334Y-141595952D01*
X132540715Y-141643571D01*
X132445477Y-141691190D01*
X132064524Y-141691190D01*
X133016905Y-141262619D02*
X133064524Y-141215000D01*
X133159762Y-141167381D01*
X133397858Y-141167381D01*
X133493096Y-141215000D01*
X133540715Y-141262619D01*
X133588334Y-141357857D01*
X133588334Y-141453095D01*
X133540715Y-141595952D01*
X132969286Y-142167381D01*
X133588334Y-142167381D01*
X134207381Y-141167381D02*
X134302620Y-141167381D01*
X134397858Y-141215000D01*
X134445477Y-141262619D01*
X134493096Y-141357857D01*
X134540715Y-141548333D01*
X134540715Y-141786429D01*
X134493096Y-141976905D01*
X134445477Y-142072143D01*
X134397858Y-142119762D01*
X134302620Y-142167381D01*
X134207381Y-142167381D01*
X134112143Y-142119762D01*
X134064524Y-142072143D01*
X134016905Y-141976905D01*
X133969286Y-141786429D01*
X133969286Y-141548333D01*
X134016905Y-141357857D01*
X134064524Y-141262619D01*
X134112143Y-141215000D01*
X134207381Y-141167381D01*
X135493096Y-142167381D02*
X134921667Y-142167381D01*
X135207381Y-142167381D02*
X135207381Y-141167381D01*
X135112143Y-141310238D01*
X135016905Y-141405476D01*
X134921667Y-141453095D01*
X138664524Y-206567381D02*
X138664524Y-205567381D01*
X139045477Y-205567381D01*
X139140715Y-205615000D01*
X139188334Y-205662619D01*
X139235953Y-205757857D01*
X139235953Y-205900714D01*
X139188334Y-205995952D01*
X139140715Y-206043571D01*
X139045477Y-206091190D01*
X138664524Y-206091190D01*
X139616905Y-205662619D02*
X139664524Y-205615000D01*
X139759762Y-205567381D01*
X139997858Y-205567381D01*
X140093096Y-205615000D01*
X140140715Y-205662619D01*
X140188334Y-205757857D01*
X140188334Y-205853095D01*
X140140715Y-205995952D01*
X139569286Y-206567381D01*
X140188334Y-206567381D01*
X140807381Y-205567381D02*
X140902620Y-205567381D01*
X140997858Y-205615000D01*
X141045477Y-205662619D01*
X141093096Y-205757857D01*
X141140715Y-205948333D01*
X141140715Y-206186429D01*
X141093096Y-206376905D01*
X141045477Y-206472143D01*
X140997858Y-206519762D01*
X140902620Y-206567381D01*
X140807381Y-206567381D01*
X140712143Y-206519762D01*
X140664524Y-206472143D01*
X140616905Y-206376905D01*
X140569286Y-206186429D01*
X140569286Y-205948333D01*
X140616905Y-205757857D01*
X140664524Y-205662619D01*
X140712143Y-205615000D01*
X140807381Y-205567381D01*
X141521667Y-205662619D02*
X141569286Y-205615000D01*
X141664524Y-205567381D01*
X141902620Y-205567381D01*
X141997858Y-205615000D01*
X142045477Y-205662619D01*
X142093096Y-205757857D01*
X142093096Y-205853095D01*
X142045477Y-205995952D01*
X141474048Y-206567381D01*
X142093096Y-206567381D01*
X142588334Y-225267381D02*
X142588334Y-225981667D01*
X142540714Y-226124524D01*
X142445476Y-226219762D01*
X142302619Y-226267381D01*
X142207381Y-226267381D01*
X142921667Y-225267381D02*
X143493096Y-225267381D01*
X143207381Y-226267381D02*
X143207381Y-225267381D01*
X143778810Y-225981667D02*
X144255001Y-225981667D01*
X143683572Y-226267381D02*
X144016905Y-225267381D01*
X144350239Y-226267381D01*
X145207382Y-225315000D02*
X145112144Y-225267381D01*
X144969287Y-225267381D01*
X144826429Y-225315000D01*
X144731191Y-225410238D01*
X144683572Y-225505476D01*
X144635953Y-225695952D01*
X144635953Y-225838810D01*
X144683572Y-226029286D01*
X144731191Y-226124524D01*
X144826429Y-226219762D01*
X144969287Y-226267381D01*
X145064525Y-226267381D01*
X145207382Y-226219762D01*
X145255001Y-226172143D01*
X145255001Y-225838810D01*
X145064525Y-225838810D01*
X87462012Y-178151378D02*
X88034432Y-178723798D01*
X88135447Y-178757470D01*
X88202790Y-178757470D01*
X88303805Y-178723798D01*
X88438493Y-178589110D01*
X88472165Y-178488095D01*
X88472165Y-178420752D01*
X88438493Y-178319737D01*
X87866073Y-177747317D01*
X88236462Y-177511615D02*
X88236462Y-177444271D01*
X88270134Y-177343256D01*
X88438493Y-177174897D01*
X88539508Y-177141225D01*
X88606851Y-177141225D01*
X88707867Y-177174897D01*
X88775210Y-177242240D01*
X88842553Y-177376927D01*
X88842553Y-178185050D01*
X89280287Y-177747317D01*
X89010912Y-176602478D02*
X89078256Y-176535134D01*
X89179271Y-176501462D01*
X89246615Y-176501462D01*
X89347630Y-176535134D01*
X89515989Y-176636149D01*
X89684348Y-176804508D01*
X89785363Y-176972867D01*
X89819035Y-177073882D01*
X89819035Y-177141225D01*
X89785363Y-177242240D01*
X89718019Y-177309584D01*
X89617004Y-177343256D01*
X89549660Y-177343256D01*
X89448645Y-177309584D01*
X89280287Y-177208569D01*
X89111927Y-177040210D01*
X89010912Y-176871851D01*
X88977240Y-176770836D01*
X88977240Y-176703493D01*
X89010912Y-176602478D01*
X90627157Y-176400447D02*
X90223095Y-176804508D01*
X90425126Y-176602478D02*
X89718019Y-175895371D01*
X89751691Y-176063730D01*
X89751691Y-176198416D01*
X89718019Y-176299432D01*
X123840714Y-144267381D02*
X123840714Y-145076905D01*
X123888333Y-145172143D01*
X123935952Y-145219762D01*
X124031190Y-145267381D01*
X124221667Y-145267381D01*
X124316905Y-145219762D01*
X124364524Y-145172143D01*
X124412143Y-145076905D01*
X124412143Y-144267381D01*
X124840714Y-144362619D02*
X124888333Y-144315000D01*
X124983571Y-144267381D01*
X125221667Y-144267381D01*
X125316905Y-144315000D01*
X125364524Y-144362619D01*
X125412143Y-144457857D01*
X125412143Y-144553095D01*
X125364524Y-144695952D01*
X124793095Y-145267381D01*
X125412143Y-145267381D01*
X126031190Y-144267381D02*
X126126429Y-144267381D01*
X126221667Y-144315000D01*
X126269286Y-144362619D01*
X126316905Y-144457857D01*
X126364524Y-144648333D01*
X126364524Y-144886429D01*
X126316905Y-145076905D01*
X126269286Y-145172143D01*
X126221667Y-145219762D01*
X126126429Y-145267381D01*
X126031190Y-145267381D01*
X125935952Y-145219762D01*
X125888333Y-145172143D01*
X125840714Y-145076905D01*
X125793095Y-144886429D01*
X125793095Y-144648333D01*
X125840714Y-144457857D01*
X125888333Y-144362619D01*
X125935952Y-144315000D01*
X126031190Y-144267381D01*
X126745476Y-144362619D02*
X126793095Y-144315000D01*
X126888333Y-144267381D01*
X127126429Y-144267381D01*
X127221667Y-144315000D01*
X127269286Y-144362619D01*
X127316905Y-144457857D01*
X127316905Y-144553095D01*
X127269286Y-144695952D01*
X126697857Y-145267381D01*
X127316905Y-145267381D01*
X137635953Y-144072143D02*
X137588334Y-144119762D01*
X137445477Y-144167381D01*
X137350239Y-144167381D01*
X137207381Y-144119762D01*
X137112143Y-144024524D01*
X137064524Y-143929286D01*
X137016905Y-143738810D01*
X137016905Y-143595952D01*
X137064524Y-143405476D01*
X137112143Y-143310238D01*
X137207381Y-143215000D01*
X137350239Y-143167381D01*
X137445477Y-143167381D01*
X137588334Y-143215000D01*
X137635953Y-143262619D01*
X138588334Y-144167381D02*
X138016905Y-144167381D01*
X138302619Y-144167381D02*
X138302619Y-143167381D01*
X138207381Y-143310238D01*
X138112143Y-143405476D01*
X138016905Y-143453095D01*
X139207381Y-143167381D02*
X139302620Y-143167381D01*
X139397858Y-143215000D01*
X139445477Y-143262619D01*
X139493096Y-143357857D01*
X139540715Y-143548333D01*
X139540715Y-143786429D01*
X139493096Y-143976905D01*
X139445477Y-144072143D01*
X139397858Y-144119762D01*
X139302620Y-144167381D01*
X139207381Y-144167381D01*
X139112143Y-144119762D01*
X139064524Y-144072143D01*
X139016905Y-143976905D01*
X138969286Y-143786429D01*
X138969286Y-143548333D01*
X139016905Y-143357857D01*
X139064524Y-143262619D01*
X139112143Y-143215000D01*
X139207381Y-143167381D01*
X140493096Y-144167381D02*
X139921667Y-144167381D01*
X140207381Y-144167381D02*
X140207381Y-143167381D01*
X140112143Y-143310238D01*
X140016905Y-143405476D01*
X139921667Y-143453095D01*
X136626069Y-142945392D02*
X136626069Y-142183487D01*
X137007021Y-142564439D02*
X136245116Y-142564439D01*
X124235953Y-157072143D02*
X124188334Y-157119762D01*
X124045477Y-157167381D01*
X123950239Y-157167381D01*
X123807381Y-157119762D01*
X123712143Y-157024524D01*
X123664524Y-156929286D01*
X123616905Y-156738810D01*
X123616905Y-156595952D01*
X123664524Y-156405476D01*
X123712143Y-156310238D01*
X123807381Y-156215000D01*
X123950239Y-156167381D01*
X124045477Y-156167381D01*
X124188334Y-156215000D01*
X124235953Y-156262619D01*
X125188334Y-157167381D02*
X124616905Y-157167381D01*
X124902619Y-157167381D02*
X124902619Y-156167381D01*
X124807381Y-156310238D01*
X124712143Y-156405476D01*
X124616905Y-156453095D01*
X125807381Y-156167381D02*
X125902620Y-156167381D01*
X125997858Y-156215000D01*
X126045477Y-156262619D01*
X126093096Y-156357857D01*
X126140715Y-156548333D01*
X126140715Y-156786429D01*
X126093096Y-156976905D01*
X126045477Y-157072143D01*
X125997858Y-157119762D01*
X125902620Y-157167381D01*
X125807381Y-157167381D01*
X125712143Y-157119762D01*
X125664524Y-157072143D01*
X125616905Y-156976905D01*
X125569286Y-156786429D01*
X125569286Y-156548333D01*
X125616905Y-156357857D01*
X125664524Y-156262619D01*
X125712143Y-156215000D01*
X125807381Y-156167381D01*
X126521667Y-156262619D02*
X126569286Y-156215000D01*
X126664524Y-156167381D01*
X126902620Y-156167381D01*
X126997858Y-156215000D01*
X127045477Y-156262619D01*
X127093096Y-156357857D01*
X127093096Y-156453095D01*
X127045477Y-156595952D01*
X126474048Y-157167381D01*
X127093096Y-157167381D01*
X129235953Y-157072143D02*
X129188334Y-157119762D01*
X129045477Y-157167381D01*
X128950239Y-157167381D01*
X128807381Y-157119762D01*
X128712143Y-157024524D01*
X128664524Y-156929286D01*
X128616905Y-156738810D01*
X128616905Y-156595952D01*
X128664524Y-156405476D01*
X128712143Y-156310238D01*
X128807381Y-156215000D01*
X128950239Y-156167381D01*
X129045477Y-156167381D01*
X129188334Y-156215000D01*
X129235953Y-156262619D01*
X130188334Y-157167381D02*
X129616905Y-157167381D01*
X129902619Y-157167381D02*
X129902619Y-156167381D01*
X129807381Y-156310238D01*
X129712143Y-156405476D01*
X129616905Y-156453095D01*
X130807381Y-156167381D02*
X130902620Y-156167381D01*
X130997858Y-156215000D01*
X131045477Y-156262619D01*
X131093096Y-156357857D01*
X131140715Y-156548333D01*
X131140715Y-156786429D01*
X131093096Y-156976905D01*
X131045477Y-157072143D01*
X130997858Y-157119762D01*
X130902620Y-157167381D01*
X130807381Y-157167381D01*
X130712143Y-157119762D01*
X130664524Y-157072143D01*
X130616905Y-156976905D01*
X130569286Y-156786429D01*
X130569286Y-156548333D01*
X130616905Y-156357857D01*
X130664524Y-156262619D01*
X130712143Y-156215000D01*
X130807381Y-156167381D01*
X131474048Y-156167381D02*
X132093096Y-156167381D01*
X131759762Y-156548333D01*
X131902620Y-156548333D01*
X131997858Y-156595952D01*
X132045477Y-156643571D01*
X132093096Y-156738810D01*
X132093096Y-156976905D01*
X132045477Y-157072143D01*
X131997858Y-157119762D01*
X131902620Y-157167381D01*
X131616905Y-157167381D01*
X131521667Y-157119762D01*
X131474048Y-157072143D01*
X127535953Y-142672143D02*
X127488334Y-142719762D01*
X127345477Y-142767381D01*
X127250239Y-142767381D01*
X127107381Y-142719762D01*
X127012143Y-142624524D01*
X126964524Y-142529286D01*
X126916905Y-142338810D01*
X126916905Y-142195952D01*
X126964524Y-142005476D01*
X127012143Y-141910238D01*
X127107381Y-141815000D01*
X127250239Y-141767381D01*
X127345477Y-141767381D01*
X127488334Y-141815000D01*
X127535953Y-141862619D01*
X128488334Y-142767381D02*
X127916905Y-142767381D01*
X128202619Y-142767381D02*
X128202619Y-141767381D01*
X128107381Y-141910238D01*
X128012143Y-142005476D01*
X127916905Y-142053095D01*
X129107381Y-141767381D02*
X129202620Y-141767381D01*
X129297858Y-141815000D01*
X129345477Y-141862619D01*
X129393096Y-141957857D01*
X129440715Y-142148333D01*
X129440715Y-142386429D01*
X129393096Y-142576905D01*
X129345477Y-142672143D01*
X129297858Y-142719762D01*
X129202620Y-142767381D01*
X129107381Y-142767381D01*
X129012143Y-142719762D01*
X128964524Y-142672143D01*
X128916905Y-142576905D01*
X128869286Y-142386429D01*
X128869286Y-142148333D01*
X128916905Y-141957857D01*
X128964524Y-141862619D01*
X129012143Y-141815000D01*
X129107381Y-141767381D01*
X130297858Y-142100714D02*
X130297858Y-142767381D01*
X130059762Y-141719762D02*
X129821667Y-142434048D01*
X130440715Y-142434048D01*
X132626069Y-142945392D02*
X132626069Y-142183487D01*
X133007021Y-142564439D02*
X132245116Y-142564439D01*
X69107381Y-141729286D02*
X68107381Y-141729286D01*
X68583571Y-141729286D02*
X68583571Y-141157857D01*
X69107381Y-141157857D02*
X68107381Y-141157857D01*
X69107381Y-140681667D02*
X68107381Y-140681667D01*
X68107381Y-140443572D01*
X68155000Y-140300714D01*
X68250238Y-140205476D01*
X68345476Y-140157857D01*
X68535952Y-140110238D01*
X68678810Y-140110238D01*
X68869286Y-140157857D01*
X68964524Y-140205476D01*
X69059762Y-140300714D01*
X69107381Y-140443572D01*
X69107381Y-140681667D01*
X69107381Y-139110238D02*
X68631190Y-139443572D01*
X69107381Y-139681667D02*
X68107381Y-139681667D01*
X68107381Y-139300714D01*
X68155000Y-139205476D01*
X68202619Y-139157857D01*
X68297857Y-139110238D01*
X68440714Y-139110238D01*
X68535952Y-139157857D01*
X68583571Y-139205476D01*
X68631190Y-139300714D01*
X68631190Y-139681667D01*
X68202619Y-138729286D02*
X68155000Y-138681667D01*
X68107381Y-138586429D01*
X68107381Y-138348333D01*
X68155000Y-138253095D01*
X68202619Y-138205476D01*
X68297857Y-138157857D01*
X68393095Y-138157857D01*
X68535952Y-138205476D01*
X69107381Y-138776905D01*
X69107381Y-138157857D01*
X68107381Y-137538810D02*
X68107381Y-137443571D01*
X68155000Y-137348333D01*
X68202619Y-137300714D01*
X68297857Y-137253095D01*
X68488333Y-137205476D01*
X68726429Y-137205476D01*
X68916905Y-137253095D01*
X69012143Y-137300714D01*
X69059762Y-137348333D01*
X69107381Y-137443571D01*
X69107381Y-137538810D01*
X69059762Y-137634048D01*
X69012143Y-137681667D01*
X68916905Y-137729286D01*
X68726429Y-137776905D01*
X68488333Y-137776905D01*
X68297857Y-137729286D01*
X68202619Y-137681667D01*
X68155000Y-137634048D01*
X68107381Y-137538810D01*
X69107381Y-136253095D02*
X69107381Y-136824524D01*
X69107381Y-136538810D02*
X68107381Y-136538810D01*
X68250238Y-136634048D01*
X68345476Y-136729286D01*
X68393095Y-136824524D01*
X76983571Y-151314999D02*
X77031190Y-151172142D01*
X77078810Y-151124523D01*
X77174048Y-151076904D01*
X77316905Y-151076904D01*
X77412143Y-151124523D01*
X77459762Y-151172142D01*
X77507381Y-151267380D01*
X77507381Y-151648333D01*
X76507381Y-151648333D01*
X76507381Y-151314999D01*
X76555000Y-151219761D01*
X76602619Y-151172142D01*
X76697857Y-151124523D01*
X76793095Y-151124523D01*
X76888333Y-151172142D01*
X76935952Y-151219761D01*
X76983571Y-151314999D01*
X76983571Y-151648333D01*
X76507381Y-150648333D02*
X77316905Y-150648333D01*
X77412143Y-150600714D01*
X77459762Y-150553095D01*
X77507381Y-150457857D01*
X77507381Y-150267380D01*
X77459762Y-150172142D01*
X77412143Y-150124523D01*
X77316905Y-150076904D01*
X76507381Y-150076904D01*
X77459762Y-149648333D02*
X77507381Y-149505476D01*
X77507381Y-149267380D01*
X77459762Y-149172142D01*
X77412143Y-149124523D01*
X77316905Y-149076904D01*
X77221667Y-149076904D01*
X77126429Y-149124523D01*
X77078810Y-149172142D01*
X77031190Y-149267380D01*
X76983571Y-149457857D01*
X76935952Y-149553095D01*
X76888333Y-149600714D01*
X76793095Y-149648333D01*
X76697857Y-149648333D01*
X76602619Y-149600714D01*
X76555000Y-149553095D01*
X76507381Y-149457857D01*
X76507381Y-149219761D01*
X76555000Y-149076904D01*
X77507381Y-148648333D02*
X76507381Y-148648333D01*
X76983571Y-148648333D02*
X76983571Y-148076904D01*
X77507381Y-148076904D02*
X76507381Y-148076904D01*
X77507381Y-147600714D02*
X76507381Y-147600714D01*
X76507381Y-147362619D01*
X76555000Y-147219761D01*
X76650238Y-147124523D01*
X76745476Y-147076904D01*
X76935952Y-147029285D01*
X77078810Y-147029285D01*
X77269286Y-147076904D01*
X77364524Y-147124523D01*
X77459762Y-147219761D01*
X77507381Y-147362619D01*
X77507381Y-147600714D01*
X77507381Y-146029285D02*
X77031190Y-146362619D01*
X77507381Y-146600714D02*
X76507381Y-146600714D01*
X76507381Y-146219761D01*
X76555000Y-146124523D01*
X76602619Y-146076904D01*
X76697857Y-146029285D01*
X76840714Y-146029285D01*
X76935952Y-146076904D01*
X76983571Y-146124523D01*
X77031190Y-146219761D01*
X77031190Y-146600714D01*
X77126429Y-145600714D02*
X77126429Y-144838809D01*
X77221667Y-144410238D02*
X77221667Y-143934047D01*
X77507381Y-144505476D02*
X76507381Y-144172143D01*
X77507381Y-143838809D01*
X138564524Y-146967381D02*
X138564524Y-145967381D01*
X138945477Y-145967381D01*
X139040715Y-146015000D01*
X139088334Y-146062619D01*
X139135953Y-146157857D01*
X139135953Y-146300714D01*
X139088334Y-146395952D01*
X139040715Y-146443571D01*
X138945477Y-146491190D01*
X138564524Y-146491190D01*
X139516905Y-146062619D02*
X139564524Y-146015000D01*
X139659762Y-145967381D01*
X139897858Y-145967381D01*
X139993096Y-146015000D01*
X140040715Y-146062619D01*
X140088334Y-146157857D01*
X140088334Y-146253095D01*
X140040715Y-146395952D01*
X139469286Y-146967381D01*
X140088334Y-146967381D01*
X140707381Y-145967381D02*
X140802620Y-145967381D01*
X140897858Y-146015000D01*
X140945477Y-146062619D01*
X140993096Y-146157857D01*
X141040715Y-146348333D01*
X141040715Y-146586429D01*
X140993096Y-146776905D01*
X140945477Y-146872143D01*
X140897858Y-146919762D01*
X140802620Y-146967381D01*
X140707381Y-146967381D01*
X140612143Y-146919762D01*
X140564524Y-146872143D01*
X140516905Y-146776905D01*
X140469286Y-146586429D01*
X140469286Y-146348333D01*
X140516905Y-146157857D01*
X140564524Y-146062619D01*
X140612143Y-146015000D01*
X140707381Y-145967381D01*
X141374048Y-145967381D02*
X141993096Y-145967381D01*
X141659762Y-146348333D01*
X141802620Y-146348333D01*
X141897858Y-146395952D01*
X141945477Y-146443571D01*
X141993096Y-146538810D01*
X141993096Y-146776905D01*
X141945477Y-146872143D01*
X141897858Y-146919762D01*
X141802620Y-146967381D01*
X141516905Y-146967381D01*
X141421667Y-146919762D01*
X141374048Y-146872143D01*
X135564381Y-176728095D02*
X134564381Y-176728095D01*
X134564381Y-176490000D01*
X134612000Y-176347142D01*
X134707238Y-176251904D01*
X134802476Y-176204285D01*
X134992952Y-176156666D01*
X135135810Y-176156666D01*
X135326286Y-176204285D01*
X135421524Y-176251904D01*
X135516762Y-176347142D01*
X135564381Y-176490000D01*
X135564381Y-176728095D01*
X135040571Y-175728095D02*
X135040571Y-175394761D01*
X135564381Y-175251904D02*
X135564381Y-175728095D01*
X134564381Y-175728095D01*
X134564381Y-175251904D01*
X135469143Y-174251904D02*
X135516762Y-174299523D01*
X135564381Y-174442380D01*
X135564381Y-174537618D01*
X135516762Y-174680476D01*
X135421524Y-174775714D01*
X135326286Y-174823333D01*
X135135810Y-174870952D01*
X134992952Y-174870952D01*
X134802476Y-174823333D01*
X134707238Y-174775714D01*
X134612000Y-174680476D01*
X134564381Y-174537618D01*
X134564381Y-174442380D01*
X134612000Y-174299523D01*
X134659619Y-174251904D01*
X135564381Y-173823333D02*
X134564381Y-173823333D01*
X135040571Y-173823333D02*
X135040571Y-173251904D01*
X135564381Y-173251904D02*
X134564381Y-173251904D01*
X135564381Y-172775714D02*
X134564381Y-172775714D01*
X134564381Y-172537619D01*
X134612000Y-172394761D01*
X134707238Y-172299523D01*
X134802476Y-172251904D01*
X134992952Y-172204285D01*
X135135810Y-172204285D01*
X135326286Y-172251904D01*
X135421524Y-172299523D01*
X135516762Y-172394761D01*
X135564381Y-172537619D01*
X135564381Y-172775714D01*
X135564381Y-171204285D02*
X135088190Y-171537619D01*
X135564381Y-171775714D02*
X134564381Y-171775714D01*
X134564381Y-171394761D01*
X134612000Y-171299523D01*
X134659619Y-171251904D01*
X134754857Y-171204285D01*
X134897714Y-171204285D01*
X134992952Y-171251904D01*
X135040571Y-171299523D01*
X135088190Y-171394761D01*
X135088190Y-171775714D01*
X104257381Y-161738809D02*
X103781190Y-162072143D01*
X104257381Y-162310238D02*
X103257381Y-162310238D01*
X103257381Y-161929285D01*
X103305000Y-161834047D01*
X103352619Y-161786428D01*
X103447857Y-161738809D01*
X103590714Y-161738809D01*
X103685952Y-161786428D01*
X103733571Y-161834047D01*
X103781190Y-161929285D01*
X103781190Y-162310238D01*
X104209762Y-161357857D02*
X104257381Y-161262619D01*
X104257381Y-161072143D01*
X104209762Y-160976904D01*
X104114524Y-160929285D01*
X104066905Y-160929285D01*
X103971667Y-160976904D01*
X103924048Y-161072143D01*
X103924048Y-161215000D01*
X103876429Y-161310238D01*
X103781190Y-161357857D01*
X103733571Y-161357857D01*
X103638333Y-161310238D01*
X103590714Y-161215000D01*
X103590714Y-161072143D01*
X103638333Y-160976904D01*
X103352619Y-160548333D02*
X103305000Y-160500714D01*
X103257381Y-160405476D01*
X103257381Y-160167380D01*
X103305000Y-160072142D01*
X103352619Y-160024523D01*
X103447857Y-159976904D01*
X103543095Y-159976904D01*
X103685952Y-160024523D01*
X104257381Y-160595952D01*
X104257381Y-159976904D01*
X103257381Y-159643571D02*
X103257381Y-158976904D01*
X104257381Y-159405476D01*
X103257381Y-158691190D02*
X103257381Y-158024523D01*
X104257381Y-158453095D01*
X102957381Y-147838809D02*
X102481190Y-148172143D01*
X102957381Y-148410238D02*
X101957381Y-148410238D01*
X101957381Y-148029285D01*
X102005000Y-147934047D01*
X102052619Y-147886428D01*
X102147857Y-147838809D01*
X102290714Y-147838809D01*
X102385952Y-147886428D01*
X102433571Y-147934047D01*
X102481190Y-148029285D01*
X102481190Y-148410238D01*
X102909762Y-147457857D02*
X102957381Y-147362619D01*
X102957381Y-147172143D01*
X102909762Y-147076904D01*
X102814524Y-147029285D01*
X102766905Y-147029285D01*
X102671667Y-147076904D01*
X102624048Y-147172143D01*
X102624048Y-147315000D01*
X102576429Y-147410238D01*
X102481190Y-147457857D01*
X102433571Y-147457857D01*
X102338333Y-147410238D01*
X102290714Y-147315000D01*
X102290714Y-147172143D01*
X102338333Y-147076904D01*
X102052619Y-146648333D02*
X102005000Y-146600714D01*
X101957381Y-146505476D01*
X101957381Y-146267380D01*
X102005000Y-146172142D01*
X102052619Y-146124523D01*
X102147857Y-146076904D01*
X102243095Y-146076904D01*
X102385952Y-146124523D01*
X102957381Y-146695952D01*
X102957381Y-146076904D01*
X101957381Y-145743571D02*
X101957381Y-145076904D01*
X102957381Y-145505476D01*
X102385952Y-144553095D02*
X102338333Y-144648333D01*
X102290714Y-144695952D01*
X102195476Y-144743571D01*
X102147857Y-144743571D01*
X102052619Y-144695952D01*
X102005000Y-144648333D01*
X101957381Y-144553095D01*
X101957381Y-144362618D01*
X102005000Y-144267380D01*
X102052619Y-144219761D01*
X102147857Y-144172142D01*
X102195476Y-144172142D01*
X102290714Y-144219761D01*
X102338333Y-144267380D01*
X102385952Y-144362618D01*
X102385952Y-144553095D01*
X102433571Y-144648333D01*
X102481190Y-144695952D01*
X102576429Y-144743571D01*
X102766905Y-144743571D01*
X102862143Y-144695952D01*
X102909762Y-144648333D01*
X102957381Y-144553095D01*
X102957381Y-144362618D01*
X102909762Y-144267380D01*
X102862143Y-144219761D01*
X102766905Y-144172142D01*
X102576429Y-144172142D01*
X102481190Y-144219761D01*
X102433571Y-144267380D01*
X102385952Y-144362618D01*
X101757381Y-161738809D02*
X101281190Y-162072143D01*
X101757381Y-162310238D02*
X100757381Y-162310238D01*
X100757381Y-161929285D01*
X100805000Y-161834047D01*
X100852619Y-161786428D01*
X100947857Y-161738809D01*
X101090714Y-161738809D01*
X101185952Y-161786428D01*
X101233571Y-161834047D01*
X101281190Y-161929285D01*
X101281190Y-162310238D01*
X101709762Y-161357857D02*
X101757381Y-161262619D01*
X101757381Y-161072143D01*
X101709762Y-160976904D01*
X101614524Y-160929285D01*
X101566905Y-160929285D01*
X101471667Y-160976904D01*
X101424048Y-161072143D01*
X101424048Y-161215000D01*
X101376429Y-161310238D01*
X101281190Y-161357857D01*
X101233571Y-161357857D01*
X101138333Y-161310238D01*
X101090714Y-161215000D01*
X101090714Y-161072143D01*
X101138333Y-160976904D01*
X100852619Y-160548333D02*
X100805000Y-160500714D01*
X100757381Y-160405476D01*
X100757381Y-160167380D01*
X100805000Y-160072142D01*
X100852619Y-160024523D01*
X100947857Y-159976904D01*
X101043095Y-159976904D01*
X101185952Y-160024523D01*
X101757381Y-160595952D01*
X101757381Y-159976904D01*
X101185952Y-159405476D02*
X101138333Y-159500714D01*
X101090714Y-159548333D01*
X100995476Y-159595952D01*
X100947857Y-159595952D01*
X100852619Y-159548333D01*
X100805000Y-159500714D01*
X100757381Y-159405476D01*
X100757381Y-159214999D01*
X100805000Y-159119761D01*
X100852619Y-159072142D01*
X100947857Y-159024523D01*
X100995476Y-159024523D01*
X101090714Y-159072142D01*
X101138333Y-159119761D01*
X101185952Y-159214999D01*
X101185952Y-159405476D01*
X101233571Y-159500714D01*
X101281190Y-159548333D01*
X101376429Y-159595952D01*
X101566905Y-159595952D01*
X101662143Y-159548333D01*
X101709762Y-159500714D01*
X101757381Y-159405476D01*
X101757381Y-159214999D01*
X101709762Y-159119761D01*
X101662143Y-159072142D01*
X101566905Y-159024523D01*
X101376429Y-159024523D01*
X101281190Y-159072142D01*
X101233571Y-159119761D01*
X101185952Y-159214999D01*
X101757381Y-158072142D02*
X101757381Y-158643571D01*
X101757381Y-158357857D02*
X100757381Y-158357857D01*
X100900238Y-158453095D01*
X100995476Y-158548333D01*
X101043095Y-158643571D01*
X100357381Y-147638809D02*
X99881190Y-147972143D01*
X100357381Y-148210238D02*
X99357381Y-148210238D01*
X99357381Y-147829285D01*
X99405000Y-147734047D01*
X99452619Y-147686428D01*
X99547857Y-147638809D01*
X99690714Y-147638809D01*
X99785952Y-147686428D01*
X99833571Y-147734047D01*
X99881190Y-147829285D01*
X99881190Y-148210238D01*
X100309762Y-147257857D02*
X100357381Y-147162619D01*
X100357381Y-146972143D01*
X100309762Y-146876904D01*
X100214524Y-146829285D01*
X100166905Y-146829285D01*
X100071667Y-146876904D01*
X100024048Y-146972143D01*
X100024048Y-147115000D01*
X99976429Y-147210238D01*
X99881190Y-147257857D01*
X99833571Y-147257857D01*
X99738333Y-147210238D01*
X99690714Y-147115000D01*
X99690714Y-146972143D01*
X99738333Y-146876904D01*
X99452619Y-146448333D02*
X99405000Y-146400714D01*
X99357381Y-146305476D01*
X99357381Y-146067380D01*
X99405000Y-145972142D01*
X99452619Y-145924523D01*
X99547857Y-145876904D01*
X99643095Y-145876904D01*
X99785952Y-145924523D01*
X100357381Y-146495952D01*
X100357381Y-145876904D01*
X99785952Y-145305476D02*
X99738333Y-145400714D01*
X99690714Y-145448333D01*
X99595476Y-145495952D01*
X99547857Y-145495952D01*
X99452619Y-145448333D01*
X99405000Y-145400714D01*
X99357381Y-145305476D01*
X99357381Y-145114999D01*
X99405000Y-145019761D01*
X99452619Y-144972142D01*
X99547857Y-144924523D01*
X99595476Y-144924523D01*
X99690714Y-144972142D01*
X99738333Y-145019761D01*
X99785952Y-145114999D01*
X99785952Y-145305476D01*
X99833571Y-145400714D01*
X99881190Y-145448333D01*
X99976429Y-145495952D01*
X100166905Y-145495952D01*
X100262143Y-145448333D01*
X100309762Y-145400714D01*
X100357381Y-145305476D01*
X100357381Y-145114999D01*
X100309762Y-145019761D01*
X100262143Y-144972142D01*
X100166905Y-144924523D01*
X99976429Y-144924523D01*
X99881190Y-144972142D01*
X99833571Y-145019761D01*
X99785952Y-145114999D01*
X99452619Y-144543571D02*
X99405000Y-144495952D01*
X99357381Y-144400714D01*
X99357381Y-144162618D01*
X99405000Y-144067380D01*
X99452619Y-144019761D01*
X99547857Y-143972142D01*
X99643095Y-143972142D01*
X99785952Y-144019761D01*
X100357381Y-144591190D01*
X100357381Y-143972142D01*
X99157381Y-161738809D02*
X98681190Y-162072143D01*
X99157381Y-162310238D02*
X98157381Y-162310238D01*
X98157381Y-161929285D01*
X98205000Y-161834047D01*
X98252619Y-161786428D01*
X98347857Y-161738809D01*
X98490714Y-161738809D01*
X98585952Y-161786428D01*
X98633571Y-161834047D01*
X98681190Y-161929285D01*
X98681190Y-162310238D01*
X99109762Y-161357857D02*
X99157381Y-161262619D01*
X99157381Y-161072143D01*
X99109762Y-160976904D01*
X99014524Y-160929285D01*
X98966905Y-160929285D01*
X98871667Y-160976904D01*
X98824048Y-161072143D01*
X98824048Y-161215000D01*
X98776429Y-161310238D01*
X98681190Y-161357857D01*
X98633571Y-161357857D01*
X98538333Y-161310238D01*
X98490714Y-161215000D01*
X98490714Y-161072143D01*
X98538333Y-160976904D01*
X98252619Y-160548333D02*
X98205000Y-160500714D01*
X98157381Y-160405476D01*
X98157381Y-160167380D01*
X98205000Y-160072142D01*
X98252619Y-160024523D01*
X98347857Y-159976904D01*
X98443095Y-159976904D01*
X98585952Y-160024523D01*
X99157381Y-160595952D01*
X99157381Y-159976904D01*
X98585952Y-159405476D02*
X98538333Y-159500714D01*
X98490714Y-159548333D01*
X98395476Y-159595952D01*
X98347857Y-159595952D01*
X98252619Y-159548333D01*
X98205000Y-159500714D01*
X98157381Y-159405476D01*
X98157381Y-159214999D01*
X98205000Y-159119761D01*
X98252619Y-159072142D01*
X98347857Y-159024523D01*
X98395476Y-159024523D01*
X98490714Y-159072142D01*
X98538333Y-159119761D01*
X98585952Y-159214999D01*
X98585952Y-159405476D01*
X98633571Y-159500714D01*
X98681190Y-159548333D01*
X98776429Y-159595952D01*
X98966905Y-159595952D01*
X99062143Y-159548333D01*
X99109762Y-159500714D01*
X99157381Y-159405476D01*
X99157381Y-159214999D01*
X99109762Y-159119761D01*
X99062143Y-159072142D01*
X98966905Y-159024523D01*
X98776429Y-159024523D01*
X98681190Y-159072142D01*
X98633571Y-159119761D01*
X98585952Y-159214999D01*
X98157381Y-158691190D02*
X98157381Y-158072142D01*
X98538333Y-158405476D01*
X98538333Y-158262618D01*
X98585952Y-158167380D01*
X98633571Y-158119761D01*
X98728810Y-158072142D01*
X98966905Y-158072142D01*
X99062143Y-158119761D01*
X99109762Y-158167380D01*
X99157381Y-158262618D01*
X99157381Y-158548333D01*
X99109762Y-158643571D01*
X99062143Y-158691190D01*
X97857381Y-147638809D02*
X97381190Y-147972143D01*
X97857381Y-148210238D02*
X96857381Y-148210238D01*
X96857381Y-147829285D01*
X96905000Y-147734047D01*
X96952619Y-147686428D01*
X97047857Y-147638809D01*
X97190714Y-147638809D01*
X97285952Y-147686428D01*
X97333571Y-147734047D01*
X97381190Y-147829285D01*
X97381190Y-148210238D01*
X97809762Y-147257857D02*
X97857381Y-147162619D01*
X97857381Y-146972143D01*
X97809762Y-146876904D01*
X97714524Y-146829285D01*
X97666905Y-146829285D01*
X97571667Y-146876904D01*
X97524048Y-146972143D01*
X97524048Y-147115000D01*
X97476429Y-147210238D01*
X97381190Y-147257857D01*
X97333571Y-147257857D01*
X97238333Y-147210238D01*
X97190714Y-147115000D01*
X97190714Y-146972143D01*
X97238333Y-146876904D01*
X96952619Y-146448333D02*
X96905000Y-146400714D01*
X96857381Y-146305476D01*
X96857381Y-146067380D01*
X96905000Y-145972142D01*
X96952619Y-145924523D01*
X97047857Y-145876904D01*
X97143095Y-145876904D01*
X97285952Y-145924523D01*
X97857381Y-146495952D01*
X97857381Y-145876904D01*
X97285952Y-145305476D02*
X97238333Y-145400714D01*
X97190714Y-145448333D01*
X97095476Y-145495952D01*
X97047857Y-145495952D01*
X96952619Y-145448333D01*
X96905000Y-145400714D01*
X96857381Y-145305476D01*
X96857381Y-145114999D01*
X96905000Y-145019761D01*
X96952619Y-144972142D01*
X97047857Y-144924523D01*
X97095476Y-144924523D01*
X97190714Y-144972142D01*
X97238333Y-145019761D01*
X97285952Y-145114999D01*
X97285952Y-145305476D01*
X97333571Y-145400714D01*
X97381190Y-145448333D01*
X97476429Y-145495952D01*
X97666905Y-145495952D01*
X97762143Y-145448333D01*
X97809762Y-145400714D01*
X97857381Y-145305476D01*
X97857381Y-145114999D01*
X97809762Y-145019761D01*
X97762143Y-144972142D01*
X97666905Y-144924523D01*
X97476429Y-144924523D01*
X97381190Y-144972142D01*
X97333571Y-145019761D01*
X97285952Y-145114999D01*
X97190714Y-144067380D02*
X97857381Y-144067380D01*
X96809762Y-144305476D02*
X97524048Y-144543571D01*
X97524048Y-143924523D01*
X96557381Y-161738809D02*
X96081190Y-162072143D01*
X96557381Y-162310238D02*
X95557381Y-162310238D01*
X95557381Y-161929285D01*
X95605000Y-161834047D01*
X95652619Y-161786428D01*
X95747857Y-161738809D01*
X95890714Y-161738809D01*
X95985952Y-161786428D01*
X96033571Y-161834047D01*
X96081190Y-161929285D01*
X96081190Y-162310238D01*
X96509762Y-161357857D02*
X96557381Y-161262619D01*
X96557381Y-161072143D01*
X96509762Y-160976904D01*
X96414524Y-160929285D01*
X96366905Y-160929285D01*
X96271667Y-160976904D01*
X96224048Y-161072143D01*
X96224048Y-161215000D01*
X96176429Y-161310238D01*
X96081190Y-161357857D01*
X96033571Y-161357857D01*
X95938333Y-161310238D01*
X95890714Y-161215000D01*
X95890714Y-161072143D01*
X95938333Y-160976904D01*
X95652619Y-160548333D02*
X95605000Y-160500714D01*
X95557381Y-160405476D01*
X95557381Y-160167380D01*
X95605000Y-160072142D01*
X95652619Y-160024523D01*
X95747857Y-159976904D01*
X95843095Y-159976904D01*
X95985952Y-160024523D01*
X96557381Y-160595952D01*
X96557381Y-159976904D01*
X95985952Y-159405476D02*
X95938333Y-159500714D01*
X95890714Y-159548333D01*
X95795476Y-159595952D01*
X95747857Y-159595952D01*
X95652619Y-159548333D01*
X95605000Y-159500714D01*
X95557381Y-159405476D01*
X95557381Y-159214999D01*
X95605000Y-159119761D01*
X95652619Y-159072142D01*
X95747857Y-159024523D01*
X95795476Y-159024523D01*
X95890714Y-159072142D01*
X95938333Y-159119761D01*
X95985952Y-159214999D01*
X95985952Y-159405476D01*
X96033571Y-159500714D01*
X96081190Y-159548333D01*
X96176429Y-159595952D01*
X96366905Y-159595952D01*
X96462143Y-159548333D01*
X96509762Y-159500714D01*
X96557381Y-159405476D01*
X96557381Y-159214999D01*
X96509762Y-159119761D01*
X96462143Y-159072142D01*
X96366905Y-159024523D01*
X96176429Y-159024523D01*
X96081190Y-159072142D01*
X96033571Y-159119761D01*
X95985952Y-159214999D01*
X95557381Y-158119761D02*
X95557381Y-158595952D01*
X96033571Y-158643571D01*
X95985952Y-158595952D01*
X95938333Y-158500714D01*
X95938333Y-158262618D01*
X95985952Y-158167380D01*
X96033571Y-158119761D01*
X96128810Y-158072142D01*
X96366905Y-158072142D01*
X96462143Y-158119761D01*
X96509762Y-158167380D01*
X96557381Y-158262618D01*
X96557381Y-158500714D01*
X96509762Y-158595952D01*
X96462143Y-158643571D01*
X95357381Y-147638809D02*
X94881190Y-147972143D01*
X95357381Y-148210238D02*
X94357381Y-148210238D01*
X94357381Y-147829285D01*
X94405000Y-147734047D01*
X94452619Y-147686428D01*
X94547857Y-147638809D01*
X94690714Y-147638809D01*
X94785952Y-147686428D01*
X94833571Y-147734047D01*
X94881190Y-147829285D01*
X94881190Y-148210238D01*
X95309762Y-147257857D02*
X95357381Y-147162619D01*
X95357381Y-146972143D01*
X95309762Y-146876904D01*
X95214524Y-146829285D01*
X95166905Y-146829285D01*
X95071667Y-146876904D01*
X95024048Y-146972143D01*
X95024048Y-147115000D01*
X94976429Y-147210238D01*
X94881190Y-147257857D01*
X94833571Y-147257857D01*
X94738333Y-147210238D01*
X94690714Y-147115000D01*
X94690714Y-146972143D01*
X94738333Y-146876904D01*
X94452619Y-146448333D02*
X94405000Y-146400714D01*
X94357381Y-146305476D01*
X94357381Y-146067380D01*
X94405000Y-145972142D01*
X94452619Y-145924523D01*
X94547857Y-145876904D01*
X94643095Y-145876904D01*
X94785952Y-145924523D01*
X95357381Y-146495952D01*
X95357381Y-145876904D01*
X94785952Y-145305476D02*
X94738333Y-145400714D01*
X94690714Y-145448333D01*
X94595476Y-145495952D01*
X94547857Y-145495952D01*
X94452619Y-145448333D01*
X94405000Y-145400714D01*
X94357381Y-145305476D01*
X94357381Y-145114999D01*
X94405000Y-145019761D01*
X94452619Y-144972142D01*
X94547857Y-144924523D01*
X94595476Y-144924523D01*
X94690714Y-144972142D01*
X94738333Y-145019761D01*
X94785952Y-145114999D01*
X94785952Y-145305476D01*
X94833571Y-145400714D01*
X94881190Y-145448333D01*
X94976429Y-145495952D01*
X95166905Y-145495952D01*
X95262143Y-145448333D01*
X95309762Y-145400714D01*
X95357381Y-145305476D01*
X95357381Y-145114999D01*
X95309762Y-145019761D01*
X95262143Y-144972142D01*
X95166905Y-144924523D01*
X94976429Y-144924523D01*
X94881190Y-144972142D01*
X94833571Y-145019761D01*
X94785952Y-145114999D01*
X94357381Y-144067380D02*
X94357381Y-144257857D01*
X94405000Y-144353095D01*
X94452619Y-144400714D01*
X94595476Y-144495952D01*
X94785952Y-144543571D01*
X95166905Y-144543571D01*
X95262143Y-144495952D01*
X95309762Y-144448333D01*
X95357381Y-144353095D01*
X95357381Y-144162618D01*
X95309762Y-144067380D01*
X95262143Y-144019761D01*
X95166905Y-143972142D01*
X94928810Y-143972142D01*
X94833571Y-144019761D01*
X94785952Y-144067380D01*
X94738333Y-144162618D01*
X94738333Y-144353095D01*
X94785952Y-144448333D01*
X94833571Y-144495952D01*
X94928810Y-144543571D01*
X94057381Y-161738809D02*
X93581190Y-162072143D01*
X94057381Y-162310238D02*
X93057381Y-162310238D01*
X93057381Y-161929285D01*
X93105000Y-161834047D01*
X93152619Y-161786428D01*
X93247857Y-161738809D01*
X93390714Y-161738809D01*
X93485952Y-161786428D01*
X93533571Y-161834047D01*
X93581190Y-161929285D01*
X93581190Y-162310238D01*
X94009762Y-161357857D02*
X94057381Y-161262619D01*
X94057381Y-161072143D01*
X94009762Y-160976904D01*
X93914524Y-160929285D01*
X93866905Y-160929285D01*
X93771667Y-160976904D01*
X93724048Y-161072143D01*
X93724048Y-161215000D01*
X93676429Y-161310238D01*
X93581190Y-161357857D01*
X93533571Y-161357857D01*
X93438333Y-161310238D01*
X93390714Y-161215000D01*
X93390714Y-161072143D01*
X93438333Y-160976904D01*
X93152619Y-160548333D02*
X93105000Y-160500714D01*
X93057381Y-160405476D01*
X93057381Y-160167380D01*
X93105000Y-160072142D01*
X93152619Y-160024523D01*
X93247857Y-159976904D01*
X93343095Y-159976904D01*
X93485952Y-160024523D01*
X94057381Y-160595952D01*
X94057381Y-159976904D01*
X93485952Y-159405476D02*
X93438333Y-159500714D01*
X93390714Y-159548333D01*
X93295476Y-159595952D01*
X93247857Y-159595952D01*
X93152619Y-159548333D01*
X93105000Y-159500714D01*
X93057381Y-159405476D01*
X93057381Y-159214999D01*
X93105000Y-159119761D01*
X93152619Y-159072142D01*
X93247857Y-159024523D01*
X93295476Y-159024523D01*
X93390714Y-159072142D01*
X93438333Y-159119761D01*
X93485952Y-159214999D01*
X93485952Y-159405476D01*
X93533571Y-159500714D01*
X93581190Y-159548333D01*
X93676429Y-159595952D01*
X93866905Y-159595952D01*
X93962143Y-159548333D01*
X94009762Y-159500714D01*
X94057381Y-159405476D01*
X94057381Y-159214999D01*
X94009762Y-159119761D01*
X93962143Y-159072142D01*
X93866905Y-159024523D01*
X93676429Y-159024523D01*
X93581190Y-159072142D01*
X93533571Y-159119761D01*
X93485952Y-159214999D01*
X93057381Y-158691190D02*
X93057381Y-158024523D01*
X94057381Y-158453095D01*
X92797381Y-147653809D02*
X92321190Y-147987143D01*
X92797381Y-148225238D02*
X91797381Y-148225238D01*
X91797381Y-147844285D01*
X91845000Y-147749047D01*
X91892619Y-147701428D01*
X91987857Y-147653809D01*
X92130714Y-147653809D01*
X92225952Y-147701428D01*
X92273571Y-147749047D01*
X92321190Y-147844285D01*
X92321190Y-148225238D01*
X92749762Y-147272857D02*
X92797381Y-147177619D01*
X92797381Y-146987143D01*
X92749762Y-146891904D01*
X92654524Y-146844285D01*
X92606905Y-146844285D01*
X92511667Y-146891904D01*
X92464048Y-146987143D01*
X92464048Y-147130000D01*
X92416429Y-147225238D01*
X92321190Y-147272857D01*
X92273571Y-147272857D01*
X92178333Y-147225238D01*
X92130714Y-147130000D01*
X92130714Y-146987143D01*
X92178333Y-146891904D01*
X91892619Y-146463333D02*
X91845000Y-146415714D01*
X91797381Y-146320476D01*
X91797381Y-146082380D01*
X91845000Y-145987142D01*
X91892619Y-145939523D01*
X91987857Y-145891904D01*
X92083095Y-145891904D01*
X92225952Y-145939523D01*
X92797381Y-146510952D01*
X92797381Y-145891904D01*
X92225952Y-145320476D02*
X92178333Y-145415714D01*
X92130714Y-145463333D01*
X92035476Y-145510952D01*
X91987857Y-145510952D01*
X91892619Y-145463333D01*
X91845000Y-145415714D01*
X91797381Y-145320476D01*
X91797381Y-145129999D01*
X91845000Y-145034761D01*
X91892619Y-144987142D01*
X91987857Y-144939523D01*
X92035476Y-144939523D01*
X92130714Y-144987142D01*
X92178333Y-145034761D01*
X92225952Y-145129999D01*
X92225952Y-145320476D01*
X92273571Y-145415714D01*
X92321190Y-145463333D01*
X92416429Y-145510952D01*
X92606905Y-145510952D01*
X92702143Y-145463333D01*
X92749762Y-145415714D01*
X92797381Y-145320476D01*
X92797381Y-145129999D01*
X92749762Y-145034761D01*
X92702143Y-144987142D01*
X92606905Y-144939523D01*
X92416429Y-144939523D01*
X92321190Y-144987142D01*
X92273571Y-145034761D01*
X92225952Y-145129999D01*
X92225952Y-144368095D02*
X92178333Y-144463333D01*
X92130714Y-144510952D01*
X92035476Y-144558571D01*
X91987857Y-144558571D01*
X91892619Y-144510952D01*
X91845000Y-144463333D01*
X91797381Y-144368095D01*
X91797381Y-144177618D01*
X91845000Y-144082380D01*
X91892619Y-144034761D01*
X91987857Y-143987142D01*
X92035476Y-143987142D01*
X92130714Y-144034761D01*
X92178333Y-144082380D01*
X92225952Y-144177618D01*
X92225952Y-144368095D01*
X92273571Y-144463333D01*
X92321190Y-144510952D01*
X92416429Y-144558571D01*
X92606905Y-144558571D01*
X92702143Y-144510952D01*
X92749762Y-144463333D01*
X92797381Y-144368095D01*
X92797381Y-144177618D01*
X92749762Y-144082380D01*
X92702143Y-144034761D01*
X92606905Y-143987142D01*
X92416429Y-143987142D01*
X92321190Y-144034761D01*
X92273571Y-144082380D01*
X92225952Y-144177618D01*
X91527381Y-161733809D02*
X91051190Y-162067143D01*
X91527381Y-162305238D02*
X90527381Y-162305238D01*
X90527381Y-161924285D01*
X90575000Y-161829047D01*
X90622619Y-161781428D01*
X90717857Y-161733809D01*
X90860714Y-161733809D01*
X90955952Y-161781428D01*
X91003571Y-161829047D01*
X91051190Y-161924285D01*
X91051190Y-162305238D01*
X91479762Y-161352857D02*
X91527381Y-161257619D01*
X91527381Y-161067143D01*
X91479762Y-160971904D01*
X91384524Y-160924285D01*
X91336905Y-160924285D01*
X91241667Y-160971904D01*
X91194048Y-161067143D01*
X91194048Y-161210000D01*
X91146429Y-161305238D01*
X91051190Y-161352857D01*
X91003571Y-161352857D01*
X90908333Y-161305238D01*
X90860714Y-161210000D01*
X90860714Y-161067143D01*
X90908333Y-160971904D01*
X90622619Y-160543333D02*
X90575000Y-160495714D01*
X90527381Y-160400476D01*
X90527381Y-160162380D01*
X90575000Y-160067142D01*
X90622619Y-160019523D01*
X90717857Y-159971904D01*
X90813095Y-159971904D01*
X90955952Y-160019523D01*
X91527381Y-160590952D01*
X91527381Y-159971904D01*
X90955952Y-159400476D02*
X90908333Y-159495714D01*
X90860714Y-159543333D01*
X90765476Y-159590952D01*
X90717857Y-159590952D01*
X90622619Y-159543333D01*
X90575000Y-159495714D01*
X90527381Y-159400476D01*
X90527381Y-159209999D01*
X90575000Y-159114761D01*
X90622619Y-159067142D01*
X90717857Y-159019523D01*
X90765476Y-159019523D01*
X90860714Y-159067142D01*
X90908333Y-159114761D01*
X90955952Y-159209999D01*
X90955952Y-159400476D01*
X91003571Y-159495714D01*
X91051190Y-159543333D01*
X91146429Y-159590952D01*
X91336905Y-159590952D01*
X91432143Y-159543333D01*
X91479762Y-159495714D01*
X91527381Y-159400476D01*
X91527381Y-159209999D01*
X91479762Y-159114761D01*
X91432143Y-159067142D01*
X91336905Y-159019523D01*
X91146429Y-159019523D01*
X91051190Y-159067142D01*
X91003571Y-159114761D01*
X90955952Y-159209999D01*
X91527381Y-158543333D02*
X91527381Y-158352857D01*
X91479762Y-158257618D01*
X91432143Y-158209999D01*
X91289286Y-158114761D01*
X91098810Y-158067142D01*
X90717857Y-158067142D01*
X90622619Y-158114761D01*
X90575000Y-158162380D01*
X90527381Y-158257618D01*
X90527381Y-158448095D01*
X90575000Y-158543333D01*
X90622619Y-158590952D01*
X90717857Y-158638571D01*
X90955952Y-158638571D01*
X91051190Y-158590952D01*
X91098810Y-158543333D01*
X91146429Y-158448095D01*
X91146429Y-158257618D01*
X91098810Y-158162380D01*
X91051190Y-158114761D01*
X90955952Y-158067142D01*
X90257381Y-147708809D02*
X89781190Y-148042143D01*
X90257381Y-148280238D02*
X89257381Y-148280238D01*
X89257381Y-147899285D01*
X89305000Y-147804047D01*
X89352619Y-147756428D01*
X89447857Y-147708809D01*
X89590714Y-147708809D01*
X89685952Y-147756428D01*
X89733571Y-147804047D01*
X89781190Y-147899285D01*
X89781190Y-148280238D01*
X90209762Y-147327857D02*
X90257381Y-147232619D01*
X90257381Y-147042143D01*
X90209762Y-146946904D01*
X90114524Y-146899285D01*
X90066905Y-146899285D01*
X89971667Y-146946904D01*
X89924048Y-147042143D01*
X89924048Y-147185000D01*
X89876429Y-147280238D01*
X89781190Y-147327857D01*
X89733571Y-147327857D01*
X89638333Y-147280238D01*
X89590714Y-147185000D01*
X89590714Y-147042143D01*
X89638333Y-146946904D01*
X89352619Y-146518333D02*
X89305000Y-146470714D01*
X89257381Y-146375476D01*
X89257381Y-146137380D01*
X89305000Y-146042142D01*
X89352619Y-145994523D01*
X89447857Y-145946904D01*
X89543095Y-145946904D01*
X89685952Y-145994523D01*
X90257381Y-146565952D01*
X90257381Y-145946904D01*
X90257381Y-145470714D02*
X90257381Y-145280238D01*
X90209762Y-145184999D01*
X90162143Y-145137380D01*
X90019286Y-145042142D01*
X89828810Y-144994523D01*
X89447857Y-144994523D01*
X89352619Y-145042142D01*
X89305000Y-145089761D01*
X89257381Y-145184999D01*
X89257381Y-145375476D01*
X89305000Y-145470714D01*
X89352619Y-145518333D01*
X89447857Y-145565952D01*
X89685952Y-145565952D01*
X89781190Y-145518333D01*
X89828810Y-145470714D01*
X89876429Y-145375476D01*
X89876429Y-145184999D01*
X89828810Y-145089761D01*
X89781190Y-145042142D01*
X89685952Y-144994523D01*
X89257381Y-144375476D02*
X89257381Y-144280237D01*
X89305000Y-144184999D01*
X89352619Y-144137380D01*
X89447857Y-144089761D01*
X89638333Y-144042142D01*
X89876429Y-144042142D01*
X90066905Y-144089761D01*
X90162143Y-144137380D01*
X90209762Y-144184999D01*
X90257381Y-144280237D01*
X90257381Y-144375476D01*
X90209762Y-144470714D01*
X90162143Y-144518333D01*
X90066905Y-144565952D01*
X89876429Y-144613571D01*
X89638333Y-144613571D01*
X89447857Y-144565952D01*
X89352619Y-144518333D01*
X89305000Y-144470714D01*
X89257381Y-144375476D01*
X88987381Y-161813809D02*
X88511190Y-162147143D01*
X88987381Y-162385238D02*
X87987381Y-162385238D01*
X87987381Y-162004285D01*
X88035000Y-161909047D01*
X88082619Y-161861428D01*
X88177857Y-161813809D01*
X88320714Y-161813809D01*
X88415952Y-161861428D01*
X88463571Y-161909047D01*
X88511190Y-162004285D01*
X88511190Y-162385238D01*
X88939762Y-161432857D02*
X88987381Y-161337619D01*
X88987381Y-161147143D01*
X88939762Y-161051904D01*
X88844524Y-161004285D01*
X88796905Y-161004285D01*
X88701667Y-161051904D01*
X88654048Y-161147143D01*
X88654048Y-161290000D01*
X88606429Y-161385238D01*
X88511190Y-161432857D01*
X88463571Y-161432857D01*
X88368333Y-161385238D01*
X88320714Y-161290000D01*
X88320714Y-161147143D01*
X88368333Y-161051904D01*
X88082619Y-160623333D02*
X88035000Y-160575714D01*
X87987381Y-160480476D01*
X87987381Y-160242380D01*
X88035000Y-160147142D01*
X88082619Y-160099523D01*
X88177857Y-160051904D01*
X88273095Y-160051904D01*
X88415952Y-160099523D01*
X88987381Y-160670952D01*
X88987381Y-160051904D01*
X88987381Y-159575714D02*
X88987381Y-159385238D01*
X88939762Y-159289999D01*
X88892143Y-159242380D01*
X88749286Y-159147142D01*
X88558810Y-159099523D01*
X88177857Y-159099523D01*
X88082619Y-159147142D01*
X88035000Y-159194761D01*
X87987381Y-159289999D01*
X87987381Y-159480476D01*
X88035000Y-159575714D01*
X88082619Y-159623333D01*
X88177857Y-159670952D01*
X88415952Y-159670952D01*
X88511190Y-159623333D01*
X88558810Y-159575714D01*
X88606429Y-159480476D01*
X88606429Y-159289999D01*
X88558810Y-159194761D01*
X88511190Y-159147142D01*
X88415952Y-159099523D01*
X88987381Y-158147142D02*
X88987381Y-158718571D01*
X88987381Y-158432857D02*
X87987381Y-158432857D01*
X88130238Y-158528095D01*
X88225476Y-158623333D01*
X88273095Y-158718571D01*
X87717381Y-147708809D02*
X87241190Y-148042143D01*
X87717381Y-148280238D02*
X86717381Y-148280238D01*
X86717381Y-147899285D01*
X86765000Y-147804047D01*
X86812619Y-147756428D01*
X86907857Y-147708809D01*
X87050714Y-147708809D01*
X87145952Y-147756428D01*
X87193571Y-147804047D01*
X87241190Y-147899285D01*
X87241190Y-148280238D01*
X87669762Y-147327857D02*
X87717381Y-147232619D01*
X87717381Y-147042143D01*
X87669762Y-146946904D01*
X87574524Y-146899285D01*
X87526905Y-146899285D01*
X87431667Y-146946904D01*
X87384048Y-147042143D01*
X87384048Y-147185000D01*
X87336429Y-147280238D01*
X87241190Y-147327857D01*
X87193571Y-147327857D01*
X87098333Y-147280238D01*
X87050714Y-147185000D01*
X87050714Y-147042143D01*
X87098333Y-146946904D01*
X86812619Y-146518333D02*
X86765000Y-146470714D01*
X86717381Y-146375476D01*
X86717381Y-146137380D01*
X86765000Y-146042142D01*
X86812619Y-145994523D01*
X86907857Y-145946904D01*
X87003095Y-145946904D01*
X87145952Y-145994523D01*
X87717381Y-146565952D01*
X87717381Y-145946904D01*
X87717381Y-145470714D02*
X87717381Y-145280238D01*
X87669762Y-145184999D01*
X87622143Y-145137380D01*
X87479286Y-145042142D01*
X87288810Y-144994523D01*
X86907857Y-144994523D01*
X86812619Y-145042142D01*
X86765000Y-145089761D01*
X86717381Y-145184999D01*
X86717381Y-145375476D01*
X86765000Y-145470714D01*
X86812619Y-145518333D01*
X86907857Y-145565952D01*
X87145952Y-145565952D01*
X87241190Y-145518333D01*
X87288810Y-145470714D01*
X87336429Y-145375476D01*
X87336429Y-145184999D01*
X87288810Y-145089761D01*
X87241190Y-145042142D01*
X87145952Y-144994523D01*
X86812619Y-144613571D02*
X86765000Y-144565952D01*
X86717381Y-144470714D01*
X86717381Y-144232618D01*
X86765000Y-144137380D01*
X86812619Y-144089761D01*
X86907857Y-144042142D01*
X87003095Y-144042142D01*
X87145952Y-144089761D01*
X87717381Y-144661190D01*
X87717381Y-144042142D01*
X86447381Y-161813809D02*
X85971190Y-162147143D01*
X86447381Y-162385238D02*
X85447381Y-162385238D01*
X85447381Y-162004285D01*
X85495000Y-161909047D01*
X85542619Y-161861428D01*
X85637857Y-161813809D01*
X85780714Y-161813809D01*
X85875952Y-161861428D01*
X85923571Y-161909047D01*
X85971190Y-162004285D01*
X85971190Y-162385238D01*
X86399762Y-161432857D02*
X86447381Y-161337619D01*
X86447381Y-161147143D01*
X86399762Y-161051904D01*
X86304524Y-161004285D01*
X86256905Y-161004285D01*
X86161667Y-161051904D01*
X86114048Y-161147143D01*
X86114048Y-161290000D01*
X86066429Y-161385238D01*
X85971190Y-161432857D01*
X85923571Y-161432857D01*
X85828333Y-161385238D01*
X85780714Y-161290000D01*
X85780714Y-161147143D01*
X85828333Y-161051904D01*
X85542619Y-160623333D02*
X85495000Y-160575714D01*
X85447381Y-160480476D01*
X85447381Y-160242380D01*
X85495000Y-160147142D01*
X85542619Y-160099523D01*
X85637857Y-160051904D01*
X85733095Y-160051904D01*
X85875952Y-160099523D01*
X86447381Y-160670952D01*
X86447381Y-160051904D01*
X86447381Y-159575714D02*
X86447381Y-159385238D01*
X86399762Y-159289999D01*
X86352143Y-159242380D01*
X86209286Y-159147142D01*
X86018810Y-159099523D01*
X85637857Y-159099523D01*
X85542619Y-159147142D01*
X85495000Y-159194761D01*
X85447381Y-159289999D01*
X85447381Y-159480476D01*
X85495000Y-159575714D01*
X85542619Y-159623333D01*
X85637857Y-159670952D01*
X85875952Y-159670952D01*
X85971190Y-159623333D01*
X86018810Y-159575714D01*
X86066429Y-159480476D01*
X86066429Y-159289999D01*
X86018810Y-159194761D01*
X85971190Y-159147142D01*
X85875952Y-159099523D01*
X85447381Y-158194761D02*
X85447381Y-158670952D01*
X85923571Y-158718571D01*
X85875952Y-158670952D01*
X85828333Y-158575714D01*
X85828333Y-158337618D01*
X85875952Y-158242380D01*
X85923571Y-158194761D01*
X86018810Y-158147142D01*
X86256905Y-158147142D01*
X86352143Y-158194761D01*
X86399762Y-158242380D01*
X86447381Y-158337618D01*
X86447381Y-158575714D01*
X86399762Y-158670952D01*
X86352143Y-158718571D01*
X85177381Y-147708809D02*
X84701190Y-148042143D01*
X85177381Y-148280238D02*
X84177381Y-148280238D01*
X84177381Y-147899285D01*
X84225000Y-147804047D01*
X84272619Y-147756428D01*
X84367857Y-147708809D01*
X84510714Y-147708809D01*
X84605952Y-147756428D01*
X84653571Y-147804047D01*
X84701190Y-147899285D01*
X84701190Y-148280238D01*
X85129762Y-147327857D02*
X85177381Y-147232619D01*
X85177381Y-147042143D01*
X85129762Y-146946904D01*
X85034524Y-146899285D01*
X84986905Y-146899285D01*
X84891667Y-146946904D01*
X84844048Y-147042143D01*
X84844048Y-147185000D01*
X84796429Y-147280238D01*
X84701190Y-147327857D01*
X84653571Y-147327857D01*
X84558333Y-147280238D01*
X84510714Y-147185000D01*
X84510714Y-147042143D01*
X84558333Y-146946904D01*
X84272619Y-146518333D02*
X84225000Y-146470714D01*
X84177381Y-146375476D01*
X84177381Y-146137380D01*
X84225000Y-146042142D01*
X84272619Y-145994523D01*
X84367857Y-145946904D01*
X84463095Y-145946904D01*
X84605952Y-145994523D01*
X85177381Y-146565952D01*
X85177381Y-145946904D01*
X85177381Y-145470714D02*
X85177381Y-145280238D01*
X85129762Y-145184999D01*
X85082143Y-145137380D01*
X84939286Y-145042142D01*
X84748810Y-144994523D01*
X84367857Y-144994523D01*
X84272619Y-145042142D01*
X84225000Y-145089761D01*
X84177381Y-145184999D01*
X84177381Y-145375476D01*
X84225000Y-145470714D01*
X84272619Y-145518333D01*
X84367857Y-145565952D01*
X84605952Y-145565952D01*
X84701190Y-145518333D01*
X84748810Y-145470714D01*
X84796429Y-145375476D01*
X84796429Y-145184999D01*
X84748810Y-145089761D01*
X84701190Y-145042142D01*
X84605952Y-144994523D01*
X84177381Y-144137380D02*
X84177381Y-144327857D01*
X84225000Y-144423095D01*
X84272619Y-144470714D01*
X84415476Y-144565952D01*
X84605952Y-144613571D01*
X84986905Y-144613571D01*
X85082143Y-144565952D01*
X85129762Y-144518333D01*
X85177381Y-144423095D01*
X85177381Y-144232618D01*
X85129762Y-144137380D01*
X85082143Y-144089761D01*
X84986905Y-144042142D01*
X84748810Y-144042142D01*
X84653571Y-144089761D01*
X84605952Y-144137380D01*
X84558333Y-144232618D01*
X84558333Y-144423095D01*
X84605952Y-144518333D01*
X84653571Y-144565952D01*
X84748810Y-144613571D01*
X83907381Y-161813809D02*
X83431190Y-162147143D01*
X83907381Y-162385238D02*
X82907381Y-162385238D01*
X82907381Y-162004285D01*
X82955000Y-161909047D01*
X83002619Y-161861428D01*
X83097857Y-161813809D01*
X83240714Y-161813809D01*
X83335952Y-161861428D01*
X83383571Y-161909047D01*
X83431190Y-162004285D01*
X83431190Y-162385238D01*
X83859762Y-161432857D02*
X83907381Y-161337619D01*
X83907381Y-161147143D01*
X83859762Y-161051904D01*
X83764524Y-161004285D01*
X83716905Y-161004285D01*
X83621667Y-161051904D01*
X83574048Y-161147143D01*
X83574048Y-161290000D01*
X83526429Y-161385238D01*
X83431190Y-161432857D01*
X83383571Y-161432857D01*
X83288333Y-161385238D01*
X83240714Y-161290000D01*
X83240714Y-161147143D01*
X83288333Y-161051904D01*
X83002619Y-160623333D02*
X82955000Y-160575714D01*
X82907381Y-160480476D01*
X82907381Y-160242380D01*
X82955000Y-160147142D01*
X83002619Y-160099523D01*
X83097857Y-160051904D01*
X83193095Y-160051904D01*
X83335952Y-160099523D01*
X83907381Y-160670952D01*
X83907381Y-160051904D01*
X83907381Y-159575714D02*
X83907381Y-159385238D01*
X83859762Y-159289999D01*
X83812143Y-159242380D01*
X83669286Y-159147142D01*
X83478810Y-159099523D01*
X83097857Y-159099523D01*
X83002619Y-159147142D01*
X82955000Y-159194761D01*
X82907381Y-159289999D01*
X82907381Y-159480476D01*
X82955000Y-159575714D01*
X83002619Y-159623333D01*
X83097857Y-159670952D01*
X83335952Y-159670952D01*
X83431190Y-159623333D01*
X83478810Y-159575714D01*
X83526429Y-159480476D01*
X83526429Y-159289999D01*
X83478810Y-159194761D01*
X83431190Y-159147142D01*
X83335952Y-159099523D01*
X82907381Y-158766190D02*
X82907381Y-158099523D01*
X83907381Y-158528095D01*
X82637381Y-147708809D02*
X82161190Y-148042143D01*
X82637381Y-148280238D02*
X81637381Y-148280238D01*
X81637381Y-147899285D01*
X81685000Y-147804047D01*
X81732619Y-147756428D01*
X81827857Y-147708809D01*
X81970714Y-147708809D01*
X82065952Y-147756428D01*
X82113571Y-147804047D01*
X82161190Y-147899285D01*
X82161190Y-148280238D01*
X82589762Y-147327857D02*
X82637381Y-147232619D01*
X82637381Y-147042143D01*
X82589762Y-146946904D01*
X82494524Y-146899285D01*
X82446905Y-146899285D01*
X82351667Y-146946904D01*
X82304048Y-147042143D01*
X82304048Y-147185000D01*
X82256429Y-147280238D01*
X82161190Y-147327857D01*
X82113571Y-147327857D01*
X82018333Y-147280238D01*
X81970714Y-147185000D01*
X81970714Y-147042143D01*
X82018333Y-146946904D01*
X81732619Y-146518333D02*
X81685000Y-146470714D01*
X81637381Y-146375476D01*
X81637381Y-146137380D01*
X81685000Y-146042142D01*
X81732619Y-145994523D01*
X81827857Y-145946904D01*
X81923095Y-145946904D01*
X82065952Y-145994523D01*
X82637381Y-146565952D01*
X82637381Y-145946904D01*
X82637381Y-145470714D02*
X82637381Y-145280238D01*
X82589762Y-145184999D01*
X82542143Y-145137380D01*
X82399286Y-145042142D01*
X82208810Y-144994523D01*
X81827857Y-144994523D01*
X81732619Y-145042142D01*
X81685000Y-145089761D01*
X81637381Y-145184999D01*
X81637381Y-145375476D01*
X81685000Y-145470714D01*
X81732619Y-145518333D01*
X81827857Y-145565952D01*
X82065952Y-145565952D01*
X82161190Y-145518333D01*
X82208810Y-145470714D01*
X82256429Y-145375476D01*
X82256429Y-145184999D01*
X82208810Y-145089761D01*
X82161190Y-145042142D01*
X82065952Y-144994523D01*
X82065952Y-144423095D02*
X82018333Y-144518333D01*
X81970714Y-144565952D01*
X81875476Y-144613571D01*
X81827857Y-144613571D01*
X81732619Y-144565952D01*
X81685000Y-144518333D01*
X81637381Y-144423095D01*
X81637381Y-144232618D01*
X81685000Y-144137380D01*
X81732619Y-144089761D01*
X81827857Y-144042142D01*
X81875476Y-144042142D01*
X81970714Y-144089761D01*
X82018333Y-144137380D01*
X82065952Y-144232618D01*
X82065952Y-144423095D01*
X82113571Y-144518333D01*
X82161190Y-144565952D01*
X82256429Y-144613571D01*
X82446905Y-144613571D01*
X82542143Y-144565952D01*
X82589762Y-144518333D01*
X82637381Y-144423095D01*
X82637381Y-144232618D01*
X82589762Y-144137380D01*
X82542143Y-144089761D01*
X82446905Y-144042142D01*
X82256429Y-144042142D01*
X82161190Y-144089761D01*
X82113571Y-144137380D01*
X82065952Y-144232618D01*
X81367381Y-161813809D02*
X80891190Y-162147143D01*
X81367381Y-162385238D02*
X80367381Y-162385238D01*
X80367381Y-162004285D01*
X80415000Y-161909047D01*
X80462619Y-161861428D01*
X80557857Y-161813809D01*
X80700714Y-161813809D01*
X80795952Y-161861428D01*
X80843571Y-161909047D01*
X80891190Y-162004285D01*
X80891190Y-162385238D01*
X81319762Y-161432857D02*
X81367381Y-161337619D01*
X81367381Y-161147143D01*
X81319762Y-161051904D01*
X81224524Y-161004285D01*
X81176905Y-161004285D01*
X81081667Y-161051904D01*
X81034048Y-161147143D01*
X81034048Y-161290000D01*
X80986429Y-161385238D01*
X80891190Y-161432857D01*
X80843571Y-161432857D01*
X80748333Y-161385238D01*
X80700714Y-161290000D01*
X80700714Y-161147143D01*
X80748333Y-161051904D01*
X80462619Y-160623333D02*
X80415000Y-160575714D01*
X80367381Y-160480476D01*
X80367381Y-160242380D01*
X80415000Y-160147142D01*
X80462619Y-160099523D01*
X80557857Y-160051904D01*
X80653095Y-160051904D01*
X80795952Y-160099523D01*
X81367381Y-160670952D01*
X81367381Y-160051904D01*
X81367381Y-159575714D02*
X81367381Y-159385238D01*
X81319762Y-159289999D01*
X81272143Y-159242380D01*
X81129286Y-159147142D01*
X80938810Y-159099523D01*
X80557857Y-159099523D01*
X80462619Y-159147142D01*
X80415000Y-159194761D01*
X80367381Y-159289999D01*
X80367381Y-159480476D01*
X80415000Y-159575714D01*
X80462619Y-159623333D01*
X80557857Y-159670952D01*
X80795952Y-159670952D01*
X80891190Y-159623333D01*
X80938810Y-159575714D01*
X80986429Y-159480476D01*
X80986429Y-159289999D01*
X80938810Y-159194761D01*
X80891190Y-159147142D01*
X80795952Y-159099523D01*
X81367381Y-158623333D02*
X81367381Y-158432857D01*
X81319762Y-158337618D01*
X81272143Y-158289999D01*
X81129286Y-158194761D01*
X80938810Y-158147142D01*
X80557857Y-158147142D01*
X80462619Y-158194761D01*
X80415000Y-158242380D01*
X80367381Y-158337618D01*
X80367381Y-158528095D01*
X80415000Y-158623333D01*
X80462619Y-158670952D01*
X80557857Y-158718571D01*
X80795952Y-158718571D01*
X80891190Y-158670952D01*
X80938810Y-158623333D01*
X80986429Y-158528095D01*
X80986429Y-158337618D01*
X80938810Y-158242380D01*
X80891190Y-158194761D01*
X80795952Y-158147142D01*
X80097381Y-147708809D02*
X79621190Y-148042143D01*
X80097381Y-148280238D02*
X79097381Y-148280238D01*
X79097381Y-147899285D01*
X79145000Y-147804047D01*
X79192619Y-147756428D01*
X79287857Y-147708809D01*
X79430714Y-147708809D01*
X79525952Y-147756428D01*
X79573571Y-147804047D01*
X79621190Y-147899285D01*
X79621190Y-148280238D01*
X80049762Y-147327857D02*
X80097381Y-147232619D01*
X80097381Y-147042143D01*
X80049762Y-146946904D01*
X79954524Y-146899285D01*
X79906905Y-146899285D01*
X79811667Y-146946904D01*
X79764048Y-147042143D01*
X79764048Y-147185000D01*
X79716429Y-147280238D01*
X79621190Y-147327857D01*
X79573571Y-147327857D01*
X79478333Y-147280238D01*
X79430714Y-147185000D01*
X79430714Y-147042143D01*
X79478333Y-146946904D01*
X79097381Y-146565952D02*
X79097381Y-145946904D01*
X79478333Y-146280238D01*
X79478333Y-146137380D01*
X79525952Y-146042142D01*
X79573571Y-145994523D01*
X79668810Y-145946904D01*
X79906905Y-145946904D01*
X80002143Y-145994523D01*
X80049762Y-146042142D01*
X80097381Y-146137380D01*
X80097381Y-146423095D01*
X80049762Y-146518333D01*
X80002143Y-146565952D01*
X79097381Y-145327857D02*
X79097381Y-145232618D01*
X79145000Y-145137380D01*
X79192619Y-145089761D01*
X79287857Y-145042142D01*
X79478333Y-144994523D01*
X79716429Y-144994523D01*
X79906905Y-145042142D01*
X80002143Y-145089761D01*
X80049762Y-145137380D01*
X80097381Y-145232618D01*
X80097381Y-145327857D01*
X80049762Y-145423095D01*
X80002143Y-145470714D01*
X79906905Y-145518333D01*
X79716429Y-145565952D01*
X79478333Y-145565952D01*
X79287857Y-145518333D01*
X79192619Y-145470714D01*
X79145000Y-145423095D01*
X79097381Y-145327857D01*
X79097381Y-144375476D02*
X79097381Y-144280237D01*
X79145000Y-144184999D01*
X79192619Y-144137380D01*
X79287857Y-144089761D01*
X79478333Y-144042142D01*
X79716429Y-144042142D01*
X79906905Y-144089761D01*
X80002143Y-144137380D01*
X80049762Y-144184999D01*
X80097381Y-144280237D01*
X80097381Y-144375476D01*
X80049762Y-144470714D01*
X80002143Y-144518333D01*
X79906905Y-144565952D01*
X79716429Y-144613571D01*
X79478333Y-144613571D01*
X79287857Y-144565952D01*
X79192619Y-144518333D01*
X79145000Y-144470714D01*
X79097381Y-144375476D01*
X122331191Y-205867381D02*
X121997857Y-205391190D01*
X121759762Y-205867381D02*
X121759762Y-204867381D01*
X122140715Y-204867381D01*
X122235953Y-204915000D01*
X122283572Y-204962619D01*
X122331191Y-205057857D01*
X122331191Y-205200714D01*
X122283572Y-205295952D01*
X122235953Y-205343571D01*
X122140715Y-205391190D01*
X121759762Y-205391190D01*
X122712143Y-205819762D02*
X122807381Y-205867381D01*
X122997857Y-205867381D01*
X123093096Y-205819762D01*
X123140715Y-205724524D01*
X123140715Y-205676905D01*
X123093096Y-205581667D01*
X122997857Y-205534048D01*
X122855000Y-205534048D01*
X122759762Y-205486429D01*
X122712143Y-205391190D01*
X122712143Y-205343571D01*
X122759762Y-205248333D01*
X122855000Y-205200714D01*
X122997857Y-205200714D01*
X123093096Y-205248333D01*
X123521667Y-204962619D02*
X123569286Y-204915000D01*
X123664524Y-204867381D01*
X123902620Y-204867381D01*
X123997858Y-204915000D01*
X124045477Y-204962619D01*
X124093096Y-205057857D01*
X124093096Y-205153095D01*
X124045477Y-205295952D01*
X123474048Y-205867381D01*
X124093096Y-205867381D01*
X124426429Y-204867381D02*
X125045477Y-204867381D01*
X124712143Y-205248333D01*
X124855001Y-205248333D01*
X124950239Y-205295952D01*
X124997858Y-205343571D01*
X125045477Y-205438810D01*
X125045477Y-205676905D01*
X124997858Y-205772143D01*
X124950239Y-205819762D01*
X124855001Y-205867381D01*
X124569286Y-205867381D01*
X124474048Y-205819762D01*
X124426429Y-205772143D01*
X125378810Y-204867381D02*
X126045477Y-204867381D01*
X125616905Y-205867381D01*
X126931191Y-204367381D02*
X126597857Y-203891190D01*
X126359762Y-204367381D02*
X126359762Y-203367381D01*
X126740715Y-203367381D01*
X126835953Y-203415000D01*
X126883572Y-203462619D01*
X126931191Y-203557857D01*
X126931191Y-203700714D01*
X126883572Y-203795952D01*
X126835953Y-203843571D01*
X126740715Y-203891190D01*
X126359762Y-203891190D01*
X127312143Y-204319762D02*
X127407381Y-204367381D01*
X127597857Y-204367381D01*
X127693096Y-204319762D01*
X127740715Y-204224524D01*
X127740715Y-204176905D01*
X127693096Y-204081667D01*
X127597857Y-204034048D01*
X127455000Y-204034048D01*
X127359762Y-203986429D01*
X127312143Y-203891190D01*
X127312143Y-203843571D01*
X127359762Y-203748333D01*
X127455000Y-203700714D01*
X127597857Y-203700714D01*
X127693096Y-203748333D01*
X128121667Y-203462619D02*
X128169286Y-203415000D01*
X128264524Y-203367381D01*
X128502620Y-203367381D01*
X128597858Y-203415000D01*
X128645477Y-203462619D01*
X128693096Y-203557857D01*
X128693096Y-203653095D01*
X128645477Y-203795952D01*
X128074048Y-204367381D01*
X128693096Y-204367381D01*
X129026429Y-203367381D02*
X129645477Y-203367381D01*
X129312143Y-203748333D01*
X129455001Y-203748333D01*
X129550239Y-203795952D01*
X129597858Y-203843571D01*
X129645477Y-203938810D01*
X129645477Y-204176905D01*
X129597858Y-204272143D01*
X129550239Y-204319762D01*
X129455001Y-204367381D01*
X129169286Y-204367381D01*
X129074048Y-204319762D01*
X129026429Y-204272143D01*
X130216905Y-203795952D02*
X130121667Y-203748333D01*
X130074048Y-203700714D01*
X130026429Y-203605476D01*
X130026429Y-203557857D01*
X130074048Y-203462619D01*
X130121667Y-203415000D01*
X130216905Y-203367381D01*
X130407382Y-203367381D01*
X130502620Y-203415000D01*
X130550239Y-203462619D01*
X130597858Y-203557857D01*
X130597858Y-203605476D01*
X130550239Y-203700714D01*
X130502620Y-203748333D01*
X130407382Y-203795952D01*
X130216905Y-203795952D01*
X130121667Y-203843571D01*
X130074048Y-203891190D01*
X130026429Y-203986429D01*
X130026429Y-204176905D01*
X130074048Y-204272143D01*
X130121667Y-204319762D01*
X130216905Y-204367381D01*
X130407382Y-204367381D01*
X130502620Y-204319762D01*
X130550239Y-204272143D01*
X130597858Y-204176905D01*
X130597858Y-203986429D01*
X130550239Y-203891190D01*
X130502620Y-203843571D01*
X130407382Y-203795952D01*
X122431191Y-202867381D02*
X122097857Y-202391190D01*
X121859762Y-202867381D02*
X121859762Y-201867381D01*
X122240715Y-201867381D01*
X122335953Y-201915000D01*
X122383572Y-201962619D01*
X122431191Y-202057857D01*
X122431191Y-202200714D01*
X122383572Y-202295952D01*
X122335953Y-202343571D01*
X122240715Y-202391190D01*
X121859762Y-202391190D01*
X122812143Y-202819762D02*
X122907381Y-202867381D01*
X123097857Y-202867381D01*
X123193096Y-202819762D01*
X123240715Y-202724524D01*
X123240715Y-202676905D01*
X123193096Y-202581667D01*
X123097857Y-202534048D01*
X122955000Y-202534048D01*
X122859762Y-202486429D01*
X122812143Y-202391190D01*
X122812143Y-202343571D01*
X122859762Y-202248333D01*
X122955000Y-202200714D01*
X123097857Y-202200714D01*
X123193096Y-202248333D01*
X123621667Y-201962619D02*
X123669286Y-201915000D01*
X123764524Y-201867381D01*
X124002620Y-201867381D01*
X124097858Y-201915000D01*
X124145477Y-201962619D01*
X124193096Y-202057857D01*
X124193096Y-202153095D01*
X124145477Y-202295952D01*
X123574048Y-202867381D01*
X124193096Y-202867381D01*
X124526429Y-201867381D02*
X125145477Y-201867381D01*
X124812143Y-202248333D01*
X124955001Y-202248333D01*
X125050239Y-202295952D01*
X125097858Y-202343571D01*
X125145477Y-202438810D01*
X125145477Y-202676905D01*
X125097858Y-202772143D01*
X125050239Y-202819762D01*
X124955001Y-202867381D01*
X124669286Y-202867381D01*
X124574048Y-202819762D01*
X124526429Y-202772143D01*
X125621667Y-202867381D02*
X125812143Y-202867381D01*
X125907382Y-202819762D01*
X125955001Y-202772143D01*
X126050239Y-202629286D01*
X126097858Y-202438810D01*
X126097858Y-202057857D01*
X126050239Y-201962619D01*
X126002620Y-201915000D01*
X125907382Y-201867381D01*
X125716905Y-201867381D01*
X125621667Y-201915000D01*
X125574048Y-201962619D01*
X125526429Y-202057857D01*
X125526429Y-202295952D01*
X125574048Y-202391190D01*
X125621667Y-202438810D01*
X125716905Y-202486429D01*
X125907382Y-202486429D01*
X126002620Y-202438810D01*
X126050239Y-202391190D01*
X126097858Y-202295952D01*
X126931191Y-201367381D02*
X126597857Y-200891190D01*
X126359762Y-201367381D02*
X126359762Y-200367381D01*
X126740715Y-200367381D01*
X126835953Y-200415000D01*
X126883572Y-200462619D01*
X126931191Y-200557857D01*
X126931191Y-200700714D01*
X126883572Y-200795952D01*
X126835953Y-200843571D01*
X126740715Y-200891190D01*
X126359762Y-200891190D01*
X127312143Y-201319762D02*
X127407381Y-201367381D01*
X127597857Y-201367381D01*
X127693096Y-201319762D01*
X127740715Y-201224524D01*
X127740715Y-201176905D01*
X127693096Y-201081667D01*
X127597857Y-201034048D01*
X127455000Y-201034048D01*
X127359762Y-200986429D01*
X127312143Y-200891190D01*
X127312143Y-200843571D01*
X127359762Y-200748333D01*
X127455000Y-200700714D01*
X127597857Y-200700714D01*
X127693096Y-200748333D01*
X128121667Y-200462619D02*
X128169286Y-200415000D01*
X128264524Y-200367381D01*
X128502620Y-200367381D01*
X128597858Y-200415000D01*
X128645477Y-200462619D01*
X128693096Y-200557857D01*
X128693096Y-200653095D01*
X128645477Y-200795952D01*
X128074048Y-201367381D01*
X128693096Y-201367381D01*
X129550239Y-200700714D02*
X129550239Y-201367381D01*
X129312143Y-200319762D02*
X129074048Y-201034048D01*
X129693096Y-201034048D01*
X130264524Y-200367381D02*
X130359763Y-200367381D01*
X130455001Y-200415000D01*
X130502620Y-200462619D01*
X130550239Y-200557857D01*
X130597858Y-200748333D01*
X130597858Y-200986429D01*
X130550239Y-201176905D01*
X130502620Y-201272143D01*
X130455001Y-201319762D01*
X130359763Y-201367381D01*
X130264524Y-201367381D01*
X130169286Y-201319762D01*
X130121667Y-201272143D01*
X130074048Y-201176905D01*
X130026429Y-200986429D01*
X130026429Y-200748333D01*
X130074048Y-200557857D01*
X130121667Y-200462619D01*
X130169286Y-200415000D01*
X130264524Y-200367381D01*
X122431191Y-199867381D02*
X122097857Y-199391190D01*
X121859762Y-199867381D02*
X121859762Y-198867381D01*
X122240715Y-198867381D01*
X122335953Y-198915000D01*
X122383572Y-198962619D01*
X122431191Y-199057857D01*
X122431191Y-199200714D01*
X122383572Y-199295952D01*
X122335953Y-199343571D01*
X122240715Y-199391190D01*
X121859762Y-199391190D01*
X122812143Y-199819762D02*
X122907381Y-199867381D01*
X123097857Y-199867381D01*
X123193096Y-199819762D01*
X123240715Y-199724524D01*
X123240715Y-199676905D01*
X123193096Y-199581667D01*
X123097857Y-199534048D01*
X122955000Y-199534048D01*
X122859762Y-199486429D01*
X122812143Y-199391190D01*
X122812143Y-199343571D01*
X122859762Y-199248333D01*
X122955000Y-199200714D01*
X123097857Y-199200714D01*
X123193096Y-199248333D01*
X123621667Y-198962619D02*
X123669286Y-198915000D01*
X123764524Y-198867381D01*
X124002620Y-198867381D01*
X124097858Y-198915000D01*
X124145477Y-198962619D01*
X124193096Y-199057857D01*
X124193096Y-199153095D01*
X124145477Y-199295952D01*
X123574048Y-199867381D01*
X124193096Y-199867381D01*
X125050239Y-199200714D02*
X125050239Y-199867381D01*
X124812143Y-198819762D02*
X124574048Y-199534048D01*
X125193096Y-199534048D01*
X126097858Y-199867381D02*
X125526429Y-199867381D01*
X125812143Y-199867381D02*
X125812143Y-198867381D01*
X125716905Y-199010238D01*
X125621667Y-199105476D01*
X125526429Y-199153095D01*
X126931191Y-198367381D02*
X126597857Y-197891190D01*
X126359762Y-198367381D02*
X126359762Y-197367381D01*
X126740715Y-197367381D01*
X126835953Y-197415000D01*
X126883572Y-197462619D01*
X126931191Y-197557857D01*
X126931191Y-197700714D01*
X126883572Y-197795952D01*
X126835953Y-197843571D01*
X126740715Y-197891190D01*
X126359762Y-197891190D01*
X127312143Y-198319762D02*
X127407381Y-198367381D01*
X127597857Y-198367381D01*
X127693096Y-198319762D01*
X127740715Y-198224524D01*
X127740715Y-198176905D01*
X127693096Y-198081667D01*
X127597857Y-198034048D01*
X127455000Y-198034048D01*
X127359762Y-197986429D01*
X127312143Y-197891190D01*
X127312143Y-197843571D01*
X127359762Y-197748333D01*
X127455000Y-197700714D01*
X127597857Y-197700714D01*
X127693096Y-197748333D01*
X128121667Y-197462619D02*
X128169286Y-197415000D01*
X128264524Y-197367381D01*
X128502620Y-197367381D01*
X128597858Y-197415000D01*
X128645477Y-197462619D01*
X128693096Y-197557857D01*
X128693096Y-197653095D01*
X128645477Y-197795952D01*
X128074048Y-198367381D01*
X128693096Y-198367381D01*
X129550239Y-197700714D02*
X129550239Y-198367381D01*
X129312143Y-197319762D02*
X129074048Y-198034048D01*
X129693096Y-198034048D01*
X130026429Y-197462619D02*
X130074048Y-197415000D01*
X130169286Y-197367381D01*
X130407382Y-197367381D01*
X130502620Y-197415000D01*
X130550239Y-197462619D01*
X130597858Y-197557857D01*
X130597858Y-197653095D01*
X130550239Y-197795952D01*
X129978810Y-198367381D01*
X130597858Y-198367381D01*
X122431191Y-196867381D02*
X122097857Y-196391190D01*
X121859762Y-196867381D02*
X121859762Y-195867381D01*
X122240715Y-195867381D01*
X122335953Y-195915000D01*
X122383572Y-195962619D01*
X122431191Y-196057857D01*
X122431191Y-196200714D01*
X122383572Y-196295952D01*
X122335953Y-196343571D01*
X122240715Y-196391190D01*
X121859762Y-196391190D01*
X122812143Y-196819762D02*
X122907381Y-196867381D01*
X123097857Y-196867381D01*
X123193096Y-196819762D01*
X123240715Y-196724524D01*
X123240715Y-196676905D01*
X123193096Y-196581667D01*
X123097857Y-196534048D01*
X122955000Y-196534048D01*
X122859762Y-196486429D01*
X122812143Y-196391190D01*
X122812143Y-196343571D01*
X122859762Y-196248333D01*
X122955000Y-196200714D01*
X123097857Y-196200714D01*
X123193096Y-196248333D01*
X123621667Y-195962619D02*
X123669286Y-195915000D01*
X123764524Y-195867381D01*
X124002620Y-195867381D01*
X124097858Y-195915000D01*
X124145477Y-195962619D01*
X124193096Y-196057857D01*
X124193096Y-196153095D01*
X124145477Y-196295952D01*
X123574048Y-196867381D01*
X124193096Y-196867381D01*
X125050239Y-196200714D02*
X125050239Y-196867381D01*
X124812143Y-195819762D02*
X124574048Y-196534048D01*
X125193096Y-196534048D01*
X125478810Y-195867381D02*
X126097858Y-195867381D01*
X125764524Y-196248333D01*
X125907382Y-196248333D01*
X126002620Y-196295952D01*
X126050239Y-196343571D01*
X126097858Y-196438810D01*
X126097858Y-196676905D01*
X126050239Y-196772143D01*
X126002620Y-196819762D01*
X125907382Y-196867381D01*
X125621667Y-196867381D01*
X125526429Y-196819762D01*
X125478810Y-196772143D01*
X126931191Y-195367381D02*
X126597857Y-194891190D01*
X126359762Y-195367381D02*
X126359762Y-194367381D01*
X126740715Y-194367381D01*
X126835953Y-194415000D01*
X126883572Y-194462619D01*
X126931191Y-194557857D01*
X126931191Y-194700714D01*
X126883572Y-194795952D01*
X126835953Y-194843571D01*
X126740715Y-194891190D01*
X126359762Y-194891190D01*
X127312143Y-195319762D02*
X127407381Y-195367381D01*
X127597857Y-195367381D01*
X127693096Y-195319762D01*
X127740715Y-195224524D01*
X127740715Y-195176905D01*
X127693096Y-195081667D01*
X127597857Y-195034048D01*
X127455000Y-195034048D01*
X127359762Y-194986429D01*
X127312143Y-194891190D01*
X127312143Y-194843571D01*
X127359762Y-194748333D01*
X127455000Y-194700714D01*
X127597857Y-194700714D01*
X127693096Y-194748333D01*
X128121667Y-194462619D02*
X128169286Y-194415000D01*
X128264524Y-194367381D01*
X128502620Y-194367381D01*
X128597858Y-194415000D01*
X128645477Y-194462619D01*
X128693096Y-194557857D01*
X128693096Y-194653095D01*
X128645477Y-194795952D01*
X128074048Y-195367381D01*
X128693096Y-195367381D01*
X129550239Y-194700714D02*
X129550239Y-195367381D01*
X129312143Y-194319762D02*
X129074048Y-195034048D01*
X129693096Y-195034048D01*
X130502620Y-194700714D02*
X130502620Y-195367381D01*
X130264524Y-194319762D02*
X130026429Y-195034048D01*
X130645477Y-195034048D01*
X122431191Y-193867381D02*
X122097857Y-193391190D01*
X121859762Y-193867381D02*
X121859762Y-192867381D01*
X122240715Y-192867381D01*
X122335953Y-192915000D01*
X122383572Y-192962619D01*
X122431191Y-193057857D01*
X122431191Y-193200714D01*
X122383572Y-193295952D01*
X122335953Y-193343571D01*
X122240715Y-193391190D01*
X121859762Y-193391190D01*
X122812143Y-193819762D02*
X122907381Y-193867381D01*
X123097857Y-193867381D01*
X123193096Y-193819762D01*
X123240715Y-193724524D01*
X123240715Y-193676905D01*
X123193096Y-193581667D01*
X123097857Y-193534048D01*
X122955000Y-193534048D01*
X122859762Y-193486429D01*
X122812143Y-193391190D01*
X122812143Y-193343571D01*
X122859762Y-193248333D01*
X122955000Y-193200714D01*
X123097857Y-193200714D01*
X123193096Y-193248333D01*
X123621667Y-192962619D02*
X123669286Y-192915000D01*
X123764524Y-192867381D01*
X124002620Y-192867381D01*
X124097858Y-192915000D01*
X124145477Y-192962619D01*
X124193096Y-193057857D01*
X124193096Y-193153095D01*
X124145477Y-193295952D01*
X123574048Y-193867381D01*
X124193096Y-193867381D01*
X125050239Y-193200714D02*
X125050239Y-193867381D01*
X124812143Y-192819762D02*
X124574048Y-193534048D01*
X125193096Y-193534048D01*
X125478810Y-192867381D02*
X126145477Y-192867381D01*
X125716905Y-193867381D01*
X126931191Y-192367381D02*
X126597857Y-191891190D01*
X126359762Y-192367381D02*
X126359762Y-191367381D01*
X126740715Y-191367381D01*
X126835953Y-191415000D01*
X126883572Y-191462619D01*
X126931191Y-191557857D01*
X126931191Y-191700714D01*
X126883572Y-191795952D01*
X126835953Y-191843571D01*
X126740715Y-191891190D01*
X126359762Y-191891190D01*
X127312143Y-192319762D02*
X127407381Y-192367381D01*
X127597857Y-192367381D01*
X127693096Y-192319762D01*
X127740715Y-192224524D01*
X127740715Y-192176905D01*
X127693096Y-192081667D01*
X127597857Y-192034048D01*
X127455000Y-192034048D01*
X127359762Y-191986429D01*
X127312143Y-191891190D01*
X127312143Y-191843571D01*
X127359762Y-191748333D01*
X127455000Y-191700714D01*
X127597857Y-191700714D01*
X127693096Y-191748333D01*
X128121667Y-191462619D02*
X128169286Y-191415000D01*
X128264524Y-191367381D01*
X128502620Y-191367381D01*
X128597858Y-191415000D01*
X128645477Y-191462619D01*
X128693096Y-191557857D01*
X128693096Y-191653095D01*
X128645477Y-191795952D01*
X128074048Y-192367381D01*
X128693096Y-192367381D01*
X129550239Y-191700714D02*
X129550239Y-192367381D01*
X129312143Y-191319762D02*
X129074048Y-192034048D01*
X129693096Y-192034048D01*
X130216905Y-191795952D02*
X130121667Y-191748333D01*
X130074048Y-191700714D01*
X130026429Y-191605476D01*
X130026429Y-191557857D01*
X130074048Y-191462619D01*
X130121667Y-191415000D01*
X130216905Y-191367381D01*
X130407382Y-191367381D01*
X130502620Y-191415000D01*
X130550239Y-191462619D01*
X130597858Y-191557857D01*
X130597858Y-191605476D01*
X130550239Y-191700714D01*
X130502620Y-191748333D01*
X130407382Y-191795952D01*
X130216905Y-191795952D01*
X130121667Y-191843571D01*
X130074048Y-191891190D01*
X130026429Y-191986429D01*
X130026429Y-192176905D01*
X130074048Y-192272143D01*
X130121667Y-192319762D01*
X130216905Y-192367381D01*
X130407382Y-192367381D01*
X130502620Y-192319762D01*
X130550239Y-192272143D01*
X130597858Y-192176905D01*
X130597858Y-191986429D01*
X130550239Y-191891190D01*
X130502620Y-191843571D01*
X130407382Y-191795952D01*
X122431191Y-190867381D02*
X122097857Y-190391190D01*
X121859762Y-190867381D02*
X121859762Y-189867381D01*
X122240715Y-189867381D01*
X122335953Y-189915000D01*
X122383572Y-189962619D01*
X122431191Y-190057857D01*
X122431191Y-190200714D01*
X122383572Y-190295952D01*
X122335953Y-190343571D01*
X122240715Y-190391190D01*
X121859762Y-190391190D01*
X122812143Y-190819762D02*
X122907381Y-190867381D01*
X123097857Y-190867381D01*
X123193096Y-190819762D01*
X123240715Y-190724524D01*
X123240715Y-190676905D01*
X123193096Y-190581667D01*
X123097857Y-190534048D01*
X122955000Y-190534048D01*
X122859762Y-190486429D01*
X122812143Y-190391190D01*
X122812143Y-190343571D01*
X122859762Y-190248333D01*
X122955000Y-190200714D01*
X123097857Y-190200714D01*
X123193096Y-190248333D01*
X123621667Y-189962619D02*
X123669286Y-189915000D01*
X123764524Y-189867381D01*
X124002620Y-189867381D01*
X124097858Y-189915000D01*
X124145477Y-189962619D01*
X124193096Y-190057857D01*
X124193096Y-190153095D01*
X124145477Y-190295952D01*
X123574048Y-190867381D01*
X124193096Y-190867381D01*
X125050239Y-190200714D02*
X125050239Y-190867381D01*
X124812143Y-189819762D02*
X124574048Y-190534048D01*
X125193096Y-190534048D01*
X125621667Y-190867381D02*
X125812143Y-190867381D01*
X125907382Y-190819762D01*
X125955001Y-190772143D01*
X126050239Y-190629286D01*
X126097858Y-190438810D01*
X126097858Y-190057857D01*
X126050239Y-189962619D01*
X126002620Y-189915000D01*
X125907382Y-189867381D01*
X125716905Y-189867381D01*
X125621667Y-189915000D01*
X125574048Y-189962619D01*
X125526429Y-190057857D01*
X125526429Y-190295952D01*
X125574048Y-190391190D01*
X125621667Y-190438810D01*
X125716905Y-190486429D01*
X125907382Y-190486429D01*
X126002620Y-190438810D01*
X126050239Y-190391190D01*
X126097858Y-190295952D01*
X126931191Y-189367381D02*
X126597857Y-188891190D01*
X126359762Y-189367381D02*
X126359762Y-188367381D01*
X126740715Y-188367381D01*
X126835953Y-188415000D01*
X126883572Y-188462619D01*
X126931191Y-188557857D01*
X126931191Y-188700714D01*
X126883572Y-188795952D01*
X126835953Y-188843571D01*
X126740715Y-188891190D01*
X126359762Y-188891190D01*
X127312143Y-189319762D02*
X127407381Y-189367381D01*
X127597857Y-189367381D01*
X127693096Y-189319762D01*
X127740715Y-189224524D01*
X127740715Y-189176905D01*
X127693096Y-189081667D01*
X127597857Y-189034048D01*
X127455000Y-189034048D01*
X127359762Y-188986429D01*
X127312143Y-188891190D01*
X127312143Y-188843571D01*
X127359762Y-188748333D01*
X127455000Y-188700714D01*
X127597857Y-188700714D01*
X127693096Y-188748333D01*
X128121667Y-188462619D02*
X128169286Y-188415000D01*
X128264524Y-188367381D01*
X128502620Y-188367381D01*
X128597858Y-188415000D01*
X128645477Y-188462619D01*
X128693096Y-188557857D01*
X128693096Y-188653095D01*
X128645477Y-188795952D01*
X128074048Y-189367381D01*
X128693096Y-189367381D01*
X129597858Y-188367381D02*
X129121667Y-188367381D01*
X129074048Y-188843571D01*
X129121667Y-188795952D01*
X129216905Y-188748333D01*
X129455001Y-188748333D01*
X129550239Y-188795952D01*
X129597858Y-188843571D01*
X129645477Y-188938810D01*
X129645477Y-189176905D01*
X129597858Y-189272143D01*
X129550239Y-189319762D01*
X129455001Y-189367381D01*
X129216905Y-189367381D01*
X129121667Y-189319762D01*
X129074048Y-189272143D01*
X130264524Y-188367381D02*
X130359763Y-188367381D01*
X130455001Y-188415000D01*
X130502620Y-188462619D01*
X130550239Y-188557857D01*
X130597858Y-188748333D01*
X130597858Y-188986429D01*
X130550239Y-189176905D01*
X130502620Y-189272143D01*
X130455001Y-189319762D01*
X130359763Y-189367381D01*
X130264524Y-189367381D01*
X130169286Y-189319762D01*
X130121667Y-189272143D01*
X130074048Y-189176905D01*
X130026429Y-188986429D01*
X130026429Y-188748333D01*
X130074048Y-188557857D01*
X130121667Y-188462619D01*
X130169286Y-188415000D01*
X130264524Y-188367381D01*
X122431191Y-187867381D02*
X122097857Y-187391190D01*
X121859762Y-187867381D02*
X121859762Y-186867381D01*
X122240715Y-186867381D01*
X122335953Y-186915000D01*
X122383572Y-186962619D01*
X122431191Y-187057857D01*
X122431191Y-187200714D01*
X122383572Y-187295952D01*
X122335953Y-187343571D01*
X122240715Y-187391190D01*
X121859762Y-187391190D01*
X122812143Y-187819762D02*
X122907381Y-187867381D01*
X123097857Y-187867381D01*
X123193096Y-187819762D01*
X123240715Y-187724524D01*
X123240715Y-187676905D01*
X123193096Y-187581667D01*
X123097857Y-187534048D01*
X122955000Y-187534048D01*
X122859762Y-187486429D01*
X122812143Y-187391190D01*
X122812143Y-187343571D01*
X122859762Y-187248333D01*
X122955000Y-187200714D01*
X123097857Y-187200714D01*
X123193096Y-187248333D01*
X123621667Y-186962619D02*
X123669286Y-186915000D01*
X123764524Y-186867381D01*
X124002620Y-186867381D01*
X124097858Y-186915000D01*
X124145477Y-186962619D01*
X124193096Y-187057857D01*
X124193096Y-187153095D01*
X124145477Y-187295952D01*
X123574048Y-187867381D01*
X124193096Y-187867381D01*
X125097858Y-186867381D02*
X124621667Y-186867381D01*
X124574048Y-187343571D01*
X124621667Y-187295952D01*
X124716905Y-187248333D01*
X124955001Y-187248333D01*
X125050239Y-187295952D01*
X125097858Y-187343571D01*
X125145477Y-187438810D01*
X125145477Y-187676905D01*
X125097858Y-187772143D01*
X125050239Y-187819762D01*
X124955001Y-187867381D01*
X124716905Y-187867381D01*
X124621667Y-187819762D01*
X124574048Y-187772143D01*
X126097858Y-187867381D02*
X125526429Y-187867381D01*
X125812143Y-187867381D02*
X125812143Y-186867381D01*
X125716905Y-187010238D01*
X125621667Y-187105476D01*
X125526429Y-187153095D01*
X126931191Y-186367381D02*
X126597857Y-185891190D01*
X126359762Y-186367381D02*
X126359762Y-185367381D01*
X126740715Y-185367381D01*
X126835953Y-185415000D01*
X126883572Y-185462619D01*
X126931191Y-185557857D01*
X126931191Y-185700714D01*
X126883572Y-185795952D01*
X126835953Y-185843571D01*
X126740715Y-185891190D01*
X126359762Y-185891190D01*
X127312143Y-186319762D02*
X127407381Y-186367381D01*
X127597857Y-186367381D01*
X127693096Y-186319762D01*
X127740715Y-186224524D01*
X127740715Y-186176905D01*
X127693096Y-186081667D01*
X127597857Y-186034048D01*
X127455000Y-186034048D01*
X127359762Y-185986429D01*
X127312143Y-185891190D01*
X127312143Y-185843571D01*
X127359762Y-185748333D01*
X127455000Y-185700714D01*
X127597857Y-185700714D01*
X127693096Y-185748333D01*
X128121667Y-185462619D02*
X128169286Y-185415000D01*
X128264524Y-185367381D01*
X128502620Y-185367381D01*
X128597858Y-185415000D01*
X128645477Y-185462619D01*
X128693096Y-185557857D01*
X128693096Y-185653095D01*
X128645477Y-185795952D01*
X128074048Y-186367381D01*
X128693096Y-186367381D01*
X129597858Y-185367381D02*
X129121667Y-185367381D01*
X129074048Y-185843571D01*
X129121667Y-185795952D01*
X129216905Y-185748333D01*
X129455001Y-185748333D01*
X129550239Y-185795952D01*
X129597858Y-185843571D01*
X129645477Y-185938810D01*
X129645477Y-186176905D01*
X129597858Y-186272143D01*
X129550239Y-186319762D01*
X129455001Y-186367381D01*
X129216905Y-186367381D01*
X129121667Y-186319762D01*
X129074048Y-186272143D01*
X130026429Y-185462619D02*
X130074048Y-185415000D01*
X130169286Y-185367381D01*
X130407382Y-185367381D01*
X130502620Y-185415000D01*
X130550239Y-185462619D01*
X130597858Y-185557857D01*
X130597858Y-185653095D01*
X130550239Y-185795952D01*
X129978810Y-186367381D01*
X130597858Y-186367381D01*
X122331191Y-184867381D02*
X121997857Y-184391190D01*
X121759762Y-184867381D02*
X121759762Y-183867381D01*
X122140715Y-183867381D01*
X122235953Y-183915000D01*
X122283572Y-183962619D01*
X122331191Y-184057857D01*
X122331191Y-184200714D01*
X122283572Y-184295952D01*
X122235953Y-184343571D01*
X122140715Y-184391190D01*
X121759762Y-184391190D01*
X122712143Y-184819762D02*
X122807381Y-184867381D01*
X122997857Y-184867381D01*
X123093096Y-184819762D01*
X123140715Y-184724524D01*
X123140715Y-184676905D01*
X123093096Y-184581667D01*
X122997857Y-184534048D01*
X122855000Y-184534048D01*
X122759762Y-184486429D01*
X122712143Y-184391190D01*
X122712143Y-184343571D01*
X122759762Y-184248333D01*
X122855000Y-184200714D01*
X122997857Y-184200714D01*
X123093096Y-184248333D01*
X123521667Y-183962619D02*
X123569286Y-183915000D01*
X123664524Y-183867381D01*
X123902620Y-183867381D01*
X123997858Y-183915000D01*
X124045477Y-183962619D01*
X124093096Y-184057857D01*
X124093096Y-184153095D01*
X124045477Y-184295952D01*
X123474048Y-184867381D01*
X124093096Y-184867381D01*
X124997858Y-183867381D02*
X124521667Y-183867381D01*
X124474048Y-184343571D01*
X124521667Y-184295952D01*
X124616905Y-184248333D01*
X124855001Y-184248333D01*
X124950239Y-184295952D01*
X124997858Y-184343571D01*
X125045477Y-184438810D01*
X125045477Y-184676905D01*
X124997858Y-184772143D01*
X124950239Y-184819762D01*
X124855001Y-184867381D01*
X124616905Y-184867381D01*
X124521667Y-184819762D01*
X124474048Y-184772143D01*
X125378810Y-183867381D02*
X125997858Y-183867381D01*
X125664524Y-184248333D01*
X125807382Y-184248333D01*
X125902620Y-184295952D01*
X125950239Y-184343571D01*
X125997858Y-184438810D01*
X125997858Y-184676905D01*
X125950239Y-184772143D01*
X125902620Y-184819762D01*
X125807382Y-184867381D01*
X125521667Y-184867381D01*
X125426429Y-184819762D01*
X125378810Y-184772143D01*
X126831191Y-183367381D02*
X126497857Y-182891190D01*
X126259762Y-183367381D02*
X126259762Y-182367381D01*
X126640715Y-182367381D01*
X126735953Y-182415000D01*
X126783572Y-182462619D01*
X126831191Y-182557857D01*
X126831191Y-182700714D01*
X126783572Y-182795952D01*
X126735953Y-182843571D01*
X126640715Y-182891190D01*
X126259762Y-182891190D01*
X127212143Y-183319762D02*
X127307381Y-183367381D01*
X127497857Y-183367381D01*
X127593096Y-183319762D01*
X127640715Y-183224524D01*
X127640715Y-183176905D01*
X127593096Y-183081667D01*
X127497857Y-183034048D01*
X127355000Y-183034048D01*
X127259762Y-182986429D01*
X127212143Y-182891190D01*
X127212143Y-182843571D01*
X127259762Y-182748333D01*
X127355000Y-182700714D01*
X127497857Y-182700714D01*
X127593096Y-182748333D01*
X128021667Y-182462619D02*
X128069286Y-182415000D01*
X128164524Y-182367381D01*
X128402620Y-182367381D01*
X128497858Y-182415000D01*
X128545477Y-182462619D01*
X128593096Y-182557857D01*
X128593096Y-182653095D01*
X128545477Y-182795952D01*
X127974048Y-183367381D01*
X128593096Y-183367381D01*
X129497858Y-182367381D02*
X129021667Y-182367381D01*
X128974048Y-182843571D01*
X129021667Y-182795952D01*
X129116905Y-182748333D01*
X129355001Y-182748333D01*
X129450239Y-182795952D01*
X129497858Y-182843571D01*
X129545477Y-182938810D01*
X129545477Y-183176905D01*
X129497858Y-183272143D01*
X129450239Y-183319762D01*
X129355001Y-183367381D01*
X129116905Y-183367381D01*
X129021667Y-183319762D01*
X128974048Y-183272143D01*
X130402620Y-182700714D02*
X130402620Y-183367381D01*
X130164524Y-182319762D02*
X129926429Y-183034048D01*
X130545477Y-183034048D01*
X122431191Y-181867381D02*
X122097857Y-181391190D01*
X121859762Y-181867381D02*
X121859762Y-180867381D01*
X122240715Y-180867381D01*
X122335953Y-180915000D01*
X122383572Y-180962619D01*
X122431191Y-181057857D01*
X122431191Y-181200714D01*
X122383572Y-181295952D01*
X122335953Y-181343571D01*
X122240715Y-181391190D01*
X121859762Y-181391190D01*
X122812143Y-181819762D02*
X122907381Y-181867381D01*
X123097857Y-181867381D01*
X123193096Y-181819762D01*
X123240715Y-181724524D01*
X123240715Y-181676905D01*
X123193096Y-181581667D01*
X123097857Y-181534048D01*
X122955000Y-181534048D01*
X122859762Y-181486429D01*
X122812143Y-181391190D01*
X122812143Y-181343571D01*
X122859762Y-181248333D01*
X122955000Y-181200714D01*
X123097857Y-181200714D01*
X123193096Y-181248333D01*
X123621667Y-180962619D02*
X123669286Y-180915000D01*
X123764524Y-180867381D01*
X124002620Y-180867381D01*
X124097858Y-180915000D01*
X124145477Y-180962619D01*
X124193096Y-181057857D01*
X124193096Y-181153095D01*
X124145477Y-181295952D01*
X123574048Y-181867381D01*
X124193096Y-181867381D01*
X125097858Y-180867381D02*
X124621667Y-180867381D01*
X124574048Y-181343571D01*
X124621667Y-181295952D01*
X124716905Y-181248333D01*
X124955001Y-181248333D01*
X125050239Y-181295952D01*
X125097858Y-181343571D01*
X125145477Y-181438810D01*
X125145477Y-181676905D01*
X125097858Y-181772143D01*
X125050239Y-181819762D01*
X124955001Y-181867381D01*
X124716905Y-181867381D01*
X124621667Y-181819762D01*
X124574048Y-181772143D01*
X126050239Y-180867381D02*
X125574048Y-180867381D01*
X125526429Y-181343571D01*
X125574048Y-181295952D01*
X125669286Y-181248333D01*
X125907382Y-181248333D01*
X126002620Y-181295952D01*
X126050239Y-181343571D01*
X126097858Y-181438810D01*
X126097858Y-181676905D01*
X126050239Y-181772143D01*
X126002620Y-181819762D01*
X125907382Y-181867381D01*
X125669286Y-181867381D01*
X125574048Y-181819762D01*
X125526429Y-181772143D01*
X126831191Y-180367381D02*
X126497857Y-179891190D01*
X126259762Y-180367381D02*
X126259762Y-179367381D01*
X126640715Y-179367381D01*
X126735953Y-179415000D01*
X126783572Y-179462619D01*
X126831191Y-179557857D01*
X126831191Y-179700714D01*
X126783572Y-179795952D01*
X126735953Y-179843571D01*
X126640715Y-179891190D01*
X126259762Y-179891190D01*
X127212143Y-180319762D02*
X127307381Y-180367381D01*
X127497857Y-180367381D01*
X127593096Y-180319762D01*
X127640715Y-180224524D01*
X127640715Y-180176905D01*
X127593096Y-180081667D01*
X127497857Y-180034048D01*
X127355000Y-180034048D01*
X127259762Y-179986429D01*
X127212143Y-179891190D01*
X127212143Y-179843571D01*
X127259762Y-179748333D01*
X127355000Y-179700714D01*
X127497857Y-179700714D01*
X127593096Y-179748333D01*
X128021667Y-179462619D02*
X128069286Y-179415000D01*
X128164524Y-179367381D01*
X128402620Y-179367381D01*
X128497858Y-179415000D01*
X128545477Y-179462619D01*
X128593096Y-179557857D01*
X128593096Y-179653095D01*
X128545477Y-179795952D01*
X127974048Y-180367381D01*
X128593096Y-180367381D01*
X129497858Y-179367381D02*
X129021667Y-179367381D01*
X128974048Y-179843571D01*
X129021667Y-179795952D01*
X129116905Y-179748333D01*
X129355001Y-179748333D01*
X129450239Y-179795952D01*
X129497858Y-179843571D01*
X129545477Y-179938810D01*
X129545477Y-180176905D01*
X129497858Y-180272143D01*
X129450239Y-180319762D01*
X129355001Y-180367381D01*
X129116905Y-180367381D01*
X129021667Y-180319762D01*
X128974048Y-180272143D01*
X130402620Y-179367381D02*
X130212143Y-179367381D01*
X130116905Y-179415000D01*
X130069286Y-179462619D01*
X129974048Y-179605476D01*
X129926429Y-179795952D01*
X129926429Y-180176905D01*
X129974048Y-180272143D01*
X130021667Y-180319762D01*
X130116905Y-180367381D01*
X130307382Y-180367381D01*
X130402620Y-180319762D01*
X130450239Y-180272143D01*
X130497858Y-180176905D01*
X130497858Y-179938810D01*
X130450239Y-179843571D01*
X130402620Y-179795952D01*
X130307382Y-179748333D01*
X130116905Y-179748333D01*
X130021667Y-179795952D01*
X129974048Y-179843571D01*
X129926429Y-179938810D01*
X83907381Y-218938809D02*
X83431190Y-219272143D01*
X83907381Y-219510238D02*
X82907381Y-219510238D01*
X82907381Y-219129285D01*
X82955000Y-219034047D01*
X83002619Y-218986428D01*
X83097857Y-218938809D01*
X83240714Y-218938809D01*
X83335952Y-218986428D01*
X83383571Y-219034047D01*
X83431190Y-219129285D01*
X83431190Y-219510238D01*
X83859762Y-218557857D02*
X83907381Y-218462619D01*
X83907381Y-218272143D01*
X83859762Y-218176904D01*
X83764524Y-218129285D01*
X83716905Y-218129285D01*
X83621667Y-218176904D01*
X83574048Y-218272143D01*
X83574048Y-218415000D01*
X83526429Y-218510238D01*
X83431190Y-218557857D01*
X83383571Y-218557857D01*
X83288333Y-218510238D01*
X83240714Y-218415000D01*
X83240714Y-218272143D01*
X83288333Y-218176904D01*
X83002619Y-217748333D02*
X82955000Y-217700714D01*
X82907381Y-217605476D01*
X82907381Y-217367380D01*
X82955000Y-217272142D01*
X83002619Y-217224523D01*
X83097857Y-217176904D01*
X83193095Y-217176904D01*
X83335952Y-217224523D01*
X83907381Y-217795952D01*
X83907381Y-217176904D01*
X82907381Y-216557857D02*
X82907381Y-216462618D01*
X82955000Y-216367380D01*
X83002619Y-216319761D01*
X83097857Y-216272142D01*
X83288333Y-216224523D01*
X83526429Y-216224523D01*
X83716905Y-216272142D01*
X83812143Y-216319761D01*
X83859762Y-216367380D01*
X83907381Y-216462618D01*
X83907381Y-216557857D01*
X83859762Y-216653095D01*
X83812143Y-216700714D01*
X83716905Y-216748333D01*
X83526429Y-216795952D01*
X83288333Y-216795952D01*
X83097857Y-216748333D01*
X83002619Y-216700714D01*
X82955000Y-216653095D01*
X82907381Y-216557857D01*
X83907381Y-215272142D02*
X83907381Y-215843571D01*
X83907381Y-215557857D02*
X82907381Y-215557857D01*
X83050238Y-215653095D01*
X83145476Y-215748333D01*
X83193095Y-215843571D01*
X85107381Y-214738809D02*
X84631190Y-215072143D01*
X85107381Y-215310238D02*
X84107381Y-215310238D01*
X84107381Y-214929285D01*
X84155000Y-214834047D01*
X84202619Y-214786428D01*
X84297857Y-214738809D01*
X84440714Y-214738809D01*
X84535952Y-214786428D01*
X84583571Y-214834047D01*
X84631190Y-214929285D01*
X84631190Y-215310238D01*
X85059762Y-214357857D02*
X85107381Y-214262619D01*
X85107381Y-214072143D01*
X85059762Y-213976904D01*
X84964524Y-213929285D01*
X84916905Y-213929285D01*
X84821667Y-213976904D01*
X84774048Y-214072143D01*
X84774048Y-214215000D01*
X84726429Y-214310238D01*
X84631190Y-214357857D01*
X84583571Y-214357857D01*
X84488333Y-214310238D01*
X84440714Y-214215000D01*
X84440714Y-214072143D01*
X84488333Y-213976904D01*
X84202619Y-213548333D02*
X84155000Y-213500714D01*
X84107381Y-213405476D01*
X84107381Y-213167380D01*
X84155000Y-213072142D01*
X84202619Y-213024523D01*
X84297857Y-212976904D01*
X84393095Y-212976904D01*
X84535952Y-213024523D01*
X85107381Y-213595952D01*
X85107381Y-212976904D01*
X84107381Y-212357857D02*
X84107381Y-212262618D01*
X84155000Y-212167380D01*
X84202619Y-212119761D01*
X84297857Y-212072142D01*
X84488333Y-212024523D01*
X84726429Y-212024523D01*
X84916905Y-212072142D01*
X85012143Y-212119761D01*
X85059762Y-212167380D01*
X85107381Y-212262618D01*
X85107381Y-212357857D01*
X85059762Y-212453095D01*
X85012143Y-212500714D01*
X84916905Y-212548333D01*
X84726429Y-212595952D01*
X84488333Y-212595952D01*
X84297857Y-212548333D01*
X84202619Y-212500714D01*
X84155000Y-212453095D01*
X84107381Y-212357857D01*
X84202619Y-211643571D02*
X84155000Y-211595952D01*
X84107381Y-211500714D01*
X84107381Y-211262618D01*
X84155000Y-211167380D01*
X84202619Y-211119761D01*
X84297857Y-211072142D01*
X84393095Y-211072142D01*
X84535952Y-211119761D01*
X85107381Y-211691190D01*
X85107381Y-211072142D01*
X86907381Y-218938809D02*
X86431190Y-219272143D01*
X86907381Y-219510238D02*
X85907381Y-219510238D01*
X85907381Y-219129285D01*
X85955000Y-219034047D01*
X86002619Y-218986428D01*
X86097857Y-218938809D01*
X86240714Y-218938809D01*
X86335952Y-218986428D01*
X86383571Y-219034047D01*
X86431190Y-219129285D01*
X86431190Y-219510238D01*
X86859762Y-218557857D02*
X86907381Y-218462619D01*
X86907381Y-218272143D01*
X86859762Y-218176904D01*
X86764524Y-218129285D01*
X86716905Y-218129285D01*
X86621667Y-218176904D01*
X86574048Y-218272143D01*
X86574048Y-218415000D01*
X86526429Y-218510238D01*
X86431190Y-218557857D01*
X86383571Y-218557857D01*
X86288333Y-218510238D01*
X86240714Y-218415000D01*
X86240714Y-218272143D01*
X86288333Y-218176904D01*
X86002619Y-217748333D02*
X85955000Y-217700714D01*
X85907381Y-217605476D01*
X85907381Y-217367380D01*
X85955000Y-217272142D01*
X86002619Y-217224523D01*
X86097857Y-217176904D01*
X86193095Y-217176904D01*
X86335952Y-217224523D01*
X86907381Y-217795952D01*
X86907381Y-217176904D01*
X85907381Y-216557857D02*
X85907381Y-216462618D01*
X85955000Y-216367380D01*
X86002619Y-216319761D01*
X86097857Y-216272142D01*
X86288333Y-216224523D01*
X86526429Y-216224523D01*
X86716905Y-216272142D01*
X86812143Y-216319761D01*
X86859762Y-216367380D01*
X86907381Y-216462618D01*
X86907381Y-216557857D01*
X86859762Y-216653095D01*
X86812143Y-216700714D01*
X86716905Y-216748333D01*
X86526429Y-216795952D01*
X86288333Y-216795952D01*
X86097857Y-216748333D01*
X86002619Y-216700714D01*
X85955000Y-216653095D01*
X85907381Y-216557857D01*
X85907381Y-215891190D02*
X85907381Y-215272142D01*
X86288333Y-215605476D01*
X86288333Y-215462618D01*
X86335952Y-215367380D01*
X86383571Y-215319761D01*
X86478810Y-215272142D01*
X86716905Y-215272142D01*
X86812143Y-215319761D01*
X86859762Y-215367380D01*
X86907381Y-215462618D01*
X86907381Y-215748333D01*
X86859762Y-215843571D01*
X86812143Y-215891190D01*
X88107381Y-214738809D02*
X87631190Y-215072143D01*
X88107381Y-215310238D02*
X87107381Y-215310238D01*
X87107381Y-214929285D01*
X87155000Y-214834047D01*
X87202619Y-214786428D01*
X87297857Y-214738809D01*
X87440714Y-214738809D01*
X87535952Y-214786428D01*
X87583571Y-214834047D01*
X87631190Y-214929285D01*
X87631190Y-215310238D01*
X88059762Y-214357857D02*
X88107381Y-214262619D01*
X88107381Y-214072143D01*
X88059762Y-213976904D01*
X87964524Y-213929285D01*
X87916905Y-213929285D01*
X87821667Y-213976904D01*
X87774048Y-214072143D01*
X87774048Y-214215000D01*
X87726429Y-214310238D01*
X87631190Y-214357857D01*
X87583571Y-214357857D01*
X87488333Y-214310238D01*
X87440714Y-214215000D01*
X87440714Y-214072143D01*
X87488333Y-213976904D01*
X87202619Y-213548333D02*
X87155000Y-213500714D01*
X87107381Y-213405476D01*
X87107381Y-213167380D01*
X87155000Y-213072142D01*
X87202619Y-213024523D01*
X87297857Y-212976904D01*
X87393095Y-212976904D01*
X87535952Y-213024523D01*
X88107381Y-213595952D01*
X88107381Y-212976904D01*
X87107381Y-212357857D02*
X87107381Y-212262618D01*
X87155000Y-212167380D01*
X87202619Y-212119761D01*
X87297857Y-212072142D01*
X87488333Y-212024523D01*
X87726429Y-212024523D01*
X87916905Y-212072142D01*
X88012143Y-212119761D01*
X88059762Y-212167380D01*
X88107381Y-212262618D01*
X88107381Y-212357857D01*
X88059762Y-212453095D01*
X88012143Y-212500714D01*
X87916905Y-212548333D01*
X87726429Y-212595952D01*
X87488333Y-212595952D01*
X87297857Y-212548333D01*
X87202619Y-212500714D01*
X87155000Y-212453095D01*
X87107381Y-212357857D01*
X87440714Y-211167380D02*
X88107381Y-211167380D01*
X87059762Y-211405476D02*
X87774048Y-211643571D01*
X87774048Y-211024523D01*
X89907381Y-218938809D02*
X89431190Y-219272143D01*
X89907381Y-219510238D02*
X88907381Y-219510238D01*
X88907381Y-219129285D01*
X88955000Y-219034047D01*
X89002619Y-218986428D01*
X89097857Y-218938809D01*
X89240714Y-218938809D01*
X89335952Y-218986428D01*
X89383571Y-219034047D01*
X89431190Y-219129285D01*
X89431190Y-219510238D01*
X89859762Y-218557857D02*
X89907381Y-218462619D01*
X89907381Y-218272143D01*
X89859762Y-218176904D01*
X89764524Y-218129285D01*
X89716905Y-218129285D01*
X89621667Y-218176904D01*
X89574048Y-218272143D01*
X89574048Y-218415000D01*
X89526429Y-218510238D01*
X89431190Y-218557857D01*
X89383571Y-218557857D01*
X89288333Y-218510238D01*
X89240714Y-218415000D01*
X89240714Y-218272143D01*
X89288333Y-218176904D01*
X89002619Y-217748333D02*
X88955000Y-217700714D01*
X88907381Y-217605476D01*
X88907381Y-217367380D01*
X88955000Y-217272142D01*
X89002619Y-217224523D01*
X89097857Y-217176904D01*
X89193095Y-217176904D01*
X89335952Y-217224523D01*
X89907381Y-217795952D01*
X89907381Y-217176904D01*
X88907381Y-216557857D02*
X88907381Y-216462618D01*
X88955000Y-216367380D01*
X89002619Y-216319761D01*
X89097857Y-216272142D01*
X89288333Y-216224523D01*
X89526429Y-216224523D01*
X89716905Y-216272142D01*
X89812143Y-216319761D01*
X89859762Y-216367380D01*
X89907381Y-216462618D01*
X89907381Y-216557857D01*
X89859762Y-216653095D01*
X89812143Y-216700714D01*
X89716905Y-216748333D01*
X89526429Y-216795952D01*
X89288333Y-216795952D01*
X89097857Y-216748333D01*
X89002619Y-216700714D01*
X88955000Y-216653095D01*
X88907381Y-216557857D01*
X88907381Y-215319761D02*
X88907381Y-215795952D01*
X89383571Y-215843571D01*
X89335952Y-215795952D01*
X89288333Y-215700714D01*
X89288333Y-215462618D01*
X89335952Y-215367380D01*
X89383571Y-215319761D01*
X89478810Y-215272142D01*
X89716905Y-215272142D01*
X89812143Y-215319761D01*
X89859762Y-215367380D01*
X89907381Y-215462618D01*
X89907381Y-215700714D01*
X89859762Y-215795952D01*
X89812143Y-215843571D01*
X91107381Y-214738809D02*
X90631190Y-215072143D01*
X91107381Y-215310238D02*
X90107381Y-215310238D01*
X90107381Y-214929285D01*
X90155000Y-214834047D01*
X90202619Y-214786428D01*
X90297857Y-214738809D01*
X90440714Y-214738809D01*
X90535952Y-214786428D01*
X90583571Y-214834047D01*
X90631190Y-214929285D01*
X90631190Y-215310238D01*
X91059762Y-214357857D02*
X91107381Y-214262619D01*
X91107381Y-214072143D01*
X91059762Y-213976904D01*
X90964524Y-213929285D01*
X90916905Y-213929285D01*
X90821667Y-213976904D01*
X90774048Y-214072143D01*
X90774048Y-214215000D01*
X90726429Y-214310238D01*
X90631190Y-214357857D01*
X90583571Y-214357857D01*
X90488333Y-214310238D01*
X90440714Y-214215000D01*
X90440714Y-214072143D01*
X90488333Y-213976904D01*
X90202619Y-213548333D02*
X90155000Y-213500714D01*
X90107381Y-213405476D01*
X90107381Y-213167380D01*
X90155000Y-213072142D01*
X90202619Y-213024523D01*
X90297857Y-212976904D01*
X90393095Y-212976904D01*
X90535952Y-213024523D01*
X91107381Y-213595952D01*
X91107381Y-212976904D01*
X90107381Y-212357857D02*
X90107381Y-212262618D01*
X90155000Y-212167380D01*
X90202619Y-212119761D01*
X90297857Y-212072142D01*
X90488333Y-212024523D01*
X90726429Y-212024523D01*
X90916905Y-212072142D01*
X91012143Y-212119761D01*
X91059762Y-212167380D01*
X91107381Y-212262618D01*
X91107381Y-212357857D01*
X91059762Y-212453095D01*
X91012143Y-212500714D01*
X90916905Y-212548333D01*
X90726429Y-212595952D01*
X90488333Y-212595952D01*
X90297857Y-212548333D01*
X90202619Y-212500714D01*
X90155000Y-212453095D01*
X90107381Y-212357857D01*
X90107381Y-211167380D02*
X90107381Y-211357857D01*
X90155000Y-211453095D01*
X90202619Y-211500714D01*
X90345476Y-211595952D01*
X90535952Y-211643571D01*
X90916905Y-211643571D01*
X91012143Y-211595952D01*
X91059762Y-211548333D01*
X91107381Y-211453095D01*
X91107381Y-211262618D01*
X91059762Y-211167380D01*
X91012143Y-211119761D01*
X90916905Y-211072142D01*
X90678810Y-211072142D01*
X90583571Y-211119761D01*
X90535952Y-211167380D01*
X90488333Y-211262618D01*
X90488333Y-211453095D01*
X90535952Y-211548333D01*
X90583571Y-211595952D01*
X90678810Y-211643571D01*
X92907381Y-218938809D02*
X92431190Y-219272143D01*
X92907381Y-219510238D02*
X91907381Y-219510238D01*
X91907381Y-219129285D01*
X91955000Y-219034047D01*
X92002619Y-218986428D01*
X92097857Y-218938809D01*
X92240714Y-218938809D01*
X92335952Y-218986428D01*
X92383571Y-219034047D01*
X92431190Y-219129285D01*
X92431190Y-219510238D01*
X92859762Y-218557857D02*
X92907381Y-218462619D01*
X92907381Y-218272143D01*
X92859762Y-218176904D01*
X92764524Y-218129285D01*
X92716905Y-218129285D01*
X92621667Y-218176904D01*
X92574048Y-218272143D01*
X92574048Y-218415000D01*
X92526429Y-218510238D01*
X92431190Y-218557857D01*
X92383571Y-218557857D01*
X92288333Y-218510238D01*
X92240714Y-218415000D01*
X92240714Y-218272143D01*
X92288333Y-218176904D01*
X92002619Y-217748333D02*
X91955000Y-217700714D01*
X91907381Y-217605476D01*
X91907381Y-217367380D01*
X91955000Y-217272142D01*
X92002619Y-217224523D01*
X92097857Y-217176904D01*
X92193095Y-217176904D01*
X92335952Y-217224523D01*
X92907381Y-217795952D01*
X92907381Y-217176904D01*
X91907381Y-216557857D02*
X91907381Y-216462618D01*
X91955000Y-216367380D01*
X92002619Y-216319761D01*
X92097857Y-216272142D01*
X92288333Y-216224523D01*
X92526429Y-216224523D01*
X92716905Y-216272142D01*
X92812143Y-216319761D01*
X92859762Y-216367380D01*
X92907381Y-216462618D01*
X92907381Y-216557857D01*
X92859762Y-216653095D01*
X92812143Y-216700714D01*
X92716905Y-216748333D01*
X92526429Y-216795952D01*
X92288333Y-216795952D01*
X92097857Y-216748333D01*
X92002619Y-216700714D01*
X91955000Y-216653095D01*
X91907381Y-216557857D01*
X91907381Y-215891190D02*
X91907381Y-215224523D01*
X92907381Y-215653095D01*
X94107381Y-214738809D02*
X93631190Y-215072143D01*
X94107381Y-215310238D02*
X93107381Y-215310238D01*
X93107381Y-214929285D01*
X93155000Y-214834047D01*
X93202619Y-214786428D01*
X93297857Y-214738809D01*
X93440714Y-214738809D01*
X93535952Y-214786428D01*
X93583571Y-214834047D01*
X93631190Y-214929285D01*
X93631190Y-215310238D01*
X94059762Y-214357857D02*
X94107381Y-214262619D01*
X94107381Y-214072143D01*
X94059762Y-213976904D01*
X93964524Y-213929285D01*
X93916905Y-213929285D01*
X93821667Y-213976904D01*
X93774048Y-214072143D01*
X93774048Y-214215000D01*
X93726429Y-214310238D01*
X93631190Y-214357857D01*
X93583571Y-214357857D01*
X93488333Y-214310238D01*
X93440714Y-214215000D01*
X93440714Y-214072143D01*
X93488333Y-213976904D01*
X93202619Y-213548333D02*
X93155000Y-213500714D01*
X93107381Y-213405476D01*
X93107381Y-213167380D01*
X93155000Y-213072142D01*
X93202619Y-213024523D01*
X93297857Y-212976904D01*
X93393095Y-212976904D01*
X93535952Y-213024523D01*
X94107381Y-213595952D01*
X94107381Y-212976904D01*
X93107381Y-212357857D02*
X93107381Y-212262618D01*
X93155000Y-212167380D01*
X93202619Y-212119761D01*
X93297857Y-212072142D01*
X93488333Y-212024523D01*
X93726429Y-212024523D01*
X93916905Y-212072142D01*
X94012143Y-212119761D01*
X94059762Y-212167380D01*
X94107381Y-212262618D01*
X94107381Y-212357857D01*
X94059762Y-212453095D01*
X94012143Y-212500714D01*
X93916905Y-212548333D01*
X93726429Y-212595952D01*
X93488333Y-212595952D01*
X93297857Y-212548333D01*
X93202619Y-212500714D01*
X93155000Y-212453095D01*
X93107381Y-212357857D01*
X93535952Y-211453095D02*
X93488333Y-211548333D01*
X93440714Y-211595952D01*
X93345476Y-211643571D01*
X93297857Y-211643571D01*
X93202619Y-211595952D01*
X93155000Y-211548333D01*
X93107381Y-211453095D01*
X93107381Y-211262618D01*
X93155000Y-211167380D01*
X93202619Y-211119761D01*
X93297857Y-211072142D01*
X93345476Y-211072142D01*
X93440714Y-211119761D01*
X93488333Y-211167380D01*
X93535952Y-211262618D01*
X93535952Y-211453095D01*
X93583571Y-211548333D01*
X93631190Y-211595952D01*
X93726429Y-211643571D01*
X93916905Y-211643571D01*
X94012143Y-211595952D01*
X94059762Y-211548333D01*
X94107381Y-211453095D01*
X94107381Y-211262618D01*
X94059762Y-211167380D01*
X94012143Y-211119761D01*
X93916905Y-211072142D01*
X93726429Y-211072142D01*
X93631190Y-211119761D01*
X93583571Y-211167380D01*
X93535952Y-211262618D01*
X95007381Y-224438809D02*
X94531190Y-224772143D01*
X95007381Y-225010238D02*
X94007381Y-225010238D01*
X94007381Y-224629285D01*
X94055000Y-224534047D01*
X94102619Y-224486428D01*
X94197857Y-224438809D01*
X94340714Y-224438809D01*
X94435952Y-224486428D01*
X94483571Y-224534047D01*
X94531190Y-224629285D01*
X94531190Y-225010238D01*
X94959762Y-224057857D02*
X95007381Y-223962619D01*
X95007381Y-223772143D01*
X94959762Y-223676904D01*
X94864524Y-223629285D01*
X94816905Y-223629285D01*
X94721667Y-223676904D01*
X94674048Y-223772143D01*
X94674048Y-223915000D01*
X94626429Y-224010238D01*
X94531190Y-224057857D01*
X94483571Y-224057857D01*
X94388333Y-224010238D01*
X94340714Y-223915000D01*
X94340714Y-223772143D01*
X94388333Y-223676904D01*
X94102619Y-223248333D02*
X94055000Y-223200714D01*
X94007381Y-223105476D01*
X94007381Y-222867380D01*
X94055000Y-222772142D01*
X94102619Y-222724523D01*
X94197857Y-222676904D01*
X94293095Y-222676904D01*
X94435952Y-222724523D01*
X95007381Y-223295952D01*
X95007381Y-222676904D01*
X95007381Y-221724523D02*
X95007381Y-222295952D01*
X95007381Y-222010238D02*
X94007381Y-222010238D01*
X94150238Y-222105476D01*
X94245476Y-222200714D01*
X94293095Y-222295952D01*
X94102619Y-221343571D02*
X94055000Y-221295952D01*
X94007381Y-221200714D01*
X94007381Y-220962618D01*
X94055000Y-220867380D01*
X94102619Y-220819761D01*
X94197857Y-220772142D01*
X94293095Y-220772142D01*
X94435952Y-220819761D01*
X95007381Y-221391190D01*
X95007381Y-220772142D01*
X96407381Y-218138809D02*
X95931190Y-218472143D01*
X96407381Y-218710238D02*
X95407381Y-218710238D01*
X95407381Y-218329285D01*
X95455000Y-218234047D01*
X95502619Y-218186428D01*
X95597857Y-218138809D01*
X95740714Y-218138809D01*
X95835952Y-218186428D01*
X95883571Y-218234047D01*
X95931190Y-218329285D01*
X95931190Y-218710238D01*
X96359762Y-217757857D02*
X96407381Y-217662619D01*
X96407381Y-217472143D01*
X96359762Y-217376904D01*
X96264524Y-217329285D01*
X96216905Y-217329285D01*
X96121667Y-217376904D01*
X96074048Y-217472143D01*
X96074048Y-217615000D01*
X96026429Y-217710238D01*
X95931190Y-217757857D01*
X95883571Y-217757857D01*
X95788333Y-217710238D01*
X95740714Y-217615000D01*
X95740714Y-217472143D01*
X95788333Y-217376904D01*
X95502619Y-216948333D02*
X95455000Y-216900714D01*
X95407381Y-216805476D01*
X95407381Y-216567380D01*
X95455000Y-216472142D01*
X95502619Y-216424523D01*
X95597857Y-216376904D01*
X95693095Y-216376904D01*
X95835952Y-216424523D01*
X96407381Y-216995952D01*
X96407381Y-216376904D01*
X96407381Y-215424523D02*
X96407381Y-215995952D01*
X96407381Y-215710238D02*
X95407381Y-215710238D01*
X95550238Y-215805476D01*
X95645476Y-215900714D01*
X95693095Y-215995952D01*
X95740714Y-214567380D02*
X96407381Y-214567380D01*
X95359762Y-214805476D02*
X96074048Y-215043571D01*
X96074048Y-214424523D01*
X98007381Y-224538809D02*
X97531190Y-224872143D01*
X98007381Y-225110238D02*
X97007381Y-225110238D01*
X97007381Y-224729285D01*
X97055000Y-224634047D01*
X97102619Y-224586428D01*
X97197857Y-224538809D01*
X97340714Y-224538809D01*
X97435952Y-224586428D01*
X97483571Y-224634047D01*
X97531190Y-224729285D01*
X97531190Y-225110238D01*
X97959762Y-224157857D02*
X98007381Y-224062619D01*
X98007381Y-223872143D01*
X97959762Y-223776904D01*
X97864524Y-223729285D01*
X97816905Y-223729285D01*
X97721667Y-223776904D01*
X97674048Y-223872143D01*
X97674048Y-224015000D01*
X97626429Y-224110238D01*
X97531190Y-224157857D01*
X97483571Y-224157857D01*
X97388333Y-224110238D01*
X97340714Y-224015000D01*
X97340714Y-223872143D01*
X97388333Y-223776904D01*
X97102619Y-223348333D02*
X97055000Y-223300714D01*
X97007381Y-223205476D01*
X97007381Y-222967380D01*
X97055000Y-222872142D01*
X97102619Y-222824523D01*
X97197857Y-222776904D01*
X97293095Y-222776904D01*
X97435952Y-222824523D01*
X98007381Y-223395952D01*
X98007381Y-222776904D01*
X98007381Y-221824523D02*
X98007381Y-222395952D01*
X98007381Y-222110238D02*
X97007381Y-222110238D01*
X97150238Y-222205476D01*
X97245476Y-222300714D01*
X97293095Y-222395952D01*
X97007381Y-220919761D02*
X97007381Y-221395952D01*
X97483571Y-221443571D01*
X97435952Y-221395952D01*
X97388333Y-221300714D01*
X97388333Y-221062618D01*
X97435952Y-220967380D01*
X97483571Y-220919761D01*
X97578810Y-220872142D01*
X97816905Y-220872142D01*
X97912143Y-220919761D01*
X97959762Y-220967380D01*
X98007381Y-221062618D01*
X98007381Y-221300714D01*
X97959762Y-221395952D01*
X97912143Y-221443571D01*
X99407381Y-218238809D02*
X98931190Y-218572143D01*
X99407381Y-218810238D02*
X98407381Y-218810238D01*
X98407381Y-218429285D01*
X98455000Y-218334047D01*
X98502619Y-218286428D01*
X98597857Y-218238809D01*
X98740714Y-218238809D01*
X98835952Y-218286428D01*
X98883571Y-218334047D01*
X98931190Y-218429285D01*
X98931190Y-218810238D01*
X99359762Y-217857857D02*
X99407381Y-217762619D01*
X99407381Y-217572143D01*
X99359762Y-217476904D01*
X99264524Y-217429285D01*
X99216905Y-217429285D01*
X99121667Y-217476904D01*
X99074048Y-217572143D01*
X99074048Y-217715000D01*
X99026429Y-217810238D01*
X98931190Y-217857857D01*
X98883571Y-217857857D01*
X98788333Y-217810238D01*
X98740714Y-217715000D01*
X98740714Y-217572143D01*
X98788333Y-217476904D01*
X98502619Y-217048333D02*
X98455000Y-217000714D01*
X98407381Y-216905476D01*
X98407381Y-216667380D01*
X98455000Y-216572142D01*
X98502619Y-216524523D01*
X98597857Y-216476904D01*
X98693095Y-216476904D01*
X98835952Y-216524523D01*
X99407381Y-217095952D01*
X99407381Y-216476904D01*
X99407381Y-215524523D02*
X99407381Y-216095952D01*
X99407381Y-215810238D02*
X98407381Y-215810238D01*
X98550238Y-215905476D01*
X98645476Y-216000714D01*
X98693095Y-216095952D01*
X98407381Y-214667380D02*
X98407381Y-214857857D01*
X98455000Y-214953095D01*
X98502619Y-215000714D01*
X98645476Y-215095952D01*
X98835952Y-215143571D01*
X99216905Y-215143571D01*
X99312143Y-215095952D01*
X99359762Y-215048333D01*
X99407381Y-214953095D01*
X99407381Y-214762618D01*
X99359762Y-214667380D01*
X99312143Y-214619761D01*
X99216905Y-214572142D01*
X98978810Y-214572142D01*
X98883571Y-214619761D01*
X98835952Y-214667380D01*
X98788333Y-214762618D01*
X98788333Y-214953095D01*
X98835952Y-215048333D01*
X98883571Y-215095952D01*
X98978810Y-215143571D01*
X100907381Y-222938809D02*
X100431190Y-223272143D01*
X100907381Y-223510238D02*
X99907381Y-223510238D01*
X99907381Y-223129285D01*
X99955000Y-223034047D01*
X100002619Y-222986428D01*
X100097857Y-222938809D01*
X100240714Y-222938809D01*
X100335952Y-222986428D01*
X100383571Y-223034047D01*
X100431190Y-223129285D01*
X100431190Y-223510238D01*
X100859762Y-222557857D02*
X100907381Y-222462619D01*
X100907381Y-222272143D01*
X100859762Y-222176904D01*
X100764524Y-222129285D01*
X100716905Y-222129285D01*
X100621667Y-222176904D01*
X100574048Y-222272143D01*
X100574048Y-222415000D01*
X100526429Y-222510238D01*
X100431190Y-222557857D01*
X100383571Y-222557857D01*
X100288333Y-222510238D01*
X100240714Y-222415000D01*
X100240714Y-222272143D01*
X100288333Y-222176904D01*
X100002619Y-221748333D02*
X99955000Y-221700714D01*
X99907381Y-221605476D01*
X99907381Y-221367380D01*
X99955000Y-221272142D01*
X100002619Y-221224523D01*
X100097857Y-221176904D01*
X100193095Y-221176904D01*
X100335952Y-221224523D01*
X100907381Y-221795952D01*
X100907381Y-221176904D01*
X100907381Y-220224523D02*
X100907381Y-220795952D01*
X100907381Y-220510238D02*
X99907381Y-220510238D01*
X100050238Y-220605476D01*
X100145476Y-220700714D01*
X100193095Y-220795952D01*
X99907381Y-219891190D02*
X99907381Y-219224523D01*
X100907381Y-219653095D01*
X102407381Y-218238809D02*
X101931190Y-218572143D01*
X102407381Y-218810238D02*
X101407381Y-218810238D01*
X101407381Y-218429285D01*
X101455000Y-218334047D01*
X101502619Y-218286428D01*
X101597857Y-218238809D01*
X101740714Y-218238809D01*
X101835952Y-218286428D01*
X101883571Y-218334047D01*
X101931190Y-218429285D01*
X101931190Y-218810238D01*
X102359762Y-217857857D02*
X102407381Y-217762619D01*
X102407381Y-217572143D01*
X102359762Y-217476904D01*
X102264524Y-217429285D01*
X102216905Y-217429285D01*
X102121667Y-217476904D01*
X102074048Y-217572143D01*
X102074048Y-217715000D01*
X102026429Y-217810238D01*
X101931190Y-217857857D01*
X101883571Y-217857857D01*
X101788333Y-217810238D01*
X101740714Y-217715000D01*
X101740714Y-217572143D01*
X101788333Y-217476904D01*
X101502619Y-217048333D02*
X101455000Y-217000714D01*
X101407381Y-216905476D01*
X101407381Y-216667380D01*
X101455000Y-216572142D01*
X101502619Y-216524523D01*
X101597857Y-216476904D01*
X101693095Y-216476904D01*
X101835952Y-216524523D01*
X102407381Y-217095952D01*
X102407381Y-216476904D01*
X102407381Y-215524523D02*
X102407381Y-216095952D01*
X102407381Y-215810238D02*
X101407381Y-215810238D01*
X101550238Y-215905476D01*
X101645476Y-216000714D01*
X101693095Y-216095952D01*
X101835952Y-214953095D02*
X101788333Y-215048333D01*
X101740714Y-215095952D01*
X101645476Y-215143571D01*
X101597857Y-215143571D01*
X101502619Y-215095952D01*
X101455000Y-215048333D01*
X101407381Y-214953095D01*
X101407381Y-214762618D01*
X101455000Y-214667380D01*
X101502619Y-214619761D01*
X101597857Y-214572142D01*
X101645476Y-214572142D01*
X101740714Y-214619761D01*
X101788333Y-214667380D01*
X101835952Y-214762618D01*
X101835952Y-214953095D01*
X101883571Y-215048333D01*
X101931190Y-215095952D01*
X102026429Y-215143571D01*
X102216905Y-215143571D01*
X102312143Y-215095952D01*
X102359762Y-215048333D01*
X102407381Y-214953095D01*
X102407381Y-214762618D01*
X102359762Y-214667380D01*
X102312143Y-214619761D01*
X102216905Y-214572142D01*
X102026429Y-214572142D01*
X101931190Y-214619761D01*
X101883571Y-214667380D01*
X101835952Y-214762618D01*
X103907381Y-222938809D02*
X103431190Y-223272143D01*
X103907381Y-223510238D02*
X102907381Y-223510238D01*
X102907381Y-223129285D01*
X102955000Y-223034047D01*
X103002619Y-222986428D01*
X103097857Y-222938809D01*
X103240714Y-222938809D01*
X103335952Y-222986428D01*
X103383571Y-223034047D01*
X103431190Y-223129285D01*
X103431190Y-223510238D01*
X103859762Y-222557857D02*
X103907381Y-222462619D01*
X103907381Y-222272143D01*
X103859762Y-222176904D01*
X103764524Y-222129285D01*
X103716905Y-222129285D01*
X103621667Y-222176904D01*
X103574048Y-222272143D01*
X103574048Y-222415000D01*
X103526429Y-222510238D01*
X103431190Y-222557857D01*
X103383571Y-222557857D01*
X103288333Y-222510238D01*
X103240714Y-222415000D01*
X103240714Y-222272143D01*
X103288333Y-222176904D01*
X103002619Y-221748333D02*
X102955000Y-221700714D01*
X102907381Y-221605476D01*
X102907381Y-221367380D01*
X102955000Y-221272142D01*
X103002619Y-221224523D01*
X103097857Y-221176904D01*
X103193095Y-221176904D01*
X103335952Y-221224523D01*
X103907381Y-221795952D01*
X103907381Y-221176904D01*
X103907381Y-220224523D02*
X103907381Y-220795952D01*
X103907381Y-220510238D02*
X102907381Y-220510238D01*
X103050238Y-220605476D01*
X103145476Y-220700714D01*
X103193095Y-220795952D01*
X103907381Y-219748333D02*
X103907381Y-219557857D01*
X103859762Y-219462618D01*
X103812143Y-219414999D01*
X103669286Y-219319761D01*
X103478810Y-219272142D01*
X103097857Y-219272142D01*
X103002619Y-219319761D01*
X102955000Y-219367380D01*
X102907381Y-219462618D01*
X102907381Y-219653095D01*
X102955000Y-219748333D01*
X103002619Y-219795952D01*
X103097857Y-219843571D01*
X103335952Y-219843571D01*
X103431190Y-219795952D01*
X103478810Y-219748333D01*
X103526429Y-219653095D01*
X103526429Y-219462618D01*
X103478810Y-219367380D01*
X103431190Y-219319761D01*
X103335952Y-219272142D01*
X105407381Y-218238809D02*
X104931190Y-218572143D01*
X105407381Y-218810238D02*
X104407381Y-218810238D01*
X104407381Y-218429285D01*
X104455000Y-218334047D01*
X104502619Y-218286428D01*
X104597857Y-218238809D01*
X104740714Y-218238809D01*
X104835952Y-218286428D01*
X104883571Y-218334047D01*
X104931190Y-218429285D01*
X104931190Y-218810238D01*
X105359762Y-217857857D02*
X105407381Y-217762619D01*
X105407381Y-217572143D01*
X105359762Y-217476904D01*
X105264524Y-217429285D01*
X105216905Y-217429285D01*
X105121667Y-217476904D01*
X105074048Y-217572143D01*
X105074048Y-217715000D01*
X105026429Y-217810238D01*
X104931190Y-217857857D01*
X104883571Y-217857857D01*
X104788333Y-217810238D01*
X104740714Y-217715000D01*
X104740714Y-217572143D01*
X104788333Y-217476904D01*
X104502619Y-217048333D02*
X104455000Y-217000714D01*
X104407381Y-216905476D01*
X104407381Y-216667380D01*
X104455000Y-216572142D01*
X104502619Y-216524523D01*
X104597857Y-216476904D01*
X104693095Y-216476904D01*
X104835952Y-216524523D01*
X105407381Y-217095952D01*
X105407381Y-216476904D01*
X104502619Y-216095952D02*
X104455000Y-216048333D01*
X104407381Y-215953095D01*
X104407381Y-215714999D01*
X104455000Y-215619761D01*
X104502619Y-215572142D01*
X104597857Y-215524523D01*
X104693095Y-215524523D01*
X104835952Y-215572142D01*
X105407381Y-216143571D01*
X105407381Y-215524523D01*
X104407381Y-214905476D02*
X104407381Y-214810237D01*
X104455000Y-214714999D01*
X104502619Y-214667380D01*
X104597857Y-214619761D01*
X104788333Y-214572142D01*
X105026429Y-214572142D01*
X105216905Y-214619761D01*
X105312143Y-214667380D01*
X105359762Y-214714999D01*
X105407381Y-214810237D01*
X105407381Y-214905476D01*
X105359762Y-215000714D01*
X105312143Y-215048333D01*
X105216905Y-215095952D01*
X105026429Y-215143571D01*
X104788333Y-215143571D01*
X104597857Y-215095952D01*
X104502619Y-215048333D01*
X104455000Y-215000714D01*
X104407381Y-214905476D01*
X106907381Y-222938809D02*
X106431190Y-223272143D01*
X106907381Y-223510238D02*
X105907381Y-223510238D01*
X105907381Y-223129285D01*
X105955000Y-223034047D01*
X106002619Y-222986428D01*
X106097857Y-222938809D01*
X106240714Y-222938809D01*
X106335952Y-222986428D01*
X106383571Y-223034047D01*
X106431190Y-223129285D01*
X106431190Y-223510238D01*
X106859762Y-222557857D02*
X106907381Y-222462619D01*
X106907381Y-222272143D01*
X106859762Y-222176904D01*
X106764524Y-222129285D01*
X106716905Y-222129285D01*
X106621667Y-222176904D01*
X106574048Y-222272143D01*
X106574048Y-222415000D01*
X106526429Y-222510238D01*
X106431190Y-222557857D01*
X106383571Y-222557857D01*
X106288333Y-222510238D01*
X106240714Y-222415000D01*
X106240714Y-222272143D01*
X106288333Y-222176904D01*
X106002619Y-221748333D02*
X105955000Y-221700714D01*
X105907381Y-221605476D01*
X105907381Y-221367380D01*
X105955000Y-221272142D01*
X106002619Y-221224523D01*
X106097857Y-221176904D01*
X106193095Y-221176904D01*
X106335952Y-221224523D01*
X106907381Y-221795952D01*
X106907381Y-221176904D01*
X106002619Y-220795952D02*
X105955000Y-220748333D01*
X105907381Y-220653095D01*
X105907381Y-220414999D01*
X105955000Y-220319761D01*
X106002619Y-220272142D01*
X106097857Y-220224523D01*
X106193095Y-220224523D01*
X106335952Y-220272142D01*
X106907381Y-220843571D01*
X106907381Y-220224523D01*
X106907381Y-219272142D02*
X106907381Y-219843571D01*
X106907381Y-219557857D02*
X105907381Y-219557857D01*
X106050238Y-219653095D01*
X106145476Y-219748333D01*
X106193095Y-219843571D01*
X108407381Y-218238809D02*
X107931190Y-218572143D01*
X108407381Y-218810238D02*
X107407381Y-218810238D01*
X107407381Y-218429285D01*
X107455000Y-218334047D01*
X107502619Y-218286428D01*
X107597857Y-218238809D01*
X107740714Y-218238809D01*
X107835952Y-218286428D01*
X107883571Y-218334047D01*
X107931190Y-218429285D01*
X107931190Y-218810238D01*
X108359762Y-217857857D02*
X108407381Y-217762619D01*
X108407381Y-217572143D01*
X108359762Y-217476904D01*
X108264524Y-217429285D01*
X108216905Y-217429285D01*
X108121667Y-217476904D01*
X108074048Y-217572143D01*
X108074048Y-217715000D01*
X108026429Y-217810238D01*
X107931190Y-217857857D01*
X107883571Y-217857857D01*
X107788333Y-217810238D01*
X107740714Y-217715000D01*
X107740714Y-217572143D01*
X107788333Y-217476904D01*
X107502619Y-217048333D02*
X107455000Y-217000714D01*
X107407381Y-216905476D01*
X107407381Y-216667380D01*
X107455000Y-216572142D01*
X107502619Y-216524523D01*
X107597857Y-216476904D01*
X107693095Y-216476904D01*
X107835952Y-216524523D01*
X108407381Y-217095952D01*
X108407381Y-216476904D01*
X107502619Y-216095952D02*
X107455000Y-216048333D01*
X107407381Y-215953095D01*
X107407381Y-215714999D01*
X107455000Y-215619761D01*
X107502619Y-215572142D01*
X107597857Y-215524523D01*
X107693095Y-215524523D01*
X107835952Y-215572142D01*
X108407381Y-216143571D01*
X108407381Y-215524523D01*
X107407381Y-214619761D02*
X107407381Y-215095952D01*
X107883571Y-215143571D01*
X107835952Y-215095952D01*
X107788333Y-215000714D01*
X107788333Y-214762618D01*
X107835952Y-214667380D01*
X107883571Y-214619761D01*
X107978810Y-214572142D01*
X108216905Y-214572142D01*
X108312143Y-214619761D01*
X108359762Y-214667380D01*
X108407381Y-214762618D01*
X108407381Y-215000714D01*
X108359762Y-215095952D01*
X108312143Y-215143571D01*
X109907381Y-222938809D02*
X109431190Y-223272143D01*
X109907381Y-223510238D02*
X108907381Y-223510238D01*
X108907381Y-223129285D01*
X108955000Y-223034047D01*
X109002619Y-222986428D01*
X109097857Y-222938809D01*
X109240714Y-222938809D01*
X109335952Y-222986428D01*
X109383571Y-223034047D01*
X109431190Y-223129285D01*
X109431190Y-223510238D01*
X109859762Y-222557857D02*
X109907381Y-222462619D01*
X109907381Y-222272143D01*
X109859762Y-222176904D01*
X109764524Y-222129285D01*
X109716905Y-222129285D01*
X109621667Y-222176904D01*
X109574048Y-222272143D01*
X109574048Y-222415000D01*
X109526429Y-222510238D01*
X109431190Y-222557857D01*
X109383571Y-222557857D01*
X109288333Y-222510238D01*
X109240714Y-222415000D01*
X109240714Y-222272143D01*
X109288333Y-222176904D01*
X109002619Y-221748333D02*
X108955000Y-221700714D01*
X108907381Y-221605476D01*
X108907381Y-221367380D01*
X108955000Y-221272142D01*
X109002619Y-221224523D01*
X109097857Y-221176904D01*
X109193095Y-221176904D01*
X109335952Y-221224523D01*
X109907381Y-221795952D01*
X109907381Y-221176904D01*
X109002619Y-220795952D02*
X108955000Y-220748333D01*
X108907381Y-220653095D01*
X108907381Y-220414999D01*
X108955000Y-220319761D01*
X109002619Y-220272142D01*
X109097857Y-220224523D01*
X109193095Y-220224523D01*
X109335952Y-220272142D01*
X109907381Y-220843571D01*
X109907381Y-220224523D01*
X108907381Y-219367380D02*
X108907381Y-219557857D01*
X108955000Y-219653095D01*
X109002619Y-219700714D01*
X109145476Y-219795952D01*
X109335952Y-219843571D01*
X109716905Y-219843571D01*
X109812143Y-219795952D01*
X109859762Y-219748333D01*
X109907381Y-219653095D01*
X109907381Y-219462618D01*
X109859762Y-219367380D01*
X109812143Y-219319761D01*
X109716905Y-219272142D01*
X109478810Y-219272142D01*
X109383571Y-219319761D01*
X109335952Y-219367380D01*
X109288333Y-219462618D01*
X109288333Y-219653095D01*
X109335952Y-219748333D01*
X109383571Y-219795952D01*
X109478810Y-219843571D01*
X111407381Y-218238809D02*
X110931190Y-218572143D01*
X111407381Y-218810238D02*
X110407381Y-218810238D01*
X110407381Y-218429285D01*
X110455000Y-218334047D01*
X110502619Y-218286428D01*
X110597857Y-218238809D01*
X110740714Y-218238809D01*
X110835952Y-218286428D01*
X110883571Y-218334047D01*
X110931190Y-218429285D01*
X110931190Y-218810238D01*
X111359762Y-217857857D02*
X111407381Y-217762619D01*
X111407381Y-217572143D01*
X111359762Y-217476904D01*
X111264524Y-217429285D01*
X111216905Y-217429285D01*
X111121667Y-217476904D01*
X111074048Y-217572143D01*
X111074048Y-217715000D01*
X111026429Y-217810238D01*
X110931190Y-217857857D01*
X110883571Y-217857857D01*
X110788333Y-217810238D01*
X110740714Y-217715000D01*
X110740714Y-217572143D01*
X110788333Y-217476904D01*
X110502619Y-217048333D02*
X110455000Y-217000714D01*
X110407381Y-216905476D01*
X110407381Y-216667380D01*
X110455000Y-216572142D01*
X110502619Y-216524523D01*
X110597857Y-216476904D01*
X110693095Y-216476904D01*
X110835952Y-216524523D01*
X111407381Y-217095952D01*
X111407381Y-216476904D01*
X110502619Y-216095952D02*
X110455000Y-216048333D01*
X110407381Y-215953095D01*
X110407381Y-215714999D01*
X110455000Y-215619761D01*
X110502619Y-215572142D01*
X110597857Y-215524523D01*
X110693095Y-215524523D01*
X110835952Y-215572142D01*
X111407381Y-216143571D01*
X111407381Y-215524523D01*
X110407381Y-215191190D02*
X110407381Y-214524523D01*
X111407381Y-214953095D01*
X112907381Y-222938809D02*
X112431190Y-223272143D01*
X112907381Y-223510238D02*
X111907381Y-223510238D01*
X111907381Y-223129285D01*
X111955000Y-223034047D01*
X112002619Y-222986428D01*
X112097857Y-222938809D01*
X112240714Y-222938809D01*
X112335952Y-222986428D01*
X112383571Y-223034047D01*
X112431190Y-223129285D01*
X112431190Y-223510238D01*
X112859762Y-222557857D02*
X112907381Y-222462619D01*
X112907381Y-222272143D01*
X112859762Y-222176904D01*
X112764524Y-222129285D01*
X112716905Y-222129285D01*
X112621667Y-222176904D01*
X112574048Y-222272143D01*
X112574048Y-222415000D01*
X112526429Y-222510238D01*
X112431190Y-222557857D01*
X112383571Y-222557857D01*
X112288333Y-222510238D01*
X112240714Y-222415000D01*
X112240714Y-222272143D01*
X112288333Y-222176904D01*
X112002619Y-221748333D02*
X111955000Y-221700714D01*
X111907381Y-221605476D01*
X111907381Y-221367380D01*
X111955000Y-221272142D01*
X112002619Y-221224523D01*
X112097857Y-221176904D01*
X112193095Y-221176904D01*
X112335952Y-221224523D01*
X112907381Y-221795952D01*
X112907381Y-221176904D01*
X112002619Y-220795952D02*
X111955000Y-220748333D01*
X111907381Y-220653095D01*
X111907381Y-220414999D01*
X111955000Y-220319761D01*
X112002619Y-220272142D01*
X112097857Y-220224523D01*
X112193095Y-220224523D01*
X112335952Y-220272142D01*
X112907381Y-220843571D01*
X112907381Y-220224523D01*
X112907381Y-219748333D02*
X112907381Y-219557857D01*
X112859762Y-219462618D01*
X112812143Y-219414999D01*
X112669286Y-219319761D01*
X112478810Y-219272142D01*
X112097857Y-219272142D01*
X112002619Y-219319761D01*
X111955000Y-219367380D01*
X111907381Y-219462618D01*
X111907381Y-219653095D01*
X111955000Y-219748333D01*
X112002619Y-219795952D01*
X112097857Y-219843571D01*
X112335952Y-219843571D01*
X112431190Y-219795952D01*
X112478810Y-219748333D01*
X112526429Y-219653095D01*
X112526429Y-219462618D01*
X112478810Y-219367380D01*
X112431190Y-219319761D01*
X112335952Y-219272142D01*
X114407381Y-218238809D02*
X113931190Y-218572143D01*
X114407381Y-218810238D02*
X113407381Y-218810238D01*
X113407381Y-218429285D01*
X113455000Y-218334047D01*
X113502619Y-218286428D01*
X113597857Y-218238809D01*
X113740714Y-218238809D01*
X113835952Y-218286428D01*
X113883571Y-218334047D01*
X113931190Y-218429285D01*
X113931190Y-218810238D01*
X114359762Y-217857857D02*
X114407381Y-217762619D01*
X114407381Y-217572143D01*
X114359762Y-217476904D01*
X114264524Y-217429285D01*
X114216905Y-217429285D01*
X114121667Y-217476904D01*
X114074048Y-217572143D01*
X114074048Y-217715000D01*
X114026429Y-217810238D01*
X113931190Y-217857857D01*
X113883571Y-217857857D01*
X113788333Y-217810238D01*
X113740714Y-217715000D01*
X113740714Y-217572143D01*
X113788333Y-217476904D01*
X113502619Y-217048333D02*
X113455000Y-217000714D01*
X113407381Y-216905476D01*
X113407381Y-216667380D01*
X113455000Y-216572142D01*
X113502619Y-216524523D01*
X113597857Y-216476904D01*
X113693095Y-216476904D01*
X113835952Y-216524523D01*
X114407381Y-217095952D01*
X114407381Y-216476904D01*
X113407381Y-216143571D02*
X113407381Y-215524523D01*
X113788333Y-215857857D01*
X113788333Y-215714999D01*
X113835952Y-215619761D01*
X113883571Y-215572142D01*
X113978810Y-215524523D01*
X114216905Y-215524523D01*
X114312143Y-215572142D01*
X114359762Y-215619761D01*
X114407381Y-215714999D01*
X114407381Y-216000714D01*
X114359762Y-216095952D01*
X114312143Y-216143571D01*
X113407381Y-214905476D02*
X113407381Y-214810237D01*
X113455000Y-214714999D01*
X113502619Y-214667380D01*
X113597857Y-214619761D01*
X113788333Y-214572142D01*
X114026429Y-214572142D01*
X114216905Y-214619761D01*
X114312143Y-214667380D01*
X114359762Y-214714999D01*
X114407381Y-214810237D01*
X114407381Y-214905476D01*
X114359762Y-215000714D01*
X114312143Y-215048333D01*
X114216905Y-215095952D01*
X114026429Y-215143571D01*
X113788333Y-215143571D01*
X113597857Y-215095952D01*
X113502619Y-215048333D01*
X113455000Y-215000714D01*
X113407381Y-214905476D01*
X115907381Y-222938809D02*
X115431190Y-223272143D01*
X115907381Y-223510238D02*
X114907381Y-223510238D01*
X114907381Y-223129285D01*
X114955000Y-223034047D01*
X115002619Y-222986428D01*
X115097857Y-222938809D01*
X115240714Y-222938809D01*
X115335952Y-222986428D01*
X115383571Y-223034047D01*
X115431190Y-223129285D01*
X115431190Y-223510238D01*
X115859762Y-222557857D02*
X115907381Y-222462619D01*
X115907381Y-222272143D01*
X115859762Y-222176904D01*
X115764524Y-222129285D01*
X115716905Y-222129285D01*
X115621667Y-222176904D01*
X115574048Y-222272143D01*
X115574048Y-222415000D01*
X115526429Y-222510238D01*
X115431190Y-222557857D01*
X115383571Y-222557857D01*
X115288333Y-222510238D01*
X115240714Y-222415000D01*
X115240714Y-222272143D01*
X115288333Y-222176904D01*
X115002619Y-221748333D02*
X114955000Y-221700714D01*
X114907381Y-221605476D01*
X114907381Y-221367380D01*
X114955000Y-221272142D01*
X115002619Y-221224523D01*
X115097857Y-221176904D01*
X115193095Y-221176904D01*
X115335952Y-221224523D01*
X115907381Y-221795952D01*
X115907381Y-221176904D01*
X114907381Y-220843571D02*
X114907381Y-220224523D01*
X115288333Y-220557857D01*
X115288333Y-220414999D01*
X115335952Y-220319761D01*
X115383571Y-220272142D01*
X115478810Y-220224523D01*
X115716905Y-220224523D01*
X115812143Y-220272142D01*
X115859762Y-220319761D01*
X115907381Y-220414999D01*
X115907381Y-220700714D01*
X115859762Y-220795952D01*
X115812143Y-220843571D01*
X114907381Y-219891190D02*
X114907381Y-219272142D01*
X115288333Y-219605476D01*
X115288333Y-219462618D01*
X115335952Y-219367380D01*
X115383571Y-219319761D01*
X115478810Y-219272142D01*
X115716905Y-219272142D01*
X115812143Y-219319761D01*
X115859762Y-219367380D01*
X115907381Y-219462618D01*
X115907381Y-219748333D01*
X115859762Y-219843571D01*
X115812143Y-219891190D01*
X117407381Y-218238809D02*
X116931190Y-218572143D01*
X117407381Y-218810238D02*
X116407381Y-218810238D01*
X116407381Y-218429285D01*
X116455000Y-218334047D01*
X116502619Y-218286428D01*
X116597857Y-218238809D01*
X116740714Y-218238809D01*
X116835952Y-218286428D01*
X116883571Y-218334047D01*
X116931190Y-218429285D01*
X116931190Y-218810238D01*
X117359762Y-217857857D02*
X117407381Y-217762619D01*
X117407381Y-217572143D01*
X117359762Y-217476904D01*
X117264524Y-217429285D01*
X117216905Y-217429285D01*
X117121667Y-217476904D01*
X117074048Y-217572143D01*
X117074048Y-217715000D01*
X117026429Y-217810238D01*
X116931190Y-217857857D01*
X116883571Y-217857857D01*
X116788333Y-217810238D01*
X116740714Y-217715000D01*
X116740714Y-217572143D01*
X116788333Y-217476904D01*
X116502619Y-217048333D02*
X116455000Y-217000714D01*
X116407381Y-216905476D01*
X116407381Y-216667380D01*
X116455000Y-216572142D01*
X116502619Y-216524523D01*
X116597857Y-216476904D01*
X116693095Y-216476904D01*
X116835952Y-216524523D01*
X117407381Y-217095952D01*
X117407381Y-216476904D01*
X116407381Y-216143571D02*
X116407381Y-215524523D01*
X116788333Y-215857857D01*
X116788333Y-215714999D01*
X116835952Y-215619761D01*
X116883571Y-215572142D01*
X116978810Y-215524523D01*
X117216905Y-215524523D01*
X117312143Y-215572142D01*
X117359762Y-215619761D01*
X117407381Y-215714999D01*
X117407381Y-216000714D01*
X117359762Y-216095952D01*
X117312143Y-216143571D01*
X116740714Y-214667380D02*
X117407381Y-214667380D01*
X116359762Y-214905476D02*
X117074048Y-215143571D01*
X117074048Y-214524523D01*
X118907381Y-222938809D02*
X118431190Y-223272143D01*
X118907381Y-223510238D02*
X117907381Y-223510238D01*
X117907381Y-223129285D01*
X117955000Y-223034047D01*
X118002619Y-222986428D01*
X118097857Y-222938809D01*
X118240714Y-222938809D01*
X118335952Y-222986428D01*
X118383571Y-223034047D01*
X118431190Y-223129285D01*
X118431190Y-223510238D01*
X118859762Y-222557857D02*
X118907381Y-222462619D01*
X118907381Y-222272143D01*
X118859762Y-222176904D01*
X118764524Y-222129285D01*
X118716905Y-222129285D01*
X118621667Y-222176904D01*
X118574048Y-222272143D01*
X118574048Y-222415000D01*
X118526429Y-222510238D01*
X118431190Y-222557857D01*
X118383571Y-222557857D01*
X118288333Y-222510238D01*
X118240714Y-222415000D01*
X118240714Y-222272143D01*
X118288333Y-222176904D01*
X118002619Y-221748333D02*
X117955000Y-221700714D01*
X117907381Y-221605476D01*
X117907381Y-221367380D01*
X117955000Y-221272142D01*
X118002619Y-221224523D01*
X118097857Y-221176904D01*
X118193095Y-221176904D01*
X118335952Y-221224523D01*
X118907381Y-221795952D01*
X118907381Y-221176904D01*
X117907381Y-220843571D02*
X117907381Y-220224523D01*
X118288333Y-220557857D01*
X118288333Y-220414999D01*
X118335952Y-220319761D01*
X118383571Y-220272142D01*
X118478810Y-220224523D01*
X118716905Y-220224523D01*
X118812143Y-220272142D01*
X118859762Y-220319761D01*
X118907381Y-220414999D01*
X118907381Y-220700714D01*
X118859762Y-220795952D01*
X118812143Y-220843571D01*
X117907381Y-219319761D02*
X117907381Y-219795952D01*
X118383571Y-219843571D01*
X118335952Y-219795952D01*
X118288333Y-219700714D01*
X118288333Y-219462618D01*
X118335952Y-219367380D01*
X118383571Y-219319761D01*
X118478810Y-219272142D01*
X118716905Y-219272142D01*
X118812143Y-219319761D01*
X118859762Y-219367380D01*
X118907381Y-219462618D01*
X118907381Y-219700714D01*
X118859762Y-219795952D01*
X118812143Y-219843571D01*
X120407381Y-218238809D02*
X119931190Y-218572143D01*
X120407381Y-218810238D02*
X119407381Y-218810238D01*
X119407381Y-218429285D01*
X119455000Y-218334047D01*
X119502619Y-218286428D01*
X119597857Y-218238809D01*
X119740714Y-218238809D01*
X119835952Y-218286428D01*
X119883571Y-218334047D01*
X119931190Y-218429285D01*
X119931190Y-218810238D01*
X120359762Y-217857857D02*
X120407381Y-217762619D01*
X120407381Y-217572143D01*
X120359762Y-217476904D01*
X120264524Y-217429285D01*
X120216905Y-217429285D01*
X120121667Y-217476904D01*
X120074048Y-217572143D01*
X120074048Y-217715000D01*
X120026429Y-217810238D01*
X119931190Y-217857857D01*
X119883571Y-217857857D01*
X119788333Y-217810238D01*
X119740714Y-217715000D01*
X119740714Y-217572143D01*
X119788333Y-217476904D01*
X119502619Y-217048333D02*
X119455000Y-217000714D01*
X119407381Y-216905476D01*
X119407381Y-216667380D01*
X119455000Y-216572142D01*
X119502619Y-216524523D01*
X119597857Y-216476904D01*
X119693095Y-216476904D01*
X119835952Y-216524523D01*
X120407381Y-217095952D01*
X120407381Y-216476904D01*
X119407381Y-216143571D02*
X119407381Y-215524523D01*
X119788333Y-215857857D01*
X119788333Y-215714999D01*
X119835952Y-215619761D01*
X119883571Y-215572142D01*
X119978810Y-215524523D01*
X120216905Y-215524523D01*
X120312143Y-215572142D01*
X120359762Y-215619761D01*
X120407381Y-215714999D01*
X120407381Y-216000714D01*
X120359762Y-216095952D01*
X120312143Y-216143571D01*
X119407381Y-214667380D02*
X119407381Y-214857857D01*
X119455000Y-214953095D01*
X119502619Y-215000714D01*
X119645476Y-215095952D01*
X119835952Y-215143571D01*
X120216905Y-215143571D01*
X120312143Y-215095952D01*
X120359762Y-215048333D01*
X120407381Y-214953095D01*
X120407381Y-214762618D01*
X120359762Y-214667380D01*
X120312143Y-214619761D01*
X120216905Y-214572142D01*
X119978810Y-214572142D01*
X119883571Y-214619761D01*
X119835952Y-214667380D01*
X119788333Y-214762618D01*
X119788333Y-214953095D01*
X119835952Y-215048333D01*
X119883571Y-215095952D01*
X119978810Y-215143571D01*
X106807381Y-161638809D02*
X106331190Y-161972143D01*
X106807381Y-162210238D02*
X105807381Y-162210238D01*
X105807381Y-161829285D01*
X105855000Y-161734047D01*
X105902619Y-161686428D01*
X105997857Y-161638809D01*
X106140714Y-161638809D01*
X106235952Y-161686428D01*
X106283571Y-161734047D01*
X106331190Y-161829285D01*
X106331190Y-162210238D01*
X106759762Y-161257857D02*
X106807381Y-161162619D01*
X106807381Y-160972143D01*
X106759762Y-160876904D01*
X106664524Y-160829285D01*
X106616905Y-160829285D01*
X106521667Y-160876904D01*
X106474048Y-160972143D01*
X106474048Y-161115000D01*
X106426429Y-161210238D01*
X106331190Y-161257857D01*
X106283571Y-161257857D01*
X106188333Y-161210238D01*
X106140714Y-161115000D01*
X106140714Y-160972143D01*
X106188333Y-160876904D01*
X105902619Y-160448333D02*
X105855000Y-160400714D01*
X105807381Y-160305476D01*
X105807381Y-160067380D01*
X105855000Y-159972142D01*
X105902619Y-159924523D01*
X105997857Y-159876904D01*
X106093095Y-159876904D01*
X106235952Y-159924523D01*
X106807381Y-160495952D01*
X106807381Y-159876904D01*
X105807381Y-159543571D02*
X105807381Y-158876904D01*
X106807381Y-159305476D01*
X105807381Y-158019761D02*
X105807381Y-158495952D01*
X106283571Y-158543571D01*
X106235952Y-158495952D01*
X106188333Y-158400714D01*
X106188333Y-158162618D01*
X106235952Y-158067380D01*
X106283571Y-158019761D01*
X106378810Y-157972142D01*
X106616905Y-157972142D01*
X106712143Y-158019761D01*
X106759762Y-158067380D01*
X106807381Y-158162618D01*
X106807381Y-158400714D01*
X106759762Y-158495952D01*
X106712143Y-158543571D01*
X105507381Y-147838809D02*
X105031190Y-148172143D01*
X105507381Y-148410238D02*
X104507381Y-148410238D01*
X104507381Y-148029285D01*
X104555000Y-147934047D01*
X104602619Y-147886428D01*
X104697857Y-147838809D01*
X104840714Y-147838809D01*
X104935952Y-147886428D01*
X104983571Y-147934047D01*
X105031190Y-148029285D01*
X105031190Y-148410238D01*
X105459762Y-147457857D02*
X105507381Y-147362619D01*
X105507381Y-147172143D01*
X105459762Y-147076904D01*
X105364524Y-147029285D01*
X105316905Y-147029285D01*
X105221667Y-147076904D01*
X105174048Y-147172143D01*
X105174048Y-147315000D01*
X105126429Y-147410238D01*
X105031190Y-147457857D01*
X104983571Y-147457857D01*
X104888333Y-147410238D01*
X104840714Y-147315000D01*
X104840714Y-147172143D01*
X104888333Y-147076904D01*
X104602619Y-146648333D02*
X104555000Y-146600714D01*
X104507381Y-146505476D01*
X104507381Y-146267380D01*
X104555000Y-146172142D01*
X104602619Y-146124523D01*
X104697857Y-146076904D01*
X104793095Y-146076904D01*
X104935952Y-146124523D01*
X105507381Y-146695952D01*
X105507381Y-146076904D01*
X104507381Y-145743571D02*
X104507381Y-145076904D01*
X105507381Y-145505476D01*
X104507381Y-144267380D02*
X104507381Y-144457857D01*
X104555000Y-144553095D01*
X104602619Y-144600714D01*
X104745476Y-144695952D01*
X104935952Y-144743571D01*
X105316905Y-144743571D01*
X105412143Y-144695952D01*
X105459762Y-144648333D01*
X105507381Y-144553095D01*
X105507381Y-144362618D01*
X105459762Y-144267380D01*
X105412143Y-144219761D01*
X105316905Y-144172142D01*
X105078810Y-144172142D01*
X104983571Y-144219761D01*
X104935952Y-144267380D01*
X104888333Y-144362618D01*
X104888333Y-144553095D01*
X104935952Y-144648333D01*
X104983571Y-144695952D01*
X105078810Y-144743571D01*
X133535953Y-208572143D02*
X133488334Y-208619762D01*
X133345477Y-208667381D01*
X133250239Y-208667381D01*
X133107381Y-208619762D01*
X133012143Y-208524524D01*
X132964524Y-208429286D01*
X132916905Y-208238810D01*
X132916905Y-208095952D01*
X132964524Y-207905476D01*
X133012143Y-207810238D01*
X133107381Y-207715000D01*
X133250239Y-207667381D01*
X133345477Y-207667381D01*
X133488334Y-207715000D01*
X133535953Y-207762619D01*
X133916905Y-207762619D02*
X133964524Y-207715000D01*
X134059762Y-207667381D01*
X134297858Y-207667381D01*
X134393096Y-207715000D01*
X134440715Y-207762619D01*
X134488334Y-207857857D01*
X134488334Y-207953095D01*
X134440715Y-208095952D01*
X133869286Y-208667381D01*
X134488334Y-208667381D01*
X135107381Y-207667381D02*
X135202620Y-207667381D01*
X135297858Y-207715000D01*
X135345477Y-207762619D01*
X135393096Y-207857857D01*
X135440715Y-208048333D01*
X135440715Y-208286429D01*
X135393096Y-208476905D01*
X135345477Y-208572143D01*
X135297858Y-208619762D01*
X135202620Y-208667381D01*
X135107381Y-208667381D01*
X135012143Y-208619762D01*
X134964524Y-208572143D01*
X134916905Y-208476905D01*
X134869286Y-208286429D01*
X134869286Y-208048333D01*
X134916905Y-207857857D01*
X134964524Y-207762619D01*
X135012143Y-207715000D01*
X135107381Y-207667381D01*
X135916905Y-208667381D02*
X136107381Y-208667381D01*
X136202620Y-208619762D01*
X136250239Y-208572143D01*
X136345477Y-208429286D01*
X136393096Y-208238810D01*
X136393096Y-207857857D01*
X136345477Y-207762619D01*
X136297858Y-207715000D01*
X136202620Y-207667381D01*
X136012143Y-207667381D01*
X135916905Y-207715000D01*
X135869286Y-207762619D01*
X135821667Y-207857857D01*
X135821667Y-208095952D01*
X135869286Y-208191190D01*
X135916905Y-208238810D01*
X136012143Y-208286429D01*
X136202620Y-208286429D01*
X136297858Y-208238810D01*
X136345477Y-208191190D01*
X136393096Y-208095952D01*
M02*
