G04 #@! TF.FileFunction,Profile,NP*
%FSLAX46Y46*%
G04 Gerber Fmt 4.6, Leading zero omitted, Abs format (unit mm)*
G04 Created by KiCad (PCBNEW 4.0.2-stable) date 29-4-2016 14:39:48*
%MOMM*%
G01*
G04 APERTURE LIST*
%ADD10C,0.150000*%
%ADD11C,0.100000*%
%ADD12C,0.300000*%
G04 APERTURE END LIST*
D10*
D11*
X146050000Y-234315000D02*
X46355000Y-234315000D01*
X146050000Y-134620000D02*
X146050000Y-234315000D01*
X46355000Y-134620000D02*
X146050000Y-134620000D01*
X46355000Y-234315000D02*
X46355000Y-134620000D01*
D12*
X90131072Y-240153570D02*
X90416787Y-240153570D01*
X90559644Y-240082142D01*
X90631072Y-240010713D01*
X90773930Y-239796428D01*
X90845358Y-239510713D01*
X90845358Y-238939285D01*
X90773930Y-238796428D01*
X90702501Y-238724999D01*
X90559644Y-238653570D01*
X90273930Y-238653570D01*
X90131072Y-238724999D01*
X90059644Y-238796428D01*
X89988215Y-238939285D01*
X89988215Y-239296428D01*
X90059644Y-239439285D01*
X90131072Y-239510713D01*
X90273930Y-239582142D01*
X90559644Y-239582142D01*
X90702501Y-239510713D01*
X90773930Y-239439285D01*
X90845358Y-239296428D01*
X91559643Y-240153570D02*
X91845358Y-240153570D01*
X91988215Y-240082142D01*
X92059643Y-240010713D01*
X92202501Y-239796428D01*
X92273929Y-239510713D01*
X92273929Y-238939285D01*
X92202501Y-238796428D01*
X92131072Y-238724999D01*
X91988215Y-238653570D01*
X91702501Y-238653570D01*
X91559643Y-238724999D01*
X91488215Y-238796428D01*
X91416786Y-238939285D01*
X91416786Y-239296428D01*
X91488215Y-239439285D01*
X91559643Y-239510713D01*
X91702501Y-239582142D01*
X91988215Y-239582142D01*
X92131072Y-239510713D01*
X92202501Y-239439285D01*
X92273929Y-239296428D01*
X92988214Y-240082142D02*
X92988214Y-240153570D01*
X92916786Y-240296428D01*
X92845357Y-240367856D01*
X94273929Y-238653570D02*
X93988215Y-238653570D01*
X93845358Y-238724999D01*
X93773929Y-238796428D01*
X93631072Y-239010713D01*
X93559643Y-239296428D01*
X93559643Y-239867856D01*
X93631072Y-240010713D01*
X93702500Y-240082142D01*
X93845358Y-240153570D01*
X94131072Y-240153570D01*
X94273929Y-240082142D01*
X94345358Y-240010713D01*
X94416786Y-239867856D01*
X94416786Y-239510713D01*
X94345358Y-239367856D01*
X94273929Y-239296428D01*
X94131072Y-239224999D01*
X93845358Y-239224999D01*
X93702500Y-239296428D01*
X93631072Y-239367856D01*
X93559643Y-239510713D01*
X95131071Y-240153570D02*
X95416786Y-240153570D01*
X95559643Y-240082142D01*
X95631071Y-240010713D01*
X95773929Y-239796428D01*
X95845357Y-239510713D01*
X95845357Y-238939285D01*
X95773929Y-238796428D01*
X95702500Y-238724999D01*
X95559643Y-238653570D01*
X95273929Y-238653570D01*
X95131071Y-238724999D01*
X95059643Y-238796428D01*
X94988214Y-238939285D01*
X94988214Y-239296428D01*
X95059643Y-239439285D01*
X95131071Y-239510713D01*
X95273929Y-239582142D01*
X95559643Y-239582142D01*
X95702500Y-239510713D01*
X95773929Y-239439285D01*
X95845357Y-239296428D01*
X97202500Y-238653570D02*
X96488214Y-238653570D01*
X96416785Y-239367856D01*
X96488214Y-239296428D01*
X96631071Y-239224999D01*
X96988214Y-239224999D01*
X97131071Y-239296428D01*
X97202500Y-239367856D01*
X97273928Y-239510713D01*
X97273928Y-239867856D01*
X97202500Y-240010713D01*
X97131071Y-240082142D01*
X96988214Y-240153570D01*
X96631071Y-240153570D01*
X96488214Y-240082142D01*
X96416785Y-240010713D01*
X99059642Y-240153570D02*
X99059642Y-239153570D01*
X99059642Y-239296428D02*
X99131070Y-239224999D01*
X99273928Y-239153570D01*
X99488213Y-239153570D01*
X99631070Y-239224999D01*
X99702499Y-239367856D01*
X99702499Y-240153570D01*
X99702499Y-239367856D02*
X99773928Y-239224999D01*
X99916785Y-239153570D01*
X100131070Y-239153570D01*
X100273928Y-239224999D01*
X100345356Y-239367856D01*
X100345356Y-240153570D01*
X101059642Y-240153570D02*
X101059642Y-239153570D01*
X101059642Y-239296428D02*
X101131070Y-239224999D01*
X101273928Y-239153570D01*
X101488213Y-239153570D01*
X101631070Y-239224999D01*
X101702499Y-239367856D01*
X101702499Y-240153570D01*
X101702499Y-239367856D02*
X101773928Y-239224999D01*
X101916785Y-239153570D01*
X102131070Y-239153570D01*
X102273928Y-239224999D01*
X102345356Y-239367856D01*
X102345356Y-240153570D01*
X46355000Y-238124999D02*
X146050000Y-238124999D01*
X46355000Y-235585000D02*
X46355000Y-240824999D01*
X146050000Y-235585000D02*
X146050000Y-240824999D01*
X146050000Y-238124999D02*
X144923497Y-238711419D01*
X146050000Y-238124999D02*
X144923497Y-237538579D01*
X46355000Y-238124999D02*
X47481503Y-238711419D01*
X46355000Y-238124999D02*
X47481503Y-237538579D01*
X40516430Y-178396072D02*
X40516430Y-178681787D01*
X40587858Y-178824644D01*
X40659287Y-178896072D01*
X40873572Y-179038930D01*
X41159287Y-179110358D01*
X41730715Y-179110358D01*
X41873572Y-179038930D01*
X41945001Y-178967501D01*
X42016430Y-178824644D01*
X42016430Y-178538930D01*
X41945001Y-178396072D01*
X41873572Y-178324644D01*
X41730715Y-178253215D01*
X41373572Y-178253215D01*
X41230715Y-178324644D01*
X41159287Y-178396072D01*
X41087858Y-178538930D01*
X41087858Y-178824644D01*
X41159287Y-178967501D01*
X41230715Y-179038930D01*
X41373572Y-179110358D01*
X40516430Y-179824643D02*
X40516430Y-180110358D01*
X40587858Y-180253215D01*
X40659287Y-180324643D01*
X40873572Y-180467501D01*
X41159287Y-180538929D01*
X41730715Y-180538929D01*
X41873572Y-180467501D01*
X41945001Y-180396072D01*
X42016430Y-180253215D01*
X42016430Y-179967501D01*
X41945001Y-179824643D01*
X41873572Y-179753215D01*
X41730715Y-179681786D01*
X41373572Y-179681786D01*
X41230715Y-179753215D01*
X41159287Y-179824643D01*
X41087858Y-179967501D01*
X41087858Y-180253215D01*
X41159287Y-180396072D01*
X41230715Y-180467501D01*
X41373572Y-180538929D01*
X40587858Y-181253214D02*
X40516430Y-181253214D01*
X40373572Y-181181786D01*
X40302144Y-181110357D01*
X42016430Y-182538929D02*
X42016430Y-182253215D01*
X41945001Y-182110358D01*
X41873572Y-182038929D01*
X41659287Y-181896072D01*
X41373572Y-181824643D01*
X40802144Y-181824643D01*
X40659287Y-181896072D01*
X40587858Y-181967500D01*
X40516430Y-182110358D01*
X40516430Y-182396072D01*
X40587858Y-182538929D01*
X40659287Y-182610358D01*
X40802144Y-182681786D01*
X41159287Y-182681786D01*
X41302144Y-182610358D01*
X41373572Y-182538929D01*
X41445001Y-182396072D01*
X41445001Y-182110358D01*
X41373572Y-181967500D01*
X41302144Y-181896072D01*
X41159287Y-181824643D01*
X40516430Y-183396071D02*
X40516430Y-183681786D01*
X40587858Y-183824643D01*
X40659287Y-183896071D01*
X40873572Y-184038929D01*
X41159287Y-184110357D01*
X41730715Y-184110357D01*
X41873572Y-184038929D01*
X41945001Y-183967500D01*
X42016430Y-183824643D01*
X42016430Y-183538929D01*
X41945001Y-183396071D01*
X41873572Y-183324643D01*
X41730715Y-183253214D01*
X41373572Y-183253214D01*
X41230715Y-183324643D01*
X41159287Y-183396071D01*
X41087858Y-183538929D01*
X41087858Y-183824643D01*
X41159287Y-183967500D01*
X41230715Y-184038929D01*
X41373572Y-184110357D01*
X42016430Y-185467500D02*
X42016430Y-184753214D01*
X41302144Y-184681785D01*
X41373572Y-184753214D01*
X41445001Y-184896071D01*
X41445001Y-185253214D01*
X41373572Y-185396071D01*
X41302144Y-185467500D01*
X41159287Y-185538928D01*
X40802144Y-185538928D01*
X40659287Y-185467500D01*
X40587858Y-185396071D01*
X40516430Y-185253214D01*
X40516430Y-184896071D01*
X40587858Y-184753214D01*
X40659287Y-184681785D01*
X40516430Y-187324642D02*
X41516430Y-187324642D01*
X41373572Y-187324642D02*
X41445001Y-187396070D01*
X41516430Y-187538928D01*
X41516430Y-187753213D01*
X41445001Y-187896070D01*
X41302144Y-187967499D01*
X40516430Y-187967499D01*
X41302144Y-187967499D02*
X41445001Y-188038928D01*
X41516430Y-188181785D01*
X41516430Y-188396070D01*
X41445001Y-188538928D01*
X41302144Y-188610356D01*
X40516430Y-188610356D01*
X40516430Y-189324642D02*
X41516430Y-189324642D01*
X41373572Y-189324642D02*
X41445001Y-189396070D01*
X41516430Y-189538928D01*
X41516430Y-189753213D01*
X41445001Y-189896070D01*
X41302144Y-189967499D01*
X40516430Y-189967499D01*
X41302144Y-189967499D02*
X41445001Y-190038928D01*
X41516430Y-190181785D01*
X41516430Y-190396070D01*
X41445001Y-190538928D01*
X41302144Y-190610356D01*
X40516430Y-190610356D01*
X42545001Y-134620000D02*
X42545001Y-234315000D01*
X45085000Y-134620000D02*
X39845001Y-134620000D01*
X45085000Y-234315000D02*
X39845001Y-234315000D01*
X42545001Y-234315000D02*
X41958581Y-233188497D01*
X42545001Y-234315000D02*
X43131421Y-233188497D01*
X42545001Y-134620000D02*
X41958581Y-135746503D01*
X42545001Y-134620000D02*
X43131421Y-135746503D01*
M02*
