M48
;DRILL file {KiCad 4.0.2-stable} date 29-4-2016 14:39:52
;FORMAT={-:-/ absolute / metric / decimal}
FMAT,2
METRIC,TZ
T1C0.500
T2C0.635
T3C0.998
T4C1.016
T5C3.200
%
G90
G05
M71
T1
X79.645Y-165.195
X80.915Y-165.215
X82.185Y-165.215
X83.255Y-208.015
X83.255Y-220.215
X83.455Y-165.215
X84.725Y-165.215
X84.755Y-208.015
X84.755Y-220.215
X85.995Y-165.215
X86.255Y-208.015
X86.255Y-220.215
X87.265Y-165.215
X87.755Y-208.015
X87.755Y-220.215
X88.355Y-189.915
X88.535Y-165.215
X89.255Y-208.015
X89.255Y-220.215
X89.315Y-181.815
X89.805Y-165.215
X90.025Y-187.185
X90.155Y-181.015
X90.755Y-208.015
X90.755Y-220.215
X91.055Y-187.615
X91.075Y-165.215
X91.445Y-188.595
X92.255Y-220.215
X92.345Y-165.215
X92.355Y-208.015
X93.615Y-165.215
X93.755Y-208.015
X93.755Y-220.215
X94.245Y-176.855
X94.455Y-196.515
X94.885Y-165.215
X95.055Y-176.115
X95.355Y-197.715
X95.845Y-213.715
X96.155Y-165.215
X96.455Y-195.915
X97.345Y-213.715
X97.355Y-220.215
X97.425Y-165.215
X97.655Y-198.315
X97.845Y-191.055
X98.655Y-190.315
X98.695Y-165.215
X98.755Y-179.915
X98.845Y-213.715
X99.965Y-165.215
X100.345Y-179.695
X100.345Y-213.715
X100.555Y-180.915
X101.235Y-165.215
X101.745Y-181.115
X101.845Y-213.715
X102.505Y-165.215
X102.795Y-186.115
X103.345Y-213.715
X103.655Y-185.415
X103.775Y-165.215
X104.845Y-213.715
X105.055Y-165.215
X106.345Y-213.715
X106.355Y-164.155
X107.845Y-213.715
X109.345Y-213.715
X110.845Y-213.715
X112.345Y-213.715
X113.845Y-213.715
X115.345Y-213.715
X116.845Y-213.715
X118.345Y-213.715
X118.455Y-160.215
X118.455Y-161.715
X118.455Y-163.215
X118.455Y-164.715
X118.455Y-166.215
X118.455Y-167.715
X118.455Y-169.215
X118.455Y-170.715
X118.455Y-172.215
X118.455Y-173.715
X118.455Y-175.215
X118.455Y-176.815
X118.455Y-178.215
X118.455Y-179.815
X118.455Y-181.215
X118.455Y-182.715
X118.455Y-184.215
X118.455Y-185.715
X118.455Y-187.215
X118.455Y-188.715
X118.455Y-190.215
X118.455Y-191.715
X118.455Y-193.215
X118.455Y-194.715
X118.455Y-196.215
X118.455Y-197.715
X118.455Y-199.215
X118.455Y-200.715
X118.455Y-202.215
X118.455Y-203.715
X118.455Y-205.215
X118.455Y-206.715
X119.845Y-213.715
X121.345Y-213.715
X121.355Y-220.215
X122.355Y-216.615
X122.855Y-208.415
X122.855Y-209.515
X122.855Y-210.715
X123.155Y-217.415
X128.555Y-153.715
X131.155Y-160.215
X131.155Y-161.715
X131.155Y-163.215
X131.155Y-164.715
X131.155Y-166.215
X131.155Y-167.715
X131.155Y-169.215
X131.155Y-170.715
X131.155Y-172.215
X131.155Y-173.715
X131.155Y-175.215
X131.155Y-176.815
X131.155Y-178.215
X131.155Y-179.815
X131.155Y-181.215
X131.155Y-182.715
X131.155Y-184.215
X131.155Y-185.715
X131.155Y-187.215
X131.155Y-188.715
X131.155Y-190.215
X131.155Y-191.715
X131.155Y-193.215
X131.155Y-194.715
X131.155Y-196.215
X131.155Y-197.715
X131.155Y-199.215
X131.155Y-200.715
X131.155Y-202.215
X131.155Y-203.715
X131.155Y-205.215
X131.155Y-206.715
X136.255Y-205.115
T2
X123.855Y-142.915
X133.095Y-142.875
T3
X131.445Y-137.795
X133.985Y-137.795
T4
X48.895Y-145.415
X48.895Y-147.955
X48.895Y-150.495
X48.895Y-153.035
X48.895Y-155.575
X48.895Y-158.115
X48.895Y-160.655
X48.895Y-163.195
X48.895Y-165.735
X48.895Y-168.275
X48.895Y-170.815
X48.895Y-173.355
X48.895Y-175.895
X48.895Y-178.435
X48.895Y-180.975
X48.895Y-183.515
X48.895Y-186.055
X48.895Y-188.595
X48.895Y-191.135
X48.895Y-193.675
X48.895Y-196.215
X48.895Y-198.755
X48.895Y-201.295
X48.895Y-203.835
X48.895Y-206.375
X48.895Y-208.915
X48.895Y-211.455
X48.895Y-213.995
X48.895Y-216.535
X48.895Y-219.075
X48.895Y-221.615
X48.895Y-224.155
X51.435Y-145.415
X51.435Y-147.955
X51.435Y-150.495
X51.435Y-153.035
X51.435Y-155.575
X51.435Y-158.115
X51.435Y-160.655
X51.435Y-163.195
X51.435Y-165.735
X51.435Y-168.275
X51.435Y-170.815
X51.435Y-173.355
X51.435Y-175.895
X51.435Y-178.435
X51.435Y-180.975
X51.435Y-183.515
X51.435Y-186.055
X51.435Y-188.595
X51.435Y-191.135
X51.435Y-193.675
X51.435Y-196.215
X51.435Y-198.755
X51.435Y-201.295
X51.435Y-203.835
X51.435Y-206.375
X51.435Y-208.915
X51.435Y-211.455
X51.435Y-213.995
X51.435Y-216.535
X51.435Y-219.075
X51.435Y-221.615
X51.435Y-224.155
X53.975Y-145.415
X53.975Y-147.955
X53.975Y-150.495
X53.975Y-153.035
X53.975Y-155.575
X53.975Y-158.115
X53.975Y-160.655
X53.975Y-163.195
X53.975Y-165.735
X53.975Y-168.275
X53.975Y-170.815
X53.975Y-173.355
X53.975Y-175.895
X53.975Y-178.435
X53.975Y-180.975
X53.975Y-183.515
X53.975Y-186.055
X53.975Y-188.595
X53.975Y-191.135
X53.975Y-193.675
X53.975Y-196.215
X53.975Y-198.755
X53.975Y-201.295
X53.975Y-203.835
X53.975Y-206.375
X53.975Y-208.915
X53.975Y-211.455
X53.975Y-213.995
X53.975Y-216.535
X53.975Y-219.075
X53.975Y-221.615
X53.975Y-224.155
X56.515Y-137.795
X56.515Y-140.335
X56.515Y-142.875
X56.515Y-145.415
X56.515Y-147.955
X56.515Y-150.495
X56.515Y-153.035
X56.515Y-155.575
X56.515Y-158.115
X56.515Y-160.655
X56.515Y-163.195
X56.515Y-165.735
X56.515Y-168.275
X56.515Y-170.815
X56.515Y-173.355
X56.515Y-175.895
X56.515Y-178.435
X56.515Y-180.975
X56.515Y-183.515
X56.515Y-186.055
X56.515Y-188.595
X56.515Y-191.135
X56.515Y-193.675
X56.515Y-196.215
X56.515Y-198.755
X56.515Y-201.295
X56.515Y-203.835
X56.515Y-206.375
X56.515Y-208.915
X56.515Y-211.455
X56.515Y-213.995
X56.515Y-216.535
X56.515Y-219.075
X56.515Y-221.615
X56.515Y-224.155
X56.515Y-226.695
X56.515Y-229.235
X56.515Y-231.775
X59.055Y-137.795
X59.055Y-140.335
X59.055Y-142.875
X59.055Y-145.415
X59.055Y-147.955
X59.055Y-150.495
X59.055Y-153.035
X59.055Y-155.575
X59.055Y-158.115
X59.055Y-160.655
X59.055Y-163.195
X59.055Y-165.735
X59.055Y-168.275
X59.055Y-170.815
X59.055Y-173.355
X59.055Y-175.895
X59.055Y-178.435
X59.055Y-180.975
X59.055Y-183.515
X59.055Y-186.055
X59.055Y-188.595
X59.055Y-191.135
X59.055Y-193.675
X59.055Y-196.215
X59.055Y-198.755
X59.055Y-201.295
X59.055Y-203.835
X59.055Y-206.375
X59.055Y-208.915
X59.055Y-211.455
X59.055Y-213.995
X59.055Y-216.535
X59.055Y-219.075
X59.055Y-221.615
X59.055Y-224.155
X59.055Y-226.695
X59.055Y-229.235
X59.055Y-231.775
X61.595Y-137.795
X61.595Y-140.335
X61.595Y-142.875
X61.595Y-145.415
X61.595Y-147.955
X61.595Y-150.495
X61.595Y-153.035
X61.595Y-155.575
X61.595Y-158.115
X61.595Y-160.655
X61.595Y-163.195
X61.595Y-165.735
X61.595Y-168.275
X61.595Y-170.815
X61.595Y-173.355
X61.595Y-175.895
X61.595Y-178.435
X61.595Y-180.975
X61.595Y-183.515
X61.595Y-186.055
X61.595Y-188.595
X61.595Y-191.135
X61.595Y-193.675
X61.595Y-196.215
X61.595Y-198.755
X61.595Y-201.295
X61.595Y-203.835
X61.595Y-206.375
X61.595Y-208.915
X61.595Y-211.455
X61.595Y-213.995
X61.595Y-216.535
X61.595Y-219.075
X61.595Y-221.615
X61.595Y-224.155
X61.595Y-226.695
X61.595Y-229.235
X61.595Y-231.775
X64.135Y-137.795
X64.135Y-140.335
X64.135Y-142.875
X64.135Y-145.415
X64.135Y-147.955
X64.135Y-150.495
X64.135Y-153.035
X64.135Y-155.575
X64.135Y-158.115
X64.135Y-160.655
X64.135Y-163.195
X64.135Y-165.735
X64.135Y-168.275
X64.135Y-170.815
X64.135Y-173.355
X64.135Y-175.895
X64.135Y-178.435
X64.135Y-180.975
X64.135Y-183.515
X64.135Y-186.055
X64.135Y-188.595
X64.135Y-191.135
X64.135Y-193.675
X64.135Y-196.215
X64.135Y-198.755
X64.135Y-201.295
X64.135Y-203.835
X64.135Y-206.375
X64.135Y-208.915
X64.135Y-211.455
X64.135Y-213.995
X64.135Y-216.535
X64.135Y-219.075
X64.135Y-221.615
X64.135Y-224.155
X64.135Y-226.695
X64.135Y-229.235
X64.135Y-231.775
X66.675Y-145.415
X66.675Y-147.955
X66.675Y-150.495
X66.675Y-153.035
X66.675Y-155.575
X66.675Y-158.115
X66.675Y-160.655
X66.675Y-163.195
X66.675Y-165.735
X66.675Y-168.275
X66.675Y-170.815
X66.675Y-173.355
X66.675Y-175.895
X66.675Y-178.435
X66.675Y-180.975
X66.675Y-183.515
X66.675Y-186.055
X66.675Y-188.595
X66.675Y-191.135
X66.675Y-193.675
X66.675Y-196.215
X66.675Y-198.755
X66.675Y-201.295
X66.675Y-203.835
X66.675Y-206.375
X66.675Y-208.915
X66.675Y-211.455
X66.675Y-213.995
X66.675Y-216.535
X66.675Y-219.075
X66.675Y-221.615
X69.215Y-145.415
X69.215Y-147.955
X69.215Y-150.495
X69.215Y-153.035
X69.215Y-155.575
X69.215Y-158.115
X69.215Y-160.655
X69.215Y-163.195
X69.215Y-165.735
X69.215Y-168.275
X69.215Y-170.815
X69.215Y-173.355
X69.215Y-175.895
X69.215Y-178.435
X69.215Y-180.975
X69.215Y-183.515
X69.215Y-186.055
X69.215Y-188.595
X69.215Y-191.135
X69.215Y-193.675
X69.215Y-196.215
X69.215Y-198.755
X69.215Y-201.295
X69.215Y-203.835
X69.215Y-206.375
X69.215Y-208.915
X69.215Y-211.455
X69.215Y-213.995
X69.215Y-216.535
X69.215Y-219.075
X69.215Y-221.615
X71.755Y-137.795
X71.755Y-140.335
X71.755Y-145.415
X71.755Y-147.955
X71.755Y-150.495
X71.755Y-153.035
X71.755Y-155.575
X71.755Y-158.115
X71.755Y-160.655
X71.755Y-163.195
X71.755Y-165.735
X71.755Y-168.275
X71.755Y-170.815
X71.755Y-173.355
X71.755Y-175.895
X71.755Y-178.435
X71.755Y-180.975
X71.755Y-183.515
X71.755Y-186.055
X71.755Y-188.595
X71.755Y-191.135
X71.755Y-193.675
X71.755Y-196.215
X71.755Y-198.755
X71.755Y-201.295
X71.755Y-203.835
X71.755Y-206.375
X71.755Y-208.915
X71.755Y-211.455
X71.755Y-213.995
X71.755Y-216.535
X71.755Y-219.075
X71.755Y-221.615
X71.755Y-228.6
X71.755Y-231.14
X74.295Y-137.795
X74.295Y-140.335
X74.295Y-145.415
X74.295Y-147.955
X74.295Y-150.495
X74.295Y-153.035
X74.295Y-155.575
X74.295Y-158.115
X74.295Y-160.655
X74.295Y-163.195
X74.295Y-165.735
X74.295Y-168.275
X74.295Y-170.815
X74.295Y-173.355
X74.295Y-175.895
X74.295Y-178.435
X74.295Y-180.975
X74.295Y-183.515
X74.295Y-186.055
X74.295Y-188.595
X74.295Y-191.135
X74.295Y-193.675
X74.295Y-196.215
X74.295Y-198.755
X74.295Y-201.295
X74.295Y-203.835
X74.295Y-206.375
X74.295Y-208.915
X74.295Y-211.455
X74.295Y-213.995
X74.295Y-216.535
X74.295Y-219.075
X74.295Y-228.6
X74.295Y-231.14
X76.835Y-137.795
X76.835Y-140.335
X76.835Y-173.355
X76.835Y-175.895
X76.835Y-178.435
X76.835Y-180.975
X76.835Y-183.515
X76.835Y-186.055
X76.835Y-188.595
X76.835Y-191.135
X76.835Y-193.675
X76.835Y-196.215
X76.835Y-198.755
X76.835Y-201.295
X76.835Y-203.835
X76.835Y-206.375
X76.835Y-208.915
X76.835Y-211.455
X76.835Y-213.995
X76.835Y-216.535
X76.835Y-219.075
X76.835Y-228.6
X76.835Y-231.14
X79.375Y-137.795
X79.375Y-140.335
X79.375Y-228.6
X79.375Y-231.14
X79.495Y-173.395
X79.495Y-175.935
X79.495Y-178.475
X79.495Y-181.015
X79.495Y-183.555
X79.495Y-186.095
X79.495Y-188.635
X79.495Y-191.175
X79.495Y-193.715
X79.495Y-196.255
X79.495Y-198.795
X79.495Y-201.335
X79.495Y-203.875
X79.495Y-206.415
X79.495Y-208.955
X79.495Y-211.495
X79.495Y-214.035
X79.495Y-216.575
X79.495Y-219.115
X81.915Y-137.795
X81.915Y-140.335
X81.915Y-228.6
X81.915Y-231.14
X84.455Y-137.795
X84.455Y-140.335
X84.455Y-228.6
X84.455Y-231.14
X86.995Y-137.795
X86.995Y-140.335
X86.995Y-228.6
X86.995Y-231.14
X89.535Y-137.795
X89.535Y-140.335
X89.535Y-228.6
X89.535Y-231.14
X92.075Y-137.795
X92.075Y-140.335
X92.075Y-228.6
X92.075Y-231.14
X94.615Y-137.795
X94.615Y-140.335
X94.615Y-228.6
X94.615Y-231.14
X97.155Y-137.795
X97.155Y-140.335
X97.155Y-228.6
X97.155Y-231.14
X99.695Y-137.795
X99.695Y-140.335
X99.695Y-228.6
X99.695Y-231.14
X102.235Y-137.795
X102.235Y-140.335
X102.235Y-228.6
X102.235Y-231.14
X104.775Y-137.795
X104.775Y-140.335
X104.775Y-228.6
X104.775Y-231.14
X107.315Y-137.795
X107.315Y-140.335
X107.315Y-228.6
X107.315Y-231.14
X109.855Y-137.795
X109.855Y-140.335
X109.855Y-145.415
X109.855Y-147.955
X109.855Y-150.495
X109.855Y-153.035
X109.855Y-155.575
X109.855Y-228.6
X109.855Y-231.14
X112.395Y-137.795
X112.395Y-140.335
X112.395Y-145.415
X112.395Y-147.955
X112.395Y-150.495
X112.395Y-153.035
X112.395Y-155.575
X112.395Y-228.6
X112.395Y-231.14
X114.935Y-137.795
X114.935Y-140.335
X114.935Y-145.415
X114.935Y-147.955
X114.935Y-150.495
X114.935Y-153.035
X114.935Y-155.575
X114.935Y-228.6
X114.935Y-231.14
X117.475Y-137.795
X117.475Y-140.335
X117.475Y-145.415
X117.475Y-147.955
X117.475Y-150.495
X117.475Y-153.035
X117.475Y-155.575
X117.475Y-228.6
X117.475Y-231.14
X120.015Y-137.795
X120.015Y-140.335
X120.015Y-145.415
X120.015Y-147.955
X120.015Y-150.495
X120.015Y-153.035
X120.015Y-155.575
X120.015Y-228.6
X120.015Y-231.14
X127.635Y-211.455
X127.635Y-213.995
X127.635Y-216.535
X127.635Y-219.075
X127.635Y-221.615
X127.635Y-224.155
X127.635Y-226.695
X127.635Y-229.235
X127.635Y-231.775
X130.175Y-211.455
X130.175Y-213.995
X130.175Y-216.535
X130.175Y-219.075
X130.175Y-221.615
X130.175Y-224.155
X130.175Y-226.695
X130.175Y-229.235
X130.175Y-231.775
X132.715Y-211.455
X132.715Y-213.995
X132.715Y-216.535
X132.715Y-219.075
X132.715Y-221.615
X132.715Y-224.155
X132.715Y-226.695
X132.715Y-229.235
X132.715Y-231.775
X135.255Y-211.455
X135.255Y-213.995
X135.255Y-216.535
X135.255Y-219.075
X135.255Y-221.615
X135.255Y-224.155
X135.255Y-226.695
X135.255Y-229.235
X135.255Y-231.775
X140.335Y-149.86
X140.335Y-152.4
X140.335Y-154.94
X140.335Y-157.48
X140.335Y-160.02
X140.335Y-162.56
X140.335Y-165.1
X140.335Y-167.64
X140.335Y-170.18
X140.335Y-172.72
X140.335Y-175.26
X140.335Y-177.8
X140.335Y-180.34
X140.335Y-182.88
X140.335Y-185.42
X140.335Y-187.96
X140.335Y-190.5
X140.335Y-193.04
X140.335Y-195.58
X140.335Y-198.12
X140.335Y-209.55
X140.335Y-212.09
X140.335Y-214.63
X140.335Y-217.17
X140.335Y-219.71
X142.875Y-149.86
X142.875Y-152.4
X142.875Y-154.94
X142.875Y-157.48
X142.875Y-160.02
X142.875Y-162.56
X142.875Y-165.1
X142.875Y-167.64
X142.875Y-170.18
X142.875Y-172.72
X142.875Y-175.26
X142.875Y-177.8
X142.875Y-180.34
X142.875Y-182.88
X142.875Y-185.42
X142.875Y-187.96
X142.875Y-190.5
X142.875Y-193.04
X142.875Y-195.58
X142.875Y-198.12
X142.875Y-209.55
X142.875Y-212.09
X142.875Y-214.63
X142.875Y-217.17
X142.875Y-219.71
T5
X51.435Y-139.7
X51.435Y-229.235
X140.97Y-139.7
X140.97Y-229.235
T0
M30
