G04 #@! TF.FileFunction,Soldermask,Bot*
%FSLAX46Y46*%
G04 Gerber Fmt 4.6, Leading zero omitted, Abs format (unit mm)*
G04 Created by KiCad (PCBNEW 4.0.2-stable) date 29-4-2016 14:39:48*
%MOMM*%
G01*
G04 APERTURE LIST*
%ADD10C,0.150000*%
%ADD11C,2.000000*%
%ADD12C,5.000000*%
%ADD13R,1.727200X1.727200*%
%ADD14O,1.727200X1.727200*%
%ADD15O,1.506220X3.014980*%
%ADD16R,1.220000X0.910000*%
%ADD17R,1.200000X0.900000*%
%ADD18R,0.910000X1.220000*%
%ADD19R,0.900000X1.200000*%
%ADD20C,0.800000*%
%ADD21C,0.889000*%
G04 APERTURE END LIST*
D10*
D11*
X74295000Y-145415000D03*
X74295000Y-147955000D03*
X74295000Y-150495000D03*
X74295000Y-155575000D03*
X74295000Y-153035000D03*
X74295000Y-158115000D03*
X74295000Y-160655000D03*
X74295000Y-163195000D03*
X74295000Y-165735000D03*
X74295000Y-168275000D03*
X74295000Y-170815000D03*
X76835000Y-173355000D03*
X79495000Y-173395000D03*
X79495000Y-175935000D03*
X79495000Y-178475000D03*
X79495000Y-181015000D03*
X79495000Y-183555000D03*
X79495000Y-186095000D03*
X79495000Y-188635000D03*
X79495000Y-191175000D03*
X79495000Y-193715000D03*
X79495000Y-196255000D03*
X79495000Y-198795000D03*
X79495000Y-201335000D03*
X79495000Y-203875000D03*
X79495000Y-206415000D03*
X79495000Y-208955000D03*
X79495000Y-211495000D03*
X79495000Y-214035000D03*
X79495000Y-216575000D03*
X79495000Y-219115000D03*
X120015000Y-145415000D03*
X120015000Y-147955000D03*
X120015000Y-150495000D03*
X120015000Y-153035000D03*
X109855000Y-155575000D03*
X109855000Y-153035000D03*
X109855000Y-150495000D03*
X109855000Y-147955000D03*
X109855000Y-145415000D03*
X48895000Y-145415000D03*
X48895000Y-147955000D03*
X48895000Y-150495000D03*
X48895000Y-153035000D03*
X48895000Y-155575000D03*
X48895000Y-158115000D03*
X48895000Y-160655000D03*
X48895000Y-163195000D03*
X48895000Y-165735000D03*
X48895000Y-168275000D03*
X48895000Y-170815000D03*
X48895000Y-173355000D03*
X48895000Y-175895000D03*
X48895000Y-178435000D03*
X48895000Y-180975000D03*
X48895000Y-183515000D03*
X48895000Y-186055000D03*
X48895000Y-188595000D03*
X48895000Y-191135000D03*
X48895000Y-193675000D03*
X48895000Y-196215000D03*
X48895000Y-198755000D03*
X48895000Y-201295000D03*
X48895000Y-203835000D03*
X48895000Y-206375000D03*
X48895000Y-208915000D03*
X48895000Y-211455000D03*
X48895000Y-213995000D03*
X48895000Y-216535000D03*
X48895000Y-219075000D03*
X48895000Y-221615000D03*
X48895000Y-224155000D03*
X135255000Y-211455000D03*
X132715000Y-211455000D03*
X130175000Y-211455000D03*
X135255000Y-231775000D03*
X132715000Y-231775000D03*
X130175000Y-231775000D03*
X132715000Y-224155000D03*
X132715000Y-226695000D03*
X132715000Y-229235000D03*
X130175000Y-229235000D03*
X130175000Y-226695000D03*
X130175000Y-224155000D03*
X130175000Y-221615000D03*
X132715000Y-221615000D03*
X135255000Y-221615000D03*
X135255000Y-224155000D03*
X135255000Y-226695000D03*
X135255000Y-229235000D03*
X127635000Y-231775000D03*
X127635000Y-229235000D03*
X127635000Y-226695000D03*
X127635000Y-224155000D03*
X127635000Y-221615000D03*
X127635000Y-219075000D03*
X130175000Y-219075000D03*
X132715000Y-219075000D03*
X135255000Y-219075000D03*
X135255000Y-216535000D03*
X132715000Y-216535000D03*
X130175000Y-216535000D03*
X127635000Y-216535000D03*
X127635000Y-213995000D03*
X130175000Y-213995000D03*
X132715000Y-213995000D03*
X135255000Y-213995000D03*
X127635000Y-211455000D03*
X114935000Y-150495000D03*
X114935000Y-147955000D03*
X117475000Y-147955000D03*
X117475000Y-150495000D03*
X117475000Y-153035000D03*
X114935000Y-153035000D03*
X112395000Y-153035000D03*
X112395000Y-150495000D03*
X112395000Y-147955000D03*
X112395000Y-155575000D03*
X114935000Y-155575000D03*
X117475000Y-155575000D03*
X120015000Y-155575000D03*
X117475000Y-145415000D03*
X114935000Y-145415000D03*
X112395000Y-145415000D03*
X74295000Y-183515000D03*
X74295000Y-180975000D03*
X74295000Y-178435000D03*
X76835000Y-178435000D03*
X76835000Y-180975000D03*
X76835000Y-183515000D03*
X76835000Y-186055000D03*
X74295000Y-186055000D03*
X74295000Y-188595000D03*
X76835000Y-188595000D03*
X76835000Y-191135000D03*
X74295000Y-191135000D03*
X74295000Y-206375000D03*
X74295000Y-203835000D03*
X74295000Y-201295000D03*
X74295000Y-198755000D03*
X74295000Y-196215000D03*
X74295000Y-193675000D03*
X76835000Y-193675000D03*
X76835000Y-196215000D03*
X76835000Y-198755000D03*
X76835000Y-201295000D03*
X76835000Y-203835000D03*
X76835000Y-206375000D03*
X76835000Y-208915000D03*
X74295000Y-208915000D03*
X74295000Y-211455000D03*
X76835000Y-211455000D03*
X74295000Y-213995000D03*
X76835000Y-213995000D03*
X76835000Y-216535000D03*
X74295000Y-216535000D03*
X74295000Y-219075000D03*
X76835000Y-219075000D03*
X76835000Y-175895000D03*
X74295000Y-175895000D03*
X74295000Y-173355000D03*
X59055000Y-142875000D03*
X59055000Y-140335000D03*
X61595000Y-140335000D03*
X61595000Y-142875000D03*
X64135000Y-142875000D03*
X64135000Y-140335000D03*
X64135000Y-137795000D03*
X61595000Y-137795000D03*
X59055000Y-137795000D03*
X56515000Y-137795000D03*
X56515000Y-140335000D03*
X56515000Y-142875000D03*
X64135000Y-231775000D03*
X64135000Y-229235000D03*
X64135000Y-226695000D03*
X64135000Y-224155000D03*
D12*
X51435000Y-229235000D03*
D13*
X120015000Y-228600000D03*
D14*
X120015000Y-231140000D03*
X117475000Y-228600000D03*
X117475000Y-231140000D03*
X114935000Y-228600000D03*
X114935000Y-231140000D03*
X112395000Y-228600000D03*
X112395000Y-231140000D03*
X109855000Y-228600000D03*
X109855000Y-231140000D03*
X107315000Y-228600000D03*
X107315000Y-231140000D03*
X104775000Y-228600000D03*
X104775000Y-231140000D03*
X102235000Y-228600000D03*
X102235000Y-231140000D03*
X99695000Y-228600000D03*
X99695000Y-231140000D03*
X97155000Y-228600000D03*
X97155000Y-231140000D03*
X94615000Y-228600000D03*
X94615000Y-231140000D03*
X92075000Y-228600000D03*
X92075000Y-231140000D03*
X89535000Y-228600000D03*
X89535000Y-231140000D03*
X86995000Y-228600000D03*
X86995000Y-231140000D03*
X84455000Y-228600000D03*
X84455000Y-231140000D03*
X81915000Y-228600000D03*
X81915000Y-231140000D03*
X79375000Y-228600000D03*
X79375000Y-231140000D03*
X76835000Y-228600000D03*
X76835000Y-231140000D03*
X74295000Y-228600000D03*
X74295000Y-231140000D03*
X71755000Y-228600000D03*
X71755000Y-231140000D03*
D11*
X61595000Y-231775000D03*
X59055000Y-231775000D03*
X56515000Y-231775000D03*
X61595000Y-229235000D03*
X59055000Y-229235000D03*
X56515000Y-229235000D03*
X61595000Y-226695000D03*
X59055000Y-226695000D03*
X56515000Y-226695000D03*
X61595000Y-224155000D03*
X59055000Y-224155000D03*
X56515000Y-224155000D03*
X53975000Y-224155000D03*
X51435000Y-224155000D03*
X71755000Y-221615000D03*
X69215000Y-221615000D03*
X66675000Y-221615000D03*
X64135000Y-221615000D03*
X61595000Y-221615000D03*
X59055000Y-221615000D03*
X56515000Y-221615000D03*
X53975000Y-221615000D03*
X51435000Y-221615000D03*
X71755000Y-219075000D03*
X69215000Y-219075000D03*
X66675000Y-219075000D03*
X64135000Y-219075000D03*
X61595000Y-219075000D03*
X59055000Y-219075000D03*
X56515000Y-219075000D03*
X53975000Y-219075000D03*
X51435000Y-219075000D03*
X71755000Y-216535000D03*
X69215000Y-216535000D03*
X66675000Y-216535000D03*
X64135000Y-216535000D03*
X61595000Y-216535000D03*
X59055000Y-216535000D03*
X56515000Y-216535000D03*
X53975000Y-216535000D03*
X51435000Y-216535000D03*
X71755000Y-213995000D03*
X69215000Y-213995000D03*
X66675000Y-213995000D03*
X64135000Y-213995000D03*
X61595000Y-213995000D03*
X59055000Y-213995000D03*
X56515000Y-213995000D03*
X53975000Y-213995000D03*
X51435000Y-213995000D03*
X71755000Y-211455000D03*
X69215000Y-211455000D03*
X66675000Y-211455000D03*
X64135000Y-211455000D03*
X61595000Y-211455000D03*
X59055000Y-211455000D03*
X56515000Y-211455000D03*
X53975000Y-211455000D03*
X51435000Y-211455000D03*
X71755000Y-208915000D03*
X69215000Y-208915000D03*
X66675000Y-208915000D03*
X64135000Y-208915000D03*
X61595000Y-208915000D03*
X59055000Y-208915000D03*
X56515000Y-208915000D03*
X53975000Y-208915000D03*
X51435000Y-208915000D03*
X71755000Y-206375000D03*
X69215000Y-206375000D03*
X66675000Y-206375000D03*
X64135000Y-206375000D03*
X61595000Y-206375000D03*
X59055000Y-206375000D03*
X56515000Y-206375000D03*
X53975000Y-206375000D03*
X51435000Y-206375000D03*
X71755000Y-203835000D03*
X69215000Y-203835000D03*
X66675000Y-203835000D03*
X64135000Y-203835000D03*
X61595000Y-203835000D03*
X59055000Y-203835000D03*
X56515000Y-203835000D03*
X53975000Y-203835000D03*
X51435000Y-203835000D03*
X71755000Y-201295000D03*
X69215000Y-201295000D03*
X66675000Y-201295000D03*
X64135000Y-201295000D03*
X61595000Y-201295000D03*
X59055000Y-201295000D03*
X56515000Y-201295000D03*
X53975000Y-201295000D03*
X51435000Y-201295000D03*
X71755000Y-198755000D03*
X69215000Y-198755000D03*
X66675000Y-198755000D03*
X64135000Y-198755000D03*
X61595000Y-198755000D03*
X59055000Y-198755000D03*
X56515000Y-198755000D03*
X53975000Y-198755000D03*
X51435000Y-198755000D03*
X71755000Y-196215000D03*
X69215000Y-196215000D03*
X66675000Y-196215000D03*
X64135000Y-196215000D03*
X61595000Y-196215000D03*
X59055000Y-196215000D03*
X56515000Y-196215000D03*
X53975000Y-196215000D03*
X51435000Y-196215000D03*
X71755000Y-193675000D03*
X69215000Y-193675000D03*
X66675000Y-193675000D03*
X64135000Y-193675000D03*
X61595000Y-193675000D03*
X59055000Y-193675000D03*
X56515000Y-193675000D03*
X53975000Y-193675000D03*
X51435000Y-193675000D03*
X71755000Y-191135000D03*
X69215000Y-191135000D03*
X66675000Y-191135000D03*
X64135000Y-191135000D03*
X61595000Y-191135000D03*
X59055000Y-191135000D03*
X56515000Y-191135000D03*
X53975000Y-191135000D03*
X51435000Y-191135000D03*
X71755000Y-188595000D03*
X69215000Y-188595000D03*
X66675000Y-188595000D03*
X64135000Y-188595000D03*
X61595000Y-188595000D03*
X59055000Y-188595000D03*
X56515000Y-188595000D03*
X53975000Y-188595000D03*
X51435000Y-188595000D03*
X71755000Y-186055000D03*
X69215000Y-186055000D03*
X66675000Y-186055000D03*
X64135000Y-186055000D03*
X61595000Y-186055000D03*
X59055000Y-186055000D03*
X56515000Y-186055000D03*
X53975000Y-186055000D03*
X51435000Y-186055000D03*
X71755000Y-183515000D03*
X69215000Y-183515000D03*
X66675000Y-183515000D03*
X64135000Y-183515000D03*
X61595000Y-183515000D03*
X59055000Y-183515000D03*
X56515000Y-183515000D03*
X53975000Y-183515000D03*
X51435000Y-183515000D03*
X71755000Y-180975000D03*
X69215000Y-180975000D03*
X66675000Y-180975000D03*
X64135000Y-180975000D03*
X61595000Y-180975000D03*
X59055000Y-180975000D03*
X56515000Y-180975000D03*
X53975000Y-180975000D03*
X51435000Y-180975000D03*
X71755000Y-178435000D03*
X69215000Y-178435000D03*
X66675000Y-178435000D03*
X64135000Y-178435000D03*
X61595000Y-178435000D03*
X59055000Y-178435000D03*
X56515000Y-178435000D03*
X53975000Y-178435000D03*
X51435000Y-178435000D03*
X71755000Y-175895000D03*
X69215000Y-175895000D03*
X66675000Y-175895000D03*
X64135000Y-175895000D03*
X61595000Y-175895000D03*
X59055000Y-175895000D03*
X56515000Y-175895000D03*
X53975000Y-175895000D03*
X51435000Y-175895000D03*
X71755000Y-173355000D03*
X69215000Y-173355000D03*
X66675000Y-173355000D03*
X64135000Y-173355000D03*
X61595000Y-173355000D03*
X59055000Y-173355000D03*
X56515000Y-173355000D03*
X53975000Y-173355000D03*
X51435000Y-173355000D03*
X71755000Y-170815000D03*
X69215000Y-170815000D03*
X66675000Y-170815000D03*
X64135000Y-170815000D03*
X61595000Y-170815000D03*
X59055000Y-170815000D03*
X56515000Y-170815000D03*
X53975000Y-170815000D03*
X51435000Y-170815000D03*
X71755000Y-168275000D03*
X69215000Y-168275000D03*
X66675000Y-168275000D03*
X64135000Y-168275000D03*
X61595000Y-168275000D03*
X59055000Y-168275000D03*
X56515000Y-168275000D03*
X53975000Y-168275000D03*
X51435000Y-168275000D03*
X71755000Y-165735000D03*
X69215000Y-165735000D03*
X66675000Y-165735000D03*
X64135000Y-165735000D03*
X61595000Y-165735000D03*
X59055000Y-165735000D03*
X56515000Y-165735000D03*
X53975000Y-165735000D03*
X51435000Y-165735000D03*
X71755000Y-163195000D03*
X69215000Y-163195000D03*
X66675000Y-163195000D03*
X64135000Y-163195000D03*
X61595000Y-163195000D03*
X59055000Y-163195000D03*
X56515000Y-163195000D03*
X53975000Y-163195000D03*
X51435000Y-163195000D03*
X71755000Y-160655000D03*
X69215000Y-160655000D03*
X66675000Y-160655000D03*
X64135000Y-160655000D03*
X61595000Y-160655000D03*
X59055000Y-160655000D03*
X56515000Y-160655000D03*
X53975000Y-160655000D03*
X51435000Y-160655000D03*
X71755000Y-158115000D03*
X69215000Y-158115000D03*
X66675000Y-158115000D03*
X64135000Y-158115000D03*
X61595000Y-158115000D03*
X59055000Y-158115000D03*
X56515000Y-158115000D03*
X53975000Y-158115000D03*
X51435000Y-158115000D03*
X71755000Y-155575000D03*
X69215000Y-155575000D03*
X66675000Y-155575000D03*
X64135000Y-155575000D03*
X61595000Y-155575000D03*
X59055000Y-155575000D03*
X56515000Y-155575000D03*
X53975000Y-155575000D03*
X51435000Y-155575000D03*
X71755000Y-153035000D03*
X69215000Y-153035000D03*
X66675000Y-153035000D03*
X64135000Y-153035000D03*
X61595000Y-153035000D03*
X59055000Y-153035000D03*
X56515000Y-153035000D03*
X53975000Y-153035000D03*
X51435000Y-153035000D03*
X71755000Y-150495000D03*
X69215000Y-150495000D03*
X66675000Y-150495000D03*
X64135000Y-150495000D03*
X61595000Y-150495000D03*
X59055000Y-150495000D03*
X56515000Y-150495000D03*
X53975000Y-150495000D03*
X51435000Y-150495000D03*
X71755000Y-147955000D03*
X69215000Y-147955000D03*
X66675000Y-147955000D03*
X64135000Y-147955000D03*
X61595000Y-147955000D03*
X59055000Y-147955000D03*
X56515000Y-147955000D03*
X53975000Y-147955000D03*
X51435000Y-147955000D03*
X71755000Y-145415000D03*
X69215000Y-145415000D03*
X66675000Y-145415000D03*
X64135000Y-145415000D03*
X61595000Y-145415000D03*
X59055000Y-145415000D03*
X56515000Y-145415000D03*
X53975000Y-145415000D03*
X51435000Y-145415000D03*
D12*
X140970000Y-139700000D03*
X51435000Y-139700000D03*
X140970000Y-229235000D03*
D15*
X131445000Y-137795000D03*
X133985000Y-137795000D03*
D13*
X140335000Y-209550000D03*
D14*
X142875000Y-209550000D03*
X140335000Y-212090000D03*
X142875000Y-212090000D03*
X140335000Y-214630000D03*
X142875000Y-214630000D03*
X140335000Y-217170000D03*
X142875000Y-217170000D03*
X140335000Y-219710000D03*
X142875000Y-219710000D03*
D10*
G36*
X92004150Y-190036180D02*
X91473820Y-189505850D01*
X92322348Y-188657322D01*
X92852678Y-189187652D01*
X92004150Y-190036180D01*
X92004150Y-190036180D01*
G37*
G36*
X93347652Y-188692678D02*
X92817322Y-188162348D01*
X93665850Y-187313820D01*
X94196180Y-187844150D01*
X93347652Y-188692678D01*
X93347652Y-188692678D01*
G37*
G36*
X100116180Y-178945850D02*
X99585850Y-179476180D01*
X98737322Y-178627652D01*
X99267652Y-178097322D01*
X100116180Y-178945850D01*
X100116180Y-178945850D01*
G37*
G36*
X98772678Y-177602348D02*
X98242348Y-178132678D01*
X97393820Y-177284150D01*
X97924150Y-176753820D01*
X98772678Y-177602348D01*
X98772678Y-177602348D01*
G37*
G36*
X89184150Y-187136180D02*
X88653820Y-186605850D01*
X89502348Y-185757322D01*
X90032678Y-186287652D01*
X89184150Y-187136180D01*
X89184150Y-187136180D01*
G37*
G36*
X90527652Y-185792678D02*
X89997322Y-185262348D01*
X90845850Y-184413820D01*
X91376180Y-184944150D01*
X90527652Y-185792678D01*
X90527652Y-185792678D01*
G37*
G36*
X97816180Y-191945850D02*
X97285850Y-192476180D01*
X96437322Y-191627652D01*
X96967652Y-191097322D01*
X97816180Y-191945850D01*
X97816180Y-191945850D01*
G37*
G36*
X96472678Y-190602348D02*
X95942348Y-191132678D01*
X95093820Y-190284150D01*
X95624150Y-189753820D01*
X96472678Y-190602348D01*
X96472678Y-190602348D01*
G37*
G36*
X102736180Y-187025850D02*
X102205850Y-187556180D01*
X101357322Y-186707652D01*
X101887652Y-186177322D01*
X102736180Y-187025850D01*
X102736180Y-187025850D01*
G37*
G36*
X101392678Y-185682348D02*
X100862348Y-186212678D01*
X100013820Y-185364150D01*
X100544150Y-184833820D01*
X101392678Y-185682348D01*
X101392678Y-185682348D01*
G37*
G36*
X102595850Y-181143820D02*
X103126180Y-181674150D01*
X102277652Y-182522678D01*
X101747322Y-181992348D01*
X102595850Y-181143820D01*
X102595850Y-181143820D01*
G37*
G36*
X101252348Y-182487322D02*
X101782678Y-183017652D01*
X100934150Y-183866180D01*
X100403820Y-183335850D01*
X101252348Y-182487322D01*
X101252348Y-182487322D01*
G37*
G36*
X92813820Y-177444150D02*
X93344150Y-176913820D01*
X94192678Y-177762348D01*
X93662348Y-178292678D01*
X92813820Y-177444150D01*
X92813820Y-177444150D01*
G37*
G36*
X94157322Y-178787652D02*
X94687652Y-178257322D01*
X95536180Y-179105850D01*
X95005850Y-179636180D01*
X94157322Y-178787652D01*
X94157322Y-178787652D01*
G37*
G36*
X88385850Y-182153820D02*
X88916180Y-182684150D01*
X88067652Y-183532678D01*
X87537322Y-183002348D01*
X88385850Y-182153820D01*
X88385850Y-182153820D01*
G37*
G36*
X87042348Y-183497322D02*
X87572678Y-184027652D01*
X86724150Y-184876180D01*
X86193820Y-184345850D01*
X87042348Y-183497322D01*
X87042348Y-183497322D01*
G37*
D13*
X71755000Y-140335000D03*
D14*
X71755000Y-137795000D03*
X74295000Y-140335000D03*
X74295000Y-137795000D03*
X76835000Y-140335000D03*
X76835000Y-137795000D03*
X79375000Y-140335000D03*
X79375000Y-137795000D03*
X81915000Y-140335000D03*
X81915000Y-137795000D03*
X84455000Y-140335000D03*
X84455000Y-137795000D03*
X86995000Y-140335000D03*
X86995000Y-137795000D03*
X89535000Y-140335000D03*
X89535000Y-137795000D03*
X92075000Y-140335000D03*
X92075000Y-137795000D03*
X94615000Y-140335000D03*
X94615000Y-137795000D03*
X97155000Y-140335000D03*
X97155000Y-137795000D03*
X99695000Y-140335000D03*
X99695000Y-137795000D03*
X102235000Y-140335000D03*
X102235000Y-137795000D03*
X104775000Y-140335000D03*
X104775000Y-137795000D03*
X107315000Y-140335000D03*
X107315000Y-137795000D03*
X109855000Y-140335000D03*
X109855000Y-137795000D03*
X112395000Y-140335000D03*
X112395000Y-137795000D03*
X114935000Y-140335000D03*
X114935000Y-137795000D03*
X117475000Y-140335000D03*
X117475000Y-137795000D03*
X120015000Y-140335000D03*
X120015000Y-137795000D03*
D13*
X140335000Y-149860000D03*
D14*
X142875000Y-149860000D03*
X140335000Y-152400000D03*
X142875000Y-152400000D03*
X140335000Y-154940000D03*
X142875000Y-154940000D03*
X140335000Y-157480000D03*
X142875000Y-157480000D03*
X140335000Y-160020000D03*
X142875000Y-160020000D03*
X140335000Y-162560000D03*
X142875000Y-162560000D03*
X140335000Y-165100000D03*
X142875000Y-165100000D03*
X140335000Y-167640000D03*
X142875000Y-167640000D03*
X140335000Y-170180000D03*
X142875000Y-170180000D03*
X140335000Y-172720000D03*
X142875000Y-172720000D03*
X140335000Y-175260000D03*
X142875000Y-175260000D03*
X140335000Y-177800000D03*
X142875000Y-177800000D03*
X140335000Y-180340000D03*
X142875000Y-180340000D03*
X140335000Y-182880000D03*
X142875000Y-182880000D03*
X140335000Y-185420000D03*
X142875000Y-185420000D03*
X140335000Y-187960000D03*
X142875000Y-187960000D03*
X140335000Y-190500000D03*
X142875000Y-190500000D03*
X140335000Y-193040000D03*
X142875000Y-193040000D03*
X140335000Y-195580000D03*
X142875000Y-195580000D03*
X140335000Y-198120000D03*
X142875000Y-198120000D03*
D16*
X103755000Y-160280000D03*
X103755000Y-163550000D03*
X102515000Y-170150000D03*
X102515000Y-166880000D03*
X101255000Y-160280000D03*
X101255000Y-163550000D03*
X99955000Y-170150000D03*
X99955000Y-166880000D03*
X98705000Y-160280000D03*
X98705000Y-163550000D03*
X97455000Y-170150000D03*
X97455000Y-166880000D03*
X96155000Y-160280000D03*
X96155000Y-163550000D03*
X94855000Y-170150000D03*
X94855000Y-166880000D03*
X93605000Y-160280000D03*
X93605000Y-163550000D03*
X92355000Y-170150000D03*
X92355000Y-166880000D03*
X91105000Y-160280000D03*
X91105000Y-163550000D03*
X89805000Y-170150000D03*
X89805000Y-166880000D03*
X88555000Y-160280000D03*
X88555000Y-163550000D03*
X87305000Y-170150000D03*
X87305000Y-166880000D03*
X86005000Y-160280000D03*
X86005000Y-163550000D03*
X84755000Y-170150000D03*
X84755000Y-166880000D03*
X83455000Y-160280000D03*
X83455000Y-163550000D03*
X82205000Y-170150000D03*
X82205000Y-166880000D03*
X80905000Y-160280000D03*
X80905000Y-163550000D03*
X79655000Y-170150000D03*
X79655000Y-166880000D03*
D17*
X135255000Y-188715000D03*
X133055000Y-188715000D03*
X127055000Y-187215000D03*
X129255000Y-187215000D03*
X135255000Y-185715000D03*
X133055000Y-185715000D03*
X127055000Y-184215000D03*
X129255000Y-184215000D03*
X135255000Y-182715000D03*
X133055000Y-182715000D03*
X127055000Y-181215000D03*
X129255000Y-181215000D03*
X135255000Y-179815000D03*
X133055000Y-179815000D03*
X127055000Y-178215000D03*
X129255000Y-178215000D03*
D18*
X113020000Y-188715000D03*
X116290000Y-188715000D03*
X123390000Y-187215000D03*
X120120000Y-187215000D03*
D17*
X133055000Y-158715000D03*
X135255000Y-158715000D03*
X135255000Y-206715000D03*
X133055000Y-206715000D03*
X127055000Y-205215000D03*
X129255000Y-205215000D03*
X135255000Y-203715000D03*
X133055000Y-203715000D03*
X127055000Y-202215000D03*
X129255000Y-202215000D03*
X135255000Y-200715000D03*
X133055000Y-200715000D03*
X127055000Y-199215000D03*
X129255000Y-199215000D03*
X135255000Y-197715000D03*
X133055000Y-197715000D03*
X127055000Y-196215000D03*
X129255000Y-196215000D03*
X135255000Y-194715000D03*
X133055000Y-194715000D03*
X127055000Y-193215000D03*
X129255000Y-193215000D03*
X135255000Y-191715000D03*
X133055000Y-191715000D03*
X127055000Y-190215000D03*
X129255000Y-190215000D03*
X135255000Y-176815000D03*
X133055000Y-176815000D03*
X127055000Y-175215000D03*
X129255000Y-175215000D03*
X135255000Y-173715000D03*
X133055000Y-173715000D03*
X127055000Y-172215000D03*
X129255000Y-172215000D03*
X135255000Y-170715000D03*
X133055000Y-170715000D03*
X127055000Y-169215000D03*
X129255000Y-169215000D03*
X127055000Y-166215000D03*
X129255000Y-166215000D03*
X135255000Y-164715000D03*
X133055000Y-164715000D03*
X127055000Y-163215000D03*
X129255000Y-163215000D03*
X135255000Y-161715000D03*
X133055000Y-161715000D03*
X127055000Y-160215000D03*
X129255000Y-160215000D03*
D16*
X83255000Y-212850000D03*
X83255000Y-209580000D03*
X84755000Y-203180000D03*
X84755000Y-206450000D03*
X86255000Y-212850000D03*
X86255000Y-209580000D03*
X87755000Y-203180000D03*
X87755000Y-206450000D03*
X89255000Y-212850000D03*
X89255000Y-209580000D03*
X90755000Y-203180000D03*
X90755000Y-206450000D03*
X92355000Y-212850000D03*
X92355000Y-209580000D03*
X93755000Y-203180000D03*
X93755000Y-206450000D03*
X95845000Y-218650000D03*
X95845000Y-215380000D03*
X97345000Y-208780000D03*
X97345000Y-212050000D03*
X98845000Y-218650000D03*
X98845000Y-215380000D03*
X100345000Y-208780000D03*
X100345000Y-212050000D03*
X101845000Y-218650000D03*
X101845000Y-215380000D03*
X103345000Y-208780000D03*
X103345000Y-212050000D03*
X104845000Y-218650000D03*
X104845000Y-215380000D03*
X106345000Y-208780000D03*
X106345000Y-212050000D03*
X107845000Y-218650000D03*
X107845000Y-215380000D03*
X109345000Y-208780000D03*
X109345000Y-212050000D03*
X110845000Y-218650000D03*
X110845000Y-215380000D03*
X112345000Y-208780000D03*
X112345000Y-212050000D03*
X113845000Y-218650000D03*
X113845000Y-215380000D03*
X115345000Y-208780000D03*
X115345000Y-212050000D03*
X116845000Y-218650000D03*
X116845000Y-215380000D03*
X118345000Y-208780000D03*
X118345000Y-212050000D03*
X119845000Y-218650000D03*
X119845000Y-215380000D03*
X121345000Y-208780000D03*
X121345000Y-212050000D03*
D18*
X113020000Y-206715000D03*
X116290000Y-206715000D03*
X123390000Y-205215000D03*
X120120000Y-205215000D03*
X113020000Y-203715000D03*
X116290000Y-203715000D03*
X123390000Y-202215000D03*
X120120000Y-202215000D03*
X113020000Y-200715000D03*
X116290000Y-200715000D03*
X123390000Y-199215000D03*
X120120000Y-199215000D03*
X113020000Y-197715000D03*
X116290000Y-197715000D03*
X123390000Y-196215000D03*
X120120000Y-196215000D03*
X113020000Y-194715000D03*
X116290000Y-194715000D03*
X123390000Y-193215000D03*
X120120000Y-193215000D03*
X113020000Y-191715000D03*
X116290000Y-191715000D03*
X123390000Y-190215000D03*
X120120000Y-190215000D03*
X113020000Y-185715000D03*
X116290000Y-185715000D03*
X123390000Y-184215000D03*
X120120000Y-184215000D03*
X113020000Y-182715000D03*
X116290000Y-182715000D03*
X123390000Y-181215000D03*
X120120000Y-181215000D03*
X113020000Y-179815000D03*
X116290000Y-179815000D03*
X123390000Y-178215000D03*
X120120000Y-178215000D03*
X113020000Y-176815000D03*
X116290000Y-176815000D03*
X123390000Y-175215000D03*
X120120000Y-175215000D03*
X113020000Y-173715000D03*
X116290000Y-173715000D03*
X123390000Y-172215000D03*
X120120000Y-172215000D03*
X113020000Y-170715000D03*
X116290000Y-170715000D03*
X123390000Y-169215000D03*
X120120000Y-169215000D03*
X113020000Y-167715000D03*
X116290000Y-167715000D03*
X123390000Y-166215000D03*
X120120000Y-166215000D03*
X113020000Y-164715000D03*
X116290000Y-164715000D03*
X123390000Y-163215000D03*
X120120000Y-163215000D03*
X113020000Y-161715000D03*
X116290000Y-161715000D03*
X123390000Y-160215000D03*
X120120000Y-160215000D03*
D16*
X106355000Y-159480000D03*
X106355000Y-162750000D03*
X105055000Y-170150000D03*
X105055000Y-166880000D03*
D19*
X83255000Y-216415000D03*
X83255000Y-218615000D03*
X84755000Y-224015000D03*
X84755000Y-221815000D03*
X86255000Y-216415000D03*
X86255000Y-218615000D03*
X87755000Y-224015000D03*
X87755000Y-221815000D03*
X89255000Y-216415000D03*
X89255000Y-218615000D03*
X90755000Y-224015000D03*
X90755000Y-221815000D03*
X92255000Y-216415000D03*
X92255000Y-218615000D03*
X93755000Y-224015000D03*
X93755000Y-221815000D03*
X97355000Y-224015000D03*
X97355000Y-221815000D03*
X121355000Y-224015000D03*
X121355000Y-221815000D03*
D17*
X135255000Y-167715000D03*
X133055000Y-167715000D03*
X126195000Y-137795000D03*
X123995000Y-137795000D03*
X126195000Y-140335000D03*
X123995000Y-140335000D03*
D19*
X139355000Y-204415000D03*
X139355000Y-206615000D03*
X141155000Y-204415000D03*
X141155000Y-206615000D03*
X137655000Y-204415000D03*
X137655000Y-206615000D03*
X142955000Y-204415000D03*
X142955000Y-206615000D03*
D20*
X103655000Y-185415000D03*
X98655000Y-190315000D03*
X98755000Y-179915000D03*
X95055000Y-176115000D03*
X90155000Y-181015000D03*
X100555000Y-180915000D03*
X91055000Y-187615000D03*
X88355000Y-189915000D03*
D21*
X123855000Y-142915000D03*
X133095000Y-142875000D03*
D20*
X136255000Y-205115000D03*
X122855000Y-208415000D03*
X128555000Y-153715000D03*
X97845000Y-191055000D03*
X102795000Y-186115000D03*
X101745000Y-181115000D03*
X100345000Y-179695000D03*
X91445000Y-188595000D03*
X90025000Y-187185000D03*
X94245000Y-176855000D03*
X89315000Y-181815000D03*
X83255000Y-208015000D03*
X84755000Y-208015000D03*
X86255000Y-208015000D03*
X87755000Y-208015000D03*
X89255000Y-208015000D03*
X90755000Y-208015000D03*
X95845000Y-213715000D03*
X97345000Y-213715000D03*
X98845000Y-213715000D03*
X100345000Y-213715000D03*
X101845000Y-213715000D03*
X103345000Y-213715000D03*
X104845000Y-213715000D03*
X109345000Y-213715000D03*
X110845000Y-213715000D03*
X112345000Y-213715000D03*
X113845000Y-213715000D03*
X116845000Y-213715000D03*
X118345000Y-213715000D03*
X119845000Y-213715000D03*
X121345000Y-213715000D03*
X118455000Y-206715000D03*
X118455000Y-205215000D03*
X118455000Y-203715000D03*
X118455000Y-202215000D03*
X118455000Y-200715000D03*
X118455000Y-199215000D03*
X118455000Y-197715000D03*
X118455000Y-194715000D03*
X118455000Y-193215000D03*
X118455000Y-191715000D03*
X118455000Y-188715000D03*
X118455000Y-187215000D03*
X118455000Y-185715000D03*
X118455000Y-184215000D03*
X118455000Y-182715000D03*
X118455000Y-181215000D03*
X103775000Y-165215000D03*
X101235000Y-165215000D03*
X99965000Y-165215000D03*
X98695000Y-165215000D03*
X97425000Y-165215000D03*
X96155000Y-165215000D03*
X94885000Y-165215000D03*
X93615000Y-165215000D03*
X92345000Y-165215000D03*
X91075000Y-165215000D03*
X89805000Y-165215000D03*
X88535000Y-165215000D03*
X85995000Y-165215000D03*
X84725000Y-165215000D03*
X83455000Y-165215000D03*
X82185000Y-165215000D03*
X80915000Y-165215000D03*
X79645000Y-165195000D03*
X122855000Y-209515000D03*
X97655000Y-198315000D03*
X122855000Y-210715000D03*
X96455000Y-195915000D03*
X122355000Y-216615000D03*
X95355000Y-197715000D03*
X123155000Y-217415000D03*
X94455000Y-196515000D03*
X121355000Y-220215000D03*
X97355000Y-220215000D03*
X92355000Y-208015000D03*
X93755000Y-208015000D03*
X106345000Y-213715000D03*
X107845000Y-213715000D03*
X115345000Y-213715000D03*
X118455000Y-196215000D03*
X118455000Y-190215000D03*
X102505000Y-165215000D03*
X87265000Y-165215000D03*
X93755000Y-220215000D03*
X92255000Y-220215000D03*
X90755000Y-220215000D03*
X89255000Y-220215000D03*
X87755000Y-220215000D03*
X86255000Y-220215000D03*
X84755000Y-220215000D03*
X83255000Y-220215000D03*
X118455000Y-160215000D03*
X131155000Y-160215000D03*
X118455000Y-161715000D03*
X131155000Y-161715000D03*
X118455000Y-163215000D03*
X131155000Y-163215000D03*
X118455000Y-164715000D03*
X131155000Y-164715000D03*
X118455000Y-166215000D03*
X131155000Y-166215000D03*
X118455000Y-167715000D03*
X131155000Y-167715000D03*
X118455000Y-169215000D03*
X131155000Y-169215000D03*
X118455000Y-170715000D03*
X131155000Y-170715000D03*
X118455000Y-172215000D03*
X131155000Y-172215000D03*
X118455000Y-173715000D03*
X131155000Y-173715000D03*
X118455000Y-175215000D03*
X131155000Y-175215000D03*
X118455000Y-176815000D03*
X131155000Y-176815000D03*
X118455000Y-178215000D03*
X131155000Y-178215000D03*
X118455000Y-179815000D03*
X131155000Y-179815000D03*
X131155000Y-181215000D03*
X131155000Y-182715000D03*
X131155000Y-184215000D03*
X131155000Y-185715000D03*
X131155000Y-187215000D03*
X131155000Y-188715000D03*
X131155000Y-190215000D03*
X131155000Y-191715000D03*
X131155000Y-193215000D03*
X131155000Y-194715000D03*
X131155000Y-196215000D03*
X131155000Y-197715000D03*
X131155000Y-199215000D03*
X131155000Y-200715000D03*
X131155000Y-202215000D03*
X131155000Y-203715000D03*
X131155000Y-205215000D03*
X131155000Y-206715000D03*
X106355000Y-164155000D03*
X105055000Y-165215000D03*
M02*
